<?xml version="1.0" encoding="iso-8859-1"?>
<!-- Generator: Adobe Illustrator 19.2.1, SVG Export Plug-In . SVG Version: 6.00 Build 0)  -->
<svg version="1.1" xmlns="http://www.w3.org/2000/svg" xmlns:xlink="http://www.w3.org/1999/xlink" x="0px" y="0px"
	 viewBox="0 0 841.89 595.28" style="enable-background:new 0 0 841.89 595.28;" xml:space="preserve">
<g id="layer223">
	<g id="layer223_1_" slic3r:z="8.94000000000007e-005">
		<polygon slic3r:type="contour" style="fill:#FFFFFF;stroke:#000000;stroke-miterlimit:10;" points="649.322,108.183 
			649.709,109.336 649.738,110.453 649.678,111.618 648.406,114.335 648.318,114.382 648.365,114.47 648.188,114.564 
			645.776,116.416 643.569,117.591 643.481,117.638 642.816,117.879 641.174,118.413 641.086,118.46 640.686,118.56 
			638.633,118.747 637.962,118.764 636.897,119.104 634.621,119.297 632.174,119.807 631.638,119.866 630.079,120.13 
			627.897,120.499 627.585,120.552 627.361,120.557 626.873,120.704 624.279,120.726 621.138,120.36 621.003,120.318 
			620.82,120.189 618.598,118.993 617.633,118.034 616.893,117.069 616.146,115.88 615.436,114.333 615.242,113.756 
			614.843,112.156 614.78,109.697 614.798,108.667 614.998,107.768 615.653,105.38 616.248,104.157 617.278,102.475 
			617.449,102.157 618.797,100.646 619.232,100.188 620.457,99.083 621.334,98.389 622.605,97.372 624.27,96.032 624.447,95.938 
			626.036,95.092 627.007,94.575 627.183,94.481 629.136,93.894 630.201,93.553 630.336,93.595 633.284,93.385 633.419,93.426 
			633.643,93.42 635.636,94.398 636.365,94.916 636.959,95.393 638.782,96.688 639.928,97.777 640.657,98.295 642.95,100.473 
			644.096,101.562 645.566,103.045 646.806,104.311 647.823,105.582 648.57,106.77 		">
		</polygon>
		<polygon slic3r:type="contour" style="fill:#FFFFFF;stroke:#000000;stroke-miterlimit:10;" points="758.193,213.69 
			758.633,215.155 759.167,216.797 759.501,219.338 759.607,219.962 759.577,220.544 759.358,222.473 759.334,223.279 
			759.057,224.673 758.738,226.202 758.09,228.814 757.883,229.49 757.217,231.431 756.08,234.189 756.039,234.324 756.039,234.324 
			754.902,237.082 754.013,239.029 753.924,239.076 753.971,239.164 752.764,240.94 752.34,241.845 751.393,243.257 
			750.839,244.344 749.29,246.755 748.99,247.255 748.425,247.896 746.777,249.907 745.652,251.412 744.434,252.741 
			742.038,255.263 741.514,255.768 740.425,256.915 738.983,258.249 738.236,258.76 736.747,260.006 734.246,261.905 
			734.158,261.952 734.069,261.999 731.168,263.997 729.85,264.926 729.014,265.484 727.826,266.23 725.007,267.958 724.477,268.24 
			724.301,268.334 723.065,268.992 720.329,270.449 719.711,270.778 716.393,272.206 714.975,272.734 712.227,273.744 
			710.985,274.179 710.056,274.561 707.791,275.201 707.479,275.253 705.479,275.752 702.678,276.45 701.478,276.75 
			700.143,277.008 697.919,277.512 695.207,278.164 694.406,278.363 694.006,278.463 690.718,279.308 688.541,279.901 
			687.164,280.294 684.193,281.31 683.705,281.457 680.422,282.525 679.804,282.854 676.656,283.964 674.62,284.822 
			673.114,285.397 670.46,286.584 669.707,286.872 668.295,287.624 666.218,288.616 664.629,289.463 663.082,290.173 
			661.187,291.296 660.263,291.901 659.91,292.089 659.469,292.324 658.28,293.07 657.75,293.353 656.732,293.781 655.673,294.345 
			653.778,295.468 652.454,296.173 650.648,297.248 649.018,298.23 648.447,298.647 646.817,299.628 645.934,300.098 
			645.628,300.375 643.951,301.268 643.598,301.456 642.892,301.832 641.086,302.907 639.762,303.612 638.308,304.499 
			636.237,305.716 635.266,306.233 634.825,306.468 631.735,308.113 631.647,308.16 628.734,309.711 628.47,309.852 628.47,309.852 
			628.381,309.899 624.892,311.644 623.921,312.161 621.314,313.436 620.12,313.959 616.672,315.569 616.584,315.616 
			616.319,315.757 613.089,317.137 612.294,317.56 609.594,318.658 608.664,319.04 606.893,319.757 605.298,320.379 
			604.104,320.902 602.021,321.672 599.674,322.582 598.079,323.204 595.508,324.121 594.002,324.696 593.249,324.984 
			589.924,326.188 587.753,327.004 585.847,327.679 582.611,328.836 581.723,329.083 578.751,330.099 577.686,330.439 
			577.422,330.58 573.78,331.613 572.715,331.954 569.561,332.84 568.45,333.092 567.073,333.486 565.161,333.937 563.249,334.389 
			560.978,334.805 560.443,334.864 557.683,335.427 557.548,335.386 556.925,335.491 554.654,335.907 554.342,335.96 
			551.936,336.335 550.553,336.505 548.771,336.774 547.877,336.797 546.583,336.92 545.065,337.049 541.671,337.27 
			541.047,337.376 540.823,337.381 539.617,337.457 536.27,337.767 535.6,337.784 531.894,338.058 530.641,338.046 527.47,338.261 
			527.023,338.273 526.846,338.367 523.582,338.406 522.864,338.335 519.24,338.339 518.882,338.303 518.211,338.32 
			516.058,338.107 514.935,337.913 513.858,337.806 512.423,337.664 510.535,337.31 509.188,337.121 507.435,336.808 
			505.865,336.625 503.665,336.323 503.306,336.288 500.477,335.869 499.536,335.803 495.989,335.313 495.048,335.248 
			493.389,335.111 492.043,334.922 490.113,334.703 489.037,334.597 488.454,334.567 486.39,334.307 485.267,334.112 
			482.89,333.905 482.037,333.793 480.332,333.568 478.449,333.437 477.732,333.366 476.161,333.183 474.502,333.047 
			471.632,332.763 471.544,332.81 471.273,332.727 468.585,332.573 467.373,332.425 465.715,332.289 464.727,332.135 
			461.492,331.592 461.221,331.509 459.468,331.197 457.086,330.766 456.727,330.73 456.322,330.606 455.286,330.365 
			453.622,330.005 451.734,329.651 451.328,329.527 449.481,329.037 448.264,328.666 447.905,328.631 444.971,327.588 
			443.888,327.258 441.812,326.55 441.001,326.303 439.689,325.755 438.243,325.166 437.702,325.001 436.12,324.371 
			433.585,323.228 432.862,322.933 432.273,322.68 429.333,321.413 428.927,321.29 426.663,320.229 426.257,320.106 
			424.358,319.305 422.417,318.639 421.335,318.309 418.271,317.448 417.73,317.283 416.43,317.182 413.554,316.674 
			412.342,316.527 410.554,316.573 408.63,316.577 405.371,316.84 404.165,316.916 403.63,316.974 400.512,317.502 399.665,317.613 
			399.488,317.707 396.153,318.464 395.311,318.799 392.252,319.861 391.275,320.155 391.099,320.249 390.787,320.302 
			389.151,321.06 385.962,322.305 385.079,322.775 382.426,323.961 379.996,325.142 378.536,325.806 375.794,327.04 374.912,327.51 
			374.423,327.656 371.64,329.025 369.169,330.342 368.198,330.859 366.697,331.658 365.197,332.457 364.45,332.968 
			364.273,333.062 363.743,333.344 361.366,334.837 360.007,335.901 358.641,336.741 358.159,337.111 354.516,339.844 
			354.516,339.844 354.516,339.844 354.428,339.891 353.945,340.262 350.603,342.495 350.338,342.636 349.943,342.959 
			347.125,344.687 345.671,345.574 344,346.691 342.764,347.349 341.399,348.189 340.252,348.8 339.546,349.176 337.256,350.622 
			336.903,350.81 336.774,350.992 335.762,351.645 333.343,353.273 332.99,353.461 332.507,353.831 329.918,355.776 
			329.176,356.511 327.293,358.081 326.681,358.633 324.409,360.75 323.579,361.531 323.361,361.761 323.014,362.172 
			320.701,364.424 319.4,366.023 318.835,366.664 318.488,367.075 317.534,368.263 316.41,369.768 315.756,370.456 315.238,371.185 
			314.202,372.643 313.077,374.149 312.13,375.56 310.534,377.882 310.063,378.7 308.214,381.61 307.66,382.698 306.33,384.88 
			305.44,386.826 304.592,388.638 303.744,390.449 303.155,391.895 301.388,396.236 301.093,396.959 300.881,397.412 
			299.237,401.346 298.56,402.84 296.734,406.645 296.481,407.233 296.31,407.55 295.674,408.909 293.801,412.625 293.159,413.76 
			292.005,415.848 291.322,417.118 291.198,417.523 289.355,420.658 288.719,422.016 287.829,423.963 286.687,426.497 
			285.85,428.756 284.837,431.108 284.336,432.508 284.212,432.913 283.464,435.125 283.387,435.619 283.299,435.666 
			282.845,437.154 282.267,439.047 281.766,440.447 281.301,441.488 280.8,442.888 280.17,444.47 279.875,445.193 279.746,445.375 
			279.033,447.228 278.78,447.816 278.738,447.951 278.697,448.086 277.631,450.127 276.954,451.621 276.271,452.891 
			275.458,454.343 275.028,455.025 274.557,455.843 273.527,457.525 273.05,458.118 271.449,460.217 270.459,461.764 
			270.33,461.946 270.2,462.128 269.983,462.358 267.692,465.503 267.351,466.138 266.744,466.915 265.791,468.102 264.148,470.336 
			263.76,470.883 262.282,472.576 261.499,473.447 261.064,473.905 260.716,474.317 260.587,474.499 258.803,476.469 
			257.243,478.432 257.243,478.432 257.243,478.432 257.155,478.479 257.026,478.662 254.335,481.907 253.812,482.413 
			252.899,483.465 251.369,484.846 248.973,487.368 248.714,487.733 248.538,487.827 246.401,489.984 245.353,490.996 
			244.306,492.007 242.422,493.576 242.246,493.67 241.94,493.946 240.18,495.11 239.474,495.486 237.538,496.744 235.908,497.725 
			235.29,498.054 233.925,498.895 232.648,499.688 231.854,500.111 231.236,500.44 230.218,500.869 227.87,501.779 227.606,501.92 
			227.205,502.02 224.634,502.936 222.728,503.611 221.398,504.093 219.316,504.862 218.251,505.203 217.586,505.443 
			215.544,506.077 214.079,506.518 213.503,506.712 211.279,507.216 210.879,507.316 207.319,508.078 207.055,508.219 
			206.655,508.319 202.96,509.04 201.225,509.398 199.442,509.668 197.795,509.978 195.924,510.295 194.853,510.412 
			192.488,510.652 191.777,510.804 191.418,510.769 188.653,511.108 186.064,511.354 185.394,511.371 184.947,511.382 
			183.517,511.464 182.223,511.587 181.641,511.557 180.388,511.544 179.094,511.667 178.511,511.637 176.9,511.589 
			175.694,511.665 175.111,511.635 172.158,511.622 170.547,511.574 168.935,511.526 167.994,511.46 165.353,511.394 
			165.353,511.394 162.123,511.074 161.812,511.127 158.718,510.849 157.506,510.701 156.294,510.553 153.783,510.305 
			153.512,510.222 153.289,510.228 149.424,509.567 148.977,509.578 147.942,509.336 145.831,508.988 144.39,508.622 
			143.537,508.51 143.043,508.433 140.478,507.873 139.261,507.502 136.155,506.776 136.155,506.776 136.108,506.688 
			133.268,505.821 132.233,505.58 129.433,504.578 129.163,504.495 129.027,504.454 126.134,503.276 123.105,502.056 
			122.517,501.803 122.065,501.591 119.301,500.231 117.895,499.506 116.719,499 115.443,498.093 114.626,497.622 114.032,497.145 
			112.48,495.932 109.834,493.943 109.105,493.424 108.599,492.901 105.807,490.422 104.842,489.463 103.008,487.721 
			100.298,484.972 99.052,483.483 98.129,482.388 94.314,478.415 93.35,477.456 90.222,474.136 89.258,473.177 87.559,471.476 
			85.173,469.122 83.844,467.903 82.28,466.243 81.404,465.237 80.622,464.407 79.882,463.442 79.371,462.695 78.759,461.547 
			78.524,461.106 77.532,459.029 77.391,458.764 76.433,456.328 76.386,456.24 75.705,454.11 75.165,452.245 74.924,451.58 
			74.672,450.468 74.267,448.644 74.15,447.574 73.787,445.615 73.506,443.385 73.4,442.762 73.33,441.779 73.237,439.903 
			73.12,438.832 73.11,436.685 73.052,434.45 72.982,433.467 73.008,430.961 73.015,427.785 73.075,426.62 73.194,424.291 
			73.195,422.591 73.301,421.514 73.497,418.691 73.982,414.921 74.017,414.562 74.1,414.291 74.632,410.609 74.903,408.992 
			75.31,407.416 75.711,405.616 76.083,404.398 76.484,402.599 76.855,401.381 76.932,400.887 77.556,399.082 77.892,398.223 
			77.975,397.953 78.9,395.647 79.277,394.653 80.284,392.077 80.455,391.76 80.537,391.489 81.592,389.002 82.77,386.108 
			82.853,385.838 82.982,385.656 83.577,384.432 84.725,382.121 84.938,381.669 86.692,378.581 86.951,378.217 88.4,375.406 
			88.7,374.906 89.001,374.406 91.15,370.996 91.368,370.767 91.968,369.767 93.134,368.126 93.434,367.627 95.041,365.751 
			95.559,365.022 96.507,363.611 97.85,361.876 98.715,360.736 100.452,358.678 100.669,358.449 102.318,356.438 102.577,356.073 
			104.142,354.333 105.402,352.869 105.926,352.364 106.232,352.087 108.322,349.842 108.451,349.659 109.411,348.695 
			110.329,347.866 110.458,347.684 112.03,346.167 113.301,345.15 114.26,344.186 115.485,343.081 116.885,341.882 118.156,340.865 
			119.469,339.713 121.046,338.42 122.011,337.679 122.888,336.986 124.336,335.875 126.137,334.576 126.578,334.341 
			128.644,332.901 130.662,331.373 131.321,330.909 132.157,330.35 133.699,329.416 135.676,328.023 136.117,327.788 
			137.041,327.183 138.76,326.154 139.154,325.831 141.049,324.709 142.502,323.821 142.767,323.68 143.161,323.357 146.38,321.529 
			147.61,320.648 150.076,319.108 150.164,319.061 150.429,318.92 152.541,317.568 152.983,317.333 154.524,316.399 
			154.701,316.305 155.272,315.888 156.596,315.183 156.772,315.089 158.755,313.919 160.032,313.126 162.763,311.445 
			163.38,311.116 163.863,310.746 167.3,308.689 168.577,307.896 171.66,306.027 172.231,305.61 172.584,305.422 176.109,303.318 
			176.856,302.807 177.998,301.972 179.893,300.85 181.034,300.015 182.706,298.899 183.5,298.476 185.789,297.03 185.877,296.983 
			187.813,295.725 188.52,295.349 190.409,294.003 190.85,293.768 191.509,293.304 192.915,292.328 194.545,291.347 196.17,290.142 
			197.182,289.49 197.753,289.072 199.995,287.539 200.524,287.257 201.578,286.469 203.073,285.446 204.085,284.794 
			205.756,283.677 206.639,283.207 209.405,281.168 209.846,280.933 210.064,280.703 212.482,279.076 214.283,277.777 
			214.46,277.683 214.636,277.589 218.85,274.438 219.115,274.297 219.774,273.833 222.322,272.023 223.593,271.006 
			225.041,269.895 226.624,268.825 227.766,267.991 229.561,266.468 230.702,265.634 232.456,264.247 233.374,263.418 
			235.258,261.848 235.87,261.296 238.112,259.762 238.812,259.162 240.784,257.546 241.531,257.034 244.115,254.865 
			244.468,254.677 244.509,254.542 244.686,254.448 247.669,252.179 249.247,250.886 250.388,250.052 252.36,248.435 
			252.931,248.018 255.032,246.219 255.997,245.479 257.921,243.774 258.581,243.309 260.947,241.37 261.211,241.229 
			263.183,239.612 265.154,237.996 265.549,237.673 265.725,237.579 267.962,235.821 269.668,234.346 269.886,234.116 
			270.369,233.746 271.864,232.723 272.74,232.03 274.671,230.549 275.065,230.225 276.295,229.344 278.008,228.092 
			278.225,227.863 278.796,227.445 280.332,226.287 281.121,225.641 283.051,224.16 283.357,223.883 284.016,223.419 
			286.517,221.521 287.218,220.921 288.713,219.898 289.937,218.793 291.514,217.5 291.602,217.453 291.602,217.453 
			295.069,214.814 295.945,214.12 297.264,213.192 298.447,212.222 299.718,211.205 299.936,210.976 300.112,210.882 
			303.584,208.466 303.89,208.19 304.679,207.543 306.132,206.656 306.921,206.01 308.239,205.081 308.898,204.617 309.293,204.293 
			312.417,202.289 313.736,201.361 315.889,199.874 316.678,199.227 318.261,198.158 318.879,197.829 319.361,197.458 
			321.739,195.966 322.004,195.825 323.016,195.172 325.128,193.821 327.459,192.24 328.647,191.493 329.395,190.982 
			330.536,190.147 331.196,189.683 331.725,189.401 331.99,189.26 332.208,189.031 333.661,188.143 334.056,187.82 335.115,187.256 
			336.698,186.186 336.827,186.004 337.928,185.305 341.712,182.837 341.888,182.743 342.153,182.602 342.241,182.555 
			344.925,180.786 345.231,180.509 346.066,179.951 346.372,179.675 347.255,179.205 348.091,178.646 350.021,177.165 
			350.503,176.795 350.68,176.701 350.898,176.472 352.175,175.678 354.24,174.238 354.899,173.774 355.029,173.592 
			355.823,173.169 357.318,172.146 358.371,171.358 359.16,170.712 359.466,170.436 360.084,170.107 361.661,168.813 
			362.32,168.349 363.374,167.562 363.856,167.191 364.121,167.05 364.474,166.862 366.805,165.281 367.681,164.588 
			368.429,164.076 369.088,163.612 369.441,163.424 371.324,161.855 371.895,161.437 371.983,161.39 372.425,161.155 
			376.197,158.24 377.074,157.546 377.733,157.082 378.127,156.759 379.658,155.377 380.405,154.866 381.194,154.219 
			381.282,154.172 383.736,152.186 384.743,151.31 385.443,150.71 386.055,150.158 387.544,148.912 388.027,148.541 
			388.992,147.801 389.168,147.707 389.651,147.336 389.692,147.201 390.133,146.966 392.064,145.485 393.247,144.515 
			393.906,144.051 396.054,142.34 397.196,141.506 397.502,141.229 397.719,141 398.202,140.63 398.29,140.583 399.038,140.071 
			401.798,137.808 402.457,137.344 404.34,135.775 405.658,134.846 406.053,134.523 406.229,134.429 406.712,134.058 
			406.841,133.876 407.677,133.318 410.308,131.237 411.055,130.726 413.25,129.104 414.48,128.222 415.445,127.481 
			415.622,127.387 417.864,125.853 418.876,125.201 420.018,124.367 422.13,123.015 422.701,122.598 423.007,122.321 
			423.537,122.039 424.637,121.34 427.103,119.8 427.279,119.706 428.909,118.725 429.392,118.355 429.657,118.214 430.981,117.509 
			431.51,117.227 431.863,117.038 434.506,115.405 435.565,114.841 437.065,114.042 438.654,113.196 439.272,112.867 
			439.978,112.49 443.202,110.887 444.173,110.37 444.438,110.228 444.438,110.228 448.374,108.472 449.792,107.944 
			452.581,106.798 455.37,105.653 456.653,105.083 460.377,103.779 460.954,103.586 461.13,103.492 464.502,102.376 
			465.125,102.271 466.59,101.83 468.944,101.143 469.609,100.903 472.762,100.016 473.739,99.723 477.069,98.742 477.157,98.695 
			477.292,98.737 480.093,98.038 482.181,97.493 482.316,97.534 482.716,97.434 485.123,97.059 485.699,96.865 486.235,96.807 
			489.041,96.332 489.888,96.221 489.976,96.174 492.741,95.834 492.741,95.834 492.965,95.829 495.953,95.483 498.183,95.202 
			499.877,94.98 502.065,94.834 503.759,94.612 506.036,94.419 507.642,94.243 509.071,94.162 510.366,94.039 513.448,93.87 
			513.983,93.812 514.119,93.853 514.43,93.801 517.96,93.62 520.466,93.645 520.601,93.687 523.378,93.794 523.96,93.824 
			523.96,93.824 524.048,93.777 524.095,93.865 527.054,94.102 528.401,94.291 530.689,94.546 531.989,94.646 533.018,94.665 
			536.435,95.337 537.512,95.444 540.794,96.075 541.87,96.182 544.023,96.395 544.923,96.596 545.417,96.672 548.464,96.862 
			548.734,96.945 548.87,96.986 549.276,97.11 552.493,96.983 552.987,97.059 555.57,96.59 557.135,96.55 558.776,96.016 
			559.706,95.634 560.853,95.023 562.483,94.042 563.454,93.524 565.037,92.455 566.32,91.885 568.262,90.851 569.55,90.505 
			570.121,90.087 571.674,89.6 572.521,89.489 574.569,89.078 575.151,89.108 575.51,89.144 578.58,90.228 579.35,90.611 
			579.985,90.952 581.526,91.718 582.214,92.371 583.313,93.372 583.96,94.16 584.665,95.484 585.034,97.667 585.104,98.649 
			584.856,99.461 584.149,101.537 583.849,102.037 583.207,103.172 582.648,104.036 582.265,104.807 581.276,106.353 
			580.969,108.329 580.597,109.547 580.885,110.3 581.214,110.918 581.89,112.824 582.448,113.66 583.846,115.86 584.487,116.426 
			586.609,118.921 587.656,119.61 588.896,120.875 590.319,122.27 593.023,124.795 593.159,124.837 593.206,124.925 596.44,127.168 
			597.351,127.816 598.356,128.64 600.361,130.065 601.496,130.706 602.731,131.748 605.465,133.691 607.164,135.392 
			609.039,136.999 610.915,138.606 612.973,140.343 614.395,141.738 617,143.863 618.052,144.775 620.886,147.118 621.204,147.289 
			622.803,148.59 623.944,149.455 624.261,149.626 626.407,151.316 628.783,153.223 629.194,153.57 629.882,154.224 631.71,155.743 
			632.487,156.349 633.451,157.308 634.321,158.091 635.926,159.616 637.213,160.969 638.318,162.194 639.1,163.023 640.576,164.73 
			641.128,165.342 641.404,165.648 641.728,166.043 643.808,168.673 643.902,168.85 643.949,168.938 644.179,169.156 
			646.036,171.792 647.57,174.035 647.711,174.299 648.504,175.576 649.345,176.941 649.439,177.118 651.307,180.201 
			651.448,180.466 651.73,180.996 653.417,183.95 654.451,185.892 654.692,186.557 655.679,188.41 656.108,189.428 657.001,191.105 
			657.853,192.917 658.522,194.6 659.521,196.901 659.568,196.989 659.714,197.477 660.337,199.072 660.39,199.383 661.012,200.978 
			661.74,203.196 662.087,204.485 662.967,207.414 663.167,208.215 663.408,208.879 663.666,210.215 663.812,210.703 
			664.059,211.592 664.317,212.927 664.669,214.439 664.921,215.551 665.115,216.128 665.473,217.863 666.06,219.816 
			666.065,220.04 666.112,220.128 666.846,222.57 667.369,223.764 667.557,224.117 668.127,225.4 668.873,226.589 669.014,226.853 
			669.937,227.948 670.531,228.425 671.672,229.29 672.577,229.714 673.165,229.968 673.571,230.092 675.194,230.587 
			677.882,230.741 678.641,230.677 679.977,230.419 681.177,230.12 682.065,229.873 682.818,229.585 684.101,229.016 
			686.567,227.476 686.832,227.335 686.961,227.153 689.203,225.619 690.474,224.602 691.569,223.679 692.052,223.309 
			693.017,222.568 693.499,222.198 695.559,220.534 696.171,219.982 697.225,219.194 698.319,218.271 700.032,217.019 
			700.691,216.555 701.132,216.32 702.58,215.209 703.681,214.51 704.604,213.905 705.352,213.393 705.793,213.158 706.499,212.782 
			707.735,212.124 708,211.983 708.176,211.889 708.665,211.742 709.682,211.314 710.924,210.879 712.565,210.345 713.542,210.051 
			714.03,209.904 716.784,209.118 717.272,208.971 719.984,208.32 720.608,208.214 722.343,207.857 722.879,207.798 
			724.485,207.623 726.226,207.488 727.52,207.366 729.397,207.273 730.379,207.203 731.273,207.18 733.109,207.222 
			734.585,207.229 735.391,207.253 735.75,207.288 737.585,207.331 739.02,207.473 739.467,207.461 742.785,207.734 
			743.367,207.763 746.237,208.048 748.926,208.202 749.061,208.243 749.555,208.32 751.978,208.616 752.613,208.957 
			755.154,210.324 756.253,211.324 757.676,212.719 		">
		</polygon>
	</g>
</g>
<g id="Layer_1">
</g>
</svg>
