<?xml version="1.0" encoding="iso-8859-1"?>
<!-- Generator: Adobe Illustrator 19.2.1, SVG Export Plug-In . SVG Version: 6.00 Build 0)  -->
<svg version="1.1" xmlns="http://www.w3.org/2000/svg" xmlns:xlink="http://www.w3.org/1999/xlink" x="0px" y="0px"
	 viewBox="0 0 841.89 595.28" style="enable-background:new 0 0 841.89 595.28;" xml:space="preserve">
<g id="layer258">
	<g id="layer258_1_" slic3r:z="0.000103400000000001">
		<polygon slic3r:type="contour" style="fill:#FFFFFF;stroke:#000000;stroke-miterlimit:10;" points="740.252,116.179 
			740.828,117.685 741.163,118.527 741.544,119.456 742.278,121.898 742.865,123.851 742.918,124.163 743.24,126.257 
			743.534,127.234 744.061,130.352 744.202,130.617 744.56,132.352 744.971,134.4 744.935,134.758 744.899,135.117 745.092,137.394 
			745.373,139.623 745.426,139.935 745.438,140.382 745.225,140.835 744.218,143.411 743.959,143.776 742.97,145.322 
			741.669,146.921 741.451,147.15 740.191,148.614 738.796,150.037 738.755,150.172 738.626,150.355 737.501,151.86 
			737.336,152.401 736.782,153.489 736.982,154.289 737.14,155.224 738.14,155.825 739.057,156.696 739.833,157.302 
			741.956,158.098 743.409,158.911 743.726,159.081 745.267,159.847 745.449,159.976 747.084,160.919 748.719,161.861 
			749.359,162.426 749.953,162.903 750.865,163.55 752.011,164.639 752.834,165.334 754.533,167.035 755.95,168.206 
			756.732,169.036 757.837,170.26 758.713,171.267 759.495,172.097 760.376,173.327 760.935,174.162 762.28,176.051 
			762.933,177.064 764.326,179.041 765.025,180.141 766.048,181.636 767.258,183.484 767.587,184.102 767.916,184.72 
			769.097,187.15 769.573,188.256 770.666,190.733 771.288,192.327 771.922,194.369 772.128,195.393 772.403,197.399 
			772.443,198.963 772.419,199.769 772.365,201.158 772.253,202.01 772.099,202.999 771.687,204.351 771.015,206.068 
			770.638,207.062 770.385,207.65 769.872,208.603 768.924,210.014 767.288,212.472 766.811,213.066 766.77,213.201 766.552,213.43 
			765.039,215.482 764.474,216.123 763.338,217.181 762.467,218.099 761.637,218.88 760.801,219.439 759.971,220.221 758.3,221.337 
			757.158,222.172 755.705,223.059 753.68,224.364 752.845,224.922 751.874,225.439 750.197,226.332 748.126,227.549 
			747.596,227.831 747.155,228.066 744.683,229.382 741.906,230.974 741.729,231.068 741.688,231.204 738.652,233.161 
			736.857,234.683 736.286,235.1 735.627,235.565 733.967,237.128 732.266,238.827 731.654,239.38 731.042,239.932 729.605,241.49 
			728.257,243.001 727.822,243.46 726.692,244.742 726.126,245.382 725.691,245.841 723.86,247.722 721.076,250.791 
			720.729,251.203 720.688,251.338 720.164,251.843 717.156,254.918 716.15,255.794 713.354,258.416 713.224,258.598 
			713.048,258.692 709.458,261.737 709.416,261.872 709.416,261.872 708.975,262.107 706.474,264.006 705.244,264.887 
			704.32,265.493 703.926,265.816 702.208,266.844 700.625,267.914 699.13,268.937 697.411,269.965 695.387,271.27 695.169,271.499 
			694.728,271.734 693.275,272.621 691.909,273.462 691.292,273.791 689.308,274.96 687.549,276.124 685.742,277.199 
			684.112,278.18 681.776,279.538 680.764,280.19 677.945,281.918 677.681,282.059 677.463,282.288 674.509,283.974 
			672.661,285.185 672.002,285.649 669.754,286.96 669.448,287.236 666.629,288.964 666.365,289.105 664.034,290.686 
			662.757,291.479 661.304,292.366 660.556,292.878 659.238,293.806 657.302,295.064 657.214,295.111 656.949,295.252 
			655.013,296.51 654.53,296.88 653.253,297.673 651.977,298.467 651.359,298.796 650.346,299.448 648.675,300.565 646.563,301.916 
			646.21,302.104 645.857,302.292 643.656,303.691 642.691,304.432 642.514,304.526 641.237,305.319 640.796,305.554 
			638.418,307.047 637.494,307.652 635.47,308.957 634.635,309.515 634.105,309.797 631.198,311.572 630.627,311.989 
			630.539,312.036 626.838,314.234 626.531,314.51 626.267,314.651 625.737,314.933 623.36,316.426 621.465,317.548 
			620.759,317.924 618.911,319.135 618.823,319.182 618.823,319.182 617.01,320.034 615.645,320.874 614.674,321.391 
			613.48,321.914 612.509,322.431 610.961,323.142 610.473,323.288 608.749,324.093 608.131,324.422 605.566,325.562 
			605.431,325.521 605.254,325.615 602.865,326.66 601.494,327.277 600.035,327.941 598.087,328.751 596.846,329.186 
			596.14,329.562 592.863,330.854 592.11,331.142 589.368,332.376 588.085,332.945 587.644,333.18 583.796,334.89 582.778,335.319 
			581.318,335.982 579.683,336.74 577.606,337.733 576.811,338.156 575.264,338.867 574.646,339.196 572.48,340.236 
			571.598,340.706 571.156,340.941 571.068,340.988 568.726,342.122 567.002,342.927 566.514,343.073 562.842,344.689 
			560.983,345.452 558.683,346.451 555.405,347.743 554.476,348.125 552.352,349.03 550.845,349.605 550.18,349.846 549.604,350.04 
			546.103,351.337 544.015,351.883 541.885,352.564 541.173,352.717 539.573,353.116 537.796,353.609 537.619,353.703 
			536.107,354.055 533.619,354.7 531.442,355.293 529.265,355.886 528.912,356.074 527.4,356.426 525.494,357.101 525.005,357.248 
			523.14,357.788 522.164,358.082 520.875,358.428 519.275,358.827 518.251,359.032 516.563,359.478 515.139,359.783 
			512.827,360.335 512.515,360.388 510.956,360.651 508.597,361.115 508.462,361.073 508.285,361.167 505.832,361.454 
			504.138,361.677 502.173,361.817 499.944,362.098 499.497,362.109 498.561,362.267 495.843,362.695 494.237,362.871 
			491.702,363.428 491.702,363.428 489.072,363.809 487.513,364.072 486.489,364.278 484.842,364.588 483.86,364.658 
			483.283,364.852 481.277,365.127 479.095,365.497 478.694,365.596 474.953,366.229 474.376,366.423 471.57,366.898 
			471.17,366.998 470.994,367.092 470.77,367.098 468.411,367.561 466.587,367.966 464.675,368.417 463.251,368.722 
			462.451,368.922 458.315,369.878 458.227,369.925 458.227,369.925 454.132,370.746 451.415,371.174 450.479,371.332 
			449.944,371.391 447.626,371.719 445.755,372.035 444.326,372.117 441.561,372.456 438.167,372.678 437.408,372.742 
			436.737,372.759 436.29,372.771 436.067,372.776 433.79,372.969 429.419,373.484 429.243,373.578 429.196,373.49 429.107,373.537 
			428.484,373.642 424.924,374.405 422.789,374.862 420.741,375.273 417.182,376.035 416.559,376.141 416.159,376.241 
			412.381,377.233 410.075,378.008 408.169,378.683 404.315,380.169 404.003,380.222 403.915,380.269 402.897,380.697 
			399.749,381.807 398.643,382.283 397.313,382.765 395.542,383.481 394.878,383.722 393.948,384.104 393.065,384.574 
			391.871,385.097 391.471,385.196 391.382,385.243 389.041,386.377 387.67,386.994 387.093,387.188 385.104,388.134 
			382.892,389.085 382.362,389.367 378.691,390.983 376.967,391.787 374.448,393.015 373.301,393.626 371.936,394.467 
			371.277,394.931 371.012,395.072 370.264,395.583 367.498,397.623 366.71,398.269 366.009,398.869 364.697,400.021 
			363.385,401.173 362.902,401.544 361.501,402.743 360.542,403.707 359.406,404.765 358.229,405.958 357.446,406.829 
			356.575,407.746 356.051,408.251 354.526,409.856 353.131,411.279 352.519,411.831 352.042,412.425 351.124,413.254 
			348.817,415.729 348.599,415.958 348.381,416.188 347.857,416.693 345.68,418.986 344.679,420.085 344.638,420.221 
			344.461,420.315 342.678,422.284 341.065,423.936 340.5,424.577 340.323,424.671 340.194,424.853 339.364,425.635 
			337.268,427.657 336.568,428.257 335.785,429.127 334.078,430.603 333.425,431.29 331.671,432.678 330.4,433.694 329.082,434.623 
			328.158,435.228 326.975,436.198 325.616,437.262 324.827,437.909 324.521,438.185 323.114,439.161 321.755,440.224 
			320.484,441.241 319.648,441.8 317.759,443.146 316.617,443.98 316.046,444.397 314.552,445.42 313.057,446.443 311.521,447.601 
			310.95,448.018 310.332,448.347 307.084,450.757 306.819,450.898 306.689,451.08 304.359,452.661 302.694,454.001 
			302.252,454.236 301.858,454.559 298.256,457.157 297.332,457.763 296.938,458.086 294.784,459.573 293.819,460.313 
			293.554,460.454 293.29,460.595 289.111,463.387 289.111,463.387 289.023,463.434 286.957,464.874 284.898,466.537 
			284.809,466.584 284.809,466.584 284.809,466.584 284.456,466.772 280.466,469.917 279.719,470.428 279.107,470.981 
			277.571,472.139 276.299,473.156 276.211,473.203 272.003,476.577 272.003,476.577 272.05,476.665 270.997,477.452 
			270.561,477.911 269.425,478.969 268.025,480.168 267.807,480.398 267.719,480.445 265.882,482.102 264.093,483.848 
			264.093,483.848 264.052,483.983 260.161,487.528 258.107,489.415 257.319,490.062 256.271,491.073 255.265,491.949 
			254.87,492.272 253.423,493.383 252.11,494.535 250.668,495.869 250.097,496.287 247.949,497.997 246.896,498.785 
			246.325,499.202 245.142,500.172 243.476,501.512 242.07,502.488 241.587,502.858 239.351,504.615 238.209,505.45 
			237.768,505.685 234.914,507.772 233.86,508.559 232.583,509.353 231.177,510.328 230.165,510.98 228.976,511.727 
			227.611,512.567 226.463,513.178 225.492,513.695 223.109,514.964 220.903,516.14 219.973,516.521 217.72,517.608 
			217.543,517.702 215.907,518.46 214.889,518.889 211.742,519.999 211.3,520.234 210.988,520.286 206.776,521.737 206.688,521.784 
			206.376,521.837 202.91,522.776 202.422,522.922 201.934,523.069 201.31,523.175 198.998,523.726 198.286,523.879 
			197.574,524.031 195.304,524.448 194.28,524.653 193.209,524.77 192.497,524.922 191.38,524.951 188.079,525.349 187.903,525.443 
			187.768,525.402 184.197,525.717 184.197,525.717 180.667,525.897 179.238,525.979 176.067,526.195 176.067,526.195 
			173.073,526.316 172.002,526.433 169.543,526.497 167.843,526.495 165.385,526.559 164.802,526.529 164.043,526.593 
			161.402,526.527 159.702,526.526 157.643,526.489 154.555,526.434 153.973,526.405 153.702,526.322 150.432,526.138 
			149.267,526.078 147.203,525.818 145.32,525.688 143.615,525.463 141.685,525.244 140.833,525.132 139.709,524.937 
			137.956,524.624 136.698,524.388 135.168,524.07 132.963,523.545 131.746,523.174 131.204,523.008 130.122,522.678 
			127.687,521.936 125.341,521.146 125.206,521.105 125.07,521.064 122.9,520.18 122.4,519.88 120.407,518.902 119.272,518.26 
			117.637,517.318 116.455,516.588 113.409,514.698 111.587,513.402 109.446,511.936 107.8,510.547 107.3,510.247 105.472,508.728 
			104.508,507.769 101.945,505.508 101.257,504.855 99.881,503.548 99.787,503.372 98.411,502.065 96.524,500.011 91.087,493.843 
			90.305,493.013 90.029,492.707 82.875,484.167 82.552,483.773 81.259,482.196 78.625,478.953 78.12,478.429 75.251,474.745 
			75.204,474.657 74.464,473.692 72.007,470.355 71.731,470.049 71.125,469.125 69.362,466.665 68.616,465.476 67.593,463.982 
			66.23,461.422 66.183,461.334 66.183,461.334 64.814,458.55 64.626,458.197 63.099,454.479 63.005,454.302 62.905,453.902 
			61.848,451.066 61.009,448.001 60.962,447.913 60.915,447.824 60.903,447.377 60.199,444.353 60.135,443.595 59.884,440.783 
			59.75,439.041 59.78,436.759 59.763,436.089 59.804,435.953 59.71,435.777 59.948,432.818 60.078,430.936 60.119,430.8 
			60.072,430.712 60.114,430.577 60.893,426.083 60.928,425.724 61.005,425.23 61.719,421.678 62.161,419.743 62.563,417.943 
			62.851,416.996 63.016,416.455 63.588,414.338 63.871,413.167 64.036,412.626 64.078,412.491 64.985,409.515 65.439,408.027 
			65.522,407.757 65.816,407.033 66.683,404.193 66.889,403.516 67.178,402.569 67.472,401.846 68.309,399.588 68.763,398.1 
			69.146,397.329 69.311,396.788 70.277,394.348 70.53,393.76 71.331,391.86 71.496,391.319 71.75,390.731 72.68,388.649 
			73.528,386.838 74.335,385.162 74.842,383.986 75.82,381.992 76.032,381.54 76.585,380.452 77.351,378.911 77.693,378.276 
			78.935,376.141 78.935,376.141 79.918,374.371 80.772,372.784 81.031,372.419 81.202,372.102 82.233,370.42 82.874,369.285 
			83.387,368.332 84.676,366.286 84.676,366.286 86.054,364.193 86.184,364.01 87.308,362.505 88.909,360.406 89.21,359.906 
			90.858,357.896 92.029,356.479 93.636,354.603 94.549,353.551 97.074,350.846 97.203,350.664 97.727,350.159 99.905,347.866 
			100.517,347.313 102.701,345.244 104.402,343.545 105.844,342.211 108.028,340.141 108.116,340.094 108.116,340.094 
			110.129,338.343 110.258,338.16 110.741,337.79 112.624,336.221 113.413,335.574 115.296,334.005 117.091,332.482 117.88,331.836 
			120.157,329.943 120.64,329.573 121.605,328.832 122.876,327.815 123.93,327.028 125.024,326.105 126.166,325.27 127.261,324.347 
			127.873,323.795 128.75,323.101 129.585,322.543 131.163,321.25 132.216,320.462 133.052,319.904 135.158,318.328 136.43,317.312 
			137.789,316.248 138.801,315.595 141.608,313.421 142.003,313.097 142.179,313.003 142.356,312.909 145.34,310.641 
			146.175,310.082 148.017,308.648 149.029,307.996 149.906,307.302 151.354,306.191 152.19,305.633 153.42,304.751 
			155.485,303.311 155.838,303.123 156.056,302.894 157.727,301.778 158.781,300.99 158.781,300.99 159.969,300.244 
			161.947,298.851 163.224,298.057 164.059,297.499 166.825,295.46 167.002,295.366 168.191,294.619 170.215,293.315 
			170.256,293.179 170.433,293.085 173.075,291.452 173.381,291.175 175.405,289.871 177.647,288.337 178.218,287.919 
			178.877,287.455 180.549,286.338 182.485,285.081 183.361,284.387 184.374,283.735 186.31,282.477 188.158,281.267 
			188.464,280.99 190.529,279.55 192.548,278.022 193.03,277.652 193.383,277.464 194.437,276.676 195.449,276.024 196.196,275.513 
			197.426,274.631 198.438,273.979 199.845,273.003 201.204,271.939 201.557,271.751 202.964,270.776 203.664,270.176 
			203.753,270.129 204.017,269.988 206.43,268.137 207.966,266.979 208.408,266.744 209.461,265.956 210.12,265.492 
			213.021,263.494 213.592,263.076 213.898,262.8 217.458,260.337 217.588,260.155 217.853,260.014 220.972,257.787 
			222.508,256.629 223.649,255.794 225.144,254.771 226.857,253.52 227.339,253.149 227.734,252.826 229.799,251.386 
			231.335,250.228 231.994,249.764 233.53,248.606 236.12,246.661 236.208,246.614 236.296,246.567 238.886,244.621 
			240.422,243.463 241.21,242.817 242.97,241.653 244.988,240.125 245.341,239.937 245.824,239.566 247.36,238.409 248.284,237.803 
			249.514,236.922 250.92,235.946 252.327,234.97 253.292,234.23 255.622,232.649 255.84,232.42 256.676,231.861 258.741,230.421 
			259.224,230.051 260.06,229.493 262.037,228.1 263.661,226.895 264.32,226.431 265.021,225.831 266.427,224.855 267.787,223.792 
			268.575,223.145 268.97,222.822 271.559,220.876 272.565,220 273.707,219.166 274.802,218.243 275.767,217.502 276.82,216.715 
			277.479,216.25 279.145,214.91 280.416,213.893 281.34,213.288 282.04,212.688 283.4,211.625 284.365,210.884 285.33,210.143 
			285.813,209.773 288.179,207.833 289.974,206.311 291.333,205.247 292.646,204.095 293.523,203.401 294.093,202.984 
			295.188,202.061 297.118,200.58 298.172,199.792 298.743,199.375 300.326,198.305 301.379,197.518 302.568,196.772 
			306.046,194.58 306.31,194.439 306.752,194.204 307.852,193.504 310.806,191.818 310.894,191.771 310.894,191.771 
			313.937,190.037 315.261,189.332 315.878,189.003 319.403,186.899 319.756,186.711 320.815,186.147 323.64,184.643 
			325.893,183.556 325.982,183.509 326.07,183.462 327.924,182.475 328.806,182.005 330.395,181.159 330.924,180.877 
			332.119,180.354 336.138,178.327 336.226,178.28 336.314,178.233 336.314,178.233 337.197,177.763 340.51,176.112 
			341.304,175.689 342.363,175.125 343.817,174.238 344.788,173.721 346.153,172.88 348.136,171.711 349.06,171.106 
			350.072,170.453 350.908,169.895 353.279,168.179 353.585,167.903 354.992,166.927 355.168,166.833 355.345,166.739 
			357.104,165.575 357.546,165.34 360.147,163.842 360.764,163.513 361.735,162.996 364.995,161.033 365.966,160.516 
			366.89,159.911 368.432,158.976 369.05,158.647 369.797,158.136 370.238,157.901 372.663,156.497 374.428,155.556 
			374.781,155.368 378.706,153.165 379.765,152.601 383.031,150.862 383.472,150.627 384.09,150.298 384.661,149.88 
			386.203,148.946 387.127,148.341 388.227,147.641 389.416,146.895 390.428,146.243 391.393,145.502 393.506,144.15 
			393.988,143.78 394.912,143.175 395.306,142.852 395.66,142.664 397.066,141.688 398.473,140.712 399.22,140.201 399.832,139.648 
			401.374,138.714 403.045,137.597 403.663,137.268 404.145,136.898 404.322,136.804 406.087,135.864 407.8,134.612 
			408.065,134.471 408.418,134.283 410.354,133.025 412.284,131.544 412.46,131.45 412.59,131.268 413.073,130.898 415.974,128.899 
			416.809,128.341 416.898,128.294 419.099,126.895 421.123,125.591 421.252,125.409 421.429,125.314 423.5,124.098 
			425.384,122.529 426.749,121.688 429.256,120.013 429.609,119.825 430.05,119.59 430.668,119.261 432.439,118.545 
			433.851,117.793 436.017,116.753 437.17,116.365 438.052,115.895 441.459,114.421 441.989,114.139 442.253,113.998 
			443.142,113.751 444.336,113.228 446.46,112.324 446.949,112.177 447.79,111.842 450.673,110.873 450.761,110.826 
			451.203,110.591 452.844,110.057 453.156,110.004 453.509,109.816 455.015,109.241 457.68,108.501 458.834,108.114 459.01,108.02 
			460.21,107.72 462.164,107.133 463.758,106.511 464.511,106.223 464.864,106.035 468.277,104.784 469.206,104.402 
			470.536,103.921 472.531,103.199 475.72,101.953 476.52,101.754 478.026,101.178 480.597,100.262 481.839,99.828 484.192,99.141 
			487.075,98.172 487.563,98.025 488.14,97.832 490.852,97.18 493.694,96.347 494.629,96.188 495.029,96.089 498.318,95.244 
			498.63,95.191 500.895,94.551 503.783,93.806 503.872,93.759 503.872,93.759 506.943,93.143 508.272,92.661 509.426,92.274 
			511.249,91.869 513.332,91.1 514.797,90.66 516.927,89.979 518.61,89.309 519.586,89.015 521.228,88.481 522.511,87.911 
			525.252,86.678 525.917,86.437 526.623,86.061 529.059,85.104 531.001,84.069 531.313,84.017 531.666,83.829 533.708,83.195 
			534.284,83.001 537.208,81.897 537.608,81.797 538.315,81.421 540.75,80.464 541.992,80.029 543.233,79.595 543.586,79.406 
			544.698,79.154 546.251,78.667 547.099,78.556 549.234,78.098 550.523,77.752 551.77,77.541 553.999,77.26 554.623,77.154 
			555.111,77.008 558.864,76.822 559.4,76.763 559.982,76.793 562.8,76.765 563.606,76.789 564.906,76.89 567.37,77.05 
			569.029,77.187 571.135,77.311 572.793,77.448 574.634,77.714 575.887,77.726 579.823,77.67 580.046,77.664 580.181,77.705 
			580.405,77.699 584.029,77.696 585.505,77.703 586.67,77.762 589.534,77.823 589.893,77.858 593.211,78.131 594.916,78.355 
			596.352,78.497 597.387,78.739 598.604,79.111 599.733,79.529 600.457,79.823 602.309,80.536 603.35,81.002 604.573,81.597 
			605.708,82.238 606.978,82.922 608.889,84.17 609.483,84.647 610.03,85.035 611.535,86.16 612.811,87.066 615.04,88.485 
			615.992,88.998 617.845,89.711 619.421,90.117 620.862,90.483 623.332,90.867 624.591,91.103 625.938,91.292 626.744,91.316 
			628.003,91.552 629.079,91.659 629.979,91.859 632.273,92.337 634.525,92.95 635.29,93.109 638.219,93.929 638.266,94.017 
			641.642,94.825 642.047,94.949 645.282,95.492 645.282,95.492 645.371,95.445 648.418,95.635 649.4,95.565 651.141,95.431 
			652.435,95.308 654.041,95.133 655.73,94.687 657.554,94.282 658.666,94.029 659.595,93.648 662.307,92.996 662.972,92.756 
			663.461,92.609 665.814,91.922 666.838,91.717 667.014,91.623 667.414,91.523 669.191,91.03 670.032,90.695 671.056,90.49 
			672.08,90.285 672.968,90.038 675.686,89.61 676.31,89.505 676.71,89.405 677.557,89.294 679.08,89.389 679.974,89.366 
			681.004,89.384 681.451,89.373 682.033,89.403 683.474,89.768 683.88,89.892 685.368,90.346 685.956,90.599 686.362,90.723 
			687.985,91.218 688.838,91.33 690.238,91.831 691.778,92.597 691.867,92.55 694.572,93.375 694.795,93.369 695.201,93.493 
			697.683,94.324 699.395,94.772 700.389,95.149 700.883,95.226 704.659,95.934 704.794,95.975 704.929,96.016 706.999,96.5 
			708.123,96.695 709.023,96.895 709.787,97.055 711.634,97.544 712.669,97.786 714.381,98.234 716.363,98.765 716.722,98.8 
			719.021,99.502 719.156,99.543 722.009,100.856 722.144,100.898 722.914,101.28 725.184,102.564 725.637,102.776 726.678,103.241 
			728.542,104.401 729.63,104.955 730.906,105.862 731.864,106.598 733.275,107.546 733.457,107.675 734.609,108.987 
			736.308,110.689 737.273,111.648 738.336,113.007 739.124,114.061 739.594,114.943 		">
		</polygon>
		<polygon slic3r:type="hole" style="stroke:#000000;stroke-miterlimit:10;" points="671.909,196.761 670.81,195.76 
			669.645,195.701 668.522,195.506 666.786,195.864 665.892,195.887 665.092,196.086 663.539,196.574 662.25,196.92 661.32,197.302 
			659.685,198.06 659.42,198.201 658.096,198.906 657.566,199.188 655.236,200.769 655.059,200.863 652.823,202.62 652.476,203.032 
			650.598,204.825 650.422,204.919 650.38,205.054 648.909,206.971 648.614,207.694 648.19,208.6 648.042,209.811 647.96,210.082 
			648.054,210.258 648.535,211.588 648.723,211.941 649.87,213.03 649.958,212.983 652.216,213.82 652.487,213.902 652.934,213.891 
			655.928,213.769 656.063,213.81 658.464,213.212 659.752,212.865 661.564,212.014 662.624,211.45 664.124,210.65 665.401,209.857 
			666.849,208.746 668.338,207.5 669.427,206.354 669.862,205.895 671.334,203.978 671.422,203.931 671.464,203.796 
			671.593,203.614 672.235,202.479 672.7,201.438 672.783,201.168 673.148,199.727 673.266,199.097 672.655,197.95 672.368,197.197 
					">
		</polygon>
	</g>
</g>
<g id="Layer_1">
</g>
</svg>
