<?xml version="1.0" encoding="iso-8859-1"?>
<!-- Generator: Adobe Illustrator 19.2.1, SVG Export Plug-In . SVG Version: 6.00 Build 0)  -->
<svg version="1.1" xmlns="http://www.w3.org/2000/svg" xmlns:xlink="http://www.w3.org/1999/xlink" x="0px" y="0px"
	 viewBox="0 0 841.89 595.28" style="enable-background:new 0 0 841.89 595.28;" xml:space="preserve">
<g id="layer214">
	<g id="layer214_1_" slic3r:z="8.58000000000007e-005">
		<polygon slic3r:type="contour" style="fill:#FFFFFF;stroke:#000000;stroke-miterlimit:10;" points="744.62,226.923 
			745.031,228.97 745.265,231.112 745.282,231.782 745.087,232.906 744.945,234.341 744.473,236.858 744.308,237.399 
			744.22,237.446 744.225,237.67 743.571,240.058 743.07,241.457 742.693,242.451 741.927,243.992 741.503,244.898 740.655,246.709 
			740.278,247.703 738.947,249.884 738.435,250.837 737.269,252.477 736.616,253.165 736.092,253.671 734.344,255.281 
			733.302,256.516 731.466,258.174 730.506,259.138 729.847,259.602 728.97,260.296 728.264,260.672 727.076,261.418 
			725.71,262.259 724.039,263.375 723.509,263.657 723.027,264.028 721.044,265.197 720.296,265.708 717.96,267.066 
			717.872,267.113 717.872,267.113 714.907,268.352 714.554,268.54 714.065,268.687 711.141,269.791 708.705,270.748 
			708.529,270.842 705.51,271.77 704.757,272.058 701.598,272.72 700.398,273.02 698.351,273.43 697.415,273.588 695.056,274.052 
			692.785,274.468 690.914,274.784 688.867,275.195 685.396,275.91 684.237,276.074 680.237,277.072 680.148,277.119 
			676.33,278.246 676.33,278.246 676.106,278.252 673.312,279.174 673.135,279.268 672.647,279.414 669.811,280.472 668.793,280.9 
			666.139,282.087 665.698,282.322 665.433,282.463 662.827,283.738 660.049,285.33 659.961,285.377 659.873,285.424 
			657.048,286.929 655.418,287.91 654.536,288.38 652.464,289.596 652.111,289.784 651.935,289.878 651.67,290.019 649.157,291.471 
			646.998,292.734 646.38,293.063 645.721,293.528 643.914,294.603 642.725,295.349 641.625,296.049 639.907,297.077 
			639.024,297.547 637.306,298.575 635.234,299.792 633.646,300.638 630.827,302.366 630.168,302.83 629.903,302.971 
			626.773,304.751 626.243,305.033 625.272,305.55 622.889,306.82 620.065,308.324 619.976,308.371 616.705,309.886 616.44,310.027 
			613.433,311.402 610.827,312.677 610.65,312.771 610.562,312.818 608.438,313.722 606.626,314.574 606.137,314.721 
			605.696,314.956 603.036,315.919 600.912,316.824 600.336,317.018 597.812,318.022 596.041,318.738 594.399,319.273 
			591.787,320.324 591.387,320.424 591.122,320.565 588.727,321.387 586.686,322.021 585.933,322.309 584.332,322.708 
			582.779,323.195 582.067,323.348 579.226,324.181 576.825,324.78 575.448,325.173 572.024,325.977 571.489,326.035 
			571.224,326.176 567.442,326.945 565.259,327.314 563.212,327.724 560.135,328.117 560.047,328.164 559.911,328.122 
			556.388,328.526 556.252,328.485 555.046,328.561 553.082,328.701 552.188,328.724 549.999,328.869 549.105,328.892 
			546.199,328.967 544.499,328.966 542.887,328.918 540.47,328.846 540.381,328.893 539.305,328.786 537.111,328.708 
			537.023,328.755 536.305,328.684 533.482,328.489 533.123,328.453 532.182,328.388 529.894,328.133 528.817,328.027 
			526.664,327.814 524.735,327.595 523.118,327.323 522.13,327.17 520.153,326.863 518.489,326.503 517.318,326.22 514.936,325.789 
			514.036,325.589 510.666,325.004 510.619,324.916 510.125,324.839 507.473,324.326 506.261,324.178 504.196,323.918 
			503.255,323.853 501.908,323.664 500.202,323.439 498.903,323.338 498.185,323.267 496.526,323.131 493.703,322.935 
			493.209,322.858 493.073,322.817 492.579,322.74 489.927,322.227 489.162,322.068 487.95,321.92 486.468,321.689 484.939,321.371 
			482.822,320.799 480.434,320.145 480.434,320.145 480.299,320.103 477.417,319.372 477.193,319.378 477.058,319.337 
			474.123,318.294 473.447,318.087 471.453,317.11 468.601,315.796 467.966,315.455 467.649,315.284 466.878,314.901 
			464.15,313.182 462.051,311.58 461.592,311.145 459.811,309.714 457.612,307.713 457.059,307.101 456.601,306.665 454.761,304.7 
			454.156,303.776 452.492,301.716 452.257,301.274 450.864,299.297 450.071,298.02 449.236,296.879 448.537,295.778 
			447.603,294.236 446.627,292.83 445.933,291.953 444.634,290.152 444.029,289.228 443.653,288.522 441.755,286.021 
			440.326,284.402 440.185,284.138 439.821,283.879 438.48,282.213 437.746,281.471 435.6,279.782 434.824,279.176 433.6,278.581 
			431.242,277.344 430.613,277.226 428.719,276.648 426.69,276.029 426.061,275.911 422.914,275.321 422.285,275.203 
			420.267,275.031 418.92,274.842 417.756,274.783 416.279,274.776 414.667,274.728 411.855,274.979 410.826,274.961 
			409.62,275.037 407.255,275.276 405.114,275.51 403.02,275.833 401.684,276.091 401.237,276.102 399.055,276.471 396.025,276.952 
			395.537,277.099 394.113,277.404 390.818,278.025 389.036,278.295 386.724,278.846 384.188,279.404 383.476,279.556 
			381.788,280.002 380.588,280.301 379.964,280.407 377.522,281.141 376.057,281.581 374.328,282.162 371.003,283.366 
			371.003,283.366 370.915,283.413 370.827,283.46 366.62,285.134 365.514,285.61 362.413,286.808 362.06,286.996 361.795,287.137 
			359.365,288.318 358.659,288.694 357.6,289.258 354.428,291.174 353.592,291.732 350.868,293.636 350.12,294.148 349.114,295.023 
			346.395,297.151 344.376,298.679 343.499,299.373 341.351,301.083 339.639,302.335 338.056,303.405 334.495,305.867 
			333.878,306.197 332.995,306.667 330.176,308.394 328.146,309.475 326.428,310.504 325.104,311.209 323.78,311.914 
			321.444,313.271 321.179,313.412 321.091,313.459 320.52,313.877 318.231,315.322 317.748,315.693 315.2,317.503 314.5,318.102 
			313.099,319.302 312.134,320.042 310.474,321.606 309.903,322.023 308.155,323.634 305.277,326.526 305.277,326.526 
			305.324,326.614 303.058,328.954 301.151,331.33 301.151,331.33 301.062,331.377 299.202,333.84 297.865,335.798 297.736,335.98 
			297.606,336.163 296.411,338.385 295.687,339.791 295.144,341.326 294.82,342.632 294.154,344.572 293.871,345.743 
			293.412,347.007 292.934,349.301 292.816,349.93 292.214,352.63 292.132,352.901 292.179,352.989 291.583,355.912 
			291.506,356.406 290.898,358.882 290.786,359.735 290.35,361.894 290.149,362.793 289.695,364.281 289.335,365.946 
			289.005,367.028 288.392,369.281 288.145,370.092 287.502,372.927 287.413,372.974 287.419,373.198 286.741,376.391 
			286.593,377.603 286.316,378.997 285.997,380.526 285.849,381.738 285.69,382.503 285.3,384.749 285.158,386.185 284.804,388.073 
			284.255,391.084 284.061,392.207 283.824,393.466 283.187,396.525 282.391,400.348 282.391,400.348 282.303,400.395 
			281.53,403.412 281.577,403.5 280.87,405.576 280.375,407.199 280.086,408.146 279.591,409.769 279.343,410.581 279.22,410.987 
			278.554,412.928 277.764,415.274 277.599,415.815 277.475,416.221 276.055,420.15 275.183,422.767 274.429,424.754 
			273.881,426.066 272.874,428.642 272.32,429.73 271.855,430.771 271.26,431.994 269.982,434.487 268.951,436.169 267.373,439.162 
			266.219,441.249 264.688,444.331 264.346,444.966 264.099,445.778 262.744,448.765 261.995,450.976 261.07,453.282 260.9,453.599 
			260.605,454.323 259.598,456.898 259.262,457.757 259.091,458.075 258.537,459.162 257.86,460.656 256.712,462.967 
			256.541,463.285 256.117,464.19 255.133,465.96 253.844,468.007 253.544,468.506 253.414,468.689 252.243,470.106 
			250.735,472.381 250.217,473.11 250.129,473.157 248.387,474.992 246.691,476.914 246.385,477.19 244.555,479.072 
			243.901,479.759 242.989,480.812 242.595,481.135 242.118,481.729 239.422,484.751 239.028,485.074 238.504,485.58 
			237.803,486.179 235.531,488.296 233.778,489.683 231.712,491.123 230.876,491.681 230.129,492.192 227.658,493.508 
			226.028,494.49 225.41,494.819 222.05,496.381 220.856,496.904 218.555,497.903 215.719,498.96 214.436,499.53 213.371,499.87 
			210.889,500.739 208.047,501.573 207.559,501.72 206.582,502.013 204.182,502.612 202.846,502.87 200.534,503.421 197.151,504.09 
			196.439,504.242 196.039,504.342 192.474,504.881 190.021,505.168 188.327,505.39 185.515,505.642 184.221,505.764 
			183.374,505.876 179.979,506.097 176.762,506.224 176.538,506.23 176.315,506.236 173.497,506.264 171.974,506.169 
			169.826,506.179 166.244,506.047 166.197,505.959 166.109,506.006 162.974,505.863 161.986,505.71 158.174,505.36 
			158.086,505.407 158.086,505.407 158.086,505.407 154.539,504.917 153.104,504.775 151.71,504.497 150.316,504.22 
			148.157,503.784 145.505,503.27 145.011,503.193 143.211,502.792 141.905,502.468 141.546,502.432 138.8,501.742 137.312,501.289 
			135.689,500.794 134.024,500.434 133.03,500.057 130.866,499.397 129.784,499.066 127.978,498.442 126.173,497.817 
			124.908,497.358 122.603,496.433 121.88,496.138 118.669,494.789 118.669,494.789 118.669,494.789 118.669,494.789 
			116.311,493.552 115.223,492.999 114.27,492.486 113.77,492.186 112.265,491.062 111.536,490.544 110.166,489.46 109.296,488.677 
			108.103,487.5 107.415,486.847 105.704,484.699 105.704,484.699 105.704,484.699 103.653,481.486 100.926,478.066 
			100.556,477.584 100.415,477.319 96.764,472.805 96.071,471.928 95.101,470.745 92.885,468.073 91.086,465.972 89.652,464.13 
			87.724,462.211 87.218,461.688 85.737,459.757 85.461,459.451 85.414,459.363 83.91,456.539 83.581,455.921 83.011,454.638 
			82.429,452.908 81.613,450.737 81.372,450.072 80.821,447.76 80.71,446.913 80.282,444.195 79.972,440.848 79.867,440.224 
			79.797,439.242 79.622,435.936 79.523,433.836 79.519,431.912 79.615,428.689 79.721,427.612 79.663,427.077 79.836,423.36 
			80.126,420.713 80.35,419.007 80.817,414.566 80.817,414.566 80.77,414.478 81.55,409.984 81.791,408.949 82.552,405.485 
			82.505,405.396 82.588,405.126 83.336,402.915 83.584,402.103 84.038,400.615 84.533,398.992 85.122,397.545 85.664,396.01 
			86.595,393.928 87.049,392.44 87.673,390.635 88.345,388.918 89.111,387.377 89.705,386.154 90.377,384.437 91.779,381.537 
			91.991,381.085 92.379,380.538 93.539,378.674 94.576,377.216 94.705,377.033 95.688,375.263 96.419,374.081 97.107,373.035 
			97.667,372.17 99.092,370.165 99.869,369.072 100.387,368.343 101.211,367.337 102.559,365.826 103.471,364.774 104.431,363.81 
			105.561,362.528 107.256,360.606 107.433,360.512 107.651,360.282 109.216,358.542 111.4,356.473 111.441,356.338 
			111.441,356.338 111.529,356.291 113.848,354.263 114.59,353.528 116.032,352.193 117.868,350.536 118.351,350.165 
			119.228,349.472 120.805,348.179 122.559,346.791 123.436,346.098 123.742,345.822 127.432,343.177 127.432,343.177 
			127.52,343.13 131.604,340.162 131.869,340.021 132.969,339.321 135.564,337.599 136.27,337.223 139.395,335.219 140.672,334.426 
			142.567,333.304 144.197,332.322 147.634,330.266 148.075,330.03 148.557,329.66 151.776,327.833 153.583,326.757 154.554,326.24 
			156.625,325.024 159.491,323.384 160.109,323.055 160.285,322.961 160.815,322.679 164.563,320.57 166.634,319.354 
			168.664,318.272 172.236,316.257 172.324,316.21 172.501,316.116 175.237,314.659 176.914,313.766 177.355,313.531 
			179.915,312.168 180.092,312.073 180.751,311.609 183.263,310.158 184.54,309.364 186.482,308.33 187.541,307.766 
			190.672,305.986 190.76,305.939 190.76,305.939 193.72,304.476 196.809,302.831 196.897,302.784 196.986,302.737 200.163,301.045 
			200.428,300.904 201.84,300.151 202.546,299.775 202.723,299.681 204.712,298.736 205.771,298.171 207.271,297.372 
			208.154,296.902 209.784,295.921 210.402,295.592 213.144,294.358 213.232,294.311 215.886,293.125 216.368,292.754 
			218.269,291.856 219.281,291.203 220.693,290.451 222.547,289.464 223.294,288.953 224.177,288.483 225.765,287.637 
			227.178,286.884 228.549,286.268 230.526,284.875 230.967,284.64 232.244,283.846 233.48,283.188 233.786,282.912 235.81,281.607 
			235.987,281.513 237.929,280.479 239.07,279.645 240.524,278.757 243.154,276.677 243.243,276.63 243.243,276.63 246.45,274.355 
			246.538,274.308 247.021,273.938 248.91,272.592 249.392,272.222 251.323,270.74 252.376,269.953 254.883,268.278 
			255.454,267.861 257.472,266.332 258.132,265.868 258.261,265.686 260.945,263.917 261.821,263.223 263.752,261.742 
			265.935,259.673 266.459,259.167 266.942,258.797 269.249,256.322 270.815,254.582 271.421,253.806 272.987,252.065 
			274.076,250.919 275.553,249.226 275.73,249.132 277.302,247.615 278.879,246.322 279.709,245.54 281.198,244.294 
			282.598,243.095 283.081,242.724 285.094,240.973 285.576,240.602 285.706,240.42 287.766,238.757 288.378,238.204 
			289.649,237.187 291.009,236.123 291.974,235.383 293.374,234.184 293.945,233.766 296.182,232.009 296.182,232.009 
			296.311,231.827 298.241,230.345 299.289,229.334 300.513,228.229 302.344,226.348 302.432,226.301 302.52,226.254 
			305.757,223.397 306.852,222.474 309.254,220.176 309.607,219.988 309.736,219.805 312.408,217.589 313.938,216.208 
			314.945,215.332 316.74,213.81 317.705,213.069 318.14,212.61 320.418,210.718 322.254,209.06 323.349,208.137 324.179,207.355 
			325.668,206.109 326.368,205.51 328.387,203.981 330.618,202 331.536,201.172 332.283,200.66 334.961,198.668 335.443,198.297 
			337.109,196.957 338.515,195.982 339.174,195.517 340.534,194.453 340.799,194.312 342.906,192.737 343.565,192.273 
			346.678,189.822 347.82,188.987 349.444,187.782 351.992,185.972 352.345,185.784 354.764,184.156 356.211,183.045 
			356.871,182.581 357.747,181.887 358.93,180.918 360.643,179.666 360.949,179.389 363.533,177.22 364.757,176.115 
			365.239,175.745 365.81,175.328 366.552,174.593 366.77,174.364 368.612,172.929 369.047,172.471 369.4,172.283 371.107,170.807 
			372.637,169.426 373.296,168.962 374.173,168.268 376.145,166.652 377.416,165.635 377.546,165.452 377.634,165.405 
			379.258,164.201 381.795,161.943 381.883,161.896 381.924,161.761 384.42,159.639 385.774,158.352 386.168,158.028 
			387.869,156.329 388.304,155.871 389.134,155.089 389.57,154.63 390.447,153.937 391.235,153.29 393.596,151.127 394.514,150.298 
			394.643,150.116 395.126,149.746 396.132,148.87 396.744,148.317 397.662,147.488 398.975,146.336 401.465,143.991 
			401.506,143.855 401.724,143.626 403.26,142.468 404.531,141.451 405.714,140.481 406.238,139.976 407.509,138.959 
			409.569,137.296 409.61,137.16 409.698,137.113 409.786,137.066 409.786,137.066 412.023,135.309 413.777,133.922 
			414.477,133.322 416.013,132.164 417.943,130.683 418.296,130.495 418.296,130.495 418.385,130.448 420.274,129.102 
			420.627,128.914 421.462,128.356 422.957,127.333 424.628,126.216 427.53,124.218 428.406,123.525 428.848,123.29 
			428.936,123.243 429.113,123.149 431.531,121.521 432.102,121.103 433.073,120.586 433.779,120.21 434.573,119.787 
			436.292,118.759 436.951,118.295 437.304,118.107 437.969,117.866 438.322,117.678 441.323,116.08 441.499,115.986 
			442.029,115.703 442.117,115.656 442.559,115.421 445.742,113.953 445.83,113.906 446.448,113.577 447.066,113.248 
			447.378,113.195 449.855,112.102 450.119,111.961 451.314,111.439 452.243,111.057 452.908,110.816 454.015,110.34 
			454.679,110.099 456.097,109.571 457.115,109.142 458.221,108.666 458.445,108.661 459.422,108.367 461.016,107.744 
			462.211,107.222 463.187,106.928 464.252,106.588 466.205,106.001 467.27,105.66 468.512,105.225 469.577,104.885 
			470.689,104.633 473.042,103.946 473.842,103.746 474.642,103.547 475.619,103.253 476.554,103.095 478.955,102.497 
			479.578,102.391 480.155,102.197 481.578,101.892 482.602,101.687 483.761,101.523 485.497,101.165 486.832,100.907 
			488.167,100.649 489.415,100.438 490.838,100.133 492.797,99.77 493.645,99.658 494.403,99.594 496.633,99.313 497.48,99.202 
			498.463,99.132 501.451,98.787 502.345,98.764 504.622,98.571 506.051,98.49 507.704,98.402 509.939,98.345 510.522,98.375 
			511.728,98.299 513.116,98.353 513.651,98.294 515.804,98.507 517.463,98.644 517.645,98.773 517.869,98.767 519.492,99.262 
			520.798,99.587 522.556,100.123 524.362,100.748 526.438,101.455 529.284,102.545 530.007,102.839 532.36,103.853 
			532.906,104.241 534.853,105.131 535.582,105.649 536.852,106.332 538.669,107.404 540.216,108.393 541.08,108.952 541.991,109.6 
			542.809,110.071 544.444,111.013 545.079,111.354 546.443,112.214 547.078,112.556 549.483,113.881 549.801,114.051 
			550.888,114.605 552.476,115.459 552.929,115.671 555.193,116.731 556.64,117.32 557.275,117.662 559.31,118.504 559.986,118.711 
			560.756,119.093 563.332,120.101 566.179,121.191 566.496,121.362 567.084,121.615 569.431,122.405 570.472,122.87 572.054,123.5 
			573.818,124.26 574.224,124.384 576.394,125.268 577.205,125.515 579.511,126.44 582.133,127.536 582.722,127.789 
			583.174,128.001 585.438,129.061 587.432,130.039 588.067,130.381 588.655,130.634 590.743,131.788 592.56,132.86 593.06,133.16 
			594.923,134.32 594.971,134.408 595.106,134.45 597.111,135.874 597.428,136.045 598.887,137.081 599.433,137.47 600.209,138.076 
			601.35,138.942 601.532,139.071 601.991,139.507 603.314,140.502 604.549,141.544 605.689,142.409 606.377,143.062 
			606.742,143.321 608.57,144.84 608.935,145.099 610.763,146.618 611.175,146.965 612.821,148.355 613.232,148.702 614.42,149.656 
			615.196,150.262 616.978,151.692 617.207,151.91 617.207,151.91 617.389,152.04 619.082,153.517 620.635,154.73 620.817,154.859 
			620.817,154.859 622.692,156.466 623.745,157.379 624.891,158.468 627.319,160.687 627.684,160.946 627.96,161.252 
			630.435,163.559 630.711,163.865 630.988,164.171 633.292,166.796 633.892,167.497 636.061,170.08 636.478,170.651 
			637.077,171.352 638.423,173.241 639.211,174.294 640.328,175.965 640.422,176.142 640.516,176.318 641.268,177.731 
			641.79,178.925 642.966,181.132 643.77,182.856 644.904,185.198 645.333,186.216 646.185,188.028 646.567,188.957 
			646.943,189.664 647.847,191.788 648.84,193.865 649.269,194.883 649.651,195.812 650.315,197.271 650.79,198.378 
			651.225,199.619 651.612,200.772 652.376,202.632 652.91,204.273 653.057,204.761 653.738,206.891 653.985,207.78 654.965,211.11 
			655.059,211.286 655.206,211.774 655.898,214.351 656.444,216.44 656.638,217.017 656.978,218.081 657.336,219.817 
			657.577,220.482 658.123,222.57 658.469,223.859 658.909,225.324 659.209,226.524 659.496,227.277 660.072,228.783 
			660.559,230.337 661.652,232.814 661.887,233.255 661.934,233.343 662.028,233.52 663.897,236.603 664.032,236.645 
			665.972,239.01 666.565,239.487 669.264,241.789 670.081,242.26 671.799,242.932 673.157,243.568 674.016,243.904 675.68,244.263 
			677.251,244.447 679.615,244.207 680.151,244.148 680.951,243.949 682.598,243.638 683.663,243.298 684.681,242.869 
			686.67,241.923 687.111,241.688 688.429,240.759 689.571,239.925 689.877,239.649 690.36,239.278 692.49,236.897 692.62,236.715 
			692.926,236.439 694.616,234.293 695.946,232.111 696.164,231.882 697.671,229.606 698.236,228.965 698.713,228.372 
			700.009,226.549 700.703,225.726 701.05,225.314 702.663,223.662 703.534,222.745 704.888,221.458 705.282,221.134 706.424,220.3 
			707.566,219.465 708.313,218.954 709.461,218.343 709.99,218.061 711.896,217.385 714.197,216.387 715.174,216.093 
			715.974,215.894 718.245,215.478 720.068,215.073 720.827,215.009 723.11,215.039 723.692,215.069 724.368,215.275 
			727.739,215.86 730.303,216.42 731.473,216.703 733.003,217.022 734.632,217.74 736.572,218.406 737.072,218.707 738.666,219.784 
			739.077,220.131 740.535,221.168 741.035,221.468 741.635,222.168 742.646,223.216 742.875,223.434 744.421,226.123 		">
		</polygon>
	</g>
</g>
<g id="Layer_1">
</g>
</svg>
