<?xml version="1.0" encoding="iso-8859-1"?>
<!-- Generator: Adobe Illustrator 19.2.1, SVG Export Plug-In . SVG Version: 6.00 Build 0)  -->
<svg version="1.1" xmlns="http://www.w3.org/2000/svg" xmlns:xlink="http://www.w3.org/1999/xlink" x="0px" y="0px"
	 viewBox="0 0 841.89 595.28" style="enable-background:new 0 0 841.89 595.28;" xml:space="preserve">
<g id="layer232">
	<g id="layer232_1_" slic3r:z="9.30000000000008e-005">
		<polygon slic3r:type="contour" style="fill:#FFFFFF;stroke:#000000;stroke-miterlimit:10;" points="766.615,205.466 
			766.898,205.995 766.997,206.395 767.22,208.09 767.237,208.76 767.271,210.102 767.37,212.202 767.405,213.543 767.25,216.231 
			767.091,216.996 767.02,217.713 766.819,218.613 766.701,219.242 766.624,219.736 766.294,220.819 765.97,222.124 
			765.552,223.253 765.304,224.065 765.092,224.518 764.591,225.918 764.25,226.553 763.572,228.046 762.854,229.675 
			761.534,232.304 761.405,232.486 761.364,232.621 759.597,235.262 758.573,237.167 758.402,237.484 757.925,238.078 
			756.718,239.854 756.112,240.63 754.728,242.5 753.262,244.64 753.091,244.958 752.915,245.052 751.92,246.375 751.055,247.515 
			750.749,247.791 749.359,249.438 748.576,250.308 747.275,251.907 746.363,252.959 745.451,254.012 743.049,256.31 
			742.831,256.54 742.79,256.675 740.389,258.973 739.953,259.432 738.076,261.225 736.722,262.512 735.451,263.529 
			734.009,264.864 733.085,265.469 731.508,266.762 730.584,267.367 730.189,267.691 727.947,269.225 727.2,269.736 
			726.935,269.877 726.67,270.018 723.805,271.657 721.863,272.692 721.422,272.927 720.98,273.162 719.168,274.013 
			718.062,274.489 717.044,274.918 715.849,275.441 715.449,275.541 715.049,275.64 713.543,276.216 711.101,276.95 
			710.301,277.149 707.413,277.894 706.124,278.241 704.612,278.593 703.188,278.898 700.829,279.361 698.517,279.913 
			697.141,280.306 695.852,280.652 693.628,281.157 692.163,281.597 690.386,282.09 689.81,282.284 687.504,283.059 
			685.733,283.775 685.556,283.869 683.738,284.498 682.32,285.026 679.755,286.166 678.207,286.877 676.524,287.546 
			674.447,288.539 673.741,288.915 672.812,289.297 670.47,290.431 667.822,291.841 667.733,291.888 667.469,292.029 
			664.644,293.533 663.585,294.097 661.072,295.549 659.795,296.342 658.295,297.141 657.371,297.746 654.77,299.245 
			653.711,299.809 650.763,301.719 649.88,302.189 648.956,302.794 647.238,303.823 645.784,304.71 644.99,305.133 643.625,305.973 
			643.007,306.302 642.566,306.537 641.418,307.148 639.877,308.083 638.464,308.835 635.64,310.339 634.804,310.897 
			632.333,312.214 631.274,312.778 629.02,313.864 627.12,314.763 625.619,315.562 623.542,316.555 622.612,316.937 
			620.712,317.836 617.97,319.069 617.128,319.404 614.075,320.691 613.233,321.025 612.969,321.166 609.203,322.605 
			607.92,323.175 605.084,324.232 602.825,325.096 600.654,325.912 597.641,327.063 596.359,327.633 594.276,328.402 
			593.17,328.878 591.84,329.359 590.246,329.982 588.428,330.61 586.656,331.327 585.55,331.803 583.732,332.431 582.314,332.96 
			579.525,334.105 579.214,334.158 576.466,335.168 574.16,335.943 572.03,336.624 568.658,337.739 567.594,338.08 563.328,339.219 
			563.24,339.266 562.928,339.318 559.016,340.269 557.992,340.474 554.656,341.231 553.009,341.542 550.738,341.958 
			549.891,342.069 547.173,342.497 546.373,342.696 542.896,343.188 542.896,343.188 542.808,343.235 539.684,343.539 
			538.261,343.844 536.966,343.967 534.696,344.383 534.296,344.483 534.072,344.489 531.754,344.817 530.195,345.081 
			529.172,345.286 527.165,345.561 526.63,345.62 526.318,345.673 524.042,345.865 521.989,346.052 520.247,346.186 
			519.265,346.256 518.283,346.326 516.941,346.361 516,346.296 513.63,346.312 512.242,346.258 510.406,346.216 508.977,346.297 
			506.512,346.137 504.812,346.136 502.571,345.97 501.542,345.952 500.871,345.969 496.795,345.76 496.212,345.731 
			496.036,345.825 495.407,345.707 492.318,345.652 491.736,345.622 489.677,345.585 487.618,345.549 486.007,345.501 
			483.901,345.376 481.842,345.34 480.766,345.233 478.078,345.078 477.901,345.172 477.542,345.137 475.078,344.977 
			473.872,345.052 471.766,344.928 470.289,344.921 468.007,344.89 466.036,344.806 462.813,344.71 462.454,344.675 
			461.066,344.621 458.96,344.496 458.69,344.414 457.972,344.343 456.09,344.212 455.19,344.012 453.214,343.704 452.537,343.498 
			450.02,343.026 449.885,342.985 447.591,342.507 446.15,342.141 444.08,341.658 443.721,341.622 442.192,341.304 442.103,341.351 
			440.439,340.991 439.315,340.796 436.845,340.412 434.333,340.164 434.198,340.122 433.481,340.051 430.969,339.803 
			430.475,339.726 429.804,339.743 425.904,339.441 422.504,339.439 422.281,339.444 421.922,339.409 418.834,339.354 
			417.716,339.383 414.145,339.698 413.563,339.669 413.387,339.763 413.075,339.815 409.728,340.125 408.169,340.389 
			406.657,340.741 405.809,340.852 404.298,341.204 401.279,342.132 400.791,342.278 400.391,342.378 397.02,343.494 
			395.466,343.981 393.207,344.844 392.277,345.226 388.6,346.618 388.6,346.618 388.6,346.618 388.6,346.618 384.97,348.098 
			384.481,348.245 382.134,349.155 380.41,349.96 378.727,350.63 376.162,351.769 375.456,352.145 372.849,353.42 372.143,353.796 
			371.966,353.89 371.084,354.36 368.3,355.729 367.859,355.964 366.494,356.805 364.376,357.933 363.669,358.309 361.375,359.531 
			360.274,360.23 357.762,361.682 357.673,361.729 357.585,361.776 354.454,363.556 353.572,364.026 351.589,365.196 
			350.665,365.801 350.135,366.083 348.288,367.294 346.351,368.551 346.087,368.692 345.781,368.968 343.98,370.267 
			342.096,371.837 342.096,371.837 342.143,371.925 340.001,373.859 338.43,375.376 338.124,375.652 337.906,375.881 
			336.334,377.398 334.939,378.821 334.239,379.42 333.586,380.108 331.755,381.989 329.312,384.423 329.136,384.517 
			329.095,384.652 327.611,386.122 326.652,387.086 325.999,387.774 324.957,389.009 324.698,389.373 324.48,389.603 
			323.138,391.337 321.666,393.254 321.318,393.665 320.671,394.577 318.557,397.628 316.832,400.133 316.055,401.227 
			315.278,402.32 313.941,404.279 312.611,406.46 311.969,407.595 311.58,408.142 310.332,410.053 309.69,411.188 308.742,412.599 
			308.312,413.281 307.541,414.598 306.811,415.78 306.422,416.327 305.221,418.326 304.279,419.961 304.067,420.414 
			303.078,421.96 302.265,423.413 301.877,423.959 301.188,425.006 299.298,428.052 298.997,428.552 298.785,429.005 
			298.397,429.551 298.185,430.004 296.218,433.544 295.835,434.315 295.234,435.314 294.427,436.99 293.573,438.578 
			293.361,439.031 291.984,441.124 290.617,443.664 290.441,443.758 290.27,444.076 288.551,446.804 287.691,448.168 
			287.303,448.715 286.184,450.444 285.489,451.267 284.971,451.996 284.8,452.314 284.671,452.496 283.546,454.001 
			281.515,456.782 281.386,456.965 281.127,457.329 279.437,459.475 278.313,460.98 278.095,461.21 277.571,461.715 
			276.835,462.674 275.623,464.226 275.146,464.82 274.928,465.049 272.538,467.794 271.755,468.665 271.408,469.076 
			270.278,470.358 268.323,472.645 268.194,472.827 268.017,472.921 267.976,473.056 265.321,475.943 264.409,476.995 
			263.844,477.636 261.454,480.382 260.842,480.934 260.018,481.94 259.582,482.398 258.317,483.639 257.275,484.873 
			256.268,485.749 255.179,486.896 254.744,487.354 253.567,488.548 252.301,489.788 250.947,491.075 249.682,492.316 
			248.634,493.327 247.41,494.432 246.621,495.079 246.139,495.449 245.527,496.002 243.903,497.207 242.937,497.947 
			240.872,499.387 240.124,499.898 237.794,501.479 237.529,501.62 235.105,503.025 233.516,503.871 231.969,504.582 
			230.38,505.428 228.344,506.285 226.573,507.002 223.825,508.012 221.654,508.828 220.325,509.31 218.507,509.938 
			216.553,510.525 215.488,510.866 213.223,511.505 211.311,511.957 210.423,512.204 207.175,512.914 206.687,513.06 
			206.152,513.119 202.769,513.787 201.21,514.051 199.651,514.315 196.845,514.79 196.621,514.795 196.086,514.854 
			193.544,515.188 192.786,515.252 190.062,515.456 188.544,515.585 186.268,515.777 185.285,515.847 183.409,515.94 
			183.185,515.946 180.679,515.921 180.503,516.015 180.144,515.979 176.968,515.972 175.179,516.018 172.762,515.946 
			169.538,515.849 169.362,515.943 169.226,515.902 168.644,515.872 166.762,515.742 163.627,515.599 163.403,515.605 
			163.18,515.61 158.427,515.196 157.845,515.166 155.421,514.87 154.792,514.752 154.615,514.846 151.069,514.356 151.069,514.356 
			151.069,514.356 147.698,513.771 146.845,513.659 145.228,513.388 144.328,513.187 142.752,512.78 141.493,512.544 
			139.511,512.014 136.9,511.365 136.359,511.2 136.088,511.117 132.659,509.998 131.489,509.715 128.102,508.46 127.831,508.377 
			127.831,508.377 125.479,507.364 125.208,507.281 124.167,506.816 123.309,506.48 121.403,505.455 120.451,504.943 
			119.498,504.431 117.27,503.012 115.453,501.94 112.489,499.779 111.625,499.22 109.296,497.401 108.156,496.536 107.744,496.188 
			104.863,493.757 103.446,492.586 101.565,490.755 98.861,488.23 96.839,486.135 93.993,483.345 91.93,481.385 90.507,479.99 
			87.291,476.717 85.733,475.281 84.905,474.363 81.371,470.919 80.454,470.048 77.468,466.993 76.915,466.381 76.451,465.722 
			75.293,464.186 74.735,463.351 74.124,462.203 73.701,461.409 72.097,458.184 71.762,457.343 70.852,454.995 70.57,454.466 
			70.564,454.242 70.37,453.666 69.725,451.177 69.514,449.93 69.092,447.435 68.811,445.206 68.746,444.447 68.676,443.465 
			68.572,441.141 68.48,437.564 68.48,437.564 68.433,437.476 68.506,433.359 68.572,430.717 68.62,429.106 68.634,426.153 
			68.735,424.853 68.759,424.047 69.026,420.506 69.363,417.947 69.623,415.883 70.207,412.513 70.408,411.613 71.045,408.554 
			71.322,407.16 72.059,404.502 72.389,403.42 72.637,402.608 73.497,399.544 73.869,398.327 74.617,396.115 74.953,395.257 
			75.707,393.269 76.379,391.552 76.797,390.422 77.945,388.111 78.028,387.841 78.069,387.706 79.383,384.853 79.424,384.718 
			79.465,384.583 79.978,383.63 81.473,380.908 81.685,380.455 83.222,377.597 84.035,376.144 85.448,373.692 86.343,371.969 
			87.804,369.606 88.234,368.923 89.606,366.607 90.035,365.925 91.501,363.784 92.361,362.42 93.827,360.28 93.957,360.098 
			95.558,357.999 96.123,357.358 97.548,355.353 97.895,354.941 98.113,354.712 99.673,352.748 100.15,352.154 101.715,350.414 
			102.545,349.632 103.717,348.215 104.5,347.345 106.771,345.229 106.989,345 107.731,344.265 109.344,342.613 109.956,342.06 
			111.745,340.314 112.316,339.897 113.234,339.068 114.764,337.687 115.641,336.993 117.701,335.33 118.225,334.824 
			118.619,334.501 120.55,333.02 121.691,332.185 124.94,329.775 125.028,329.728 125.028,329.728 125.204,329.634 128.324,327.407 
			129.424,326.707 131.49,325.267 132.896,324.292 134.609,323.04 135.179,322.623 137.51,321.042 138.257,320.53 139.399,319.696 
			141.511,318.344 142.741,317.463 143.224,317.092 144.63,316.117 144.807,316.023 144.983,315.929 147.008,314.624 
			148.679,313.507 149.779,312.808 150.656,312.114 151.362,311.738 152.286,311.133 153.828,310.199 154.664,309.64 
			155.146,309.27 156.688,308.336 157.171,307.965 159.854,306.196 159.854,306.196 159.854,306.196 162.538,304.428 
			162.802,304.286 164.385,303.217 166.498,301.865 166.939,301.63 167.116,301.536 168.04,300.931 169.799,299.767 
			170.152,299.579 172.483,297.998 172.747,297.857 173.189,297.622 175.39,296.224 176.531,295.389 178.82,293.943 
			178.909,293.896 178.997,293.849 182.516,291.522 183.175,291.058 184.364,290.311 184.982,289.982 186.341,288.918 
			187.618,288.125 189.201,287.056 190.037,286.497 192.014,285.104 192.497,284.734 193.332,284.176 195.533,282.777 
			196.898,281.937 197.204,281.66 198.211,280.785 199.223,280.132 201.418,278.51 201.989,278.093 203.089,277.393 
			204.143,276.606 204.978,276.047 206.603,274.843 208.274,273.726 209.416,272.891 210.469,272.104 211.305,271.545 
			211.611,271.269 212.005,270.946 213.453,269.835 214.377,269.23 215.695,268.301 217.231,267.143 218.108,266.45 
			219.997,265.104 220.126,264.921 220.215,264.874 220.479,264.733 222.716,262.976 223.551,262.418 225.217,261.077 
			226.447,260.196 227.194,259.685 228.159,258.944 228.554,258.621 231.449,256.399 231.537,256.352 231.537,256.352 
			232.238,255.752 234.039,254.453 234.609,254.036 236.145,252.878 236.716,252.461 238.688,250.844 238.953,250.703 
			240.618,249.363 240.924,249.087 242.154,248.205 242.637,247.835 243.072,247.377 244.608,246.219 245.091,245.848 
			247.504,243.997 247.721,243.768 248.51,243.121 249.605,242.198 251.053,241.087 252.5,239.976 253.289,239.33 253.595,239.054 
			255.437,237.619 256.402,236.879 256.579,236.785 256.708,236.602 259.515,234.428 260.745,233.546 261.711,232.806 
			262.105,232.482 264.429,230.678 264.518,230.631 264.736,230.401 266.536,229.103 268.249,227.851 270.138,226.505 
			270.444,226.228 270.62,226.134 272.774,224.648 272.904,224.465 273.563,224.001 274.793,223.119 275.099,222.843 
			277.076,221.45 277.953,220.757 278.789,220.198 280.413,218.993 280.943,218.711 281.16,218.482 282.037,217.788 
			283.267,216.907 283.709,216.672 285.727,215.144 287.881,213.657 289.594,212.405 291.436,210.971 292.359,210.365 
			293.895,209.207 294.555,208.743 295.52,208.003 296.355,207.444 296.838,207.074 298.374,205.916 301.01,204.059 301.01,204.059 
			301.228,203.83 302.505,203.036 303.253,202.525 304.306,201.737 305.671,200.897 306.683,200.245 310.291,197.87 310.773,197.5 
			310.95,197.406 312.227,196.613 314.163,195.355 314.91,194.844 315.175,194.703 316.846,193.586 319.488,191.952 320.983,190.93 
			323.449,189.39 323.625,189.296 324.067,189.061 324.331,188.92 327.368,186.963 327.897,186.681 328.162,186.54 329.086,185.935 
			332.128,184.201 333.935,183.126 335.565,182.145 335.959,181.821 336.401,181.586 337.018,181.257 338.601,180.188 
			340.673,178.971 342.568,177.849 343.315,177.338 344.545,176.456 344.898,176.268 345.427,175.986 347.976,174.176 
			348.682,173.8 349.076,173.476 349.341,173.335 350.53,172.589 352.642,171.237 353.39,170.726 357.262,168.211 357.479,167.981 
			357.568,167.934 358.362,167.511 359.898,166.354 361.087,165.607 361.834,165.096 361.834,165.096 361.834,165.096 
			363.111,164.303 366.101,162.257 366.407,161.981 370.32,159.33 370.32,159.33 370.361,159.195 370.932,158.778 373.392,157.015 
			374.622,156.133 374.751,155.951 375.234,155.58 376.947,154.329 378.394,153.218 378.877,152.847 379.271,152.524 
			379.624,152.336 382.084,150.573 383.138,149.785 383.355,149.556 384.014,149.092 384.497,148.721 387.351,146.635 
			388.405,145.847 388.493,145.8 388.581,145.753 390.865,144.084 391.612,143.573 392.095,143.203 392.842,142.691 
			395.914,140.375 397.185,139.359 397.45,139.218 397.668,138.988 399.51,137.554 400.169,137.09 400.74,136.672 401.57,135.891 
			404.371,133.492 405.466,132.569 405.466,132.569 405.554,132.522 407.926,130.806 408.673,130.295 409.156,129.925 
			409.903,129.413 412.934,127.233 414.381,126.122 414.646,125.981 414.999,125.793 416.888,124.447 417.153,124.306 
			419.001,123.095 419.572,122.678 421.42,121.467 422.037,121.138 423.62,120.069 424.544,119.463 425.645,118.764 
			426.351,118.388 427.716,117.548 428.422,117.172 429.876,116.284 433.271,114.363 433.977,113.987 434.154,113.893 
			436.801,112.483 438.255,111.595 438.343,111.548 438.343,111.548 439.314,111.031 441.344,109.95 442.58,109.292 
			443.415,108.734 446.063,107.324 446.817,107.036 447.17,106.848 447.964,106.425 448.452,106.278 449.247,105.855 
			450.353,105.379 451.059,105.003 451.636,104.809 452.918,104.24 454.024,103.764 454.424,103.664 454.778,103.476 
			455.042,103.335 456.06,102.906 458.008,102.096 459.161,101.708 460.002,101.373 460.844,101.038 462.838,100.316 
			463.103,100.175 465.098,99.453 466.163,99.112 468.028,98.572 470.069,97.938 470.999,97.556 473.087,97.011 473.976,96.764 
			474.864,96.518 476.729,95.978 477.706,95.684 477.882,95.59 478.418,95.532 481.306,94.786 482.507,94.487 484.113,94.311 
			485.224,94.059 487.854,93.678 488.389,93.62 491.648,93.357 491.825,93.263 493.031,93.187 495.396,92.948 495.708,92.895 
			498.655,92.685 499.725,92.568 501.69,92.428 503.743,92.241 504.726,92.171 505.885,92.007 507.714,91.826 510.032,91.498 
			511.014,91.428 514.491,90.936 515.25,90.872 516.321,90.755 518.327,90.479 519.486,90.315 520.868,90.146 521.892,89.94 
			523.362,89.724 526.169,89.249 526.616,89.237 526.792,89.143 531.422,88.264 531.646,88.258 531.734,88.211 533.734,87.712 
			536.358,87.108 536.623,86.967 537.335,86.814 539.641,86.039 540.353,85.887 540.971,85.558 543.012,84.924 543.63,84.595 
			545.225,83.972 546.507,83.402 547.125,83.073 548.802,82.18 549.155,81.992 549.332,81.898 549.685,81.71 551.85,80.67 
			552.78,80.289 554.633,79.301 555.604,78.784 557.37,77.844 558.382,77.192 559.924,76.258 561.907,75.088 562.348,74.853 
			562.789,74.618 565.619,73.338 566.502,72.868 567.832,72.386 568.32,72.239 570.226,71.564 570.891,71.323 573.033,71.089 
			573.75,71.16 574.785,71.402 575.956,71.685 579.031,72.993 579.031,72.993 579.031,72.993 582.613,74.824 583.836,75.419 
			585.471,76.361 587.105,77.304 589.646,78.67 590.192,79.058 593.374,80.99 593.785,81.337 595.784,82.538 597.243,83.574 
			597.472,83.792 600.2,85.512 600.747,85.9 602.882,87.143 604.916,87.985 606.763,88.474 609.404,88.541 609.94,88.482 
			612.381,87.748 612.781,87.649 612.87,87.602 613.046,87.508 616.053,86.133 618.03,84.74 618.383,84.552 620.319,83.294 
			622.255,82.037 623.179,81.431 623.927,80.92 625.78,79.933 626.575,79.51 627.634,78.946 628.387,78.658 630.081,78.436 
			630.705,78.33 631.287,78.36 633.44,78.573 634.116,78.779 634.61,78.856 635.604,79.233 636.198,79.71 638.473,81.217 
			639.109,81.559 641.343,83.201 643.072,84.32 643.754,84.75 644.165,85.097 646.217,86.61 646.764,86.999 647.493,87.517 
			650.78,90.072 651.644,90.631 654.837,93.01 655.066,93.227 658.077,95.476 658.488,95.824 661.316,97.943 662.228,98.59 
			665.373,100.881 665.738,101.14 666.555,101.611 669.519,103.771 671.112,104.849 671.565,105.061 673.111,106.05 
			674.346,107.092 677.116,108.676 677.803,109.329 678.444,109.894 680.079,110.837 681.214,111.479 683.76,113.068 
			684.26,113.369 684.577,113.539 685.212,113.881 687.905,115.959 688.77,116.518 689.593,117.213 691.574,119.444 
			692.038,120.103 692.408,120.585 693.031,122.18 693.441,124.227 693.393,125.839 691.557,127.497 691.169,128.043 
			689.839,128.525 687.485,129.212 687.038,129.223 686.591,129.235 683.638,129.221 681.938,129.22 680.556,129.39 
			678.856,129.389 677.385,129.606 675.909,129.599 672.479,130.179 671.538,130.114 670.555,130.184 667.749,130.659 
			666.367,130.828 663.914,131.115 663.243,131.132 661.143,131.231 660.384,131.295 660.296,131.342 660.161,131.301 
			657.478,131.37 657.119,131.334 656.314,131.31 654.39,131.315 653.584,131.291 652.778,131.267 652.061,131.196 649.684,130.989 
			649.596,131.036 649.549,130.947 649.237,131 647.037,130.699 646.455,130.669 644.796,130.533 642.779,130.361 642.779,130.361 
			640.538,130.195 639.955,130.165 639.508,130.177 638.614,130.2 638.032,130.17 637.72,130.223 636.561,130.387 636.249,130.439 
			635.896,130.627 635.19,131.003 634.396,131.426 633.955,131.662 633.213,132.396 632.336,133.09 632.118,133.319 
			631.606,134.272 631.523,134.542 630.928,135.766 630.893,136.124 630.645,136.936 630.698,137.248 630.633,138.189 
			630.703,139.171 631.425,141.166 631.707,141.695 632.266,142.531 633.059,143.808 634.358,145.609 634.634,145.915 
			634.681,146.003 635.093,146.35 636.938,148.54 637.45,149.287 639.431,151.518 640.265,152.659 640.818,153.272 641.741,154.366 
			642.893,155.679 644.051,157.215 644.603,157.827 646.131,159.845 646.637,160.369 647.242,161.293 648.489,162.782 
			650.299,165.33 650.346,165.419 650.393,165.507 652.708,168.579 654.013,170.603 654.618,171.527 655.271,172.539 
			656.199,173.857 657.128,175.176 658.527,177.376 659.085,178.212 659.784,179.313 660.719,180.854 661.606,182.308 
			662.076,183.19 662.822,184.379 663.81,186.233 664.274,186.892 664.609,187.733 665.695,189.987 666.072,190.693 
			666.976,192.817 667.499,194.011 668.274,196.318 668.609,197.159 668.803,197.736 669.29,199.289 669.677,200.442 
			670.088,202.489 670.24,203.201 670.745,205.425 670.792,205.513 671.161,207.696 671.272,208.543 671.442,209.926 
			671.501,210.461 671.858,212.196 671.817,212.332 672.28,214.691 672.327,214.779 672.533,215.803 672.885,217.315 
			672.891,217.538 673.513,219.133 673.566,219.444 674.042,220.551 674.876,221.692 675.199,222.087 675.699,222.387 
			676.705,223.211 678.193,223.665 678.645,223.877 679.316,223.86 680.793,223.867 682.128,223.609 683.24,223.356 
			685.099,222.593 685.099,222.593 685.187,222.546 686.953,221.606 687.965,220.953 689.024,220.389 690.607,219.32 
			690.825,219.09 692.89,217.65 693.285,217.327 693.944,216.863 695.833,215.517 697.063,214.635 699.393,213.054 699.482,213.007 
			699.57,212.96 701.594,211.656 702.341,211.144 702.959,210.815 704.018,210.251 705.607,209.405 707.019,208.653 
			709.143,207.748 709.408,207.607 712.468,206.545 712.644,206.451 712.644,206.451 712.733,206.404 716.151,205.376 
			716.416,205.235 719.704,204.39 720.728,204.185 722.687,203.821 723.846,203.657 726.164,203.329 726.652,203.183 
			727.099,203.171 730.176,202.779 731.158,202.709 733.211,202.522 734.729,202.393 735.488,202.329 738.882,202.108 
			739.729,201.997 742.63,201.698 742.765,201.74 745.083,201.412 745.795,201.259 747.665,200.943 748.512,200.831 
			749.848,200.573 751.225,200.18 752.872,199.869 755.09,199.141 755.849,199.077 757.673,198.672 760.137,198.832 
			760.361,198.827 760.449,198.78 761.037,199.033 762.754,199.705 763.213,200.14 764.271,201.276 764.97,202.377 765.67,203.477 
					">
		</polygon>
	</g>
</g>
<g id="Layer_1">
</g>
</svg>
