<?xml version="1.0" encoding="iso-8859-1"?>
<!-- Generator: Adobe Illustrator 19.2.1, SVG Export Plug-In . SVG Version: 6.00 Build 0)  -->
<svg version="1.1" xmlns="http://www.w3.org/2000/svg" xmlns:xlink="http://www.w3.org/1999/xlink" x="0px" y="0px"
	 viewBox="0 0 841.89 595.28" style="enable-background:new 0 0 841.89 595.28;" xml:space="preserve">
<g id="layer195">
	<g id="layer195_1_" slic3r:z="7.82000000000006e-005">
		<polygon slic3r:type="contour" style="fill:#FFFFFF;stroke:#000000;stroke-miterlimit:10;" points="199.647,395.809 
			201.068,398.904 202.014,400.893 202.49,401.999 202.96,402.882 203.723,404.741 205.104,407.971 205.574,408.854 
			205.674,409.254 205.956,409.783 207.06,412.708 207.066,412.931 207.629,415.69 207.728,416.09 207.897,419.173 207.95,419.485 
			208.124,422.791 208.065,423.955 208.045,426.685 208.057,427.132 207.743,430.584 207.755,431.032 207.689,431.973 
			207.417,435.29 207.169,436.102 206.567,438.801 206.243,440.107 206.078,440.648 205.619,441.913 204.741,444.306 
			204.193,445.618 203.733,446.882 203.232,448.282 202.684,449.593 202.225,450.858 201.848,451.851 200.87,453.845 
			200.576,454.568 199.51,456.609 198.008,459.108 197.578,459.79 197.231,460.202 196.407,461.207 194.758,463.218 
			194.193,463.859 192.092,465.657 191.963,465.84 189.985,467.232 187.691,468.455 185.708,469.624 184.201,470.2 182.648,470.687 
			181.095,471.174 179.495,471.573 178.871,471.679 178.512,471.643 175.83,471.712 173.365,471.552 172.424,471.487 
			172.201,471.492 171.53,471.509 169.33,471.208 167.401,470.989 164.478,470.393 163.49,470.24 161.466,469.845 159.308,469.408 
			158.631,469.202 157.461,468.919 156.243,468.547 154.844,468.046 152.897,467.157 151.451,466.568 150.227,465.973 
			148.504,465.078 146.599,464.053 145.194,463.329 143.371,462.034 142.507,461.474 139.273,459.231 139.043,459.013 
			136.492,457.2 135.169,456.205 135.122,456.117 131.1,452.82 130.965,452.779 130.324,452.214 126.62,449.088 126.438,448.958 
			126.208,448.741 123.463,446.351 123.004,445.915 120.806,443.914 120.347,443.478 119.935,443.131 118.09,440.942 
			117.214,439.935 117.073,439.67 116.932,439.406 115.392,436.94 115.245,436.452 114.488,434.816 113.906,433.086 
			113.618,432.333 112.973,429.844 111.88,427.367 111.64,426.702 111.44,425.902 110.777,422.743 110.325,420.831 110.638,419.078 
			110.922,416.208 111.064,414.773 111.801,412.114 112.531,410.932 113.703,409.515 115.569,407.275 116.181,406.723 
			118.712,404.242 118.971,403.877 119.454,403.507 121.773,401.479 123.303,400.098 124.309,399.222 125.404,398.299 
			127.069,396.959 129.217,395.248 130.094,394.555 130.447,394.367 131.148,393.767 133.431,392.098 134.661,391.216 
			137.251,389.271 138.174,388.666 139.057,388.196 140.552,387.173 140.728,387.079 142.005,386.286 144.524,385.058 
			144.965,384.823 145.142,384.729 147.836,383.407 148.854,382.978 149.031,382.884 151.508,381.791 153.456,380.981 
			154.562,380.505 156.38,379.877 159.216,378.82 159.616,378.72 160.104,378.573 162.769,377.834 164.281,377.482 165.44,377.318 
			167.087,377.007 169.229,376.773 170.252,376.568 173.2,376.358 173.647,376.346 176.511,376.407 177.229,376.478 
			179.429,376.779 181.864,377.522 183.258,377.799 184.345,378.353 187.068,379.848 189.302,381.491 191.325,383.586 
			192.43,384.81 194.51,387.441 195.11,388.141 195.345,388.583 197.349,391.708 199.224,395.015 199.412,395.368 		">
		</polygon>
		<polygon slic3r:type="contour" style="fill:#FFFFFF;stroke:#000000;stroke-miterlimit:10;" points="617.356,216.863 
			618.301,218.852 619.999,222.253 620.046,222.341 620.046,222.341 620.14,222.518 621.762,226.413 621.908,226.901 
			622.29,227.831 623.294,230.355 624.017,232.35 624.357,233.415 625.226,235.897 625.667,237.362 626.395,239.58 627.029,241.622 
			627.422,242.999 628.209,245.752 628.261,246.064 628.308,246.152 628.971,249.311 629.276,250.735 629.704,253.453 
			629.968,255.012 630.108,256.977 630.283,258.583 630.264,261.312 630.246,262.342 629.956,264.989 629.761,266.112 
			629.195,268.453 628.747,270.164 628.205,271.699 627.45,273.687 627.156,274.41 626.384,275.728 625.96,276.633 625.484,277.227 
			624.489,278.55 623.535,279.738 622.623,280.79 621.928,281.613 620.315,283.265 619.132,284.235 616.954,286.528 
			616.384,286.945 615.989,287.268 613.712,289.161 613.447,289.302 611.293,290.789 610.634,291.253 608.745,292.599 
			608.303,292.834 607.95,293.022 606.762,293.769 604.996,294.709 604.29,295.085 601.166,297.089 601.077,297.136 600.901,297.23 
			598.165,298.687 596.664,299.486 595.605,300.05 593.975,301.031 593.534,301.266 592.38,301.654 591.892,301.801 
			590.033,302.564 589.544,302.711 587.768,303.204 586.832,303.362 584.167,304.102 583.055,304.354 582.655,304.454 
			581.855,304.653 579.496,305.117 577.713,305.386 576.866,305.497 575.484,305.667 574.007,305.66 572.043,305.8 569.313,305.781 
			568.284,305.763 566.943,305.797 565.149,305.62 563.402,305.53 560.49,305.382 559.596,305.405 559.102,305.328 557.802,305.227 
			555.561,305.061 553.767,304.883 552.737,304.865 551.214,304.77 549.238,304.463 548.52,304.392 546.814,304.167 
			545.556,303.931 544.926,303.813 543.215,303.365 540.78,302.622 539.245,302.08 536.81,301.338 534.822,300.584 533.828,300.206 
			533.376,299.994 530.377,298.193 530.106,298.11 528.918,297.156 527.408,295.808 527.178,295.591 526.573,294.667 
			525.186,292.913 524.768,292.342 523.787,290.712 522.888,288.812 522.512,288.105 521.743,286.023 521.543,285.223 
			521.134,281.475 521.175,281.34 521.175,281.34 521.128,281.252 521.483,277.664 521.914,275.282 522.285,274.064 
			522.569,272.894 523.234,270.953 523.9,269.012 524.536,267.654 525.809,264.937 525.891,264.666 527.04,262.355 527.64,261.356 
			528.412,260.038 529.954,257.404 530.296,256.769 530.596,256.269 532.304,253.094 532.392,253.047 532.522,252.864 
			533.588,250.824 533.541,250.736 534.348,249.06 535.184,246.801 535.467,245.631 536.129,241.767 536.076,241.455 
			536.106,240.873 535.913,238.596 535.561,237.084 535.403,236.149 534.404,233.848 534.116,233.095 534.069,233.007 
			533.84,232.789 532.259,230.458 531.706,229.846 530.237,228.363 529.549,227.71 527.909,226.544 527.632,226.238 
			527.085,225.849 525.539,224.86 525.039,224.56 522.993,223.27 521.723,222.587 519.864,221.651 519.547,221.48 517.012,220.337 
			516.648,220.078 512.49,218.441 512.219,218.358 511.814,218.234 508.203,216.985 505.95,216.372 504.462,215.918 
			500.863,215.116 500.457,214.992 499.198,214.756 496.857,214.19 495.957,213.989 493.481,213.382 491.411,212.898 
			490.558,212.786 487.811,212.096 487.317,212.019 486.776,211.854 483.442,210.911 481.142,210.21 480.242,210.009 
			479.607,209.668 476.126,208.236 476.126,208.236 476.079,208.148 471.898,205.616 471.627,205.533 468.199,202.714 
			467.788,202.366 465.536,200.053 464.202,198.611 463.649,197.999 463.508,197.734 461.851,195.898 460.746,194.674 
			459.176,192.79 458.853,192.396 458.759,192.22 458.436,191.825 456.943,189.448 456.243,188.347 455.444,186.847 
			454.422,185.352 453.511,183.005 452.519,180.928 452.131,179.774 451.486,177.286 451.299,175.233 451.334,174.874 
			451.24,174.697 451.317,174.203 451.288,173.086 451.872,169.715 452.026,168.727 452.103,168.233 452.309,167.557 
			453.046,164.898 453.335,163.952 453.83,162.328 454.978,160.017 456.221,157.883 456.262,157.747 458.134,155.731 
			458.964,154.949 460.8,153.291 461.76,152.327 463.602,150.893 466.05,148.683 466.227,148.589 466.444,148.36 468.375,146.878 
			470.046,145.762 470.528,145.391 470.882,145.203 473.176,143.981 474.236,143.417 475.918,142.748 477.472,142.26 
			479.072,141.861 480.807,141.504 482.99,141.134 484.237,140.923 487.049,140.672 487.184,140.713 490.443,140.451 
			491.114,140.433 492.679,140.393 495.002,140.289 496.12,140.26 498.09,140.344 499.432,140.309 500.955,140.404 501.761,140.428 
			505.478,140.601 505.837,140.636 506.061,140.631 510.361,140.833 510.99,140.951 514.172,141.183 515.472,141.284 
			519.372,141.586 519.46,141.539 519.954,141.616 523.542,141.971 524.078,141.912 525.019,141.978 527.26,142.144 
			529.589,142.263 530.219,142.381 533.219,142.483 533.266,142.571 536.089,142.767 536.224,142.808 538.648,143.104 
			540.489,143.369 541.971,143.6 543.5,143.918 545.3,144.319 547.911,144.968 548.093,145.097 551.205,146.046 552.063,146.382 
			553.104,146.848 556.039,147.891 557.444,148.615 559.167,149.51 560.708,150.276 562.343,151.218 563.889,152.207 
			565.847,153.544 566.394,153.932 568.399,155.357 569.399,155.958 570.492,156.735 570.81,156.905 572.497,158.159 
			572.544,158.248 574.326,159.678 574.784,160.114 576.336,161.326 576.701,161.585 578.441,163.151 579.676,164.193 
			581.046,165.276 582.739,166.754 584.068,167.972 585.949,169.803 588.201,172.116 589.394,173.293 592.151,176.13 
			592.61,176.566 593.762,177.878 595.331,179.762 595.978,180.55 597.641,182.61 599.916,185.817 600.01,185.994 600.057,186.082 
			600.151,186.259 601.843,189.436 603.159,191.907 603.535,192.614 603.958,193.408 605.128,195.391 605.974,196.98 
			606.585,198.127 607.425,199.492 607.942,200.463 609.205,202.623 609.346,202.888 610.616,205.271 611.503,206.724 
			612.625,208.619 613.701,210.426 614.735,212.367 615.528,213.644 616.839,215.892 		">
		</polygon>
	</g>
</g>
<g id="Layer_1">
</g>
</svg>
