<?xml version="1.0" encoding="iso-8859-1"?>
<!-- Generator: Adobe Illustrator 19.2.1, SVG Export Plug-In . SVG Version: 6.00 Build 0)  -->
<svg version="1.1" xmlns="http://www.w3.org/2000/svg" xmlns:xlink="http://www.w3.org/1999/xlink" x="0px" y="0px"
	 viewBox="0 0 841.89 595.28" style="enable-background:new 0 0 841.89 595.28;" xml:space="preserve">
<g id="layer202">
	<g id="layer202_1_" slic3r:z="8.10000000000006e-005">
		<polygon slic3r:type="contour" style="fill:#FFFFFF;stroke:#000000;stroke-miterlimit:10;" points="235.47,357.131 
			236.715,360.32 236.997,360.849 238.013,363.821 238.207,364.397 238.166,364.532 239.129,367.192 239.716,369.145 
			240.15,370.387 240.92,372.469 241.407,374.023 241.695,374.776 242.752,377.612 243.275,378.806 243.903,380.624 
			244.971,383.907 245.018,383.995 245.066,384.084 246.099,387.725 246.498,389.326 246.914,391.597 247.283,393.779 
			247.347,394.538 247.674,398.556 247.733,399.091 247.791,399.626 247.995,404.05 248.082,405.703 248.069,406.956 
			247.933,408.615 247.915,409.644 247.885,410.227 247.513,413.144 247.394,413.773 246.84,416.561 246.733,417.638 
			246.114,419.667 245.666,421.378 245.336,422.46 244.417,424.989 244.293,425.395 243.751,426.93 242.909,428.965 
			242.614,429.688 242.066,430.999 241.689,431.993 240.841,433.805 240.37,434.622 239.398,436.839 238.632,438.38 
			238.255,439.374 237.024,441.955 235.97,444.443 235.929,444.578 234.444,447.748 234.444,447.748 234.315,447.93 
			233.213,450.329 232.666,451.641 231.947,453.27 231.057,455.216 230.969,455.263 230.757,455.716 229.52,458.074 229.096,458.98 
			226.57,463.384 226.052,464.113 226.011,464.249 225.881,464.431 225.663,464.66 223.762,467.259 222.331,469.04 221.03,470.64 
			219.341,472.786 218.905,473.244 217.604,474.843 217.169,475.302 216.821,475.714 215.603,477.042 214.597,477.918 
			212.672,479.623 212.366,479.899 211.754,480.452 211.007,480.963 209.112,482.085 208.364,482.597 206.911,483.484 
			204.751,484.747 203.827,485.353 202.327,486.152 201.533,486.575 200.385,487.186 198.396,488.132 197.778,488.461 
			195.343,489.418 195.343,489.418 195.254,489.465 192.771,490.334 190.642,491.015 189.8,491.35 189.665,491.309 189.4,491.45 
			186.241,492.113 183.482,492.676 182.858,492.781 182.011,492.892 180.005,493.168 178.04,493.308 175.493,493.418 
			174.687,493.394 174.328,493.358 173.117,493.21 170.293,493.015 168.723,492.831 166.658,492.571 165.176,492.341 
			162.929,491.951 161.624,491.627 159.553,491.143 158.295,490.907 156.807,490.453 154.778,489.835 153.695,489.505 
			150.72,488.597 147.697,487.601 146.479,487.23 143.497,486.098 142.233,485.639 141.827,485.515 139.928,484.714 
			137.893,483.871 137.44,483.659 135.811,482.941 133.547,481.88 132.824,481.586 131.33,480.909 129.154,479.801 127.249,478.777 
			125.391,477.84 123.58,476.992 121.357,475.797 118.217,473.73 117.535,473.3 117.441,473.124 117.164,472.818 114.548,470.245 
			113.62,468.927 111.287,465.185 110.493,463.908 110.117,463.202 109.324,461.925 107.214,458.176 105.44,455.269 
			104.464,453.863 101.796,449.279 101.144,448.267 100.398,447.078 99.493,444.954 98.265,442.435 96.99,439.829 95.764,435.61 
			95.805,435.475 95.758,435.387 95.758,435.387 95.752,435.163 95.078,431.557 95.055,430.663 94.996,430.128 94.856,428.163 
			94.904,426.551 94.893,426.104 94.948,423.016 95.078,421.134 95.385,419.157 95.71,417.852 95.904,416.728 96.223,415.199 
			96.83,412.723 97.155,411.417 98.304,407.406 98.511,406.73 98.552,406.594 98.634,406.324 99.624,403.077 100.208,401.407 
			100.921,399.555 101.799,397.161 102.347,395.85 103.531,393.18 103.743,392.727 103.996,392.139 104.844,390.328 
			105.869,388.422 106.21,387.787 107.37,385.923 107.93,385.059 108.842,384.007 110.396,381.819 110.526,381.637 110.655,381.455 
			112.127,379.538 113.434,378.162 114.305,377.245 116.182,375.452 117.76,374.159 120.255,372.037 122.315,370.374 
			123.851,369.216 126.393,367.182 127.929,366.024 130.207,364.131 130.472,363.99 132.673,362.592 133.332,362.127 
			135.45,360.999 139.193,358.666 139.281,358.619 139.369,358.572 143.683,355.822 144.124,355.587 145.536,354.835 
			147.519,353.665 148.137,353.336 150.562,351.932 151.885,351.227 153.474,350.381 155.416,349.347 156.387,348.83 
			158.947,347.467 159.3,347.278 160.582,346.709 162.306,345.904 162.748,345.669 165.313,344.529 167.349,343.672 
			168.014,343.431 168.679,343.19 171.032,342.503 173.121,341.957 174.944,341.553 176.992,341.142 180.463,340.427 
			180.551,340.38 180.551,340.38 180.774,340.374 183.804,339.893 186.257,339.607 186.657,339.507 189.916,339.244 
			190.228,339.191 192.416,339.046 193.352,338.887 193.575,338.882 196.169,338.86 197.869,338.861 199.752,338.991 
			201.993,339.157 202.981,339.311 205.093,339.659 205.904,339.907 207.657,340.22 209.774,340.792 211.08,341.116 
			212.885,341.741 215.232,342.53 215.503,342.613 218.755,343.826 219.66,344.251 222.871,345.6 223.642,345.982 224.047,346.106 
			226.541,347.384 227.723,348.114 228.952,348.933 229.363,349.28 230.416,350.192 231.562,351.281 232.391,352.199 
			233.596,353.824 233.825,354.042 234.06,354.483 235.094,356.425 		">
		</polygon>
		<polygon slic3r:type="contour" style="fill:#FFFFFF;stroke:#000000;stroke-miterlimit:10;" points="624.635,183.303 
			626.004,186.086 626.715,187.634 627.566,189.446 628.653,191.699 629.417,193.559 629.987,194.841 630.086,195.242 
			630.28,195.818 631.76,199.448 633.193,202.99 633.334,203.255 633.381,203.344 633.475,203.52 634.632,206.756 635.02,207.909 
			635.971,210.122 636.653,212.251 638.227,216.058 638.326,216.458 638.42,216.635 639.724,220.359 640.676,222.572 
			640.869,223.148 641.738,225.631 642.079,226.696 642.848,228.779 643.377,230.197 643.905,231.615 644.387,232.944 
			645.203,235.115 645.638,236.357 646.255,237.728 646.83,239.234 647.171,240.299 647.652,241.629 648.422,243.712 
			649.238,245.883 649.949,247.43 650.43,248.76 650.865,250.001 651.111,250.89 651.364,252.002 651.557,252.578 652.314,255.914 
			652.461,256.402 652.631,257.785 652.994,259.744 652.976,260.773 653.116,262.738 653.091,265.244 653.008,265.514 
			653.014,265.738 652.624,267.985 651.994,269.567 651.829,270.108 650.722,272.284 650.039,273.554 649.003,275.012 
			648.308,275.835 646.607,277.534 645.995,278.087 645.777,278.316 643.635,280.25 641.581,282.137 641.492,282.184 
			641.492,282.184 639.297,283.806 636.973,285.61 636.708,285.751 636.667,285.887 636.137,286.169 633.636,288.067 
			632.888,288.579 630.693,290.201 628.675,291.729 628.675,291.729 626.874,293.028 626.303,293.445 624.985,294.374 
			624.061,294.979 622.607,295.866 621.066,296.801 620.448,297.13 618.73,298.158 617.582,298.769 615.111,300.085 614.669,300.32 
			614.052,300.649 611.221,301.93 608.309,303.481 608.044,303.622 607.426,303.951 605.172,305.038 604.29,305.508 
			602.389,306.407 600.754,307.165 599.559,307.688 597.523,308.545 596.547,308.839 594.376,309.655 592.293,310.424 
			589.986,311.199 587.545,311.933 585.903,312.468 582.391,313.318 582.391,313.318 582.391,313.318 579.273,313.846 
			576.914,314.309 575.667,314.52 574.549,314.549 571.249,314.947 568.302,315.157 567.319,315.227 563.025,315.248 
			562.802,315.254 562.713,315.301 559.849,315.24 558.102,315.151 558.013,315.198 554.878,315.055 553.714,314.995 
			550.172,314.728 550.084,314.775 550.037,314.687 546.584,314.373 545.461,314.178 543.667,314.001 542.949,313.93 
			540.297,313.416 540.209,313.463 540.026,313.334 537.421,312.909 535.756,312.549 534.721,312.307 534.227,312.23 
			531.304,311.634 530.674,311.516 528.245,310.997 527.704,310.832 526.04,310.472 524.464,310.065 522.57,309.488 521.258,308.94 
			518.865,308.062 517.959,307.638 515.466,306.36 514.372,305.583 511.415,303.646 510.774,303.081 508.122,300.867 
			506.882,299.602 505.553,298.383 504.542,297.336 503.713,296.418 502.743,295.235 502.044,294.134 500.833,292.286 
			500.457,291.58 500.269,291.227 499.84,290.209 498.842,287.909 498.46,286.979 498.067,285.602 497.809,284.267 497.445,282.308 
			497.294,279.896 497.218,278.69 497.189,277.572 497.261,275.155 497.451,272.108 497.564,271.255 497.687,270.849 
			497.876,269.502 498.142,267.661 498.62,265.367 498.779,264.603 498.862,264.332 499.145,263.162 499.582,261.003 499.7,260.374 
			500.101,258.574 500.296,257.451 500.432,255.792 500.445,252.839 500.487,252.704 500.487,252.704 499.924,249.945 
			499.583,248.88 498.038,246.191 497.85,245.837 497.479,245.355 495.733,243.566 494.14,242.488 493.775,242.229 491.87,241.204 
			490.329,240.439 488.571,239.902 486.136,239.16 485.324,238.912 483.389,238.47 482.396,238.093 481.766,237.975 
			479.067,237.373 477.673,237.096 475.02,236.582 474.614,236.459 474.479,236.417 473.85,236.299 470.521,235.58 469.756,235.42 
			467.774,234.89 466.874,234.689 465.433,234.324 462.416,233.551 462.01,233.427 461.246,233.268 458.905,232.702 
			457.058,232.213 456.246,231.965 455.076,231.682 453.682,231.405 451.206,230.797 450.035,230.514 447.918,229.942 
			446.795,229.748 446.118,229.541 443.372,228.851 440.49,228.12 439.949,227.955 438.778,227.672 436.661,227.1 435.761,226.9 
			433.144,226.028 430.803,225.461 429.133,224.878 425.169,223.817 425.034,223.776 424.357,223.569 421.111,222.579 
			420.482,222.461 419.399,222.131 417.1,221.43 416.065,221.188 413.547,220.716 413.142,220.592 412.242,220.391 410.083,219.955 
			407.336,219.265 407.066,219.182 406.478,218.929 404.261,217.957 402.626,217.015 400.98,215.626 399.422,214.189 
			398.634,213.136 397.888,211.947 397.113,209.641 396.972,209.376 396.966,209.153 396.509,207.017 396.421,205.364 
			396.416,205.14 396.536,201.111 396.536,201.111 396.536,201.111 397.103,197.07 397.185,196.8 397.87,193.83 398.365,192.206 
			399.113,189.995 400.209,187.372 400.804,186.149 401.699,184.426 402.5,182.527 403.442,180.892 404.384,179.257 
			405.591,177.481 405.633,177.346 405.633,177.346 407.446,174.794 407.923,174.2 408.947,172.295 410.013,170.255 
			410.055,170.119 410.184,169.937 410.178,169.714 411.239,167.449 411.998,165.685 413.53,162.604 414.519,161.057 
			415.037,160.328 416.421,158.459 417.156,157.5 417.934,156.406 418.281,155.995 418.669,155.448 421.224,152.161 
			421.442,151.932 421.53,151.885 422.572,150.65 423.179,149.874 424.132,148.687 424.692,147.822 425.039,147.411 
			425.687,146.499 426.687,145.4 427.6,144.348 428.077,143.754 429.083,142.878 430.955,140.861 431.826,139.944 432.002,139.85 
			435.981,136.259 436.681,135.659 437.776,134.736 440.23,132.749 442.472,131.216 444.497,129.911 447.404,128.136 448.11,127.76 
			448.728,127.431 452.211,125.463 452.299,125.416 452.299,125.416 454.377,124.423 455.524,123.812 456.765,123.377 
			458.136,122.76 459.554,122.232 461.855,121.233 462.696,120.898 463.496,120.699 466.332,119.642 468.55,118.914 
			469.792,118.479 472.322,117.698 473.034,117.546 475.787,116.759 476.499,116.607 476.675,116.513 476.987,116.46 
			479.746,115.897 482.282,115.34 482.906,115.234 483.706,115.035 486.024,114.707 487.983,114.343 489.318,114.085 
			490.789,113.868 492.618,113.687 494.136,113.559 496.148,113.507 498.607,113.444 500.083,113.451 502.142,113.487 
			504.783,113.553 506.53,113.643 508.948,113.715 510.83,113.845 512.312,114.076 515.277,114.536 516.041,114.696 
			519.105,115.556 519.376,115.639 520.458,115.969 523.211,116.882 523.663,117.094 524.116,117.306 527.592,118.514 
			528.045,118.726 528.633,118.98 530.985,119.993 533.061,120.7 534.331,121.383 536.595,122.443 538.089,123.121 540.624,124.264 
			541.529,124.688 542.253,124.982 544.564,126.131 545.563,126.731 548.504,127.998 549.321,128.469 551.485,129.129 
			553.338,129.842 554.373,130.084 556.767,130.962 558.343,131.368 559.919,131.775 560.325,131.899 561.137,132.147 
			562.672,132.689 563.124,132.901 563.848,133.195 566.429,134.426 567.652,135.021 570.181,135.94 571.222,136.406 
			572.304,136.736 573.798,137.413 575.156,138.049 576.062,138.473 578.732,139.657 578.732,139.657 578.732,139.657 
			581.907,141.365 582.178,141.448 585.271,143.426 587.405,144.668 589.222,145.74 591.91,147.595 593.003,148.372 595.878,150.58 
			596.884,151.404 599.535,153.617 600.817,154.747 603.063,156.837 604.762,158.538 606.596,160.28 609.077,162.811 
			609.582,163.335 610.823,164.6 611.928,165.825 612.757,166.743 614.32,168.403 615.008,169.056 616.895,171.11 617.036,171.375 
			617.359,171.769 618.747,173.523 619.211,174.182 620.704,176.559 621.82,178.231 623.042,180.525 624.541,183.126 		">
		</polygon>
	</g>
</g>
<g id="Layer_1">
</g>
</svg>
