<?xml version="1.0" encoding="iso-8859-1"?>
<!-- Generator: Adobe Illustrator 19.2.1, SVG Export Plug-In . SVG Version: 6.00 Build 0)  -->
<svg version="1.1" xmlns="http://www.w3.org/2000/svg" xmlns:xlink="http://www.w3.org/1999/xlink" x="0px" y="0px"
	 viewBox="0 0 841.89 595.28" style="enable-background:new 0 0 841.89 595.28;" xml:space="preserve">
<g id="layer231">
	<g id="layer231_1_" slic3r:z="9.26000000000008e-005">
		<polygon slic3r:type="contour" style="fill:#FFFFFF;stroke:#000000;stroke-miterlimit:10;" points="765.21,204.741 
			766.156,206.73 766.367,207.977 766.595,209.895 766.642,209.983 766.723,213.113 766.728,213.336 766.544,216.607 
			766.473,217.325 766.166,219.301 766.048,219.93 765.806,220.965 765.482,222.271 765.146,223.13 764.822,224.435 
			764.439,225.206 764.274,225.747 763.85,226.652 762.795,229.14 762.624,229.458 762.583,229.593 761.217,232.133 
			760.404,233.586 759.503,235.085 758.82,236.355 757.961,237.719 756.883,239.313 755.329,241.5 754.852,242.094 754.204,243.005 
			753.127,244.599 752.438,245.645 751.267,247.062 749.359,249.438 749.271,249.485 749.271,249.485 747.275,251.907 
			746.969,252.183 745.315,253.971 743.614,255.669 742.655,256.634 742.002,257.321 740.607,258.744 740.083,259.25 
			738.335,260.86 737.681,261.548 737.464,261.777 735.186,263.67 734.88,263.947 733.079,265.245 730.931,266.956 730.448,267.326 
			729.966,267.696 727.5,269.236 726.4,269.935 724.505,271.058 723.799,271.434 723.181,271.763 721.369,272.615 719.339,273.696 
			718.986,273.884 718.809,273.978 718.232,274.172 715.797,275.129 714.555,275.564 711.584,276.579 709.095,277.225 
			707.807,277.571 705.406,278.17 704.518,278.416 703.671,278.527 700.871,279.226 697.847,279.93 697.135,280.082 
			696.023,280.335 693.134,281.08 692.334,281.279 691.493,281.614 688.386,282.589 687.586,282.788 686.921,283.029 
			683.332,284.374 683.244,284.421 683.244,284.421 679.172,286.136 678.996,286.23 676.077,287.558 675.989,287.605 
			673.688,288.603 670.993,289.925 670.552,290.16 670.199,290.348 667.592,291.623 664.15,293.456 664.15,293.456 664.15,293.456 
			664.15,293.456 660.755,295.378 660.402,295.566 658.331,296.782 656.524,297.858 655.2,298.563 653.129,299.779 651.322,300.854 
			649.516,301.93 647.362,303.417 647.362,303.417 647.273,303.464 645.202,304.68 644.408,305.103 642.731,305.996 
			641.719,306.649 639.471,307.959 639.118,308.147 638.941,308.241 637.794,308.852 635.234,310.215 634.881,310.403 
			632.104,311.996 631.839,312.137 630.733,312.613 628.567,313.652 627.949,313.981 625.078,315.397 624.06,315.826 
			621.453,317.101 620.924,317.383 619.288,318.141 617.429,318.904 616.811,319.233 613.622,320.479 611.851,321.195 
			609.592,322.058 606.803,323.204 605.473,323.685 601.754,325.213 601.089,325.453 597.236,326.939 596.794,327.174 
			596.659,327.133 596.571,327.18 596.306,327.321 593.117,328.566 591.476,329.1 590.281,329.623 589.128,330.011 586.604,331.015 
			584.921,331.685 583.591,332.166 582.085,332.742 580.755,333.223 578.008,334.233 576.854,334.621 572.73,336.024 
			572.595,335.983 572.154,336.218 568.247,337.392 567.447,337.592 563.893,338.578 562.293,338.977 559.493,339.675 
			556.869,340.279 555.31,340.543 552.551,341.106 550.591,341.47 549.656,341.628 546.715,342.061 546.491,342.067 
			546.315,342.161 543.15,342.6 542.255,342.623 539.849,342.998 539.314,343.057 539.002,343.11 536.461,343.443 534.814,343.754 
			533.743,343.871 531.337,344.246 531.249,344.293 531.249,344.293 528.795,344.58 527.013,344.849 525.095,345.078 
			523.666,345.159 522.642,345.364 520.677,345.504 519.695,345.574 518.754,345.509 517.636,345.538 515.401,345.595 
			514.236,345.536 510.207,345.416 509.983,345.421 509.76,345.427 505.595,345.266 505.595,345.266 505.548,345.177 
			501.695,344.963 500.531,344.904 496.948,344.772 494.889,344.736 492.919,344.652 490.501,344.58 489.472,344.562 
			488.89,344.532 485.396,344.353 484.366,344.335 484.231,344.294 482.619,344.246 480.602,344.074 480.29,344.127 
			477.825,343.967 475.99,343.924 474.108,343.794 472.361,343.704 469.631,343.685 469.049,343.655 468.196,343.543 
			465.69,343.518 464.749,343.453 462.108,343.386 459.643,343.226 458.161,342.996 456.591,342.812 454.885,342.588 
			454.391,342.511 452.456,342.069 451.197,341.833 448.903,341.355 448.768,341.314 448.274,341.237 446.068,340.712 
			445.71,340.676 443.28,340.157 443.01,340.075 442.292,340.004 440.581,339.556 439.863,339.485 436.764,338.983 436.628,338.941 
			436.134,338.865 433.981,338.652 432.905,338.545 430.976,338.326 429.811,338.267 426.047,338.006 425.823,338.011 
			425.688,337.97 422.105,337.838 419.064,337.872 418.482,337.842 418.211,337.76 417.764,337.771 416.558,337.847 
			414.188,337.863 412.67,337.992 411.064,338.167 410.393,338.184 410.082,338.237 407.228,338.624 404.428,339.322 
			403.804,339.427 403.316,339.574 401.851,340.014 400.563,340.361 397.633,341.241 397.633,341.241 393.773,342.504 
			393.332,342.739 390.584,343.749 389.39,344.271 387.219,345.088 384.653,346.227 384.253,346.327 383.235,346.756 
			381.064,347.572 380.711,347.76 380.046,348.001 377.481,349.141 377.216,349.282 376.728,349.428 373.898,350.709 
			372.485,351.461 369.79,352.783 368.643,353.394 366.172,354.71 364.983,355.457 363.041,356.491 359.911,358.271 
			359.646,358.412 359.381,358.553 356.692,360.099 354.444,361.409 354.444,361.409 352.149,362.631 351.314,363.19 
			349.419,364.312 347.171,365.622 346.865,365.899 346.423,366.134 344.487,367.391 343.128,368.455 342.469,368.919 
			341.768,369.519 340.633,370.577 338.885,372.188 338.578,372.464 338.361,372.693 336.613,374.304 335.218,375.727 
			334.823,376.05 334.476,376.462 332.728,378.072 330.068,380.735 329.979,380.782 329.85,380.965 327.713,383.122 
			326.189,384.727 326.012,384.821 325.794,385.05 324.623,386.467 323.928,387.29 323.145,388.161 321.715,389.942 
			321.674,390.077 321.456,390.307 319.383,393.223 317.658,395.728 316.54,397.457 315.633,398.732 313.396,402.19 
			313.137,402.555 312.707,403.237 311.376,405.418 310.817,406.283 310.175,407.417 309.704,408.235 309.315,408.782 
			308.373,410.416 307.731,411.551 306.83,413.051 305.759,414.868 305.07,415.914 303.868,417.914 303.786,418.184 
			303.745,418.319 302.326,420.548 301.466,421.912 300.695,423.229 299.535,425.093 299.446,425.14 299.493,425.229 
			297.603,428.274 297.138,429.315 296.838,429.815 295.136,433.214 295.136,433.214 295.094,433.349 294.458,434.708 
			294.246,435.161 292.668,438.154 292.032,439.512 291.472,440.377 290.831,441.512 290.66,441.829 289.888,443.146 
			289.635,443.734 289.335,444.234 288.087,446.145 287.186,447.645 286.932,448.233 286.544,448.78 286.196,449.191 
			284.601,451.514 283.912,452.56 283.523,453.107 283.264,453.472 282.658,454.248 281.881,455.341 281.016,456.482 
			280.586,457.164 280.368,457.393 279.155,458.946 277.554,461.045 277.295,461.409 277.165,461.591 274.952,464.243 
			273.781,465.66 273.174,466.436 271.173,468.635 270.26,469.687 270.307,469.776 270.219,469.823 268.871,471.333 
			267.741,472.615 266.829,473.668 265.439,475.314 264.48,476.278 263.874,477.054 263.309,477.695 261.525,479.664 
			260.701,480.67 260.265,481.128 259.741,481.634 257.999,483.468 256.127,485.484 256.086,485.62 255.91,485.714 254.95,486.678 
			252.466,489.247 251.984,489.617 251.636,490.029 250.153,491.499 248.929,492.604 248.535,492.927 247.31,494.032 
			245.91,495.231 243.85,496.895 243.585,497.036 243.455,497.218 242.532,497.823 240.643,499.169 240.16,499.539 237.871,500.985 
			235.623,502.296 234.829,502.719 234.387,502.954 231.251,504.511 230.898,504.699 227.491,506.173 227.226,506.314 
			223.373,507.8 222.396,508.093 219.383,509.245 218.895,509.391 217.607,509.738 216.277,510.219 215.789,510.366 
			212.988,511.064 212.988,511.064 212.988,511.064 210.1,511.809 208.588,512.161 206.764,512.566 204.716,512.977 
			203.069,513.288 200.039,513.768 199.951,513.815 199.863,513.862 196.922,514.296 195.627,514.418 194.021,514.594 
			191.703,514.922 190.586,514.951 187.774,515.202 187.015,515.266 184.827,515.412 184.515,515.464 182.815,515.463 
			181.697,515.492 180.268,515.574 177.403,515.513 176.733,515.53 176.374,515.495 172.527,515.504 171.138,515.45 
			169.215,515.455 168.003,515.307 167.78,515.313 166.615,515.254 164.868,515.164 163.615,515.152 162.674,515.086 
			158.639,514.743 157.921,514.672 156.845,514.565 155.498,514.376 154.286,514.228 152.492,514.051 151.281,513.903 
			149.934,513.714 147.822,513.366 145.799,512.97 144.899,512.77 143.099,512.369 142.693,512.245 140.894,511.844 
			140.041,511.732 138.329,511.283 136.841,510.83 136.212,510.712 132.377,509.468 132.242,509.427 132.107,509.385 
			128.225,508.054 126.779,507.465 125.649,507.046 124.926,506.752 123.432,506.074 123.25,505.945 122.933,505.774 
			120.757,504.667 118.758,503.466 117.94,502.995 115.576,501.534 112.889,499.68 112.16,499.162 111.613,498.773 108.556,496.436 
			106.269,494.482 104.623,493.092 103.8,492.398 102.7,491.397 99.167,487.954 96.369,485.252 95.175,484.075 92.465,481.326 
			90.537,479.407 86.087,475.093 85.904,474.963 85.81,474.787 81.771,470.82 81.178,470.343 81.131,470.254 77.409,466.458 
			77.362,466.37 77.315,466.282 77.174,466.017 75.552,463.822 74.806,462.633 73.819,460.779 72.826,458.702 72.062,456.843 
			71.299,454.984 71.011,454.231 70.764,453.342 70.36,451.518 69.802,448.983 69.591,447.736 69.41,445.906 69.235,444.3 
			69.142,442.424 69.054,440.771 69.02,439.429 68.998,436.835 68.936,432.676 68.977,432.541 69.018,432.406 69.003,428.335 
			69.075,425.918 69.206,424.035 69.467,420.271 69.497,419.689 69.626,419.506 70.099,415.289 70.418,413.76 70.967,410.748 
			71.327,409.084 71.928,406.384 72.005,405.89 72.707,403.59 73.278,401.473 73.691,400.121 74.481,397.774 74.769,396.827 
			75.689,394.298 75.983,393.575 76.814,391.093 77.114,390.593 77.109,390.37 78.298,387.923 78.893,386.7 79.147,386.112 
			79.653,384.936 80.119,383.895 81.573,381.308 82.003,380.626 83.363,377.862 83.793,377.18 83.923,376.997 86.06,373.14 
			86.449,372.593 87.303,371.005 88.292,369.459 88.592,368.959 89.882,366.913 90.182,366.413 91.089,365.137 92.078,363.591 
			92.466,363.044 93.067,362.044 94.321,360.357 95.834,358.305 96.093,357.94 96.44,357.528 98.13,355.382 99.125,354.06 
			99.602,353.466 100.95,351.955 101.774,350.949 103.34,349.209 103.428,349.162 105.082,347.375 106.171,346.229 107.525,344.941 
			109.532,342.966 109.926,342.643 112.416,340.297 112.633,340.068 113.334,339.468 114.735,338.269 116.224,337.023 
			117.23,336.147 118.46,335.265 119.861,334.066 121.179,333.138 121.75,332.72 123.286,331.562 125.086,330.264 125.657,329.846 
			126.622,329.106 128.158,327.948 130.312,326.461 131.236,325.856 133.302,324.416 134.049,323.904 135.279,323.023 
			138.227,321.113 138.445,320.883 138.622,320.789 139.193,320.372 141.611,318.744 142.535,318.139 143.547,317.487 
			144.824,316.693 146.319,315.671 147.243,315.065 149.132,313.719 149.75,313.39 149.926,313.296 151.686,312.133 
			152.521,311.574 152.61,311.527 152.786,311.433 154.987,310.035 155.999,309.382 156.482,309.012 157.494,308.36 
			158.947,307.472 160.224,306.679 161.366,305.844 162.643,305.051 164.667,303.746 164.756,303.699 164.932,303.605 
			167.133,302.207 168.233,301.507 168.981,300.996 169.816,300.438 170.475,299.974 172.853,298.481 173.6,297.97 175.36,296.806 
			175.448,296.759 175.713,296.618 177.166,295.731 178.002,295.172 179.102,294.473 179.938,293.915 182.621,292.146 
			182.975,291.958 183.281,291.681 185.264,290.512 187.282,288.984 187.547,288.843 187.676,288.66 187.765,288.613 
			190.713,286.703 191.502,286.057 193.132,285.076 195.727,283.354 195.768,283.218 195.856,283.171 198.01,281.684 
			198.051,281.549 200.164,280.197 201.306,279.363 202.665,278.299 203.854,277.553 204.513,277.088 204.778,276.947 
			205.566,276.301 207.585,274.773 208.244,274.308 208.815,273.891 210.18,273.051 211.016,272.492 212.204,271.746 
			213.911,270.271 214.088,270.177 214.129,270.041 216.501,268.325 217.248,267.814 217.948,267.214 218.737,266.568 
			219.837,265.868 220.938,265.169 223.086,263.458 223.439,263.27 224.139,262.671 225.54,261.472 226.07,261.19 227.3,260.308 
			228,259.709 229.318,258.78 231.249,257.299 231.949,256.699 232.738,256.053 233.703,255.312 234.756,254.524 235.898,253.69 
			237.434,252.532 238.793,251.468 240.023,250.586 240.547,250.081 241.6,249.293 242.213,248.741 243.266,247.953 
			244.408,247.119 245.944,245.961 247.521,244.667 248.439,243.839 249.316,243.145 250.016,242.545 251.07,241.758 
			251.682,241.205 253.041,240.141 254.36,239.213 256.419,237.549 256.855,237.091 257.691,236.532 259.444,235.145 
			260.192,234.634 261.551,233.57 262.781,232.689 264.358,231.395 265.235,230.702 266.112,230.008 266.948,229.45 
			268.484,228.292 268.878,227.969 270.196,227.04 271.338,226.205 272.745,225.23 273.357,224.677 274.281,224.072 
			274.851,223.655 275.993,222.82 277.617,221.615 278.541,221.01 279.242,220.41 281.042,219.111 281.79,218.6 282.843,217.813 
			283.414,217.395 283.591,217.301 284.773,216.331 286.357,215.262 287.233,214.568 290.176,212.435 291.494,211.506 
			292.153,211.042 292.459,210.765 294.478,209.237 294.654,209.143 294.654,209.143 294.743,209.096 295.926,208.126 
			296.102,208.032 298.868,205.993 300.186,205.064 300.892,204.688 302.517,203.483 302.823,203.207 303.087,203.066 
			303.923,202.508 304.935,201.855 307.354,200.227 309.466,198.876 311.138,197.759 311.62,197.389 314.174,195.802 
			315.186,195.15 315.846,194.686 316.199,194.497 316.858,194.033 318.794,192.776 320.159,191.935 322.889,190.255 
			323.46,189.837 324.343,189.367 324.649,189.091 327.115,187.551 327.909,187.128 328.215,186.852 328.568,186.664 
			330.992,185.259 332.799,184.184 333.017,183.955 333.282,183.814 335.441,182.55 336.983,181.616 337.819,181.058 
			339.802,179.888 341.296,178.866 342.091,178.443 342.397,178.166 344.862,176.627 345.521,176.162 345.786,176.021 
			347.193,175.046 348.028,174.487 348.823,174.064 349.7,173.371 351.241,172.436 351.812,172.019 354.013,170.621 
			356.432,168.993 357.797,168.152 358.28,167.782 358.721,167.547 361.004,165.878 362.105,165.178 362.499,164.855 
			362.764,164.714 363.511,164.203 365.535,162.898 366.589,162.111 366.765,162.017 369.667,160.018 370.061,159.695 
			370.237,159.601 371.026,158.954 372.127,158.255 373.574,157.144 374.451,156.451 375.287,155.892 377.917,153.812 
			378.794,153.118 379.236,152.883 379.542,152.607 379.936,152.283 381.078,151.449 382.308,150.567 383.096,149.921 
			383.755,149.456 387.487,146.676 387.84,146.488 387.969,146.306 388.805,145.748 390.252,144.637 391.176,144.031 
			391.877,143.432 392.318,143.197 396.179,140.234 396.267,140.187 396.443,140.093 396.532,140.046 397.673,139.212 
			399.162,137.966 399.91,137.454 400.522,136.902 400.828,136.625 404.595,133.487 404.683,133.44 404.901,133.21 405.077,133.116 
			405.866,132.47 407.184,131.541 408.149,130.801 409.026,130.107 409.379,129.919 413.375,126.998 413.463,126.951 
			413.551,126.904 413.64,126.857 414.87,125.975 416.759,124.629 417.33,124.212 417.859,123.93 417.9,123.795 418.96,123.231 
			422.126,121.091 422.214,121.044 422.655,120.809 422.785,120.627 426.31,118.523 427.322,117.871 427.851,117.589 
			428.599,117.078 430.54,116.044 432.259,115.015 434.201,113.981 434.818,113.652 436.319,112.853 437.243,112.248 
			437.949,111.872 439.008,111.308 439.626,110.979 442.45,109.474 443.245,109.051 444.392,108.44 446.334,107.406 
			447.352,106.977 447.528,106.883 448.723,106.361 450.535,105.509 451.818,104.939 451.906,104.892 452.394,104.745 
			452.659,104.604 453.942,104.034 454.96,103.605 455.978,103.177 456.466,103.03 457.396,102.648 458.637,102.214 
			459.167,101.932 459.567,101.832 459.832,101.691 461.161,101.209 462.356,100.686 463.997,100.152 464.662,99.911 
			467.592,99.031 468.433,98.696 469.41,98.403 472.075,97.663 473.14,97.322 474.34,97.023 475.405,96.683 477.047,96.148 
			478.247,95.849 480.871,95.245 481.983,94.993 482.383,94.893 483.006,94.787 485.813,94.313 487.148,94.054 488.978,93.873 
			490.895,93.645 492.413,93.517 495.001,93.271 495.849,93.16 498.796,92.95 499.196,92.85 501.472,92.657 501.696,92.652 
			502.008,92.599 504.149,92.365 504.508,92.4 505.443,92.242 507.808,92.002 508.967,91.838 511.555,91.593 513.65,91.271 
			515.391,91.136 518.156,90.797 518.556,90.697 518.779,90.691 519.627,90.58 521.544,90.352 523.55,90.077 523.639,90.03 
			526.045,89.655 526.715,89.637 527.474,89.573 530.633,88.91 531.704,88.793 532.863,88.629 535.799,87.972 537.311,87.62 
			539.97,86.657 540.594,86.552 541.347,86.264 543.565,85.536 545.907,84.402 546.042,84.443 546.307,84.302 548.166,83.539 
			548.825,83.074 550.243,82.546 552.097,81.559 552.626,81.277 552.979,81.089 555.233,80.002 555.804,79.585 558.01,78.409 
			558.54,78.127 560.523,76.958 561.053,76.676 562.553,75.877 564.318,74.937 565.689,74.32 566.749,73.756 567.99,73.321 
			568.967,73.028 569.632,72.787 572.032,72.189 572.344,72.136 573.061,72.207 574.002,72.272 575.261,72.508 575.937,72.714 
			577.972,73.557 579.195,74.152 581.912,75.424 582.412,75.724 583.865,76.537 585.905,77.603 586.452,77.991 587.269,78.462 
			590.174,80.088 591.903,81.206 593.861,82.543 595.772,83.791 597.277,84.916 599.188,86.164 601.052,87.324 602.146,88.101 
			605.939,89.48 606.074,89.521 606.21,89.562 609.48,89.747 610.457,89.453 612.504,89.043 613.651,88.432 616.164,86.98 
			616.252,86.933 616.341,86.886 618.453,85.534 619.813,84.471 620.825,83.818 621.66,83.26 623.508,82.049 625.227,81.021 
			625.227,81.021 627.121,79.899 627.786,79.658 628.851,79.317 629.786,79.159 630.545,79.095 631.257,78.942 633.139,79.073 
			633.769,79.191 634.804,79.433 635.257,79.645 636.262,80.469 637.309,81.158 639.673,82.618 640.813,83.483 642.407,84.561 
			643.547,85.426 645.964,87.198 646.558,87.675 647.016,88.111 650.256,90.577 650.756,90.878 651.214,91.313 653.995,93.344 
			655.048,94.257 656.965,95.728 657.882,96.6 660.663,98.631 660.986,99.025 661.398,99.372 664.185,101.627 665.102,102.498 
			667.977,104.706 668.435,105.141 668.706,105.224 669.623,106.095 671.087,107.355 671.499,107.702 673.421,109.397 
			674.62,110.798 675.261,111.363 675.949,112.016 677.112,113.776 678.759,115.165 679.776,116.436 679.958,116.566 
			680.669,118.113 681.233,119.173 681.191,119.308 680.95,120.343 680.631,121.872 680.413,122.102 679.507,123.377 
			676.817,124.923 676.6,125.152 676.07,125.434 673.593,126.527 672.881,126.679 670.269,127.731 669.074,128.253 668.939,128.212 
			667.651,128.559 665.827,128.963 665.25,129.157 664.627,129.263 662.668,129.626 661.773,129.649 660.75,129.854 
			659.679,129.971 658.785,129.994 657.626,130.158 656.685,130.093 655.255,130.174 653.867,130.121 652.973,130.144 
			652.391,130.114 651.361,130.096 650.197,130.036 648.761,129.894 647.462,129.793 646.967,129.716 644.903,129.456 
			644.456,129.468 644.097,129.432 642.168,129.214 642.121,129.125 640.15,129.042 639.209,128.976 637.374,128.934 
			637.015,128.899 636.927,128.946 636.256,128.963 635.185,129.08 634.921,129.221 633.991,129.603 633.461,129.885 
			633.373,129.932 632.891,130.302 631.972,131.131 631.531,131.366 630.66,132.283 629.795,133.424 629.706,133.471 
			629.706,133.471 629.706,133.471 628.905,135.37 628.705,136.27 628.333,137.488 628.426,139.364 628.397,139.946 
			628.408,140.393 628.643,140.835 629.166,142.029 629.577,142.376 630.13,142.989 631.147,144.26 632.07,145.354 632.346,145.661 
			632.899,146.273 633.727,147.191 634.28,147.803 635.703,149.198 636.484,150.028 637.96,151.735 638.283,152.129 638.56,152.435 
			640.311,154.448 640.723,154.795 642.016,156.372 642.292,156.678 643.215,157.773 644.138,158.868 644.461,159.262 
			646.078,161.234 647.142,162.593 647.653,163.34 648.205,163.953 648.946,164.918 649.551,165.842 651.221,168.125 
			652.008,169.178 652.472,169.837 653.959,171.991 654.565,172.915 655.17,173.839 656.104,175.381 656.616,176.128 
			656.804,176.481 658.385,178.812 659.648,180.971 660.018,181.454 660.488,182.336 661.329,183.702 662.504,185.908 
			663.021,186.879 663.162,187.144 663.397,187.585 665.001,190.81 666.381,194.04 666.428,194.128 666.387,194.264 
			667.867,197.894 668.166,199.094 668.607,200.559 668.753,201.047 669.158,202.871 669.458,204.071 669.81,205.583 
			670.132,207.678 670.331,208.478 670.49,209.413 670.706,210.884 670.812,211.507 671.164,213.019 671.328,214.178 
			671.633,215.602 671.985,217.114 672.325,218.179 672.713,219.332 673.371,220.568 673.471,220.968 673.747,221.274 
			674.764,222.545 676.087,223.54 676.222,223.581 678.21,224.336 678.433,224.33 679.328,224.307 681.163,224.349 681.563,224.249 
			683.516,223.662 683.604,223.615 685.199,222.993 686.788,222.147 686.788,222.147 688.947,220.883 688.947,220.883 
			688.947,220.883 691.278,219.302 692.419,218.468 693.826,217.492 695.45,216.287 695.715,216.146 697.604,214.8 697.604,214.8 
			699.581,213.407 702.576,211.586 702.618,211.45 702.706,211.403 702.794,211.356 703.236,211.121 706.237,209.523 
			706.854,209.194 707.696,208.859 709.908,207.908 711.814,207.232 713.409,206.61 715.586,206.017 717.539,205.43 
			719.316,204.937 721.898,204.468 721.898,204.468 724.169,204.052 724.346,203.958 726.352,203.682 728.181,203.501 
			729.429,203.29 731.482,203.103 732.999,202.975 734.205,202.899 734.652,202.888 735.188,202.829 738.805,202.602 
			739.341,202.543 739.964,202.438 742.241,202.245 743.535,202.122 744.382,202.011 745.677,201.888 747.012,201.63 
			749.018,201.355 750.53,201.003 751.865,200.745 753.113,200.534 754.089,200.241 756.854,199.901 757.254,199.801 
			757.972,199.872 760.078,199.997 761.301,200.592 761.977,200.798 763.576,202.099 763.759,202.229 763.806,202.317 
			764.182,203.023 765.116,204.565 		">
		</polygon>
	</g>
</g>
<g id="Layer_1">
</g>
</svg>
