<?xml version="1.0" encoding="iso-8859-1"?>
<!-- Generator: Adobe Illustrator 19.2.1, SVG Export Plug-In . SVG Version: 6.00 Build 0)  -->
<svg version="1.1" xmlns="http://www.w3.org/2000/svg" xmlns:xlink="http://www.w3.org/1999/xlink" x="0px" y="0px"
	 viewBox="0 0 841.89 595.28" style="enable-background:new 0 0 841.89 595.28;" xml:space="preserve">
<g id="layer206">
	<g id="layer206_1_" slic3r:z="8.26000000000006e-005">
		<polygon slic3r:type="contour" style="fill:#FFFFFF;stroke:#000000;stroke-miterlimit:10;" points="251.821,340.605 
			252.538,342.376 252.732,342.953 252.873,343.218 253.842,346.101 254.429,348.054 254.91,349.384 255.556,351.872 
			255.855,353.073 255.955,353.473 256.853,357.073 256.905,357.385 257.557,360.097 257.609,360.409 258.114,362.633 
			258.824,365.88 258.976,366.592 259.17,367.169 259.874,370.193 260.361,371.746 260.661,372.946 260.772,373.793 
			261.329,376.329 261.482,377.041 261.763,379.27 261.938,380.876 262.248,384.224 262.306,384.759 262.312,384.982 
			262.345,388.024 262.368,388.918 262.421,389.229 262.46,392.494 262.489,393.612 262.333,398 262.339,398.224 262.304,398.582 
			262.084,402.212 261.83,404.5 261.794,404.859 261.64,405.847 261.38,407.911 261.304,408.405 260.89,411.458 260.825,412.399 
			260.388,414.558 260.064,415.863 259.527,417.622 259.038,419.469 258.62,420.598 257.07,424.709 257.07,424.709 257.07,424.709 
			257.029,424.844 254.956,429.46 254.107,431.272 252.753,434.259 252.24,435.212 251.692,436.523 250.461,439.105 
			248.418,443.139 248.206,443.591 247.823,444.362 245.909,448.214 245.226,449.484 244.036,451.93 243.441,453.153 
			243.317,453.559 241.775,456.193 241.18,457.417 240.579,458.416 239.342,460.774 238.747,461.997 238.447,462.497 
			237.847,463.497 236.522,465.902 236.097,466.808 236.009,466.855 235.362,467.766 235.061,468.266 235.02,468.401 
			233.501,470.23 232.854,471.141 232.377,471.735 230.993,473.604 230.993,473.604 230.905,473.652 229.692,475.204 
			228.697,476.527 226.661,479.084 226.531,479.267 224.965,481.007 222.746,483.435 222.658,483.482 222.311,483.893 
			221.699,484.446 221.216,484.816 219.68,485.974 218.632,486.985 218.191,487.22 217.838,487.408 214.978,489.271 
			214.713,489.412 214.184,489.694 212.371,490.546 210.694,491.439 209.147,492.15 208.129,492.579 207.817,492.632 
			206.711,493.107 204.452,493.971 203.522,494.353 202.416,494.828 201.527,495.075 200.327,495.374 197.132,496.396 
			196.644,496.542 196.332,496.595 195.844,496.742 193.355,497.387 192.508,497.499 189.573,498.156 188.637,498.314 
			188.414,498.32 187.79,498.425 184.849,498.859 183.69,499.023 181.995,499.245 181.548,499.257 180.119,499.338 177.395,499.542 
			177.125,499.46 176.813,499.513 174.307,499.488 172.784,499.393 170.054,499.373 169.113,499.308 168.666,499.32 
			167.813,499.207 165.749,498.947 164.043,498.723 162.919,498.528 161.708,498.38 159.549,497.943 157.708,497.678 
			157.079,497.56 154.156,496.964 154.02,496.922 153.885,496.881 150.644,496.114 150.103,495.949 148.256,495.46 146.545,495.012 
			144.381,494.352 142.893,493.898 139.558,492.955 139.423,492.913 139.24,492.784 135.365,491.676 135.365,491.676 
			134.959,491.552 131.618,490.385 131.166,490.173 130.489,489.967 127.913,488.959 126.649,488.5 124.885,487.74 122.891,486.762 
			121.356,486.22 120.268,485.667 119.498,485.284 118.134,484.424 117.134,483.823 116.634,483.523 114.765,482.14 
			112.889,480.533 112.613,480.227 112.384,480.009 111.049,478.567 110.115,477.025 109.744,476.542 109.233,475.795 
			107.776,473.059 106.154,470.864 104.326,467.645 102.881,465.356 101.341,462.89 100.031,460.642 99.008,459.148 96.551,455.811 
			95.252,454.01 94.282,452.827 93.119,451.068 93.072,450.979 92.978,450.803 92.22,449.167 91.462,447.531 91.268,446.955 
			90.875,445.578 90.441,444.337 89.601,441.271 89.501,440.871 89.402,440.471 89.343,439.936 89.233,437.389 88.84,436.012 
			88.771,433.33 88.789,432.3 88.815,428.094 88.856,427.959 88.809,427.871 89.247,424.012 89.501,421.724 89.484,421.054 
			90.252,416.113 90.334,415.842 90.417,415.572 90.494,415.078 91.202,411.302 91.609,409.726 91.815,409.049 92.222,407.473 
			92.422,406.573 92.629,405.897 93.33,403.597 93.866,401.839 94.362,400.215 94.862,398.816 95.652,396.469 96.365,394.617 
			97.113,392.405 97.791,390.912 99.358,387.471 99.44,387.201 99.611,386.883 100.883,384.166 101.649,382.626 102.42,381.309 
			104.398,378.216 104.569,377.898 105.005,377.44 107.13,374.835 108.778,372.824 109.561,371.954 110.856,370.131 
			111.286,369.449 111.551,369.308 112.469,368.479 113.999,367.098 114.57,366.681 116.453,365.111 117.766,363.959 
			119.037,362.942 121.444,360.867 121.75,360.591 121.88,360.409 125.352,357.993 126.8,356.882 129.307,355.207 130.054,354.696 
			132.914,352.833 134.585,351.716 137.839,349.53 139.205,348.69 141.623,347.062 142.942,346.133 144.436,345.111 
			145.713,344.317 146.814,343.618 148.002,342.872 148.885,342.402 150.65,341.461 151.309,340.997 152.586,340.204 
			153.734,339.593 154.44,339.217 154.881,338.982 156.958,337.989 156.958,337.989 158.9,336.955 159.518,336.626 161.813,335.404 
			162.566,335.116 163.713,334.505 164.908,333.982 166.679,333.265 167.697,332.837 169.732,331.979 170.75,331.55 
			172.168,331.022 174.428,330.158 176.063,329.4 177.617,328.913 179.211,328.291 179.964,328.003 181.918,327.416 
			183.341,327.111 185.912,326.195 187.024,325.942 189.596,325.026 190.307,324.874 192.926,324.046 193.149,324.04 
			193.637,323.893 195.638,323.395 197.197,323.131 198.62,322.826 199.379,322.762 202.144,322.422 203.303,322.258 
			203.527,322.252 203.927,322.153 207.327,322.155 208.309,322.085 211.533,322.181 211.98,322.169 215.568,322.525 
			216.015,322.513 216.103,322.466 216.15,322.554 219.291,322.921 220.191,323.121 221.673,323.352 223.696,323.747 
			224.955,323.983 226.037,324.313 228.419,324.744 231.66,325.511 232.066,325.635 232.472,325.758 235.624,326.572 
			238.376,327.485 238.647,327.568 239.235,327.821 241.405,328.705 241.952,329.094 243.951,330.295 244.18,330.513 
			246.191,332.161 246.879,332.814 247.573,333.691 248.495,334.786 249.189,335.663 249.518,336.28 249.941,337.075 
			251.252,339.323 		">
		</polygon>
		<polygon slic3r:type="contour" style="fill:#FFFFFF;stroke:#000000;stroke-miterlimit:10;" points="632.43,181.984 
			633.235,183.708 634.092,185.744 634.474,186.674 635.431,189.109 636.43,191.41 636.864,192.652 637.863,194.952 
			638.298,196.194 639.302,198.718 639.543,199.383 640.641,202.083 640.788,202.572 641.704,205.143 642.138,206.384 
			643.284,209.173 643.478,209.75 644.535,212.586 644.734,213.386 645.315,215.116 645.797,216.445 645.991,217.022 
			646.813,219.416 647.106,220.393 647.112,220.617 648.034,223.411 648.38,224.7 648.956,226.206 649.39,227.447 649.977,229.401 
			651.04,232.46 651.181,232.725 651.328,233.213 652.332,235.737 653.096,237.597 653.243,238.085 654.382,240.65 654.664,241.18 
			655.851,243.834 656.18,244.452 657.173,246.529 657.267,246.705 657.408,246.97 658.641,249.712 659.317,251.618 660.68,254.178 
			661.015,255.019 661.972,257.455 662.113,257.72 662.794,259.85 663.234,261.315 663.497,264.574 663.497,264.574 
			663.497,264.574 663.089,267.85 661.911,270.743 661.911,270.743 661.652,271.108 660.368,273.378 660.062,273.654 
			658.237,275.759 658.061,275.853 658.061,275.853 656.095,277.693 655.353,278.427 654.123,279.309 652.546,280.602 
			652.064,280.973 651.711,281.161 649.292,282.789 648.633,283.253 646.344,284.698 645.379,285.439 643.925,286.326 
			642.607,287.255 640.1,288.93 640.012,288.977 640.012,288.977 637.417,290.699 636.493,291.304 634.91,292.374 633.944,293.114 
			632.668,293.908 631.961,294.284 631.214,294.795 629.013,296.194 627.254,297.357 626.418,297.916 625.8,298.245 
			623.335,299.784 622.628,300.161 620.734,301.283 619.145,302.129 618.527,302.458 617.909,302.787 615.92,303.733 
			613.625,304.955 613.137,305.102 612.696,305.337 610.354,306.471 608.453,307.37 607.483,307.887 606.288,308.409 
			604.829,309.073 602.575,310.16 601.91,310.401 598.68,311.781 598.545,311.74 598.545,311.74 594.644,313.138 592.249,313.96 
			591.096,314.347 588.213,315.316 587.548,315.557 583.995,316.543 583.771,316.549 583.771,316.549 580.218,317.535 
			579.282,317.693 576.659,318.297 575.635,318.503 573.941,318.725 571.982,319.089 571.046,319.247 569.752,319.37 
			569.04,319.522 568.593,319.534 566.628,319.674 564.528,319.772 563.858,319.789 559.658,319.987 558.987,320.004 
			558.316,320.021 555.228,319.967 554.11,319.995 552.275,319.953 551.246,319.935 547.57,319.627 547.346,319.632 
			547.211,319.591 547.075,319.55 542.946,319.03 541.152,318.852 539.176,318.545 538.323,318.433 534.953,317.848 
			534.953,317.848 532.077,317.341 530.683,317.063 528.389,316.586 528.254,316.544 525.601,316.031 525.195,315.907 
			522.178,315.135 521.955,315.14 520.284,314.557 519.384,314.357 519.202,314.227 516.591,313.578 516.185,313.455 
			516.185,313.455 512.944,312.688 512.315,312.57 509.61,311.745 508.751,311.409 507.534,311.038 506.634,310.837 
			506.004,310.719 504.381,310.224 502.346,309.381 501.576,308.999 500.488,308.445 499.447,307.98 497.948,307.079 
			496.495,306.266 495.49,305.442 494.255,304.4 493.344,303.752 492.521,303.058 490.728,301.18 490.269,300.745 489.305,299.785 
			488.059,298.296 487.125,296.755 486.472,295.742 485.82,294.73 485.068,293.318 484.786,292.788 484.158,290.97 483.588,289.688 
			483.394,289.111 483.053,288.046 482.466,286.093 482.103,284.134 481.651,282.222 481.44,280.975 481.042,277.674 
			481.008,276.333 480.868,274.368 480.839,273.251 480.729,270.704 480.764,270.345 480.753,269.898 480.654,267.798 
			480.561,265.921 480.485,264.715 480.221,263.156 480.129,261.28 479.688,259.815 479.242,258.126 478.12,256.231 
			477.838,255.702 476.127,253.554 475.945,253.424 473.799,251.735 473.117,251.305 471.753,250.445 470.8,249.933 
			467.542,248.496 467.089,248.283 466.819,248.201 462.62,246.698 462.484,246.657 462.302,246.528 459.103,245.626 
			458.609,245.549 457.032,245.142 456.133,244.942 455.909,244.947 453.615,244.469 452.539,244.363 449.804,244.12 
			448.28,244.025 445.369,243.876 443.351,243.704 441.022,243.585 439.545,243.578 438.292,243.566 436.322,243.482 
			434.086,243.54 431.445,243.474 430.463,243.544 429.257,243.619 427.198,243.583 425.181,243.411 423.528,243.498 
			421.063,243.338 417.392,243.253 416.228,243.194 415.463,243.034 411.299,242.873 411.028,242.791 409.728,242.69 
			407.887,242.424 406.811,242.317 405.017,242.14 403.534,241.91 402.411,241.715 400.346,241.455 400.211,241.413 
			399.582,241.295 397.694,240.941 397.2,240.864 395.806,240.587 393.424,240.156 392.347,240.05 388.977,239.465 388.259,239.394 
			387.23,239.376 384.901,239.257 382.848,239.444 382.401,239.455 380.436,239.595 378.165,240.012 376.694,240.228 
			374.288,240.603 373.264,240.809 371.035,241.09 370.588,241.101 369.382,241.177 367.77,241.129 366.512,240.893 363.194,240.62 
			359.73,239.859 358.877,239.747 357.659,239.376 354.937,237.88 353.467,236.397 351.499,232.913 351.452,232.825 
			351.405,232.737 351.358,232.648 350.648,229.401 350.649,227.701 350.703,226.313 350.827,225.907 350.945,225.277 
			351.44,223.654 352.07,222.072 352.582,221.12 353.048,220.079 354.337,218.032 356.056,215.304 356.098,215.169 356.186,215.122 
			358.388,212.023 359.206,210.794 360.113,209.518 360.843,208.336 362.138,206.514 363.516,204.42 364.729,202.868 
			365.206,202.274 365.641,201.816 367.072,200.034 368.072,198.935 368.861,198.288 369.032,197.971 371.38,195.361 
			372.199,194.132 372.758,193.267 373.541,192.397 373.8,192.033 375.448,190.022 377.138,187.876 377.573,187.417 
			377.833,187.053 378.88,186.042 379.922,184.807 381.824,182.208 381.865,182.073 382.083,181.843 382.171,181.796 
			383.078,180.521 385.374,177.598 385.939,176.958 386.504,176.317 386.851,175.905 388.988,173.748 389.423,173.289 
			390.818,171.866 391.383,171.226 392.737,169.938 394.05,168.786 395.091,167.551 396.139,166.54 396.533,166.217 
			396.751,165.988 397.493,165.253 398.717,164.148 399.37,163.46 400.024,162.772 400.33,162.496 401.242,161.443 402.932,159.297 
			403.367,158.839 403.715,158.427 407.317,154.129 407.535,153.9 407.576,153.765 409.489,151.613 410.531,150.378 410.967,149.92 
			412.138,148.503 412.315,148.409 412.356,148.274 412.444,148.227 414.051,146.351 415.187,145.293 416.659,143.376 
			416.747,143.329 416.877,143.147 417.095,142.918 419.626,140.437 421.062,138.879 422.374,137.727 423.339,136.986 
			425.27,135.505 425.488,135.276 428.077,133.33 429.701,132.125 431.061,131.062 432.026,130.321 433.827,129.022 
			434.133,128.746 435.233,128.046 438.046,126.095 438.84,125.672 440.029,124.926 442.189,123.662 443.689,122.863 
			443.778,122.816 443.778,122.816 447.043,121.077 447.308,120.936 448.238,120.554 450.491,119.467 451.727,118.809 
			454.028,117.811 455.446,117.282 458.188,116.049 459.252,115.708 460.447,115.185 462.93,114.316 465.589,113.353 
			465.677,113.306 468.431,112.52 470.072,111.985 471.761,111.539 474.073,110.988 475.585,110.636 476.25,110.395 
			480.386,109.439 480.786,109.339 481.098,109.286 482.298,108.987 484.386,108.441 485.41,108.236 487.192,107.966 
			488.393,107.667 490.31,107.439 492.181,107.122 494.011,106.941 496.552,106.607 497.576,106.402 499.093,106.274 
			500.97,106.181 502.488,106.052 504.547,106.089 505.752,106.013 508.035,106.044 508.976,106.109 509.47,106.186 510.276,106.21 
			512.923,106.5 514.852,106.718 515.211,106.754 517.51,107.455 518.816,107.78 520.757,108.446 522.292,108.988 523.78,109.441 
			524.55,109.824 526.179,110.543 527.355,111.05 527.808,111.262 529.484,112.069 530.754,112.752 531.389,113.093 
			533.295,114.118 534.565,114.801 535.335,115.184 537.105,116.167 538.058,116.68 540.234,117.787 540.916,118.217 
			541.504,118.47 543.503,119.671 544.091,119.924 544.679,120.178 546.814,121.42 548.807,122.398 549.578,122.781 550.53,123.293 
			552.747,124.265 554.417,124.848 556.317,125.65 560.287,126.934 560.287,126.934 560.287,126.934 563.351,127.795 
			563.351,127.795 565.339,128.549 566.468,128.967 567.779,129.515 569.902,130.311 570.673,130.694 571.349,130.9 
			574.107,132.037 576.36,132.65 577.036,132.856 577.807,133.239 578.8,133.616 579.977,134.123 582.558,135.354 582.876,135.525 
			583.328,135.737 585.734,137.062 588.18,138.251 588.497,138.422 589.268,138.805 591.449,140.136 592.131,140.565 
			593.907,141.772 594.725,142.244 595.636,142.891 597.553,144.363 598.876,145.358 600.839,146.918 601.892,147.83 
			602.85,148.566 604.773,150.261 605.825,151.174 606.924,152.174 608.388,153.434 609.582,154.611 611.093,155.959 
			611.781,156.613 613.25,158.096 615.173,159.791 615.22,159.88 616.877,161.716 618.482,163.24 619.493,164.288 621.057,165.948 
			622.762,167.872 623.685,168.967 626.042,171.904 626.412,172.386 626.965,172.998 628.457,175.376 629.668,177.224 
			630.461,178.501 631.725,180.66 		">
		</polygon>
	</g>
</g>
<g id="Layer_1">
</g>
</svg>
