<?xml version="1.0" encoding="iso-8859-1"?>
<!-- Generator: Adobe Illustrator 19.2.1, SVG Export Plug-In . SVG Version: 6.00 Build 0)  -->
<svg version="1.1" xmlns="http://www.w3.org/2000/svg" xmlns:xlink="http://www.w3.org/1999/xlink" x="0px" y="0px"
	 viewBox="0 0 841.89 595.28" style="enable-background:new 0 0 841.89 595.28;" xml:space="preserve">
<g id="layer210">
	<g id="layer210_1_" slic3r:z="8.42000000000007e-005">
		<polygon slic3r:type="contour" style="fill:#FFFFFF;stroke:#000000;stroke-miterlimit:10;" points="733.764,232.705 
			734.198,233.946 734.462,235.505 734.432,236.087 734.448,238.458 734.372,238.952 733.982,241.199 733.817,241.74 
			732.986,244.222 732.615,245.439 731.855,247.203 730.954,248.703 730.695,249.067 729.965,250.249 729.141,251.255 
			728.97,251.572 728.193,252.666 727.151,253.901 726.933,254.13 725.061,256.146 724.796,256.287 722.301,258.409 
			721.948,258.597 721.465,258.968 718.652,260.919 716.816,262.577 716.286,262.859 714.439,264.069 713.909,264.351 
			713.733,264.445 711.338,265.267 708.778,266.631 708.643,266.589 707.672,267.106 705.813,267.87 705.678,267.829 
			705.413,267.97 703.059,268.657 701.859,268.956 701.371,269.103 699.677,269.325 699.453,269.331 699.053,269.431 
			696.994,269.394 695.388,269.57 692.847,269.903 691.776,270.02 691.241,270.079 688.076,270.518 687.988,270.565 
			687.811,270.659 685.393,270.587 684.005,270.533 683.111,270.556 680.705,270.931 680.705,270.931 678.117,271.177 
			676.875,271.611 675.369,272.187 674.175,272.71 672.144,273.791 671.791,273.979 669.985,275.054 669.767,275.283 
			668.178,276.129 666.46,277.158 665.93,277.44 665.36,277.857 663.465,278.979 660.999,280.519 660.911,280.566 660.911,280.566 
			658.31,282.065 657.08,282.946 655.58,283.745 653.555,285.05 652.984,285.467 652.72,285.608 650.872,286.819 650.607,286.96 
			650.519,287.007 648.271,288.317 647.918,288.505 647.035,288.975 644.787,290.286 642.763,291.59 641.574,292.337 
			640.868,292.713 638.097,294.529 637.302,294.952 635.19,296.303 632.283,298.078 631.577,298.454 631.447,298.636 
			631.094,298.824 627.746,300.834 627.04,301.21 624.615,302.615 624.309,302.891 621.838,304.207 620.425,304.959 618.26,305.999 
			617.113,306.61 616.054,307.174 613.712,308.308 612.164,309.019 609.734,310.2 608.94,310.623 608.187,310.911 605.709,312.003 
			602.567,313.337 602.479,313.384 602.479,313.384 599.378,314.582 597.031,315.492 596.013,315.921 593.042,316.937 
			592.465,317.13 592.289,317.224 588.829,318.387 588.517,318.44 585.811,319.315 584.922,319.561 584.834,319.608 
			581.369,320.547 580.481,320.794 577.592,321.539 575.545,321.95 573.586,322.313 570.115,323.029 569.267,323.14 
			567.532,323.498 565.661,323.814 564.99,323.831 563.608,324.001 562.002,324.177 558.967,324.434 558.208,324.498 
			557.625,324.468 552.843,324.636 552.261,324.606 551.59,324.623 548.814,324.516 548.008,324.492 546.084,324.496 
			544.29,324.319 542.767,324.224 541.555,324.076 539.449,323.951 537.161,323.697 536.173,323.543 534.197,323.236 
			532.626,323.053 532.132,322.976 531.056,322.87 529.032,322.474 526.786,322.085 526.292,322.008 524.762,321.689 
			523.01,321.376 522.38,321.258 519.904,320.651 518.287,320.379 516.487,319.978 513.787,319.377 513.111,319.17 510.958,318.957 
			510.641,318.786 509.382,318.55 508.529,318.438 506.464,318.178 502.829,317.735 502.741,317.782 502.741,317.782 
			502.741,317.782 502.606,317.74 500.359,317.351 498.789,317.168 498.789,317.168 496.765,316.772 494.877,316.418 
			494.066,316.171 492.401,315.811 490.737,315.451 489.472,314.991 487.661,314.143 484.174,312.488 483.856,312.317 
			483.586,312.235 482.039,311.246 479.811,309.827 479.446,309.567 476.8,307.578 475.93,306.795 475.101,305.877 473.173,303.958 
			472.574,303.257 471.927,302.469 469.982,299.879 468.348,297.237 467.701,296.449 467.037,294.989 465.998,292.824 
			465.375,291.23 464.799,289.723 463.866,286.482 463.62,285.593 463.567,285.281 463.309,283.946 462.64,280.563 462.447,279.987 
			462.288,279.051 461.819,276.469 461.567,275.357 461.162,273.533 460.558,270.909 460.364,270.332 460.123,269.667 
			459.301,267.273 458.214,265.019 458.026,264.666 457.885,264.401 456.493,262.424 454.788,260.5 454.606,260.37 454.559,260.282 
			454.241,260.111 452.695,259.122 452.106,258.868 450.477,258.15 449.219,257.914 447.466,257.601 446.39,257.494 
			444.866,257.399 444.196,257.417 442.272,257.421 440.484,257.467 438.784,257.466 437.043,257.6 435.39,257.688 431.419,258.103 
			431.107,258.156 430.972,258.114 430.883,258.161 427.048,258.618 424.283,258.957 423.836,258.969 420.753,259.138 
			420.218,259.196 418.341,259.289 417.759,259.259 416.418,259.294 415.524,259.317 413.465,259.28 411.542,259.285 
			409.841,259.284 407.783,259.247 406.218,259.288 404.965,259.275 402.459,259.25 398.971,259.295 398.165,259.271 
			397.63,259.329 394.906,259.534 392.983,259.538 392.447,259.597 389.323,259.901 386.07,260.387 385.4,260.404 384.688,260.557 
			380.946,261.19 378.722,261.694 376.857,262.234 375.345,262.586 374.057,262.933 372.904,263.32 372.504,263.42 371.792,263.573 
			368.109,264.741 366.332,265.234 364.555,265.727 363.178,266.12 359.36,267.247 359.272,267.294 359.184,267.341 
			359.184,267.341 354.3,268.809 353.9,268.909 353.235,269.149 350.929,269.925 348.493,270.882 348.358,270.841 348.27,270.888 
			347.652,271.217 344.992,272.18 344.728,272.321 341.674,273.607 340.527,274.218 338.714,275.07 337.567,275.681 
			335.225,276.815 333.989,277.473 332.312,278.366 331.294,278.795 329.394,279.694 328.776,280.023 326.828,280.833 
			326.34,280.98 324.081,281.844 322.663,282.372 320.18,283.241 318.938,283.676 316.191,284.686 315.349,285.021 313.002,285.931 
			311.496,286.506 310.566,286.888 309.148,287.417 307.595,287.904 305.118,288.997 303.435,289.666 300.652,291.035 
			300.251,291.135 299.898,291.323 296.674,292.927 296.233,293.162 295.309,293.767 293.938,294.384 293.096,294.719 
			290.79,295.494 289.725,295.834 288.931,296.257 286.677,297.344 286.012,297.585 285.441,298.002 283.323,299.13 
			281.305,300.659 280.645,301.123 280.163,301.493 278.026,303.651 277.897,303.833 275.989,306.208 275.86,306.391 
			275.73,306.573 274.011,309.301 273.239,312.318 273.156,312.589 273.074,312.86 272.695,315.553 272.43,317.394 272.435,317.618 
			272.352,319.588 272.281,320.306 272.257,321.112 272.337,324.241 272.36,325.136 272.523,327.994 272.552,329.112 
			272.862,332.459 272.932,333.442 273.101,334.824 273.283,336.654 273.569,339.107 273.728,340.042 274.043,343.613 
			274.096,343.925 274.235,347.59 274.282,347.678 274.269,348.931 274.379,351.478 274.385,351.701 274.501,354.472 
			274.476,356.978 274.529,357.29 274.585,361.225 274.561,362.031 274.507,363.419 274.512,365.343 274.528,367.713 
			274.574,369.502 274.521,370.89 274.532,371.337 274.544,371.784 274.618,374.69 274.682,375.449 274.74,377.684 274.722,378.713 
			274.785,381.172 274.725,382.337 274.695,384.619 274.676,385.649 274.617,386.813 274.551,387.755 274.456,389.278 
			274.367,391.025 274.225,392.46 274.012,394.613 273.817,395.736 273.645,397.754 273.569,398.248 273.179,400.495 
			273.02,401.259 272.518,404.359 272.435,404.63 272.246,405.977 271.886,407.641 271.804,407.912 271.073,410.794 
			270.878,411.917 270.224,414.305 269.852,415.522 269.28,417.64 268.573,419.716 267.99,421.386 267.448,422.921 267.283,423.462 
			266.776,424.638 265.256,428.167 264.75,429.343 263.006,432.877 262.582,433.783 262.029,434.87 260.068,438.634 
			258.495,441.851 257.729,443.391 256.969,445.156 255.356,448.508 254.119,450.866 252.8,453.494 251.009,456.94 250.197,458.393 
			249.561,459.751 247.729,463.332 245.933,466.555 245.12,468.007 244.473,468.919 241.829,472.252 241.7,472.435 240.964,473.393 
			240.876,473.44 240.788,473.487 239.181,475.362 238.492,476.409 236.496,478.831 236.496,478.831 236.496,478.831 
			235.366,480.113 235.107,480.478 232.187,483.505 231.404,484.375 231.316,484.422 229.609,485.898 227.861,487.508 
			227.644,487.738 227.467,487.832 225.537,489.313 223.077,491.076 222.635,491.311 221.488,491.922 219.328,493.186 
			218.622,493.562 216.104,494.79 214.421,495.459 213.139,496.029 211.721,496.557 209.95,497.274 207.778,498.09 207.69,498.137 
			205.69,498.636 204.89,498.836 201.024,499.875 201.024,499.875 201.024,499.875 197.824,500.673 196.712,500.925 
			194.665,501.335 193.417,501.546 189.499,502.273 189.188,502.326 188.429,502.39 185.576,502.777 184.593,502.847 
			183.434,503.011 181.917,503.139 180.622,503.262 179.952,503.279 178.834,503.308 177.628,503.384 177.134,503.307 
			174.763,503.323 172.705,503.287 171.452,503.274 168.093,503.137 167.511,503.107 165.134,502.9 163.252,502.769 
			162.893,502.734 162.399,502.657 159.393,502.332 158.764,502.214 156.7,501.953 155.353,501.764 152.747,501.339 
			152.253,501.262 151.759,501.186 148.518,500.419 148.248,500.336 148.024,500.342 144.783,499.576 142.984,499.174 
			142.443,499.009 140.055,498.355 139.378,498.149 137.308,497.665 136.179,497.247 135.685,497.17 133.25,496.427 
			131.897,496.015 130.498,495.514 128.286,494.766 127.563,494.471 124.675,493.516 124.675,493.516 124.54,493.475 
			121.87,492.291 121.194,492.085 118.842,491.072 117.889,490.559 115.349,489.193 114.984,488.934 114.619,488.675 
			112.479,487.209 112.115,486.95 110.739,485.643 109.446,484.066 108.617,483.148 108.2,482.577 106.666,480.335 104.803,477.475 
			104.338,476.816 103.322,475.544 100.483,471.278 99.096,469.524 97.427,467.241 95.793,464.599 92.977,461.226 92.143,460.085 
			90.855,458.731 90.068,457.678 89.004,456.318 88.91,456.142 88.54,455.659 87.881,454.423 87.834,454.335 86.695,451.77 
			86.783,451.723 85.767,448.751 85.433,447.91 85.221,446.663 84.758,444.304 84.4,442.568 84.154,441.68 83.984,440.297 
			83.856,438.78 83.721,437.038 83.651,436.056 83.659,432.88 83.656,429.256 83.597,428.721 83.68,428.45 83.662,427.78 
			83.941,424.686 84.113,422.668 84.414,420.468 84.567,419.48 84.745,417.686 84.816,416.968 84.934,416.339 85.324,414.092 
			85.672,411.981 85.831,411.216 86.362,409.234 86.958,406.311 87.164,405.635 87.494,404.552 88.201,402.476 88.443,401.441 
			89.197,399.453 90.111,396.701 90.441,395.619 90.647,394.943 91.684,391.784 91.979,391.061 92.226,390.249 93.617,386.903 
			94.259,385.768 94.506,384.957 95.107,383.957 95.495,383.41 96.002,382.234 96.909,380.958 98.281,378.641 99.647,376.101 
			99.776,375.919 101.16,374.049 102.066,372.773 103.108,371.538 103.797,370.492 105.145,368.981 106.016,368.064 
			107.058,366.829 108.1,365.594 108.754,364.907 110.496,363.072 112.638,361.138 113.25,360.586 114.692,359.251 115.522,358.469 
			115.828,358.193 117.665,356.535 118.324,356.071 119.683,355.007 121.608,353.303 121.873,353.162 122.22,352.75 
			124.062,351.316 124.898,350.758 126.345,349.647 128.058,348.395 128.717,347.93 130.476,346.767 130.476,346.767 
			132.059,345.697 132.719,345.233 133.949,344.351 135.443,343.329 135.885,343.094 136.72,342.535 137.821,341.836 
			138.744,341.231 139.933,340.484 140.992,339.92 142.358,339.08 146.018,337.017 146.106,336.97 146.106,336.97 146.194,336.923 
			150.778,334.256 153.732,332.569 154.656,331.964 156.598,330.93 157.698,330.23 158.846,329.619 160.787,328.585 
			161.405,328.256 163.965,326.893 164.495,326.611 164.671,326.517 167.319,325.107 168.025,324.731 170.143,323.603 
			170.938,323.18 172.615,322.287 173.056,322.052 174.515,321.388 175.31,320.965 175.663,320.777 177.699,319.919 
			179.028,319.438 181.235,318.262 182.165,317.881 184.683,316.653 185.083,316.553 185.436,316.365 187.778,315.231 
			190.161,313.962 190.249,313.915 190.826,313.721 193.344,312.493 193.609,312.352 194.139,312.07 196.222,311.301 
			197.51,310.955 199.24,310.373 199.905,310.133 202.123,309.405 203.141,308.976 206.071,308.095 207.312,307.661 
			209.618,306.886 210.107,306.739 212.06,306.152 213.301,305.717 214.637,305.459 215.925,305.113 218.014,304.567 
			219.079,304.227 221.256,303.634 222.409,303.246 224.409,302.748 225.739,302.266 227.427,301.82 228.845,301.291 
			230.446,300.892 231.999,300.405 233.599,300.006 235.105,299.431 236.753,299.12 238.306,298.632 240.041,298.275 
			241.642,297.876 243.601,297.512 245.066,297.072 246.978,296.62 248.354,296.227 250.178,295.822 251.461,295.252 
			253.149,294.806 254.032,294.336 255.497,293.896 257.309,293.044 257.709,292.944 260.01,291.946 260.939,291.564 
			262.263,290.859 263.411,290.248 265.047,289.49 265.935,289.243 267.53,288.621 268.859,288.139 269.212,287.951 272.625,286.7 
			273.419,286.277 276.155,284.82 277.12,284.08 278.574,283.192 280.504,281.711 281.293,281.065 281.77,280.471 283.418,278.46 
			284.843,276.455 285.184,275.82 286.245,273.556 286.451,272.879 286.569,272.25 287.265,269.727 287.418,268.739 
			287.701,267.568 287.884,265.998 288.25,264.557 288.81,261.993 288.981,261.675 289.264,260.505 289.724,259.24 289.759,258.881 
			291.037,256.388 291.591,255.3 293.145,253.113 294.405,251.649 295.194,251.002 297.471,249.11 298.172,248.51 299.354,247.54 
			301.114,246.377 303.356,244.843 304.151,244.42 304.457,244.143 307.581,242.139 307.711,241.957 310.171,240.194 
			310.477,239.918 311.483,239.042 312.49,238.166 312.837,237.754 314.491,235.967 315.356,234.826 316.952,232.504 
			317.382,231.822 319.019,229.364 320.049,227.682 320.22,227.365 320.391,227.047 320.867,226.453 322.769,223.854 
			323.375,223.078 324.588,221.526 324.717,221.344 324.806,221.297 326.76,219.01 328.273,216.958 328.403,216.776 
			328.662,216.411 330.01,214.9 332.535,212.196 333.1,211.555 333.318,211.326 333.753,210.867 335.943,209.021 337.079,207.963 
			337.208,207.781 337.779,207.364 340.975,204.642 341.193,204.413 341.634,204.178 344,202.238 345.883,200.669 346.936,199.881 
			348.549,198.229 348.944,197.906 349.95,197.03 350.038,196.983 350.038,196.983 352.751,194.632 354.24,193.385 356.347,191.81 
			357.883,190.652 358.542,190.188 362.491,187.179 362.797,186.902 364.369,185.386 366.858,183.04 370.266,179.866 
			370.572,179.589 370.702,179.407 371.314,178.855 371.967,178.167 374.416,175.956 374.851,175.498 375.681,174.716 
			376.858,173.523 378.212,172.235 378.695,171.865 380.007,170.713 381.579,169.196 382.191,168.644 382.585,168.32 
			383.768,167.35 384.251,166.98 384.468,166.751 386.352,165.181 387.488,164.123 388.577,162.977 389.966,161.331 
			389.966,161.331 390.054,161.284 392.803,158.574 393.503,157.974 393.897,157.651 394.727,156.869 396.211,155.399 
			397.129,154.57 397.258,154.388 399.53,152.272 401.355,150.167 401.443,150.12 402.055,149.567 404.109,147.68 405.287,146.487 
			405.681,146.164 408.165,143.595 408.777,143.042 409.083,142.766 410.001,141.937 411.879,140.144 412.926,139.133 
			414.192,137.892 414.28,137.845 414.41,137.663 415.722,136.511 417.082,135.447 418.441,134.383 420.942,132.485 
			421.248,132.208 422.831,131.139 422.831,131.139 422.831,131.139 424.591,129.975 425.032,129.74 425.821,129.094 
			427.051,128.212 430.17,125.985 430.741,125.567 431.358,125.238 432.894,124.08 433.465,123.663 434.26,123.24 434.742,122.87 
			435.578,122.311 439.55,120.196 439.726,120.102 439.814,120.055 439.991,119.961 444.01,117.934 444.893,117.464 
			447.499,116.189 448.294,115.766 449.665,115.149 450.241,114.956 452.63,113.91 453.03,113.81 453.56,113.528 455.907,112.618 
			457.413,112.042 458.343,111.66 460.826,110.791 461.579,110.504 462.509,110.122 465.127,109.294 466.145,108.865 
			468.81,108.126 470.187,107.732 472.317,107.051 473.028,106.899 473.605,106.705 475.476,106.389 477.788,105.837 
			479.212,105.532 481.924,104.881 482.859,104.722 484.859,104.224 485.524,103.983 486.148,103.877 488.107,103.514 
			489.042,103.356 490.778,102.998 491.401,102.892 494.031,102.512 494.566,102.453 495.013,102.442 498.449,102.085 
			499.208,102.021 502.02,101.769 503.537,101.641 505.461,101.636 507.114,101.549 509.349,101.492 510.873,101.587 
			512.573,101.588 513.602,101.606 515.173,101.789 515.22,101.877 516.708,102.331 518.778,102.815 520.313,103.357 
			523.606,104.436 523.742,104.477 523.877,104.518 527.176,105.82 528.217,106.285 530.799,107.516 531.434,107.858 
			531.934,108.158 534.75,109.831 536.156,110.555 538.519,112.015 540.383,113.175 542.2,114.247 544.106,115.272 545.923,116.343 
			546.875,116.856 548.645,117.839 550.639,118.817 552.45,119.665 554.397,120.554 555.302,120.978 556.567,121.438 
			558.513,122.327 560.589,123.034 562.124,123.577 563.03,124.001 565.6,124.785 566.864,125.244 568.446,125.875 570.522,126.582 
			571.428,127.006 574.633,128.131 574.768,128.173 575.357,128.426 578.156,129.428 578.744,129.681 581.138,130.559 
			582.178,131.024 584.078,131.825 585.301,132.42 588.018,133.692 588.788,134.075 589.241,134.287 592.105,136.048 
			593.786,137.078 595.609,138.373 597.75,139.839 599.39,141.005 601.671,142.736 603.041,143.819 605.375,145.862 
			606.792,147.033 609.491,149.335 610.725,150.377 613.471,152.767 614.523,153.679 617.363,156.246 618.186,156.94 
			621.073,159.595 621.808,160.336 624.236,162.556 625.294,163.692 627.175,165.522 628.051,166.529 629.385,167.971 
			630.814,169.589 630.908,169.766 632.295,171.519 632.53,171.961 633.829,173.761 635.41,176.092 635.874,176.751 
			636.344,177.634 637.232,179.087 637.942,180.635 638.13,180.988 638.224,181.164 639.229,183.688 639.511,184.218 
			640.891,187.448 641.414,188.643 642.371,191.078 643.364,193.155 643.699,193.997 644.562,196.256 645.42,198.292 
			645.943,199.486 646.371,200.504 647.282,202.852 647.622,203.917 648.392,206 648.726,206.841 648.926,207.641 649.56,209.683 
			649.995,210.924 650.822,213.542 651.163,214.607 651.409,215.496 651.803,216.872 652.096,217.849 652.202,218.473 
			653.035,221.314 653.188,222.026 653.769,223.756 654.315,225.845 654.702,226.998 656.012,230.946 656.106,231.122 
			656.2,231.299 656.587,232.452 657.257,234.135 657.445,234.488 658.161,236.259 659.995,239.701 660.183,240.054 
			660.371,240.407 661.957,242.961 662.234,243.267 662.234,243.267 664.179,245.856 664.226,245.945 664.408,246.074 
			665.008,246.775 667.077,248.958 667.718,249.523 669.729,251.172 670.552,251.866 672.504,252.979 674.804,253.681 
			674.804,253.681 675.21,253.804 676.515,254.129 678.086,254.312 679.203,254.283 681.839,254.126 682.727,253.879 
			685.439,253.228 685.751,253.175 685.839,253.128 688.328,252.483 690.587,251.62 690.899,251.567 690.987,251.52 
			691.164,251.426 693.682,250.198 695.224,249.264 696.148,248.658 698.067,246.73 698.461,246.407 698.502,246.271 
			698.761,245.907 700.404,243.673 701.258,242.085 701.9,240.95 702.147,240.138 702.901,238.151 703.438,236.392 703.774,235.533 
			704.522,233.322 704.693,233.005 705.5,231.329 705.924,230.423 707.655,228.142 707.743,228.095 707.743,228.095 
			710.544,225.696 711.245,225.097 713.793,223.287 713.969,223.193 714.058,223.146 716.499,222.412 719.482,221.843 
			719.57,221.796 719.617,221.884 719.617,221.884 719.841,221.879 722.67,222.298 724.07,222.799 725.693,223.294 726.687,223.671 
			727.822,224.313 728.463,224.878 729.879,226.049 730.849,227.232 731.22,227.715 732.154,229.257 733.047,230.934 		">
		</polygon>
	</g>
</g>
<g id="Layer_1">
</g>
</svg>
