<?xml version="1.0" encoding="iso-8859-1"?>
<!-- Generator: Adobe Illustrator 19.2.1, SVG Export Plug-In . SVG Version: 6.00 Build 0)  -->
<svg version="1.1" xmlns="http://www.w3.org/2000/svg" xmlns:xlink="http://www.w3.org/1999/xlink" x="0px" y="0px"
	 viewBox="0 0 841.89 595.28" style="enable-background:new 0 0 841.89 595.28;" xml:space="preserve">
<g id="layer261">
	<g id="layer261_1_" slic3r:z="0.000104600000000001">
		<polygon slic3r:type="contour" style="fill:#FFFFFF;stroke:#000000;stroke-miterlimit:10;" points="740.052,117.079 
			740.24,117.432 740.381,117.697 740.621,118.362 741.649,121.78 741.895,122.668 742.212,124.539 742.241,125.657 
			742.574,128.198 742.503,128.916 742.562,129.451 742.666,131.775 742.618,133.386 742.423,134.51 742.087,137.069 
			741.922,137.61 740.985,139.468 740.944,139.603 740.09,141.191 738.571,143.019 738.094,143.613 736.128,145.453 
			735.869,145.818 735.693,145.912 734.298,147.334 733.992,147.611 732.944,148.622 732.291,149.31 730.631,150.873 729.46,152.29 
			728.194,153.531 727.199,154.854 726.552,155.765 726.075,156.359 725.557,157.088 725.203,158.976 725.25,159.064 
			725.208,159.199 725.255,159.288 725.955,160.388 726.543,160.641 727.266,160.936 728.307,161.401 730.819,161.65 
			732.477,161.786 733.824,161.975 735.93,162.1 737.771,162.366 739.877,162.491 741.365,162.945 743.076,163.393 743.57,163.469 
			745.194,163.965 747.546,164.978 747.817,165.06 748.134,165.231 750.633,166.733 752.138,167.857 753.638,168.758 
			755.602,170.318 756.148,170.706 757.477,171.925 758.623,173.014 758.765,173.279 759.223,173.714 760.751,175.733 
			761.997,177.222 762.603,178.146 763.625,179.64 763.855,179.858 764.742,181.312 765.671,182.63 766.746,184.436 767.31,185.496 
			767.88,186.778 768.361,188.108 768.896,189.75 769.8,191.874 770.041,192.538 770.141,192.939 770.452,194.586 770.604,195.298 
			770.65,197.086 770.591,198.251 770.448,199.686 770.1,201.797 770.106,202.021 769.976,202.203 769.305,203.92 768.58,205.326 
			768.197,206.096 767.809,206.643 766.561,208.554 765.006,210.741 764.965,210.877 764.877,210.924 762.964,213.075 
			762.216,213.587 759.945,215.703 759.374,216.12 758.232,216.955 756.255,218.348 755.372,218.818 753.389,219.987 
			752.73,220.451 751.229,221.251 750.347,221.721 750.082,221.862 748.181,222.76 746.946,223.419 744.692,224.505 
			743.545,225.116 738.955,227.561 738.867,227.608 734.771,230.129 733.894,230.822 732.358,231.98 730.869,233.226 
			730.169,233.826 729.121,234.837 727.944,236.031 727.291,236.718 725.631,238.282 724.283,239.793 722.976,241.169 
			720.892,243.638 720.545,244.05 720.327,244.279 718.196,246.66 715.5,249.682 715.412,249.729 715.371,249.864 715.283,249.911 
			712.363,252.939 712.363,252.939 712.275,252.986 709.962,255.237 708.955,256.113 707.072,257.682 704.094,260.175 
			702.734,261.239 701.769,261.979 698.48,264.524 698.391,264.571 698.126,264.712 695.449,266.705 693.471,268.098 691.8,269.214 
			689.782,270.743 688.24,271.677 686.263,273.07 686.133,273.252 683.803,274.833 682.573,275.715 681.255,276.643 678.53,278.547 
			677.959,278.965 677.341,279.294 675.058,280.963 673.516,281.897 672.11,282.873 669.691,284.501 668.944,285.012 668.59,285.2 
			667.931,285.665 665.866,287.104 663.712,288.591 663.271,288.826 661.117,290.313 660.105,290.966 659.975,291.148 
			659.799,291.242 657.821,292.635 656.279,293.569 655.444,294.128 654.873,294.545 653.202,295.661 652.631,296.079 
			650.165,297.618 649.812,297.806 649.065,298.318 646.47,300.04 645.764,300.416 644.84,301.021 643.651,301.767 642.598,302.555 
			641.674,303.16 640.573,303.86 639.826,304.371 638.59,305.029 636.26,306.61 635.689,307.027 635.424,307.168 634.677,307.68 
			632.917,308.843 631.729,309.59 629.528,310.988 628.822,311.364 628.604,311.594 627.415,312.34 626.226,313.086 
			625.962,313.227 624.379,314.297 624.026,314.485 622.219,315.56 621.648,315.978 620.766,316.448 619.224,317.382 
			617.152,318.598 616.093,319.162 615.346,319.674 612.698,321.084 612.61,321.131 612.521,321.178 610.444,322.171 
			610.356,322.218 608.72,322.976 608.191,323.258 606.555,324.015 605.496,324.58 603.242,325.666 602.666,325.86 602.313,326.048 
			599.129,327.517 598.376,327.805 597.582,328.228 595.546,329.085 595.546,329.085 594.04,329.661 591.033,331.035 
			590.192,331.37 587.938,332.457 585.814,333.362 585.108,333.738 581.789,335.165 580.242,335.876 578.077,336.916 
			576.264,337.768 574.499,338.708 574.323,338.802 574.099,338.807 573.922,338.901 572.51,339.654 570.786,340.458 
			569.727,341.022 569.462,341.163 568.621,341.498 566.191,342.679 565.043,343.29 564.467,343.484 560.883,345.052 
			558.936,345.863 556.724,346.815 553.493,348.195 553.405,348.242 552.564,348.577 552.475,348.624 549.11,349.963 
			548.315,350.386 548.004,350.439 544.103,351.836 542.55,352.324 542.15,352.423 539.843,353.198 539.131,353.351 
			537.755,353.744 536.025,354.325 535.625,354.425 534.736,354.672 531.495,355.605 530.253,356.04 529.941,356.092 
			526.97,357.108 525.017,357.695 523.111,358.371 521.91,358.67 520.357,359.157 518.892,359.597 517.869,359.803 514.58,360.648 
			512.98,361.047 511.468,361.399 510.532,361.557 508.973,361.821 506.344,362.202 504.514,362.383 502.196,362.711 
			498.855,363.244 498.008,363.355 497.472,363.414 493.866,364.088 490.707,364.751 489.683,364.956 487.859,365.361 
			485.5,365.824 484.965,365.883 484.029,366.041 482.606,366.346 481.27,366.604 480.87,366.704 479.4,366.92 477.176,367.425 
			477.176,367.425 476.152,367.63 474.64,367.982 472.905,368.34 472.104,368.539 470.769,368.798 469.569,369.097 468.769,369.296 
			467.033,369.654 464.633,370.253 464.545,370.3 464.321,370.305 461.921,370.904 460.456,371.344 458.008,371.854 
			456.896,372.107 456.232,372.347 454.361,372.664 452.09,373.08 451.778,373.133 451.29,373.28 449.195,373.602 447.86,373.86 
			446.566,373.983 444.383,374.352 443.936,374.364 443.76,374.458 442.689,374.575 439.524,375.014 437.159,375.254 
			435.377,375.523 433.859,375.652 432.3,375.915 431.188,376.168 429.941,376.379 429.405,376.437 427.005,377.036 
			426.382,377.141 425.358,377.346 423.758,377.745 422.869,377.992 421.581,378.338 419.58,378.837 418.692,379.083 
			416.468,379.588 414.38,380.134 413.091,380.48 411.273,381.108 410.255,381.537 409.414,381.872 407.684,382.453 
			406.666,382.882 406.137,383.164 405.56,383.358 404.054,383.933 402.459,384.556 401.883,384.75 400.688,385.272 399.935,385.56 
			397.676,386.424 394.31,387.763 393.469,388.098 390.768,389.196 389.262,389.771 388.774,389.918 385.055,391.445 
			383.243,392.297 380.854,393.343 377.759,394.764 376.7,395.328 376.7,395.328 376.612,395.375 374.582,396.457 372.952,397.438 
			372.598,397.626 372.334,397.767 370.398,399.025 368.426,400.641 368.249,400.735 368.073,400.829 366.013,402.493 
			364.442,404.009 364.136,404.286 363.871,404.427 362.034,406.084 359.768,408.424 359.68,408.471 359.551,408.653 
			358.632,409.482 356.761,411.499 356.019,412.234 355.495,412.739 355.277,412.968 353.882,414.391 353.099,415.261 
			352.052,416.272 350.963,417.419 350.045,418.248 349.262,419.118 348.214,420.129 346.56,421.916 346.036,422.422 
			345.601,422.88 343.07,425.361 342.416,426.049 342.416,426.049 341.716,426.648 339.921,428.171 338.132,429.917 
			337.867,430.058 337.737,430.24 337.737,430.24 335.46,432.133 333.841,433.561 333.753,433.608 333.665,433.655 331.558,435.23 
			329.492,436.67 329.451,436.806 329.275,436.9 329.186,436.947 326.55,438.804 325.279,439.821 324.884,440.144 322.907,441.537 
			321.065,442.971 320.712,443.159 320.494,443.388 319.57,443.994 317.505,445.434 317.022,445.804 315.922,446.503 
			314.162,447.667 312.538,448.872 312.008,449.154 311.437,449.571 309.766,450.688 308.271,451.71 306.865,452.686 
			306.688,452.78 306.294,453.103 304.052,454.637 303.263,455.284 302.428,455.842 301.021,456.818 299.744,457.611 
			298.691,458.399 297.855,458.957 296.313,459.891 295.919,460.215 294.377,461.149 293.1,461.942 291.294,463.018 
			288.434,464.881 287.069,465.721 286.104,466.462 284.785,467.39 284.521,467.531 283.908,468.084 283.073,468.642 
			282.808,468.783 279.471,471.24 278.594,471.934 277.364,472.815 275.475,474.161 275.387,474.208 275.081,474.484 
			274.381,475.084 270.873,477.858 270.655,478.087 270.043,478.64 269.078,479.381 267.854,480.486 267.418,480.944 
			266.847,481.362 266.018,482.143 265.712,482.42 264.358,483.707 262.828,485.089 261.168,486.652 258.937,488.633 
			257.536,489.832 256.748,490.479 254.911,492.137 254.47,492.372 254.035,492.83 252.94,493.753 250.751,495.599 250.356,495.922 
			248.602,497.309 248.208,497.633 246.543,498.973 246.454,499.02 246.237,499.249 244.524,500.501 242.241,502.17 241.67,502.587 
			240.134,503.745 239.651,504.116 237.85,505.415 237.103,505.926 235.785,506.854 233.501,508.524 232.489,509.176 
			231.654,509.734 230.336,510.663 229.323,511.315 227.387,512.573 227.211,512.667 225.004,513.842 223.727,514.635 
			221.962,515.576 219.267,516.897 218.649,517.226 217.855,517.649 215.466,518.695 214.271,519.218 213.118,519.605 
			212.5,519.934 210.194,520.709 209.394,520.909 209.217,521.003 205.358,522.265 204.558,522.465 201.94,523.293 200.516,523.598 
			199.804,523.75 198.916,523.997 197.18,524.355 196.245,524.513 193.174,525.129 192.415,525.193 189.25,525.632 189.026,525.638 
			188.003,525.843 185.726,526.036 185.326,526.136 182.155,526.351 181.308,526.463 178.273,526.719 177.202,526.836 
			174.343,526.999 172.961,527.169 170.637,527.274 168.314,527.378 167.955,527.343 166.437,527.471 164.961,527.464 
			164.513,527.476 161.249,527.515 159.102,527.525 158.208,527.548 155.702,527.523 154.625,527.417 152.296,527.298 
			151.402,527.321 147.414,527.065 147.278,527.024 147.19,527.071 143.332,526.634 141.179,526.42 140.191,526.267 
			138.397,526.089 137.138,525.853 136.509,525.735 133.991,525.263 132.368,524.768 129.668,524.166 128.316,523.754 
			126.469,523.264 123.94,522.345 123.264,522.139 120.911,521.126 120.547,520.867 117.601,519.377 117.418,519.247 
			113.602,516.974 113.191,516.627 109.228,513.866 107.811,512.694 105.388,510.699 102.184,507.873 101.908,507.567 
			98.375,504.124 98.281,503.947 98.281,503.947 98.281,503.947 94.642,499.88 92.755,497.826 89.757,494.324 87.994,491.865 
			82.874,485.867 81.064,483.319 78.895,480.735 78.337,479.9 76.673,477.84 76.027,477.051 73.752,473.844 72.594,472.308 
			70.831,469.848 69.203,467.43 68.88,467.035 68.551,466.417 67.199,464.305 66.071,462.186 65.836,461.745 65.507,461.127 
			64.896,459.98 63.997,458.079 63.85,457.591 63.662,457.238 62.129,453.296 61.977,452.584 60.955,449.389 60.955,449.389 
			60.451,447.165 60.052,445.565 60.052,445.565 60.14,445.518 59.595,441.73 59.578,441.059 59.514,440.3 59.445,437.618 
			59.38,436.859 59.404,436.053 59.535,434.171 59.6,433.23 59.731,431.347 59.914,429.777 59.985,429.059 60.339,427.171 
			60.41,426.454 60.452,426.318 60.534,426.048 61.13,423.125 61.696,420.784 61.932,419.525 62.144,419.072 63.123,415.379 
			63.205,415.108 63.205,415.108 63.907,412.809 64.484,410.915 64.856,409.697 64.974,409.068 65.975,406.269 66.306,405.187 
			66.636,404.104 67.095,402.84 67.761,400.899 68.056,400.176 68.515,398.911 69.523,396.336 69.605,396.065 69.694,396.018 
			69.646,395.93 70.872,393.125 71.337,392.084 71.714,391.09 72.309,389.867 73.028,388.238 73.788,386.474 74.253,385.433 
			75.319,383.392 75.743,382.486 76.379,381.128 76.98,380.128 77.274,379.405 78.729,376.818 78.941,376.365 79.2,376 
			80.913,373.048 80.955,372.913 80.955,372.913 80.955,372.913 82.374,370.685 83.275,369.185 83.834,368.321 85.123,366.275 
			86.03,364.999 87.066,363.54 88.75,361.171 88.968,360.942 89.097,360.759 91.005,358.384 92.612,356.508 93.524,355.456 
			95.914,352.71 96.043,352.528 96.656,351.976 98.833,349.683 99.31,349.089 101.712,346.79 102.671,345.826 104.855,343.757 
			106.079,342.652 108.263,340.583 108.392,340.4 110.493,338.602 110.581,338.555 110.581,338.555 110.581,338.555 
			113.253,336.339 115.178,334.634 116.143,333.893 116.667,333.388 118.509,331.954 119.033,331.448 121.357,329.644 
			121.752,329.32 121.84,329.273 125.083,326.64 125.301,326.411 125.565,326.27 128.02,324.283 128.02,324.283 129.862,322.849 
			132.274,320.997 132.404,320.815 132.581,320.721 134.993,318.87 136.571,317.576 136.747,317.482 137.889,316.648 
			139.072,315.678 139.248,315.584 139.513,315.443 142.585,313.127 144.121,311.969 144.692,311.552 146.228,310.394 
			147.941,309.142 149.741,307.843 151.719,306.45 151.936,306.221 153.914,304.828 156.285,303.112 156.374,303.065 
			156.374,303.065 158.527,301.578 158.834,301.302 160.505,300.185 162.659,298.698 162.965,298.422 163.406,298.187 
			165.119,296.935 166.878,295.771 167.89,295.119 168.549,294.655 172.068,292.327 172.639,291.91 173.651,291.258 176.07,289.63 
			178.442,287.914 178.795,287.726 181.125,286.145 181.213,286.098 183.149,284.84 184.644,283.817 185.568,283.212 
			186.886,282.284 190.005,280.056 190.358,279.868 190.576,279.639 191.235,279.174 193.742,277.499 194.666,276.894 
			196.467,275.595 197.697,274.714 199.103,273.738 200.598,272.715 201.957,271.651 203.935,270.259 204.153,270.029 
			204.241,269.982 206.748,268.307 207.713,267.567 208.678,266.826 209.908,265.945 210.697,265.298 212.497,263.999 
			213.333,263.441 214.169,262.882 215.487,261.954 216.364,261.26 217.682,260.332 219.395,259.08 220.889,258.057 
			221.678,257.411 223.92,255.877 224.579,255.412 225.633,254.625 227.169,253.467 228.705,252.309 229.805,251.61 
			230.417,251.057 232.612,249.435 233.36,248.924 234.766,247.948 236.39,246.743 237.75,245.679 239.244,244.657 240.121,243.963 
			241.834,242.711 242.758,242.106 244.6,240.672 245.524,240.066 245.918,239.743 247.807,238.397 248.378,237.98 249.961,236.91 
			251.809,235.699 252.203,235.376 252.862,234.912 254.18,233.983 256.334,232.496 256.817,232.126 257.258,231.891 
			259.718,230.128 262.178,228.365 262.661,227.994 265.162,226.096 266.215,225.308 266.392,225.214 266.568,225.12 
			269.899,222.44 270.688,221.793 272.618,220.312 274.501,218.743 274.766,218.602 274.896,218.419 276.65,217.032 
			278.315,215.692 279.062,215.181 280.157,214.258 282.658,212.359 283.053,212.036 283.141,211.989 283.27,211.807 
			285.024,210.42 286.996,208.803 287.261,208.662 289.362,206.864 291.245,205.294 291.639,204.971 291.857,204.742 
			293.128,203.725 294.617,202.478 295.012,202.155 295.582,201.738 296.371,201.091 299.973,198.494 300.19,198.264 
			300.455,198.123 301.862,197.148 304.592,195.467 304.722,195.285 304.898,195.191 307.499,193.692 309.041,192.758 
			309.394,192.57 313.23,190.413 313.495,190.272 314.378,189.802 317.42,188.069 319.009,187.223 319.185,187.129 319.274,187.082 
			321.745,185.766 324.305,184.402 325.452,183.791 325.893,183.556 329.471,181.764 329.736,181.623 330.177,181.388 
			332.696,180.16 334.373,179.267 334.637,179.126 335.655,178.698 337.203,177.987 338.574,177.37 339.898,176.665 
			342.016,175.537 342.81,175.114 344.793,173.944 347.083,172.499 347.965,172.029 349.548,170.959 350.56,170.307 
			351.002,170.072 351.266,169.931 351.396,169.748 354.35,168.062 355.097,167.551 355.539,167.316 359.152,165.165 
			359.77,164.836 363.559,162.591 364,162.356 364,162.356 364,162.356 364.707,161.98 364.971,161.839 366.69,160.811 
			368.231,159.876 368.938,159.5 372.468,157.62 373.174,157.244 373.969,156.821 376.663,155.499 377.77,155.023 379.135,154.183 
			380.988,153.196 381.477,153.049 384.078,151.551 384.696,151.222 385.09,150.898 386.943,149.911 388.968,148.606 
			389.144,148.512 389.409,148.371 391.439,147.29 393.64,145.892 393.816,145.798 395.182,144.957 397.424,143.423 
			397.865,143.188 398.083,142.959 398.436,142.771 400.419,141.602 402.043,140.397 402.573,140.115 403.102,139.833 
			406.098,138.011 406.362,137.87 407.333,137.353 407.816,136.983 409.405,136.137 410.546,135.302 411.606,134.738 
			412.659,133.95 413.759,133.251 414.813,132.463 416.001,131.717 417.496,130.694 418.155,130.23 419.079,129.625 
			420.091,128.973 421.851,127.809 422.645,127.386 423.304,126.922 424.893,126.075 426.7,125 427.359,124.536 427.535,124.442 
			431.372,122.285 431.548,122.191 431.637,122.144 431.637,122.144 434.555,120.817 436.014,120.153 436.632,119.824 
			436.944,119.771 440.174,118.391 440.974,118.191 442.569,117.569 444.387,116.94 448.558,115.625 448.558,115.625 
			448.735,115.531 452.736,114.534 453.312,114.34 454.777,113.899 456.954,113.307 460.684,112.227 460.949,112.086 
			461.084,112.127 465.161,110.635 465.65,110.488 466.403,110.201 468.75,109.29 471.404,108.104 472.157,107.816 473.352,107.293 
			474.858,106.718 477.647,105.572 478.088,105.337 479.33,104.903 481.677,103.992 483.095,103.464 484.69,102.841 
			487.084,102.019 488.326,101.585 490.456,100.904 491.52,100.563 495.251,99.483 498.804,98.497 501.246,97.763 502.269,97.558 
			503.423,97.17 505.735,96.619 508.529,95.697 509.553,95.492 510.041,95.345 510.924,94.875 512.654,94.294 513.719,93.953 
			515.184,93.513 516.649,93.072 518.508,92.309 520.149,91.775 520.679,91.493 520.902,91.487 523.65,90.477 524.533,90.007 
			526.08,89.296 527.228,88.685 527.492,88.544 528.734,88.109 529.752,87.68 532.099,86.77 532.453,86.582 533.029,86.388 
			536.136,85.414 536.759,85.308 537.336,85.114 538.177,84.78 540.572,83.958 541.684,83.705 542.66,83.412 544.396,83.054 
			545.69,82.931 546.314,82.826 547.073,82.762 548.59,82.633 550.602,82.581 552.12,82.453 552.432,82.4 552.832,82.3 
			553.461,82.418 556.237,82.526 558.12,82.657 559.284,82.716 561.302,82.888 563.99,83.042 565.243,83.055 566.137,83.032 
			569.002,83.093 570.519,82.964 574.09,82.649 574.09,82.649 574.137,82.737 577.438,82.339 578.82,82.169 581.585,81.83 
			582.255,81.812 583.685,81.731 586.367,81.662 587.173,81.686 588.291,81.657 590.35,81.694 592.008,81.83 592.144,81.871 
			592.144,81.871 594.302,82.308 595.29,82.461 596.778,82.915 598.178,83.416 599.713,83.958 602.295,85.189 602.295,85.189 
			602.43,85.231 604.705,86.738 606.575,88.121 606.94,88.38 606.987,88.469 609.268,90.199 609.862,90.676 611.726,91.836 
			612.949,92.431 613.943,92.808 614.755,93.056 616.242,93.51 618.578,93.852 621.313,94.095 621.807,94.172 624.495,94.326 
			625.483,94.48 627.548,94.74 629.883,95.083 630.559,95.289 631.729,95.572 633.306,95.979 634.523,96.35 636.099,96.757 
			637.228,97.175 638.94,97.623 640.922,98.154 641.687,98.313 642.181,98.39 644.11,98.609 644.11,98.609 645.363,98.621 
			646.122,98.557 648.351,98.276 648.798,98.265 649.198,98.165 651.246,97.754 652.264,97.326 654.17,96.65 654.794,96.545 
			656.7,95.869 657.276,95.676 659.271,94.953 659.759,94.807 660.601,94.472 662.066,94.032 663.931,93.492 664.596,93.251 
			665.172,93.057 666.637,92.617 667.125,92.47 667.926,92.27 669.661,91.913 670.373,91.76 672.114,91.626 672.785,91.609 
			673.144,91.644 675.202,91.681 675.785,91.711 677.038,91.723 678.114,91.83 679.82,92.054 680.767,92.343 682.613,92.832 
			682.884,92.915 683.784,93.115 684.772,93.269 685.225,93.481 686.713,93.935 688.336,94.43 689.283,94.719 689.824,94.884 
			692.124,95.585 693.876,95.898 695.406,96.217 697.835,96.736 698.688,96.848 700.934,97.238 702.099,97.297 706.093,97.776 
			706.452,97.812 706.675,97.806 709.64,98.266 710.357,98.337 710.492,98.379 710.628,98.42 714.004,99.228 715.398,99.505 
			717.197,99.906 718.821,100.401 719.768,100.69 721.938,101.574 722.073,101.615 722.073,101.615 724.249,102.722 
			725.337,103.276 726.789,104.089 727.289,104.389 729.065,105.596 730.293,106.414 732.069,107.621 733.257,108.575 
			734.356,109.576 735.273,110.447 736.79,112.018 737.989,113.419 738.542,114.031 		">
		</polygon>
		<polygon slic3r:type="hole" style="stroke:#000000;stroke-miterlimit:10;" points="680.706,192.643 679.259,192.054 
			678.765,191.977 677.453,191.429 676.195,191.193 675.395,191.393 674.012,191.562 673.165,191.674 672.677,191.82 
			671.565,192.073 670.188,192.466 668.235,193.053 667.835,193.153 664.869,194.392 664.781,194.439 664.604,194.533 
			661.951,195.72 661.286,195.961 660.715,196.378 659.038,197.271 657.408,198.252 656.614,198.675 655.119,199.698 
			654.195,200.303 653.271,200.909 651.694,202.202 651.429,202.343 650.028,203.542 648.845,204.512 648.322,205.017 
			646.979,206.752 646.891,206.799 646.85,206.934 646.809,207.069 646.084,208.475 645.625,209.739 645.46,210.28 645.289,210.598 
			645.6,212.245 645.711,213.092 645.805,213.269 645.899,213.445 647.369,214.929 648.051,215.358 649.18,215.777 650.127,216.065 
			650.668,216.231 650.938,216.313 653.797,216.15 654.244,216.139 654.691,216.127 657.809,215.6 659.586,215.107 661.139,214.619 
			663.487,213.709 663.752,213.568 666.358,212.293 666.535,212.199 669.312,210.607 669.707,210.283 670.672,209.543 
			671.684,208.89 672.255,208.473 673.261,207.597 674.097,207.039 675.409,205.887 676.84,204.105 677.752,203.053 678.83,201.459 
			679.654,200.454 680.431,199.36 681.509,196.067 681.551,195.932 681.551,195.932 681.529,193.338 		">
		</polygon>
	</g>
</g>
<g id="Layer_1">
</g>
</svg>
