<?xml version="1.0" encoding="iso-8859-1"?>
<!-- Generator: Adobe Illustrator 19.2.1, SVG Export Plug-In . SVG Version: 6.00 Build 0)  -->
<svg version="1.1" xmlns="http://www.w3.org/2000/svg" xmlns:xlink="http://www.w3.org/1999/xlink" x="0px" y="0px"
	 viewBox="0 0 841.89 595.28" style="enable-background:new 0 0 841.89 595.28;" xml:space="preserve">
<g id="layer207">
	<g id="layer207_1_" slic3r:z="8.30000000000006e-005">
		<polygon slic3r:type="contour" style="fill:#FFFFFF;stroke:#000000;stroke-miterlimit:10;" points="254.674,331.495 
			255.667,333.572 255.861,334.149 255.908,334.237 256.143,334.679 256.923,337.208 257.217,338.185 257.898,340.315 
			258.643,343.204 258.79,343.692 259.289,345.692 259.635,346.981 259.688,347.293 260.304,350.363 260.421,351.434 
			260.978,353.97 261.2,355.664 261.511,357.311 261.88,359.494 262.091,360.741 262.566,363.547 262.672,364.171 263.311,368.136 
			263.405,368.312 263.457,368.624 264.167,371.872 264.378,373.119 264.742,375.078 265.017,377.084 265.339,379.178 
			265.362,380.072 265.467,382.396 265.537,383.378 265.505,387.361 265.575,388.343 265.562,389.596 265.507,392.684 
			265.524,395.055 265.387,396.714 265.156,399.896 265.108,401.508 264.7,404.784 264.67,405.366 264.552,405.996 263.998,408.783 
			263.855,410.219 263.501,412.107 263.189,413.859 262.823,415.3 262.169,417.688 261.756,419.041 261.137,421.07 260.507,422.652 
			259.535,424.869 258.315,427.898 257.72,429.121 256.66,431.385 255.812,433.196 255.305,434.372 254.074,436.954 
			253.433,438.089 253.179,438.677 251.436,442.211 250.841,443.434 249.057,447.104 248.503,448.192 247.307,450.414 
			246.63,451.908 246.035,453.131 244.84,455.354 243.391,458.165 243.179,458.618 242.92,458.982 241,462.611 240.658,463.246 
			239.887,464.563 238.862,466.468 238.433,467.15 238.003,467.832 237.744,468.197 236.354,469.843 235.189,471.484 
			235.059,471.666 234.541,472.395 233.935,473.171 233.587,473.583 232.457,474.864 231.898,475.729 231.333,476.369 
			230.208,477.875 229.732,478.468 229.343,479.015 228.69,479.703 225.864,482.907 225.47,483.231 225.081,483.777 
			224.599,484.148 224.163,484.606 222.892,485.623 221.538,486.911 221.144,487.234 220.967,487.328 218.284,489.097 
			217.407,489.79 216.171,490.448 215.818,490.636 215.289,490.918 213.788,491.718 212.77,492.146 211.311,492.81 209.94,493.427 
			209.764,493.521 208.21,494.008 205.11,495.206 204.356,495.494 203.78,495.688 201.073,496.563 200.185,496.809 197.743,497.543 
			196.455,497.889 195.255,498.189 193.966,498.535 193.031,498.693 192.407,498.799 191.296,499.051 189.201,499.373 
			187.377,499.778 186.93,499.789 184.924,500.065 184.524,500.164 184.165,500.129 182.783,500.299 180.642,500.533 
			180.059,500.503 179.165,500.526 176.977,500.672 176.483,500.595 175.142,500.629 173.753,500.576 172.5,500.563 
			171.112,500.509 169.053,500.473 168.471,500.443 167.707,500.284 165.465,500.118 164.254,499.97 162.772,499.739 
			159.719,499.326 159.36,499.29 159.225,499.249 156.843,498.818 156.213,498.7 156.078,498.659 153.92,498.222 151.849,497.739 
			150.679,497.456 149.373,497.131 148.114,496.895 145.321,496.117 145.186,496.076 145.097,496.123 141.898,495.221 
			141.627,495.138 139.281,494.349 137.299,493.818 135.764,493.276 133.87,492.698 132.382,492.244 130.847,491.702 
			129.718,491.284 126.965,490.371 126.377,490.117 123.213,488.857 122.761,488.645 122.625,488.603 122.49,488.562 
			119.091,486.86 118.638,486.648 117.956,486.218 115.592,484.758 114.087,483.633 113.264,482.939 112.024,481.673 
			110.731,480.096 110.043,479.443 109.437,478.519 108.409,476.8 106.864,474.111 103.66,469.586 102.773,468.132 102.121,467.12 
			98.301,461.224 98.254,461.135 98.254,461.135 98.066,460.782 94.774,456.304 94.498,455.998 94.128,455.515 92.688,453.45 
			92.083,452.526 90.766,450.054 90.578,449.701 90.437,449.437 89.856,447.707 89.222,445.665 89.075,445.177 88.183,441.8 
			87.826,440.064 87.827,438.364 87.698,436.847 87.446,435.735 87.406,434.17 87.277,432.652 87.301,431.846 87.272,430.729 
			87.521,428.217 87.528,426.741 87.705,424.947 87.847,423.511 88.042,422.388 88.178,420.729 88.757,417.136 88.864,416.059 
			89.07,415.383 89.265,414.259 89.819,411.471 89.937,410.842 90.462,408.637 90.504,408.501 90.457,408.413 91.158,406.113 
			91.777,404.084 91.977,403.185 92.643,401.244 93.097,399.756 93.221,399.35 94.217,396.327 94.676,395.063 94.718,394.927 
			95.431,393.075 96.22,390.728 96.391,390.411 98.087,386.788 98.511,385.883 99.572,383.619 99.789,383.389 100.001,382.937 
			101.409,380.261 102.486,378.667 103.735,376.756 105.984,373.746 106.072,373.699 106.16,373.652 108.679,370.724 
			109.674,369.401 110.758,368.031 112.506,366.421 112.506,366.421 112.506,366.421 114.695,364.575 115.001,364.299 
			117.408,362.224 118.326,361.395 120.21,359.825 122.929,357.698 123.411,357.327 125.736,355.523 126.66,354.917 126.748,354.87 
			127.407,354.406 130.132,352.502 130.703,352.085 134.575,349.569 135.852,348.776 139.5,346.266 139.853,346.078 
			140.642,345.432 142.843,344.033 143.549,343.657 145.044,342.635 146.015,342.117 147.38,341.277 148.657,340.484 
			149.892,339.826 151.434,338.891 151.699,338.75 152.535,338.192 153.152,337.863 154.7,337.152 155.23,336.87 155.23,336.87 
			155.406,336.776 157.524,335.648 159.596,334.432 159.949,334.244 162.291,333.11 162.732,332.875 164.279,332.164 
			165.297,331.735 166.845,331.024 169.234,329.979 170.428,329.456 173.347,328.128 173.658,328.075 173.923,327.934 
			176.312,326.889 177.683,326.272 179.101,325.743 180.742,325.209 181.984,324.775 182.914,324.393 185.132,323.665 
			187.038,322.989 188.368,322.508 190.939,321.592 191.827,321.345 193.38,320.858 194.71,320.376 195.775,320.036 
			197.511,319.678 199.599,319.132 200.67,319.015 202.717,318.605 203.476,318.541 204.323,318.429 206.953,318.049 
			208.517,318.008 210.524,317.733 212.535,317.681 214.277,317.547 216.024,317.637 218.482,317.573 219.288,317.597 
			220.006,317.668 222.782,317.776 223.365,317.806 225.606,317.972 228.835,318.291 229.058,318.286 229.417,318.321 
			232.376,318.558 233.946,318.742 234.305,318.777 235.923,319.049 238.528,319.474 239.205,319.68 239.834,319.798 242.534,320.4 
			244.751,321.372 244.886,321.413 247.244,322.65 247.515,322.732 248.432,323.603 249.755,324.598 249.984,324.816 
			252.147,327.176 252.429,327.706 252.711,328.235 254.48,330.919 		">
		</polygon>
		<polygon slic3r:type="contour" style="fill:#FFFFFF;stroke:#000000;stroke-miterlimit:10;" points="634.841,183.533 
			634.935,183.709 635.123,184.062 636.227,186.986 636.656,188.004 637.419,189.864 638.23,191.811 639.328,194.512 
			639.757,195.53 640.808,198.142 641.384,199.648 641.859,200.755 642.629,202.837 642.875,203.726 644.026,206.738 
			644.261,207.18 645.277,210.151 645.471,210.727 646.34,213.21 646.822,214.54 647.221,216.14 647.702,217.47 648.195,219.247 
			648.876,221.376 649.264,222.53 649.892,224.348 650.286,225.724 650.679,227.101 651.36,229.231 651.841,230.561 
			652.564,232.555 653.374,234.503 653.615,235.168 653.809,235.744 654.713,237.868 655.242,239.286 656.564,241.981 
			656.987,242.776 657.41,243.57 658.162,244.982 658.45,245.735 660.324,249.042 660.424,249.442 660.565,249.707 660.941,250.413 
			662.904,253.673 663.938,255.615 664.126,255.968 665.119,258.045 665.548,259.063 666.076,260.481 666.411,261.322 
			666.663,262.434 666.78,263.505 666.674,264.581 666.573,265.881 666.301,267.499 665.8,268.899 664.858,270.533 664.522,271.392 
			662.962,273.356 662.921,273.491 661.091,275.372 660.567,275.878 658.901,277.218 657.765,278.276 656.753,278.928 
			654.999,280.316 654.999,280.316 654.999,280.316 653.022,281.708 652.186,282.267 650.297,283.613 649.768,283.895 
			649.285,284.265 647.173,285.617 646.731,285.852 645.454,286.645 643.824,287.626 643.43,287.95 642.683,288.461 
			640.393,289.907 637.975,291.535 637.622,291.723 635.027,293.445 634.938,293.492 632.473,295.031 631.99,295.402 
			629.348,297.035 629.083,297.176 627.147,298.434 625.517,299.415 624.24,300.209 622.257,301.378 621.286,301.895 619.962,302.6 
			618.727,303.258 617.491,303.916 616.208,304.486 615.061,305.097 613.513,305.808 612.278,306.466 610.73,307.177 
			608.788,308.211 607.859,308.593 606.841,309.022 604.852,309.967 603.746,310.443 601.622,311.348 600.339,311.918 
			598.744,312.54 595.82,313.644 594.667,314.032 594.09,314.226 590.631,315.388 589.478,315.776 586.948,316.556 585.171,317.049 
			583.218,317.637 580.729,318.282 579.617,318.534 576.234,319.203 575.434,319.402 573.387,319.813 571.516,320.129 
			571.069,320.141 570.446,320.246 568.975,320.463 568.128,320.574 566.075,320.761 564.333,320.896 563.351,320.966 
			559.91,321.099 558.792,321.128 557.451,321.162 555.216,321.22 553.157,321.183 552.486,321.2 551.633,321.088 550.157,321.081 
			548.498,320.945 546.704,320.767 544.193,320.519 542.757,320.377 540.646,320.028 538.852,319.851 538.134,319.78 
			536.875,319.544 534.899,319.237 532.876,318.841 532.158,318.77 530.135,318.375 529.641,318.298 529.417,318.304 
			527.212,317.779 525.953,317.543 523.748,317.018 522.577,316.735 520.73,316.246 519.831,316.045 518.119,315.597 
			516.36,315.061 514.155,314.536 513.255,314.335 510.244,313.786 509.52,313.492 509.161,313.456 507.856,313.132 
			506.374,312.902 504.621,312.589 502.821,312.188 501.057,311.428 499.116,310.762 499.028,310.809 497.399,310.09 
			494.041,308.253 493.771,308.17 493.677,307.994 493.177,307.693 490.443,305.751 489.849,305.274 488.838,304.226 
			487.421,303.055 485.951,301.571 485.81,301.307 485.116,300.43 483.964,299.117 483.776,298.764 483.271,298.24 482.013,296.304 
			481.455,295.469 481.079,294.763 480.556,293.568 479.416,291.003 479.322,290.826 479.228,290.65 478.295,287.408 
			477.99,285.984 477.585,284.16 476.911,280.554 476.805,279.931 476.8,279.707 476.741,279.172 476.431,275.824 476.11,272.03 
			476.151,271.895 476.104,271.807 475.789,268.236 475.755,266.895 475.479,264.889 475.374,264.265 474.822,261.953 
			474.482,260.888 473.818,259.429 473.63,259.076 472.972,257.84 472.46,257.093 470.803,255.256 470.25,254.644 469.427,253.95 
			469.063,253.691 468.333,253.172 466.516,252.101 465.746,251.718 462.353,250.239 462.218,250.198 459.918,249.497 
			458.024,248.919 457.977,248.831 457.618,248.795 454.466,247.982 453.837,247.864 451.678,247.427 451.59,247.474 
			449.931,247.338 447.778,247.125 446.837,247.059 445.896,246.994 441.825,247.009 439.32,246.984 437.931,246.93 
			435.831,247.029 435.072,247.093 432.972,247.192 429.89,247.361 429.131,247.425 428.46,247.442 425.154,247.617 
			422.425,247.597 420.325,247.696 417.46,247.636 416.431,247.617 415.849,247.588 412.984,247.527 412.672,247.58 
			412.537,247.539 412.09,247.55 409.537,247.437 408.684,247.324 406.443,247.158 404.873,246.975 403.931,246.91 403.078,246.797 
			401.284,246.62 399.355,246.401 396.62,246.158 396.126,246.081 395.097,246.063 392.273,245.867 391.285,245.714 
			389.944,245.748 388.156,245.794 386.456,245.793 385.114,245.828 382.526,246.073 382.302,246.079 380.52,246.348 
			379.185,246.606 378.961,246.612 378.473,246.759 375.755,247.187 373.443,247.738 372.596,247.849 372.195,247.949 
			371.484,248.102 369.66,248.507 368.366,248.629 366.807,248.893 363.283,249.297 362.571,249.449 361.724,249.561 
			359.047,249.853 358.024,250.058 356.906,250.087 356.012,250.11 354.671,250.144 353.147,250.049 352.024,249.855 
			349.424,249.653 346.042,248.622 345.413,248.504 344.96,248.291 344.413,247.903 342.073,245.637 341.515,244.801 
			341.028,243.248 340.223,241.524 339.936,239.071 339.772,237.912 339.808,237.553 339.879,236.835 340.24,233.471 
			340.547,231.495 340.948,229.695 341.237,228.748 341.561,227.442 341.897,226.584 342.775,224.19 342.981,223.514 
			343.152,223.196 344.606,220.609 345.978,218.292 346.108,218.11 346.367,217.745 348.21,214.611 349.075,213.47 349.764,212.424 
			351.548,210.454 351.807,210.09 351.936,209.907 352.543,209.131 354.155,207.479 355.374,206.151 355.851,205.557 
			357.587,203.499 358.712,201.994 359.671,201.03 360.148,200.436 360.76,199.883 362.549,198.137 364.38,196.256 364.556,196.162 
			366.351,194.64 367.658,193.264 368.706,192.253 369.748,191.018 369.966,190.789 370.313,190.378 371.926,188.726 
			373.056,187.444 373.58,186.938 374.321,186.203 375.622,184.604 376.017,184.281 376.582,183.64 377.235,182.952 
			380.579,179.019 380.667,178.972 380.667,178.972 380.667,178.972 381.668,177.873 383.192,176.268 384.234,175.033 
			385.847,173.381 385.976,173.199 385.976,173.199 388.03,171.312 389.125,170.389 390.214,169.243 391.785,167.726 
			391.827,167.591 391.915,167.544 392.044,167.361 393.793,165.751 394.487,164.928 395.011,164.422 395.623,163.869 
			396.5,163.176 398.113,161.524 398.548,161.065 398.854,160.789 399.331,160.195 400.985,158.408 402.851,156.168 403.022,155.85 
			406.548,152.047 407.372,151.041 407.678,150.765 408.067,150.218 409.986,148.29 410.945,147.326 411.769,146.32 
			413.158,144.674 413.506,144.263 415.295,142.517 416.119,141.511 416.861,140.776 417.732,139.859 418.691,138.895 
			420.528,137.237 420.922,136.914 422.634,135.662 424.653,134.134 425.4,133.623 426.012,133.07 426.978,132.33 429.131,130.843 
			429.614,130.472 430.797,129.503 433.169,127.786 434.134,127.046 436.552,125.418 437.435,124.948 437.7,124.807 438.889,124.06 
			439.153,123.919 441.625,122.603 442.507,122.133 443.92,121.381 445.732,120.529 446.35,120.2 449.527,118.508 449.792,118.367 
			449.969,118.273 454.393,116.37 454.393,116.37 454.57,116.276 458.777,114.602 460.771,113.88 462.366,113.257 463.607,112.823 
			465.649,112.188 467.643,111.466 468.843,111.167 470.397,110.68 471.997,110.281 473.685,109.835 475.509,109.43 476.309,109.23 
			480.133,108.327 481.245,108.074 483.422,107.482 484.134,107.329 485.158,107.124 486.805,106.813 487.293,106.666 
			490.811,106.039 490.947,106.08 491.258,106.028 494.2,105.594 495.806,105.419 497.412,105.243 498.618,105.167 501.03,105.016 
			504.424,104.794 504.824,104.695 505.094,104.777 508.941,104.768 509.794,104.88 510.777,104.81 512.93,105.023 513.559,105.141 
			515.312,105.454 517.517,105.979 518.376,106.315 520.54,106.975 521.805,107.434 522.075,107.517 522.887,107.764 
			525.057,108.648 526.321,109.108 527.227,109.532 528.95,110.427 530.443,111.104 531.761,111.876 533.801,112.942 
			533.983,113.071 535.753,114.055 537.659,115.079 538.476,115.55 541.063,117.005 541.881,117.476 544.286,118.801 545.15,119.36 
			547.508,120.597 547.961,120.809 550.137,121.916 553.077,123.183 553.53,123.395 554.118,123.648 556.965,124.738 
			558.817,125.451 560.758,126.117 562.246,126.571 563.328,126.901 565.133,127.525 565.539,127.649 566.757,128.021 
			568.068,128.568 568.792,128.863 570.962,129.747 574.031,130.831 574.62,131.084 575.114,131.161 577.96,132.251 
			578.548,132.504 580.624,133.211 580.759,133.253 580.942,133.382 583.435,134.66 585.476,135.726 586.428,136.238 
			587.152,136.533 589.421,137.817 591.462,138.883 592.461,139.483 594.919,141.12 595.695,141.726 598.794,143.928 
			599.023,144.146 602.175,146.66 602.951,147.266 606.108,150.003 606.749,150.568 610.135,153.523 610.547,153.871 
			614.074,157.091 614.121,157.179 614.304,157.308 617.331,160.228 617.655,160.622 618.389,161.364 620.135,163.153 
			622.522,165.507 622.616,165.684 622.751,165.725 625.244,168.703 626.12,169.71 627.877,171.946 629.317,174.012 
			629.734,174.582 631.362,177.001 631.785,177.795 633.143,180.132 633.607,180.791 		">
		</polygon>
	</g>
</g>
<g id="Layer_1">
</g>
</svg>
