<?xml version="1.0" encoding="iso-8859-1"?>
<!-- Generator: Adobe Illustrator 19.2.1, SVG Export Plug-In . SVG Version: 6.00 Build 0)  -->
<svg version="1.1" xmlns="http://www.w3.org/2000/svg" xmlns:xlink="http://www.w3.org/1999/xlink" x="0px" y="0px"
	 viewBox="0 0 841.89 595.28" style="enable-background:new 0 0 841.89 595.28;" xml:space="preserve">
<g id="layer238">
	<g id="layer238_1_" slic3r:z="9.54000000000008e-005">
		<polygon slic3r:type="contour" style="fill:#FFFFFF;stroke:#000000;stroke-miterlimit:10;" points="769.671,200.779 
			769.718,200.868 769.865,201.356 770.3,202.597 770.399,202.998 770.657,204.333 770.897,206.698 770.979,208.127 
			770.878,209.427 770.789,211.174 770.558,212.656 770.358,213.556 770.281,214.05 770.039,215.086 769.261,217.879 
			768.636,219.685 768.554,219.955 767.888,221.896 767.381,223.072 766.062,225.701 765.467,226.924 764.183,229.194 
			763.883,229.694 763.665,229.923 762.382,232.193 761.563,233.422 760.698,234.562 759.403,236.385 759.014,236.932 
			757.195,239.26 757.065,239.442 755.635,241.224 754.987,242.135 754.811,242.229 754.728,242.5 752.815,244.652 751.862,245.839 
			750.861,246.939 749.119,248.773 749.077,248.908 747.335,250.742 746.423,251.795 745.51,252.847 744.816,253.67 
			743.638,254.864 742.196,256.198 740.584,257.85 739.842,258.585 738.971,259.502 737.705,260.742 736.658,261.753 
			735.916,262.488 734.121,264.011 733.685,264.469 733.509,264.563 733.291,264.793 730.972,266.821 730.048,267.426 
			728.342,268.901 727.594,269.413 726.406,270.159 725.217,270.905 724.028,271.652 723.322,272.028 722.792,272.31 
			720.586,273.485 719.262,274.19 718.379,274.66 716.167,275.612 714.796,276.228 714.484,276.281 714.219,276.422 
			713.643,276.616 710.583,277.679 707.918,278.418 707.03,278.665 706.63,278.765 706.277,278.953 705.253,279.158 
			702.141,279.909 700.629,280.261 698.317,280.812 695.251,281.652 694.363,281.898 693.875,282.045 689.968,283.219 
			688.462,283.795 685.891,284.711 683.367,285.715 683.102,285.856 680.713,286.902 678.018,288.224 677.618,288.323 
			677.441,288.417 674.57,289.833 672.187,291.102 671.699,291.249 670.245,292.137 668.127,293.265 667.774,293.453 
			667.421,293.641 664.996,295.045 664.555,295.28 663.278,296.074 662.219,296.638 661.336,297.108 660.059,297.901 
			658.606,298.788 658.606,298.788 657.017,299.634 655.652,300.475 653.539,301.826 652.833,302.202 651.156,303.096 
			649.132,304.4 648.69,304.635 647.943,305.147 646.401,306.081 645.83,306.498 643.671,307.762 643.23,307.997 642.835,308.32 
			641.776,308.884 639.97,309.959 638.91,310.523 637.763,311.134 636.751,311.787 635.692,312.351 634.368,313.056 
			634.015,313.244 632.426,314.09 631.808,314.419 630.967,314.754 628.007,316.217 626.595,316.969 624.076,318.197 
			623.411,318.437 621.07,319.571 618.945,320.476 617.751,320.999 615.803,321.809 614.697,322.285 613.944,322.573 
			612.75,323.096 611.773,323.389 610.667,323.865 609.514,324.253 608.896,324.582 607.343,325.069 605.836,325.644 
			604.418,326.173 602.6,326.801 598.611,328.246 598.435,328.34 598.346,328.387 598.346,328.387 597.329,328.816 593.651,330.208 
			593.387,330.349 589.003,332.117 588.603,332.216 584.267,334.072 583.778,334.219 579.795,335.887 578.953,336.222 
			577.759,336.745 576.253,337.321 574.923,337.802 573.152,338.519 571.158,339.241 568.01,340.351 567.568,340.586 
			567.257,340.639 564.462,341.56 562.285,342.153 561.62,342.394 559.532,342.94 558.732,343.139 558.643,343.186 557.796,343.298 
			554.996,343.996 554.419,344.19 552.06,344.653 550.325,345.011 549.925,345.11 549.389,345.169 546.318,345.785 545.024,345.907 
			542.441,346.376 542.041,346.476 541.33,346.629 539.323,346.904 538.3,347.109 536.741,347.373 534.246,347.795 534.158,347.842 
			534.023,347.801 531.352,348.317 529.617,348.674 528.993,348.78 527.834,348.944 526.499,349.202 525.74,349.266 
			523.734,349.542 521.551,349.911 521.016,349.969 519.857,350.133 517.851,350.409 517.268,350.379 513.698,350.694 
			513.474,350.7 513.386,350.747 513.251,350.706 510.48,350.822 509.139,350.856 507.709,350.938 505.027,351.007 505.027,351.007 
			504.939,351.054 502.433,351.029 500.956,351.022 499.974,351.092 496.844,351.172 496.533,351.225 496.262,351.142 
			492.597,351.281 489.197,351.279 488.215,351.349 486.874,351.384 484.056,351.411 482.98,351.305 479.985,351.427 
			479.538,351.438 475.785,351.624 473.415,351.64 471.626,351.686 468.768,351.849 467.962,351.825 466.667,351.948 
			465.638,351.93 464.209,352.011 462.867,352.046 461.885,352.116 459.426,352.179 457.279,352.189 455.756,352.094 
			453.65,351.969 451.768,351.839 450.691,351.732 447.638,351.319 447.009,351.201 446.874,351.159 446.515,351.124 
			443.145,350.54 441.616,350.221 440.133,349.991 437.663,349.607 437.216,349.618 436.228,349.465 434.793,349.323 
			433.222,349.139 430.934,348.885 430.128,348.861 427.481,348.571 426.493,348.418 426.27,348.423 425.823,348.435 
			422.729,348.156 420.358,348.173 420.27,348.22 419.823,348.231 417.723,348.33 417.323,348.43 414.516,348.904 412.822,349.127 
			411.398,349.432 409.439,349.795 405.88,350.558 405.704,350.652 405.615,350.699 402.462,351.585 401.085,351.979 
			400.244,352.313 398.914,352.795 396.831,353.564 395.325,354.14 394.219,354.616 391.783,355.573 389.971,356.425 
			389.794,356.519 389.659,356.478 387.846,357.329 386.917,357.711 384.351,358.851 383.598,359.139 383.245,359.327 
			382.627,359.656 380.109,360.884 377.767,362.017 376.796,362.534 376.09,362.91 373.442,364.321 372.118,365.026 
			371.236,365.496 370.577,365.96 368.811,366.9 366.916,368.023 366.828,368.07 363.345,370.038 363.168,370.132 362.815,370.32 
			359.949,371.959 358.408,372.894 357.702,373.27 356.954,373.781 355.636,374.71 354.583,375.497 353.617,376.238 
			353.047,376.655 350.639,378.73 349.197,380.065 347.844,381.352 345.925,383.28 345.837,383.327 344.353,384.797 
			342.741,386.449 342.435,386.725 341.822,387.278 338.509,390.629 337.855,391.317 337.067,391.963 336.849,392.192 
			335.501,393.703 334.5,394.803 333.235,396.043 332.364,396.96 331.451,398.013 330.886,398.654 329.014,400.67 327.06,402.957 
			326.671,403.504 326.018,404.192 324.717,405.791 324.193,406.297 323.934,406.661 323.416,407.39 321.98,408.948 
			320.461,410.777 320.508,410.865 320.331,410.959 317.871,414.422 317.441,415.104 316.793,416.016 316.016,417.109 
			314.291,419.614 314.032,419.979 312.478,422.166 311.441,423.624 311.312,423.806 310.576,424.765 308.975,426.864 
			308.109,428.004 307.285,429.01 306.379,430.286 305.731,431.197 304.819,432.249 303.565,433.937 303.005,434.801 
			302.399,435.577 302.14,435.942 301.663,436.536 300.315,438.047 298.625,440.193 298.278,440.604 297.931,441.016 
			297.584,441.427 296.542,442.662 295.029,444.714 294.246,445.584 293.598,446.496 292.515,447.865 291.691,448.871 
			290.908,449.741 289.954,450.929 289.042,451.981 288.306,452.939 287.134,454.356 285.616,456.185 285.268,456.596 
			284.921,457.008 283.791,458.29 281.578,460.941 281.489,460.988 281.271,461.217 279.358,463.369 277.969,465.015 
			277.663,465.292 277.01,465.98 275.138,467.996 274.485,468.684 274.355,468.866 272.701,470.653 271.312,472.3 270.788,472.805 
			269.44,474.316 268.616,475.322 268.398,475.551 267.745,476.239 267.268,476.832 266.485,477.703 265.049,479.261 
			264.001,480.272 263.654,480.683 261.823,482.564 260.04,484.534 259.863,484.628 259.734,484.81 258.815,485.639 
			256.243,488.255 255.455,488.902 252.265,491.847 251.917,492.258 250.122,493.781 248.286,495.439 247.633,496.126 
			246.932,496.726 246.232,497.326 245.573,497.79 244.26,498.942 243.295,499.683 242.507,500.329 240.706,501.628 238.993,502.88 
			238.728,503.021 237.057,504.138 235.251,505.213 234.544,505.589 234.191,505.777 231.367,507.281 231.279,507.328 
			228.89,508.374 226.589,509.372 225.66,509.754 224.065,510.377 222.559,510.952 221.229,511.434 219.411,512.062 218.57,512.397 
			214.975,513.518 214.398,513.712 213.598,513.912 210.845,514.698 208.844,515.197 207.421,515.502 205.109,516.053 
			204.085,516.259 202.038,516.669 202.038,516.669 201.949,516.716 200.167,516.986 199.455,517.138 197.761,517.361 
			196.825,517.519 195.978,517.63 195.443,517.689 193.925,517.817 193.525,517.917 193.39,517.876 191.337,518.063 190.49,518.174 
			188.925,518.214 187.184,518.348 185.754,518.43 183.072,518.499 182.401,518.516 179.184,518.644 178.019,518.584 
			175.336,518.653 173.189,518.663 171.801,518.61 170.684,518.638 168.937,518.549 167.819,518.578 165.354,518.417 
			164.548,518.393 161.501,518.203 161.054,518.215 161.007,518.127 157.155,517.913 156.661,517.836 155.855,517.812 
			153.52,517.469 152.22,517.368 149.973,516.979 149.255,516.908 149.032,516.913 148.761,516.831 145.526,516.288 144.897,516.17 
			142.874,515.774 141.433,515.409 139.409,515.013 137.021,514.359 136.704,514.188 136.298,514.065 134.134,513.404 
			131.969,512.744 131.158,512.497 128.764,511.619 128.629,511.577 126.777,510.865 125.33,510.275 124.559,509.893 
			124.018,509.728 121.249,508.144 120.843,508.02 120.343,507.72 118.573,506.736 117.391,506.006 116.662,505.488 115.98,505.058 
			115.022,504.322 114.157,503.763 110.735,501.167 109.095,500.001 108.501,499.524 106.855,498.135 103.886,495.751 
			102.88,494.927 100.27,492.578 99.629,492.013 97.701,490.094 96.184,488.522 91.869,484.249 89.206,481.589 87.049,479.452 
			85.397,477.839 83.468,475.921 82.046,474.526 79.518,471.906 78.413,470.682 76.714,468.981 76.161,468.369 75.15,467.321 
			74.55,466.621 74.321,466.403 73.21,464.956 72.84,464.473 72.235,463.549 71.906,462.931 71.524,462.002 70.302,459.707 
			69.162,457.141 68.587,455.635 67.958,453.817 67.424,452.176 66.679,449.287 66.585,449.11 66.526,448.575 66.14,445.722 
			65.987,445.01 65.724,441.751 65.72,439.827 65.657,437.369 65.73,433.251 65.73,433.251 65.73,433.251 65.73,433.251 
			65.938,429.175 66.045,428.098 66.222,426.304 66.37,425.093 66.465,423.569 66.731,421.728 66.884,420.74 66.985,419.44 
			67.15,418.899 67.534,416.429 68.124,413.282 68.278,412.294 68.396,411.664 69.327,407.883 69.445,407.253 70.342,403.83 
			70.589,403.019 71.291,400.719 72.039,398.508 72.369,397.426 73.33,394.761 74.042,392.909 74.844,391.009 75.562,389.38 
			76.658,386.758 76.787,386.575 76.829,386.44 78.148,383.811 78.955,382.135 79.379,381.23 80.828,378.419 80.916,378.372 
			80.957,378.237 82.494,375.379 83.731,373.021 84.161,372.339 84.461,371.839 86.345,368.569 86.558,368.117 87.029,367.299 
			88.318,365.253 89.561,363.118 89.82,362.754 90.208,362.207 91.627,359.978 92.663,358.52 93.917,356.833 95.825,354.457 
			96.084,354.093 96.778,353.27 98.338,351.306 99.074,350.348 100.599,348.743 102.341,346.909 103.212,345.991 104.866,344.204 
			107.703,341.447 107.703,341.447 107.703,341.447 107.703,341.447 110.675,338.731 111.635,337.767 111.941,337.491 
			113.124,336.521 113.695,336.104 114.878,335.134 116.237,334.07 116.896,333.606 119.003,332.03 120.009,331.155 
			122.116,329.579 122.599,329.209 122.993,328.886 125.1,327.311 126.024,326.705 127.077,325.918 128.79,324.666 131.161,322.95 
			131.338,322.856 131.603,322.715 134.328,320.81 135.116,320.164 138.017,318.166 138.017,318.166 138.147,317.983 
			140.212,316.543 140.783,316.126 142.278,315.103 143.29,314.451 145.179,313.105 146.28,312.406 147.027,311.895 
			148.916,310.549 149.84,309.943 150.105,309.802 150.411,309.526 152.653,307.992 153.753,307.293 154.677,306.687 
			156.966,305.242 157.714,304.73 159.385,303.614 160.132,303.103 163.034,301.104 163.122,301.057 163.21,301.01 165.629,299.382 
			167.082,298.495 167.653,298.078 170.207,296.491 170.954,295.98 172.843,294.634 173.285,294.399 174.956,293.282 
			175.703,292.771 177.069,291.93 178.081,291.278 179.487,290.303 180.193,289.926 180.323,289.744 181.512,288.998 
			183.359,287.787 183.665,287.511 184.019,287.323 186.79,285.507 188.108,284.578 189.956,283.368 191.539,282.298 
			192.416,281.605 193.293,280.911 194.611,279.982 195.535,279.377 196.989,278.49 198.13,277.655 200.814,275.886 
			201.208,275.563 203.274,274.123 204.021,273.612 204.062,273.476 204.633,273.059 207.181,271.249 208.058,270.555 
			209.2,269.721 210.342,268.886 212.843,266.988 213.455,266.435 213.72,266.294 214.202,265.924 216.091,264.578 217.451,263.514 
			218.416,262.773 220.699,261.104 221.623,260.499 222.235,259.946 223.112,259.253 223.553,259.018 224.342,258.371 
			225.484,257.536 226.802,256.608 229.085,254.939 230.05,254.198 230.751,253.598 231.804,252.811 232.157,252.623 
			233.122,251.882 234.088,251.142 235.406,250.213 237.336,248.732 238.39,247.944 239.355,247.204 240.361,246.328 
			241.108,245.816 241.897,245.17 243.739,243.736 244.133,243.412 244.398,243.271 246.764,241.332 247.947,240.362 
			248.736,239.715 249.877,238.881 250.448,238.463 251.06,237.911 252.596,236.753 254.221,235.548 256.063,234.114 
			257.028,233.373 259.617,231.428 259.706,231.381 259.706,231.381 262.342,229.524 264.402,227.86 265.502,227.161 
			268.268,225.121 268.927,224.657 269.41,224.287 269.981,223.869 272.046,222.429 273.229,221.46 273.671,221.225 
			274.153,220.854 276.436,219.185 276.919,218.815 277.007,218.768 277.184,218.674 279.338,217.187 280.744,216.211 
			281.668,215.606 282.151,215.236 283.116,214.495 284.305,213.749 285.664,212.685 287.247,211.615 288.124,210.922 
			290.101,209.529 291.902,208.23 292.561,207.765 293.879,206.837 294.538,206.373 296.645,204.797 297.216,204.38 
			298.623,203.404 299.635,202.752 300.6,202.012 301.347,201.5 302.536,200.754 302.801,200.613 303.548,200.102 306.143,198.38 
			306.408,198.239 306.979,197.821 307.903,197.216 309.662,196.052 310.451,195.406 311.287,194.847 313.487,193.449 
			314.894,192.473 315.07,192.379 315.512,192.144 315.6,192.097 316.436,191.539 319.254,189.811 319.784,189.529 320.049,189.388 
			322.956,187.613 324.015,187.049 324.191,186.955 324.674,186.585 328.246,184.57 329.57,183.864 331.111,182.93 332.524,182.178 
			333.318,181.755 334.507,181.009 336.666,179.745 339.309,178.112 340.497,177.365 340.939,177.13 341.733,176.707 
			344.199,175.167 345.211,174.515 346.046,173.957 347.853,172.881 348.777,172.276 349.436,171.812 353.532,169.291 
			353.62,169.244 353.708,169.197 355.162,168.309 357.933,166.493 358.022,166.446 358.022,166.446 361.058,164.49 362.158,163.79 
			362.423,163.649 362.906,163.279 366.425,160.952 367.39,160.211 367.961,159.794 368.797,159.235 370.244,158.125 
			370.639,157.801 371.957,156.873 372.263,156.596 373.669,155.621 374.941,154.604 376.17,153.722 376.918,153.211 
			378.148,152.329 379.16,151.677 380.655,150.654 382.502,149.444 383.379,148.75 383.997,148.421 385.492,147.398 
			387.646,145.912 388.658,145.259 389.405,144.748 389.8,144.425 391.424,143.22 391.953,142.938 393.49,141.78 394.19,141.18 
			396.208,139.652 397.568,138.588 398.139,138.171 398.533,137.848 399.981,136.737 400.463,136.366 402.258,134.844 
			402.741,134.474 404.801,132.81 405.631,132.028 406.378,131.517 406.949,131.1 408.485,129.942 410.374,128.596 411.386,127.944 
			413.452,126.504 415.741,125.058 415.87,124.876 415.959,124.829 417.5,123.894 420.578,121.802 421.326,121.291 421.679,121.103 
			422.909,120.221 425.021,118.87 426.033,118.217 426.869,117.659 428.628,116.495 429.817,115.749 430.258,115.514 
			432.33,114.298 434.448,113.169 434.801,112.981 435.943,112.147 438.232,110.701 438.673,110.466 439.332,110.002 
			439.421,109.955 442.975,107.269 443.811,106.71 444.599,106.064 445.788,105.318 447.2,104.565 448.613,103.813 451.308,102.491 
			451.396,102.444 451.484,102.397 453.873,101.352 455.509,100.594 456.75,100.16 459.451,99.061 460.116,98.82 460.469,98.632 
			464.105,97.376 464.281,97.282 466.588,96.507 467.476,96.26 468.941,95.82 470.583,95.286 471.383,95.086 472.983,94.687 
			474.671,94.241 476.719,93.83 477.519,93.631 479.254,93.273 479.79,93.215 481.349,92.951 482.731,92.781 483.131,92.681 
			483.755,92.576 485.626,92.259 487.279,92.172 487.637,92.208 487.814,92.114 491.255,91.981 491.879,91.875 494.738,91.712 
			494.873,91.753 496.973,91.655 498.849,91.562 500.279,91.48 502.867,91.235 503.938,91.118 506.703,90.778 507.374,90.761 
			510.18,90.286 510.403,90.28 511.562,90.116 513.656,89.794 514.192,89.736 517.174,89.167 517.886,89.014 520.734,88.404 
			521.981,88.193 523.981,87.695 525.982,87.196 526.87,86.949 527.447,86.755 529.712,86.116 529.8,86.069 531.977,85.476 
			533.306,84.994 534.901,84.372 536.407,83.796 536.984,83.602 539.596,82.551 539.773,82.457 540.214,82.222 542.162,81.412 
			543.75,80.565 545.563,79.714 546.975,78.961 547.857,78.491 549.976,77.363 550.417,77.128 550.858,76.893 552.93,75.677 
			553.195,75.536 554.96,74.596 556.502,73.661 558.443,72.627 559.149,72.251 560.162,71.599 560.426,71.458 561.397,70.941 
			563.033,70.183 564.316,69.613 565.552,68.955 566.834,68.385 567.811,68.092 568.523,67.939 569.411,67.693 570.082,67.676 
			571.823,67.541 572.582,67.477 573.164,67.507 574.511,67.696 576.352,67.962 576.623,68.044 578.605,68.575 581.539,69.618 
			582.127,69.871 582.533,69.995 583.392,70.331 586.156,71.691 588.561,73.016 589.378,73.487 592.747,75.772 593.2,75.984 
			593.565,76.243 596.799,78.486 597.116,78.657 597.434,78.827 601.338,81.053 601.427,81.006 601.879,81.218 604.908,82.438 
			605.537,82.556 609.125,82.911 609.619,82.988 610.108,82.841 614.42,81.791 614.508,81.744 614.685,81.65 617.786,80.452 
			618.315,80.17 621.899,78.601 621.987,78.554 622.075,78.507 625.488,77.256 626.152,77.016 628.559,76.641 629.182,76.535 
			631.059,76.442 632.864,77.067 633.405,77.232 633.499,77.408 633.635,77.45 634.675,77.915 636.757,78.846 637.21,79.058 
			639.162,80.171 640.974,81.019 641.656,81.449 642.973,82.22 644.155,82.95 645.248,83.727 646.66,84.675 647.936,85.582 
			650.435,87.083 650.799,87.342 650.981,87.472 651.299,87.643 654.069,89.227 655.203,89.869 657.062,90.805 658.379,91.576 
			659.596,91.948 660.414,92.419 660.867,92.631 662.178,93.179 662.901,93.473 663.895,93.85 664.213,94.021 666.559,94.811 
			667.824,95.27 669.894,95.754 671.153,95.99 672.635,96.22 673.623,96.374 674.611,96.527 677.341,96.547 678.282,96.612 
			679.664,96.442 680.958,96.32 683.547,96.074 683.947,95.974 684.17,95.969 685.288,95.94 686.094,95.964 687.176,96.294 
			688.799,96.789 689.252,97.001 690.199,97.29 691.963,98.05 692.504,98.215 693.639,98.857 694.956,99.628 696.726,100.611 
			698.132,101.336 699.043,101.983 699.861,102.455 701.095,103.496 701.73,103.838 702.054,104.232 702.465,104.58 
			705.169,107.105 705.352,107.234 705.399,107.323 708.526,110.642 708.808,111.172 710.806,114.073 712.034,116.591 
			712.269,117.033 712.457,117.386 713.462,119.91 713.855,121.287 714.448,123.463 714.753,124.887 715.005,125.999 
			715.316,127.646 715.322,127.87 715.632,129.517 715.96,131.835 715.978,132.506 716.105,135.723 716.028,136.217 
			715.862,138.458 715.832,139.041 715.797,139.4 715.619,141.194 715.448,143.211 715.112,144.07 714.887,145.775 714.439,147.487 
			712.862,148.78 711.944,149.609 711.096,149.72 710.15,149.431 707.208,149.865 705.737,150.082 703.444,149.604 701.467,149.297 
			699.679,149.343 696.038,148.676 695.274,148.516 695.138,148.475 694.868,148.393 691.856,147.844 690.239,147.572 
			688.751,147.118 687.492,146.882 685.287,146.357 684.387,146.157 682.811,145.75 681.593,145.379 680.646,145.09 679.07,144.683 
			678.306,144.524 676.412,143.946 675.918,143.869 675.647,143.787 672.63,143.014 671.507,142.82 668.489,142.047 
			667.454,141.805 665.025,141.286 663.855,141.003 662.414,140.638 661.561,140.525 660.796,140.366 659.449,140.177 
			657.744,139.952 656.485,139.716 655.279,139.792 653.85,139.874 652.873,140.167 651.984,140.414 651.408,140.607 
			650.661,141.119 649.701,142.083 649.095,142.859 649.035,144.024 648.84,145.147 648.922,146.577 649.027,147.2 649.656,149.018 
			650.008,150.53 650.719,152.078 651.435,153.849 651.905,154.731 652.751,156.32 652.892,156.585 653.691,158.085 
			654.261,159.368 655.848,161.922 656.412,162.981 657.487,164.788 657.581,164.964 657.628,165.052 658.886,166.988 
			659.538,168.001 660.561,169.495 660.884,169.89 662.183,171.69 662.877,172.567 663.758,173.797 664.317,174.633 
			665.427,176.081 665.657,176.298 666.168,177.046 666.679,177.793 667.931,179.506 668.072,179.771 668.302,179.988 
			669.883,182.319 670.535,183.331 671.698,185.09 671.839,185.355 671.981,185.62 672.874,187.297 673.626,188.709 
			674.096,189.592 675.1,192.116 675.341,192.781 676.221,195.711 676.409,196.064 677.084,199.67 677.289,200.694 677.393,203.017 
			677.563,204.4 677.533,204.982 677.415,205.612 677.402,208.564 677.46,209.1 677.419,209.235 677.312,212.011 677.34,213.129 
			677.281,214.294 677.268,215.547 677.327,216.082 677.455,217.6 677.561,218.223 677.608,218.312 677.707,218.712 
			677.907,219.512 678.189,220.041 679.018,220.96 679.065,221.048 679.065,221.048 679.518,221.26 680.423,221.684 
			680.512,221.637 682.029,221.508 682.253,221.503 683.759,220.927 684.906,220.316 685.613,219.94 686.23,219.611 
			687.549,218.682 688.119,218.265 690.179,216.602 690.444,216.461 690.574,216.278 692.722,214.568 693.116,214.245 
			695.176,212.581 695.523,212.17 696.094,211.752 698.46,209.813 700.349,208.467 701.273,207.861 702.903,206.88 702.991,206.833 
			704.974,205.664 706.08,205.188 707.098,204.759 708.334,204.101 710.193,203.337 712.723,202.557 714.012,202.21 
			715.165,201.823 717.212,201.412 718.412,201.113 720.148,200.755 722.019,200.439 724.607,200.193 724.919,200.14 
			725.142,200.135 725.766,200.029 728.666,199.731 729.648,199.661 732.731,199.492 733.49,199.428 736.213,199.224 
			737.155,199.289 739.208,199.102 740.902,198.88 742.731,198.698 744.514,198.429 746.608,198.107 747.455,197.995 
			747.855,197.896 749.809,197.309 750.609,197.109 751.009,197.009 752.827,196.381 753.404,196.187 754.286,195.717 
			755.569,195.147 756.716,194.536 757.511,194.113 757.864,193.925 759.052,193.179 759.229,193.085 759.405,192.991 
			759.935,192.709 760.47,192.65 760.735,192.509 760.87,192.551 762.082,192.698 763.211,193.117 763.346,193.158 764.346,193.759 
			765.846,194.659 766.169,195.054 767.321,196.366 767.926,197.29 768.631,198.614 		">
		</polygon>
	</g>
</g>
<g id="Layer_1">
</g>
</svg>
