<?xml version="1.0" encoding="iso-8859-1"?>
<!-- Generator: Adobe Illustrator 19.2.1, SVG Export Plug-In . SVG Version: 6.00 Build 0)  -->
<svg version="1.1" xmlns="http://www.w3.org/2000/svg" xmlns:xlink="http://www.w3.org/1999/xlink" x="0px" y="0px"
	 viewBox="0 0 841.89 595.28" style="enable-background:new 0 0 841.89 595.28;" xml:space="preserve">
<g id="layer211">
	<g id="layer211_1_" slic3r:z="8.46000000000007e-005">
		<polygon slic3r:type="contour" style="fill:#FFFFFF;stroke:#000000;stroke-miterlimit:10;" points="736.33,229.865 
			736.988,231.101 737.393,232.924 737.493,233.325 737.54,233.413 737.557,234.083 737.573,236.454 737.626,236.766 
			737.159,239.507 737.006,240.495 736.346,242.659 736.057,243.606 735.474,245.276 734.755,246.905 734.29,247.946 
			732.829,250.31 732.829,250.31 732.829,250.31 730.958,252.326 729.662,254.149 729.533,254.331 727.838,256.254 727.661,256.348 
			725.601,258.011 725.077,258.517 723.006,259.733 720.464,261.767 719.716,262.278 719.281,262.737 716.862,264.365 
			716.862,264.365 714.873,265.311 712.531,266.445 712.355,266.539 712.267,266.586 709.431,267.643 707.93,268.442 
			707.842,268.489 706.065,268.982 703.582,269.851 702.917,270.092 701.982,270.25 700.158,270.655 699.264,270.678 
			698.105,270.842 696.681,271.147 695.746,271.305 694.628,271.334 692.758,271.65 692.399,271.615 690.04,272.078 
			689.904,272.037 687.451,272.324 686.604,272.435 684.951,272.522 683.257,272.745 682.498,272.809 679.739,273.372 
			679.515,273.378 679.339,273.472 676.362,274.264 675.826,274.322 675.562,274.463 674.72,274.798 672.149,275.714 
			671.267,276.184 669.678,277.03 668.925,277.318 666.848,278.311 665.129,279.339 664.158,279.856 663.323,280.415 
			661.469,281.402 658.915,282.988 658.827,283.036 658.651,283.13 656.003,284.54 654.42,285.609 653.36,286.173 652.613,286.685 
			651.424,287.431 650.277,288.042 649.441,288.6 648.117,289.305 645.21,291.08 645.21,291.08 645.21,291.08 642.215,292.902 
			640.585,293.883 639.09,294.906 637.019,296.122 635.83,296.869 633.318,298.32 631.953,299.16 631.246,299.536 627.945,301.634 
			627.416,301.916 624.991,303.321 623.049,304.355 621.902,304.966 621.372,305.248 617.842,307.128 617.442,307.228 
			617.354,307.275 617,307.463 613.158,309.396 612.581,309.59 611.699,310.06 609.18,311.288 606.792,312.333 606.127,312.574 
			605.244,313.044 602.72,314.048 600.637,314.818 599.708,315.2 598.113,315.822 596.518,316.445 595.589,316.826 593.106,317.695 
			591.288,318.324 589.646,318.858 587.693,319.445 586.14,319.932 584.322,320.561 581.922,321.159 580.768,321.547 
			577.033,322.403 576.944,322.45 576.632,322.503 572.985,323.313 571.738,323.524 568.802,324.181 566.084,324.608 
			564.837,324.819 562.519,325.147 561.448,325.264 560.913,325.323 558.366,325.433 556.178,325.579 553.942,325.636 
			551.707,325.694 549.248,325.757 549.248,325.757 549.201,325.669 546.472,325.649 546.16,325.702 543.56,325.501 
			542.037,325.406 540.378,325.269 539.66,325.198 537.866,325.021 535.984,324.89 534.996,324.737 532.796,324.435 
			530.867,324.216 529.384,323.986 528.396,323.833 526.285,323.484 524.667,323.213 523.003,322.853 520.438,322.292 
			519.809,322.174 517.921,321.82 516.527,321.543 515.986,321.378 513.333,320.865 511.581,320.552 510.187,320.274 
			509.557,320.156 506.999,319.82 506.593,319.696 506.369,319.702 502.87,319.299 499.999,319.015 499.505,318.939 
			499.146,318.903 498.47,318.697 495.553,318.324 494.429,318.13 493.259,317.846 491.194,317.586 489.8,317.309 487.495,316.384 
			486.636,316.048 485.419,315.677 483.384,314.835 480.126,313.397 479.856,313.315 479.309,312.926 477.221,311.772 
			476.31,311.124 475.352,310.389 474.393,309.653 473.529,309.093 471.606,307.398 471.559,307.31 469.402,305.173 
			468.062,303.508 466.768,301.93 464.035,298.288 464.035,298.288 463.988,298.199 463.988,298.199 462.537,295.687 
			462.208,295.069 461.691,294.098 461.303,292.945 460.593,291.397 459.864,289.179 459.624,288.514 458.702,285.72 
			458.502,284.919 458.103,283.319 457.951,282.607 457.563,281.454 457.417,280.966 456.918,278.966 456.577,277.901 
			456.477,277.501 455.65,274.882 455.162,273.329 454.634,271.911 453.776,269.875 453.582,269.299 453.347,268.857 
			452.313,266.916 450.779,264.674 450.644,264.632 450.55,264.456 448.904,263.067 448.222,262.637 447.363,262.301 
			446.552,262.053 444.981,261.87 443.322,261.734 441.711,261.686 438.352,261.548 438.04,261.601 437.37,261.618 434.511,261.781 
			433.393,261.81 431.652,261.944 430.716,262.103 429.422,262.225 427.904,262.354 425.851,262.541 422.233,262.768 
			421.475,262.832 420.445,262.814 417.81,262.971 415.216,262.993 414.816,263.093 414.233,263.063 411.639,263.085 
			410.475,263.025 407.433,263.059 406.451,263.129 404.304,263.139 403.722,263.11 401.933,263.156 399.88,263.343 
			398.986,263.366 396.886,263.464 395.592,263.587 394.968,263.693 391.309,264.055 390.55,264.119 387.785,264.459 
			385.115,264.975 384.356,265.039 383.956,265.139 380.885,265.755 378.261,266.359 377.772,266.506 376.484,266.852 
			374.884,267.251 373.554,267.732 371.777,268.225 370.712,268.566 367.782,269.447 364.852,270.327 364.364,270.474 
			363.699,270.715 361.522,271.307 359.04,272.177 358.639,272.276 358.463,272.37 356.068,273.192 354.915,273.58 353.497,274.108 
			352.744,274.396 350.844,275.295 349.514,275.777 348.984,276.059 346.554,277.24 345.007,277.95 343.33,278.843 342.582,279.355 
			340.993,280.201 339.934,280.765 337.422,282.216 337.333,282.263 336.851,282.634 334.379,283.95 334.203,284.044 
			330.543,286.106 329.966,286.3 329.348,286.629 324.618,288.809 324.353,288.95 324.041,289.002 320.458,290.571 317.274,292.039 
			317.098,292.133 316.521,292.327 313.338,293.796 312.72,294.125 311.349,294.742 310.202,295.353 309.007,295.875 
			307.46,296.586 305.959,297.385 304.724,298.043 301.899,299.548 301.37,299.83 300.887,300.2 298.945,301.234 298.327,301.563 
			296.957,302.18 295.856,302.879 293.426,304.06 291.137,305.506 289.683,306.393 288.718,307.134 287.794,307.739 
			287.094,308.339 286.129,309.079 285.164,309.82 283.421,311.654 282.379,312.889 281.349,314.57 280.572,315.664 
			279.611,318.328 279.399,318.781 278.822,320.675 278.539,321.845 278.544,322.069 277.996,325.08 277.966,325.662 
			277.776,328.709 277.834,329.245 277.785,332.556 277.849,333.315 278.083,335.457 278.129,337.245 278.147,337.916 
			278.468,341.71 278.491,342.604 278.601,345.151 278.583,346.181 278.657,349.086 278.592,350.028 278.643,353.739 278.66,354.41 
			278.677,355.081 278.593,358.751 278.527,359.692 278.467,362.557 278.437,363.139 278.258,366.633 278.264,366.857 
			278.27,367.08 278.027,369.815 277.944,371.786 277.867,372.28 277.86,373.757 277.859,375.457 277.799,376.621 277.816,378.992 
			277.75,379.933 277.613,383.292 277.531,383.562 277.495,383.921 277.346,386.833 277.263,388.803 277.068,389.927 
			276.701,393.068 276.713,393.515 276.636,394.009 276.299,396.567 275.992,398.544 275.827,399.085 275.555,400.702 
			275.319,401.961 275.196,402.367 274.553,405.202 274.405,406.413 273.915,408.26 273.591,409.566 273.226,411.007 
			272.813,412.359 272.2,414.612 271.133,418.352 270.968,418.894 270.756,419.346 269.595,422.91 269.006,424.357 267.704,427.656 
			267.662,427.792 267.238,428.697 266.214,430.602 266.043,430.92 264.47,434.137 262.215,438.624 261.956,438.988 
			261.785,439.306 259.659,443.61 257.839,447.638 257.202,448.997 256.266,450.855 254.823,453.89 254.269,454.978 
			253.162,457.153 252.438,458.559 251.501,460.417 249.929,463.634 248.769,465.498 247.314,468.085 244.288,472.189 
			244.029,472.554 243.505,473.059 243.288,473.288 241.94,474.799 240.597,476.534 240.121,477.128 238.555,478.868 
			237.86,479.691 237.077,480.561 236.512,481.202 235.729,482.072 233.51,484.5 231.497,486.252 230.403,487.175 229.485,488.004 
			226.983,489.902 226.148,490.46 225.312,491.019 222.535,492.611 220.375,493.875 219.004,494.491 216.486,495.719 
			215.291,496.242 213.52,496.959 211.573,497.769 210.508,498.11 209.443,498.45 207.937,499.026 207.048,499.272 205.848,499.572 
			204.871,499.865 203.095,500.358 200.871,500.863 197.223,501.672 197,501.678 196.688,501.731 193.082,502.405 191.123,502.768 
			189.028,503.091 184.881,503.6 184.569,503.653 184.122,503.664 181.222,503.962 180.016,504.038 178.451,504.078 177.11,504.113 
			174.516,504.135 174.292,504.141 173.934,504.105 170.934,504.003 168.963,503.92 166.769,503.842 164.528,503.676 
			163.228,503.575 162.51,503.504 161.346,503.444 159.505,503.179 157.846,503.042 156.993,502.93 154.252,502.464 
			153.893,502.428 152.052,502.162 150.658,501.885 150.117,501.72 148.182,501.278 145.8,500.847 144.63,500.564 143.595,500.322 
			141.971,499.827 140.172,499.426 139.272,499.225 138.325,498.936 136.072,498.323 133.955,497.751 133.232,497.457 
			131.203,496.838 130.438,496.679 130.256,496.549 127.592,495.589 126.733,495.253 124.657,494.546 123.075,493.915 
			121.764,493.367 119.594,492.484 119.006,492.23 116.694,491.082 116.106,490.829 114.425,489.798 112.831,488.721 
			112.284,488.332 110.227,486.596 110.044,486.466 109.445,485.766 108.105,484.1 107.781,483.706 107.64,483.441 107.176,482.782 
			104.52,478.645 103.403,476.974 100.952,473.861 100.07,472.631 98.078,469.953 95.533,466.663 94.928,465.739 91.836,462.061 
			91.371,461.402 91.189,461.272 90.913,460.966 88.832,458.336 88.368,457.677 87.621,456.488 87.151,455.605 86.352,454.105 
			85.829,452.91 85.154,451.004 84.814,449.939 84.138,448.033 83.752,445.18 83.705,445.091 83.611,444.915 83.042,441.932 
			82.872,440.55 82.668,437.826 82.57,434.026 82.606,433.667 82.589,432.997 82.585,429.373 82.657,426.955 82.84,425.385 
			82.983,422.25 83.084,420.95 83.202,420.32 83.663,417.356 84,414.797 84.236,413.539 84.354,412.909 85.026,409.492 
			85.021,409.269 85.109,409.222 85.787,406.028 86.076,405.081 86.613,403.322 86.901,402.376 87.856,399.488 88.068,399.035 
			88.274,398.359 89.4,395.154 90.101,392.854 90.101,392.854 90.808,390.778 91.769,388.114 92.028,387.749 93.259,385.168 
			93.636,384.174 94.231,382.951 94.484,382.363 94.743,381.998 96.81,378.858 97.063,378.27 97.493,377.588 99,375.312 
			100.254,373.625 100.384,373.443 101.502,371.714 102.28,370.62 103.104,369.615 104.057,368.427 105.235,367.234 
			106.235,366.134 107.148,365.082 109.061,362.93 109.626,362.289 110.632,361.414 112.339,359.938 113.21,359.021 
			114.434,357.916 116.047,356.264 116.441,355.941 117.495,355.153 118.678,354.183 119.072,353.86 120.867,352.337 
			122.444,351.044 122.968,350.539 124.11,349.704 125.163,348.917 125.605,348.682 127.494,347.336 128.812,346.407 
			129.648,345.849 130.348,345.249 131.666,344.32 132.984,343.392 134.173,342.646 135.362,341.899 136.197,341.341 
			138.31,339.989 138.969,339.525 140.117,338.914 141.747,337.932 144.394,336.522 145.936,335.588 148.667,333.907 
			149.991,333.202 151.444,332.315 153.692,331.004 155.322,330.023 157.087,329.083 158.894,328.008 160.394,327.209 
			161.718,326.503 163.483,325.563 165.867,324.294 165.955,324.247 168.644,322.702 168.644,322.702 168.644,322.702 
			171.027,321.433 172.704,320.54 172.969,320.399 174.693,319.594 177.123,318.413 177.653,318.131 177.917,317.99 
			180.924,316.615 181.807,316.145 183.884,315.152 185.384,314.353 186.708,313.648 188.032,312.943 189.003,312.426 
			191.033,311.345 191.563,311.063 193.64,310.07 193.728,310.023 195.323,309.4 196.741,308.872 197.582,308.537 200.106,307.533 
			200.418,307.48 202.454,306.622 203.872,306.094 204.048,306 204.978,305.618 207.549,304.702 208.079,304.42 210.562,303.551 
			212.333,302.834 212.997,302.594 214.062,302.253 215.704,301.719 216.681,301.425 219.034,300.738 220.317,300.169 
			222.182,299.629 223.817,298.871 225.059,298.436 226.959,297.537 227.359,297.438 229.531,296.621 230.507,296.328 
			232.984,295.235 233.384,295.135 235.997,294.084 236.085,294.037 239.145,292.974 239.368,292.968 240.786,292.44 
			242.604,291.812 242.869,291.671 245.705,290.613 247.6,289.491 248.217,289.162 248.659,288.927 250.601,287.893 
			252.184,286.823 252.272,286.776 253.066,286.353 254.343,285.56 254.473,285.378 256.767,284.155 258.662,283.033 
			260.116,282.146 263.023,280.371 263.552,280.089 265.229,279.196 266.818,278.35 267.348,278.068 269.819,276.752 271.932,275.4 
			272.238,275.124 272.767,274.842 274.656,273.496 276.705,271.385 277.011,271.109 277.311,270.609 278.695,268.739 
			279.472,267.646 280.19,266.017 280.402,265.564 281.369,263.123 281.539,262.806 281.663,262.4 282.759,259.777 283.436,258.283 
			284.078,257.149 285.874,253.926 285.874,253.926 285.874,253.926 288.347,250.91 289,250.222 291.448,248.012 292.455,247.136 
			293.902,246.025 295.656,244.638 297.192,243.48 298.246,242.692 300.052,241.617 301.459,240.641 303.042,239.572 
			305.19,237.861 305.584,237.538 306.196,236.986 307.332,235.927 308.468,234.869 310.505,232.312 310.634,232.129 
			310.811,232.035 313.024,229.384 314.113,228.237 315.155,227.003 316.238,225.633 317.363,224.128 317.84,223.534 
			318.146,223.258 319.582,221.7 320.889,220.324 321.236,219.912 321.842,219.136 322.978,218.078 323.761,217.208 
			324.985,216.103 325.768,215.233 327.505,213.175 328.029,212.669 328.335,212.393 330.565,210.412 332.484,208.484 
			333.096,207.931 334.103,207.055 335.721,205.627 336.422,205.027 336.686,204.886 340.412,201.883 340.894,201.513 
			341.948,200.725 342.43,200.355 344.402,198.738 345.19,198.092 347.074,196.522 349.434,194.359 349.434,194.359 
			349.434,194.359 353.512,191.167 355.095,190.098 358.038,187.964 358.167,187.782 358.344,187.688 360.804,185.925 
			362.252,184.814 365.742,181.369 365.918,181.275 366.313,180.952 366.878,180.311 370.074,177.589 370.38,177.313 
			372.387,175.338 373.917,173.956 374.135,173.727 375.1,172.986 377.154,171.099 377.896,170.364 379.12,169.259 379.338,169.03 
			379.602,168.889 381.921,166.861 382.622,166.261 383.675,165.474 385.859,163.405 386.035,163.311 386.076,163.175 
			386.206,162.993 387.954,161.382 388.778,160.377 389.696,159.548 391.962,157.208 392.268,156.932 392.357,156.885 
			393.581,155.78 394.499,154.951 396.512,153.199 397.383,152.282 397.907,151.777 398.343,151.318 398.472,151.136 
			400.832,148.973 401.268,148.514 402.621,147.227 404.805,145.157 405.111,144.881 405.152,144.746 407.56,142.671 
			409.131,141.154 409.349,140.925 410.879,139.543 411.226,139.132 412.409,138.162 413.021,137.609 413.634,137.057 
			414.293,136.592 417.4,133.918 417.706,133.642 418.848,132.807 419.595,132.296 420.784,131.549 421.573,130.903 
			422.232,130.439 422.891,129.974 423.95,129.41 426.145,127.788 426.498,127.6 428.122,126.395 428.958,125.837 430.671,124.585 
			430.935,124.444 433.354,122.816 434.76,121.84 434.937,121.746 435.202,121.605 437.85,120.195 439.174,119.49 440.233,118.926 
			442.175,117.892 443.41,117.234 443.457,117.322 443.722,117.181 445.311,116.335 445.399,116.288 447.653,115.201 
			448.847,114.678 449.777,114.296 450.795,113.868 451.901,113.392 453.76,112.628 456.061,111.63 456.284,111.624 
			456.549,111.483 459.032,110.614 460.803,109.897 462.798,109.175 464.751,108.588 467.81,107.525 467.899,107.478 
			467.987,107.431 470.699,106.78 472.517,106.151 473.541,105.946 474.741,105.647 476.076,105.389 477.1,105.184 479.9,104.485 
			481.012,104.233 483.195,103.864 484.972,103.371 486.26,103.025 487.643,102.855 489.555,102.403 490.355,102.204 
			491.737,102.034 493.208,101.817 494.367,101.653 495.349,101.583 498.561,101.232 499.32,101.168 502.397,100.776 
			502.532,100.817 502.62,100.77 506.509,100.625 506.509,100.625 506.867,100.661 510.579,100.61 510.891,100.557 511.25,100.593 
			514.297,100.783 514.52,100.777 517.173,101.29 517.308,101.332 517.579,101.414 521.008,102.534 522.631,103.029 
			524.436,103.654 527.871,104.997 528.006,105.038 528.188,105.168 531.493,106.693 532.128,107.035 532.763,107.376 
			535.58,109.049 535.762,109.178 535.898,109.219 539.626,111.539 540.125,111.84 543.489,113.901 544.124,114.242 
			545.259,114.884 546.894,115.826 548.434,116.592 549.751,117.363 550.387,117.705 552.786,118.806 553.374,119.06 
			553.691,119.23 555.909,120.202 558.484,121.21 558.937,121.422 559.343,121.546 562.372,122.765 564.765,123.643 565.577,123.89 
			568.376,124.892 568.512,124.933 568.512,124.933 571.493,126.065 572.217,126.359 574.657,127.325 576.192,127.868 
			578.268,128.575 580.438,129.458 581.162,129.753 583.467,130.678 583.649,130.807 586.095,131.997 587.995,132.798 
			589.265,133.481 589.9,133.823 591.988,134.977 592.987,135.578 593.352,135.837 596.674,138.033 597.539,138.592 
			600.549,140.841 601.372,141.536 604.159,143.79 605.164,144.615 608.045,147.046 609.233,147.999 611.978,150.389 613.26,151.52 
			615.776,153.692 617.24,154.951 619.574,156.994 620.997,158.389 623.513,160.561 624.295,161.391 626.77,163.698 627.323,164.31 
			629.898,167.018 630.127,167.236 630.268,167.5 632.343,169.908 632.76,170.478 634.659,172.98 634.706,173.068 634.8,173.244 
			636.657,175.881 637.121,176.54 638.103,178.17 638.291,178.523 638.385,178.7 639.242,180.735 640.1,182.771 640.67,184.054 
			641.856,186.708 642.232,187.414 642.949,189.185 643.566,190.556 643.901,191.397 644.799,193.298 645.757,195.733 
			645.945,196.086 646.274,196.704 647.09,198.875 647.995,200.999 648,201.223 648.141,201.488 648.958,203.659 649.298,204.724 
			649.874,206.23 650.414,208.095 650.608,208.672 651.535,211.69 651.682,212.178 651.923,212.843 652.463,214.708 
			652.709,215.596 653.003,216.573 653.695,219.15 654.042,220.438 654.582,222.303 654.828,223.192 655.568,225.857 
			655.809,226.522 656.883,230.028 657.359,231.135 658.028,232.817 658.175,233.306 659.08,235.43 659.174,235.606 
			659.409,236.048 660.866,238.784 661.377,239.531 662.353,240.938 663.052,242.038 663.746,242.915 664.251,243.439 
			665.039,244.492 666.367,245.711 667.514,246.8 668.654,247.665 669.795,248.53 670.113,248.701 671.248,249.343 672.383,249.985 
			673.782,250.486 675.988,251.011 676.705,251.082 678.229,251.177 678.899,251.159 680.017,251.131 680.552,251.072 
			683.494,250.639 684.565,250.522 686.071,249.946 687.447,249.553 688.689,249.118 690.019,248.637 691.166,248.026 
			693.149,246.856 694.467,245.928 695.862,244.505 696.08,244.276 696.516,243.817 697.77,242.13 698.282,241.177 699.566,238.907 
			700.067,237.508 701.539,233.891 701.581,233.756 701.581,233.756 701.581,233.756 703.153,230.539 703.583,229.857 
			704.36,228.763 705.661,227.164 708.016,224.777 708.41,224.454 708.845,223.995 710.646,222.696 711.788,221.862 712.317,221.58 
			714.218,220.681 714.618,220.581 716.883,219.941 717.595,219.789 719.695,219.69 721.977,219.721 722.336,219.757 
			722.966,219.875 724.995,220.493 726.389,220.771 726.794,220.895 728.606,221.743 729.423,222.214 730.376,222.726 
			731.651,223.633 732.475,224.327 733.491,225.599 734.644,226.911 735.572,228.229 		">
		</polygon>
	</g>
</g>
<g id="Layer_1">
</g>
</svg>
