<?xml version="1.0" encoding="iso-8859-1"?>
<!-- Generator: Adobe Illustrator 19.2.1, SVG Export Plug-In . SVG Version: 6.00 Build 0)  -->
<svg version="1.1" xmlns="http://www.w3.org/2000/svg" xmlns:xlink="http://www.w3.org/1999/xlink" x="0px" y="0px"
	 viewBox="0 0 841.89 595.28" style="enable-background:new 0 0 841.89 595.28;" xml:space="preserve">
<g id="layer193">
	<g id="layer193_1_" slic3r:z="7.74000000000006e-005">
		<polygon slic3r:type="contour" style="fill:#FFFFFF;stroke:#000000;stroke-miterlimit:10;" points="190.034,416.903 
			190.792,418.539 191.913,422.134 191.913,422.134 191.96,422.222 192.769,425.869 192.939,427.252 193.22,429.482 
			193.401,431.311 193.53,432.829 193.587,435.064 193.398,436.411 192.956,438.346 192.673,439.516 192.019,441.904 
			191.653,443.345 191.358,444.069 190.887,444.886 189.392,447.609 188.491,449.108 186.918,452.325 186.659,452.689 
			186.27,453.236 184.757,455.288 183.156,457.387 182.768,457.934 181.938,458.716 180.667,459.733 179.26,460.708 
			178.507,460.996 177.177,461.478 175.536,462.012 174.159,462.405 172.512,462.716 171.888,462.821 170.276,462.773 
			168.853,463.078 168.094,463.143 167.329,462.983 164.859,462.6 164.318,462.435 163.824,462.358 159.73,461.479 159.595,461.438 
			159.054,461.272 156.025,460.053 155.708,459.882 155.208,459.582 152.344,457.821 151.615,457.303 150.568,456.614 
			148.563,455.19 147.47,454.412 145.23,452.546 144.589,451.981 144.313,451.675 143.536,451.069 141.02,448.897 140.103,448.026 
			137.263,445.459 136.076,444.506 134.153,442.81 133.236,441.939 132.225,440.891 130.391,439.149 129.697,438.272 
			128.557,437.407 126.499,435.67 124.8,433.969 124.288,433.222 123.824,432.563 122.978,430.974 122.22,429.338 122.027,428.762 
			121.657,426.579 121.646,426.132 121.587,425.597 121.47,424.526 121.289,422.697 121.454,422.155 121.737,420.985 
			121.814,420.491 122.05,419.232 122.468,418.103 123.14,416.386 124.176,414.928 124.694,414.199 125,413.922 126.125,412.417 
			126.819,411.594 127.602,410.724 128.997,409.301 129.48,408.931 131.981,407.032 133.47,405.786 134.741,404.769 
			136.412,403.653 138.348,402.395 139.184,401.837 142.179,400.015 143.015,399.457 145.398,398.188 148.576,396.495 
			148.664,396.448 148.664,396.448 151.853,395.203 154.071,394.475 155.136,394.135 156.913,393.642 159.136,393.137 
			160.342,393.061 163.16,393.034 165.536,393.241 167.601,393.501 169.853,394.114 172.065,394.863 175.152,396.618 
			175.881,397.136 178.721,399.702 179.779,400.838 181.536,403.074 183.629,406.152 183.952,406.546 184.328,407.253 
			185.956,409.671 187.36,412.096 188.013,413.108 188.201,413.461 188.389,413.814 189.611,416.109 		">
		</polygon>
		<polygon slic3r:type="contour" style="fill:#FFFFFF;stroke:#000000;stroke-miterlimit:10;" points="610.422,223.841 
			611.744,226.536 612.026,227.066 612.402,227.772 613.359,230.208 614.252,231.885 614.64,233.038 615.016,233.744 
			615.691,235.65 616.037,236.939 616.719,239.069 616.824,239.692 617.17,240.981 617.528,242.716 617.639,243.563 618.15,246.011 
			618.466,247.882 618.741,249.888 619.357,252.959 619.521,254.117 619.832,255.765 619.843,256.212 619.902,256.747 
			619.901,258.447 620.006,259.071 619.922,262.741 619.892,263.324 619.749,266.459 619.684,267.4 619.241,269.335 
			618.876,270.776 618.204,272.493 617.45,274.481 617.326,274.887 616.125,276.886 615.736,277.433 615.695,277.568 
			615.654,277.703 613.664,280.349 612.54,281.854 612.151,282.401 611.933,282.63 610.191,284.465 609.62,284.882 608.437,285.852 
			606.907,287.233 606.471,287.692 605.594,288.385 604.276,289.314 603.311,290.055 601.993,290.983 600.581,291.735 
			599.174,292.711 597.809,293.551 595.561,294.862 595.296,295.003 594.725,295.42 592.342,296.689 590.93,297.441 
			589.383,298.152 588.412,298.669 586.905,299.245 586.105,299.444 584.552,299.931 581.757,300.853 581.534,300.859 
			581.446,300.906 577.657,301.451 576.945,301.603 576.145,301.803 573.421,302.007 573.198,302.013 571.051,302.023 
			569.574,302.016 567.157,301.944 567.11,301.856 567.021,301.903 563.88,301.537 562.357,301.441 560.922,301.299 
			557.199,300.903 556.616,300.873 556.481,300.832 556.393,300.879 552.128,300.318 551.681,300.329 548.799,299.598 
			548.529,299.515 548.17,299.48 544.559,298.231 542.577,297.7 541.718,297.364 539.86,296.428 539.86,296.428 537.632,295.009 
			537.173,294.573 534.939,292.931 533.24,291.23 532.963,290.924 532.828,290.882 531.242,288.328 531.1,288.064 530.959,287.799 
			530.19,285.716 529.838,284.204 529.721,283.133 529.598,281.839 529.558,280.274 529.618,279.11 529.76,277.675 530.249,275.828 
			530.862,273.575 531.234,272.358 532.847,269.006 532.971,268.6 533.101,268.418 533.271,268.1 536.051,263.108 536.993,261.473 
			538.024,259.791 539.36,257.833 539.531,257.516 541.215,255.146 541.603,254.599 543.028,252.594 544.618,250.048 
			545.006,249.502 545.389,248.731 546.761,246.414 547.898,243.656 547.898,243.656 547.939,243.521 548.806,240.68 
			548.983,238.886 549.12,237.228 548.598,234.333 548.586,233.886 548.445,233.621 547.612,230.78 546.948,229.32 546.014,227.779 
			544.527,225.625 544.339,225.272 544.062,224.966 542.405,223.129 541.029,221.823 540.523,221.299 538.742,219.868 
			536.461,218.137 536.461,218.137 533.956,216.412 532.956,215.812 530.551,214.487 530.416,214.446 530.234,214.316 
			527.876,213.079 525.253,211.984 524.847,211.86 524.665,211.73 520.913,210.216 520.642,210.134 520.46,210.004 519.695,209.845 
			516.802,208.667 515.99,208.419 513.326,207.459 511.838,207.005 508.28,206.067 508.145,206.026 507.921,206.032 504.722,205.13 
			503.281,204.764 501.028,204.151 498.646,203.72 498.646,203.72 498.511,203.679 496.617,203.101 495.176,202.736 
			494.047,202.318 493.053,201.94 492.647,201.817 489.571,200.509 488.848,200.214 487.807,199.749 485.72,198.595 483.95,197.611 
			481.992,196.275 480.898,195.498 479.205,194.02 476.777,191.801 476.636,191.536 476.406,191.319 474.884,189.524 
			474.232,188.511 472.88,186.399 472.363,185.428 471.376,183.574 471,182.868 470.471,181.45 470.465,181.227 469.673,178.25 
			469.62,177.938 469.452,174.855 469.534,174.585 470.436,171.386 470.86,170.48 471.797,168.622 473.092,166.799 473.957,165.658 
			475.223,164.418 476.618,162.995 477.801,162.025 479.337,160.867 482.414,158.775 482.414,158.775 482.414,158.775 
			482.503,158.728 485.468,157.489 487.598,156.808 487.998,156.708 488.086,156.661 491.646,155.898 491.957,155.846 
			492.269,155.793 496.234,155.154 498.105,154.838 499.841,154.48 502.247,154.105 503.27,153.9 504.253,153.83 507.282,153.349 
			508.571,153.003 512.401,152.323 512.624,152.317 513.024,152.217 515.878,151.831 516.948,151.714 518.778,151.533 
			518.954,151.439 520.472,151.31 520.831,151.346 522.484,151.258 523.066,151.288 525.39,151.184 527.09,151.185 527.401,151.132 
			530.843,150.999 531.96,150.97 533.884,150.965 535.272,151.019 537.419,151.009 538.766,151.198 540.16,151.475 542.001,151.741 
			545.512,152.59 545.736,152.584 545.871,152.626 546.594,152.92 549.212,153.792 549.664,154.004 550.752,154.558 
			552.475,155.453 553.522,156.142 555.703,157.473 557.708,158.897 558.937,159.716 560.119,160.446 561.766,161.835 
			562.953,162.789 565.381,165.008 565.746,165.267 565.975,165.485 567.074,166.486 569.185,168.534 570.102,169.405 
			572.895,171.883 573.171,172.189 573.583,172.537 576.563,175.368 576.745,175.497 576.928,175.627 577.251,176.021 
			579.232,178.252 579.738,178.776 580.155,179.346 581.771,181.318 582.048,181.624 583.476,183.243 584.634,184.779 
			585.145,185.526 585.662,186.497 586.644,188.127 587.943,189.928 588.219,190.234 588.407,190.587 589.488,192.617 
			590.234,193.805 591.404,195.789 592.891,197.942 593.267,198.649 593.825,199.484 595.083,201.42 596.152,203.003 
			597.216,204.363 598.004,205.416 598.098,205.593 598.192,205.769 598.468,206.075 600.743,209.282 601.712,210.465 
			603.293,212.796 605.145,215.209 605.891,216.397 607.331,218.463 608.124,219.74 608.73,220.664 609.858,222.782 		">
		</polygon>
	</g>
</g>
<g id="Layer_1">
</g>
</svg>
