<?xml version="1.0" encoding="iso-8859-1"?>
<!-- Generator: Adobe Illustrator 19.2.1, SVG Export Plug-In . SVG Version: 6.00 Build 0)  -->
<svg version="1.1" xmlns="http://www.w3.org/2000/svg" xmlns:xlink="http://www.w3.org/1999/xlink" x="0px" y="0px"
	 viewBox="0 0 841.89 595.28" style="enable-background:new 0 0 841.89 595.28;" xml:space="preserve">
<g id="layer203">
	<g id="layer203_1_" slic3r:z="8.14000000000006e-005">
		<polygon slic3r:type="contour" style="fill:#FFFFFF;stroke:#000000;stroke-miterlimit:10;" points="239.003,351.851 
			240.659,355.387 240.847,355.74 241.041,356.316 242.198,359.552 242.691,361.329 244.112,366.124 244.258,366.613 244.4,366.877 
			244.74,367.942 245.903,371.402 246.437,373.043 247.206,375.126 248.457,378.539 248.504,378.627 248.645,378.892 
			249.573,381.91 249.878,383.334 250.565,385.687 250.945,388.317 251.092,388.805 251.479,391.658 251.56,393.088 
			251.835,395.094 251.945,397.641 251.963,398.311 252.055,401.888 252.055,401.888 252.011,405.423 252.064,405.735 
			251.786,408.829 251.833,408.917 251.833,408.917 251.455,411.611 251.224,413.093 251.035,414.44 250.876,415.205 
			250.227,417.816 249.944,418.987 249.408,420.745 248.783,422.551 248.406,423.544 247.493,426.297 247.363,426.479 
			247.281,426.75 246.309,428.967 245.637,430.684 245.048,432.131 244.365,433.401 243.352,435.753 243.093,436.118 
			242.881,436.571 241.903,438.564 241.096,440.24 240.336,442.004 239.7,443.363 238.681,445.492 238.469,445.944 238.004,446.985 
			237.238,448.526 236.985,449.114 236.095,451.061 235.33,452.601 234.864,453.642 233.628,456 233.628,456 233.628,456 
			232.22,458.676 231.537,459.946 229.741,463.168 229.7,463.304 229.399,463.804 228.41,465.35 226.815,467.673 225.737,469.266 
			225.519,469.495 225.001,470.224 224.654,470.636 223.441,472.188 222.229,473.74 221.752,474.334 220.274,476.027 
			219.097,477.221 218.62,477.815 218.096,478.32 216.395,480.019 216.266,480.201 216.048,480.431 214.689,481.495 
			211.834,483.581 210.91,484.186 210.251,484.651 209.545,485.027 207.827,486.055 206.109,487.083 205.403,487.46 
			204.696,487.836 202.972,488.64 201.425,489.351 198.683,490.585 198.418,490.726 198.283,490.685 195.047,491.841 
			194.294,492.129 192.164,492.81 191.852,492.863 191.452,492.963 189.628,493.368 187.405,493.872 186.604,494.072 
			186.381,494.077 185.669,494.23 182.281,494.675 181.169,494.927 179.474,495.15 179.339,495.108 177.598,495.243 
			175.586,495.294 175.498,495.341 175.274,495.347 173.257,495.175 171.957,495.074 169.939,494.903 168.28,494.766 
			166.528,494.454 164.822,494.229 163.34,493.999 160.822,493.527 160.146,493.32 157.805,492.754 154.7,492.029 154.564,491.987 
			150.553,490.838 150.371,490.708 150.012,490.673 146.266,489.382 144.325,488.716 142.067,487.88 139.044,486.884 
			137.915,486.466 135.61,485.541 133.44,484.657 132.804,484.315 132.263,484.15 130.046,483.178 128.506,482.413 126.059,481.223 
			124.248,480.375 122.207,479.309 120.89,478.537 119.12,477.554 116.98,476.088 116.933,476 114.599,473.957 114.093,473.433 
			112.894,472.033 112.565,471.415 112.283,470.885 109.104,465.554 108.634,464.671 108.352,464.142 106.765,461.588 
			105.267,458.987 104.797,458.104 102.417,454.273 101.2,452.202 99.625,450.095 98.033,447.318 97.416,445.947 96.511,443.823 
			95.242,441.44 94.855,440.286 94.556,439.086 94.392,437.927 93.951,436.462 93.623,434.144 93.471,433.433 93.248,431.738 
			93.225,430.844 93.226,429.144 93.233,427.668 93.204,426.55 93.389,423.28 93.342,423.191 93.342,423.191 93.472,421.309 
			93.673,420.409 93.944,418.792 94.222,417.398 94.463,416.363 94.782,414.833 95.395,412.581 95.549,411.593 95.838,410.646 
			96.822,407.176 97.311,405.329 97.977,403.388 98.142,402.847 99.221,399.554 99.262,399.418 99.262,399.418 99.386,399.013 
			100.641,395.625 100.77,395.443 100.853,395.172 102.208,392.185 103.268,389.921 103.604,389.062 103.904,388.562 
			105.435,385.481 105.694,385.116 106.212,384.387 107.378,382.747 108.114,381.789 109.021,380.513 110.487,378.372 
			110.787,377.872 111.093,377.596 113.489,375.074 113.748,374.71 116.237,372.364 117.42,371.394 117.55,371.212 118.032,370.842 
			121.763,368.062 124.435,365.845 125.707,364.829 128.031,363.024 129.479,361.913 130.097,361.584 131.986,360.238 
			132.292,359.962 134.057,359.022 135.334,358.229 137.188,357.241 139.3,355.89 141.325,354.585 143.349,353.281 145.638,351.835 
			145.903,351.694 148.81,349.919 148.898,349.872 149.075,349.778 151.811,348.321 152.782,347.804 154.723,346.77 156.489,345.83 
			157.636,345.219 160.155,343.991 160.684,343.709 162.938,342.622 164.085,342.011 164.35,341.87 164.927,341.676 
			167.627,340.578 169.534,339.902 170.863,339.421 171.84,339.127 175.217,338.235 176.594,337.842 178.994,337.243 
			179.394,337.144 181.53,336.686 182.241,336.534 184.383,336.3 187.189,335.825 187.589,335.725 191.96,335.21 192.136,335.116 
			192.584,335.105 196.243,334.742 198.613,334.726 200.266,334.639 201.296,334.657 203.942,334.947 204.884,335.012 
			208.477,335.591 209.018,335.756 211.359,336.322 212.935,336.729 213.341,336.853 216.994,337.967 217.399,338.09 
			217.805,338.214 220.334,339.133 221.734,339.634 222.728,340.011 225.303,341.019 225.98,341.225 226.932,341.737 
			229.332,342.839 231.378,344.128 233.019,345.294 233.612,345.771 234.847,346.813 235.993,347.902 236.546,348.514 
			237.974,350.132 238.486,350.88 		">
		</polygon>
		<polygon slic3r:type="contour" style="fill:#FFFFFF;stroke:#000000;stroke-miterlimit:10;" points="627.428,184.081 
			627.711,184.611 628.092,185.54 629.367,188.147 630.031,189.606 630.366,190.448 631.129,192.307 631.223,192.483 
			631.993,194.566 633.238,197.755 633.479,198.42 633.855,199.126 635.2,202.715 636.497,206.216 636.879,207.146 637.455,208.652 
			638.612,211.888 639.375,213.747 640.291,216.318 641.301,219.066 641.542,219.731 641.977,220.972 642.887,223.32 
			643.18,224.297 644.138,226.732 644.384,227.621 644.578,228.197 645.3,230.192 646.023,232.187 646.405,233.116 646.551,233.604 
			647.074,234.799 647.796,236.793 648.665,239.276 649,240.118 649.858,242.154 650.527,243.836 650.721,244.413 651.338,245.784 
			652.06,247.778 652.783,249.773 652.971,250.126 653.018,250.214 653.851,253.056 654.004,253.768 654.702,256.568 
			654.919,258.039 655.371,259.951 655.516,262.139 655.628,262.986 655.579,264.598 655.561,265.628 655.443,266.257 
			655.13,268.01 654.63,269.409 654.299,270.492 653.404,272.215 652.809,273.438 652.503,273.714 652.115,274.261 650.337,276.454 
			649.637,277.053 648.412,278.159 647.583,278.94 645.652,280.422 644.734,281.25 643.816,282.079 642.15,283.419 640.614,284.577 
			640.22,284.901 639.779,285.136 637.978,286.435 636.789,287.181 634.771,288.709 634.023,289.22 632.705,290.149 631.21,291.172 
			630.51,291.771 628.574,293.029 627.697,293.722 626.114,294.792 625.278,295.35 623.607,296.467 622.813,296.89 622.548,297.031 
			620.347,298.43 619.994,298.618 617.699,299.84 616.728,300.357 614.916,301.209 612.356,302.572 611.827,302.854 611.121,303.23 
			608.691,304.411 607.32,305.028 605.819,305.827 602.812,307.201 602.724,307.248 602.724,307.248 602.636,307.295 
			599.317,308.723 598.564,309.011 595.199,310.35 594.446,310.637 593.781,310.878 589.521,312.24 588.856,312.481 
			585.438,313.508 584.014,313.814 581.702,314.365 579.567,314.823 578.855,314.975 576.496,315.438 575.56,315.597 
			574.801,315.661 572.66,315.895 570.919,316.029 570.16,316.093 566.677,316.362 564.619,316.325 562.607,316.377 560.73,316.47 
			558.671,316.433 557.195,316.427 555.001,316.349 554.195,316.325 553.971,316.331 553.389,316.301 550.16,315.981 
			547.919,315.815 546.978,315.75 544.554,315.454 544.507,315.366 542.355,315.153 540.961,314.876 538.579,314.445 
			537.185,314.167 535.655,313.849 533.767,313.495 531.115,312.981 529.856,312.745 528.145,312.297 525.851,311.819 
			525.086,311.66 524.592,311.583 522.651,310.917 521.299,310.505 520.893,310.381 518.229,309.421 517.282,309.132 
			514.653,307.812 513.93,307.518 512.707,306.923 510.707,305.722 508.385,304.126 507.609,303.52 506.104,302.395 
			505.739,302.136 504.781,301.401 502.394,299.046 502.394,299.046 502.394,299.046 502.394,299.046 499.584,295.897 
			499.073,295.15 497.586,292.996 497.304,292.467 496.416,291.013 495.894,289.819 495.418,288.712 494.878,286.847 
			494.637,286.183 494.432,285.159 494.021,283.112 493.804,281.641 493.693,280.794 493.518,279.188 493.483,277.847 
			493.443,276.282 493.485,274.447 493.569,272.476 493.888,269.247 493.93,269.112 494.338,265.835 494.538,264.935 
			494.686,263.724 495.117,261.342 495.312,260.218 495.454,258.783 495.554,257.483 495.55,255.56 495.621,254.842 
			495.509,253.995 495.293,252.524 494.911,251.595 494.2,250.047 493.407,248.77 492.76,247.981 492.114,247.193 491.014,246.192 
			489.556,245.156 488.01,244.167 486.563,243.578 484.164,242.476 483.622,242.311 482.317,241.987 480.647,241.404 
			479.97,241.197 477.494,240.59 476.277,240.218 473.53,239.529 473.53,239.529 473.124,239.405 469.748,238.597 469.525,238.603 
			469.166,238.567 465.472,237.588 465.067,237.465 462.096,236.78 461.285,236.533 459.126,236.096 456.562,235.536 455.303,235.3 
			452.062,234.533 449.504,234.196 448.604,233.996 447.21,233.718 445.322,233.364 444.11,233.217 441.681,232.697 438.04,232.031 
			437.905,231.989 437.635,231.907 434.353,231.275 433.406,230.987 430.171,230.443 428.865,230.119 424.995,229.234 
			424.366,229.116 424.142,229.122 423.513,229.004 421.443,228.52 419.778,228.161 418.608,227.878 417.078,227.559 
			416.402,227.353 415.143,227.117 414.514,226.999 413.838,226.792 412.085,226.479 411.185,226.279 408.397,225.724 
			407.092,225.4 405.651,225.034 403.845,224.41 402.851,224.033 399.682,222.548 399.546,222.507 399.411,222.466 395.219,219.487 
			394.401,219.016 393.067,217.574 391.644,216.179 391.08,215.12 390.287,213.843 389.941,212.554 389.7,211.889 389.647,211.578 
			389.378,209.795 389.525,208.583 389.673,207.372 389.832,206.607 390.21,203.913 390.329,203.284 390.565,202.025 
			390.771,201.349 390.889,200.719 391.155,198.878 391.898,194.744 391.898,194.744 391.898,194.744 391.898,194.744 
			391.898,194.744 393.119,190.015 393.408,189.068 393.826,187.939 394.845,185.81 395.057,185.357 395.828,184.04 
			396.476,183.129 398.366,180.083 398.625,179.718 399.273,178.807 401.345,175.891 403.465,173.062 404.2,172.104 
			404.589,171.557 405.195,170.781 405.967,169.464 407.303,167.506 407.816,166.553 408.882,164.513 409.182,164.013 
			409.612,163.331 412.108,159.509 412.585,158.915 413.58,157.592 413.968,157.045 415.181,155.493 416.306,153.988 
			416.653,153.576 416.782,153.394 417.695,152.342 418.348,151.654 419.302,150.466 420.167,149.325 420.385,149.096 
			420.862,148.502 421.992,147.221 422.816,146.215 423.423,145.439 424.205,144.569 425.595,142.923 427.031,141.365 
			428.296,140.125 431.139,137.591 431.928,136.944 435.388,134.082 439.249,131.119 439.643,130.796 440.038,130.473 
			442.062,129.168 443.821,128.005 443.998,127.911 444.351,127.723 448.146,125.701 449.512,124.861 451.63,123.733 
			453.483,122.746 453.66,122.652 454.19,122.37 456.137,121.559 456.625,121.412 459.15,120.408 459.326,120.314 461.85,119.31 
			463.445,118.687 465.351,118.012 466.328,117.718 468.769,116.984 470.187,116.456 471.876,116.01 473.653,115.517 
			475.565,115.065 477.43,114.525 478.365,114.367 479.877,114.015 481.613,113.657 483.036,113.352 485.484,112.842 
			485.884,112.742 488.602,112.314 489.625,112.109 492.343,111.681 492.343,111.681 495.29,111.471 496.049,111.407 
			498.908,111.244 500.026,111.215 501.008,111.145 504.32,111.194 504.632,111.142 507.99,111.279 508.708,111.35 509.873,111.41 
			511.037,111.469 512.384,111.658 514.314,111.877 514.672,111.912 516.249,112.319 517.737,112.773 518.954,113.144 
			521.571,114.017 522.294,114.311 524.782,115.366 526.541,115.902 527.446,116.326 529.028,116.956 531.88,118.27 531.88,118.27 
			531.88,118.27 532.016,118.311 536.138,120.308 536.591,120.52 538.99,121.621 539.943,122.134 540.125,122.263 542.071,123.153 
			542.342,123.235 542.389,123.323 544.065,124.13 544.336,124.213 545.153,124.684 546.923,125.667 547.646,125.962 
			550.322,127.369 552.892,128.153 554.068,128.66 557.085,129.432 557.944,129.768 558.167,129.762 558.573,129.886 
			560.873,130.588 561.684,130.835 562.496,131.083 563.449,131.595 565.666,132.567 566.072,132.691 566.524,132.903 
			568.653,133.922 570.141,134.376 571.994,135.089 574.522,136.008 574.569,136.096 574.569,136.096 576.693,136.891 
			578.051,137.527 578.592,137.693 580.497,138.717 581.814,139.489 584.672,141.026 585.719,141.715 588.306,143.169 
			589.488,143.899 590.035,144.288 593.175,146.354 594.316,147.22 596.779,149.08 598.102,150.075 600.801,152.377 601.671,153.16 
			604.74,155.944 605.245,156.468 608.044,159.169 608.685,159.734 608.779,159.911 611.765,162.966 612.453,163.619 
			615.028,166.326 615.533,166.85 616.039,167.374 618.155,169.646 618.802,170.435 619.495,171.312 620.647,172.624 
			621.482,173.766 622.04,174.601 622.88,175.967 623.304,176.761 624.89,179.315 625.219,179.933 625.313,180.109 		">
		</polygon>
	</g>
</g>
<g id="Layer_1">
</g>
</svg>
