<?xml version="1.0" encoding="iso-8859-1"?>
<!-- Generator: Adobe Illustrator 19.2.1, SVG Export Plug-In . SVG Version: 6.00 Build 0)  -->
<svg version="1.1" xmlns="http://www.w3.org/2000/svg" xmlns:xlink="http://www.w3.org/1999/xlink" x="0px" y="0px"
	 viewBox="0 0 841.89 595.28" style="enable-background:new 0 0 841.89 595.28;" xml:space="preserve">
<g id="layer237">
	<g id="layer237_1_" slic3r:z="9.50000000000008e-005">
		<polygon slic3r:type="contour" style="fill:#FFFFFF;stroke:#000000;stroke-miterlimit:10;" points="768.155,199.208 
			769.288,201.55 769.717,202.568 770.116,204.168 770.163,204.256 770.327,205.415 770.526,207.915 770.532,208.139 
			770.49,208.274 770.508,208.945 770.353,211.633 770.205,212.844 770.164,212.98 769.928,214.238 769.326,216.938 768.99,217.797 
			768.825,218.338 768.041,220.908 767.876,221.449 766.816,223.713 766.268,225.024 765.161,227.2 764.348,228.653 
			763.707,229.788 762.293,232.24 762.164,232.422 762.211,232.51 760.527,234.88 760.05,235.474 758.843,237.249 757.978,238.39 
			756.983,239.713 755.682,241.312 754.946,242.27 753.91,243.729 753.256,244.417 751.349,246.792 751.261,246.839 
			751.173,246.886 749.389,248.855 747.912,250.549 747.388,251.054 747.217,251.372 746.128,252.518 745.392,253.476 
			744.868,253.982 743.562,255.358 742.773,256.004 740.466,258.479 740.248,258.709 740.16,258.756 739.853,259.032 
			737.888,260.872 736.799,262.018 736.275,262.524 736.057,262.753 734.392,264.093 733.691,264.693 732.644,265.704 
			731.461,266.674 729.483,268.067 728.565,268.896 727.029,270.053 726.588,270.289 724.958,271.27 724.163,271.693 
			723.546,272.022 722.222,272.727 720.809,273.479 719.132,274.372 718.026,274.848 715.99,275.706 714.708,276.275 
			713.643,276.616 710.895,277.626 710.807,277.673 710.719,277.72 707.477,278.653 706.941,278.712 706.541,278.812 
			705.341,279.111 702.406,279.768 699.382,280.472 698.493,280.718 697.381,280.971 694.581,281.669 692.939,282.203 
			690.321,283.031 687.262,284.094 686.109,284.482 684.914,285.004 683.143,285.721 680.842,286.719 680.578,286.861 
			680.401,286.955 677.836,288.094 676.112,288.899 674.7,289.651 672.976,290.456 671.387,291.302 668.827,292.665 
			667.238,293.511 665.697,294.446 665.52,294.54 664.284,295.198 663.272,295.85 662.213,296.414 660.936,297.207 659.789,297.818 
			659.306,298.189 656.793,299.64 656.44,299.828 656.176,299.969 655.293,300.439 653.269,301.744 652.033,302.402 
			650.932,303.101 650.226,303.477 648.42,304.553 646.484,305.81 645.954,306.092 643.4,307.679 642.694,308.055 641.505,308.801 
			639.917,309.648 638.64,310.441 637.669,310.958 636.257,311.71 635.286,312.227 634.933,312.415 633.521,313.167 632.02,313.966 
			631.667,314.154 629.549,315.282 627.383,316.322 627.03,316.51 625.971,317.074 623.759,318.026 622.123,318.784 
			621.064,319.348 619.605,320.012 618.41,320.534 617.922,320.681 615.798,321.586 614.515,322.156 613.85,322.396 613.274,322.59 
			611.767,323.166 610.308,323.829 609.996,323.882 608.09,324.558 607.425,324.798 606.849,324.992 603.348,326.29 
			602.771,326.484 601.577,327.007 598.782,327.928 597.588,328.451 594.222,329.79 592.492,330.372 589.439,331.658 
			587.491,332.469 584.79,333.567 582.755,334.424 580.495,335.288 578.283,336.239 576.953,336.721 575.094,337.485 
			575.006,337.532 572.258,338.542 571.681,338.735 571.593,338.782 571.593,338.782 567.869,340.086 565.515,340.773 
			564.762,341.061 563.786,341.354 561.697,341.9 560.544,342.287 559.656,342.534 558.32,342.792 555.608,343.443 554.496,343.696 
			553.561,343.854 551.113,344.364 549.778,344.622 547.507,345.038 546.707,345.238 544.524,345.607 543.142,345.777 
			541.671,345.994 539.088,346.463 539,346.51 538.912,346.557 536.371,346.89 534.723,347.201 533.788,347.359 532.141,347.67 
			531.117,347.875 530.405,348.028 528.623,348.297 526.44,348.667 525.993,348.678 525.281,348.831 523.363,349.059 
			522.34,349.264 520.734,349.44 518.057,349.732 517.833,349.738 517.386,349.749 513.992,349.971 512.875,350 510.239,350.157 
			510.016,350.163 509.792,350.168 507.198,350.19 505.992,350.266 504.739,350.253 502.145,350.275 502.057,350.322 
			501.921,350.281 500.221,350.28 498.88,350.315 496.957,350.319 494.186,350.435 493.157,350.417 491.815,350.452 
			488.998,350.479 487.968,350.461 486.045,350.466 484.88,350.406 482.51,350.422 480.857,350.51 477.68,350.502 476.386,350.624 
			474.015,350.641 472.451,350.681 472.004,350.692 471.109,350.715 468.651,350.779 467.398,350.766 465.521,350.859 
			463.821,350.858 461.586,350.915 459.797,350.961 457.874,350.966 456.262,350.918 453.798,350.758 453.439,350.722 
			452.586,350.61 450.88,350.385 450.163,350.314 447.963,350.013 446.792,349.73 443.599,349.052 443.328,348.969 442.563,348.81 
			439.911,348.296 438.97,348.231 436.323,347.941 435.605,347.87 434.035,347.687 433.094,347.622 432.241,347.509 
			430.088,347.296 428.741,347.107 426.412,346.988 423.5,346.839 422.871,346.721 422.424,346.733 419.829,346.755 
			418.312,346.883 414.835,347.375 414.388,347.387 414.076,347.439 411.093,348.008 409.934,348.172 409.846,348.219 
			409.623,348.225 405.887,349.082 402.51,349.974 402.021,350.12 401.757,350.261 400.827,350.643 398.256,351.559 
			397.279,351.853 394.843,352.81 391.213,354.29 390.725,354.437 390.283,354.672 388.648,355.43 386.612,356.287 385.947,356.528 
			384.311,357.286 383.735,357.48 382.011,358.285 380.375,359.042 379.492,359.513 376.709,360.881 375.915,361.304 
			375.032,361.775 372.649,363.044 371.237,363.796 370.178,364.36 368.548,365.341 367.841,365.717 367.047,366.14 365.282,367.08 
			363.958,367.785 362.151,368.861 359.727,370.265 359.374,370.453 359.197,370.547 356.29,372.322 355.896,372.645 
			354.531,373.486 353.654,374.179 352.512,375.014 350.717,376.536 350.541,376.63 349.099,377.965 347.174,379.669 
			347.045,379.852 346.868,379.946 344.773,381.968 343.466,383.344 343.16,383.62 342.636,384.125 341.282,385.413 
			340.282,386.512 338.275,388.487 336.356,390.416 335.832,390.921 334.613,392.25 334.396,392.479 334.001,392.802 
			332.871,394.084 332.259,394.637 331.258,395.736 329.693,397.476 329.257,397.935 328.91,398.346 325.566,402.28 324.83,403.238 
			323.394,404.796 321.964,406.578 321.098,407.718 320.145,408.906 319.626,409.635 318.632,410.958 316.818,413.51 
			316.341,414.104 316.212,414.286 315.611,415.285 313.757,417.973 312.809,419.384 312.591,419.613 310.736,422.3 
			309.576,424.164 309.317,424.529 308.016,426.128 307.498,426.857 306.462,428.315 306.074,428.862 305.249,429.867 
			303.695,432.055 303.307,432.601 303.265,432.737 301.493,435.153 300.416,436.747 300.286,436.929 299.851,437.388 
			299.374,437.981 298.768,438.758 297.337,440.539 296.948,441.086 296.124,442.091 295,443.596 293.746,445.284 293.181,445.925 
			290.932,448.935 290.626,449.211 290.585,449.347 290.496,449.394 290.496,449.394 288.807,451.54 287.159,453.55 
			286.811,453.962 286.334,454.556 284.945,456.202 283.821,457.707 283.256,458.348 281.996,459.812 280.389,461.688 
			279.129,463.151 277.693,464.709 277.169,465.215 276.998,465.533 276.822,465.627 274.603,468.055 273.343,469.519 
			273.343,469.519 273.255,469.566 273.213,469.701 270.647,472.54 269.688,473.505 269.646,473.64 269.558,473.687 
			268.993,474.328 267.515,476.021 266.256,477.485 264.69,479.225 264.472,479.454 264.078,479.778 262.642,481.336 
			261.641,482.435 260.375,483.675 259.375,484.775 259.157,485.004 258.939,485.233 256.102,487.99 255.143,488.954 
			252.347,491.576 251.776,491.994 251.164,492.546 249.722,493.881 247.539,495.95 247.274,496.091 246.179,497.014 
			243.772,499.089 243.331,499.324 243.289,499.459 242.936,499.647 240.476,501.41 239.776,502.01 237.928,503.221 
			237.399,503.503 236.122,504.296 234.668,505.183 233.786,505.653 231.667,506.781 229.543,507.686 228.837,508.062 
			228.172,508.303 225.383,509.448 222.947,510.405 222.018,510.787 219.847,511.604 217.805,512.238 216.075,512.819 
			214.21,513.359 211.545,514.099 211.145,514.198 209.721,514.503 208.168,514.991 207.945,514.996 204.744,515.794 
			204.609,515.753 204.521,515.8 201.85,516.316 200.691,516.48 199.532,516.644 198.596,516.802 198.196,516.902 197.749,516.914 
			195.743,517.189 195.431,517.242 194.984,517.253 193.067,517.481 191.549,517.61 190.255,517.733 189.049,517.808 
			186.637,517.96 186.102,518.018 185.878,518.024 183.06,518.052 182.39,518.069 179.172,518.196 178.725,518.208 176.801,518.213 
			174.966,518.17 174.431,518.229 171.79,518.163 170.001,518.209 169.731,518.126 169.284,518.138 167.36,518.142 166.507,518.03 
			164.313,517.952 162.072,517.786 160.684,517.732 157.502,517.501 156.649,517.389 154.585,517.129 153.149,516.987 
			152.79,516.951 151.667,516.756 149.603,516.496 148.973,516.378 147.985,516.225 145.873,515.876 144.615,515.64 
			143.221,515.363 140.474,514.673 139.71,514.514 138.81,514.313 136.692,513.741 134.663,513.122 134.393,513.04 131.911,512.209 
			131.099,511.961 128.888,511.213 126.989,510.412 126.718,510.329 125.859,509.993 125.136,509.699 123.913,509.104 
			122.507,508.38 121.055,507.567 119.15,506.542 118.515,506.201 118.15,505.942 116.604,504.953 116.374,504.735 115.557,504.264 
			114.51,503.575 109.583,499.854 109.083,499.554 109.036,499.466 108.672,499.207 104.286,495.651 102.593,494.173 
			101.035,492.737 99.065,490.954 97.825,489.688 96.678,488.599 91.446,483.455 89.653,481.577 88.183,480.094 85.291,477.216 
			84.327,476.256 81.94,473.902 80.424,472.331 78.401,470.235 76.796,468.711 76.014,467.881 74.862,466.568 73.845,465.297 
			73.616,465.079 73.475,464.814 72.87,463.891 72.447,463.096 71.366,461.066 70.802,460.007 69.092,456.159 68.992,455.759 
			68.799,455.182 67.73,451.899 67.337,450.523 66.979,448.787 66.598,446.157 66.44,445.222 66.201,441.157 66.201,441.157 
			66.154,441.069 66.18,436.863 66.176,434.939 66.206,432.657 66.409,428.357 66.497,428.31 66.497,428.31 66.497,428.31 
			66.794,424.187 66.865,423.469 66.977,422.616 67.078,421.316 67.232,420.328 67.379,419.117 67.728,417.005 67.923,415.882 
			68.117,414.758 68.637,412.329 68.996,410.665 69.397,408.865 69.964,406.524 70.494,404.542 71.231,401.884 71.602,400.666 
			71.979,399.672 72.846,396.832 73.476,395.25 74.608,392.268 74.861,391.68 75.827,389.239 76.169,388.604 76.928,386.84 
			77.694,385.299 78.242,383.988 79.267,382.083 79.52,381.495 79.779,381.13 80.757,379.137 81.14,378.366 82.035,376.643 
			82.635,375.644 83.619,373.874 84.302,372.603 84.514,372.151 86.616,368.652 86.869,368.064 87.729,366.7 88.718,365.153 
			89.189,364.336 90.22,362.654 91.939,359.926 92.157,359.696 92.198,359.561 94.447,356.551 95.183,355.592 96.572,353.946 
			98.479,351.571 98.827,351.159 99.304,350.565 101.087,348.596 101.958,347.679 104.048,345.433 104.919,344.516 106.537,343.088 
			107.891,341.8 108.456,341.159 110.681,338.955 110.681,338.955 110.769,338.908 112.564,337.385 112.959,337.062 
			114.842,335.493 114.972,335.31 115.236,335.169 117.343,333.594 118.703,332.53 120.457,331.143 121.993,329.985 
			122.781,329.339 124.494,328.087 125.724,327.205 126.118,326.882 126.559,326.647 129.06,324.748 129.808,324.237 
			131.479,323.12 134.775,320.799 134.863,320.752 134.951,320.705 137.982,318.524 139.212,317.643 140.089,316.949 
			142.596,315.274 142.684,315.227 142.725,315.092 143.078,314.904 145.32,313.37 145.979,312.906 147.168,312.159 148.751,311.09 
			150.028,310.296 150.687,309.832 152.929,308.298 153.324,307.975 155.171,306.764 156.537,305.924 158.208,304.807 
			159.35,303.973 160.497,303.362 162.563,301.922 163.704,301.087 165.905,299.688 166.082,299.594 168.106,298.29 
			169.777,297.173 171.802,295.868 172.725,295.263 174.526,293.964 175.45,293.359 175.715,293.218 176.551,292.66 
			178.269,291.631 179.281,290.979 180.599,290.05 182.841,288.516 184.118,287.723 185.79,286.606 186.537,286.095 
			188.956,284.467 189.703,283.956 190.845,283.121 191.857,282.469 192.998,281.634 193.787,280.988 194.052,280.847 
			197.041,278.801 197.394,278.613 197.612,278.384 198.801,277.638 200.955,276.151 201.437,275.781 203.679,274.247 
			204.78,273.547 207.016,271.79 207.369,271.602 208.158,270.955 209.959,269.656 210.53,269.239 211.583,268.451 213.425,267.017 
			214.302,266.324 215.838,265.166 216.191,264.978 216.409,264.749 218.78,263.032 220.099,262.104 221.899,260.805 
			222.776,260.111 223.082,259.835 224.442,258.771 224.53,258.724 224.836,258.448 227.166,256.867 228.438,255.85 230.28,254.416 
			231.463,253.446 231.639,253.352 233.175,252.194 233.352,252.1 233.658,251.824 235.723,250.384 236.689,249.643 
			238.578,248.297 240.243,246.957 240.243,246.957 241.997,245.57 242.391,245.247 244.145,243.86 245.328,242.89 246.687,241.826 
			248.265,240.533 248.618,240.345 250.413,238.822 251.596,237.852 253.002,236.877 253.703,236.277 256.292,234.332 
			256.557,234.191 256.598,234.055 259.411,232.104 260.9,230.858 262,230.159 264.502,228.26 265.072,227.843 265.202,227.661 
			268.892,225.016 269.374,224.645 270.21,224.087 272.229,222.559 273.37,221.724 274.118,221.213 276.36,219.679 277.59,218.798 
			278.731,217.963 279.037,217.687 279.785,217.175 281.191,216.2 282.027,215.641 282.509,215.271 283.875,214.431 
			286.199,212.626 287.211,211.974 288,211.327 289.583,210.258 290.813,209.376 291.472,208.912 291.602,208.73 294.02,207.102 
			295.115,206.179 295.951,205.62 298.675,203.716 299.07,203.393 299.246,203.299 299.334,203.252 300.564,202.37 302.942,200.878 
			303.513,200.46 303.819,200.184 305.096,199.391 305.931,198.832 307.691,197.669 309.58,196.323 310.198,195.994 311.957,194.83 
			313.058,194.131 313.717,193.667 314.199,193.296 315.829,192.315 316.224,191.992 316.753,191.71 319.131,190.217 
			320.408,189.424 322.038,188.442 323.273,187.784 323.756,187.414 324.727,186.897 328.34,184.746 328.605,184.605 
			328.869,184.464 330.588,183.436 333.147,182.073 333.589,181.837 334.336,181.326 336.054,180.298 337.378,179.593 
			338.39,178.94 340.768,177.448 341.65,176.978 341.956,176.701 343.145,175.955 345.876,174.274 347.812,173.017 347.988,172.923 
			348.253,172.782 350.101,171.571 352.525,170.167 353.979,169.279 354.285,169.003 355.344,168.439 357.103,167.275 
			358.598,166.253 360.181,165.183 361.282,164.484 361.852,164.066 362.776,163.461 366.472,161.04 366.866,160.717 
			367.043,160.623 368.184,159.788 370.556,158.072 370.733,157.978 371.345,157.425 371.609,157.284 371.698,157.237 
			373.628,155.756 375.252,154.551 375.517,154.41 375.605,154.363 377.1,153.34 379.737,151.483 379.866,151.301 379.954,151.254 
			382.638,149.485 384.085,148.374 384.174,148.327 384.262,148.28 388.305,145.447 388.835,145.165 389.494,144.701 
			390.153,144.237 391.689,143.079 392.613,142.473 393.007,142.15 393.225,141.921 396.868,139.188 397.615,138.676 
			398.315,138.077 399.016,137.477 400.334,136.549 401.075,135.814 401.646,135.397 401.823,135.303 405.413,132.258 
			405.896,131.887 406.466,131.47 407.037,131.053 408.661,129.848 409.803,129.013 410.421,128.684 413.981,126.222 
			414.905,125.616 415.917,124.964 417.324,123.988 418.159,123.43 419.566,122.455 421.326,121.291 422.385,120.727 
			423.044,120.263 424.056,119.61 426.651,117.888 428.675,116.584 428.764,116.537 428.852,116.49 430.923,115.273 
			433.612,113.728 434.848,113.07 435.113,112.929 437.62,111.254 438.503,110.784 438.856,110.596 439.297,110.361 
			439.868,109.943 441.716,108.733 443.075,107.669 443.605,107.387 444.481,106.693 445.052,106.276 447.741,104.73 
			447.83,104.683 447.83,104.683 448.006,104.589 452.072,102.651 453.043,102.134 454.991,101.323 456.097,100.847 458.221,99.943 
			458.397,99.849 458.533,99.89 460.568,99.032 462.075,98.457 463.804,97.876 465.399,97.253 466.064,97.012 468.505,96.278 
			469.129,96.173 469.794,95.932 472.236,95.198 472.859,95.093 475.436,94.4 476.371,94.242 478.372,93.743 478.507,93.785 
			480.242,93.427 481.578,93.169 482.737,93.005 483.137,92.905 483.896,92.841 485.767,92.524 487.061,92.401 488.578,92.273 
			490.679,92.174 492.643,92.034 494.432,91.988 496.396,91.848 496.755,91.884 499.567,91.633 499.791,91.627 501.085,91.504 
			503.361,91.311 503.585,91.306 506.797,90.955 507.332,90.896 509.874,90.562 511.033,90.398 513.215,90.029 514.909,89.807 
			516.645,89.449 518.516,89.132 520.251,88.775 522.922,88.259 523.634,88.106 525.723,87.56 526.923,87.261 527.234,87.208 
			527.946,87.056 529.811,86.516 532.341,85.735 532.518,85.641 532.606,85.594 533.359,85.306 535.313,84.719 535.666,84.531 
			537.395,83.95 538.855,83.286 540.673,82.658 542.132,81.994 544.25,80.866 544.562,80.813 545.003,80.578 547.169,79.538 
			548.934,78.598 549.022,78.551 550.652,77.57 552.064,76.818 552.682,76.489 554.489,75.413 554.93,75.178 557.354,73.774 
			558.237,73.304 559.514,72.51 559.955,72.275 561.721,71.335 561.897,71.241 562.074,71.147 564.551,70.055 566.581,68.973 
			567.022,68.738 569.693,68.222 570.046,68.034 570.582,67.976 572.77,67.83 573.846,67.937 574.699,68.049 576.14,68.415 
			578.434,68.892 578.434,68.892 578.569,68.934 581.598,70.153 582.368,70.536 584.315,71.425 586.173,72.362 586.943,72.745 
			589.442,74.246 591.353,75.494 592.947,76.572 594.358,77.52 594.993,77.861 596.451,78.897 598.045,79.975 600.221,81.082 
			601.673,81.895 603.843,82.778 604.702,83.114 605.331,83.232 608.696,83.593 609.46,83.752 610.084,83.647 611.196,83.395 
			613.773,82.702 614.749,82.409 615.808,81.845 617.403,81.222 619.08,80.329 620.851,79.612 621.998,79.001 623.146,78.39 
			625.14,77.668 627.094,77.081 628.029,76.923 629.988,76.559 630.794,76.583 632.058,77.043 633.499,77.408 634.628,77.827 
			636.575,78.716 638.751,79.823 639.298,80.212 639.839,80.377 642.385,81.967 643.02,82.308 643.702,82.738 645.707,84.163 
			646.072,84.422 648.165,85.8 648.3,85.841 650.123,87.136 651.122,87.737 652.622,88.638 653.486,89.197 655.844,90.434 
			656.074,90.651 658.702,91.971 658.837,92.012 659.067,92.23 661.06,93.207 661.831,93.59 663.007,94.097 663.324,94.268 
			664.548,94.862 665.677,95.281 668.97,96.359 669.152,96.489 669.646,96.566 671.811,97.226 673.069,97.462 675.987,97.834 
			675.987,97.834 676.075,97.787 678.81,98.03 679.704,98.007 681.675,98.091 683.281,97.915 684.804,98.01 685.522,98.081 
			686.687,98.141 688.898,98.889 689.033,98.93 689.169,98.972 691.433,100.032 694.785,101.646 694.967,101.775 695.102,101.816 
			695.284,101.946 698.289,103.971 699.565,104.878 701.44,106.485 702.863,107.88 704.885,109.975 706.085,111.376 708.453,114.76 
			708.5,114.848 708.594,115.025 710.145,117.937 710.48,118.779 710.962,120.108 711.648,122.462 711.801,123.174 711.953,123.885 
			712.305,125.397 712.422,126.468 712.75,128.786 712.679,129.504 712.697,130.174 712.695,133.574 712.535,134.339 
			712.24,136.762 711.733,137.938 711.079,140.326 709.26,142.654 708.253,143.53 706.176,144.523 705.558,144.852 703.517,145.486 
			700.081,145.843 699.411,145.86 698.917,145.783 695.605,145.734 693.187,145.662 692.646,145.497 692.064,145.467 
			689.817,145.078 687.435,144.647 686.941,144.57 686.623,144.399 684.059,143.839 683.7,143.804 681.583,143.232 680.142,142.866 
			678.971,142.583 678.701,142.501 678.072,142.382 677.036,142.141 675.46,141.734 674.649,141.486 674.378,141.404 
			670.284,140.525 669.743,140.36 668.485,140.124 666.326,139.687 663.762,139.127 663.538,139.132 663.491,139.044 
			661.109,138.613 659.356,138.301 658.774,138.271 658.503,138.188 657.921,138.158 655.186,137.916 654.198,137.762 
			653.927,137.68 653.121,137.656 652.274,137.767 651.516,137.831 650.762,138.119 649.962,138.318 648.809,138.706 647.75,139.27 
			647.132,139.599 646.649,139.969 646.39,140.334 645.925,141.375 645.777,142.586 645.665,143.439 646.122,145.575 
			646.281,146.51 646.674,147.887 647.432,149.523 647.855,150.317 648.76,152.441 649.136,153.147 650.452,155.619 
			650.728,155.925 652.179,158.437 652.738,159.273 654.747,162.621 654.841,162.798 654.982,163.063 656.616,165.705 
			657.315,166.805 657.874,167.641 658.432,168.476 659.126,169.353 659.684,170.189 661.218,172.431 661.635,173.002 
			661.729,173.178 662.053,173.573 663.628,175.68 664.327,176.78 665.115,177.833 665.438,178.228 665.767,178.846 
			667.295,180.864 668.324,182.582 668.694,183.065 669.675,184.695 669.863,185.048 670.704,186.413 671.409,187.737 
			672.26,189.55 672.919,190.785 673.206,191.538 674.263,194.374 674.363,194.774 675.191,197.393 675.502,199.04 675.924,201.534 
			676.011,203.187 676.139,204.705 676.198,205.24 676.315,206.311 676.384,208.993 676.347,211.052 676.359,211.499 
			676.469,214.046 676.428,214.182 676.387,214.317 676.621,216.458 676.638,217.129 676.937,218.329 677.419,219.659 
			677.518,220.059 677.565,220.147 677.795,220.365 678.576,221.195 679.076,221.495 679.847,221.878 680.788,221.943 
			681.635,221.832 683.059,221.527 683.588,221.245 684.959,220.628 685.712,220.34 686.065,220.152 688.043,218.759 
			688.572,218.477 689.231,218.013 689.844,217.46 690.632,216.814 691.597,216.073 692.739,215.238 693.657,214.41 
			695.281,213.205 696.247,212.464 698.924,210.472 699.536,209.919 699.889,209.731 700.331,209.496 702.532,208.097 
			703.102,207.68 704.073,207.163 705.438,206.323 707.827,205.277 708.092,205.136 711.193,203.938 711.193,203.938 
			711.281,203.891 713.899,203.063 715.853,202.476 716.164,202.423 719.412,201.714 719.724,201.661 722.306,201.192 
			723.153,201.081 724.001,200.969 725.248,200.758 728.06,200.507 728.772,200.355 729.354,200.384 732.478,200.08 733.46,200.01 
			735.872,199.859 737.301,199.777 738.907,199.602 741.719,199.351 741.943,199.345 742.078,199.386 744.572,198.964 
			745.108,198.906 747.067,198.542 748.667,198.143 750.179,197.791 751.42,197.357 752.309,197.11 753.68,196.493 755.139,195.829 
			755.669,195.547 756.286,195.218 757.257,194.701 758.446,193.955 758.799,193.767 759.546,193.256 759.9,193.068 
			760.123,193.062 760.747,192.956 761.647,193.157 761.87,193.151 762.052,193.281 763.734,194.311 764.099,194.57 764.598,194.87 
			766.203,196.395 766.615,196.742 767.873,198.678 768.061,199.031 		">
		</polygon>
	</g>
</g>
<g id="Layer_1">
</g>
</svg>
