<?xml version="1.0" encoding="iso-8859-1"?>
<!-- Generator: Adobe Illustrator 19.2.1, SVG Export Plug-In . SVG Version: 6.00 Build 0)  -->
<svg version="1.1" xmlns="http://www.w3.org/2000/svg" xmlns:xlink="http://www.w3.org/1999/xlink" x="0px" y="0px"
	 viewBox="0 0 841.89 595.28" style="enable-background:new 0 0 841.89 595.28;" xml:space="preserve">
<g id="layer204">
	<g id="layer204_1_" slic3r:z="8.18000000000006e-005">
		<polygon slic3r:type="contour" style="fill:#FFFFFF;stroke:#000000;stroke-miterlimit:10;" points="244.145,350.018 
			244.58,351.26 245.725,354.049 246.165,355.514 247.134,358.397 248.461,363.015 248.461,363.015 248.555,363.192 249.582,366.61 
			249.782,367.41 250.363,369.14 251.144,371.67 251.478,372.511 252.536,375.347 253.117,377.077 253.17,377.389 253.222,377.7 
			254.203,381.03 254.261,381.566 254.63,383.748 254.953,385.843 255.234,388.072 255.309,389.278 255.514,392.002 
			255.589,393.208 255.601,393.655 255.712,394.502 255.828,397.273 255.797,399.555 255.773,400.361 255.548,403.767 
			255.642,403.943 255.292,407.755 255.298,407.978 254.931,411.119 254.701,412.601 254.506,413.725 254.064,415.66 
			253.822,416.695 253.292,418.677 252.838,420.165 252.384,421.653 251.718,423.594 251.382,424.452 250.328,426.94 
			250.286,427.075 250.333,427.163 249.232,429.563 249.061,429.88 248.348,431.733 247.583,433.273 247.117,434.314 
			245.928,436.761 245.975,436.849 245.804,437.166 244.738,439.207 244.526,439.66 243.419,441.836 242.741,443.329 
			241.339,446.228 241.257,446.499 241.216,446.634 240.026,449.081 239.643,449.851 238.836,451.527 237.9,453.385 
			237.688,453.838 237.175,454.791 236.321,456.378 235.897,457.284 235.167,458.466 233.972,460.689 233.76,461.141 
			232.694,463.182 232.523,463.5 232.482,463.635 231.022,465.999 229.685,467.957 229.255,468.639 229.084,468.956 
			228.349,469.915 227.872,470.508 227.006,471.649 224.928,474.342 224.322,475.118 224.063,475.483 223.28,476.353 
			221.367,478.505 220.543,479.51 220.019,480.015 219.583,480.474 218.141,481.808 217.617,482.314 216.741,483.008 
			215.293,484.118 214.239,484.906 213.363,485.6 212.833,485.882 211.026,486.957 209.085,487.991 207.231,488.978 
			206.878,489.166 206.613,489.307 203.695,490.635 203.253,490.87 202.989,491.011 202.324,491.252 199.176,492.362 
			197.717,493.025 197.405,493.078 195.94,493.518 194.963,493.812 193.275,494.258 191.898,494.651 191.098,494.851 
			188.651,495.361 188.162,495.508 185.844,495.836 183.35,496.258 182.191,496.422 181.432,496.486 177.685,496.896 
			177.462,496.901 177.103,496.866 174.509,496.888 173.073,496.746 170.073,496.644 170.073,496.644 169.85,496.65 166.621,496.33 
			166.215,496.206 165.856,496.171 161.903,495.557 161.633,495.474 158.169,494.713 157.316,494.601 157.316,494.601 
			157.181,494.56 152.993,493.504 151.999,493.127 149.158,492.261 146.453,491.435 145.688,491.276 142.213,490.068 
			141.672,489.903 140.772,489.703 138.061,488.654 136.302,488.117 134.902,487.617 132.509,486.739 131.739,486.356 
			130.021,485.684 128.575,485.095 128.075,484.795 127.216,484.459 123.864,482.845 122.188,482.038 120.101,480.884 
			117.055,478.994 116.872,478.864 116.737,478.823 116.232,478.299 114.174,476.563 113.903,476.48 112.516,474.727 
			112.058,474.291 111.546,473.544 111.123,472.749 110.506,471.378 108.826,468.648 107.233,465.87 106.205,464.152 
			104.195,460.804 103.537,459.568 100.558,455.037 100.328,454.819 99.864,454.16 97.813,450.947 96.696,449.276 95.803,447.599 
			94.382,444.504 94.282,444.104 94.094,443.751 93.037,440.915 93.031,440.691 92.497,439.05 92.444,438.738 92.344,438.338 
			92.21,436.596 91.899,434.949 91.589,431.602 91.537,431.29 91.578,431.155 91.645,426.814 91.746,425.514 92.006,423.449 
			91.942,422.69 92.167,420.985 92.32,419.997 92.515,418.873 92.822,416.897 93.429,414.421 93.506,413.927 94.072,411.586 
			94.927,408.298 95.133,407.622 95.464,406.54 96.124,404.375 96.536,403.023 96.908,401.805 97.196,400.858 97.986,398.512 
			98.611,396.706 98.652,396.571 99.324,394.854 100.337,392.501 100.761,391.596 101.397,390.237 102.286,388.291 102.752,387.25 
			103.859,385.074 104.454,383.851 105.743,381.805 105.873,381.622 106.091,381.393 107.474,379.523 108.21,378.565 
			109.464,376.878 111.159,374.955 111.201,374.82 112.984,372.85 113.637,372.162 115.474,370.505 116.827,369.217 
			119.852,366.813 120.423,366.396 120.688,366.255 121.606,365.426 124.502,363.204 125.596,362.281 128.274,360.289 
			132.099,357.685 132.099,357.685 132.099,357.685 132.099,357.685 135.671,355.67 138.354,353.901 139.278,353.296 
			142.533,351.109 142.886,350.921 144.204,349.993 145.793,349.147 146.099,348.87 148.435,347.513 149.623,346.767 
			150.594,346.25 152.842,344.939 153.284,344.704 153.813,344.422 156.067,343.335 157.302,342.677 158.979,341.784 
			161.145,340.744 162.204,340.18 164.722,338.952 165.428,338.576 167.023,337.954 168.882,337.19 169.547,336.949 
			171.589,336.315 173.142,335.828 173.63,335.681 176.872,334.748 178.025,334.36 179.802,333.867 182.338,333.31 183.226,333.064 
			183.761,333.005 187.856,332.184 188.344,332.037 188.344,332.037 192.574,331.258 193.78,331.182 196.586,330.707 
			198.016,330.626 199.71,330.403 201.545,330.445 203.11,330.405 205.933,330.601 207.01,330.708 209.662,331.221 210.38,331.292 
			212.944,331.852 216.773,332.872 216.773,332.872 216.861,332.825 216.997,332.867 220.784,334.022 221.549,334.181 
			222.948,334.682 225.748,335.684 229.635,337.239 229.77,337.28 229.906,337.321 230.041,337.363 233.575,339.106 
			235.122,340.095 236.762,341.261 238.955,343.039 240.566,344.787 241.859,346.364 243.446,348.918 243.957,349.665 		">
		</polygon>
		<polygon slic3r:type="contour" style="fill:#FFFFFF;stroke:#000000;stroke-miterlimit:10;" points="629.576,184.071 
			631.085,187.119 631.091,187.342 631.091,187.342 632.331,190.308 632.759,191.326 633.288,192.743 633.91,194.338 
			634.727,196.509 635.302,198.015 636.495,200.892 636.929,202.134 637.264,202.975 638.568,206.7 640.148,210.73 640.388,211.395 
			640.67,211.924 642.115,215.914 642.256,216.178 642.356,216.578 643.272,219.15 644.047,221.456 644.576,222.874 644.769,223.45 
			645.21,224.915 645.979,226.998 646.507,228.416 646.895,229.569 647.67,231.876 648.058,233.029 648.968,235.377 
			649.449,236.706 649.737,237.459 650.742,239.984 651.405,241.443 652.075,243.126 652.457,244.055 653.502,246.444 
			653.837,247.285 653.937,247.685 654.847,250.033 655.381,251.675 656.004,253.269 656.603,255.669 656.99,256.823 657.6,259.67 
			657.794,260.247 658.139,263.235 658.098,263.37 658.098,263.37 658.114,265.741 657.872,266.776 657.724,267.988 
			657.518,268.664 656.764,270.652 655.91,272.24 655.268,273.375 653.926,275.109 652.755,276.526 652.272,276.896 651.313,277.86 
			650.571,278.595 650.177,278.918 648.641,280.076 646.493,281.787 645.922,282.204 645.657,282.345 645.304,282.533 
			642.891,284.385 642.232,284.849 641.002,285.731 639.466,286.888 639.113,287.076 638.277,287.635 636.959,288.563 
			636.606,288.751 634.364,290.285 632.563,291.584 631.992,292.002 631.639,292.19 628.826,294.141 628.52,294.417 628.52,294.417 
			628.432,294.464 625.572,296.327 624.03,297.261 622.841,298.008 621.123,299.036 620.329,299.459 618.346,300.629 
			617.857,300.775 617.063,301.198 615.298,302.138 613.797,302.938 612.338,303.601 611.102,304.259 609.29,305.111 
			606.772,306.339 606.507,306.48 606.33,306.574 603.588,307.808 602.394,308.331 599.829,309.47 598.987,309.805 595.31,311.197 
			594.469,311.532 593.715,311.819 589.944,313.035 588.879,313.375 585.549,314.356 584.973,314.549 582.837,315.007 
			581.148,315.453 580.66,315.6 579.236,315.905 577.901,316.163 577.277,316.268 575.542,316.626 573.712,316.807 573.536,316.901 
			571.259,317.094 570.189,317.211 566.259,317.491 565.947,317.544 565.365,317.514 562.371,317.636 560.088,317.605 
			559.106,317.675 558.435,317.692 556.377,317.655 555.3,317.549 553.241,317.512 550.33,317.364 549.971,317.328 547.189,316.997 
			545.618,316.814 544.677,316.748 541.936,316.282 541.577,316.246 541.489,316.293 537.084,315.467 536.86,315.473 
			536.366,315.396 532.725,314.729 531.555,314.446 528.361,313.768 528.226,313.727 527.685,313.562 524.897,313.007 
			524.085,312.759 522.733,312.347 521.333,311.846 519.216,311.274 518.539,311.068 515.652,310.113 515.152,309.813 
			512.805,309.023 511.717,308.469 510.359,307.833 508.865,307.156 507.184,306.126 504.861,304.53 503.591,303.847 
			502.997,303.37 500.21,301.115 499.616,300.639 499.522,300.462 496.489,297.319 495.936,296.707 495.237,295.607 
			493.891,293.717 492.663,291.199 492.287,290.493 492.187,290.093 491.036,287.08 490.825,285.833 490.069,282.497 
			490.016,282.186 490.01,281.962 489.94,280.98 489.618,278.885 489.578,277.321 489.508,276.338 489.496,275.891 489.427,273.209 
			489.7,269.891 489.688,269.444 489.636,269.133 490.032,265.409 490.316,262.539 490.305,262.092 490.376,261.374 
			490.542,259.133 490.496,257.345 490.384,256.498 490.068,254.627 489.921,254.139 489.868,253.827 488.923,251.838 
			488.317,250.914 487.671,250.125 486.665,249.301 485.113,248.089 484.019,247.311 481.567,245.898 480.844,245.604 
			480.121,245.309 477.592,244.39 476.463,243.972 475.063,243.471 474.657,243.347 473.169,242.893 471.593,242.486 
			469.97,241.991 468.482,241.537 464.7,240.606 464.429,240.523 464.159,240.441 461.324,239.798 460.648,239.591 457.636,239.042 
			456.06,238.636 452.331,238.016 450.713,237.744 449.996,237.673 447.031,237.212 446.449,237.183 444.385,236.923 
			442.679,236.698 441.602,236.591 439.673,236.373 436.262,235.924 435.273,235.77 434.779,235.693 432.221,235.356 
			430.739,235.126 430.021,235.055 427.462,234.718 425.486,234.411 423.916,234.228 422.569,234.039 421.086,233.808 
			418.616,233.425 418.616,233.425 418.616,233.425 416.234,232.994 415.605,232.876 412.999,232.451 411.74,232.214 
			409.223,231.742 407.335,231.388 406.57,231.229 403.641,230.41 402.336,230.085 401.795,229.92 398.272,228.624 396.508,227.864 
			394.379,226.845 391.386,225.267 390.657,224.749 388.616,223.683 387.663,223.17 386.805,222.835 384.947,221.898 
			382.953,220.921 382.277,220.714 381.548,220.196 379.901,218.807 379.579,216.713 379.239,215.648 379.934,213.125 380,212.183 
			380.594,210.96 380.677,210.69 381.178,209.29 382.309,206.308 382.521,205.856 382.733,205.403 383.823,202.556 384.76,200.698 
			385.172,199.345 386.003,196.864 386.369,195.423 386.87,192.323 386.912,192.188 387.313,190.388 387.466,189.4 387.508,189.264 
			387.549,189.129 387.879,188.047 387.961,187.776 389.57,184.201 390.253,182.931 391.036,182.061 391.813,180.967 
			392.59,179.873 394.409,177.545 395.28,176.628 395.757,176.034 396.104,175.623 398.017,173.471 399.189,172.054 
			399.406,171.825 399.536,171.642 400.407,170.725 401.361,169.538 402.968,167.662 403.61,166.527 404.351,165.792 
			404.74,165.246 405.735,163.923 406.294,163.058 407.589,161.235 409.149,159.272 409.191,159.136 409.579,158.59 
			411.657,155.897 412.046,155.35 412.305,154.985 412.911,154.209 413.476,153.568 414.565,152.422 415.69,150.917 
			415.731,150.782 416.078,150.37 417.256,149.177 417.821,148.536 418.645,147.53 419.21,146.89 419.775,146.249 420.946,144.832 
			421.729,143.962 422.383,143.274 424.908,140.57 426.391,139.1 426.391,139.1 428.58,137.254 430.552,135.638 434.101,132.728 
			434.319,132.499 434.978,132.035 437.043,130.595 439.15,129.019 440.339,128.273 443.464,126.269 445.052,125.423 
			447.171,124.295 447.789,123.966 450.436,122.556 451.272,121.997 452.378,121.522 453.661,120.952 454.855,120.429 
			456.803,119.618 457.733,119.237 460.786,117.95 460.786,117.95 460.875,117.903 463.934,116.84 466.017,116.071 467.305,115.725 
			467.882,115.531 469.212,115.049 471.3,114.504 474.542,113.57 474.766,113.565 475.077,113.512 477.789,112.861 479.79,112.362 
			480.325,112.303 482.014,111.857 483.437,111.552 483.749,111.499 486.82,110.884 487.532,110.731 489.803,110.315 
			490.426,110.209 490.738,110.157 493.238,109.958 494.533,109.835 496.403,109.519 497.474,109.402 499.751,109.209 
			499.751,109.209 502.568,109.182 502.745,109.088 503.192,109.076 506.103,109.225 506.774,109.208 509.956,109.439 
			510.18,109.433 510.674,109.51 512.691,109.682 514.397,109.906 515.656,110.142 516.197,110.307 517.097,110.508 
			519.173,111.215 520.526,111.628 521.608,111.958 523.101,112.635 524.954,113.348 525.859,113.772 528.618,114.909 
			529.07,115.121 529.206,115.162 529.388,115.292 532.334,116.782 533.875,117.548 536.004,118.567 537.274,119.25 
			538.768,119.927 540.126,120.563 542.12,121.541 542.572,121.753 543.16,122.006 544.431,122.689 545.113,123.119 
			546.518,123.844 547.971,124.656 550.823,125.97 551.276,126.182 551.546,126.264 554.845,127.566 557.098,128.179 
			558.768,128.763 559.803,129.005 560.615,129.252 561.473,129.588 563.232,130.124 563.685,130.336 563.908,130.331 
			564.679,130.713 566.713,131.556 568.342,132.275 569.519,132.781 571.236,133.453 572.906,134.036 573.765,134.372 
			575.752,135.126 576.382,135.244 577.781,135.745 578.822,136.21 581.133,137.359 581.904,137.742 582.268,138.001 
			585.72,140.015 586.443,140.309 587.761,141.08 589.942,142.411 592.488,144.001 593.353,144.56 596.451,146.762 596.633,146.892 
			596.633,146.892 596.863,147.11 600.014,149.623 600.608,150.1 603.718,152.749 604.682,153.708 607.204,156.104 608.627,157.499 
			610.644,159.371 612.437,161.248 613.906,162.732 615.975,164.915 617.445,166.399 619.426,168.629 620.484,169.765 
			622.283,171.866 622.512,172.084 622.606,172.26 623.629,173.755 624.234,174.679 624.328,174.856 625.633,176.88 
			626.338,178.204 627.507,180.187 628.729,182.482 		">
		</polygon>
	</g>
</g>
<g id="Layer_1">
</g>
</svg>
