<?xml version="1.0" encoding="iso-8859-1"?>
<!-- Generator: Adobe Illustrator 19.2.1, SVG Export Plug-In . SVG Version: 6.00 Build 0)  -->
<svg version="1.1" xmlns="http://www.w3.org/2000/svg" xmlns:xlink="http://www.w3.org/1999/xlink" x="0px" y="0px"
	 viewBox="0 0 841.89 595.28" style="enable-background:new 0 0 841.89 595.28;" xml:space="preserve">
<g id="layer246">
	<g id="layer246_1_" slic3r:z="9.86000000000009e-005">
		<polygon slic3r:type="contour" style="fill:#FFFFFF;stroke:#000000;stroke-miterlimit:10;" points="735.578,122.294 
			735.907,122.912 736.529,124.506 736.823,125.483 737.369,127.572 737.574,128.595 737.785,129.842 738.425,132.107 
			739.57,134.896 739.57,134.896 739.57,134.896 740.721,137.909 742.367,140.998 742.743,141.704 743.213,142.587 744.247,144.529 
			744.717,145.411 745.51,146.688 745.751,147.353 746.033,147.883 746.379,149.171 747.096,150.942 747.384,151.695 
			747.871,153.249 748.311,154.713 749.033,156.708 750.015,158.338 750.731,160.109 751.812,162.139 752.094,162.669 
			753.211,164.34 753.305,164.517 753.928,166.111 754.116,166.464 754.686,167.747 755.02,168.588 755.12,168.988 755.748,170.806 
			755.813,171.565 756.118,172.989 755.852,174.83 755.811,174.965 755.64,175.283 754.733,176.559 753.897,177.117 
			752.303,177.739 752.215,177.786 750.22,178.509 749.955,178.65 749.555,178.75 747.255,179.748 746.102,180.136 744.866,180.794 
			744.424,181.029 743.454,181.546 742.394,182.11 742,182.433 739.67,184.014 739.364,184.29 737.486,186.083 737.357,186.266 
			736.503,187.853 736.719,189.324 736.819,189.724 738.33,191.072 738.559,191.29 740.594,192.132 741.318,192.427 742.8,192.657 
			744.552,192.97 746.388,193.012 747.823,193.154 748.494,193.137 749.476,193.067 750.364,192.821 751.3,192.662 753.077,192.169 
			753.918,191.835 754.671,191.547 755.601,191.165 756.483,190.695 757.054,190.278 758.284,189.396 758.72,188.937 
			759.861,188.103 760.473,187.55 761.491,187.122 761.797,186.845 762.65,186.958 763.544,186.935 763.903,186.97 765.714,187.818 
			766.35,188.16 767.949,189.461 768.819,190.244 769.465,191.032 769.836,191.515 770.958,193.41 771.193,193.851 772.151,196.287 
			772.491,197.352 773.037,199.44 773.442,201.264 773.617,202.87 773.693,204.076 773.763,205.058 773.651,205.911 773.414,207.17 
			773.208,207.846 772.772,210.005 772.524,210.816 772.4,211.222 771.569,213.704 770.474,216.327 770.474,216.327 
			769.243,218.909 768.265,220.902 767.835,221.584 767.364,222.402 766.593,223.719 765.603,225.265 765.603,225.265 
			764.443,227.129 764.402,227.264 763.708,228.088 762.624,229.458 762.407,229.687 760.541,231.927 760.064,232.521 
			758.41,234.308 758.41,234.308 758.321,234.355 756.667,236.142 755.667,237.242 754.801,238.382 753.971,239.164 
			751.829,241.098 751.788,241.233 751.7,241.28 749.646,243.167 749.298,243.579 748.203,244.502 746.72,245.971 746.196,246.477 
			745.584,247.029 743.789,248.552 742.047,250.386 741.217,251.168 740.611,251.944 739.174,253.502 737.997,254.695 
			737.167,255.477 736.644,255.983 734.943,257.682 734.725,257.911 734.595,258.093 733.065,259.475 731.358,260.95 
			731.358,260.95 731.358,260.95 728.91,263.161 728.822,263.208 728.645,263.302 728.339,263.578 725.579,265.841 724.831,266.352 
			722.989,267.786 722.377,268.339 720.794,269.409 720.223,269.826 719.782,270.061 717.846,271.318 715.951,272.441 
			715.598,272.629 713.345,273.716 712.062,274.286 709.72,275.419 707.643,276.412 707.331,276.465 705.16,277.281 
			705.072,277.328 704.895,277.422 702.365,278.203 700.194,279.02 698.953,279.454 696.558,280.276 696.205,280.464 
			695.629,280.658 693.722,281.333 693.369,281.521 691.198,282.338 691.022,282.432 688.939,283.201 688.097,283.536 
			687.168,283.917 686.326,284.252 685.22,284.728 684.202,285.157 682.967,285.815 682.213,286.103 681.949,286.244 
			681.154,286.667 678.765,287.712 677.971,288.135 676.471,288.934 676.029,289.17 675.147,289.64 673.911,290.298 672.41,291.097 
			671.616,291.52 671.263,291.708 669.674,292.554 668.174,293.353 667.821,293.541 666.809,294.193 664.425,295.462 
			663.413,296.115 661.518,297.237 660.065,298.124 659.229,298.683 657.641,299.529 656.275,300.369 654.469,301.445 
			653.81,301.909 651.874,303.167 651.609,303.308 651.521,303.355 649.538,304.524 648.478,305.088 645.836,306.722 
			645.483,306.91 645.265,307.139 642.27,308.961 641.387,309.431 639.451,310.688 638.392,311.252 637.598,311.676 
			635.833,312.616 633.585,313.926 633.143,314.161 631.69,315.048 630.719,315.565 630.366,315.753 629.001,316.594 
			627.853,317.205 625.335,318.433 624.276,318.997 623.434,319.332 621.846,320.178 621.14,320.554 619.592,321.265 
			617.156,322.222 616.627,322.504 614.944,323.173 612.861,323.943 612.331,324.225 609.007,325.429 607.501,326.004 
			605.818,326.674 603.647,327.49 602.806,327.825 602.229,328.019 600.146,328.788 599.258,329.035 597.087,329.851 
			594.963,330.755 593.368,331.378 592.439,331.76 591.332,332.236 588.632,333.334 588.102,333.616 587.837,333.757 
			584.254,335.325 583.589,335.566 580.759,336.847 579.741,337.276 578.105,338.033 577.44,338.274 574.875,339.414 
			574.169,339.79 573.992,339.884 573.504,340.031 570.274,341.411 567.132,342.744 566.779,342.932 566.555,342.938 
			565.714,343.273 562.654,344.336 561.413,344.77 558.13,345.839 555.688,346.573 553.912,347.066 549.87,348.199 549.734,348.157 
			549.558,348.251 545.646,349.202 543.286,349.665 541.463,350.07 538.303,350.733 537.28,350.938 536.656,351.043 533.05,351.718 
			530.379,352.234 529.844,352.292 528.955,352.539 527.62,352.797 525.349,353.213 524.949,353.313 524.549,353.413 
			523.437,353.665 520.454,354.234 518.984,354.45 516.624,354.914 516.401,354.919 516.313,354.966 513.771,355.3 512.077,355.523 
			511.142,355.681 509.447,355.903 508.465,355.973 507.93,356.032 505.83,356.131 503.777,356.318 503.106,356.335 
			501.765,356.369 500.424,356.404 499.712,356.556 498.059,356.644 495.647,356.795 495.023,356.901 494.353,356.918 
			492.388,357.058 491.317,357.175 489.664,357.262 487.164,357.46 486.941,357.466 486.629,357.519 484.305,357.623 
			483.011,357.746 481.582,357.828 478.858,358.032 478.858,358.032 478.858,358.032 478.858,358.032 477.117,358.166 
			476.046,358.283 474.528,358.412 471.54,358.757 470.557,358.827 469.087,359.044 466.322,359.383 464.451,359.7 462.133,360.028 
			458.656,360.52 457.897,360.584 457.674,360.59 457.362,360.642 454.015,360.952 453.344,360.969 451.38,361.109 450.844,361.168 
			449.862,361.238 449.503,361.202 447.268,361.26 445.703,361.3 441.85,361.086 441.491,361.05 439.156,360.708 437.992,360.648 
			437.092,360.448 435.88,360.3 433.192,360.145 431.804,360.091 429.251,359.978 427.91,360.013 424.957,359.999 424.598,359.964 
			423.704,359.987 421.021,360.055 420.574,360.067 417.539,360.324 416.645,360.347 416.421,360.353 416.245,360.447 
			412.368,361.038 411.297,361.155 409.032,361.795 408.008,362 405.832,362.593 403.696,363.051 403.208,363.198 402.584,363.303 
			399.96,363.907 398.895,364.248 398.095,364.447 396.277,365.076 395.3,365.369 393.047,366.456 391.499,367.167 390.97,367.449 
			387.31,369.511 385.68,370.493 384.621,371.057 384.05,371.474 382.461,372.32 381.007,373.208 378.848,374.471 376.423,375.875 
			374.835,376.721 371.751,378.59 370.474,379.384 370.386,379.431 368.579,380.506 366.732,381.717 365.849,382.187 
			362.106,384.52 362.018,384.567 361.93,384.614 360.082,385.824 358.193,387.17 357.928,387.311 357.534,387.634 355.386,389.345 
			353.373,391.097 353.155,391.326 351.454,393.025 350.106,394.536 349.759,394.947 349.323,395.406 348.888,395.865 
			348.411,396.458 346.886,398.063 346.192,398.886 344.62,400.403 343.484,401.461 342.395,402.608 340.741,404.395 
			340.477,404.536 340.347,404.718 338.693,406.505 336.474,408.933 335.344,410.215 335.214,410.397 333.695,412.226 
			331.829,414.466 331.7,414.648 330.787,415.701 329.439,417.211 328.309,418.493 327.356,419.681 326.055,421.28 325.401,421.968 
			324.924,422.562 324.1,423.567 323.017,424.937 321.587,426.718 321.281,426.995 320.062,428.323 318.761,429.923 
			318.414,430.334 318.108,430.61 317.89,430.84 316.454,432.398 314.358,434.42 314.358,434.42 312.304,436.307 310.515,438.053 
			310.209,438.329 310.209,438.329 310.121,438.376 309.815,438.652 306.354,441.515 306.136,441.744 305.871,441.885 
			304.865,442.761 302.893,444.378 302.193,444.977 301.581,445.53 299.88,447.229 298.397,448.698 297.261,449.757 
			296.478,450.627 295.124,451.914 294.647,452.508 293.859,453.155 292.941,453.983 291.457,455.453 290.804,456.141 
			290.321,456.511 289.58,457.246 288.662,458.075 287.79,458.992 287.008,459.862 284.43,462.255 283.776,462.943 283.076,463.542 
			281.634,464.877 280.062,466.393 279.28,467.263 278.055,468.368 276.225,470.25 275.831,470.573 275.613,470.802 
			275.483,470.985 272.122,474.247 271.905,474.476 271.687,474.706 269.638,476.816 268.073,478.556 267.549,479.062 
			266.895,479.75 264.323,482.366 262.928,483.789 261.139,485.535 260.745,485.858 260.527,486.087 258.608,488.015 
			257.472,489.074 256.731,489.808 254.323,491.883 253.623,492.483 252.97,493.171 251.392,494.464 250.08,495.616 
			249.509,496.033 248.679,496.815 247.891,497.462 247.19,498.061 246.449,498.796 245.79,499.261 244.607,500.23 241.805,502.629 
			241.364,502.864 240.357,503.74 239.698,504.204 239.039,504.668 237.633,505.644 236.05,506.713 235.785,506.854 
			233.449,508.212 233.272,508.306 232.831,508.541 230.36,509.857 228.241,510.985 227.359,511.455 227.047,511.508 
			225.411,512.266 223.599,513.118 223.069,513.4 220.633,514.357 219.392,514.792 217.044,515.702 215.626,516.23 214.161,516.671 
			213.32,517.005 212.52,517.205 210.655,517.745 207.901,518.532 207.589,518.584 207.501,518.631 207.278,518.637 
			204.165,519.388 202.606,519.652 200.383,520.156 197.665,520.584 196.682,520.654 194.053,521.035 193.382,521.052 
			193.07,521.105 190.258,521.356 186.376,521.724 186.152,521.73 186.017,521.689 185.929,521.736 181.593,521.892 
			180.923,521.909 180.252,521.927 177.123,522.007 176.005,522.036 175.646,522 172.158,522.045 170.993,521.986 167.099,521.907 
			166.117,521.977 165.758,521.941 164.146,521.893 161.952,521.815 161.37,521.786 159.041,521.667 156.352,521.512 
			155.635,521.441 155.052,521.411 151.688,521.05 150.476,520.903 148.771,520.678 148.053,520.607 147.559,520.53 
			144.953,520.105 143.336,519.833 141.042,519.356 139.242,518.955 138.025,518.583 136.901,518.388 135.413,517.935 
			134.514,517.734 133.925,517.481 132.12,516.856 130.767,516.443 129.05,515.772 128.191,515.436 127.921,515.354 
			125.933,514.599 124.575,513.963 123.034,513.198 120.447,511.743 120.129,511.572 119.812,511.402 116.495,509.429 
			115.131,508.569 113.443,507.315 109.704,504.548 108.152,503.336 105.776,501.428 103.948,499.91 102.896,498.997 
			100.379,496.825 100.332,496.737 98.451,494.906 97.164,493.552 94.459,491.027 91.009,487.313 87.423,483.558 84.613,480.41 
			82.132,477.879 79.88,475.565 78.082,473.464 76.424,471.628 74.672,469.615 73.056,467.644 71.622,465.802 70.364,463.866 
			69.853,463.118 68.589,460.959 67.937,459.946 67.273,458.487 66.897,457.781 66.327,456.498 65.992,455.657 65.118,452.951 
			64.636,451.621 64.536,451.221 63.58,447.085 63.533,446.997 62.947,443.343 62.883,442.585 62.714,439.502 62.692,436.908 
			62.646,435.12 62.907,431.355 62.984,430.861 63.132,429.649 63.363,426.467 63.599,425.208 64.142,421.974 64.656,419.321 
			64.974,417.792 65.293,416.262 65.611,414.733 66.018,413.157 66.419,411.357 66.862,409.422 67.351,407.575 67.923,405.458 
			68.33,403.882 68.949,401.853 69.656,399.777 69.945,398.83 70.611,396.889 71.117,395.713 71.453,394.854 72.673,391.826 
			73.432,390.062 74.192,388.297 74.787,387.074 75.547,385.31 75.889,384.675 76.649,382.911 77.161,381.958 77.243,381.687 
			77.544,381.188 78.651,379.012 79.97,376.383 80.141,376.066 80.223,375.795 81.89,372.755 82.402,371.802 83.339,369.944 
			85.011,367.127 85.141,366.945 85.182,366.81 86.083,365.31 86.942,363.946 87.072,363.764 88.532,361.4 89.48,359.989 
			90.216,359.031 90.516,358.531 92.165,356.52 92.853,355.473 93.895,354.239 94.631,353.28 95.979,351.769 96.715,350.811 
			97.28,350.17 98.934,348.383 100.323,346.737 101.065,346.002 102.289,344.897 103.943,343.109 104.032,343.063 104.12,343.015 
			105.65,341.634 107.004,340.347 107.31,340.07 107.792,339.7 109.281,338.454 110.723,337.12 110.853,336.937 111.159,336.661 
			112.607,335.55 113.307,334.951 114.843,333.793 116.332,332.546 117.386,331.759 118.963,330.466 119.181,330.236 
			119.445,330.095 120.893,328.985 122.606,327.733 123.218,327.18 125.325,325.605 125.719,325.282 127.343,324.077 
			127.737,323.753 127.867,323.571 129.45,322.501 130.986,321.344 131.951,320.603 133.664,319.351 134.541,318.658 
			136.606,317.218 137.218,316.665 139.196,315.272 139.766,314.855 141.349,313.785 142.226,313.092 143.898,311.975 
			144.557,311.511 147.37,309.559 147.323,309.471 147.411,309.424 150.271,307.561 152.03,306.398 153.043,305.745 154.667,304.54 
			155.856,303.794 156.515,303.33 158.668,301.843 160.999,300.262 161.175,300.168 161.393,299.939 163.635,298.405 
			164.736,297.705 166.23,296.683 167.019,296.036 168.514,295.013 170.715,293.615 171.639,293.01 172.739,292.31 174.322,291.241 
			175.728,290.265 176.435,289.889 178.194,288.725 178.282,288.678 180.307,287.374 180.966,286.909 183.649,285.14 
			184.22,284.723 184.308,284.676 184.661,284.488 187.21,282.678 188.793,281.608 189.187,281.285 190.682,280.262 
			191.782,279.563 192.353,279.146 194.418,277.706 194.683,277.565 196.001,276.636 197.32,275.708 197.585,275.566 
			200.133,273.756 202.239,272.181 202.769,271.899 203.469,271.299 204.964,270.277 205.665,269.677 207.201,268.519 
			208.124,267.914 210.013,266.568 210.802,265.922 211.155,265.734 212.909,264.346 213.833,263.741 213.962,263.559 
			216.728,261.519 216.993,261.378 217.299,261.102 218.706,260.126 219.936,259.245 220.153,259.016 220.813,258.551 
			222.219,257.576 224.285,256.136 224.591,255.859 224.679,255.812 225.338,255.348 227.621,253.679 228.104,253.309 
			230.299,251.686 231.264,250.946 232.888,249.741 234.513,248.536 234.642,248.354 236.443,247.055 237.32,246.361 
			238.856,245.203 240.657,243.904 241.663,243.029 243.287,241.824 243.287,241.824 243.329,241.688 245.129,240.39 
			246.183,239.602 247.542,238.538 249.031,237.292 250.261,236.41 251.403,235.576 252.103,234.976 253.245,234.142 
			253.816,233.724 254.298,233.354 255.617,232.425 256.935,231.497 258.206,230.48 259.13,229.875 260.842,228.623 
			262.643,227.324 262.82,227.23 264.091,226.213 264.927,225.655 267.298,223.938 267.651,223.75 267.957,223.474 269.805,222.263 
			271.912,220.688 272.218,220.412 272.659,220.177 274.854,218.555 276.832,217.162 276.92,217.115 279.686,215.075 
			280.433,214.564 281.487,213.776 281.969,213.406 283.858,212.06 285.265,211.085 285.483,210.855 285.789,210.579 
			286.142,210.391 289.52,207.799 290.267,207.288 292.68,205.436 293.469,204.79 293.822,204.602 294.393,204.184 295.623,203.303 
			297.512,201.957 299.095,200.887 299.401,200.611 300.148,200.1 301.908,198.936 303.667,197.772 305.474,196.697 
			306.133,196.233 306.751,195.904 308.334,194.834 310.27,193.576 311.811,192.642 312.647,192.084 313.088,191.849 
			314.63,190.914 317.843,188.863 318.549,188.487 318.814,188.346 321.592,186.754 322.739,186.143 323.445,185.767 
			325.252,184.691 327.193,183.657 327.9,183.281 330.506,182.006 331.565,181.442 332.36,181.019 332.801,180.784 336.108,178.91 
			338.091,177.74 339.856,176.8 341.045,176.054 342.104,175.49 342.587,175.119 344.129,174.185 347.342,172.134 348.048,171.758 
			348.489,171.523 349.678,170.777 352.008,169.196 352.714,168.82 353.332,168.491 355.533,167.092 356.857,166.387 
			356.945,166.34 357.251,166.064 361.17,163.637 361.612,163.402 363.106,162.379 365.26,160.892 365.437,160.798 365.831,160.475 
			368.379,158.665 369.697,157.736 370.003,157.46 370.574,157.042 371.363,156.396 373.075,155.144 373.911,154.586 
			374.965,153.798 377.342,152.305 378.178,151.747 379.013,151.189 379.584,150.771 382.403,149.044 382.797,148.72 
			384.251,147.833 386.098,146.622 386.628,146.34 387.199,145.923 388.034,145.365 390.323,143.919 390.894,143.502 
			391.948,142.714 393.525,141.421 395.102,140.128 395.585,139.758 397.556,138.141 398.786,137.26 399.445,136.795 
			400.546,136.096 402.035,134.85 403.7,133.51 404.006,133.233 405.189,132.263 406.019,131.482 407.202,130.512 407.991,129.865 
			408.915,129.26 410.227,128.108 411.987,126.944 412.116,126.762 412.205,126.715 414.753,124.905 416.118,124.064 
			416.512,123.741 419.06,121.931 419.19,121.748 420.773,120.679 422.179,119.703 423.15,119.186 423.809,118.722 424.91,118.022 
			428.429,115.695 428.958,115.413 429.176,115.184 430.63,114.297 432.866,112.539 432.866,112.539 432.866,112.539 
			433.525,112.075 434.802,111.281 436.903,109.483 437.256,109.295 437.562,109.018 437.739,108.924 441.44,106.727 
			441.97,106.445 441.97,106.445 442.058,106.398 443.294,105.74 444.618,105.034 445.677,104.47 446.207,104.188 447.224,103.76 
			448.154,103.378 449.348,102.855 450.496,102.244 452.573,101.251 454.656,100.482 458.11,99.096 458.821,98.943 460.504,98.274 
			463.034,97.493 464.099,97.152 467.206,96.178 470.088,95.209 471.336,94.998 473.777,94.264 475.466,93.818 476.266,93.618 
			479.696,93.038 482.367,92.522 484.373,92.247 486.602,91.966 488.208,91.79 490.349,91.556 491.644,91.434 492.179,91.375 
			493.697,91.247 495.485,91.201 496.109,91.095 497.179,90.978 498.162,90.908 500.797,90.751 500.974,90.657 501.109,90.698 
			504.186,90.306 504.809,90.201 504.856,90.289 508.198,89.756 508.598,89.656 511.669,89.04 512.428,88.976 515.228,88.277 
			515.54,88.225 515.628,88.178 518.652,87.474 520.117,87.033 522.159,86.399 523.4,85.965 524.777,85.572 526.018,85.137 
			528.101,84.368 529.031,83.986 529.96,83.604 531.731,82.888 532.926,82.365 534.561,81.607 536.197,80.849 537.127,80.467 
			538.939,79.615 539.204,79.474 539.91,79.098 541.987,78.106 543.135,77.494 544.812,76.601 546.353,75.667 547.766,74.915 
			549.089,74.21 550.149,73.646 551.431,73.076 552.708,72.283 554.474,71.343 556.333,70.579 557.527,70.056 558.716,69.31 
			559.381,69.069 560.934,68.582 563.111,67.989 563.999,67.742 567.247,67.033 567.559,66.98 567.782,66.974 567.917,67.015 
			571.5,67.147 571.588,67.1 573.923,67.443 575.629,67.667 575.629,67.667 575.629,67.667 575.764,67.708 579.54,68.417 
			579.811,68.499 582.198,69.154 583.545,69.343 585.704,69.779 586.827,69.974 587.592,70.133 589.662,70.617 590.697,70.859 
			592.55,71.572 593.767,71.943 595.255,72.397 597.114,73.333 599.966,74.647 600.648,75.077 601.324,75.283 604.571,76.273 
			605.112,76.438 608.705,77.017 608.841,77.058 608.929,77.011 609.064,77.052 610.094,77.071 612.47,77.278 612.917,77.266 
			614.982,77.526 616.905,77.522 618.164,77.758 621.117,77.771 621.834,77.842 621.923,77.795 622.64,77.866 624.793,78.079 
			625.334,78.244 627.451,78.816 629.304,79.529 631.333,80.148 632.55,80.519 633.815,80.979 634.673,81.315 635.532,81.651 
			636.167,81.992 637.708,82.758 639.384,83.565 640.878,84.242 643.506,85.561 644.365,85.897 646.67,86.822 647.17,87.122 
			649.475,88.047 649.61,88.089 649.881,88.171 652.275,89.049 652.998,89.344 654.08,89.674 655.386,89.998 656.738,90.411 
			658.897,90.847 659.885,91.001 661.009,91.196 662.891,91.326 664.191,91.427 665.22,91.445 666.473,91.458 668.667,91.536 
			670.809,91.302 672.232,90.997 674.238,90.721 674.415,90.627 674.503,90.58 677.215,89.929 677.792,89.735 679.969,89.142 
			680.457,88.996 682.852,88.174 682.94,88.127 683.028,88.08 685.075,87.669 686.105,87.687 686.687,87.717 687.493,87.741 
			688.081,87.994 688.581,88.295 689.299,88.366 691.198,89.167 691.469,89.249 691.833,89.509 693.556,90.404 694.556,91.004 
			696.279,91.899 697.643,92.759 700.407,94.12 700.907,94.42 703.853,95.91 704.306,96.122 706.393,97.276 707.346,97.789 
			708.616,98.472 710.021,99.196 711.474,100.009 713.15,100.816 714.467,101.587 715.872,102.311 716.872,102.912 718.189,103.683 
			719.689,104.584 720.6,105.232 723.199,107.133 724.204,107.958 726.08,109.565 727.908,111.083 728.731,111.778 730.154,113.173 
			730.707,113.785 731.87,115.545 732.429,116.38 733.034,117.304 734.027,119.381 735.196,121.364 		">
		</polygon>
	</g>
</g>
<g id="Layer_1">
</g>
</svg>
