<?xml version="1.0" encoding="iso-8859-1"?>
<!-- Generator: Adobe Illustrator 19.2.1, SVG Export Plug-In . SVG Version: 6.00 Build 0)  -->
<svg version="1.1" xmlns="http://www.w3.org/2000/svg" xmlns:xlink="http://www.w3.org/1999/xlink" x="0px" y="0px"
	 viewBox="0 0 841.89 595.28" style="enable-background:new 0 0 841.89 595.28;" xml:space="preserve">
<g id="layer253">
	<g id="layer253_1_" slic3r:z="0.000101400000000001">
		<polygon slic3r:type="contour" style="fill:#FFFFFF;stroke:#000000;stroke-miterlimit:10;" points="739.234,116.608 
			740.033,118.108 740.562,119.526 740.944,120.456 741.232,121.209 742.112,124.139 742.159,124.227 742.253,124.404 
			743.186,127.646 743.433,128.534 744.755,131.229 745.043,131.982 745.231,132.335 746.923,135.513 747.158,135.954 
			748.797,138.82 749.262,139.479 750.431,141.462 750.713,141.991 750.854,142.256 751.095,142.921 751.717,144.516 
			751.964,145.404 752.017,145.716 751.975,145.851 751.781,146.974 751.651,147.157 751.48,147.474 750.679,149.374 
			750.555,149.78 750.154,151.579 749.865,152.526 749.988,153.82 750.745,157.156 751.226,158.486 751.685,158.921 
			752.061,159.628 752.854,160.904 753.277,161.699 753.888,162.846 754.999,164.294 755.84,165.659 756.768,166.977 
			757.515,168.166 758.443,169.484 758.72,169.79 759.654,171.332 760.071,171.903 760.118,171.991 761.006,173.445 761.664,174.68 
			761.758,174.857 763.021,177.017 764.044,178.511 764.091,178.6 765.025,180.141 766.189,181.901 766.465,182.207 
			767.446,183.837 767.817,184.319 768.516,185.42 768.939,186.214 769.879,187.98 770.772,189.657 771.571,191.157 
			772.282,192.705 773.104,195.099 773.298,195.676 773.392,195.852 773.45,196.388 773.731,198.617 773.801,199.6 773.806,201.523 
			773.634,203.541 773.132,206.64 773.179,206.729 773.05,206.911 772.042,209.487 771.665,210.481 770.858,212.157 
			770.128,213.339 769.445,214.609 768.25,216.832 768.12,217.014 766.431,219.16 766.13,219.66 765.524,220.436 764.394,221.717 
			762.086,224.192 761.998,224.239 762.045,224.328 762.045,224.328 760.085,226.391 759.956,226.574 758.643,227.726 
			757.501,228.56 757.066,229.019 755.748,229.947 754.912,230.506 753.241,231.622 752.058,232.592 751.087,233.109 
			749.639,234.22 748.715,234.826 747.091,236.03 746.255,236.589 745.025,237.47 743.666,238.534 742.789,239.228 741.388,240.427 
			740.6,241.074 739.682,241.902 738.763,242.731 737.934,243.513 736.539,244.936 735.361,246.129 734.231,247.411 
			732.836,248.833 731.924,249.886 730.964,250.85 729.093,252.867 728.657,253.325 728.439,253.554 727.698,254.289 
			726.609,255.436 725.167,256.77 724.295,257.687 722.724,259.204 721.453,260.221 720.317,261.279 718.304,263.031 
			717.645,263.495 714.485,265.858 713.696,266.504 713.519,266.598 713.431,266.645 712.419,267.298 708.37,269.907 707.8,270.324 
			704.846,272.011 703.786,272.575 703.61,272.669 703.298,272.721 700.25,274.231 698.573,275.124 698.485,275.171 696.367,276.3 
			695.925,276.535 693.23,277.856 692.701,278.138 692.701,278.138 692.612,278.185 688.682,280.165 688.417,280.306 688.24,280.4 
			687.623,280.73 684.969,281.916 683.557,282.668 682.186,283.285 681.438,283.796 679.273,284.836 678.126,285.447 
			677.331,285.87 675.789,286.805 675.348,287.04 674.73,287.369 672.877,288.356 671.776,289.055 671.247,289.337 670.276,289.854 
			668.293,291.024 667.457,291.582 665.915,292.516 664.768,293.127 664.109,293.592 661.773,294.949 660.849,295.554 
			658.383,297.094 658.207,297.188 657.018,297.934 655.082,299.192 654.817,299.333 654.552,299.474 653.805,299.985 
			651.028,301.578 649.751,302.371 647.638,303.723 645.614,305.027 645.172,305.262 642.618,306.849 642.312,307.125 
			642.224,307.172 642.136,307.219 639.67,308.759 638.523,309.37 637.422,310.07 635.439,311.239 634.821,311.568 632.927,312.69 
			630.284,314.324 629.843,314.559 629.402,314.794 627.113,316.24 625.965,316.851 624.73,317.509 624.07,317.973 621.776,319.195 
			620.805,319.712 620.452,319.9 619.393,320.464 616.433,321.927 615.55,322.397 613.867,323.067 612.232,323.825 609.755,324.917 
			609.137,325.246 607.054,326.016 604.794,326.879 604.706,326.926 604.706,326.926 604.353,327.114 602.135,327.842 
			601.47,328.083 599.346,328.988 598.546,329.187 595.092,330.573 593.321,331.29 591.109,332.241 587.349,333.904 
			586.861,334.051 586.596,334.192 585.978,334.521 583.148,335.801 581.777,336.418 579.123,337.605 577.399,338.409 
			574.969,339.59 574.44,339.872 574.175,340.013 572.804,340.63 570.903,341.529 570.197,341.905 566.437,343.568 565.772,343.808 
			563.56,344.76 561.701,345.523 561.436,345.664 561.212,345.67 560.683,345.952 557.623,347.015 556.782,347.35 556.117,347.591 
			554.387,348.172 553.281,348.648 549.998,349.716 549.333,349.957 549.245,350.004 549.11,349.963 545.156,351.049 
			544.58,351.242 543.868,351.395 542.579,351.741 540.756,352.146 537.732,352.85 536.708,353.055 536.084,353.161 
			532.572,354.012 529.636,354.669 528.348,355.015 525.859,355.66 524.171,356.106 523.282,356.353 519.947,357.11 
			516.834,357.861 515.811,358.066 513.987,358.471 511.581,358.846 510.11,359.063 508.416,359.285 507.434,359.355 
			505.692,359.489 503.327,359.729 502.704,359.835 501.633,359.952 499.804,360.133 499.133,360.15 497.751,360.32 
			495.433,360.648 495.121,360.701 494.986,360.659 492.533,360.946 490.838,361.169 489.903,361.327 488.209,361.549 
			487.226,361.619 486.603,361.725 484.55,361.912 482.455,362.234 481.92,362.293 480.938,362.363 479.243,362.585 
			478.308,362.743 475.855,363.03 474.519,363.288 473.849,363.305 471.443,363.68 470.019,363.985 466.989,364.466 
			465.789,364.765 463.742,365.176 461.606,365.633 460.359,365.844 457.376,366.413 453.546,367.093 453.235,367.146 
			452.835,367.245 449.087,367.655 446.275,367.906 444.981,368.029 442.699,367.998 441.134,368.038 438.134,367.936 
			436.658,367.93 435.052,368.105 432.458,368.127 431.563,368.15 430.269,368.273 428.351,368.501 427.01,368.536 425.004,368.811 
			424.157,368.922 423.086,369.039 422.998,369.086 422.863,369.045 420.01,369.431 418.763,369.642 415.868,370.164 
			415.868,370.164 415.821,370.076 415.821,370.076 413.062,370.639 411.638,370.944 409.326,371.495 408.438,371.742 
			407.861,371.936 407.461,372.035 403.29,373.351 403.29,373.351 403.29,373.351 399.965,374.554 399.036,374.936 397.4,375.694 
			394.876,376.698 394.611,376.839 393.905,377.215 392.269,377.973 390.633,378.731 390.104,379.013 387.238,380.653 
			386.397,380.987 382.601,383.009 382.16,383.244 382.072,383.291 379.289,384.659 377.965,385.365 376.859,385.84 
			376.329,386.122 374.652,387.015 373.769,387.486 372.622,388.097 371.828,388.52 370.639,389.266 369.538,389.965 
			368.303,390.623 367.073,391.505 365.272,392.804 363.471,394.103 362.989,394.473 361.847,395.308 360.97,396.001 
			359.699,397.018 358.563,398.076 356.685,399.869 356.338,400.281 355.944,400.604 354.678,401.844 353.678,402.944 
			352.459,404.273 351.411,405.284 350.805,406.06 348.186,408.588 347.797,409.134 347.403,409.458 346.75,410.146 
			345.137,411.798 343.789,413.308 343.701,413.355 341.876,415.46 340.269,417.336 340.092,417.43 339.574,418.159 
			338.008,419.899 336.749,421.363 335.312,422.921 335.271,423.056 335.183,423.103 333.135,425.214 332.134,426.313 
			330.915,427.642 329.827,428.788 329.52,429.064 328.031,430.311 326.59,431.645 326.066,432.151 325.542,432.656 
			324.271,433.673 322.74,435.054 321.428,436.207 318.056,439.022 317.661,439.345 317.355,439.622 317.002,439.81 
			314.984,441.338 313.754,442.22 312.918,442.778 311.205,444.03 309.54,445.37 309.01,445.652 308.575,446.111 307.916,446.575 
			305.985,448.056 305.285,448.656 304.32,449.396 302.654,450.736 300.989,452.077 300.506,452.447 300.024,452.817 
			297.876,454.528 296.693,455.497 296.298,455.821 295.904,456.144 294.15,457.531 292.485,458.871 291.914,459.289 
			291.608,459.565 289.413,461.187 288.318,462.11 287.747,462.527 287.4,462.939 285.599,464.238 283.892,465.713 283.192,466.313 
			282.009,467.283 280.214,468.805 279.643,469.222 279.337,469.499 279.031,469.775 277.236,471.297 275.353,472.867 
			275.005,473.278 274.523,473.649 274.434,473.696 272.816,475.124 271.068,476.735 271.027,476.87 268.013,479.721 
			267.795,479.95 267.23,480.591 266.836,480.915 263.434,484.312 262.08,485.6 260.726,486.887 259.591,487.945 258.849,488.68 
			258.237,489.233 257.319,490.062 255.612,491.537 255.524,491.584 255.394,491.766 253.905,493.013 251.498,495.088 
			249.438,496.751 248.037,497.95 247.643,498.273 247.29,498.461 245.624,499.802 244.047,501.095 243.082,501.835 241.11,503.452 
			239.751,504.516 239.268,504.886 238.827,505.121 237.026,506.42 234.961,507.86 233.949,508.512 232.189,509.676 
			230.471,510.704 229.37,511.404 227.693,512.297 225.045,513.707 224.027,514.136 223.321,514.512 220.538,515.88 
			220.273,516.022 217.838,516.979 215.137,518.077 214.56,518.271 214.119,518.506 211.46,519.469 210.571,519.716 208.53,520.35 
			207.688,520.684 206.712,520.978 203.735,521.77 203.023,521.923 202.534,522.07 200.664,522.386 199.152,522.738 
			198.752,522.838 198.305,522.849 196.834,523.066 194.963,523.383 191.486,523.875 191.351,523.833 191.351,523.833 
			191.351,523.833 187.78,524.149 186.174,524.324 184.386,524.37 182.733,524.457 181.392,524.492 179.292,524.591 
			178.621,524.608 177.368,524.595 175.403,524.735 174.15,524.723 171.915,524.78 168.962,524.767 168.739,524.773 165.339,524.77 
			163.727,524.722 161.086,524.656 158.58,524.631 157.28,524.53 156.474,524.506 152.845,524.286 152.845,524.286 152.486,524.251 
			148.945,523.984 148.898,523.896 148.81,523.943 145.263,523.452 143.557,523.228 142.21,523.039 138.928,522.407 138.84,522.454 
			138.793,522.366 135.552,521.599 134.788,521.44 132.129,520.703 131.724,520.579 131.541,520.45 128.654,519.495 
			127.254,518.994 125.084,518.111 122.32,516.75 121.55,516.367 121.05,516.067 116.463,513.411 115.916,513.023 114.505,512.075 
			111.136,509.79 110.178,509.055 106.479,506.152 105.245,505.11 104.833,504.763 103.916,503.892 99.795,500.195 98.695,499.195 
			97.408,497.841 93.175,493.297 88.896,488.665 86.268,485.646 81.43,480.178 79.908,478.383 78.568,476.718 74.923,472.427 
			74.782,472.162 74.735,472.074 74.506,471.856 71.544,467.996 70.339,466.371 69.598,465.406 68.294,463.382 68.059,462.941 
			66.978,460.911 66.178,459.41 65.139,457.245 64.522,455.874 63.459,452.814 63.124,451.973 62.936,451.62 62.831,450.996 
			61.845,447.443 61.739,446.819 61.592,446.331 61.381,445.084 61.006,442.677 60.755,439.866 60.732,438.971 60.669,436.513 
			60.676,435.036 60.711,434.677 60.7,434.23 60.83,432.348 60.901,431.63 61.126,429.925 61.468,427.59 61.628,426.825 
			61.74,425.972 62.212,423.455 62.454,422.42 62.89,420.261 63.127,419.002 63.327,418.102 64.176,414.591 64.418,413.556 
			65.196,410.762 65.562,409.321 65.809,408.51 65.974,407.969 66.092,407.339 66.67,405.446 67.083,404.093 67.206,403.687 
			67.749,402.152 68.409,399.988 68.745,399.129 69.163,398 70.088,395.695 70.883,393.572 71.007,393.166 71.178,392.848 
			72.061,390.678 72.527,389.637 73.287,387.873 73.793,386.697 74.388,385.474 75.325,383.616 75.407,383.345 75.619,382.892 
			76.597,380.899 77.233,379.54 78.046,378.088 78.729,376.818 79.023,376.094 79.665,374.959 80.266,373.96 80.607,373.325 
			81.332,371.919 81.932,370.92 82.533,369.92 83.387,368.332 83.687,367.832 83.946,367.468 85.018,365.651 86.007,364.104 
			86.525,363.375 87.691,361.735 89.545,359.048 89.763,358.819 89.934,358.501 91.712,356.308 92.754,355.073 93.36,354.297 
			94.096,353.339 95.314,352.01 96.186,351.093 97.057,350.176 97.928,349.259 99.582,347.472 100.323,346.737 102.201,344.944 
			102.813,344.391 103.902,343.245 104.82,342.416 105.562,341.681 106.745,340.711 107.575,339.929 109.017,338.595 110.2,337.625 
			111.512,336.473 113.395,334.903 114.184,334.257 115.632,333.146 116.726,332.223 117.515,331.577 118.786,330.56 
			120.099,329.408 120.099,329.408 121.723,328.203 122.117,327.879 122.906,327.233 124.618,325.981 125.801,325.011 
			126.896,324.088 128.432,322.93 129.003,322.513 129.179,322.419 129.574,322.096 130.933,321.032 131.987,320.244 
			132.952,319.504 134.311,318.44 135.365,317.652 136.506,316.818 137.736,315.936 138.131,315.613 139.055,315.007 
			140.02,314.267 140.767,313.755 142.303,312.598 144.28,311.205 144.457,311.111 146.346,309.765 148.059,308.513 
			149.112,307.725 149.771,307.261 151.131,306.197 152.496,305.357 153.196,304.757 155.309,303.405 156.627,302.477 
			158.91,300.808 159.263,300.62 159.569,300.343 161.682,298.992 163.924,297.458 164.054,297.275 164.407,297.087 
			166.207,295.789 167.308,295.089 167.396,295.042 168.45,294.255 169.727,293.461 171.045,292.533 171.792,292.021 
			173.816,290.717 173.905,290.67 173.993,290.623 176.017,289.318 177.071,288.53 178.524,287.643 179.183,287.179 
			180.855,286.062 181.208,285.874 181.561,285.686 183.891,284.105 185.298,283.13 186.704,282.154 187.893,281.408 
			190.617,279.503 190.923,279.227 191.012,279.18 191.188,279.086 193.825,277.229 194.925,276.53 196.067,275.695 197.691,274.49 
			199.974,272.821 200.633,272.357 200.94,272.08 201.422,271.71 203.182,270.546 204.894,269.294 205.377,268.924 207.178,267.625 
			209.155,266.232 209.814,265.768 210.473,265.304 212.186,264.052 213.416,263.17 214.428,262.518 215.787,261.454 
			216.27,261.084 216.664,260.76 218.247,259.691 219.695,258.58 221.19,257.557 222.243,256.77 224.22,255.377 224.968,254.866 
			225.933,254.125 227.734,252.826 230.411,250.834 230.411,250.834 230.5,250.787 230.717,250.557 233.001,248.888 
			233.266,248.747 235.678,246.896 236.467,246.249 238.397,244.768 239.056,244.303 239.539,243.933 241.34,242.634 
			243.141,241.335 243.623,240.965 244.106,240.595 246.171,239.155 247.749,237.862 248.408,237.397 249.243,236.839 
			250.515,235.822 251.921,234.847 252.58,234.382 253.151,233.965 254.864,232.713 255.787,232.108 257.235,230.997 
			258.071,230.439 259.477,229.463 261.496,227.935 261.761,227.794 262.025,227.653 263.738,226.401 265.933,224.779 
			266.327,224.455 266.592,224.314 266.986,223.991 268.876,222.645 270.235,221.581 271.641,220.606 272.518,219.912 
			274.36,218.478 275.108,217.967 275.414,217.69 275.808,217.367 277.521,216.115 278.968,215.004 280.504,213.846 
			280.857,213.658 281.558,213.059 283.665,211.484 284.059,211.16 284.412,210.972 285.901,209.726 287.655,208.339 
			288.661,207.463 289.538,206.77 291.292,205.382 292.257,204.642 292.651,204.318 292.869,204.089 294.276,203.114 
			296.383,201.538 297.13,201.027 297.742,200.475 299.237,199.452 300.996,198.288 301.479,197.918 304.162,196.149 
			305.704,195.215 305.704,195.215 305.704,195.215 305.704,195.215 306.675,194.698 308.217,193.763 309.758,192.829 
			310.906,192.218 312.977,191.001 314.254,190.208 314.607,190.02 315.355,189.509 318.485,187.728 320.25,186.788 
			322.322,185.572 322.675,185.384 322.939,185.243 323.469,184.961 325.234,184.021 326.911,183.128 330.401,181.383 
			331.066,181.142 334.684,179.215 335.39,178.839 335.479,178.792 336.979,177.992 339.274,176.77 339.627,176.582 340.157,176.3 
			343.111,174.614 345.447,173.256 346.635,172.51 348.089,171.623 348.707,171.294 350.113,170.318 351.785,169.202 
			352.138,169.014 352.314,168.919 352.444,168.737 354.686,167.203 356.092,166.228 358.117,164.923 359.305,164.177 
			360.188,163.707 360.847,163.242 361.377,162.96 364.154,161.368 364.331,161.274 365.078,160.763 365.872,160.339 
			368.026,158.853 368.862,158.294 369.215,158.106 369.256,157.971 373.346,155.226 373.564,154.997 374.399,154.439 
			374.97,154.022 376.335,153.181 377.742,152.206 377.918,152.112 382.02,149.814 382.903,149.344 386.251,147.334 
			386.516,147.193 387.569,146.406 387.657,146.359 387.746,146.312 389.593,145.101 390.559,144.36 391.306,143.849 
			392.095,143.203 394.725,141.122 396.349,139.917 396.791,139.682 396.92,139.5 398.238,138.571 399.027,137.924 399.91,137.454 
			400.787,136.761 403.247,134.998 404.788,134.063 405.359,133.646 407.072,132.394 407.513,132.159 408.655,131.324 
			409.749,130.402 410.803,129.614 411.809,128.738 412.863,127.95 414.004,127.116 415.629,125.911 416.023,125.588 417.3,124.794 
			418.53,123.913 419.454,123.307 420.242,122.661 421.608,121.82 422.967,120.757 424.597,119.775 425.168,119.358 426.003,118.8 
			427.586,117.73 428.422,117.172 428.775,116.984 430.587,116.132 432.524,114.874 433.053,114.592 435.13,113.599 437.29,112.336 
			437.378,112.289 437.555,112.195 437.731,112.101 440.509,110.508 441.521,109.856 441.962,109.621 442.403,109.386 
			444.216,108.534 445.669,107.647 446.51,107.312 447.57,106.748 448.946,106.355 449.917,105.838 451.382,105.397 
			453.283,104.499 453.771,104.352 454.171,104.252 455.901,103.671 458.119,102.943 459.184,102.602 461.137,102.015 
			462.29,101.628 465.573,100.559 466.062,100.412 466.415,100.224 467.968,99.737 470.098,99.056 471.251,98.668 473.693,97.935 
			475.022,97.453 477.329,96.678 478.217,96.431 478.705,96.285 482.436,95.205 482.524,95.158 482.524,95.158 485.724,94.36 
			487.236,94.007 488.436,93.708 490.348,93.256 491.019,93.239 491.284,93.098 493.825,92.764 494.672,92.653 496.543,92.337 
			497.967,92.032 498.502,91.973 499.838,91.715 500.82,91.645 501.308,91.498 503.138,91.317 504.297,91.153 506.121,90.748 
			508.391,90.332 509.903,89.98 511.457,89.493 513.28,89.088 514.657,88.695 515.81,88.307 517.94,87.626 518.428,87.479 
			520.423,86.757 521.353,86.375 522.682,85.894 523.571,85.647 526.36,84.502 527.154,84.079 529.102,83.268 529.102,83.268 
			529.278,83.174 531.402,82.27 532.02,81.941 533.879,81.177 536.58,80.079 536.668,80.032 536.757,79.985 536.845,79.938 
			539.852,78.563 541.97,77.435 541.97,77.435 544.629,76.472 545.471,76.137 548.301,74.856 549.189,74.61 551.937,73.6 
			554.508,72.684 555.973,72.243 559.038,71.404 559.303,71.263 562.78,70.771 562.915,70.812 563.539,70.707 566.627,70.762 
			567.568,70.827 568.956,70.881 570.391,71.023 572.144,71.336 574.167,71.731 576.908,72.197 578.749,72.463 580.185,72.605 
			580.185,72.605 581.979,72.783 582.831,72.895 585.255,73.191 587.178,73.186 589.508,73.305 590.09,73.335 590.896,73.359 
			592.555,73.495 593.678,73.69 596.101,73.986 598.031,74.204 599.919,74.558 601.224,74.883 603.03,75.507 604.253,76.102 
			605.382,76.521 607.052,77.104 608.499,77.693 608.77,77.776 611.216,78.965 611.216,78.965 611.216,78.965 613.98,80.326 
			615.027,81.015 616.203,81.521 618.061,82.458 618.425,82.717 618.743,82.888 620.96,83.859 622.36,84.36 624.254,84.938 
			624.659,85.062 626.1,85.427 628.259,85.864 628.441,85.993 628.529,85.946 628.8,86.029 631.276,86.636 632.041,86.796 
			633.123,87.126 634.658,87.668 635.605,87.957 638.581,88.864 639.122,89.029 639.574,89.241 642.821,90.232 643.227,90.355 
			643.768,90.52 645.973,91.045 647.326,91.458 648.808,91.688 649.843,91.93 651.637,92.108 652.267,92.226 652.849,92.255 
			655.131,92.286 658.484,92.2 658.484,92.2 661.967,91.932 664.414,91.421 665.173,91.357 665.62,91.345 666.685,91.005 
			668.197,90.653 670.509,90.101 670.821,90.049 670.998,89.955 673.486,89.309 675.175,88.863 676.151,88.57 676.816,88.329 
			678.193,87.935 678.769,87.742 679.211,87.507 681.658,86.996 681.793,87.038 681.882,86.991 683.846,86.851 685.099,86.863 
			685.594,86.94 685.952,86.976 686.946,87.353 687.758,87.6 688.705,87.889 690.563,88.825 690.927,89.084 691.604,89.291 
			693.415,90.139 694.821,90.863 697.079,91.7 697.714,92.041 698.255,92.207 700.878,93.302 701.737,93.638 704.042,94.563 
			705.977,95.005 707.424,95.594 709.364,96.26 710.223,96.596 712.617,97.474 713.069,97.686 713.475,97.81 716.275,98.812 
			716.863,99.065 718.127,99.525 719.98,100.237 720.885,100.661 722.291,101.386 722.379,101.339 723.79,102.287 725.195,103.011 
			727.465,104.295 727.877,104.642 730.564,106.497 731.846,107.627 733.721,109.234 735.285,110.894 736.067,111.724 
			736.302,112.165 736.854,112.777 738.3,115.066 739.14,116.431 		">
		</polygon>
		<polygon slic3r:type="hole" style="stroke:#000000;stroke-miterlimit:10;" points="664.459,201.068 663.96,200.768 
			663.142,200.297 662.736,200.173 662.378,200.138 661.572,200.114 661.395,200.208 660.101,200.33 659.924,200.424 
			659.213,200.577 658.901,200.63 657.665,201.288 656.918,201.799 656.17,202.31 655.382,202.957 654.634,203.468 654.022,204.021 
			653.498,204.526 652.81,205.573 652.592,205.802 652.639,205.891 652.132,207.067 651.879,207.655 651.791,207.702 
			651.838,207.79 651.866,208.908 652.101,209.349 652.336,209.79 652.883,210.179 653.471,210.432 654.418,210.721 
			654.418,210.721 654.418,210.721 655.759,210.687 656.206,210.675 658.024,210.047 658.424,209.947 658.601,209.853 
			658.736,209.894 658.913,209.8 660.19,209.007 660.631,208.772 660.672,208.637 661.861,207.89 662.297,207.432 663.474,206.238 
			663.562,206.191 663.774,205.738 664.204,205.056 664.333,204.874 664.799,203.833 664.829,203.251 664.9,202.533 
			664.647,201.421 664.642,201.198 		">
		</polygon>
	</g>
</g>
<g id="Layer_1">
</g>
</svg>
