<?xml version="1.0" encoding="iso-8859-1"?>
<!-- Generator: Adobe Illustrator 19.2.1, SVG Export Plug-In . SVG Version: 6.00 Build 0)  -->
<svg version="1.1" xmlns="http://www.w3.org/2000/svg" xmlns:xlink="http://www.w3.org/1999/xlink" x="0px" y="0px"
	 viewBox="0 0 841.89 595.28" style="enable-background:new 0 0 841.89 595.28;" xml:space="preserve">
<g id="layer256">
	<g id="layer256_1_" slic3r:z="0.000102600000000001">
		<polygon slic3r:type="contour" style="fill:#FFFFFF;stroke:#000000;stroke-miterlimit:10;" points="740.792,118.044 
			741.409,119.415 742.384,122.522 742.572,122.875 742.671,123.275 743.27,125.675 743.904,127.717 744.062,128.652 
			744.256,129.229 744.649,130.605 745.037,131.759 745.231,132.335 745.677,134.024 746.758,136.054 747.239,137.383 
			747.715,138.49 748.338,140.084 748.573,140.525 748.672,140.925 748.807,142.667 748.606,143.567 748.276,144.649 
			748.152,145.055 747.463,146.101 746.904,146.966 745.326,149.959 745.108,150.188 745.025,150.459 744.99,150.817 
			744.565,153.423 744.905,154.488 745.505,155.188 746.392,156.642 746.945,157.254 747.492,157.642 748.926,159.484 
			750.672,161.274 751.13,161.709 751.36,161.927 751.771,162.274 753.388,164.246 754.399,165.294 755.275,166.3 755.921,167.089 
			757.579,168.925 758.455,169.931 758.872,170.502 759.801,171.82 760.265,172.48 761.288,173.974 762.034,175.163 
			762.968,176.705 764.267,178.506 765.061,179.783 766.265,181.407 766.5,181.848 767.529,183.566 768.328,185.067 
			769.268,186.832 769.979,188.38 771.165,191.033 771.682,192.004 772.117,193.246 772.552,194.487 772.815,196.046 
			773.021,197.07 773.102,198.499 773.107,200.423 772.976,202.305 772.828,203.517 772.669,204.281 771.891,207.075 
			771.72,207.392 771.638,207.663 770.66,209.657 770.448,210.109 769.418,211.791 768.381,213.249 767.698,214.519 
			767.268,215.202 766.621,216.113 765.708,217.165 764.578,218.447 763.707,219.364 762.659,220.375 761.259,221.574 
			760.605,222.262 759.993,222.815 757.798,224.437 756.35,225.548 754.985,226.388 752.92,227.828 752.302,228.157 750.142,229.42 
			749.789,229.609 747.276,231.06 747.188,231.107 746.706,231.477 744.811,232.6 744.546,232.741 742.875,233.857 742.61,233.998 
			740.897,235.25 740.062,235.808 738.355,237.284 737.696,237.748 737.26,238.207 735.6,239.77 733.941,241.334 733.376,241.975 
			732.852,242.481 731.068,244.45 728.937,246.831 728.808,247.013 728.631,247.107 728.414,247.337 726.236,249.629 
			725.323,250.682 723.669,252.469 722.056,254.121 721.274,254.991 720.138,256.049 719.09,257.06 718.219,257.978 
			715.988,259.959 715.988,259.959 715.9,260.006 713.446,261.992 712.834,262.545 711.563,263.562 710.686,264.255 710.026,264.72 
			709.15,265.413 708.226,266.019 706.86,266.859 705.013,268.069 703.824,268.816 702.9,269.421 699.24,271.484 698.404,272.042 
			697.698,272.418 696.51,273.164 694.085,274.569 691.837,275.879 690.778,276.443 690.113,276.684 689.013,277.383 
			686.806,278.558 685.088,279.587 683.676,280.339 681.34,281.696 680.281,282.26 678.386,283.383 678.209,283.477 
			675.961,284.787 675.697,284.928 675.52,285.022 675.255,285.163 672.701,286.75 672.437,286.891 671.73,287.267 669.483,288.577 
			668.559,289.183 666.093,290.722 665.652,290.957 665.387,291.098 662.568,292.826 661.468,293.525 660.503,294.266 
			660.414,294.313 659.226,295.059 658.784,295.294 656.937,296.505 656.407,296.787 654.736,297.904 654.647,297.951 
			654.471,298.045 652.447,299.349 651.299,299.96 649.363,301.218 648.351,301.87 646.809,302.805 643.861,304.715 
			643.773,304.762 643.773,304.762 643.731,304.897 640.824,306.672 639.547,307.465 638.271,308.258 637.435,308.817 
			635.893,309.751 635.717,309.845 635.54,309.939 633.292,311.249 632.104,311.996 629.638,313.535 628.755,314.005 
			626.949,315.081 625.672,315.874 623.206,317.414 622.677,317.696 620.693,318.865 619.899,319.288 619.723,319.382 
			619.37,319.57 616.81,320.933 615.574,321.592 614.027,322.302 612.126,323.201 610.932,323.724 610.049,324.194 607.525,325.198 
			606.419,325.674 602.924,327.196 602.347,327.389 602.171,327.483 601.859,327.536 597.564,329.257 596.057,329.833 
			593.357,330.931 590.88,332.024 589.285,332.646 585.484,334.444 585.307,334.538 584.907,334.638 582.254,335.824 
			581.018,336.482 580.577,336.717 579.117,337.381 577.923,337.904 576.376,338.615 575.669,338.991 574.699,339.508 
			573.769,339.89 573.151,340.219 571.692,340.882 569.526,341.922 568.156,342.539 564.266,344.384 564.043,344.39 563.69,344.578 
			559.883,346.152 558.641,346.586 555.676,347.826 552.928,348.836 551.687,349.27 551.51,349.364 547.433,350.856 
			547.345,350.903 547.209,350.862 543.079,352.042 540.991,352.587 539.567,352.892 538.99,353.086 535.078,354.037 
			534.766,354.089 534.678,354.136 530.589,355.181 528.412,355.774 527.124,356.12 526.371,356.408 522.24,357.588 522.24,357.588 
			522.24,357.588 522.152,357.635 522.064,357.682 518.016,358.591 515.793,359.095 514.592,359.395 513.88,359.547 
			510.539,360.081 509.651,360.327 509.427,360.333 509.115,360.386 505.503,360.836 505.144,360.801 503.227,361.029 
			501.756,361.246 501.485,361.163 501.309,361.257 498.809,361.456 497.161,361.767 496.179,361.837 494.62,362.1 493.549,362.217 
			492.926,362.323 490.92,362.598 488.825,362.92 488.337,363.067 487.578,363.131 485.708,363.448 484.637,363.565 
			483.166,363.782 480.536,364.162 480.536,364.162 480.448,364.209 477.907,364.543 476.26,364.854 474.165,365.176 
			473.989,365.27 473.677,365.323 472.118,365.587 470.159,365.95 467.976,366.319 466.953,366.525 463.752,367.323 
			460.369,367.991 459.569,368.191 458.146,368.496 455.386,369.059 453.739,369.37 451.245,369.792 447.633,370.242 
			447.097,370.301 446.65,370.312 442.903,370.722 441.65,370.709 439.191,370.772 438.744,370.784 438.656,370.831 435.75,370.906 
			434.632,370.934 431.197,371.291 430.438,371.355 429.279,371.519 426.249,372 424.29,372.363 422.108,372.733 418.637,373.448 
			417.878,373.512 417.566,373.565 417.478,373.612 413.471,374.386 412.006,374.826 409.565,375.56 408.1,376.001 405.487,377.052 
			405.352,377.011 405.176,377.105 405.176,377.105 400.61,378.743 399.504,379.219 396.98,380.223 393.926,381.51 393.173,381.797 
			392.731,382.032 388.53,383.93 388.53,383.93 388.53,383.93 386.942,384.776 384.335,386.051 383.894,386.286 383.364,386.568 
			380.045,387.995 379.604,388.23 378.057,388.941 375.891,389.981 372.89,391.579 372.184,391.955 371.655,392.237 
			368.224,394.517 368.047,394.611 367.523,395.117 365.811,396.369 364.016,397.891 363.533,398.262 363.051,398.632 
			360.426,400.936 359.902,401.442 359.466,401.9 358.854,402.453 357.371,403.923 356.153,405.251 354.846,406.627 
			354.716,406.809 354.587,406.991 352.492,409.014 351.444,410.025 350.225,411.354 348.872,412.641 348.654,412.87 
			347.477,414.064 345.911,415.804 345.475,416.262 345.128,416.674 344.91,416.903 343.651,418.367 341.696,420.654 
			341.696,420.654 341.608,420.701 341.608,420.701 341.608,420.701 339.124,423.27 338.471,423.958 337.994,424.552 337.34,425.24 
			335.681,426.804 334.197,428.273 333.02,429.467 332.538,429.837 331.708,430.619 330.307,431.818 329.518,432.464 
			328.73,433.111 327.323,434.087 326.011,435.239 324.957,436.026 324.651,436.303 324.475,436.397 321.803,438.613 
			321.014,439.259 320.179,439.818 318.907,440.835 317.548,441.898 316.359,442.645 316.142,442.874 315.965,442.968 
			313.022,445.102 312.363,445.566 311.704,446.03 310.21,447.053 308.585,448.258 307.444,449.092 306.655,449.739 304.725,451.22 
			304.242,451.59 303.759,451.961 303.189,452.378 301.564,453.583 299.94,454.788 297.657,456.457 295.597,458.12 295.332,458.261 
			294.673,458.726 291.16,461.276 290.412,461.788 289.841,462.205 288.258,463.275 286.722,464.433 286.152,464.85 
			284.357,466.372 282.426,467.853 280.937,469.1 279.707,469.981 278.218,471.227 277.824,471.551 277.647,471.645 274.01,474.601 
			273.398,475.154 272.61,475.8 272.174,476.259 271.168,477.135 270.032,478.193 269.508,478.699 269.114,479.022 267.76,480.309 
			266.188,481.826 265.706,482.196 265.27,482.655 262.392,485.547 259.508,488.216 258.937,488.633 258.413,489.139 
			257.189,490.244 256.271,491.073 255.482,491.719 254.388,492.642 253.163,493.747 251.892,494.764 250.227,496.104 
			247.731,498.226 247.16,498.644 246.019,499.478 245.012,500.354 243.782,501.236 241.546,502.993 239.133,504.845 
			237.509,506.05 235.62,507.396 232.936,509.165 231.618,510.093 230.606,510.745 228.27,512.103 227.122,512.714 224.433,514.259 
			223.727,514.635 223.286,514.87 220.856,516.051 218.779,517.044 217.849,517.426 217.319,517.708 215.548,518.424 
			214.619,518.806 213.954,519.047 211.959,519.769 210.318,520.304 209.076,520.738 208.235,521.073 207.123,521.325 
			205.393,521.907 205.393,521.907 203.617,522.4 202.993,522.505 200.681,523.057 200.593,523.104 199.881,523.256 
			198.457,523.561 198.057,523.661 196.675,523.831 195.563,524.083 194.315,524.294 191.951,524.534 191.327,524.639 
			191.015,524.692 189.945,524.809 188.562,524.979 186.909,525.066 186.821,525.113 185.08,525.247 184.321,525.311 
			182.397,525.316 180.521,525.409 179.762,525.473 177.75,525.525 175.873,525.618 174.803,525.735 172.52,525.704 
			169.391,525.785 168.72,525.802 167.962,525.866 164.785,525.858 162.279,525.833 161.744,525.892 158.52,525.796 
			157.938,525.766 156.997,525.701 154.444,525.587 151.532,525.438 151.174,525.403 150.456,525.332 147.497,525.095 
			146.509,524.941 143.862,524.651 143.009,524.539 141.257,524.226 138.427,523.807 138.427,523.807 138.38,523.719 
			135.728,523.205 134.152,522.799 132.893,522.562 130.593,521.861 129.735,521.525 127.976,520.989 125.988,520.235 
			125.853,520.193 124.089,519.434 122.007,518.503 121.69,518.332 118.467,516.536 117.421,515.847 113.875,513.657 
			112.37,512.532 109.865,510.807 108.859,509.983 107.125,508.641 105.343,507.21 102.686,504.773 100.164,502.378 98.971,501.201 
			98.512,500.765 97.824,500.112 96.026,498.011 91.47,493.073 89.494,491.065 84.234,484.803 82.07,482.443 78.926,478.453 
			77.956,477.27 76.386,475.387 75.046,473.721 73.054,471.044 71.573,469.113 70.368,467.489 69.574,466.212 67.852,463.617 
			67.852,463.617 67.852,463.617 66.26,460.84 65.596,459.38 64.556,457.215 63.746,455.267 63.076,453.585 62.066,450.837 
			62.066,450.837 62.154,450.79 62.107,450.702 61.227,447.772 61.027,446.972 60.816,445.724 60.658,444.789 60.394,443.23 
			60.224,441.848 60.113,441 60.102,440.553 60.003,438.453 60.033,437.871 59.939,437.694 60.058,435.365 60.076,434.336 
			60.141,433.395 60.283,431.959 60.467,430.389 60.815,428.277 61.004,426.93 61.482,424.637 62.037,421.849 62.267,420.366 
			62.957,417.62 63.317,415.955 63.399,415.685 63.688,414.738 63.971,413.568 64.378,411.991 64.755,410.997 64.832,410.503 
			65.286,409.015 66.028,406.581 66.4,405.363 66.694,404.64 67.396,402.34 67.602,401.664 68.35,399.453 68.433,399.182 
			68.604,398.864 69.358,396.877 70.324,394.436 70.701,393.442 71.084,392.672 71.755,390.955 72.769,388.602 73.151,387.832 
			73.316,387.291 74.759,384.256 75.013,383.668 75.354,383.033 76.291,381.175 77.015,379.77 77.952,377.911 78.334,377.141 
			79.618,374.871 79.83,374.418 79.871,374.283 79.913,374.148 81.114,372.149 82.056,370.514 82.227,370.196 82.568,369.561 
			83.428,368.197 84.07,367.062 84.8,365.88 85.448,364.969 86.613,363.328 87.084,362.511 87.344,362.146 87.691,361.735 
			89.204,359.683 90.246,358.448 90.417,358.131 92.324,355.755 92.801,355.162 94.237,353.604 95.238,352.504 95.626,351.957 
			97.981,349.571 99.07,348.424 100.553,346.954 102.866,344.703 103.125,344.338 103.301,344.244 104.479,343.051 106.138,341.487 
			106.445,341.211 108.634,339.365 109.593,338.401 111.388,336.879 112.224,336.32 114.325,334.522 114.761,334.063 
			114.937,333.969 117.303,332.029 118.268,331.289 119.669,330.09 120.634,329.349 122.3,328.009 122.606,327.733 122.959,327.545 
			124.842,325.975 126.684,324.541 127.255,324.124 127.473,323.894 128.656,322.925 129.491,322.366 129.709,322.137 
			131.686,320.744 132.475,320.097 135.37,317.876 135.547,317.782 135.588,317.646 138.354,315.607 139.496,314.772 
			140.726,313.891 142.221,312.868 144.457,311.111 144.633,311.017 145.028,310.693 146.829,309.394 148.147,308.466 
			148.894,307.954 149.506,307.402 150.736,306.52 151.395,306.056 152.319,305.451 153.067,304.939 154.297,304.058 
			156.056,302.894 156.933,302.201 159.175,300.667 159.481,300.39 159.658,300.296 162.735,298.204 163.483,297.693 
			164.671,296.946 166.561,295.601 168.45,294.255 168.626,294.161 170.474,292.95 171.839,292.11 172.41,291.692 173.816,290.717 
			174.829,290.064 175.093,289.923 175.488,289.6 178.259,287.784 180.502,286.25 180.855,286.062 181.425,285.645 183.538,284.293 
			185.033,283.271 186.045,282.618 186.969,282.013 188.287,281.084 189.693,280.109 190.747,279.321 191.977,278.44 
			192.636,277.975 193.425,277.329 194.172,276.817 194.743,276.4 196.414,275.283 197.073,274.819 198.215,273.985 
			200.063,272.774 201.775,271.522 202.081,271.246 203.576,270.223 206.077,268.325 206.648,267.907 207.001,267.719 
			207.878,267.026 209.767,265.68 210.691,265.074 212.668,263.682 213.81,262.847 215.128,261.918 216.535,260.943 
			217.894,259.879 220.53,258.022 220.748,257.792 221.19,257.557 223.208,256.029 224.044,255.471 225.097,254.683 
			226.239,253.849 227.339,253.149 229.181,251.715 229.84,251.251 230.323,250.881 231.683,249.817 233.13,248.706 233.66,248.424 
			233.966,248.147 236.161,246.525 238.574,244.674 238.662,244.627 238.75,244.58 241.034,242.911 243.011,241.518 
			243.229,241.288 243.711,240.918 245.777,239.478 246.742,238.738 248.631,237.392 249.114,237.021 250.344,236.14 
			251.968,234.935 252.409,234.7 252.98,234.283 255.352,232.566 257.241,231.22 257.329,231.173 259.395,229.734 261.019,228.529 
			261.766,228.017 262.161,227.694 264.621,225.931 264.709,225.884 266.421,224.632 267.563,223.797 268.528,223.057 
			269.799,222.04 270.459,221.576 272.036,220.282 273.177,219.448 273.572,219.124 275.02,218.014 276.161,217.179 
			277.038,216.485 278.092,215.698 278.792,215.098 281.293,213.2 281.952,212.735 282.17,212.506 283.665,211.484 284.759,210.561 
			285.636,209.867 286.731,208.944 287.125,208.621 290.674,205.711 290.939,205.57 291.421,205.2 292.034,204.648 293.876,203.213 
			294.97,202.29 295.453,201.92 299.272,199.093 299.361,199.046 299.449,198.999 300.502,198.211 301.779,197.418 303.756,196.025 
			303.845,195.978 303.845,195.978 305.475,194.997 308.076,193.498 308.252,193.404 308.782,193.122 312.265,191.154 
			313.631,190.314 314.248,189.985 315.131,189.514 316.585,188.627 318.568,187.458 320.245,186.565 320.774,186.283 
			323.599,184.778 324.128,184.496 325.011,184.026 326.158,183.415 327.747,182.569 328.63,182.099 329.824,181.576 
			332.031,180.401 333.225,179.878 333.843,179.549 334.549,179.173 336.579,178.092 337.638,177.528 338.921,176.958 
			341.875,175.272 342.493,174.943 343.905,174.191 346.065,172.927 347.606,171.993 348.266,171.529 348.707,171.294 
			350.202,170.271 353.232,168.091 353.674,167.856 354.639,167.115 355.474,166.557 357.717,165.023 357.893,164.929 
			358.817,164.323 359.788,163.806 362.124,162.449 362.654,162.167 363.007,161.979 363.095,161.932 366.178,160.063 
			367.326,159.452 367.326,159.452 367.502,159.358 369.132,158.377 371.286,156.89 371.551,156.749 372.257,156.373 
			374.417,155.109 375.735,154.181 377.059,153.476 380.013,151.789 381.955,150.755 384.202,149.445 384.556,149.257 
			385.126,148.839 385.921,148.416 386.756,147.858 387.857,147.159 388.469,146.606 389.834,145.766 391.329,144.743 
			392.076,144.232 392.688,143.679 394.666,142.286 395.325,141.822 395.719,141.499 397.037,140.57 398.579,139.636 
			400.156,138.343 400.774,138.014 401.257,137.643 402.975,136.615 404.776,135.316 405.482,134.94 405.876,134.617 406.847,134.1 
			409.13,132.431 409.395,132.29 409.525,132.107 409.79,131.966 411.767,130.573 413.738,128.957 413.915,128.863 413.956,128.728 
			415.498,127.793 418.223,125.889 418.223,125.889 418.311,125.842 418.311,125.842 420.512,124.443 422.442,122.962 
			422.619,122.868 422.972,122.68 425.649,120.688 426.791,119.853 427.232,119.618 429.262,118.537 430.981,117.509 
			431.599,117.18 432.305,116.803 433.899,116.181 435.223,115.476 436.241,115.047 437.565,114.342 438.583,113.913 
			439.466,113.443 441.278,112.591 442.778,111.792 442.867,111.745 443.043,111.651 443.22,111.557 443.661,111.322 
			445.208,110.611 446.844,109.853 447.862,109.425 448.039,109.331 448.039,109.331 452.069,107.751 452.557,107.604 
			453.664,107.128 456.37,106.253 459.476,105.279 460.541,104.938 462.848,104.163 464.801,103.576 465.554,103.288 
			469.014,102.126 471.497,101.257 473.05,100.769 476.639,99.425 477.127,99.278 477.351,99.272 481.122,98.057 482.54,97.528 
			484.317,97.035 487.023,96.16 487.158,96.202 487.247,96.155 489.959,95.503 492.183,94.999 493.118,94.84 496.672,93.854 
			496.672,93.854 496.672,93.854 496.672,93.854 499.831,93.192 501.878,92.781 502.902,92.576 504.102,92.277 505.885,92.007 
			507.75,91.467 508.238,91.32 509.173,91.162 511.174,90.663 511.75,90.469 512.415,90.229 514.721,89.454 515.521,89.254 
			516.098,89.06 518.758,88.097 519.999,87.663 520.311,87.61 520.887,87.416 524.253,86.077 525.359,85.601 526.683,84.896 
			528.895,83.945 530.355,83.281 531.549,82.758 532.614,82.417 533.632,81.989 534.961,81.507 536.821,80.744 537.486,80.503 
			538.104,80.174 540.675,79.258 542.181,78.682 544.04,77.919 545.988,77.108 547.635,76.797 549.235,76.398 549.635,76.298 
			551.053,75.77 553.142,75.224 553.807,74.983 554.695,74.737 556.431,74.379 557.631,74.08 560.484,73.693 561.019,73.635 
			561.243,73.629 561.602,73.665 563.972,73.648 563.972,73.648 565.496,73.743 566.884,73.797 567.331,73.786 568.049,73.857 
			568.813,74.016 570.654,74.282 571.013,74.317 574.024,74.866 575.507,75.097 577.571,75.357 578.912,75.322 581.959,75.512 
			582.495,75.454 584.736,75.62 586.259,75.715 588.765,75.74 589.212,75.728 591.541,75.847 591.541,75.847 591.541,75.847 
			594.324,76.179 597.106,76.51 597.465,76.545 599.535,77.029 599.67,77.07 601.928,77.907 602.605,78.113 604.234,78.832 
			605.139,79.256 606.815,80.063 607.586,80.445 608.674,80.999 609.95,81.906 611.631,82.936 614.001,84.62 614.636,84.962 
			615.271,85.303 617.994,86.799 618.629,87.14 619.352,87.435 622.281,88.254 622.822,88.419 623.316,88.496 625.833,88.968 
			627.045,89.116 627.18,89.157 627.451,89.24 630.192,89.706 631.992,90.107 633.385,90.385 636.632,91.375 636.767,91.416 
			637.667,91.617 640.372,92.442 640.596,92.436 643.884,93.291 643.884,93.291 644.019,93.332 645.907,93.686 647.925,93.858 
			648.195,93.941 648.642,93.929 650.524,94.06 652.401,93.967 652.672,94.049 652.848,93.955 655.348,93.757 656.284,93.599 
			657.754,93.382 658.778,93.177 659.937,93.013 662.426,92.367 663.984,92.103 666.338,91.417 666.426,91.37 668.115,90.923 
			670.333,90.195 670.556,90.19 670.645,90.143 673.668,89.439 674.069,89.339 675.581,88.987 676.916,88.729 677.228,88.676 
			678.787,88.412 679.322,88.354 680.84,88.225 682.093,88.238 683.034,88.303 683.798,88.462 684.969,88.745 685.781,88.993 
			687.539,89.529 687.992,89.741 688.58,89.995 690.515,90.437 693.003,91.492 693.091,91.445 693.091,91.445 695.531,92.411 
			695.984,92.623 697.519,93.165 698.331,93.412 700.136,94.037 702.301,94.697 703.877,95.104 706.129,95.717 706.265,95.758 
			708.917,96.272 708.917,96.272 709.005,96.225 711.352,97.015 713.064,97.463 714.146,97.793 714.869,98.087 717.71,98.954 
			717.845,98.995 718.704,99.331 720.15,99.92 720.556,100.044 722.826,101.327 724.32,102.005 725.772,102.817 728.312,104.184 
			728.765,104.396 728.995,104.613 730.765,105.597 731.129,105.856 731.952,106.551 734.239,108.505 734.422,108.634 
			734.469,108.723 736.767,111.124 737.414,111.913 738.572,113.449 738.76,113.802 739.653,115.479 740.17,116.45 		">
		</polygon>
		<polygon slic3r:type="hole" style="stroke:#000000;stroke-miterlimit:10;" points="668.696,198.812 667.961,198.07 
			667.285,197.864 666.608,197.658 666.25,197.622 665.803,197.634 664.773,197.616 664.15,197.721 662.632,197.85 661.567,198.19 
			659.931,198.948 659.531,199.048 658.119,199.8 657.325,200.223 657.236,200.27 657.06,200.364 654.382,202.356 654.206,202.45 
			654.076,202.633 652.505,204.149 651.851,204.837 650.986,205.978 650.638,206.389 650.509,206.572 650.426,206.842 
			649.719,208.918 649.772,209.23 649.825,209.542 650.077,210.654 650.265,211.007 651.135,211.79 651.317,211.919 
			651.723,212.043 652.988,212.503 653.794,212.527 655.358,212.486 655.494,212.528 655.582,212.481 656.964,212.311 
			657.853,212.064 658.741,211.818 659.847,211.342 660.6,211.054 661.836,210.396 662.672,209.838 663.813,209.003 664.908,208.08 
			665.697,207.434 666.044,207.022 667.739,205.1 667.781,204.964 667.863,204.694 668.846,202.924 669.011,202.383 
			669.218,201.707 669.283,200.765 669.313,200.183 669.119,199.606 		">
		</polygon>
	</g>
</g>
<g id="Layer_1">
</g>
</svg>
