<?xml version="1.0" encoding="iso-8859-1"?>
<!-- Generator: Adobe Illustrator 19.2.1, SVG Export Plug-In . SVG Version: 6.00 Build 0)  -->
<svg version="1.1" xmlns="http://www.w3.org/2000/svg" xmlns:xlink="http://www.w3.org/1999/xlink" x="0px" y="0px"
	 viewBox="0 0 841.89 595.28" style="enable-background:new 0 0 841.89 595.28;" xml:space="preserve">
<g id="layer218">
	<g id="layer218_1_" slic3r:z="8.74000000000007e-005">
		<polygon slic3r:type="contour" style="fill:#FFFFFF;stroke:#000000;stroke-miterlimit:10;" points="752.229,221.851 
			752.674,225.24 752.774,225.64 752.78,225.863 752.495,228.734 751.988,231.61 751.988,231.61 751.9,231.657 751.168,234.539 
			750.544,236.344 749.908,237.703 749.283,239.508 749.077,240.185 748.311,241.725 748.146,242.266 747.893,242.854 
			747.045,244.666 746.361,245.936 745.843,246.665 745.584,247.029 744.725,248.394 743.906,249.623 743.394,250.575 
			742.352,251.81 741.875,252.404 741.31,253.045 740.398,254.097 739.874,254.602 738.785,255.749 737.343,257.083 
			736.507,257.642 735.677,258.423 734.141,259.581 732.388,260.969 732.082,261.245 730.01,262.461 727.945,263.901 
			727.592,264.089 725.52,265.306 723.672,266.516 722.613,267.08 721.866,267.592 720.23,268.349 719.524,268.725 717.535,269.671 
			717.135,269.771 716.782,269.959 714.435,270.869 713.417,271.298 710.757,272.261 709.916,272.596 707.562,273.283 
			705.609,273.87 704.009,274.269 700.808,275.067 700.585,275.073 700.273,275.125 696.89,275.794 694.355,276.351 
			692.931,276.656 690.531,277.255 689.595,277.413 686.395,278.211 685.73,278.452 682.665,279.291 680.8,279.831 678.758,280.465 
			677.205,280.953 675.387,281.581 673.969,282.109 671.003,283.349 670.827,283.443 670.65,283.537 667.461,284.782 
			665.737,285.587 664.413,286.292 662.913,287.091 661.454,287.755 660.177,288.548 658.411,289.488 657.264,290.099 
			656.428,290.658 654.133,291.88 654.133,291.88 654.133,291.88 654.133,291.88 650.65,293.848 647.302,295.858 647.125,295.952 
			647.037,295.999 646.772,296.14 644.395,297.633 643.689,298.009 642.765,298.614 641.97,299.037 640.782,299.783 
			639.193,300.629 636.945,301.94 636.945,301.94 636.945,301.94 634.562,303.209 633.108,304.096 631.743,304.937 630.066,305.83 
			629.184,306.3 628.389,306.723 626.624,307.663 624.594,308.744 623.623,309.261 623.005,309.59 620.534,310.906 619.869,311.147 
			618.81,311.711 616.862,312.522 614.344,313.75 613.902,313.985 613.591,314.037 610.849,315.271 608.195,316.458 
			607.177,316.886 606.512,317.127 603.5,318.278 602.482,318.707 602.129,318.895 598.628,320.193 595.927,321.291 
			594.951,321.585 593.58,322.202 591.362,322.93 589.855,323.505 587.949,324.181 584.666,325.249 584.578,325.296 584.401,325.39 
			581.471,326.271 578.941,327.052 577.965,327.345 577.477,327.492 575.388,328.038 573.611,328.531 573.123,328.677 
			570.011,329.428 566.675,330.185 566.051,330.291 565.028,330.496 561.821,331.071 560.039,331.34 557.097,331.774 
			554.332,332.113 552.015,332.441 549.426,332.687 548.085,332.721 546.926,332.885 544.02,332.96 543.126,332.983 
			540.132,333.104 539.102,333.086 538.879,333.092 537.985,333.115 535.344,333.049 534.585,333.113 532.167,333.041 
			530.514,333.128 528.185,333.009 526.932,332.996 525.138,332.819 523.75,332.765 520.838,332.616 520.703,332.575 
			518.009,332.197 517.38,332.079 517.38,332.079 517.38,332.079 515.18,331.777 513.962,331.406 513.333,331.288 511.31,330.893 
			509.422,330.539 507.716,330.314 506.546,330.031 504.569,329.724 502.728,329.458 501.293,329.316 498.24,328.902 
			497.746,328.826 497.252,328.749 494.335,328.377 492.27,328.116 491.194,328.01 488.77,327.714 488.276,327.638 486.165,327.289 
			484.189,326.982 481.9,326.728 480.912,326.574 478.577,326.232 477.142,326.09 476.648,326.013 475.707,325.948 474.089,325.676 
			473.189,325.475 471.842,325.286 470.719,325.092 468.019,324.49 467.749,324.407 466.49,324.171 465.949,324.006 
			464.414,323.464 463.379,323.222 461.844,322.68 460.174,322.097 458.951,321.502 457.145,320.877 456.193,320.365 
			453.793,319.264 453.111,318.834 451.341,317.85 449.659,316.82 448.883,316.214 446.561,314.618 444.503,312.882 
			443.498,312.057 441.757,310.492 440.246,309.144 438.001,307.054 436.813,306.1 433.521,303.322 433.109,302.975 
			432.744,302.716 430.416,300.896 429.458,300.161 429.411,300.072 428.999,299.725 426.588,298.176 425.271,297.405 
			424.272,296.804 423.231,296.339 422.46,295.956 420.608,295.243 419.708,295.043 417.414,294.565 416.244,294.282 
			415.614,294.164 412.567,293.974 411.003,294.014 408.503,294.213 407.655,294.324 406.585,294.441 404.402,294.81 
			403.332,294.927 400.531,295.625 398.619,296.077 397.642,296.371 394.265,297.263 392.889,297.656 391.335,298.143 
			389.959,298.537 388.541,299.065 387.211,299.547 384.199,300.698 383.357,301.033 381.321,301.89 379.068,302.977 
			377.609,303.641 376.373,304.299 373.902,305.615 372.842,306.179 370.812,307.26 368.653,308.524 367.464,309.27 
			364.863,310.768 363.41,311.656 362.18,312.537 360.555,313.742 360.114,313.977 358.484,314.959 357.078,315.934 
			354.794,317.603 352.599,319.226 352.205,319.549 349.792,321.4 348.297,322.423 346.19,323.998 344.172,325.526 343.601,325.944 
			341.094,327.619 340.347,328.13 339.688,328.594 336.039,331.104 336.039,331.104 335.862,331.198 332.037,333.801 
			331.731,334.078 331.555,334.172 331.072,334.542 328.177,336.764 326.205,338.38 326.205,338.38 323.715,340.726 
			323.409,341.002 322.974,341.46 320.708,343.8 319.354,345.088 319.136,345.317 317.959,346.51 317.217,347.245 316.346,348.162 
			315.558,348.809 314.427,350.091 312.426,352.289 311.902,352.795 311.425,353.389 309.73,355.311 307.964,357.951 
			307.357,358.727 307.145,359.18 306.115,360.862 305.255,362.226 305.043,362.679 303.583,365.043 302.346,367.401 
			301.875,368.218 301.28,369.441 300.385,371.164 300.044,371.799 299.195,373.611 298.565,375.193 298.141,376.098 
			297.257,378.268 297.128,378.451 296.963,378.992 296.162,380.891 295.955,381.568 295.119,383.826 294.582,385.584 
			294.081,386.984 293.427,389.372 293.474,389.46 292.608,392.301 292.613,392.524 291.835,395.318 291.717,395.947 
			291.016,398.247 290.809,398.923 290.314,400.546 289.984,401.629 289.442,403.164 288.517,405.469 288.523,405.692 
			288.181,406.328 287.469,408.18 287.215,408.768 286.414,410.668 285.778,412.026 285.401,413.02 284.388,415.372 
			284.346,415.508 284.346,415.508 283.245,417.907 282.95,418.63 282.19,420.395 281.56,421.976 281.136,422.882 280.718,424.011 
			280.341,425.005 279.286,427.493 279.204,427.763 278.78,428.669 278.232,429.98 277.766,431.021 276.665,433.421 
			276.288,434.414 274.633,437.902 274.503,438.084 274.462,438.219 274.167,438.943 273.655,439.895 273.443,440.348 
			272.218,443.153 271.923,443.876 271.54,444.647 270.297,448.481 270.044,449.069 269.92,449.475 269.667,450.063 268.376,453.81 
			268.205,454.127 266.668,456.985 265.997,458.702 265.779,458.932 265.178,459.931 263.035,463.565 262.993,463.7 
			262.734,464.065 261.445,466.111 260.803,467.246 260.503,467.746 260.244,468.111 259.637,468.887 257.777,471.35 
			257.041,472.309 256.435,473.085 255.393,474.319 254.528,475.46 253.656,476.377 252.962,477.2 252.267,478.023 252.096,478.341 
			250.572,479.946 250.136,480.404 249.089,481.416 247.782,482.791 247.04,483.526 246.475,484.167 246.216,484.531 245.08,485.59 
			243.514,487.33 242.773,488.065 241.066,489.54 239.359,491.016 238.659,491.615 238.571,491.662 238.088,492.032 
			235.316,493.848 234.875,494.083 234.216,494.548 232.321,495.67 230.468,496.657 230.291,496.751 227.814,497.844 
			227.237,498.038 226.043,498.56 223.695,499.471 221.836,500.234 219.753,501.004 218.376,501.397 214.564,502.747 
			213.987,502.941 211.857,503.622 210.169,504.068 209.592,504.262 206.48,505.013 204.88,505.412 202.656,505.917 
			201.544,506.169 199.097,506.679 198.785,506.732 196.514,507.148 194.732,507.418 193.796,507.576 191.743,507.763 
			191.208,507.821 190.808,507.921 187.861,508.131 184.513,508.441 183.843,508.458 183.307,508.517 179.284,508.62 
			177.407,508.713 175.619,508.759 174.278,508.794 172.666,508.745 171.101,508.786 170.072,508.767 167.566,508.742 
			166.848,508.671 164.743,508.547 163.354,508.493 162.231,508.298 160.078,508.085 158.69,508.031 156.267,507.736 
			154.967,507.635 153.173,507.457 152.679,507.38 149.938,506.914 149.802,506.873 148.679,506.678 146.703,506.371 
			146.568,506.33 144.003,505.769 143.462,505.604 141.033,505.085 140.133,504.884 137.792,504.318 136.757,504.077 
			135.451,503.752 134.234,503.381 133.105,502.963 131.887,502.591 130.217,502.008 128.865,501.595 128.141,501.301 
			125.883,500.464 125.295,500.211 122.719,499.203 122.178,499.038 121.543,498.697 119.414,497.678 118.056,497.042 
			117.103,496.529 115.833,495.846 114.286,494.857 113.786,494.557 111.37,492.785 111.005,492.526 110.823,492.396 
			110.182,491.831 108.307,490.224 106.655,488.611 106.108,488.223 104.539,486.339 102.275,483.579 101.676,482.879 
			100.247,481.26 97.843,478.235 96.509,476.793 93.975,473.951 91.354,471.155 90.801,470.543 90.066,469.801 87.486,466.87 
			85.698,465.216 85.005,464.339 83.717,462.985 83.3,462.415 82.507,461.138 81.149,458.802 81.149,458.802 81.102,458.713 
			79.916,456.06 79.34,454.553 79.047,453.577 78.712,452.735 78.078,450.694 77.826,449.582 77.374,447.67 77.257,446.599 
			77.058,444.099 76.83,442.181 76.66,440.799 76.468,438.522 76.315,437.81 76.345,437.228 76.323,434.634 76.301,432.04 
			76.349,430.428 76.339,428.281 76.381,426.446 76.393,425.193 76.501,422.416 76.708,420.04 76.968,417.975 77.181,415.823 
			77.442,413.758 77.507,412.817 77.902,410.794 78.421,408.365 78.374,408.276 78.982,405.8 79.265,404.63 79.801,402.871 
			80.238,400.713 80.538,400.213 80.697,399.448 81.198,398.049 81.87,396.331 82.123,395.743 82.335,395.29 83.395,393.026 
			84.091,390.503 84.132,390.368 84.174,390.233 84.886,388.38 85.346,387.116 85.729,386.345 86.112,385.575 87.225,383.623 
			88.45,380.818 88.921,380 89.092,379.683 89.392,379.183 90.681,377.137 91.718,375.679 91.759,375.543 92.66,374.044 
			94.467,371.268 94.556,371.221 94.726,370.904 96.675,368.393 97.493,367.164 98.359,366.024 99.053,365.201 99.701,364.289 
			100.919,362.961 101.832,361.908 102.915,360.538 103.916,359.439 103.957,359.304 105.046,358.157 106.959,356.005 
			107.177,355.776 107.353,355.682 108.966,354.03 109.537,353.613 110.408,352.696 112.109,350.997 113.157,349.986 
			113.769,349.433 115.211,348.099 115.646,347.64 116.306,347.176 118.101,345.653 119.372,344.637 120.331,343.672 
			122.262,342.191 122.568,341.915 122.656,341.868 122.744,341.821 125.64,339.599 125.816,339.505 128.317,337.607 
			128.317,337.607 131.042,335.702 131.219,335.608 131.483,335.467 133.902,333.84 135.002,333.14 136.544,332.206 
			137.291,331.694 137.951,331.23 140.198,329.92 141.169,329.403 142.093,328.797 145.442,326.788 145.795,326.6 146.189,326.276 
			148.837,324.866 150.643,323.791 152.185,322.857 155.092,321.082 156.151,320.518 157.781,319.536 159.588,318.461 
			160.206,318.132 162.671,316.592 162.76,316.545 162.76,316.545 165.096,315.188 166.331,314.53 169.68,312.52 169.856,312.426 
			169.944,312.379 174.222,309.988 175.546,309.283 177.835,307.837 179.554,306.808 181.313,305.645 182.767,304.757 
			184.044,303.964 185.85,302.889 187.039,302.142 189.416,300.65 190.034,300.321 190.387,300.133 191.711,299.428 
			193.959,298.117 194.883,297.512 197.749,295.872 200.52,294.057 201.138,293.727 201.579,293.492 204.881,291.394 
			206.111,290.513 208.359,289.202 211.483,287.198 211.925,286.963 212.189,286.822 214.785,285.1 215.885,284.401 
			217.162,283.608 218.963,282.309 219.445,281.939 220.764,281.01 221.558,280.587 221.864,280.311 223.623,279.147 
			225.03,278.171 225.777,277.66 227.49,276.408 227.931,276.173 228.149,275.944 230.215,274.504 231.356,273.669 232.498,272.835 
			234.252,271.448 234.734,271.077 236.482,269.467 236.747,269.326 236.7,269.237 238.724,267.933 239.731,267.057 
			240.914,266.087 242.626,264.835 243.109,264.465 244.557,263.354 245.174,263.025 245.304,262.843 247.323,261.314 
			248.111,260.668 249.471,259.604 251.142,258.487 251.625,258.117 253.072,257.006 253.861,256.36 254.167,256.083 
			256.056,254.737 257.062,253.862 258.157,252.939 259.776,251.51 260.388,250.958 262.224,249.3 262.312,249.253 264.019,247.778 
			264.808,247.131 264.896,247.084 264.984,247.037 267.609,244.733 268.527,243.904 270.146,242.475 270.628,242.105 
			272.729,240.306 272.771,240.171 272.771,240.171 275.013,238.637 276.108,237.714 277.249,236.88 279.044,235.357 
			279.262,235.128 279.35,235.081 281.498,233.37 282.111,232.818 283.429,231.889 284.347,231.06 285.706,229.997 286.889,229.027 
			287.501,228.474 289.473,226.858 289.914,226.623 290.526,226.07 291.798,225.053 292.628,224.271 294.246,222.843 
			295.035,222.196 295.776,221.462 296.347,221.044 298.448,219.246 299.413,218.505 299.984,218.088 300.773,217.441 
			302.838,216.001 303.233,215.678 304.374,214.843 304.857,214.473 307.358,212.574 308.276,211.746 310.995,209.618 
			311.26,209.477 311.478,209.248 312.796,208.319 313.19,207.996 315.515,206.191 316.568,205.404 317.051,205.033 
			319.552,203.135 319.77,202.906 320.164,202.582 321.441,201.789 321.618,201.695 323.989,199.979 325.219,199.097 
			325.878,198.633 327.414,197.475 328.338,196.87 329.874,195.712 330.092,195.482 330.269,195.388 332.422,193.901 
			333.741,192.973 334.841,192.274 335.588,191.762 336.818,190.881 339.19,189.164 339.231,189.029 339.761,188.747 
			340.991,187.866 342.444,186.978 343.851,186.003 345.304,185.115 347.894,183.17 348.423,182.888 349.212,182.241 349.477,182.1 
			350.224,181.589 351.366,180.754 352.16,180.331 352.861,179.732 353.784,179.126 354.573,178.48 357.427,176.393 357.91,176.023 
			359.399,174.777 359.881,174.406 360.894,173.754 361.506,173.202 362.294,172.555 362.953,172.091 363.789,171.532 
			365.89,169.734 366.461,169.316 367.909,168.205 368.303,167.882 369.492,167.136 370.104,166.583 370.851,166.072 
			371.334,165.702 372.387,164.914 374.447,163.251 375.106,162.786 376.507,161.587 377.955,160.476 378.261,160.2 
			378.655,159.877 379.355,159.277 379.75,158.954 380.715,158.213 383.381,155.774 383.646,155.633 384.04,155.309 384.74,154.71 
			385.923,153.74 386.535,153.187 386.842,152.911 387.936,151.988 390.732,149.366 390.82,149.319 390.997,149.225 
			391.126,149.043 392.18,148.256 392.486,147.979 393.804,147.051 394.94,145.992 396.476,144.835 398.748,142.718 
			399.013,142.577 399.054,142.442 400.766,141.19 401.249,140.82 402.738,139.574 403.438,138.974 404.974,137.816 
			407.081,136.241 407.475,135.918 407.605,135.735 409.229,134.531 409.8,134.113 411.336,132.955 411.948,132.403 
			413.484,131.245 415.856,129.529 416.209,129.341 416.25,129.205 417.745,128.183 418.363,127.854 419.11,127.342 
			420.252,126.508 420.823,126.091 422.011,125.344 425.442,123.064 426.189,122.553 426.278,122.506 426.278,122.506 
			426.319,122.37 430.062,120.037 430.503,119.802 432.574,118.586 434.734,117.323 434.91,117.229 435.881,116.712 
			438.529,115.301 438.617,115.254 438.923,114.978 439.941,114.549 440.118,114.455 440.383,114.314 443.166,112.945 
			444.402,112.287 445.155,112 447.408,110.913 447.761,110.725 450.639,109.532 451.568,109.15 451.921,108.962 454.669,107.952 
			455.51,107.618 455.687,107.524 456.128,107.289 458.123,106.566 459.276,106.179 460.294,105.75 461.935,105.216 
			463.088,104.828 463.842,104.54 465.042,104.241 466.595,103.754 467.348,103.466 468.813,103.026 469.525,102.873 
			470.413,102.627 471.878,102.186 474.055,101.594 474.143,101.547 474.143,101.547 477.12,100.754 477.385,100.613 
			480.409,99.909 480.544,99.95 480.633,99.903 480.809,99.809 484.062,99.323 484.774,99.171 486.91,98.713 487.133,98.707 
			487.445,98.655 490.387,98.221 492.969,97.752 493.416,97.741 494.128,97.588 496.581,97.301 498.364,97.032 499.793,96.95 
			502.111,96.622 502.87,96.558 505.058,96.412 505.905,96.301 506.217,96.248 509.97,96.063 510.864,96.04 511.982,96.011 
			513.011,96.029 514.176,96.089 515.517,96.054 518.476,96.291 518.611,96.332 519.688,96.439 521.935,96.829 522.293,96.864 
			525.128,97.507 525.893,97.666 528.145,98.279 531.033,99.234 531.892,99.57 534.332,100.536 535.461,100.954 535.867,101.078 
			539.537,102.863 539.807,102.945 540.125,103.116 543.665,105.083 544.212,105.472 544.758,105.86 546.076,106.632 
			546.664,106.885 547.164,107.185 548.892,108.304 549.616,108.598 551.297,109.629 551.838,109.794 552.791,110.306 
			553.879,110.86 554.196,111.031 556.372,112.138 556.419,112.226 556.419,112.226 559.536,113.399 562.071,114.541 
			563.112,115.007 563.976,115.566 565.382,116.29 566.687,116.615 566.869,116.744 568.046,117.251 568.769,117.545 
			571.798,118.765 572.068,118.847 573.427,119.483 575.15,120.379 575.42,120.461 578.231,121.91 578.684,122.122 581.354,123.306 
			582.718,124.166 584.529,125.014 586.846,126.386 587.481,126.727 588.298,127.198 590.298,128.4 591.115,128.871 
			593.297,130.201 594.755,131.238 594.937,131.367 596.531,132.445 597.395,133.004 598.536,133.869 599.494,134.605 
			600.723,135.424 601.546,136.118 602.963,137.29 603.421,137.725 604.88,138.761 605.885,139.586 607.214,140.804 
			607.714,141.104 609.13,142.276 610.136,143.1 611.964,144.619 612.876,145.266 613.516,145.831 614.839,146.826 616.303,148.086 
			618.491,149.64 619.725,150.682 622.6,152.89 623.788,153.844 626.804,156.316 627.216,156.663 627.627,157.011 630.508,159.442 
			630.92,159.789 631.243,160.183 632.113,160.966 633.307,162.143 634.224,163.015 635.423,164.415 636.252,165.334 
			637.868,167.305 638.468,168.005 639.902,169.847 640.872,171.03 642.312,173.096 642.547,173.537 643.851,175.562 
			644.175,175.956 646.19,179.528 646.19,179.528 646.237,179.616 648.023,182.97 648.723,184.071 649.01,184.824 649.715,186.148 
			649.956,186.812 650.943,188.666 651.701,190.302 651.895,190.878 652.177,191.408 653.364,194.062 653.552,194.415 
			655.079,198.133 655.126,198.221 655.126,198.221 655.173,198.31 655.367,198.886 656.418,201.499 656.424,201.722 
			657.293,204.205 657.439,204.693 657.539,205.094 658.666,208.912 658.813,209.4 658.919,210.024 659.6,212.154 659.752,212.865 
			659.999,213.754 660.409,215.801 660.908,217.801 660.908,217.801 661.46,220.114 661.806,221.402 662.44,223.444 662.88,224.909 
			663.074,225.485 663.602,226.903 664.131,228.321 664.554,229.115 665.306,230.528 665.864,231.363 667.71,233.553 
			667.986,233.859 668.033,233.947 668.216,234.077 671.038,235.972 671.356,236.143 671.356,236.143 674.92,237.304 
			675.055,237.345 675.278,237.34 678.096,237.312 678.096,237.312 680.632,236.755 681.12,236.608 682.938,235.98 683.997,235.416 
			684.439,235.18 685.716,234.387 686.769,233.6 688.258,232.353 689.176,231.525 690.53,230.237 691.142,229.685 692.537,228.262 
			693.496,227.298 693.667,226.98 694.32,226.292 695.715,224.87 696.898,223.9 697.64,223.165 698.164,222.659 699.782,221.231 
			700.877,220.308 701.536,219.844 704.343,217.669 704.649,217.393 705.002,217.205 706.632,216.223 707.821,215.477 
			708.351,215.195 710.251,214.296 711.934,213.627 713.087,213.239 715.305,212.511 715.882,212.317 718.682,211.619 
			719.394,211.466 720.018,211.361 721.041,211.156 722.424,210.986 723.542,210.957 725.465,210.953 726.359,210.93 
			727.165,210.954 730.977,211.303 731.694,211.374 732.324,211.492 734.747,211.788 735.647,211.988 738.888,212.755 
			739.382,212.832 739.876,212.908 743.534,214.246 744.434,214.446 746.151,215.118 747.65,216.019 749.561,217.267 
			750.249,217.921 750.99,218.886 751.601,220.033 		">
		</polygon>
	</g>
</g>
<g id="Layer_1">
</g>
</svg>
