<?xml version="1.0" encoding="iso-8859-1"?>
<!-- Generator: Adobe Illustrator 19.2.1, SVG Export Plug-In . SVG Version: 6.00 Build 0)  -->
<svg version="1.1" xmlns="http://www.w3.org/2000/svg" xmlns:xlink="http://www.w3.org/1999/xlink" x="0px" y="0px"
	 viewBox="0 0 841.89 595.28" style="enable-background:new 0 0 841.89 595.28;" xml:space="preserve">
<g id="layer234">
	<g id="layer234_1_" slic3r:z="9.38000000000008e-005">
		<polygon slic3r:type="contour" style="fill:#FFFFFF;stroke:#000000;stroke-miterlimit:10;" points="767.258,202.631 
			767.922,204.09 768.221,205.29 768.491,207.073 768.497,207.296 768.514,207.967 768.66,210.155 768.718,210.691 768.581,214.049 
			768.545,214.408 768.463,214.679 768.167,217.102 768.002,217.643 767.524,219.937 767.318,220.613 767.277,220.749 
			766.941,221.607 766.311,223.189 766.228,223.46 765.215,225.812 764.703,226.765 763.642,229.029 763.089,230.117 
			762.835,230.705 761.328,232.98 760.474,234.568 759.915,235.432 759.526,235.979 758.284,238.114 758.154,238.296 
			756.724,240.077 755.817,241.353 754.911,242.629 753.786,244.134 753.221,244.775 751.531,246.921 751.314,247.151 
			749.966,248.662 749.448,249.391 749.271,249.485 747.446,251.589 746.969,252.183 745.58,253.829 744.75,254.611 
			743.091,256.175 741.307,258.145 741.13,258.239 740.259,259.156 738.953,260.531 738.823,260.714 738.605,260.943 
			736.328,262.836 735.716,263.388 735.15,264.029 733.573,265.322 732.696,266.016 730.854,267.45 730.766,267.497 
			730.766,267.497 729.318,268.608 728.041,269.401 726.017,270.706 724.428,271.552 722.486,272.586 721.162,273.291 
			720.192,273.808 718.468,274.613 717.673,275.036 716.696,275.33 715.102,275.952 714.349,276.24 713.107,276.674 
			711.866,277.109 710.313,277.596 708.401,278.048 707.824,278.242 705.112,278.893 704.977,278.852 704.4,279.046 
			701.329,279.661 700.305,279.867 697.329,280.659 696.928,280.759 694.616,281.31 692.575,281.944 691.463,282.197 
			690.798,282.437 689.157,282.972 687.25,283.647 684.679,284.563 684.15,284.845 680.961,286.09 680.784,286.184 680.519,286.325 
			677.424,287.747 676.406,288.176 674.241,289.215 671.37,290.631 670.399,291.148 669.781,291.477 666.603,293.17 
			665.632,293.687 662.414,295.514 662.061,295.702 660.96,296.402 658.577,297.671 657.694,298.141 654.876,299.868 
			653.775,300.568 651.616,301.831 650.427,302.577 649.238,303.324 647.52,304.352 645.537,305.522 644.878,305.986 
			644.525,306.174 641.924,307.672 641.306,308.001 641.218,308.048 640.6,308.377 637.646,310.064 637.205,310.299 
			633.721,312.267 633.544,312.361 632.262,312.931 629.967,314.153 629.702,314.294 626.431,315.81 625.018,316.562 
			623.471,317.273 620.776,318.595 620.335,318.83 620.111,318.835 619.582,319.117 616.528,320.404 615.11,320.932 
			612.321,322.078 610.197,322.982 608.379,323.611 605.102,324.903 604.125,325.196 599.871,326.782 599.871,326.782 
			599.871,326.782 595.664,328.456 594.734,328.838 591.234,330.136 590.392,330.47 589.286,330.946 586.185,332.144 
			583.926,333.008 582.29,333.765 579.454,334.822 579.366,334.87 576.354,336.021 575.289,336.361 571.076,337.811 
			570.988,337.859 570.9,337.906 569.435,338.346 566.24,339.367 566.016,339.373 562.286,340.453 560.374,340.905 558.286,341.451 
			554.415,342.266 553.838,342.46 553.438,342.56 551.967,342.776 549.385,343.245 548.761,343.351 545.867,343.873 
			545.731,343.831 543.413,344.159 541.143,344.576 540.472,344.593 539.537,344.751 537.754,345.021 536.819,345.179 
			535.171,345.49 532.677,345.912 532.589,345.959 532.453,345.917 529.959,346.339 528.535,346.644 527.465,346.761 
			525.547,346.99 524.788,347.054 524.388,347.154 522.023,347.393 520.729,347.516 518.588,347.75 518.452,347.709 
			518.229,347.715 515.77,347.778 514.205,347.818 511.97,347.876 511.299,347.893 509.688,347.845 508.123,347.885 
			507.541,347.855 506.423,347.884 504.141,347.853 502.617,347.758 502.17,347.77 500.47,347.769 499.305,347.709 499.082,347.715 
			497.964,347.743 495.099,347.683 493.847,347.67 491.788,347.634 490.088,347.633 488.029,347.596 486.776,347.584 
			484.717,347.547 482.97,347.458 479.794,347.45 479.076,347.379 478.853,347.385 476.794,347.348 475.094,347.347 474.87,347.353 
			474.735,347.312 471.559,347.304 469.77,347.35 467.935,347.308 466.147,347.354 463.641,347.328 462.7,347.263 461,347.262 
			459.835,347.203 459.253,347.173 457.506,347.084 456.741,346.924 454.229,346.676 452.971,346.44 449.959,345.891 
			449.601,345.855 449.465,345.814 446.36,345.089 445.054,344.764 442.219,344.121 441.59,344.003 440.825,343.844 
			438.131,343.466 436.92,343.318 435.573,343.129 432.973,342.927 431.091,342.797 429.926,342.737 427.461,342.577 
			426.161,342.476 425.132,342.458 422.267,342.397 421.909,342.362 419.538,342.378 417.573,342.518 414.897,342.811 
			413.914,342.881 413.426,343.027 411.284,343.261 410.973,343.314 409.102,343.631 407.678,343.936 407.278,344.035 
			405.854,344.34 404.566,344.687 402.389,345.279 401.636,345.567 400.836,345.767 398.53,346.542 395.694,347.599 395.029,347.84 
			392.681,348.75 391.751,349.132 391.351,349.232 388.474,350.424 387.145,350.905 384.932,351.857 382.367,352.997 
			382.055,353.049 378.872,354.518 378.295,354.712 377.677,355.041 374.982,356.363 374.011,356.88 372.729,357.45 
			370.787,358.484 370.169,358.813 369.375,359.236 367.521,360.223 366.374,360.834 364.432,361.868 361.919,363.319 
			361.655,363.461 361.566,363.508 358.612,365.194 357.994,365.523 356.276,366.551 354.34,367.809 353.328,368.461 
			352.051,369.255 349.721,370.836 349.279,371.071 349.103,371.165 348.885,371.394 346.819,372.834 344.412,374.909 
			344.283,375.091 344.106,375.185 341.051,378.171 341.051,378.171 340.875,378.266 339.174,379.964 336.819,382.351 
			336.731,382.398 336.643,382.445 336.602,382.581 334.071,385.061 332.852,386.39 331.763,387.536 330.498,388.777 
			329.497,389.876 328.885,390.429 327.755,391.71 327.496,392.075 327.278,392.304 326.018,393.768 325.324,394.591 
			323.328,397.014 322.551,398.107 319.478,402.123 319.09,402.67 317.359,404.951 316.37,406.498 315.292,408.091 315.121,408.409 
			313.956,410.049 312.36,412.372 311.63,413.554 310.382,415.465 310.252,415.647 310.164,415.694 308.274,418.74 307.673,419.739 
			307.461,420.192 306.684,421.286 305.954,422.468 305.012,424.103 304.753,424.467 303.281,426.384 301.65,429.065 
			301.65,429.065 301.52,429.247 299.884,431.705 298.859,433.611 298.47,434.157 297.093,436.251 296.451,437.386 296.068,438.156 
			295.114,439.344 293.224,442.389 293.095,442.572 292.877,442.801 292.836,442.936 291.67,444.577 290.592,446.17 
			290.121,446.988 289.385,447.946 288.479,449.222 288.09,449.769 287.613,450.363 286.966,451.274 285.753,452.826 
			284.199,455.013 284.022,455.107 283.893,455.29 281.985,457.665 280.472,459.717 279.819,460.405 279.778,460.54 278.212,462.28 
			277.041,463.697 276.346,464.52 275.434,465.573 274.998,466.031 274.174,467.037 273.609,467.678 272.479,468.959 
			270.218,471.522 270.177,471.658 270.089,471.705 269,472.851 266.786,475.503 266.657,475.685 265.262,477.108 263.09,479.624 
			262.825,479.765 262.478,480.177 261.477,481.276 259.911,483.016 259.476,483.475 258.169,484.85 256.815,486.138 
			255.726,487.284 253.849,489.077 252.801,490.088 251.93,491.005 250.835,491.928 249.57,493.169 247.951,494.597 
			247.822,494.779 247.516,495.056 245.238,496.948 244.579,497.413 242.866,498.665 242.078,499.311 241.813,499.452 239,501.404 
			238.912,501.451 237.635,502.244 235.61,503.548 235.522,503.596 235.257,503.737 232.433,505.241 230.179,506.328 
			229.426,506.615 226.949,507.708 225.178,508.424 224.69,508.571 223.848,508.906 220.789,509.969 218.618,510.785 
			217.729,511.032 215.2,511.813 213.911,512.159 213.735,512.253 213.246,512.4 209.822,513.203 208.622,513.503 206.71,513.954 
			205.11,514.353 203.774,514.612 202.215,514.875 199.497,515.303 199.097,515.403 198.25,515.514 196.021,515.795 
			195.173,515.906 192.944,516.187 190.444,516.386 189.326,516.414 188.032,516.537 186.202,516.718 185.085,516.747 
			184.502,516.717 183.744,516.782 182.985,516.846 181.732,516.833 181.061,516.851 177.885,516.843 177.573,516.896 
			176.096,516.889 173.367,516.869 173.008,516.834 172.026,516.904 169.608,516.832 167.279,516.713 166.697,516.683 
			166.249,516.695 163.65,516.493 160.826,516.297 159.438,516.243 156.344,515.965 155.715,515.847 153.156,515.51 
			153.068,515.557 151.003,515.297 148.939,515.037 148.262,514.831 146.016,514.441 145.657,514.406 145.521,514.364 
			142.734,513.81 141.698,513.568 138.863,512.925 138.187,512.719 136.429,512.182 135.664,512.023 134.264,511.522 
			133.588,511.316 130.024,510.155 128.76,509.695 127.225,509.153 126.954,509.071 125.731,508.476 125.549,508.346 
			123.514,507.504 122.697,507.033 120.703,506.055 119.656,505.366 117.157,503.865 115.84,503.093 115.476,502.834 
			114.746,502.316 110.689,499.378 108.408,497.648 106.168,495.781 105.21,495.046 102.646,492.785 99.025,489.389 98.29,488.647 
			97.602,487.994 91.588,482.02 90.947,481.455 90.577,480.972 89.525,480.06 85.527,475.957 83.005,473.561 81.629,472.255 
			79.055,469.547 78.09,468.588 76.068,466.493 74.91,464.957 74.634,464.651 74.405,464.433 73.282,462.538 72.713,461.255 
			71.391,458.56 70.727,457.101 70.057,455.418 69.77,454.665 69.476,453.689 69.329,453.2 68.783,451.112 68.478,449.688 
			68.156,447.594 67.828,445.276 67.799,444.158 67.729,443.176 67.555,439.87 67.532,438.976 67.569,436.917 67.558,434.77 
			67.529,433.652 67.673,430.517 67.804,426.935 67.787,426.264 67.976,424.917 68.078,421.917 68.184,420.841 68.592,417.564 
			68.828,416.306 69.141,414.553 69.253,413.7 69.572,412.171 69.89,410.642 69.967,410.148 70.374,408.571 70.781,406.995 
			71.471,404.249 72.048,402.355 72.827,399.561 73.451,397.756 74.117,395.815 74.871,393.827 75.29,392.698 76.085,390.575 
			76.338,389.987 76.38,389.852 77.569,387.405 77.946,386.411 78.924,384.418 80.031,382.242 80.461,381.56 81.863,378.661 
			82.122,378.296 83.406,376.026 84.13,374.621 84.26,374.439 85.755,371.716 86.403,370.805 86.356,370.716 88.329,367.4 
			88.458,367.218 89.188,366.036 90.307,364.307 90.389,364.037 92.203,361.485 92.332,361.302 93.539,359.527 94.228,358.48 
			94.269,358.345 94.834,357.704 95.959,356.199 96.306,355.787 97.695,354.141 98.473,353.047 99.821,351.536 100.645,350.531 
			101.734,349.385 103.211,347.691 104.388,346.498 106.048,344.934 107.92,342.918 108.403,342.548 108.879,341.954 
			110.104,340.849 111.151,339.837 111.852,339.238 113.035,338.268 114.388,336.981 114.871,336.61 116.013,335.776 
			118.161,334.065 119.167,333.189 120.132,332.449 120.703,332.031 121.492,331.385 122.327,330.827 123.863,329.669 
			125.535,328.552 127.73,326.93 128.695,326.189 131.773,324.097 131.814,323.962 131.902,323.915 131.99,323.868 135.462,321.452 
			136.033,321.035 138.058,319.73 140.076,318.202 141.088,317.55 141.483,317.226 143.99,315.552 143.99,315.552 146.367,314.059 
			146.938,313.642 149.445,311.967 149.839,311.643 149.927,311.596 150.104,311.502 152.305,310.104 153.317,309.451 
			155.165,308.241 156.395,307.359 157.407,306.707 158.242,306.148 158.901,305.684 160.926,304.379 161.761,303.821 
			162.597,303.263 164.533,302.005 165.722,301.259 168.099,299.766 169.288,299.02 170.035,298.509 172.148,297.157 
			172.148,297.157 175.049,295.159 175.314,295.018 175.49,294.924 176.238,294.412 178.215,293.019 181.034,291.292 
			181.781,290.78 182.087,290.504 182.923,289.946 184.906,288.776 187.189,287.107 187.454,286.966 187.631,286.872 
			190.226,285.15 190.402,285.056 191.279,284.363 192.026,283.851 194.486,282.088 195.016,281.806 195.234,281.577 
			198.094,279.714 199.059,278.973 199.848,278.327 201.036,277.58 202.354,276.652 203.32,275.911 204.42,275.212 205.562,274.377 
			207.933,272.661 208.198,272.52 208.504,272.244 211.052,270.434 212.677,269.229 212.677,269.229 214.213,268.071 
			214.736,267.565 216.625,266.219 217.067,265.984 217.638,265.567 219.744,263.992 221.41,262.652 221.851,262.417 
			224.394,260.383 224.482,260.336 224.57,260.289 224.788,260.06 227.907,257.832 229.49,256.762 229.62,256.58 230.979,255.516 
			233.039,253.853 233.48,253.618 233.963,253.247 236.158,251.625 237.341,250.655 237.429,250.608 238.836,249.633 
			239.624,248.986 241.508,247.417 241.902,247.093 242.473,246.676 244.403,245.195 245.674,244.178 245.762,244.131 
			247.034,243.114 249.617,240.945 249.97,240.757 250.1,240.575 250.453,240.387 253.348,238.165 254.484,237.107 254.661,237.013 
			255.979,236.084 258.304,234.28 258.875,233.863 259.445,233.445 261.77,231.641 262.912,230.806 263,230.759 264.183,229.789 
			267.255,227.474 267.255,227.474 267.255,227.474 267.255,227.474 270.768,224.923 271.033,224.782 272.616,223.712 
			274.24,222.507 274.941,221.908 275.776,221.349 276.524,220.838 277.577,220.05 278.807,219.169 279.949,218.334 
			280.302,218.146 282.014,216.894 283.156,216.06 284.298,215.225 285.133,214.667 287.328,213.045 288.294,212.304 
			288.647,212.116 289.217,211.699 292.554,209.242 293.519,208.501 294.355,207.943 296.462,206.368 296.856,206.045 
			297.209,205.857 297.386,205.763 298.263,205.069 300.417,203.582 301.164,203.071 301.429,202.93 302.482,202.142 
			303.494,201.49 304.418,200.884 305.43,200.232 306.837,199.257 307.19,199.068 309.697,197.394 311.456,196.23 311.809,196.042 
			313.569,194.878 314.01,194.643 316.429,193.015 318.1,191.899 318.1,191.899 318.277,191.805 322.372,189.284 324.532,188.02 
			325.809,187.227 325.985,187.133 326.556,186.716 326.645,186.669 327.439,186.246 330.787,184.236 330.875,184.189 
			330.964,184.142 334.182,182.314 335.106,181.709 335.195,181.662 335.636,181.427 339.29,179.141 340.391,178.442 
			342.856,176.902 343.386,176.62 343.562,176.526 343.78,176.297 345.057,175.503 347.435,174.011 347.741,173.734 
			348.447,173.358 349.724,172.565 350.342,172.236 352.101,171.072 354.478,169.58 355.444,168.839 356.326,168.369 
			357.821,167.346 359.051,166.465 360.24,165.718 360.593,165.53 361.605,164.878 363.406,163.579 363.847,163.344 
			364.771,162.739 366.266,161.716 367.496,160.835 368.243,160.323 368.99,159.812 372.545,157.126 372.633,157.079 
			373.027,156.756 373.292,156.615 374.04,156.103 375.705,154.763 376.452,154.252 377.023,153.835 377.506,153.464 
			381.284,150.772 381.461,150.678 381.678,150.449 381.767,150.402 382.997,149.521 385.327,147.94 385.545,147.71 386.027,147.34 
			386.951,146.735 390.288,144.278 390.288,144.278 390.288,144.278 392.089,142.979 394.678,141.033 394.678,141.033 
			394.678,141.033 397.315,139.176 398.804,137.93 398.892,137.883 399.068,137.789 400.646,136.496 402.965,134.468 
			403.141,134.374 403.488,133.962 405.595,132.387 407.349,131 407.349,131 407.437,130.953 409.062,129.748 411.61,127.938 
			411.698,127.891 414.423,125.987 415.829,125.011 416.094,124.87 416.4,124.594 420.096,122.173 421.019,121.567 421.637,121.238 
			422.473,120.68 424.015,119.745 425.686,118.629 426.392,118.253 427.581,117.506 428.593,116.854 429.211,116.525 
			430.399,115.779 432.871,114.463 435.472,112.964 436.001,112.682 437.06,112.118 437.631,111.701 439.308,110.808 
			440.456,110.197 441.25,109.774 445.258,107.3 445.434,107.206 445.522,107.159 446.67,106.547 449.1,105.367 449.676,105.173 
			450.559,104.703 450.912,104.515 452.107,103.992 453.742,103.234 454.984,102.8 455.866,102.33 458.079,101.378 460.426,100.468 
			461.268,100.133 461.933,99.892 462.686,99.604 464.633,98.794 466.851,98.066 467.075,98.06 467.34,97.919 469.958,97.091 
			471.823,96.551 472.135,96.498 473.2,96.158 474.312,95.905 474.576,95.764 477.065,95.119 478.665,94.72 480.001,94.462 
			481.113,94.21 482.136,94.004 483.16,93.799 484.095,93.641 485.478,93.471 487.125,93.16 489.09,93.02 490.696,92.845 
			493.108,92.693 494.49,92.524 497.573,92.355 497.796,92.349 499.314,92.221 501.455,91.987 501.726,92.069 502.796,91.952 
			505.249,91.666 506.097,91.554 508.238,91.32 509.62,91.151 511.538,90.922 513.768,90.641 515.415,90.331 516.797,90.161 
			517.421,90.055 518.58,89.891 519.827,89.68 521.921,89.358 523.033,89.106 524.281,88.895 525.928,88.584 528.375,88.074 
			529.175,87.874 531.399,87.37 533.617,86.642 534.241,86.536 536.282,85.902 537.035,85.614 537.836,85.415 539.565,84.833 
			540.271,84.457 542.042,83.741 543.372,83.259 545.714,82.125 546.332,81.796 546.773,81.561 549.645,80.145 550.263,79.816 
			551.369,79.341 552.693,78.636 553.528,78.077 555.117,77.231 556.176,76.667 557.718,75.733 558.689,75.216 559.836,74.605 
			560.895,74.041 562.525,73.059 563.673,72.448 565.22,71.737 567.344,70.833 568.098,70.545 568.674,70.351 571.116,69.617 
			571.963,69.506 573.392,69.425 574.563,69.708 576.274,70.156 577.945,70.739 579.168,71.334 582.743,72.942 582.925,73.072 
			583.243,73.242 586.101,74.779 587.054,75.292 588.506,76.104 590.323,77.176 590.552,77.394 591.323,77.777 592.505,78.507 
			592.869,78.766 594.645,79.973 596.738,81.351 597.373,81.692 600.331,83.629 600.466,83.671 600.601,83.712 603.642,85.378 
			604.541,85.579 608.006,86.34 608.229,86.334 608.676,86.323 611.265,86.077 611.977,85.925 615.383,84.45 615.471,84.403 
			615.56,84.356 616.178,84.027 619.043,82.388 619.485,82.153 620.055,81.735 621.509,80.848 622.392,80.378 623.674,79.808 
			625.528,78.821 626.899,78.204 627.74,77.869 628.717,77.576 630.235,77.447 630.458,77.442 633.146,77.596 633.282,77.638 
			633.599,77.808 636.222,78.904 637.945,79.799 638.309,80.058 640.126,81.13 640.72,81.607 642.225,82.731 643.954,83.85 
			645.095,84.715 646.189,85.492 646.735,85.881 650.281,88.071 650.328,88.16 653.744,90.532 654.203,90.968 657.572,93.252 
			657.937,93.511 659.848,94.76 661.347,95.661 661.665,95.831 664.305,97.598 666.163,98.534 667.433,99.217 668.75,99.989 
			671.197,101.178 673.814,102.05 674.361,102.439 678.013,103.553 678.195,103.683 679.007,103.93 681.936,104.75 682.477,104.915 
			686.311,106.158 686.717,106.282 686.988,106.364 687.846,106.7 690.016,107.584 692.057,108.65 692.192,108.691 692.239,108.779 
			694.15,110.028 694.562,110.375 696.161,111.676 696.708,112.064 697.854,113.153 698.177,113.548 698.824,114.336 699.7,115.343 
			700.07,115.825 701.192,117.72 702.039,119.309 702.843,121.033 703.272,122.051 703.477,123.074 703.753,125.08 703.787,126.422 
			703.668,128.751 703.526,130.186 703.119,131.762 702.654,132.803 701.488,134.444 701.27,134.673 699.158,136.025 
			698.099,136.589 697.122,136.882 695.298,137.287 694.851,137.299 694.451,137.398 691.41,137.432 689.933,137.425 
			689.128,137.401 687.692,137.259 686.975,137.188 686.122,137.076 683.557,136.515 682.299,136.279 680.14,135.843 
			677.088,135.429 676.593,135.352 675.876,135.281 672.735,134.915 671.341,134.637 668.476,134.577 666.053,134.281 
			664.488,134.321 662.829,134.185 659.694,134.042 659.288,133.918 658.706,133.888 657.094,133.84 655.794,133.74 
			655.659,133.698 653.777,133.568 653.195,133.538 652.477,133.467 651.177,133.366 650.683,133.289 650.101,133.26 
			648.312,133.306 646.477,133.263 645.089,133.209 643.971,133.238 643.212,133.302 641.071,133.536 640.936,133.495 
			640.936,133.495 640.536,133.595 639.694,133.93 638.853,134.264 638.37,134.635 637.888,135.005 637.582,135.281 
			637.111,136.099 636.816,136.822 636.586,138.304 636.503,138.575 636.643,140.54 637.507,142.799 637.465,142.934 
			638.917,145.447 639.11,146.023 639.44,146.641 641.573,149.584 642.325,150.996 643.942,152.968 644.829,154.421 
			646.868,157.187 646.915,157.275 647.286,157.758 648.679,159.735 649.096,160.306 650.254,161.842 651.229,163.249 
			652.111,164.478 653.228,166.15 654.109,167.38 654.532,168.174 655.878,170.063 656.854,171.47 657.553,172.57 658.341,173.623 
			659.04,174.724 660.11,176.307 661.273,178.066 661.926,179.079 663.042,180.75 663.418,181.456 664.588,183.439 665.005,184.01 
			665.146,184.275 666.315,186.258 666.55,186.699 667.397,188.288 668.154,189.924 668.912,191.559 669.435,192.754 670.11,194.66 
			670.586,195.766 671.173,197.719 671.713,199.585 671.871,200.52 672.481,203.367 672.493,203.814 672.64,204.303 
			672.962,206.397 673.19,208.315 673.254,209.074 673.383,210.591 673.506,211.886 673.558,212.197 673.705,212.686 
			674.144,215.851 674.244,216.251 674.438,216.827 674.749,218.475 675.131,219.404 675.512,220.334 675.883,220.816 
			676.394,221.564 677.394,222.164 677.623,222.382 677.805,222.512 679.293,222.966 679.428,223.007 680.817,223.061 
			682.417,222.662 683.04,222.556 684.147,222.08 685.253,221.605 685.959,221.228 687.371,220.476 688.648,219.683 
			689.354,219.307 690.672,218.378 690.89,218.149 691.461,217.732 692.12,217.268 693.173,216.48 694.886,215.228 695.939,214.44 
			696.599,213.976 699.411,212.025 699.765,211.837 699.853,211.79 699.941,211.743 702.271,210.162 702.978,209.786 
			704.213,209.128 704.478,208.987 705.802,208.282 706.773,207.765 707.879,207.289 709.338,206.625 710.356,206.196 
			711.021,205.955 713.551,205.175 714.128,204.981 714.481,204.793 717.01,204.012 718.522,203.66 720.97,203.15 722.841,202.833 
			723.864,202.628 725.247,202.458 725.647,202.359 727.653,202.083 729.171,201.955 731,201.774 732.83,201.592 734.659,201.411 
			736.936,201.218 737.83,201.195 739.659,201.014 741.089,200.933 741.401,200.88 742.783,200.71 744.477,200.488 744.877,200.388 
			747.372,199.966 748.795,199.661 752.125,198.681 752.437,198.628 752.614,198.534 753.279,198.293 755.938,197.33 
			757.138,197.031 758.462,196.326 760.38,196.097 760.38,196.097 760.38,196.097 762.368,196.851 762.503,196.893 762.732,197.111 
			764.326,198.188 764.649,198.582 765.76,200.03 766.318,200.866 		">
		</polygon>
	</g>
</g>
<g id="Layer_1">
</g>
</svg>
