<?xml version="1.0" encoding="iso-8859-1"?>
<!-- Generator: Adobe Illustrator 19.2.1, SVG Export Plug-In . SVG Version: 6.00 Build 0)  -->
<svg version="1.1" xmlns="http://www.w3.org/2000/svg" xmlns:xlink="http://www.w3.org/1999/xlink" x="0px" y="0px"
	 viewBox="0 0 841.89 595.28" style="enable-background:new 0 0 841.89 595.28;" xml:space="preserve">
<g id="layer257">
	<g id="layer257_1_" slic3r:z="0.000103000000000001">
		<polygon slic3r:type="contour" style="fill:#FFFFFF;stroke:#000000;stroke-miterlimit:10;" points="740.064,115.826 
			740.44,116.532 741.116,118.439 741.351,118.88 741.785,120.121 742.425,122.386 742.624,123.186 743.258,125.228 
			743.317,125.763 743.774,127.899 744.091,129.77 744.714,131.364 745.03,133.235 745.376,134.523 745.799,135.318 
			746.375,136.824 746.597,138.518 747.043,140.207 747.089,141.995 746.542,143.307 746.247,144.03 744.869,146.123 
			744.787,146.394 744.569,146.623 742.185,149.592 742.102,149.863 741.885,150.092 740.901,151.862 740.824,152.356 
			741.1,154.362 741.194,154.539 742.434,155.804 742.757,156.198 742.945,156.551 744.856,157.8 745.268,158.147 745.403,158.188 
			748.049,160.178 748.049,160.178 748.184,160.219 748.367,160.349 750.06,161.826 751.065,162.65 752.394,163.869 
			752.946,164.481 754.051,165.705 755.11,166.841 755.474,167.1 757.543,169.284 757.726,169.413 758.19,170.072 759.207,171.344 
			759.389,171.473 760.735,173.362 760.923,173.715 762.551,176.134 762.692,176.399 764.826,179.341 764.92,179.518 
			765.014,179.694 766.271,181.63 767.112,182.996 767.67,183.831 767.952,184.361 769.603,187.674 769.65,187.762 770.126,188.868 
			771.265,191.433 771.318,191.745 771.706,192.898 772.381,194.805 772.481,195.205 772.767,197.658 772.82,197.97 772.82,197.97 
			772.754,200.611 772.807,200.923 772.688,201.552 772.593,203.075 772.145,204.787 771.939,205.463 771.179,207.227 
			770.543,208.586 770.29,209.174 769.648,210.309 769.389,210.673 767.617,213.09 767.104,214.043 766.203,215.542 
			766.074,215.724 765.203,216.641 764.073,217.923 763.984,217.97 763.855,218.152 763.549,218.429 762.019,219.81 
			761.012,220.686 760.224,221.333 759.653,221.75 756.975,223.742 756.798,223.836 756.71,223.883 753.85,225.746 753.103,226.258 
			750.855,227.568 750.678,227.662 748.56,228.79 747.548,229.442 745.694,230.43 744.9,230.853 743.27,231.834 742.258,232.486 
			740.457,233.785 739.533,234.391 738.656,235.084 736.991,236.424 735.331,237.988 734.76,238.405 734.236,238.911 
			732.535,240.61 730.622,242.762 730.228,243.085 730.01,243.314 729.533,243.908 728.403,245.19 727.402,246.289 725.572,248.17 
			725.007,248.811 724.224,249.681 722.134,251.927 721.393,252.662 719.827,254.402 718.779,255.413 716.902,257.206 
			716.684,257.435 716.684,257.435 714.583,259.234 712.964,260.663 711.652,261.815 710.381,262.832 709.198,263.801 
			708.803,264.125 707.526,264.918 706.12,265.894 705.461,266.358 704.36,267.057 703.26,267.757 700.883,269.249 700,269.719 
			697.976,271.024 696.434,271.958 694.056,273.451 693.88,273.545 693.703,273.639 690.396,275.514 689.867,275.796 
			689.472,276.119 686.43,277.852 685.548,278.322 685.371,278.416 682.199,280.332 681.581,280.661 678.892,282.207 
			678.057,282.765 676.644,283.517 675.103,284.451 674.267,285.01 672.196,286.226 671.272,286.831 669.465,287.907 
			667.57,289.029 665.899,290.146 664.799,290.845 662.115,292.614 661.762,292.802 661.674,292.849 661.586,292.896 
			659.738,294.107 659.473,294.248 657.978,295.27 657.096,295.74 655.954,296.575 655.866,296.622 654.589,297.415 
			652.388,298.814 651.858,299.096 651.594,299.237 650.54,300.025 648.91,301.006 648.204,301.382 646.533,302.499 
			644.815,303.527 643.714,304.226 643.232,304.597 642.131,305.296 641.031,305.995 638.083,307.905 638.083,307.905 
			638.083,307.905 638.083,307.905 635.176,309.68 633.722,310.567 631.298,311.972 630.109,312.718 627.29,314.446 
			626.719,314.863 626.19,315.145 624.648,316.079 623.106,317.014 622.4,317.39 620.329,318.606 619.229,319.306 617.375,320.293 
			617.287,320.34 616.934,320.528 615.345,321.374 613.621,322.179 613.18,322.414 613.091,322.461 612.915,322.555 
			610.791,323.459 608.89,324.358 608.137,324.646 605.925,325.597 603.624,326.596 602.43,327.119 601.9,327.401 601.235,327.642 
			597.34,329.263 597.028,329.316 596.94,329.363 592.733,331.036 591.939,331.46 588.708,332.84 586.496,333.791 584.596,334.69 
			582.295,335.689 581.059,336.347 580.13,336.729 579.777,336.917 577.611,337.957 576.505,338.432 575.622,338.903 
			574.252,339.519 572.133,340.647 571.468,340.888 570.674,341.311 567.579,342.733 565.367,343.685 563.466,344.583 
			559.747,346.111 559.306,346.346 558.065,346.78 555.099,348.019 554.123,348.313 551.334,349.458 550.845,349.605 
			548.362,350.474 546.68,351.144 542.638,352.277 542.55,352.324 542.461,352.371 539.614,352.981 538.237,353.374 
			536.237,353.873 535.349,354.119 534.148,354.418 529.971,355.51 529.883,355.557 529.883,355.557 527.218,356.297 
			525.712,356.872 523.935,357.365 522.646,357.711 522.158,357.858 521.534,357.964 517.534,358.961 517.445,359.008 
			517.357,359.055 514.822,359.613 513.174,359.923 510.951,360.428 510.103,360.539 508.944,360.703 506.715,360.984 
			504.797,361.212 503.815,361.282 501.762,361.469 500.65,361.722 499.132,361.85 496.591,362.184 496.502,362.231 
			493.961,362.565 492.314,362.875 491.331,362.945 489.684,363.256 488.749,363.414 488.125,363.52 486.119,363.795 
			483.983,364.253 483.536,364.264 482.689,364.375 480.907,364.645 479.795,364.897 478.277,365.026 475.606,365.542 
			474.183,365.847 472.4,366.116 471.512,366.363 470.576,366.521 469.152,366.826 467.994,366.99 467.282,367.142 464.081,367.94 
			463.146,368.099 462.522,368.204 458.922,369.102 455.939,369.671 454.692,369.882 452.821,370.198 450.55,370.615 
			449.079,370.831 446.403,371.124 442.879,371.528 442.208,371.545 442.12,371.592 441.761,371.556 438.097,371.695 
			437.385,371.848 436.132,371.835 433.943,371.981 433.943,371.981 433.855,372.028 429.796,372.49 426.855,372.924 
			425.607,373.135 423.384,373.639 421.425,374.003 420.224,374.302 417.242,374.871 413.594,375.68 413.059,375.739 
			411.906,376.126 408.846,377.189 408.446,377.289 407.605,377.624 404.634,378.64 401.933,379.738 400.515,380.267 
			396.261,381.852 396.261,381.852 396.261,381.852 393.56,382.951 392.013,383.661 390.818,384.184 390.112,384.56 
			387.988,385.465 387.9,385.512 387.812,385.559 385.517,386.781 383.569,387.591 380.21,389.154 379.368,389.489 376.408,390.952 
			375.214,391.475 374.861,391.663 372.743,392.791 370.936,393.866 370.012,394.471 369.53,394.842 366.722,397.017 
			366.24,397.387 365.757,397.757 364.092,399.097 362.167,400.802 361.732,401.261 361.555,401.355 359.936,402.783 
			358.106,404.664 357.976,404.846 357.8,404.941 357.67,405.123 355.622,407.233 354.186,408.791 354.056,408.974 353.838,409.203 
			351.961,410.996 350.26,412.695 350.042,412.924 349.565,413.518 347.994,415.035 346.734,416.498 345.21,418.103 
			344.686,418.609 344.297,419.156 343.255,420.39 342.119,421.449 340.948,422.866 339.553,424.288 339.465,424.335 
			339.376,424.382 338.635,425.117 336.628,427.092 336.192,427.551 335.756,428.009 335.144,428.562 333.308,430.22 
			332.349,431.184 331.866,431.554 329.936,433.035 328.005,434.517 327.788,434.746 327.523,434.887 327.393,435.069 
			325.11,436.738 323.797,437.89 323.315,438.261 321.385,439.742 319.543,441.176 319.278,441.317 318.972,441.593 
			318.795,441.687 316.335,443.451 315.282,444.238 314.534,444.749 312.687,445.96 310.974,447.212 310.58,447.535 
			310.097,447.906 307.243,449.992 306.849,450.315 305.707,451.15 304.083,452.355 302.547,453.513 301.888,453.977 
			301.317,454.394 297.539,457.086 296.927,457.639 296.179,458.15 294.025,459.637 292.489,460.795 289.806,462.564 
			287.917,463.91 287.652,464.051 287.434,464.28 285.504,465.761 284.539,466.502 283.574,467.242 280.196,469.834 
			279.801,470.158 279.319,470.528 277.653,471.868 276.906,472.38 275.111,473.902 272.657,475.889 272.351,476.165 
			271.344,477.041 271.215,477.223 270.997,477.452 269.467,478.834 268.372,479.757 267.848,480.262 267.107,480.997 
			265.794,482.149 264.705,483.296 263.175,484.677 260.556,487.205 259.331,488.31 258.631,488.91 257.277,490.197 
			255.571,491.672 255.482,491.719 255.353,491.902 253.293,493.565 251.28,495.317 251.28,495.317 246.984,498.738 
			246.984,498.738 246.984,498.738 245.054,500.219 242.906,501.929 242.335,502.347 238.474,505.309 238.386,505.356 
			234.519,508.095 233.949,508.512 231.442,510.187 229.417,511.492 228.888,511.774 226.816,512.99 224.433,514.259 
			223.462,514.776 221.609,515.763 220.503,516.239 219.885,516.568 217.808,517.561 216.525,518.131 215.948,518.325 
			214.754,518.848 212.936,519.476 211.518,520.004 210.765,520.292 209.7,520.633 208.059,521.167 206.905,521.555 
			206.105,521.754 204.464,522.288 204.375,522.335 202.687,522.781 201.351,523.039 200.063,523.386 199.439,523.491 
			198.416,523.696 196.368,524.107 196.057,524.16 193.962,524.482 193.874,524.529 192.092,524.798 191.333,524.863 
			189.815,524.991 188.209,525.167 187.362,525.278 186.156,525.354 185.532,525.459 184.279,525.447 180.797,525.715 
			180.126,525.732 179.903,525.738 179.367,525.797 176.014,525.883 173.244,525.999 172.797,526.01 171.591,526.086 
			169.044,526.196 168.373,526.213 166.897,526.207 164.75,526.217 163.361,526.163 161.661,526.162 158.708,526.149 
			157.903,526.125 156.785,526.153 154.232,526.04 152.573,525.904 150.826,525.815 147.462,525.454 147.103,525.418 
			146.879,525.424 143.603,525.016 142.303,524.915 141.045,524.679 140.056,524.526 138.168,524.172 135.651,523.699 
			135.381,523.617 135.157,523.623 132.363,522.844 130.922,522.479 128.035,521.524 128.035,521.524 127.946,521.571 
			125.553,520.693 124.241,520.145 123.653,519.892 121.977,519.085 121.16,518.614 117.849,516.865 117.667,516.736 
			117.485,516.606 113.345,513.939 113.028,513.768 109.612,511.395 108.148,510.136 105.496,507.922 105.361,507.881 
			101.927,504.838 101.698,504.62 99.358,502.354 98.394,501.394 97.242,500.082 93.556,495.927 90.887,493.043 89.829,491.907 
			83.598,484.462 82.311,483.108 78.614,478.506 78.385,478.288 75.84,474.998 75.193,474.21 72.554,470.743 71.719,469.602 
			69.586,466.659 69.492,466.483 69.351,466.218 67.723,463.799 67.018,462.475 66.177,461.11 65.044,458.768 64.662,457.839 
			63.375,454.785 63.088,454.032 62.606,452.702 61.978,450.884 61.537,449.419 61.138,447.819 60.886,446.707 60.628,445.371 
			60.382,444.483 60.276,443.859 60.106,442.477 59.972,440.736 59.949,439.842 59.868,438.412 59.874,436.936 59.887,435.683 
			59.941,434.294 60.077,432.636 60.178,431.336 60.337,430.571 60.402,429.63 60.987,426.26 61.14,425.272 61.819,422.078 
			61.972,421.09 62.055,420.819 62.379,419.514 62.987,417.038 63.063,416.543 63.27,415.867 63.676,414.291 64.207,412.309 
			64.372,411.768 65.197,409.062 65.451,408.474 65.734,407.304 66.518,404.734 66.971,403.246 67.101,403.064 67.519,401.934 
			67.891,400.717 68.391,399.317 68.763,398.1 69.146,397.329 70.112,394.889 70.618,393.713 70.571,393.624 70.695,393.219 
			71.626,391.137 72.639,388.785 72.981,388.149 73.146,387.608 74.712,384.168 74.883,383.851 75.137,383.263 76.161,381.357 
			77.31,379.046 77.651,378.411 78.635,376.641 79.447,375.189 79.918,374.371 80.472,373.283 81.073,372.284 81.502,371.602 
			82.274,370.285 83.387,368.332 83.387,368.332 83.34,368.244 84.806,366.104 85.406,365.104 85.836,364.422 86.572,363.464 
			87.349,362.37 88.256,361.094 89.857,358.995 90.464,358.219 92.5,355.661 92.936,355.203 94.849,353.051 96.374,351.446 
			97.592,350.117 99.77,347.825 100.205,347.366 101.253,346.355 102.913,344.791 103.743,344.009 106.015,341.893 107.28,340.653 
			108.375,339.73 109.993,338.301 110.735,337.567 112.4,336.226 114.107,334.751 114.984,334.057 117.262,332.165 117.615,331.977 
			117.656,331.841 120.199,329.808 120.505,329.531 121.075,329.114 122.741,327.774 124.495,326.387 124.977,326.016 
			125.372,325.693 127.214,324.259 128.091,323.565 128.791,322.966 129.627,322.407 131.598,320.791 132.081,320.421 
			132.257,320.327 132.828,319.909 135.329,318.011 135.988,317.547 138.225,315.789 138.578,315.601 138.754,315.507 
			141.432,313.515 142.132,312.915 143.362,312.033 144.987,310.829 146.787,309.53 147.182,309.206 148.894,307.954 
			150.695,306.656 150.913,306.426 152.978,304.986 153.243,304.845 153.637,304.522 155.88,302.988 157.416,301.83 
			158.033,301.501 159.175,300.667 159.658,300.296 163.265,297.922 163.353,297.875 163.353,297.875 163.442,297.828 
			166.737,295.507 167.661,294.901 169.42,293.738 170.433,293.085 171.574,292.251 172.586,291.598 174.128,290.664 
			175.27,289.829 177.159,288.483 178.171,287.831 179.272,287.132 180.725,286.244 181.514,285.598 183.45,284.34 185.604,282.853 
			186.133,282.571 186.704,282.154 188.287,281.084 190,279.832 190.617,279.503 191.1,279.133 192.901,277.834 193.866,277.094 
			194.878,276.441 195.843,275.701 197.25,274.725 199.798,272.915 199.798,272.915 199.798,272.915 201.775,271.522 
			202.74,270.781 203.664,270.176 204.894,269.294 206.518,268.09 207.484,267.349 209.59,265.774 209.767,265.68 209.855,265.633 
			210.82,264.892 213.327,263.217 213.633,262.941 214.075,262.706 217.105,260.525 217.765,260.061 218.906,259.227 
			220.884,257.834 223.255,256.117 223.343,256.07 223.296,255.982 225.45,254.495 225.45,254.495 227.339,253.149 228.964,251.944 
			229.752,251.298 230.717,250.557 231.641,249.952 232.518,249.258 233.572,248.471 234.713,247.636 236.208,246.614 
			237.479,245.597 238.797,244.668 240.333,243.51 240.904,243.093 241.605,242.493 243.099,241.471 243.976,240.777 
			245.559,239.707 247.272,238.456 247.754,238.085 249.29,236.927 251.927,235.07 252.368,234.835 252.586,234.606 253.51,234.001 
			255.664,232.514 256.364,231.914 258.035,230.797 259.353,229.869 261.243,228.523 261.813,228.106 262.384,227.688 
			264.491,226.113 266.115,224.908 266.38,224.767 266.557,224.673 268.575,223.145 269.846,222.128 270.812,221.388 
			272.871,219.724 274.713,218.29 274.89,218.196 275.02,218.014 276.909,216.668 278.268,215.604 278.792,215.098 279.186,214.775 
			281.646,213.012 283.312,211.672 283.488,211.578 283.529,211.442 285.46,209.961 286.513,209.174 287.52,208.298 
			290.762,205.664 291.245,205.294 291.728,204.924 293.699,203.307 294.794,202.384 295.276,202.014 296.112,201.456 
			298.79,199.463 300.149,198.4 300.326,198.305 300.414,198.258 303.139,196.354 304.945,195.279 305.916,194.762 307.37,193.874 
			308.076,193.498 309.882,192.423 311.512,191.442 313.013,190.643 314.16,190.032 314.731,189.614 315.878,189.003 
			319.715,186.847 319.933,186.617 320.109,186.523 322.404,185.301 324.346,184.267 324.699,184.079 326.07,183.462 
			328.365,182.24 328.718,182.052 329.777,181.488 332.649,180.072 334.99,178.938 335.343,178.75 336.403,178.186 337.02,177.857 
			340.157,176.3 341.216,175.736 342.452,175.078 345.005,173.492 345.359,173.303 345.623,173.162 348.224,171.664 
			349.719,170.641 349.719,170.641 349.807,170.594 353.98,167.579 353.98,167.579 354.244,167.438 355.298,166.651 
			356.398,165.951 357.499,165.252 358.158,164.788 358.864,164.412 360.276,163.66 362.436,162.396 363.848,161.644 
			366.667,159.916 367.108,159.681 368.65,158.747 369.132,158.377 369.838,158.001 370.851,157.348 373.452,155.85 
			374.511,155.286 375.082,154.869 378.389,152.994 379.359,152.477 383.284,150.274 383.549,150.133 384.079,149.851 
			384.255,149.757 386.062,148.681 387.774,147.429 387.951,147.335 388.039,147.288 390.199,146.025 392.041,144.591 
			392.57,144.309 392.659,144.262 395.118,142.498 396.26,141.664 396.348,141.617 396.654,141.341 397.049,141.017 
			398.944,139.895 400.609,138.555 401.05,138.32 401.621,137.902 403.34,136.874 404.834,135.851 405.364,135.569 405.805,135.334 
			406.288,134.964 407.435,134.353 409.059,133.148 409.983,132.543 410.86,131.849 412.09,130.968 413.273,129.998 415.25,128.605 
			415.557,128.329 416.174,128 417.581,127.024 418.728,126.413 419.87,125.578 420.882,124.926 421.759,124.232 423.036,123.439 
			425.537,121.541 425.931,121.217 426.108,121.123 428.927,119.396 429.721,118.972 430.292,118.555 432.063,117.839 
			434.093,116.757 434.358,116.616 434.534,116.522 436.705,115.706 438.735,114.625 439.4,114.384 441.654,113.297 
			442.937,112.728 443.778,112.393 444.796,111.964 445.414,111.635 446.343,111.253 447.138,110.83 449.356,110.102 
			450.462,109.626 451.303,109.291 452.857,108.804 455.557,107.706 455.734,107.612 455.91,107.518 456.046,107.559 
			459.776,106.479 460.264,106.332 461.017,106.044 462.17,105.657 464.388,104.929 467.713,103.725 468.554,103.39 470.46,102.715 
			472.72,101.852 473.696,101.558 476.756,100.495 479.503,99.485 480.792,99.139 483.587,98.217 484.251,97.976 484.563,97.924 
			487.405,97.09 490.158,96.303 490.47,96.251 490.782,96.198 493.894,95.447 495.895,94.948 497.495,94.549 500.295,93.851 
			500.383,93.804 500.383,93.804 503.319,93.147 505.543,92.642 506.255,92.49 507.143,92.243 508.608,91.803 510.208,91.404 
			511.497,91.058 512.162,90.817 515.533,89.701 516.11,89.507 516.951,89.173 519.304,88.486 520.769,88.046 523.07,87.047 
			523.382,86.994 525.682,85.996 528.554,84.58 528.554,84.58 528.642,84.533 530.943,83.534 532.625,82.865 532.714,82.818 
			534.708,82.095 535.461,81.807 537.591,81.126 540.863,79.611 541.039,79.517 541.127,79.47 544.716,78.125 544.805,78.078 
			548.141,77.321 548.229,77.274 548.717,77.127 550.853,76.67 551.253,76.57 553.077,76.165 554.012,76.007 556.906,75.485 
			557.753,75.374 559.271,75.245 559.895,75.14 561.46,75.1 563.295,75.142 563.877,75.172 565.042,75.231 567.148,75.356 
			567.595,75.345 567.953,75.38 568.583,75.498 571.365,75.829 573.071,76.054 574.418,76.243 576.388,76.326 577.018,76.444 
			579.523,76.47 581.047,76.565 583.776,76.584 583.912,76.625 586.464,76.738 587.359,76.715 589.417,76.752 590.582,76.812 
			593.317,77.054 593.899,77.084 594.617,77.155 596.729,77.504 597.629,77.704 598.528,77.905 599.658,78.323 601.551,78.901 
			602.139,79.154 604.309,80.038 604.492,80.167 606.803,81.316 606.985,81.445 607.849,82.004 610.078,83.423 610.625,83.812 
			612.218,84.889 613.859,86.055 614.723,86.615 617.716,88.193 618.169,88.405 618.663,88.482 622.045,89.513 623.033,89.667 
			624.515,89.897 625.862,90.086 627.121,90.322 628.603,90.552 629.591,90.706 631.75,91.143 632.873,91.337 633.414,91.502 
			635.984,92.286 637.425,92.652 639.319,93.229 641.119,93.631 642.966,94.12 644.583,94.392 645.571,94.545 646.918,94.734 
			648.259,94.7 650.095,94.742 650.453,94.777 650.765,94.725 652.554,94.679 655.271,94.251 655.407,94.292 658.742,93.535 
			658.831,93.488 658.966,93.53 659.543,93.336 663.055,92.485 663.455,92.385 664.255,92.186 666.608,91.499 667.809,91.2 
			668.473,90.959 669.362,90.712 670.25,90.466 671.274,90.261 672.651,89.867 673.451,89.668 674.521,89.551 676.657,89.093 
			677.816,88.929 678.751,88.771 679.598,88.66 679.957,88.695 681.522,88.655 682.375,88.767 682.598,88.762 682.734,88.803 
			684.898,89.463 685.439,89.628 687.109,90.212 687.921,90.459 690.079,90.896 690.35,90.978 690.532,91.108 692.479,91.997 
			693.967,92.451 695.096,92.869 696.719,93.364 697.713,93.741 699.066,94.154 700.554,94.608 701.23,94.814 704.335,95.54 
			705.506,95.823 706.811,96.147 707.711,96.348 708.97,96.584 711.129,97.02 711.264,97.062 711.446,97.191 713.834,97.845 
			714.375,98.01 714.916,98.175 717.304,98.83 718.298,99.207 719.698,99.708 721.238,100.473 722.508,101.157 725.225,102.429 
			725.678,102.641 726.36,103.071 728.677,104.443 730.218,105.208 730.582,105.467 731.129,105.856 732.087,106.592 
			732.499,106.939 733.916,108.111 734.469,108.723 737.085,111.295 737.179,111.471 737.267,111.424 737.314,111.513 
			738.895,113.843 739.97,115.65 		">
		</polygon>
		<polygon slic3r:type="hole" style="stroke:#000000;stroke-miterlimit:10;" points="669.738,197.577 669.232,197.054 
			668.962,196.971 667.344,196.7 667.121,196.705 666.762,196.67 665.244,196.798 663.821,197.103 663.373,197.115 661.555,197.743 
			660.802,198.031 659.608,198.554 658.725,199.024 658.372,199.212 657.401,199.729 656.124,200.522 654.677,201.633 
			653.582,202.556 652.269,203.708 651.922,204.12 651.139,204.99 650.533,205.766 649.709,206.771 649.202,207.947 
			649.037,208.488 648.889,209.7 649.183,210.677 649.23,210.765 649.612,211.695 649.794,211.824 650.617,212.519 652.329,212.967 
			652.781,213.179 653.14,213.214 653.811,213.197 655.734,213.192 656.534,212.993 658.67,212.535 658.758,212.488 
			658.758,212.488 658.758,212.488 661.5,211.255 661.765,211.114 663.925,209.85 664.101,209.756 664.89,209.11 666.467,207.817 
			666.861,207.493 667.385,206.988 668.692,205.612 669.646,204.424 670.199,203.337 670.741,201.802 670.824,201.531 
			671.236,200.178 671.137,199.778 670.984,199.066 670.696,198.313 		">
		</polygon>
	</g>
</g>
<g id="Layer_1">
</g>
</svg>
