<?xml version="1.0" encoding="iso-8859-1"?>
<!-- Generator: Adobe Illustrator 19.2.1, SVG Export Plug-In . SVG Version: 6.00 Build 0)  -->
<svg version="1.1" xmlns="http://www.w3.org/2000/svg" xmlns:xlink="http://www.w3.org/1999/xlink" x="0px" y="0px"
	 viewBox="0 0 841.89 595.28" style="enable-background:new 0 0 841.89 595.28;" xml:space="preserve">
<g id="layer240">
	<g id="layer240_1_" slic3r:z="9.62000000000008e-005">
		<polygon slic3r:type="contour" style="fill:#FFFFFF;stroke:#000000;stroke-miterlimit:10;" points="769.867,197.956 
			770.783,200.527 770.93,201.015 770.93,201.015 771.077,201.504 771.64,204.263 771.604,204.622 771.644,206.187 771.696,208.198 
			771.713,208.869 771.618,210.392 771.418,211.292 771.223,212.416 770.857,213.857 769.862,216.88 769.531,217.962 
			769.366,218.503 768.995,219.72 767.982,222.073 767.558,222.978 766.286,225.695 765.95,226.554 765.649,227.053 
			764.831,228.282 764.054,229.376 763.194,230.74 762.635,231.605 762.376,231.969 760.951,233.974 759.997,235.162 
			759.262,236.12 758.137,237.625 757.225,238.678 755.712,240.73 755.623,240.777 755.623,240.777 753.969,242.564 
			753.016,243.752 751.927,244.898 750.19,246.956 749.884,247.232 749.755,247.414 747.271,249.983 747.271,249.983 
			747.182,250.03 745.352,251.912 744.269,253.282 743.657,253.834 743.398,254.199 741.479,256.127 740.996,256.497 
			739.472,258.102 739.207,258.243 738.989,258.473 737.376,260.125 736.676,260.724 735.411,261.964 734.887,262.47 
			733.704,263.44 732.391,264.592 730.643,266.203 729.99,266.891 728.983,267.766 728.895,267.813 727.706,268.56 726.3,269.535 
			725.376,270.141 723.658,271.169 722.075,272.239 721.192,272.709 718.279,274.26 718.191,274.307 718.103,274.354 
			715.673,275.535 714.343,276.016 712.66,276.686 710.754,277.361 708.889,277.901 708.048,278.236 705.871,278.829 
			704.718,279.216 704.006,279.369 702.629,279.762 701.782,279.873 700.805,280.167 698.628,280.76 697.517,281.012 
			695.34,281.605 693.698,282.139 692.057,282.673 691.568,282.82 689.927,283.354 688.862,283.695 685.496,285.034 685.32,285.128 
			685.232,285.175 684.479,285.463 681.337,286.796 680.807,287.078 680.054,287.366 677.182,288.782 675.682,289.581 
			674.487,290.104 672.987,290.903 671.398,291.749 670.251,292.36 668.044,293.535 666.238,294.611 665.267,295.128 
			663.107,296.391 662.136,296.908 661.389,297.419 658.57,299.147 658.305,299.288 658.129,299.382 654.692,301.439 
			654.604,301.486 654.339,301.627 651.738,303.125 650.815,303.731 648.92,304.853 647.29,305.834 646.189,306.534 
			645.089,307.233 644.341,307.744 641.652,309.29 640.858,309.713 638.304,311.299 637.863,311.535 637.421,311.77 635.174,313.08 
			634.203,313.597 634.114,313.644 633.585,313.926 631.466,315.054 630.272,315.577 629.125,316.188 628.507,316.517 
			626.518,317.463 625.765,317.751 625.588,317.845 621.787,319.642 621.169,319.971 621.169,319.971 621.169,319.971 
			616.345,321.974 616.256,322.021 615.238,322.45 612.138,323.648 611.826,323.701 611.473,323.889 607.884,325.234 
			607.131,325.522 606.289,325.856 604.471,326.485 603.365,326.961 602.3,327.301 601.235,327.642 599.376,328.405 
			597.646,328.987 596.805,329.321 595.787,329.75 594.457,330.232 592.863,330.854 591.668,331.377 591.003,331.618 
			589.632,332.235 587.42,333.186 585.826,333.809 583.125,334.907 581.001,335.812 578.877,336.716 575.735,338.05 
			574.582,338.437 570.463,340.064 570.286,340.158 570.286,340.158 566.297,341.603 565.232,341.943 562.126,342.918 
			561.061,343.258 560.173,343.505 556.972,344.303 556.796,344.397 556.484,344.45 553.372,345.201 552.26,345.453 
			549.189,346.069 546.606,346.538 545.094,346.89 542.688,347.265 540.641,347.675 540.105,347.734 538.858,347.945 
			537.434,348.25 536.811,348.355 534.628,348.725 532.181,349.235 531.957,349.241 531.734,349.246 528.351,349.915 
			527.327,350.12 524.833,350.542 524.609,350.548 524.433,350.642 521.803,351.023 520.333,351.239 518.327,351.515 
			518.103,351.52 517.879,351.526 515.962,351.754 514.22,351.889 511.944,352.081 511.32,352.187 510.203,352.216 508.638,352.256 
			507.791,352.367 506.002,352.413 503.679,352.518 503.232,352.529 502.202,352.511 500.191,352.562 499.208,352.632 
			496.214,352.754 495.543,352.771 494.785,352.836 492.326,352.899 491.432,352.922 488.349,353.091 487.184,353.031 
			486.29,353.054 482.937,353.14 481.908,353.122 480.478,353.203 478.467,353.255 477.62,353.366 474.537,353.535 471.008,353.715 
			470.249,353.78 469.043,353.855 466.407,354.013 465.737,354.03 464.131,354.205 462.343,354.251 461.048,354.374 459.26,354.42 
			457.919,354.454 455.101,354.482 453.76,354.517 452.148,354.469 450.042,354.344 447.801,354.178 447.307,354.101 
			445.466,353.835 444.884,353.805 444.613,353.723 441.784,353.303 440.526,353.067 437.473,352.654 437.114,352.618 
			436.261,352.506 433.614,352.216 432.761,352.104 428.274,351.548 427.78,351.471 427.603,351.565 426.974,351.447 
			424.15,351.251 422.091,351.215 420.568,351.12 420.256,351.173 419.897,351.137 418.603,351.26 416.774,351.441 415.079,351.664 
			412.408,352.18 411.92,352.326 411.161,352.391 408.314,353.001 405.825,353.646 405.025,353.846 402.937,354.392 401.03,355.067 
			399.212,355.695 398.059,356.083 395.047,357.234 394.117,357.616 392.922,358.138 391.151,358.855 388.098,360.141 
			387.656,360.376 385.932,361.181 383.855,362.174 383.149,362.55 381.384,363.49 378.913,364.806 378.648,364.947 
			378.206,365.182 375.823,366.451 374.411,367.204 373.087,367.909 372.075,368.561 369.868,369.736 367.621,371.046 
			366.255,371.887 365.373,372.357 363.566,373.432 362.948,373.761 362.507,373.996 360.789,375.025 357.929,376.888 
			357.752,376.982 357.576,377.076 357.27,377.352 354.68,379.297 353.586,380.22 351.531,382.107 349.919,383.759 348.959,384.723 
			347.517,386.058 346.776,386.793 345.687,387.939 345.251,388.398 344.816,388.856 341.89,391.66 341.325,392.301 340.407,393.13 
			339.142,394.37 338.488,395.058 336.222,397.398 335.875,397.81 335.045,398.591 334.698,399.003 333.391,400.379 
			331.825,402.119 330.783,403.353 330.477,403.63 329.347,404.911 327.787,406.875 327.481,407.151 325.744,409.209 
			324.744,410.309 324.22,410.814 323.484,411.773 323.225,412.137 321.012,414.789 320.146,415.929 318.851,417.752 
			318.074,418.846 317.514,419.71 315.006,423.085 314.659,423.497 314.441,423.726 313.276,425.366 312.234,426.601 
			311.457,427.695 310.715,428.43 310.15,429.07 308.678,430.987 308.113,431.628 307.071,432.863 305.811,434.327 304.687,435.832 
			304.251,436.29 303.816,436.749 301.856,438.812 301.508,439.224 301.291,439.453 301.12,439.771 300.943,439.865 299.03,442.017 
			297.553,443.71 297.423,443.892 297.205,444.121 296.252,445.309 294.339,447.461 294.168,447.778 292.908,449.242 
			291.648,450.706 290.736,451.759 289.518,453.087 288.517,454.187 287.822,455.01 287.216,455.786 286.127,456.932 
			284.997,458.214 284.52,458.808 283.649,459.725 281.3,462.335 280.17,463.617 279.646,464.122 278.952,464.945 277.339,466.597 
			276.468,467.515 276.12,467.926 275.596,468.432 275.249,468.843 274.16,469.99 272.854,471.365 271.288,473.105 269.286,475.304 
			269.027,475.669 268.462,476.31 267.026,477.868 266.067,478.832 265.719,479.243 263.453,481.583 262.67,482.453 
			262.364,482.729 262.058,483.006 260.357,484.705 258.309,486.815 258.221,486.862 258.179,486.998 254.377,490.495 
			254.289,490.542 254.071,490.772 253.459,491.324 251.275,493.393 250.881,493.717 250.487,494.04 248.127,496.203 
			246.508,497.632 245.543,498.372 244.843,498.972 244.231,499.524 243.395,500.083 241.641,501.47 240.982,501.934 
			240.764,502.163 239.358,503.139 238.216,503.974 237.863,504.162 235.927,505.419 235.044,505.889 232.443,507.388 
			232.09,507.576 230.455,508.334 229.084,508.95 228.819,509.091 225.853,510.331 223.376,511.423 222.623,511.711 
			221.735,511.958 219.299,512.915 217.834,513.355 215.616,514.083 213.839,514.576 210.686,515.463 210.021,515.703 
			206.108,516.654 206.02,516.701 205.396,516.807 202.414,517.375 201.837,517.569 201.214,517.675 199.255,518.038 
			199.208,517.95 197.56,518.261 194.707,518.647 194.484,518.653 194.437,518.565 194.172,518.706 191.536,518.863 
			189.795,518.997 188.501,519.12 184.971,519.3 184.883,519.347 184.748,519.306 181.083,519.445 180.142,519.379 176.924,519.507 
			176.03,519.53 175.671,519.494 172.271,519.492 171.512,519.557 170.571,519.491 168.96,519.443 167.348,519.395 165.424,519.4 
			163.048,519.193 161.883,519.133 159.06,518.937 158.613,518.949 155.654,518.712 154.889,518.552 152.513,518.345 
			151.66,518.233 150.896,518.073 148.472,517.778 145.731,517.311 145.731,517.311 145.731,517.311 142.585,516.721 
			141.414,516.438 139.209,515.913 137.903,515.589 136.686,515.218 133.486,514.316 133.439,514.227 133.351,514.274 
			133.169,514.145 129.828,512.978 129.422,512.854 128.293,512.436 126.711,511.806 126.123,511.552 124.312,510.704 
			123.453,510.368 122.318,509.727 121.866,509.515 120.278,508.661 118.596,507.63 118.414,507.501 118.096,507.33 116.55,506.341 
			113.998,504.527 112.998,503.927 109.077,501.03 107.066,499.382 103.773,496.604 103.133,496.038 102.445,495.385 
			99.517,492.866 97.636,491.035 97.083,490.423 94.926,488.286 92.633,486.109 88.359,481.7 85.743,479.128 85.143,478.427 
			82.251,475.549 81.928,475.155 78.53,471.753 78.112,471.182 76.596,469.611 75.308,468.257 74.985,467.862 73.557,466.244 
			73.233,465.85 72.399,464.708 71.929,463.825 71.182,462.637 69.49,459.459 69.396,459.283 69.349,459.194 67.775,455.388 
			67.246,453.97 66.665,452.24 66.219,450.551 65.973,449.663 65.457,446.992 65.451,446.768 65.217,444.627 64.994,442.933 
			64.947,442.845 64.942,442.621 64.808,439.18 64.744,438.421 64.768,437.615 64.805,435.556 64.787,434.886 64.954,432.645 
			65.043,430.898 65.215,428.88 65.362,427.668 65.386,426.863 65.611,425.157 65.753,423.722 65.912,422.957 65.972,421.792 
			66.249,420.398 66.716,417.657 66.952,416.399 67.542,413.252 68.061,410.823 68.586,408.617 69.187,405.918 69.435,405.106 
			69.924,403.259 70.502,401.366 70.797,400.642 71.044,399.831 71.462,398.702 71.834,397.484 72.959,394.279 73.171,393.826 
			73.254,393.556 74.768,389.803 74.897,389.621 74.98,389.351 76.552,386.134 77.483,384.052 77.866,383.282 78.632,381.741 
			79.226,380.518 79.527,380.018 80.675,377.707 81.953,375.214 82.254,374.714 82.595,374.079 83.667,372.262 84.821,370.174 
			84.992,369.857 86.317,367.452 87.129,365.999 88.119,364.453 88.76,363.318 90.527,360.678 90.656,360.496 90.915,360.131 
			92.77,357.444 93.594,356.439 95.195,354.339 97.191,351.917 97.45,351.553 97.927,350.959 99.622,349.036 100.317,348.213 
			101.712,346.79 102.842,345.509 104.019,344.315 105.285,343.075 106.073,342.428 107.515,341.094 110.223,338.519 
			110.529,338.243 110.57,338.108 110.835,337.967 112.542,336.491 112.848,336.215 113.548,335.615 114.601,334.828 
			115.26,334.363 116.532,333.347 118.462,331.865 119.251,331.219 119.733,330.849 121.269,329.691 122.234,328.95 
			122.893,328.486 123.988,327.563 124.647,327.099 125.789,326.264 127.896,324.689 128.072,324.595 128.161,324.548 
			128.378,324.318 131.015,322.461 132.992,321.068 133.21,320.839 135.758,319.029 136.594,318.471 138.877,316.801 
			139.36,316.431 141.513,314.944 141.513,314.944 141.513,314.944 141.602,314.897 144.415,312.946 144.544,312.764 
			144.809,312.623 147.492,310.854 148.24,310.342 150.529,308.897 151.671,308.062 152.812,307.227 153.56,306.716 
			154.837,305.923 155.802,305.182 157.079,304.389 159.015,303.131 160.203,302.385 161.039,301.827 163.587,300.016 
			164.688,299.317 166.182,298.294 166.488,298.018 168.118,297.037 168.601,296.667 170.231,295.685 172.65,294.057 
			173.132,293.687 173.485,293.499 176.563,291.407 177.093,291.125 178.281,290.378 179.205,289.773 180.788,288.703 
			181.183,288.38 182.724,287.446 184.131,286.47 186.508,284.977 187.385,284.284 190.11,282.38 190.639,282.098 190.816,282.004 
			190.945,281.821 193.582,279.964 194.064,279.594 196.177,278.242 196.265,278.195 199.031,276.156 199.649,275.827 
			200.438,275.18 202.109,274.063 203.162,273.276 205.581,271.648 206.852,270.631 207.6,270.12 209.618,268.591 210.101,268.221 
			210.319,267.992 212.69,266.276 214.097,265.3 215.762,263.96 216.639,263.266 217.516,262.573 218.705,261.826 219.846,260.992 
			220.988,260.157 221.777,259.511 223.883,257.935 224.454,257.518 226.037,256.449 227.002,255.708 228.668,254.368 
			229.592,253.762 230.469,253.069 232.576,251.494 233.146,251.076 234.682,249.918 235.43,249.407 237.448,247.879 
			238.019,247.462 238.414,247.138 241.133,245.011 241.527,244.687 241.615,244.64 241.703,244.593 244.158,242.607 
			246.088,241.125 246.7,240.573 247.053,240.385 249.419,238.445 249.684,238.304 249.684,238.304 249.725,238.169 
			251.832,236.594 252.709,235.9 254.639,234.419 255.122,234.049 255.386,233.908 257.011,232.703 257.887,232.009 
			258.152,231.868 259.824,230.751 262.849,228.347 262.849,228.347 262.937,228.3 265.791,226.214 266.803,225.562 
			267.945,224.727 270.316,223.011 271.282,222.27 272.512,221.389 272.729,221.159 273.388,220.695 274.707,219.766 
			275.719,219.114 276.466,218.603 278.091,217.398 279.85,216.234 280.597,215.723 281.739,214.888 283.628,213.542 284.64,212.89 
			285.211,212.473 285.517,212.196 288.901,209.828 289.425,209.322 292.809,206.954 292.938,206.772 293.026,206.725 
			294.256,205.843 296.498,204.309 297.464,203.568 298.388,202.963 299.264,202.27 300.63,201.429 301.554,200.824 
			302.872,199.895 303.048,199.801 305.732,198.032 307.315,196.963 307.709,196.639 309.251,195.705 309.998,195.194 
			310.216,194.964 312.152,193.707 313.823,192.59 314.265,192.355 315.012,191.844 316.818,190.768 318.537,189.74 
			321.708,187.824 322.503,187.401 322.768,187.26 323.562,186.837 326.557,185.016 326.91,184.828 327.44,184.546 330.176,183.088 
			331.235,182.524 331.5,182.383 331.588,182.336 333.001,181.584 335.378,180.092 335.554,179.998 336.437,179.527 
			337.096,179.063 339.65,177.476 341.192,176.542 341.192,176.542 341.28,176.495 343.881,174.997 346.082,173.598 
			347.535,172.711 348.106,172.293 348.901,171.87 350.748,170.66 352.378,169.678 353.92,168.744 354.979,168.18 355.462,167.81 
			356.651,167.063 360.128,164.871 360.699,164.454 360.876,164.36 362.241,163.52 364.789,161.709 365.142,161.521 
			365.319,161.427 367.779,159.664 369.226,158.553 369.315,158.506 369.403,158.459 372.693,155.914 373.57,155.221 
			373.57,155.221 373.57,155.221 373.658,155.174 376.694,153.217 377.836,152.382 378.013,152.288 378.101,152.241 
			382.102,149.543 382.673,149.126 383.774,148.427 385.357,147.357 386.281,146.752 387.599,145.823 389.358,144.66 
			390.588,143.778 391.03,143.543 391.818,142.896 393.354,141.739 394.408,140.951 394.89,140.581 396.073,139.611 398.003,138.13 
			399.145,137.295 399.539,136.972 400.416,136.278 403.353,133.921 403.53,133.827 403.571,133.692 404.624,132.904 
			406.331,131.429 407.649,130.5 408.044,130.177 408.832,129.53 410.68,128.32 411.516,127.761 412.087,127.344 413.452,126.504 
			415.429,125.111 416.135,124.735 417.542,123.759 418.024,123.389 420.402,121.896 420.708,121.62 422.644,120.362 
			422.773,120.18 423.215,119.945 424.709,118.922 426.993,117.253 428.311,116.325 428.929,115.996 429.676,115.484 
			431.836,114.221 433.16,113.516 434.566,112.54 435.884,111.612 436.455,111.194 437.42,110.454 438.209,109.807 440.139,108.326 
			440.622,107.956 441.675,107.168 443.476,105.869 444.712,105.211 445.283,104.794 445.853,104.376 447.007,103.989 
			450.137,102.208 450.272,102.25 450.361,102.203 450.361,102.203 454.297,100.446 454.474,100.352 455.803,99.871 458.727,98.767 
			460.81,97.997 462.181,97.38 462.181,97.38 463.381,97.081 465.817,96.124 466.394,95.93 467.459,95.59 468.7,95.155 
			470.342,94.621 470.565,94.615 471.054,94.468 472.966,94.016 473.277,93.964 473.501,93.958 473.989,93.811 476.348,93.348 
			477.907,93.084 478.307,92.984 480.314,92.709 481.249,92.551 483.567,92.223 484.502,92.065 485.661,91.901 486.69,91.919 
			487.002,91.866 488.12,91.837 489.861,91.703 491.514,91.616 493.302,91.57 494.285,91.5 496.161,91.407 497.279,91.378 
			497.726,91.367 501.432,91.093 501.432,91.093 501.52,91.046 505.315,90.724 505.715,90.625 507.185,90.408 508.568,90.238 
			509.327,90.174 511.109,89.904 512.357,89.693 514.804,89.183 516.586,88.914 518.275,88.468 520.234,88.104 521.922,87.658 
			524.058,87.2 526.1,86.566 526.276,86.472 526.588,86.42 528.453,85.88 530.671,85.152 531.112,84.917 533.907,83.995 
			535.278,83.378 537.049,82.661 538.155,82.186 542.045,80.341 542.221,80.247 542.309,80.2 542.662,80.012 546.152,78.267 
			546.946,77.844 548.317,77.227 548.758,76.992 550.212,76.105 551.183,75.588 552.018,75.029 554.313,73.807 554.843,73.525 
			555.196,73.337 556.079,72.867 558.109,71.786 559.65,70.852 560.445,70.429 561.063,70.099 563.404,68.966 564.687,68.396 
			566.146,67.732 567.211,67.391 568.235,67.186 569.888,67.099 570.694,67.123 571.229,67.064 574.006,67.172 574.811,67.196 
			574.947,67.237 578.723,67.946 578.993,68.028 579.264,68.111 581.428,68.771 581.922,68.847 583.957,69.69 583.957,69.69 
			586.127,70.574 587.662,71.116 588.979,71.887 590.796,72.959 592.207,73.907 594.077,75.29 595.765,76.544 595.853,76.497 
			597.493,77.663 599.716,78.858 600.986,79.541 604.285,80.843 604.556,80.926 605.185,81.044 607.073,81.398 608.014,81.463 
			609.179,81.523 612.121,81.089 613.186,80.749 614.962,80.256 615.715,79.968 616.869,79.581 617.357,79.434 618.863,78.858 
			620.146,78.288 622.011,77.748 623.564,77.261 623.652,77.214 623.788,77.255 625.211,76.95 626.506,76.828 628.065,76.564 
			630.165,76.465 630.253,76.418 630.388,76.459 631.47,76.789 632.235,76.949 632.735,77.249 634.816,78.18 635.722,78.604 
			636.904,79.334 637.222,79.505 638.58,80.141 639.668,80.694 641.12,81.507 642.12,82.108 642.937,82.579 643.755,83.05 
			645.025,83.733 646.754,84.852 647.571,85.323 648.388,85.794 650.346,87.13 652.205,88.067 653.839,89.009 655.286,89.598 
			657.415,90.617 658.497,90.947 661.479,92.078 661.749,92.161 661.884,92.202 662.561,92.408 664.996,93.151 666.078,93.481 
			668.236,93.918 669.766,94.236 671.513,94.326 672.724,94.473 674.96,94.416 677.018,94.452 679.107,93.907 679.419,93.854 
			681.331,93.402 682.266,93.244 683.513,93.033 684.849,92.775 684.984,92.816 686.149,92.876 686.643,92.952 688.037,93.23 
			688.037,93.23 688.172,93.271 691.065,94.449 691.565,94.75 692.606,95.215 694.464,96.151 695.87,96.876 696.869,97.476 
			699.092,98.672 699.498,98.796 701.45,99.908 701.903,100.121 703.361,101.157 704.043,101.587 705.049,102.411 705.872,103.105 
			707.195,104.1 708.247,105.013 709.341,105.79 710.987,107.179 711.581,107.656 712.451,108.439 713.004,109.051 713.879,110.057 
			714.661,110.887 714.896,111.328 715.549,112.341 716.201,113.353 717.282,115.383 717.946,116.842 718.657,118.39 
			719.039,119.319 719.526,120.872 720.096,122.155 720.242,122.643 720.671,123.661 721.341,125.344 722.21,127.827 
			722.498,128.58 722.656,129.516 723.002,130.804 723.454,132.716 723.606,133.428 723.659,133.74 723.671,134.187 
			724.339,137.569 724.345,137.793 725.096,140.905 725.619,142.1 727.587,145.583 727.869,146.113 729.668,148.214 
			730.038,148.696 730.085,148.785 731.608,150.58 732.889,151.71 735.229,153.976 735.317,153.929 735.364,154.017 
			737.345,156.248 738.221,157.254 739.062,158.62 740.225,160.379 740.695,161.262 740.848,161.974 741.517,163.656 
			741.476,163.792 741.469,165.268 740.58,167.215 740.586,167.438 740.409,167.532 740.056,167.72 737.726,169.301 
			735.337,170.347 734.319,170.776 733.078,171.21 731.124,171.797 728.589,172.354 727.653,172.513 724.977,172.805 
			723.906,172.922 723.682,172.928 723.188,172.851 721.218,172.768 720.006,172.62 719.6,172.496 718.295,172.172 717.753,172.007 
			716.936,171.536 715.984,171.023 714.349,170.081 714.12,169.863 712.838,168.733 712.473,168.474 712.285,168.121 
			710.539,166.332 709.752,165.278 707.912,163.312 706.536,162.006 705.754,161.176 704.931,160.481 704.29,159.916 
			703.514,159.31 702.603,158.662 701.785,158.191 700.01,156.984 698.016,156.006 697.246,155.624 694.799,154.434 
			694.664,154.393 692.947,153.721 691.906,153.256 691.818,153.303 689.513,152.378 688.113,151.877 687.166,151.588 
			686.848,151.417 684.19,150.68 683.331,150.345 681.302,149.726 679.95,149.313 678.685,148.853 677.921,148.694 676.839,148.364 
			676.162,148.158 674.315,147.668 674.18,147.627 673.91,147.545 671.975,147.102 669.857,146.53 669.004,146.418 667.746,146.182 
			666.575,145.899 663.699,145.391 663.476,145.397 663.476,145.397 663.252,145.403 660.252,145.301 659.311,145.236 
			657.575,145.594 656.822,145.881 656.475,146.293 655.698,147.387 655.45,148.198 655.308,149.633 655.519,150.881 
			655.813,151.857 656.229,154.128 656.752,155.322 657.392,157.588 658.055,159.047 658.59,160.688 659.348,162.324 
			659.63,162.854 660.053,163.648 660.476,164.442 661.357,165.672 662.104,166.861 663.45,168.75 663.497,168.838 663.497,168.838 
			664.701,170.463 665.254,171.075 666.365,172.522 667.335,173.705 668.628,175.283 669.087,175.718 669.369,176.248 
			670.662,177.825 671.543,179.055 672.513,180.238 673.119,181.162 673.671,181.774 674.506,182.916 675.816,185.163 
			675.91,185.34 675.957,185.428 677.267,187.676 677.596,188.294 678.683,190.548 678.83,191.036 679.065,191.477 679.887,193.872 
			680.087,194.672 680.55,197.031 680.609,197.566 680.942,200.108 680.699,202.843 680.711,203.29 680.67,203.425 680.462,205.802 
			680.339,206.207 680.144,207.331 679.842,209.531 679.801,209.666 679.76,209.801 679.76,209.801 679.429,212.583 
			679.334,214.107 679.174,214.871 679.085,216.618 679.008,217.112 679.014,217.336 679.061,217.424 679.154,219.301 
			679.254,219.701 679.489,220.142 679.724,220.584 680.047,220.978 680.318,221.06 680.812,221.137 680.947,221.178 
			681.529,221.208 682.283,220.92 682.506,220.915 682.771,220.774 684.183,220.022 684.801,219.692 686.119,218.764 
			686.119,218.764 686.296,218.67 687.39,217.747 687.785,217.424 688.267,217.053 689.403,215.995 689.662,215.631 
			690.404,214.896 691.493,213.749 691.975,213.379 692.982,212.503 694.112,211.222 695.248,210.164 696.166,209.335 
			697.614,208.224 698.138,207.718 698.838,207.119 700.374,205.961 701.521,205.35 703.587,203.91 704.87,203.34 706.417,202.629 
			706.682,202.488 708.229,201.777 709.871,201.243 711.648,200.75 712.224,200.556 713.689,200.116 715.56,199.799 
			717.296,199.442 718.278,199.372 720.414,198.914 721.308,198.891 722.02,198.739 724.255,198.681 725.726,198.464 
			726.62,198.441 728.585,198.301 731.132,198.191 731.938,198.215 735.738,198.118 735.738,198.118 735.738,198.118 
			739.267,197.937 740.473,197.862 743.373,197.563 743.956,197.593 744.444,197.446 747.474,196.966 750.321,196.356 
			750.409,196.309 750.586,196.215 752.804,195.487 754.222,194.958 755.016,194.535 756.211,194.012 756.652,193.777 
			757.888,193.119 759.123,192.461 759.653,192.179 760.006,191.991 762.189,191.622 762.5,191.569 762.859,191.605 
			764.847,192.359 766.211,193.219 766.576,193.478 766.805,193.695 767.722,194.566 768.186,195.226 769.397,197.073 
			769.726,197.691 		">
		</polygon>
	</g>
</g>
<g id="Layer_1">
</g>
</svg>
