<?xml version="1.0" encoding="iso-8859-1"?>
<!-- Generator: Adobe Illustrator 19.2.1, SVG Export Plug-In . SVG Version: 6.00 Build 0)  -->
<svg version="1.1" xmlns="http://www.w3.org/2000/svg" xmlns:xlink="http://www.w3.org/1999/xlink" x="0px" y="0px"
	 viewBox="0 0 841.89 595.28" style="enable-background:new 0 0 841.89 595.28;" xml:space="preserve">
<g id="layer263">
	<g id="layer263_1_" slic3r:z="0.000105400000000001">
		<polygon slic3r:type="contour" style="fill:#FFFFFF;stroke:#000000;stroke-miterlimit:10;" points="739.064,116.925 
			739.457,118.302 740.085,120.12 740.661,121.626 740.883,123.321 740.93,123.409 741.153,125.103 741.175,127.697 741.145,128.28 
			741.25,128.903 741.043,131.28 740.488,134.068 740.406,134.338 740.282,134.744 739.41,137.361 738.939,138.178 738.167,139.496 
			736.737,141.277 736.649,141.324 734.6,143.435 734.383,143.664 733.947,144.122 732.546,145.322 731.281,146.562 
			730.539,147.297 729.403,148.355 727.349,150.242 725.425,151.947 725.295,152.129 725.166,152.311 723.376,154.057 
			722.329,155.068 721.805,155.574 720.892,156.626 720.545,157.038 720.068,157.632 718.902,159.272 717.56,161.007 
			717.307,161.595 717.106,162.494 716.123,164.264 716.086,166.323 716.551,166.982 719.198,167.272 722.145,167.062 
			722.504,167.098 722.815,167.045 726.157,166.512 728.786,166.131 729.681,166.108 730.575,166.085 732.981,165.71 
			734.81,165.529 736.24,165.447 737.763,165.542 740.134,165.526 741.21,165.633 742.693,165.863 742.916,165.857 744.086,166.14 
			745.71,166.635 746.704,167.013 748.65,167.902 750.009,168.538 750.461,168.75 750.961,169.05 753.419,170.687 755.877,172.324 
			756.059,172.453 756.106,172.542 758.117,174.19 758.575,174.626 758.993,175.196 759.78,176.25 761.068,177.604 761.35,178.133 
			763.113,180.593 763.301,180.946 763.395,181.123 763.859,181.782 765.164,183.806 765.863,184.907 765.822,185.042 
			766.392,186.324 766.826,187.566 767.648,189.961 767.801,190.672 768.441,192.938 768.441,192.938 768.582,193.202 
			768.869,195.655 768.874,195.879 768.85,196.685 768.59,198.749 768.343,199.561 767.553,201.908 766.834,203.537 
			766.016,204.765 765.462,205.853 764.52,207.488 763.566,208.676 763.178,209.223 762.177,210.322 761.389,210.969 
			759.941,212.079 757.969,213.696 757.31,214.16 756.651,214.624 754.056,216.346 750.396,218.409 750.219,218.503 750.131,218.55 
			749.955,218.644 746.112,220.577 744.741,221.194 743.9,221.528 742.841,222.093 740.14,223.191 739.61,223.473 736.427,224.942 
			734.532,226.064 733.208,226.769 732.726,227.139 731.802,227.745 729.913,229.091 728.512,230.29 727.417,231.213 
			726.629,231.859 725.363,233.1 724.492,234.017 723.356,235.075 721.702,236.862 721.573,237.044 719.877,238.967 
			718.488,240.613 717.705,241.483 717.099,242.259 715.751,243.77 714.797,244.958 713.755,246.192 713.102,246.88 
			711.625,248.574 711.189,249.032 709.317,251.049 708.705,251.601 706.61,253.623 706.521,253.67 704.379,255.604 
			703.414,256.345 700.659,258.832 700.395,258.973 700.306,259.02 697.811,261.142 695.751,262.805 695.445,263.081 
			694.786,263.546 692.767,265.074 691.891,265.767 689.96,267.249 688.554,268.224 687.283,269.241 686.582,269.841 
			682.722,272.803 682.545,272.897 682.504,273.032 681.933,273.45 678.861,275.765 678.072,276.412 675.442,278.493 
			673.77,279.609 672.234,280.767 670.522,282.019 669.598,282.624 667.797,283.923 666.391,284.899 664.502,286.245 
			663.972,286.527 662.919,287.314 661.247,288.431 660.5,288.942 658.611,290.288 657.075,291.446 656.681,291.77 655.933,292.281 
			654.303,293.262 653.691,293.815 651.667,295.119 651.184,295.49 650.919,295.631 648.236,297.4 646.388,298.61 644.935,299.498 
			644.187,300.009 641.945,301.543 641.416,301.825 641.198,302.054 640.186,302.707 638.338,303.917 637.72,304.246 
			636.884,304.805 634.289,306.526 632.177,307.878 631.164,308.53 629.846,309.459 628.481,310.299 627.998,310.67 
			627.075,311.275 626.239,311.833 625.05,312.58 624.038,313.232 622.938,313.931 622.72,314.161 621.308,314.913 618.624,316.682 
			618.448,316.776 618.183,316.917 615.405,318.509 613.511,319.631 613.246,319.772 612.628,320.102 610.245,321.371 
			609.627,321.7 609.097,321.982 607.903,322.505 605.343,323.868 603.619,324.672 602.56,325.237 601.366,325.759 600.571,326.182 
			597.476,327.604 594.205,329.12 593.452,329.407 592.257,329.93 588.809,331.54 587.127,332.21 582.884,334.242 580.583,335.241 
			577.489,336.662 576.782,337.039 575.676,337.514 573.334,338.648 572.01,339.353 572.01,339.353 570.463,340.064 
			568.121,341.198 567.768,341.386 566.532,342.044 563.79,343.278 561.137,344.464 559.589,345.175 555.829,346.838 
			555.476,347.026 555.253,347.031 551.581,348.647 551.14,348.882 550.299,349.217 549.722,349.41 547.333,350.456 
			546.933,350.556 544.674,351.419 544.321,351.607 542.903,352.136 542.726,352.23 538.867,353.492 538.867,353.492 
			538.555,353.545 537.802,353.832 534.383,354.86 532.83,355.347 530.124,356.222 526.929,357.243 526.264,357.484 
			525.999,357.625 523.605,358.447 521.74,358.987 521.563,359.081 521.387,359.175 520.987,359.275 517.568,360.302 
			514.856,360.954 513.391,361.394 510.808,361.863 509.208,362.262 508.226,362.332 505.061,362.771 501.184,363.363 
			501.008,363.457 500.872,363.416 500.872,363.416 500.384,363.563 496.731,364.149 494.419,364.7 493.571,364.811 
			492.459,365.064 489.124,365.82 488.324,366.02 487.877,366.031 486.453,366.336 484.141,366.888 483.694,366.9 482.405,367.246 
			481.382,367.451 480.005,367.844 479.293,367.997 476.757,368.554 475.822,368.712 475.645,368.806 474.845,369.006 
			471.598,369.716 470.262,369.974 468.35,370.425 467.462,370.672 465.685,371.165 463.285,371.764 462.796,371.91 461.996,372.11 
			459.108,372.855 457.684,373.16 455.548,373.618 455.148,373.717 454.837,373.77 452.566,374.186 450.742,374.591 450.03,374.744 
			448.871,374.908 447.447,375.213 446.512,375.371 444.818,375.593 442.323,376.015 442.012,376.068 438.182,376.748 
			435.152,377.229 433.993,377.393 432.169,377.798 429.81,378.261 429.634,378.355 428.922,378.507 428.522,378.607 
			425.233,379.452 423.721,379.804 422.121,380.203 421.456,380.444 419.809,380.755 418.744,381.095 417.279,381.536 
			415.99,381.882 412.972,382.809 411.419,383.297 410.048,383.913 408.895,384.301 405.618,385.593 404.688,385.975 
			404.553,385.934 404.376,386.028 400.522,387.514 398.751,388.23 396.315,389.187 393.126,390.433 392.061,390.773 
			389.184,391.965 387.855,392.447 387.501,392.635 384.889,393.686 383.695,394.209 381.659,395.067 380.423,395.725 
			379.405,396.154 378.081,396.859 376.846,397.517 375.916,397.899 375.257,398.363 373.668,399.209 371.909,400.373 
			371.379,400.655 370.938,400.89 369.755,401.86 368.083,402.976 367.777,403.252 366.771,404.128 365.017,405.516 
			363.446,407.032 362.704,407.767 362.445,408.132 361.05,409.554 359.961,410.701 358.955,411.577 358.172,412.447 
			356.995,413.64 355.947,414.651 355.511,415.11 354.293,416.438 353.81,416.809 353.027,417.679 352.286,418.414 349.973,420.665 
			349.667,420.941 349.537,421.124 348.489,422.135 346.918,423.652 345.258,425.215 344.605,425.903 343.381,427.008 
			341.103,428.901 340.973,429.083 340.797,429.177 340.579,429.406 338.649,430.888 336.683,432.728 336.506,432.822 
			336.024,433.192 335.5,433.698 332.428,436.013 332.34,436.06 332.21,436.243 330.098,437.594 328.167,439.075 327.726,439.31 
			326.849,440.004 324.654,441.626 323.907,442.138 323.689,442.367 323.336,442.555 319.646,445.2 319.163,445.57 318.899,445.711 
			317.01,447.057 315.603,448.032 314.944,448.497 314.326,448.826 312.655,449.942 311.201,450.83 310.454,451.341 
			309.707,451.852 308.3,452.828 306.894,453.804 306.364,454.086 305.134,454.967 304.563,455.385 302.674,456.73 301.662,457.383 
			300.562,458.082 299.461,458.781 298.449,459.434 295.942,461.109 295.589,461.297 295.324,461.438 294.489,461.996 
			291.093,463.918 289.993,464.617 286.339,466.903 285.721,467.232 284.403,468.161 282.996,469.136 282.555,469.371 
			281.766,470.018 281.501,470.159 277.282,473.086 277.282,473.086 277.194,473.133 275.393,474.432 273.245,476.142 
			273.156,476.189 272.939,476.418 271.709,477.3 268.819,479.745 268.731,479.792 268.731,479.792 268.642,479.839 
			267.242,481.038 265.888,482.326 265.405,482.696 264.705,483.296 264.399,483.572 260.726,486.887 259.679,487.898 
			259.067,488.451 257.666,489.65 256.748,490.479 256.089,490.943 255.871,491.173 254.511,492.236 252.587,493.941 
			251.622,494.682 251.533,494.729 248.379,497.315 247.679,497.915 247.326,498.103 246.184,498.937 244.124,500.601 
			243.159,501.341 242.806,501.529 241.929,502.223 239.734,503.845 238.986,504.356 238.81,504.45 235.514,506.772 
			235.208,507.048 234.59,507.377 233.714,508.071 231.954,509.234 230.724,510.116 229.624,510.815 228.129,511.838 
			226.764,512.678 225.793,513.195 224.163,514.177 221.162,515.775 221.074,515.822 220.897,515.916 218.249,517.326 
			217.231,517.755 215.819,518.507 213.96,519.271 212.942,519.699 212.542,519.799 211.789,520.087 208.641,521.197 
			206.111,521.978 203.981,522.659 202.116,523.199 200.028,523.745 199.627,523.844 197.404,524.349 195.756,524.66 
			193.486,525.076 191.526,525.439 189.656,525.756 187.026,526.137 186.714,526.189 183.726,526.535 183.279,526.546 
			179.755,526.95 179.396,526.914 175.514,527.283 175.425,527.33 174.355,527.447 171.184,527.662 170.96,527.668 170.29,527.685 
			167.119,527.901 166.001,527.93 161.89,528.08 161.578,528.133 161.219,528.097 157.954,528.137 156.343,528.089 154.778,528.129 
			152.672,528.004 150.925,527.915 149.625,527.814 146.355,527.629 143.531,527.434 142.678,527.321 140.796,527.191 
			139.673,526.996 139.09,526.966 136.62,526.582 133.967,526.069 133.203,525.91 132.844,525.874 132.168,525.668 129.197,524.984 
			126.045,524.17 125.369,523.964 124.963,523.84 123.698,523.38 121.711,522.626 120.082,521.908 119.088,521.531 118.723,521.271 
			115.912,519.823 114.001,518.574 111.044,516.637 109.268,515.43 105.611,512.393 104.788,511.698 103.688,510.698 
			100.661,507.778 98.227,505.335 96.663,503.676 94.265,500.874 93.618,500.086 93.066,499.473 89.468,495.271 86.271,490.969 
			83.179,487.291 79.888,482.813 78.642,481.324 76.884,479.087 75.767,477.416 73.034,473.773 72.664,473.29 70.666,470.389 
			70.061,469.465 69.878,469.336 68.386,466.958 68.245,466.694 67.081,464.934 66.799,464.405 66.047,462.992 65.195,461.18 
			64.96,460.739 64.537,459.944 63.585,457.732 62.922,456.273 62.34,454.543 61.765,453.037 61.178,451.083 60.978,450.283 
			60.385,448.107 60.333,447.795 59.822,445.347 59.653,443.965 59.483,442.582 59.419,441.824 59.308,439.276 59.238,438.294 
			59.252,435.341 59.329,434.847 59.353,434.041 59.56,431.665 59.85,429.018 59.85,429.018 60.275,426.412 60.8,424.207 
			61,423.307 61.478,421.013 61.85,419.796 62.256,418.219 62.828,416.102 63.53,413.803 63.777,412.991 63.989,412.538 
			64.355,411.097 64.773,409.968 65.722,406.857 65.81,406.81 65.763,406.722 65.763,406.722 65.846,406.451 67.266,402.522 
			67.349,402.252 67.684,401.393 67.979,400.67 68.185,399.994 68.898,398.141 69.358,396.877 69.446,396.83 70.076,395.248 
			71.09,392.895 71.849,391.131 72.273,390.226 72.951,388.732 73.628,387.238 74.182,386.15 74.518,385.292 75.201,384.021 
			75.584,383.251 76.391,381.575 76.815,380.669 77.327,379.717 77.928,378.717 78.611,377.447 78.952,376.812 80.454,374.313 
			80.966,373.36 82.167,371.361 82.597,370.679 82.727,370.497 84.405,367.904 84.405,367.904 84.446,367.768 86.648,364.67 
			87.078,363.987 88.202,362.482 88.72,361.753 89.415,360.93 90.586,359.513 91.016,358.831 92.8,356.862 94.148,355.351 
			95.496,353.84 97.626,351.459 98.15,350.953 100.852,348.155 100.982,347.972 102.947,346.132 103.819,345.215 103.907,345.168 
			104.036,344.986 106.832,342.364 107.621,341.718 108.757,340.659 109.457,340.06 110.681,338.955 113.265,336.786 
			113.659,336.462 114.183,335.957 116.461,334.064 117.338,333.371 118.65,332.218 119.527,331.525 120.492,330.784 
			122.552,329.121 124.394,327.687 125.883,326.44 127.548,325.1 127.943,324.777 128.731,324.13 129.914,323.161 130.485,322.743 
			132.504,321.215 135.176,318.999 135.176,318.999 135.176,318.999 137.459,317.33 137.765,317.054 139.695,315.572 
			142.461,313.533 142.767,313.257 142.944,313.163 146.763,310.336 146.852,310.289 146.981,310.106 150.365,307.738 
			150.541,307.644 150.541,307.644 153.79,305.234 154.055,305.093 154.361,304.817 157.439,302.724 158.404,301.984 
			160.116,300.732 160.952,300.174 161.964,299.521 163.282,298.593 164.118,298.034 165.436,297.106 167.107,295.989 
			168.161,295.202 169.214,294.414 171.68,292.874 172.822,292.04 175.24,290.412 176.47,289.53 177.041,289.113 179.989,287.203 
			180.56,286.786 181.79,285.904 183.067,285.111 184.032,284.37 184.956,283.765 187.022,282.325 187.286,282.184 187.551,282.043 
			190.276,280.139 191.947,279.022 193.089,278.187 194.366,277.394 197.396,275.213 197.879,274.843 198.32,274.608 
			201.481,272.245 201.657,272.151 201.922,272.01 204.6,270.018 206.183,268.948 207.501,268.02 209.037,266.862 210.573,265.704 
			211.144,265.286 211.626,264.916 213.604,263.523 215.051,262.412 215.446,262.089 217.205,260.925 217.953,260.414 
			219.312,259.35 220.63,258.422 221.99,257.358 222.649,256.893 222.955,256.617 224.538,255.548 226.162,254.343 227.174,253.69 
			228.316,252.856 229.546,251.974 230.817,250.957 231.388,250.54 231.871,250.17 233.63,249.006 235.472,247.572 236.702,246.69 
			238.415,245.438 239.556,244.604 240.215,244.139 241.928,242.888 242.981,242.1 244.3,241.171 246.542,239.637 247.772,238.756 
			249.749,237.363 250.143,237.04 250.891,236.528 252.562,235.412 253.221,234.947 254.804,233.878 255.857,233.09 
			257.134,232.297 259.724,230.351 260.165,230.116 260.471,229.84 263.678,227.566 264.997,226.637 266.662,225.297 
			268.198,224.139 269.252,223.351 270.611,222.287 272.712,220.489 272.889,220.395 273.018,220.212 274.684,218.872 
			276.567,217.303 276.567,217.303 276.655,217.256 278.191,216.098 280.469,214.205 281.04,213.788 281.875,213.23 
			283.147,212.213 284.942,210.69 285.03,210.643 285.071,210.508 286.519,209.397 289.103,207.228 289.715,206.676 
			290.503,206.029 291.292,205.382 292.516,204.277 292.91,203.954 293.393,203.584 294.576,202.614 295.059,202.243 
			297.648,200.298 299.096,199.187 299.755,198.723 301.338,197.653 301.732,197.33 302.085,197.142 303.492,196.166 
			306.928,194.109 307.37,193.874 307.723,193.686 311.736,191.436 311.865,191.254 313.236,190.637 315.308,189.42 
			316.102,188.997 316.896,188.574 319.144,187.264 320.38,186.606 321.704,185.901 324.617,184.35 325.811,183.827 326.782,183.31 
			328.859,182.317 329.477,181.988 331.995,180.76 332.436,180.525 333.054,180.196 333.631,180.002 335.531,179.103 
			337.208,178.21 337.297,178.163 337.297,178.163 341.492,176.042 342.375,175.572 345.77,173.651 346.076,173.375 
			347.224,172.763 347.971,172.252 348.942,171.735 349.777,171.177 349.954,171.083 352.161,169.908 352.602,169.673 
			354.144,168.738 357.056,167.187 358.422,166.347 361.946,164.243 362.653,163.867 363.094,163.632 363.27,163.538 
			364.812,162.604 366.795,161.434 366.883,161.387 366.883,161.387 367.59,161.011 371.12,159.131 371.432,159.078 
			371.873,158.843 373.774,157.944 375.274,157.145 376.116,156.81 377.087,156.293 378.457,155.677 379.605,155.066 
			380.046,154.83 380.929,154.36 382.253,153.655 383.795,152.721 385.342,152.01 387.102,150.847 387.631,150.564 387.984,150.376 
			389.926,149.342 392.086,148.079 392.174,148.032 392.262,147.985 392.439,147.891 395.746,146.017 396.452,145.64 
			396.981,145.358 398.965,144.189 400.724,143.025 401.254,142.743 401.736,142.373 403.501,141.433 404.908,140.457 
			405.702,140.034 406.585,139.564 409.186,138.066 409.186,138.066 409.186,138.066 411.475,136.62 412.534,136.056 
			413.458,135.451 414.735,134.657 416.141,133.682 416.889,133.171 417.636,132.659 419.749,131.308 420.408,130.843 
			420.761,130.655 421.95,129.909 423.627,129.016 425.61,127.846 425.875,127.705 426.092,127.476 428.434,126.342 
			430.335,125.443 430.823,125.297 434.583,123.634 436.354,122.918 437.019,122.677 438.743,121.872 440.826,121.103 
			441.402,120.909 442.997,120.286 443.085,120.239 447.215,119.06 447.303,119.013 447.48,118.919 451.392,117.968 
			451.392,117.968 453.969,117.275 455.746,116.782 455.834,116.735 455.881,116.824 459.923,115.691 460.411,115.544 
			463.83,114.517 464.141,114.464 466.801,113.501 466.977,113.407 468.837,112.643 470.655,112.015 471.937,111.445 
			472.69,111.157 473.797,110.682 476.009,109.73 476.85,109.395 477.203,109.207 477.78,109.013 480.169,107.968 480.657,107.821 
			481.587,107.439 484.023,106.482 485.264,106.047 487.612,105.137 488.718,104.661 490.448,104.08 493.378,103.199 
			494.043,102.959 497.461,101.931 497.549,101.884 498.573,101.679 501.103,100.898 501.414,100.846 504.927,99.995 
			505.103,99.901 508.616,99.05 508.704,99.003 509.727,98.798 511.728,98.299 512.393,98.058 514.211,97.43 514.922,97.277 
			516.47,96.566 518.512,95.932 519.441,95.551 520.547,95.075 521.612,94.734 522.812,94.435 523.742,94.053 526.443,92.955 
			527.549,92.479 530.332,91.11 530.685,90.922 530.773,90.875 530.95,90.781 533.792,89.948 535.48,89.502 536.545,89.161 
			538.769,88.657 539.393,88.551 543.487,87.73 543.487,87.73 543.487,87.73 543.487,87.73 543.487,87.73 547.911,87.527 
			549.476,87.487 550.058,87.516 551.893,87.559 553.552,87.695 555.928,87.902 557.54,87.95 559.781,88.116 560.228,88.105 
			560.675,88.093 562.734,88.13 564.475,87.996 565.011,87.937 568.534,87.533 568.67,87.575 568.758,87.528 569.693,87.369 
			573.523,86.689 573.835,86.637 574.235,86.537 577.93,85.816 581.136,85.241 581.224,85.194 581.359,85.235 584.212,84.849 
			585.107,84.826 587.254,84.815 587.612,84.851 588.195,84.881 590.165,84.964 591.918,85.277 592.636,85.348 594.347,85.796 
			596.282,86.239 596.464,86.368 597.776,86.916 598.682,87.34 598.817,87.381 600.951,88.624 601.998,89.313 605.326,91.732 
			605.326,91.732 605.414,91.685 609.142,94.005 609.689,94.394 610.683,94.771 612.036,95.183 613.118,95.514 614.288,95.797 
			616.529,95.963 617.382,96.075 618.682,96.176 619.711,96.194 622.535,96.39 623.341,96.414 626.076,96.657 627.964,97.011 
			629.581,97.282 631.205,97.777 632.693,98.231 634.675,98.762 636.886,99.51 638.103,99.882 639.274,100.165 640.444,100.448 
			642.509,100.708 643.003,100.785 643.315,100.732 643.762,100.72 645.862,100.622 647.509,100.311 647.909,100.211 
			649.109,99.912 649.774,99.671 649.951,99.577 652.21,98.714 652.298,98.667 652.386,98.62 652.875,98.473 655.087,97.521 
			655.44,97.333 657.388,96.523 658.053,96.282 659.735,95.612 661.289,95.125 662.177,94.879 664.66,94.01 664.748,93.963 
			664.748,93.963 666.837,93.417 667.949,93.165 669.154,93.089 670.366,93.237 671.572,93.161 672.872,93.262 674.131,93.498 
			675.831,93.499 676.284,93.711 677.454,93.994 679.165,94.442 679.93,94.601 681.371,94.967 682.771,95.468 683.582,95.715 
			684.664,96.045 685.7,96.287 687.499,96.688 687.635,96.729 689.617,97.26 689.705,97.213 691.91,97.738 695.369,98.275 
			695.863,98.352 696.31,98.341 699.451,98.707 702.769,98.98 702.769,98.98 702.857,98.933 706.668,99.282 707.745,99.389 
			709.357,99.437 709.762,99.561 712.497,99.803 713.127,99.921 714.703,100.328 716.232,100.647 716.773,100.812 717.45,101.018 
			719.526,101.725 721.331,102.35 721.466,102.391 721.737,102.474 723.866,103.493 724.589,103.787 726.224,104.729 
			726.859,105.071 727.359,105.371 728.864,106.496 729.911,107.185 731.686,108.392 733.468,109.822 733.65,109.952 
			735.578,111.87 735.902,112.265 736.636,113.006 737.606,114.189 738.071,114.848 738.447,115.555 		">
		</polygon>
	</g>
</g>
<g id="Layer_1">
</g>
</svg>
