<?xml version="1.0" encoding="iso-8859-1"?>
<!-- Generator: Adobe Illustrator 19.2.1, SVG Export Plug-In . SVG Version: 6.00 Build 0)  -->
<svg version="1.1" xmlns="http://www.w3.org/2000/svg" xmlns:xlink="http://www.w3.org/1999/xlink" x="0px" y="0px"
	 viewBox="0 0 841.89 595.28" style="enable-background:new 0 0 841.89 595.28;" xml:space="preserve">
<g id="layer213">
	<g id="layer213_1_" slic3r:z="8.54000000000007e-005">
		<polygon slic3r:type="contour" style="fill:#FFFFFF;stroke:#000000;stroke-miterlimit:10;" points="741.72,227.221 
			742.53,229.169 742.83,230.369 742.894,231.128 742.899,233.051 742.792,234.128 742.509,235.298 742.208,237.498 
			741.771,239.657 741.736,240.015 740.398,243.673 740.269,243.856 740.274,244.079 739.132,246.614 738.537,247.837 
			738.495,247.972 736.823,250.789 736.176,251.7 734.739,253.258 733.603,254.316 731.561,256.65 731.125,257.109 730.69,257.567 
			729.377,258.72 727.971,259.695 727.488,260.066 726.917,260.483 724.934,261.652 723.834,262.352 722.427,263.327 
			720.662,264.267 719.038,265.472 718.243,265.895 716.831,266.647 715.019,267.499 713.954,267.84 712.542,268.592 
			710.724,269.22 709.706,269.649 707.446,270.512 705.982,270.952 703.452,271.733 702.651,271.933 699.845,272.408 
			698.11,272.765 695.574,273.323 694.551,273.528 693.839,273.68 689.515,274.284 689.203,274.336 687.691,274.688 685.197,275.11 
			684.526,275.128 683.814,275.28 682.39,275.585 681.502,275.832 680.031,276.048 678.519,276.4 677.054,276.841 675.589,277.281 
			674.26,277.763 674.171,277.81 672.706,278.25 669.211,279.771 668.9,279.824 668.811,279.871 668.547,280.012 665.275,281.528 
			663.068,282.703 662.362,283.079 661.656,283.455 659.538,284.583 658.173,285.423 656.76,286.175 654.777,287.345 
			654.248,287.627 653.983,287.768 652.088,288.89 651.206,289.36 649.134,290.577 648.693,290.812 648.387,291.088 
			646.051,292.445 643.673,293.938 643.409,294.079 643.32,294.126 640.855,295.666 640.06,296.089 637.548,297.54 636.889,298.005 
			636.094,298.428 633.052,300.161 630.41,301.795 629.486,302.4 626.444,304.133 625.914,304.415 625.12,304.839 622.472,306.249 
			620.795,307.142 619.118,308.035 616.952,309.075 614.964,310.021 613.24,310.825 611.516,311.63 610.056,312.294 
			608.509,313.005 607.979,313.287 606.208,314.003 603.684,315.008 603.066,315.337 602.313,315.625 600.319,316.347 
			597.618,317.445 597.353,317.586 596.776,317.78 594.029,318.79 592.787,319.225 590.969,319.853 588.975,320.575 
			588.487,320.722 586.445,321.356 584.98,321.796 583.25,322.378 580.362,323.123 579.697,323.364 577.961,323.722 
			575.873,324.267 575.072,324.467 571.96,325.218 569.513,325.728 567.866,326.039 563.724,326.772 563.547,326.866 
			563.547,326.866 563.324,326.871 560.559,327.211 559.13,327.292 557.659,327.509 555.647,327.561 553.906,327.695 
			552.117,327.741 550.688,327.823 547.87,327.85 547.2,327.868 543.8,327.866 543.441,327.83 542.859,327.8 540.17,327.646 
			538.112,327.609 536.318,327.432 535.018,327.331 533,327.159 530.847,326.946 529.995,326.834 527.93,326.573 526.495,326.431 
			526.001,326.355 525.013,326.201 522.766,325.811 520.607,325.375 520.113,325.298 518.631,325.068 516.966,324.708 
			516.561,324.584 513.773,324.03 512.379,323.752 510.22,323.316 508.332,322.962 506.626,322.737 505.774,322.625 
			503.127,322.335 501.062,322.075 500.074,321.921 496.892,321.69 496.398,321.613 495.815,321.583 494.021,321.406 
			492.674,321.217 491.822,321.104 490.428,320.827 489.304,320.632 487.193,320.284 486.334,319.948 483.405,319.129 
			483.135,319.046 482.999,319.005 479.976,318.009 478.806,317.726 476.365,316.76 475.371,316.383 473.742,315.664 
			472.29,314.851 470.885,314.127 470.385,313.827 468.656,312.708 466.516,311.242 465.287,310.424 464.828,309.988 
			464.093,309.246 462.171,307.551 460.931,306.286 460.008,305.191 459.179,304.273 458.903,303.967 456.587,300.895 
			455.934,299.883 454.306,297.464 453.46,295.875 453.043,295.304 452.197,293.716 451.069,291.597 450.928,291.332 
			450.787,291.068 449.753,289.126 449.659,288.949 449.377,288.42 448.39,286.566 447.967,285.772 446.797,283.789 
			446.139,282.553 444.923,280.482 444.364,279.646 443.624,278.681 442.877,277.492 441.126,275.479 440.896,275.262 
			440.761,275.22 440.12,274.655 438.345,273.448 437.892,273.236 436.398,272.559 434.598,272.158 432.393,271.633 
			430.958,271.491 428.264,271.113 427.681,271.083 427.411,271.001 424.364,270.81 423.646,270.739 421.899,270.65 
			420.558,270.685 420.199,270.649 419.482,270.578 416.976,270.553 415.546,270.634 413.846,270.633 412.282,270.674 
			409.423,270.837 408.887,270.895 407.011,270.988 404.734,271.181 404.375,271.145 403.84,271.204 400.052,271.749 
			399.293,271.813 397.422,272.129 395.504,272.358 394.08,272.663 391.451,273.043 389.268,273.413 387.133,273.87 
			384.373,274.433 382.55,274.838 381.526,275.043 377.925,275.941 376.013,276.393 374.46,276.88 372.066,277.702 371.089,277.996 
			370.424,278.236 367.276,279.346 366.035,279.781 363.864,280.597 362.493,281.214 359.216,282.506 358.374,282.841 
			355.32,284.127 355.32,284.127 355.32,284.127 352.937,285.396 350.737,286.795 350.03,287.171 349.636,287.494 348.8,288.053 
			346.429,289.769 345.199,290.65 342.827,292.367 341.597,293.248 340.326,294.265 339.49,294.823 337.778,296.075 
			337.031,296.587 335.359,297.703 333.729,298.685 331.393,300.042 330.069,300.747 327.245,302.251 326.627,302.58 
			323.355,304.096 323.091,304.237 320.525,305.377 319.643,305.847 319.554,305.894 319.466,305.941 318.848,306.27 
			316.595,307.357 316.153,307.592 314.476,308.485 312.711,309.425 311.611,310.124 309.363,311.435 309.274,311.482 
			306.544,313.162 306.238,313.439 305.844,313.762 303.072,315.578 302.372,316.177 300.794,317.47 298.917,319.263 
			298.611,319.54 298.352,319.904 295.873,322.697 293.236,326.254 293.236,326.254 293.148,326.301 293.195,326.389 
			291.611,329.159 291.063,330.47 290.686,331.464 289.955,334.346 289.831,334.752 289.235,337.675 289.241,337.899 
			289.241,337.899 288.733,340.775 288.703,341.357 288.325,344.051 288.301,344.857 287.917,347.327 287.852,348.268 
			287.598,350.557 287.538,351.721 287.278,353.786 287.219,354.95 286.911,356.927 286.858,358.315 286.592,360.156 
			286.497,361.679 286.172,362.985 285.954,364.914 285.624,365.997 285.316,367.973 285.116,368.873 284.685,371.255 
			284.526,372.019 284.03,375.343 283.947,375.613 283.959,376.06 283.539,378.889 283.285,381.177 283.249,381.536 
			283.096,382.524 282.918,384.318 282.883,384.677 282.463,387.506 282.351,388.359 281.849,391.459 281.625,393.165 
			281.117,396.041 280.999,396.67 280.793,397.347 280.274,399.776 279.754,402.205 279.548,402.881 279.177,404.099 
			278.811,405.539 278.534,406.933 278.116,408.063 277.909,408.739 277.379,410.721 276.925,412.209 276.554,413.426 
			275.929,415.232 274.856,418.749 274.473,419.519 273.896,421.413 273.024,424.03 272.77,424.618 272.305,425.659 
			271.468,427.917 270.703,429.458 270.279,430.364 269.301,432.357 268.276,434.262 266.185,438.208 265.585,439.208 
			265.455,439.39 265.243,439.843 262.982,444.106 261.215,448.446 261.044,448.764 261.003,448.899 260.832,449.217 
			259.571,452.381 259.017,453.469 258.092,455.774 256.82,458.491 256.738,458.761 255.931,460.437 254.57,463.201 
			254.099,464.019 252.303,467.241 251.873,467.923 251.873,467.923 251.532,468.558 251.443,468.605 251.184,468.97 248.2,472.939 
			248.029,473.256 247.635,473.579 247.158,474.173 245.674,475.643 244.721,476.831 242.89,478.712 242.584,478.988 
			241.495,480.134 241.107,480.681 239.105,482.88 238.54,483.521 237.975,484.162 237.54,484.62 234.303,487.477 233.514,488.124 
			230.354,490.486 229.259,491.409 226.217,493.143 223.792,494.547 222.245,495.258 218.532,497.009 218.309,497.014 
			217.955,497.202 214.19,498.641 211.089,499.839 210.913,499.933 210.601,499.986 207.759,500.82 206.471,501.166 204.47,501.665 
			200.87,502.563 200.646,502.568 200.246,502.668 196.687,503.431 194.281,503.806 192.722,504.069 189.022,504.567 
			188.486,504.626 188.31,504.72 184.292,505.047 181.615,505.339 180.05,505.379 178.533,505.508 176.521,505.56 174.374,505.57 
			174.015,505.535 170.927,505.48 170.121,505.456 168.733,505.402 166.18,505.289 164.345,505.246 163.627,505.175 
			161.474,504.962 160.621,504.85 158.827,504.672 157.663,504.613 155.375,504.358 154.969,504.235 152.769,503.933 
			151.781,503.78 151.693,503.827 151.646,503.739 151.287,503.703 148.093,503.025 147.193,502.824 144.764,502.305 
			142.829,501.863 141.659,501.58 139.094,501.019 138.824,500.937 138.418,500.813 135.895,500.117 134.407,499.663 
			133.325,499.333 131.072,498.72 130.666,498.596 128.996,498.013 127.732,497.553 127.461,497.471 124.885,496.463 
			123.891,496.086 121.857,495.244 120.139,494.572 118.828,494.024 117.017,493.176 116.746,493.094 116.382,492.835 
			114.794,491.981 114.294,491.681 112.518,490.474 112.154,490.215 110.237,488.743 110.055,488.613 108.127,486.694 
			107.944,486.565 107.85,486.388 106.739,484.941 106.363,484.235 104.136,481.116 104.089,481.027 101.444,477.337 
			100.104,475.672 97.976,472.953 96.636,471.287 94.831,468.963 93.538,467.386 92.433,466.161 90.211,463.266 88.465,461.477 
			87.684,460.647 86.526,459.111 85.873,458.099 85.121,456.686 84.316,454.962 83.553,453.103 83.265,452.35 82.449,450.179 
			82.208,449.514 81.756,447.602 81.557,446.802 81.246,445.155 81.123,443.86 81.012,443.013 80.785,439.395 80.481,436.272 
			80.499,435.242 80.465,433.901 80.525,431.036 80.614,429.289 80.686,426.872 80.848,422.707 80.889,422.572 80.883,422.348 
			81.362,418.355 81.54,416.561 81.924,414.09 82.497,410.273 82.656,409.508 82.903,408.697 83.464,406.132 83.912,404.421 
			84.248,403.562 84.69,401.627 84.985,400.904 85.155,400.586 86.075,398.057 87.324,394.446 87.406,394.176 87.489,393.905 
			88.697,390.43 88.903,389.753 89.798,388.03 90.222,387.125 90.517,386.401 91.318,384.502 91.954,383.143 92.849,381.42 
			94.098,379.509 94.268,379.192 95.434,377.551 96.247,376.099 96.889,374.964 97.707,373.735 99.562,371.048 99.732,370.73 
			99.862,370.548 100.38,369.819 101.634,368.132 103.853,365.704 103.941,365.657 103.983,365.521 105.072,364.375 
			106.331,362.911 106.508,362.817 108.074,361.077 109.469,359.654 110.081,359.101 111.346,357.861 112.394,356.85 
			114.142,355.239 114.624,354.869 115.89,353.629 116.808,352.8 117.202,352.476 119.086,350.907 120.751,349.567 121.452,348.967 
			122.287,348.409 123.6,347.257 125.094,346.234 126.719,345.029 128.125,344.054 129.532,343.078 131.597,341.638 
			133.221,340.433 135.775,338.847 136.699,338.241 140.442,335.908 140.924,335.538 141.013,335.491 141.189,335.397 
			145.291,333.099 146.215,332.494 148.727,331.043 151.458,329.362 152.252,328.939 153.088,328.381 155.247,327.117 
			157.012,326.177 158.16,325.566 159.702,324.632 161.379,323.739 165.48,321.441 165.48,321.441 165.568,321.394 169.717,319.185 
			171.082,318.344 173.112,317.263 175.848,315.806 175.936,315.759 175.936,315.759 178.496,314.396 179.467,313.879 
			181.368,312.98 183.351,311.811 184.322,311.294 186.04,310.265 186.658,309.936 188.906,308.626 189.523,308.297 
			191.689,307.257 194.072,305.988 194.425,305.8 194.737,305.747 197.255,304.519 199.067,303.667 200.391,302.962 
			202.557,301.922 202.998,301.687 204.057,301.123 205.605,300.413 206.534,300.031 208.564,298.95 209.888,298.245 
			210.506,297.916 212.365,297.152 212.807,296.917 215.154,296.007 215.596,295.772 218.426,294.491 218.779,294.303 
			219.22,294.068 221.65,292.887 222.886,292.229 224.61,291.424 226.552,290.39 227.523,289.873 229.818,288.651 230.218,288.551 
			230.612,288.228 232.554,287.194 233.613,286.63 234.319,286.254 236.702,284.984 236.967,284.843 237.232,284.702 
			239.968,283.245 241.51,282.311 242.787,281.518 244.541,280.13 244.982,279.895 245.376,279.572 247.047,278.455 
			247.748,277.856 249.372,276.651 250.296,276.046 252.403,274.47 253.062,274.006 253.762,273.407 255.345,272.337 
			256.534,271.591 257.94,270.615 259.217,269.822 261.33,268.47 262.124,268.047 264.802,266.054 264.89,266.007 264.89,266.007 
			267.344,264.021 268.127,263.151 269.046,262.322 270.653,260.446 270.741,260.399 270.741,260.399 272.778,257.842 
			273.684,256.566 275.762,253.873 276.451,252.826 277.54,251.68 279.589,249.569 281.072,248.1 282.031,247.136 284.003,245.519 
			285.969,243.679 286.145,243.585 287.281,242.527 288.376,241.604 288.376,241.604 288.552,241.51 290.789,239.753 
			291.93,238.918 293.113,237.948 295.132,236.42 295.526,236.097 296.227,235.497 297.721,234.475 298.116,234.151 
			299.693,232.858 300.611,232.029 301.529,231.2 303.142,229.548 303.666,229.043 304.755,227.896 306.414,226.333 
			306.938,225.827 307.286,225.416 309.428,223.482 309.557,223.299 311.135,222.006 312.53,220.584 314.625,218.561 
			314.931,218.285 315.543,217.732 317.603,216.069 318.739,215.011 320.269,213.629 322.453,211.56 322.759,211.284 
			322.888,211.102 326.649,207.739 326.955,207.463 329.451,205.341 330.545,204.418 331.158,203.865 333.306,202.155 
			335.366,200.492 337.384,198.963 338.614,198.082 339.667,197.294 341.468,195.995 344.011,193.961 345.894,192.392 
			346.288,192.069 348.219,190.588 349.49,189.571 352.521,187.39 353.444,186.785 354.368,186.18 355.069,185.58 356.522,184.693 
			356.828,184.416 357.005,184.322 359.859,182.236 361.171,181.084 363.49,179.056 365.327,177.398 365.327,177.398 
			365.327,177.398 365.327,177.398 367.386,175.735 369.529,173.801 370.712,172.831 371.106,172.507 372.595,171.261 
			373.513,170.432 373.908,170.109 374.784,169.416 377.892,166.741 377.98,166.694 378.11,166.512 379.687,165.218 
			380.611,164.613 381.835,163.508 382.447,162.955 385.243,160.334 385.549,160.057 385.678,159.875 386.773,158.952 
			388.298,157.347 389.475,156.154 390.829,154.866 391.046,154.637 391.352,154.361 392.624,153.344 393.454,152.562 
			393.76,152.286 395.337,150.993 397.167,149.111 397.432,148.97 398.086,148.283 399.616,146.901 400.534,146.072 
			401.276,145.338 402.982,143.862 403.9,143.033 404.819,142.204 405.254,141.746 405.342,141.699 408.15,139.524 409.462,138.372 
			410.557,137.449 411.169,136.896 412.44,135.88 412.834,135.556 413.052,135.327 413.141,135.28 416.695,132.594 417.966,131.577 
			419.067,130.878 419.679,130.325 420.909,129.444 421.303,129.12 422.05,128.609 422.404,128.421 425.263,126.558 
			426.935,125.441 427.859,124.836 429.395,123.678 431.46,122.238 431.637,122.144 431.637,122.144 431.813,122.05 433.661,120.84 
			433.926,120.699 435.162,120.04 435.956,119.617 436.262,119.341 437.898,118.583 438.339,118.348 439.045,117.972 
			440.987,116.938 441.428,116.703 442.134,116.327 442.534,116.227 445.671,114.67 445.936,114.529 446.377,114.294 
			446.642,114.153 449.825,112.685 450.49,112.444 450.49,112.444 450.578,112.397 451.996,111.868 452.084,111.821 454.697,110.77 
			454.873,110.676 455.361,110.529 457.133,109.813 457.486,109.625 458.992,109.049 459.568,108.855 460.233,108.615 
			461.651,108.086 463.116,107.646 464.269,107.258 465.246,106.965 467.817,106.049 468.617,105.849 470.171,105.362 
			470.971,105.162 472.083,104.91 474.036,104.323 474.836,104.123 475.636,103.924 476.571,103.766 477.86,103.419 
			479.907,103.009 481.196,102.663 482.531,102.405 483.42,102.158 483.731,102.105 484.178,102.094 487.026,101.484 
			488.585,101.22 489.161,101.026 490.897,100.669 491.032,100.71 493.215,100.341 493.662,100.329 497.362,99.831 497.809,99.82 
			498.256,99.808 501.245,99.463 501.78,99.405 504.951,99.189 505.039,99.142 506.604,99.102 508.033,99.02 508.168,99.061 
			510.674,99.086 512.598,99.082 513.404,99.106 515.463,99.142 515.686,99.137 515.821,99.178 517.574,99.491 517.98,99.614 
			519.15,99.897 520.097,100.186 522.085,100.94 525.514,102.06 525.696,102.19 526.237,102.355 529.13,103.533 530.124,103.91 
			531.618,104.587 533.023,105.312 533.794,105.695 535.429,106.637 536.61,107.367 537.428,107.838 537.792,108.097 
			539.521,109.216 540.109,109.469 541.703,110.547 542.52,111.018 543.52,111.618 544.337,112.089 545.972,113.031 547.018,113.72 
			548.424,114.445 549.829,115.169 551.599,116.153 554.046,117.342 554.316,117.425 554.634,117.596 556.668,118.438 
			558.568,119.239 559.562,119.616 561.279,120.288 562.908,121.006 564.172,121.466 566.16,122.22 568.013,122.933 
			568.554,123.098 571.312,124.235 571.447,124.276 571.536,124.229 574.382,125.319 575.241,125.655 577.952,126.704 
			578.81,127.04 580.257,127.629 582.156,128.43 582.88,128.725 584.915,129.567 585.05,129.608 585.232,129.738 587.455,130.933 
			590.037,132.164 590.037,132.164 590.125,132.117 592.124,133.318 592.806,133.748 594.353,134.737 595.582,135.556 
			595.946,135.815 597.404,136.851 598.545,137.716 599.727,138.447 600.138,138.794 601.373,139.836 602.514,140.701 
			603.29,141.308 603.837,141.696 604.707,142.479 605.847,143.344 607.311,144.604 607.447,144.645 608.958,145.993 
			609.963,146.818 611.515,148.03 611.609,148.207 613.208,149.508 614.261,150.42 615.584,151.415 615.813,151.633 
			617.095,152.763 618.147,153.675 619.382,154.717 619.517,154.759 620.846,155.977 621.804,156.713 623.315,158.061 
			624.414,159.062 626.431,160.933 627.395,161.893 629.505,163.941 630.47,164.901 632.68,167.349 633.232,167.961 
			635.266,170.503 635.777,171.251 637.535,173.487 638.093,174.323 638.323,174.541 638.464,174.805 639.727,176.965 
			640.009,177.495 640.949,179.26 641.231,179.789 641.519,180.543 643.082,183.902 643.458,184.608 644.503,186.997 
			645.114,188.145 645.596,189.474 646.495,191.375 647.017,192.569 647.346,193.187 648.345,195.488 648.821,196.594 
			649.156,197.435 650.16,199.96 650.301,200.224 650.307,200.448 651.317,203.196 651.505,203.549 652.039,205.19 652.673,207.232 
			652.914,207.897 653.061,208.385 653.9,211.45 654.434,213.092 654.927,214.868 655.321,216.245 655.772,218.157 656.172,219.757 
			657.058,222.911 657.199,223.176 657.158,223.311 657.451,224.288 658.238,227.041 658.478,227.706 659.054,229.212 
			659.682,231.03 660.111,232.048 660.728,233.419 660.969,234.084 661.762,235.361 662.649,236.814 663.349,237.915 
			664.595,239.404 665.241,240.192 665.794,240.804 668.399,242.93 668.904,243.453 669.498,243.93 671.309,244.778 
			672.532,245.373 673.344,245.621 674.967,246.116 677.391,246.412 677.526,246.453 677.749,246.447 680.297,246.337 
			682.92,245.733 683.144,245.727 683.232,245.68 685.762,244.899 686.821,244.335 688.763,243.301 689.51,242.789 690.958,241.679 
			691.399,241.444 691.965,240.803 693.053,239.656 693.96,238.38 694.525,237.74 694.955,237.057 696.08,235.552 696.716,234.194 
			697.575,232.83 698.653,231.236 699.295,230.101 699.507,229.648 699.895,229.102 700.843,227.69 701.579,226.732 
			702.315,225.774 702.921,224.998 703.792,224.081 704.84,223.069 705.058,222.84 705.54,222.47 706.9,221.406 708.13,220.524 
			708.789,220.06 710.113,219.355 711.484,218.738 711.925,218.503 713.167,218.069 715.114,217.258 715.691,217.064 
			717.65,216.701 718.538,216.454 718.897,216.49 720.279,216.32 721.262,216.25 721.709,216.238 723.191,216.469 725.485,216.947 
			726.879,217.224 729.037,217.661 730.755,218.332 734.277,219.628 734.46,219.758 734.46,219.758 734.595,219.799 
			737.876,222.131 738.058,222.26 738.24,222.39 738.381,222.655 740.78,225.456 741.15,225.939 741.385,226.38 		">
		</polygon>
	</g>
</g>
<g id="Layer_1">
</g>
</svg>
