<?xml version="1.0" encoding="iso-8859-1"?>
<!-- Generator: Adobe Illustrator 19.2.1, SVG Export Plug-In . SVG Version: 6.00 Build 0)  -->
<svg version="1.1" xmlns="http://www.w3.org/2000/svg" xmlns:xlink="http://www.w3.org/1999/xlink" x="0px" y="0px"
	 viewBox="0 0 841.89 595.28" style="enable-background:new 0 0 841.89 595.28;" xml:space="preserve">
<g id="layer262">
	<g id="layer262_1_" slic3r:z="0.000105000000000001">
		<polygon slic3r:type="contour" style="fill:#FFFFFF;stroke:#000000;stroke-miterlimit:10;" points="739.505,116.69 
			739.746,117.355 739.981,117.797 740.221,118.461 741.249,121.88 741.349,122.28 741.823,125.086 741.829,125.31 741.835,125.533 
			741.868,128.574 741.943,131.48 741.943,131.48 741.943,131.48 741.394,134.492 741.199,135.615 740.539,137.779 740.198,138.414 
			739.255,140.049 738.996,140.414 738.867,140.596 737.348,142.424 736.389,143.389 735.17,144.717 733.552,146.146 
			733.334,146.375 733.116,146.604 731.586,147.986 728.702,150.654 728.572,150.837 728.354,151.066 727.395,152.03 
			726.653,152.765 725.258,154.188 725.088,154.505 724.434,155.193 723.392,156.428 723.045,156.839 722.062,158.609 
			721.72,159.244 721.437,160.415 721.331,161.491 722.9,163.374 723.035,163.416 723.035,163.416 726.535,163.818 729.088,163.931 
			729.982,163.908 730.653,163.891 733.111,163.828 734.994,163.958 736.288,163.836 738.617,163.955 740.411,164.132 
			740.77,164.168 741.176,164.291 744.323,164.882 744.458,164.923 744.775,165.094 747.216,166.06 749.568,167.073 
			750.568,167.674 751.162,168.151 753.755,169.829 754.072,169.999 756.036,171.559 757.594,172.996 758.417,173.69 
			758.876,174.126 759.94,175.485 760.445,176.009 760.956,176.756 762.02,178.116 762.532,178.863 763.507,180.27 764.113,181.194 
			765.788,183.701 765.882,183.877 767.203,186.572 767.297,186.749 767.438,187.013 768.413,190.12 768.842,191.138 
			769.329,192.691 769.593,194.25 769.704,195.097 769.838,196.838 769.696,198.274 769.549,199.485 769.436,200.338 
			768.688,202.549 768.523,203.091 768.052,203.908 767.11,205.543 766.085,207.448 765.785,207.948 765.526,208.312 
			764.225,209.911 763.136,211.058 762.482,211.746 760.687,213.268 760.293,213.591 758.321,215.208 755.508,217.159 
			754.979,217.441 754.231,217.952 751.407,219.457 750.171,220.115 747.523,221.525 746.994,221.807 746.729,221.948 
			743.722,223.322 743.193,223.605 742.528,223.845 739.215,225.496 737.579,226.254 735.555,227.559 733.925,228.54 
			732.171,229.927 731.247,230.533 730.329,231.361 728.752,232.655 727.834,233.483 726.48,234.771 724.914,236.511 
			724.52,236.834 723.608,237.887 722.083,239.492 721.736,239.903 721.171,240.544 719.169,242.743 717.044,245.347 
			716.915,245.53 716.609,245.806 714.389,248.234 713.348,249.469 712.259,250.615 711.823,251.074 710.599,252.179 
			709.292,253.554 708.244,254.566 706.538,256.041 705.355,257.011 704.566,257.657 701.588,260.15 699.44,261.86 698.869,262.278 
			696.851,263.806 695.008,265.24 694.438,265.657 691.89,267.467 691.583,267.744 690.136,268.855 688.07,270.294 687.764,270.571 
			687.281,270.941 684.339,273.075 683.15,273.821 681.526,275.026 680.255,276.043 677.883,277.759 676.83,278.546 
			673.799,280.727 673.711,280.774 673.623,280.821 670.986,282.678 669.756,283.56 668.261,284.582 667.691,285 666.325,285.84 
			664.919,286.816 664.083,287.374 662.282,288.673 660.217,290.113 659.293,290.718 658.546,291.229 657.227,292.158 
			655.074,293.645 654.897,293.739 654.809,293.786 654.591,294.015 651.908,295.784 650.542,296.625 649.001,297.559 
			645.746,299.745 645.57,299.839 645.529,299.974 644.911,300.303 642.492,301.931 642.051,302.166 641.745,302.443 
			640.774,302.96 639.544,303.841 638.179,304.682 636.066,306.033 634.966,306.733 632.724,308.267 631.976,308.778 
			631.623,308.966 631.182,309.201 628.675,310.876 627.751,311.481 627.092,311.946 626.209,312.416 625.727,312.786 
			624.055,313.903 623.702,314.091 622.072,315.072 621.678,315.395 620.619,315.959 618.812,317.035 617.888,317.64 
			615.729,318.903 614.228,319.702 612.993,320.361 611.404,321.207 610.08,321.912 608.756,322.617 606.061,323.939 
			606.061,323.939 606.061,323.939 603.054,325.313 602.083,325.83 598.459,327.534 597.97,327.681 597.264,328.057 
			594.387,329.249 593.769,329.578 592.487,330.148 589.433,331.434 586.073,332.997 584.526,333.708 581.166,335.271 
			580.989,335.365 577.63,336.927 576.788,337.262 576.082,337.638 574.976,338.114 573.74,338.772 572.946,339.195 
			572.193,339.483 571.398,339.906 570.692,340.282 569.986,340.658 568.968,341.087 568.174,341.51 565.567,342.785 
			564.373,343.307 560.878,344.829 560.26,345.158 560.083,345.252 556.188,346.873 554.682,347.449 554.329,347.637 
			552.028,348.635 551.852,348.729 549.151,349.828 548.886,349.969 547.78,350.444 547.557,350.45 543.526,352.03 543.526,352.03 
			543.438,352.077 543.438,352.077 543.126,352.13 539.178,353.439 538.867,353.492 538.243,353.597 537.49,353.885 
			535.048,354.619 531.453,355.74 530.877,355.934 529.324,356.421 526.529,357.343 525.864,357.584 522.404,358.747 
			521.781,358.852 520.804,359.146 519.428,359.539 518.274,359.926 515.697,360.619 514.009,361.065 513.562,361.077 
			513.162,361.176 509.914,361.886 506.349,362.425 505.726,362.531 504.655,362.648 501.49,363.087 499.307,363.456 
			497.348,363.82 494.142,364.394 493.166,364.688 492.63,364.746 489.024,365.42 486,366.124 485.553,366.136 484.841,366.288 
			483.106,366.646 480.658,367.156 479.77,367.403 479.546,367.409 479.37,367.503 476.522,368.113 475.899,368.218 
			472.875,368.922 472.251,369.028 469.939,369.579 468.115,369.984 467.403,370.137 466.292,370.389 463.891,370.987 
			462.379,371.339 460.026,372.026 459.714,372.079 457.314,372.678 455.578,373.035 454.778,373.235 453.531,373.446 
			452.195,373.704 451.348,373.815 449.613,374.173 447.207,374.548 447.03,374.642 446.718,374.695 444.4,375.023 443.065,375.281 
			439.677,375.726 438.829,375.837 437.67,376.001 434.729,376.434 434.105,376.54 433.482,376.645 430.499,377.214 
			429.787,377.367 427.563,377.871 426.14,378.176 425.563,378.37 422.674,379.115 422.186,379.262 419.786,379.861 
			419.562,379.866 417.962,380.265 417.962,380.265 413.744,381.492 413.608,381.451 410.461,382.561 409.619,382.896 
			408.201,383.424 407.848,383.612 405.412,384.569 404.347,384.91 402.223,385.815 401.205,386.243 398.193,387.395 
			396.951,387.829 396.598,388.017 392.745,389.503 390.974,390.22 388.626,391.13 385.349,392.422 384.684,392.663 
			384.331,392.851 381.854,393.943 380.13,394.748 379.6,395.03 379.335,395.171 377.346,396.117 375.934,396.869 375.316,397.198 
			374.875,397.433 373.11,398.373 371.703,399.349 370.956,399.86 370.167,400.507 368.19,401.9 367.401,402.546 367.007,402.87 
			366.613,403.193 364.553,404.856 363.158,406.279 362.546,406.832 361.716,407.613 360.321,409.036 358.885,410.594 
			358.62,410.735 358.184,411.194 356.483,412.893 355.177,414.268 354.7,414.862 354.523,414.956 352.516,416.931 350.774,418.766 
			350.25,419.271 348.896,420.559 347.46,422.117 347.024,422.575 346.501,423.081 345.977,423.586 343.181,426.208 
			342.963,426.437 342.481,426.808 341.651,427.59 340.427,428.695 339.202,429.8 338.326,430.493 337.407,431.322 336.837,431.74 
			335.83,432.615 335.088,433.35 334.606,433.721 333.158,434.831 331.928,435.713 330.787,436.548 329.774,437.2 328.897,437.894 
			327.579,438.822 326.744,439.38 326.261,439.751 324.637,440.956 323.277,442.02 321.871,442.995 320.335,444.153 
			318.358,445.546 317.434,446.151 316.951,446.522 316.51,446.757 314.485,448.061 312.861,449.266 312.332,449.548 
			311.849,449.918 310.131,450.947 308.242,452.293 307.889,452.481 307.583,452.757 306.482,453.456 303.804,455.449 
			303.716,455.496 303.363,455.684 301.386,457.077 299.232,458.564 299.144,458.611 299.144,458.611 298.879,458.752 
			295.842,460.709 294.918,461.314 294.742,461.408 294.565,461.502 290.599,463.841 289.764,464.399 286.374,466.544 
			285.933,466.779 285.144,467.426 284.485,467.89 283.955,468.172 282.814,469.007 282.155,469.471 280.619,470.629 
			277.894,472.533 277.323,472.95 276.181,473.785 275.346,474.343 274.381,475.084 273.769,475.636 271.927,477.071 
			271.138,477.717 269.343,479.24 268.86,479.61 267.813,480.621 267.33,480.991 266.894,481.45 265.712,482.42 265.099,482.972 
			264.487,483.525 263.834,484.213 260.161,487.528 259.855,487.804 257.625,489.785 256.353,490.802 255.83,491.308 
			254.558,492.325 252.675,493.894 252.369,494.17 251.669,494.77 250.921,495.281 247.943,497.774 247.855,497.821 
			247.461,498.144 246.319,498.979 244.477,500.413 243.906,500.83 243.206,501.43 242.282,502.035 239.428,504.121 
			239.251,504.215 238.769,504.586 235.561,506.86 235.255,507.137 234.596,507.601 232.178,509.229 230.288,510.575 
			230.024,510.716 229.847,510.81 229.365,511.18 226.987,512.673 224.651,514.03 224.563,514.077 224.298,514.218 221.562,515.675 
			220.238,516.38 218.426,517.232 216.172,518.319 215.731,518.554 215.201,518.836 213.607,519.459 212.453,519.846 
			210.459,520.568 209.041,521.097 205.358,522.265 204.781,522.459 201.94,523.293 201.316,523.398 199.851,523.839 
			197.627,524.343 197.004,524.449 196.604,524.548 192.95,525.134 192.462,525.281 189.297,525.72 188.138,525.884 186.22,526.113 
			184.526,526.335 182.696,526.516 180.508,526.662 178.814,526.885 176.314,527.083 174.884,527.164 171.849,527.421 
			170.866,527.491 169.525,527.526 167.649,527.619 165.549,527.718 163.225,527.822 161.39,527.78 159.29,527.879 158.349,527.813 
			155.037,527.764 154.86,527.858 154.59,527.776 151.143,527.685 148.496,527.395 146.884,527.347 143.837,527.157 
			143.073,526.998 142.626,527.01 139.932,526.631 137.732,526.33 136.879,526.218 134.991,525.864 133.373,525.592 
			132.697,525.386 130.221,524.778 129.186,524.537 128.645,524.372 125.851,523.593 124.451,523.093 122.375,522.385 
			121.605,522.003 119.794,521.154 118.118,520.348 116.665,519.535 113.802,517.774 112.073,516.656 109.204,514.672 
			106.687,512.499 105.088,511.198 102.936,509.285 101.284,507.673 98.21,504.665 97.516,503.788 94.383,500.245 94.06,499.851 
			93.83,499.633 89.633,494.73 87.088,491.44 83.027,486.579 80.476,483.066 78.812,481.006 76.361,477.893 76.22,477.628 
			75.386,476.486 73.164,473.591 72.794,473.108 70.425,469.724 69.585,468.359 68.609,466.953 67.487,465.058 67.069,464.487 
			66.693,463.781 65.471,461.486 64.86,460.339 64.097,458.479 63.674,457.685 63.433,457.02 62.088,453.431 61.988,453.031 
			61.753,452.59 60.967,449.836 60.714,448.724 60.216,446.724 60.005,445.477 59.741,443.918 59.583,442.983 59.454,441.465 
			59.367,439.812 59.309,437.576 59.363,436.188 59.364,434.488 59.607,431.753 59.601,431.53 59.643,431.394 59.897,429.106 
			60.127,427.624 60.363,426.365 60.806,424.43 60.959,423.442 61.572,421.19 61.808,419.931 61.891,419.66 61.973,419.39 
			63.04,415.649 63.618,413.756 63.866,412.944 64.402,411.185 64.52,410.556 64.649,410.374 64.856,409.697 65.392,407.939 
			65.893,406.539 66.058,405.998 67.142,402.928 67.219,402.434 67.514,401.711 67.973,400.446 68.851,398.053 69.022,397.735 
			69.57,396.424 69.864,395.701 71.255,392.354 71.296,392.219 72.315,390.09 73.664,386.879 73.793,386.697 73.835,386.562 
			75.531,382.939 75.66,382.757 75.66,382.757 75.66,382.757 76.897,380.399 77.792,378.676 78.046,378.088 78.946,376.588 
			79.806,375.224 80.96,373.137 81.82,371.773 82.421,370.773 82.85,370.091 84.14,368.044 84.741,367.045 86.683,364.311 
			86.942,363.946 87.331,363.399 88.844,361.347 90.145,359.748 90.751,358.972 92.4,356.961 93.183,356.091 93.4,355.862 
			95.79,353.116 96.838,352.105 98.492,350.318 100.105,348.666 101.37,347.426 103.289,345.497 104.337,344.486 106.432,342.464 
			107.874,341.13 108.88,340.254 109.799,339.425 110.675,338.731 112.294,337.303 113.389,336.38 114.266,335.686 116.278,333.935 
			117.638,332.871 117.944,332.594 119.303,331.531 121.187,329.961 122.152,329.221 124.912,326.958 125.571,326.493 
			126.271,325.894 127.937,324.553 129.296,323.49 129.956,323.025 130.962,322.149 132.41,321.039 133.681,320.022 135.04,318.958 
			136.006,318.217 137.059,317.43 138.418,316.366 139.472,315.578 141.361,314.232 142.72,313.168 143.38,312.704 145.792,310.853 
			146.54,310.341 147.328,309.695 150.141,307.743 151.107,307.003 152.819,305.751 154.008,305.005 155.367,303.941 
			156.862,302.918 158.574,301.666 159.893,300.738 160.728,300.179 161.476,299.668 163.1,298.463 164.948,297.253 
			165.124,297.159 166.089,296.418 167.937,295.207 168.114,295.113 168.243,294.931 172.333,292.186 172.598,292.045 
			173.039,291.81 176.294,289.624 177.741,288.513 179.324,287.444 180.866,286.509 182.49,285.304 183.02,285.022 183.897,284.329 
			184.997,283.629 185.656,283.165 187.11,282.278 188.822,281.026 190.317,280.003 191.241,279.398 193.877,277.541 
			194.054,277.447 194.666,276.894 197.349,275.125 197.744,274.802 198.226,274.432 201.128,272.433 201.787,271.969 
			202.928,271.134 204.376,270.024 206.836,268.26 206.924,268.213 206.924,268.213 209.119,266.591 209.296,266.497 
			210.92,265.292 212.721,263.993 213.468,263.482 214.257,262.835 215.31,262.048 217.641,260.467 217.817,260.373 
			217.947,260.191 220.76,258.239 222.296,257.082 223.173,256.388 224.626,255.501 226.951,253.696 227.127,253.602 
			227.257,253.42 229.675,251.792 231.035,250.728 231.912,250.034 233.495,248.965 236.437,246.831 236.526,246.784 
			236.567,246.649 239.421,244.563 241.045,243.358 241.045,243.358 242.846,242.059 245.088,240.525 245.877,239.878 
			247.942,238.438 248.955,237.786 250.008,236.998 250.755,236.487 252.427,235.37 254.01,234.301 254.227,234.072 
			256.558,232.491 257.04,232.12 257.964,231.515 259.942,230.122 261.301,229.058 263.19,227.712 265.738,225.902 266.527,225.256 
			267.186,224.791 269.993,222.616 270.299,222.34 270.823,221.835 272.753,220.353 273.936,219.384 274.725,218.737 
			275.602,218.043 276.608,217.168 277.968,216.104 278.539,215.686 279.327,215.04 280.598,214.023 282.529,212.542 
			283.188,212.077 284.018,211.296 285.071,210.508 286.078,209.632 286.866,208.986 288.049,208.016 289.538,206.77 
			291.157,205.341 291.51,205.153 292.34,204.371 292.952,203.819 293.523,203.401 294.794,202.384 295.759,201.644 296.636,200.95 
			299.796,198.588 300.061,198.447 300.985,197.841 301.82,197.283 302.921,196.584 304.063,195.749 305.869,194.674 
			307.458,193.827 308.382,193.222 310.541,191.959 312.571,190.878 313.366,190.455 315.702,189.097 316.761,188.533 
			317.291,188.251 319.144,187.264 320.421,186.471 321.039,186.142 324.04,184.543 325.276,183.885 325.364,183.838 
			325.54,183.744 329.518,181.853 329.783,181.712 330.665,181.242 331.636,180.725 333.096,180.061 333.713,179.732 
			334.731,179.303 335.526,178.88 335.879,178.692 337.868,177.746 341.092,176.142 341.886,175.719 342.151,175.578 
			346.029,173.286 346.382,173.098 348.012,172.117 350.213,170.718 350.39,170.624 350.654,170.483 350.831,170.389 
			351.714,169.919 354.885,168.003 355.68,167.58 359.028,165.571 360.528,164.772 363.306,163.179 363.571,163.038 
			364.053,162.668 364.671,162.339 365.33,161.874 366.831,161.075 367.578,160.564 370.314,159.107 371.726,158.355 
			373.497,157.638 375.528,156.557 375.969,156.322 378.134,155.282 380.253,154.154 380.694,153.919 381.047,153.731 
			381.883,153.173 384.442,151.81 384.972,151.528 385.59,151.199 387.267,150.305 388.673,149.33 389.467,148.907 390.527,148.343 
			391.851,147.638 392.951,146.938 395.287,145.581 395.375,145.534 395.375,145.534 397.135,144.37 398.547,143.618 
			400.13,142.549 400.789,142.084 401.36,141.667 403.037,140.774 404.797,139.61 405.591,139.187 405.679,139.14 408.192,137.689 
			409.645,136.801 409.822,136.707 409.91,136.66 412.07,135.397 414.135,133.957 414.224,133.91 414.4,133.816 416.513,132.464 
			418.402,131.119 419.238,130.56 420.25,129.908 422.097,128.697 422.627,128.415 423.157,128.133 423.639,127.763 
			425.404,126.823 426.858,125.935 428.67,125.084 430.965,123.861 433.884,122.534 435.296,121.782 435.384,121.735 
			435.784,121.635 438.173,120.589 439.279,120.114 439.456,120.02 441.185,119.438 443.092,118.763 443.668,118.569 
			444.998,118.088 447.887,117.342 449.975,116.797 451.44,116.356 452.017,116.163 453.664,115.852 455.794,115.171 
			456.371,114.977 457.571,114.678 460.459,113.932 462.589,113.251 464.496,112.576 466.225,111.995 469.191,110.755 
			469.191,110.755 469.191,110.755 469.191,110.755 472.333,109.422 472.998,109.181 474.28,108.611 476.051,107.895 
			477.157,107.419 479.417,106.556 481.453,105.698 482.694,105.264 486.06,103.924 486.06,103.924 486.236,103.83 489.384,102.721 
			490.361,102.427 492.626,101.787 494.267,101.253 496.356,100.707 498.709,100.02 499.462,99.733 502.039,99.04 503.328,98.694 
			506.081,97.907 506.481,97.807 509.37,97.062 510.658,96.716 511.676,96.287 513.359,95.618 514.159,95.418 516.018,94.654 
			517.971,94.067 518.548,93.874 519.213,93.633 521.919,92.758 523.426,92.182 525.461,91.325 526.609,90.714 528.068,90.05 
			528.862,89.627 530.857,88.905 531.963,88.429 533.516,87.942 534.493,87.648 537.07,86.955 539.423,86.269 539.735,86.216 
			540.4,85.975 542.047,85.664 544.095,85.254 546.948,84.867 547.842,84.844 548.289,84.833 548.912,84.727 552.583,84.812 
			554.554,84.896 554.824,84.978 556.795,85.062 559.53,85.304 560.783,85.317 561.5,85.388 563.871,85.372 565.171,85.473 
			565.841,85.455 568.253,85.304 570.53,85.111 571.554,84.906 573.918,84.666 577.26,84.133 577.972,83.98 578.507,83.922 
			581.807,83.524 583.725,83.296 585.243,83.167 587.437,83.245 590.302,83.306 590.39,83.259 590.525,83.3 592.59,83.56 
			594.431,83.826 594.478,83.914 594.613,83.955 598.583,85.24 598.718,85.281 598.989,85.364 601.347,86.6 603.393,87.89 
			603.622,88.108 603.94,88.279 606.133,90.056 607.685,91.269 609.137,92.082 611.001,93.242 611.678,93.448 612.989,93.996 
			613.307,94.167 614.16,94.279 615.648,94.733 615.871,94.727 616.453,94.757 617.936,94.987 619.236,95.088 620.265,95.106 
			622.506,95.272 623.582,95.379 626.588,95.704 626.859,95.787 627.441,95.816 630.094,96.33 631.67,96.737 632.705,96.978 
			634.869,97.639 635.681,97.886 636.087,98.01 638.792,98.835 639.422,98.953 640.862,99.319 642.792,99.537 643.645,99.65 
			644.227,99.68 645.88,99.592 646.103,99.587 646.415,99.534 648.421,99.259 649.398,98.965 650.598,98.666 651.351,98.378 
			652.281,97.996 653.611,97.515 654.805,96.992 656.447,96.458 657.111,96.217 659.106,95.494 659.636,95.212 661.101,94.772 
			662.165,94.432 662.607,94.197 664.648,93.563 665.448,93.363 666.56,93.111 666.825,92.97 669.049,92.465 669.449,92.365 
			669.584,92.407 669.584,92.407 669.896,92.354 672.09,92.432 673.837,92.521 674.284,92.51 675.137,92.622 676.255,92.593 
			678.231,92.9 678.366,92.941 678.366,92.941 678.502,92.983 680.754,93.596 681.248,93.673 682.871,94.168 683.636,94.327 
			685.618,94.858 686.024,94.981 686.836,95.229 688.547,95.677 689.359,95.925 692.058,96.526 692.194,96.568 692.552,96.603 
			695.746,97.281 696.781,97.523 699.428,97.813 699.922,97.89 702.434,98.138 704.363,98.357 706.516,98.57 707.904,98.624 
			708.892,98.778 710.104,98.926 711.451,99.115 713.521,99.598 716.444,100.194 716.985,100.359 717.479,100.436 719.826,101.226 
			720.367,101.391 721.814,101.98 723.76,102.869 724.395,103.211 724.666,103.293 725.483,103.764 726.983,104.665 
			728.982,105.866 729.347,106.125 729.529,106.255 730.805,107.162 732.128,108.157 732.445,108.327 733.956,109.675 
			735.743,111.329 736.296,111.941 737.266,113.124 738.095,114.043 738.424,114.66 		">
		</polygon>
		<polygon slic3r:type="hole" style="stroke:#000000;stroke-miterlimit:10;" points="685.025,190.116 684.566,189.681 
			682.314,189.067 681.143,188.784 679.584,189.048 679.008,189.242 678.384,189.347 675.313,189.963 674.96,190.151 
			672.83,190.832 671.542,191.179 671.318,191.184 671.142,191.278 670.918,191.284 667.553,192.623 666.27,193.193 
			664.546,193.998 663.087,194.662 662.822,194.803 661.628,195.325 660.262,196.166 657.661,197.664 657.132,197.946 
			656.737,198.27 654.801,199.527 654.231,199.944 652.777,200.832 651.989,201.478 649.97,203.007 649.576,203.33 649.181,203.653 
			647.61,205.17 647.174,205.628 646.221,206.816 645.661,207.68 645.449,208.133 645.196,208.721 644.689,209.897 644.235,211.385 
			644.593,213.121 644.699,213.745 645.028,214.362 646.539,215.71 646.768,215.928 647.221,216.14 648.667,216.729 
			649.703,216.971 649.838,217.012 650.914,217.119 652.079,217.178 654.044,217.038 656.362,216.71 657.521,216.546 
			661.074,215.56 661.074,215.56 661.162,215.513 663.686,214.509 664.84,214.122 665.987,213.51 667.446,212.847 669.341,211.724 
			670.224,211.254 670.842,210.925 672.425,209.856 672.513,209.809 672.689,209.715 674.314,208.51 674.973,208.045 
			677.727,205.559 677.815,205.512 677.904,205.465 677.904,205.465 679.911,203.49 681.477,201.749 681.647,201.432 
			682.772,199.927 683.767,198.604 683.896,198.421 684.067,198.104 685.31,195.969 685.852,194.434 686.022,194.117 
			685.881,193.852 686.188,191.876 		">
		</polygon>
	</g>
</g>
<g id="Layer_1">
</g>
</svg>
