<?xml version="1.0" encoding="iso-8859-1"?>
<!-- Generator: Adobe Illustrator 19.2.1, SVG Export Plug-In . SVG Version: 6.00 Build 0)  -->
<svg version="1.1" xmlns="http://www.w3.org/2000/svg" xmlns:xlink="http://www.w3.org/1999/xlink" x="0px" y="0px"
	 viewBox="0 0 841.89 595.28" style="enable-background:new 0 0 841.89 595.28;" xml:space="preserve">
<g id="layer228">
	<g id="layer228_1_" slic3r:z="9.14000000000008e-005">
		<polygon slic3r:type="contour" style="fill:#FFFFFF;stroke:#000000;stroke-miterlimit:10;" points="763.719,209.388 
			764.03,211.035 764.124,211.211 764.205,212.641 764.193,213.894 764.321,215.411 764.338,216.082 763.989,219.894 
			763.871,220.523 763.918,220.611 763.83,220.658 763.794,221.017 763.163,224.299 762.839,225.605 762.42,226.734 
			761.955,227.775 761.619,228.633 761.366,229.221 760.688,230.715 760.058,232.297 759.457,233.297 758.386,235.114 
			757.273,237.066 756.501,238.383 755.477,240.288 754.87,241.065 754.27,242.064 753.239,243.746 752.333,245.022 
			751.726,245.798 750.26,247.938 750.131,248.12 749.913,248.35 748.129,250.319 747.435,251.142 745.999,252.7 744.957,253.935 
			743.997,254.899 742.732,256.14 741.902,256.921 739.677,259.126 738.977,259.725 736.44,261.983 735.869,262.4 733.721,264.111 
			732.709,264.763 730.908,266.062 729.766,266.896 729.284,267.267 727.171,268.618 726.159,269.271 724.659,270.07 
			721.922,271.527 720.551,272.144 717.368,273.612 715.95,274.141 713.202,275.151 710.496,276.026 709.031,276.466 
			706.319,277.117 705.03,277.464 704.23,277.663 701.159,278.279 697.471,279.224 697.159,279.276 696.935,279.282 693.07,280.321 
			690.093,281.113 688.763,281.595 685.039,282.899 684.727,282.951 681.979,283.961 680.697,284.531 680.473,284.537 
			676.978,286.058 676.049,286.44 673.883,287.48 671.671,288.432 670.653,288.86 669.152,289.659 667.164,290.605 665.575,291.451 
			663.986,292.297 661.297,293.843 660.856,294.078 660.767,294.125 660.414,294.313 658.255,295.576 656.713,296.511 
			656.536,296.605 654.506,297.686 653.406,298.385 651.552,299.372 648.999,300.959 648.381,301.288 647.81,301.705 
			645.432,303.198 644.285,303.809 643.491,304.232 642.255,304.89 640.184,306.107 639.036,306.718 636.082,308.404 
			635.729,308.592 635.641,308.639 635.288,308.827 633.04,310.137 631.539,310.937 630.61,311.318 629.815,311.741 
			627.209,313.016 625.75,313.68 622.525,315.284 621.995,315.566 619.918,316.559 618.459,317.223 618.106,317.411 
			614.788,318.838 613.281,319.414 610.893,320.459 608.368,321.464 606.686,322.133 603.32,323.472 603.32,323.472 
			603.232,323.519 600.043,324.764 599.866,324.858 597.207,325.822 596.542,326.062 594.948,326.685 593.841,327.161 
			591.535,327.936 589.587,328.746 587.369,329.474 584.18,330.719 583.115,331.06 579.126,332.505 578.726,332.604 
			576.908,333.233 574.514,334.055 574.025,334.202 570.207,335.329 568.83,335.722 565.989,336.555 564.077,337.007 561.9,337.6 
			560.076,338.005 557.94,338.462 556.781,338.626 554.422,339.09 553.263,339.254 551.081,339.623 549.122,339.986 547.963,340.15 
			545.822,340.384 545.375,340.396 543.457,340.624 541.315,340.858 540.468,340.969 538.062,341.344 537.839,341.35 
			537.703,341.309 535.162,341.643 532.932,341.924 531.326,342.099 528.785,342.433 526.555,342.714 524.902,342.801 
			522.849,342.988 521.42,343.07 520.167,343.057 518.826,343.091 517.261,343.132 515.961,343.031 512.826,342.888 
			512.244,342.858 512.02,342.864 509.15,342.58 508.926,342.585 508.926,342.585 506.279,342.296 505.609,342.313 503.456,342.1 
			501.079,341.892 500.185,341.915 497.762,341.62 496.015,341.531 494.85,341.471 491.133,341.298 490.997,341.257 
			490.951,341.169 490.639,341.221 487.456,340.99 486.157,340.889 484.274,340.759 484.051,340.764 482.392,340.628 
			480.598,340.451 479.027,340.267 476.698,340.148 475.622,340.042 473.516,339.917 472.487,339.899 472.128,339.863 
			469.351,339.755 465.857,339.577 465.722,339.536 465.499,339.541 462.763,339.299 461.105,339.162 459.534,338.979 
			458.817,338.908 457.423,338.631 455.582,338.365 455.311,338.282 455.311,338.282 452.253,337.645 451.264,337.492 
			449.194,337.008 446.947,336.618 446.047,336.418 445.418,336.3 443.26,335.863 442.001,335.627 441.595,335.503 439.031,334.943 
			437.549,334.713 435.884,334.353 433.955,334.134 433.325,334.016 432.743,333.986 430.679,333.726 429.826,333.614 
			429.108,333.543 427.896,333.395 425.738,332.958 423.897,332.693 422.415,332.462 420.438,332.155 418.062,331.948 
			417.074,331.794 416.268,331.77 414.074,331.692 412.462,331.644 411.48,331.714 409.556,331.719 407.55,331.994 406.303,332.205 
			404.656,332.516 402.744,332.968 401.632,333.22 399.808,333.625 398.52,333.971 397.543,334.265 395.813,334.846 
			394.436,335.239 391.777,336.202 390.712,336.543 387.747,337.782 387.082,338.023 384.646,338.98 383.893,339.268 
			381.769,340.173 380.221,340.884 378.85,341.5 377.921,341.882 376.461,342.546 375.355,343.022 373.896,343.686 371.954,344.72 
			371.113,345.054 370.848,345.195 370.189,345.66 368.2,346.606 367.053,347.217 365.199,348.204 363.304,349.326 361.41,350.449 
			360.439,350.966 358.014,352.37 357.926,352.417 357.396,352.699 354.619,354.292 354.089,354.574 351,356.219 350.518,356.589 
			349.811,356.965 347.164,358.375 346.634,358.657 344.916,359.686 343.109,360.761 342.009,361.46 341.173,362.019 
			339.284,363.365 337.577,364.84 337.095,365.21 334.994,367.009 333.728,368.249 332.245,369.719 331.456,370.366 
			329.667,372.112 329.143,372.617 328.925,372.846 328.36,373.487 326.394,375.327 325.217,376.521 324.476,377.256 
			323.822,377.943 322.733,379.09 322.127,379.866 321.474,380.554 320.173,382.153 319.955,382.382 319.654,382.882 
			318.183,384.799 316.634,387.21 315.857,388.303 315.121,389.262 312.978,392.896 311.435,395.53 310.281,397.617 309.25,399.299 
			307.584,402.339 307.372,402.792 306.647,404.198 305.576,406.015 305.11,407.056 303.403,410.231 302.378,412.136 
			301.907,412.954 299.893,416.405 299.422,417.223 297.49,420.404 297.231,420.768 297.19,420.904 296.118,422.721 
			295.306,424.173 294.446,425.537 293.557,427.484 293.427,427.666 293.427,427.666 293.174,428.254 292.414,430.018 
			292.119,430.742 291.536,432.412 290.9,433.77 290.193,435.846 289.94,436.435 289.645,437.158 288.508,439.916 288.255,440.504 
			288.131,440.91 288.043,440.957 287.577,441.998 286.935,443.133 285.663,445.85 285.534,446.032 285.063,446.849 
			284.079,448.619 283.302,449.713 282.919,450.483 281.795,451.988 280.034,454.852 279.946,454.899 279.816,455.081 
			279.599,455.311 278.262,457.269 277.096,458.909 276.79,459.185 276.231,460.05 275.277,461.237 274.282,462.56 273.635,463.472 
			272.416,464.8 270.945,466.717 270.25,467.54 269.903,467.952 269.385,468.681 267.171,471.332 266.912,471.697 266.824,471.744 
			266.606,471.973 265.258,473.484 263.433,475.589 262.909,476.095 262.303,476.871 261.302,477.97 260.302,479.069 
			259.913,479.616 258,481.768 256.693,483.144 256.346,483.555 255.039,484.931 253.821,486.26 253.121,486.859 252.685,487.318 
			251.114,488.834 249.589,490.439 249.459,490.622 248.936,491.127 247.099,492.785 245.133,494.625 244.957,494.719 
			244.869,494.766 241.838,496.946 240.914,497.552 239.066,498.762 237.966,499.462 236.248,500.49 235.059,501.236 
			233.117,502.271 232.411,502.647 232.146,502.788 229.581,503.927 229.228,504.115 227.633,504.738 226.127,505.313 
			225.639,505.46 222.714,506.564 220.72,507.286 219.967,507.574 217.749,508.302 216.86,508.549 214.995,509.089 213.13,509.629 
			212.33,509.828 211.13,510.128 209.706,510.433 208.459,510.644 206.724,511.001 205.123,511.401 203.564,511.664 200.893,512.18 
			200.405,512.327 200.27,512.286 199.646,512.391 197.552,512.714 195.546,512.989 195.369,513.083 192.557,513.334 
			192.557,513.334 189.21,513.644 188.763,513.655 186.71,513.842 185.057,513.93 184.657,514.029 184.298,513.994 182.063,514.051 
			181.751,514.104 180.498,514.091 178.933,514.132 178.486,514.143 174.863,514.147 174.416,514.158 171.192,514.062 
			170.61,514.032 167.745,513.972 167.163,513.942 166.086,513.836 164.204,513.705 161.516,513.55 160.528,513.397 
			157.122,513.171 156.316,513.147 153.711,512.722 153.711,512.722 153.711,512.722 151.423,512.468 149.446,512.161 
			147.964,511.93 146.523,511.565 145.129,511.288 143.288,511.022 141.712,510.615 139.012,510.013 138.471,509.848 
			137.571,509.648 135.813,509.111 134.19,508.616 132.837,508.204 130.626,507.455 129.408,507.084 129.091,506.913 
			128.232,506.577 126.427,505.953 124.392,505.11 124.074,504.939 123.939,504.898 121.628,503.75 119.858,502.766 
			119.676,502.637 117.77,501.612 117.77,501.612 115.953,500.54 114.225,499.422 113.313,498.774 110.303,496.525 109.891,496.178 
			109.844,496.09 105.594,492.575 104.588,491.751 103.53,490.615 100.414,487.743 99.538,486.736 96.969,484.252 94.124,481.462 
			93.801,481.068 90.814,478.013 90.356,477.578 87.187,474.393 84.665,471.998 83.013,470.385 80.35,467.725 79.709,467.159 
			79.156,466.547 78.281,465.541 77.681,464.841 77.076,463.917 76.277,462.416 75.148,460.298 74.391,458.662 73.533,456.626 
			72.717,454.455 72.523,453.879 72.417,453.255 71.772,450.766 71.561,449.519 71.15,447.472 70.858,444.795 70.747,443.948 
			70.735,443.501 70.589,441.313 70.397,439.036 70.415,438.007 70.417,434.607 70.342,431.701 70.396,430.313 70.427,428.03 
			70.51,426.06 70.57,424.895 70.76,421.848 70.986,418.442 71.139,417.454 71.441,415.254 71.701,413.19 71.86,412.425 
			72.486,408.92 72.887,407.12 73.211,405.814 73.789,403.921 74.278,402.074 74.608,400.992 75.262,398.604 75.351,398.557 
			76.264,395.804 76.471,395.128 77.814,391.694 78.061,390.882 78.485,389.976 79.722,387.618 80.311,386.172 81.03,384.543 
			81.796,383.002 83.162,380.462 83.503,379.826 84.404,378.327 85.558,376.239 85.988,375.557 87.743,372.47 88.302,371.606 
			89.545,369.471 90.234,368.425 90.752,367.696 91.612,366.331 92,365.785 93.036,364.326 94.591,362.139 94.808,361.91 
			96.622,359.358 96.881,358.993 97.269,358.447 99.224,356.16 100.348,354.654 101.001,353.967 101.914,352.914 103.174,351.45 
			104.086,350.398 105.216,349.116 105.563,348.705 107.047,347.235 107.877,346.453 109.142,345.213 111.543,342.914 
			111.979,342.456 112.244,342.315 112.462,342.085 114.21,340.475 115.04,339.693 115.828,339.046 116.134,338.77 118.765,336.689 
			119.159,336.366 119.948,335.719 121.396,334.608 122.932,333.45 124.644,332.199 125.568,331.593 127.234,330.253 
			127.587,330.065 127.675,330.018 129.958,328.349 130.046,328.302 132.2,326.815 132.771,326.398 133.96,325.651 135.896,324.394 
			136.643,323.882 138.709,322.442 139.327,322.113 139.545,321.884 141.745,320.485 142.363,320.156 143.287,319.551 
			145.4,318.199 147.642,316.665 148.171,316.383 148.477,316.107 150.107,315.126 151.12,314.474 151.955,313.915 152.308,313.727 
			153.32,313.075 155.215,311.952 155.698,311.582 156.533,311.024 157.899,310.184 158.958,309.619 160.453,308.597 
			161.906,307.709 163.577,306.593 163.754,306.499 165.249,305.476 166.084,304.918 167.538,304.031 169.433,302.908 
			170.003,302.491 171.369,301.651 172.999,300.669 173.746,300.158 176.606,298.295 177.177,297.878 178.277,297.178 
			179.907,296.197 181.755,294.986 181.755,294.986 184.35,293.264 184.703,293.076 186.463,291.913 188.311,290.702 
			188.487,290.608 188.97,290.238 191.124,288.751 193.013,287.405 193.407,287.082 193.583,286.988 194.507,286.382 
			196.443,285.125 197.149,284.749 198.862,283.497 199.957,282.574 201.628,281.457 203.34,280.205 203.823,279.835 
			205.494,278.718 206.506,278.066 208.219,276.814 208.919,276.215 210.461,275.28 211.297,274.722 211.779,274.352 
			213.804,273.047 215.905,271.248 215.993,271.201 216.17,271.107 218.5,269.526 220.295,268.004 220.424,267.822 220.866,267.587 
			222.843,266.194 223.455,265.641 225.033,264.348 225.692,263.884 227.487,262.361 228.057,261.944 228.234,261.85 
			228.717,261.48 231.265,259.669 232.183,258.84 234.066,257.271 234.637,256.854 236.044,255.878 237.097,255.091 
			237.621,254.585 239.51,253.239 240.387,252.545 242.358,250.929 242.841,250.559 243.894,249.771 245.477,248.702 
			246.484,247.826 248.02,246.668 248.85,245.886 250.821,244.269 251.127,243.993 251.786,243.529 253.758,241.912 
			255.206,240.802 256.389,239.832 257.001,239.279 259.325,237.475 259.367,237.339 259.455,237.292 262.309,235.206 
			263.58,234.189 264.722,233.354 265.422,232.755 267.747,230.95 267.747,230.95 267.747,230.95 270.907,228.588 272.137,227.706 
			273.279,226.871 274.156,226.178 275.515,225.114 276.263,224.603 277.316,223.815 279.599,222.146 280.829,221.264 
			281.971,220.43 283.548,219.136 283.725,219.042 284.119,218.719 285.22,218.02 285.614,217.697 288.203,215.751 289.698,214.728 
			290.751,213.941 292.023,212.924 292.287,212.783 293.294,211.907 293.865,211.49 294.041,211.396 294.129,211.349 
			296.542,209.497 298.431,208.151 299.573,207.317 300.538,206.576 300.844,206.3 302.251,205.324 302.733,204.954 
			302.822,204.907 304.975,203.42 305.417,203.185 305.899,202.815 307.394,201.792 309.242,200.581 311.967,198.677 
			312.231,198.536 312.891,198.072 313.508,197.743 313.861,197.555 315.974,196.203 316.633,195.739 317.734,195.04 
			318.528,194.617 319.01,194.246 321.123,192.895 321.3,192.801 321.959,192.336 324.071,190.985 324.689,190.656 326.007,189.727 
			326.272,189.586 327.067,189.163 329.356,187.717 330.497,186.883 330.674,186.789 331.821,186.178 333.581,185.014 
			334.022,184.779 334.681,184.315 335.476,183.892 335.829,183.704 336.841,183.051 338.953,181.7 340.142,180.953 
			342.608,179.414 343.179,178.996 344.85,177.88 346.521,176.763 347.004,176.393 347.18,176.299 347.445,176.158 348.104,175.693 
			349.422,174.765 351.711,173.319 352.282,172.902 354.042,171.738 355.931,170.392 358.479,168.582 358.479,168.582 
			358.656,168.488 360.15,167.465 361.162,166.813 362.128,166.073 363.052,165.467 364.24,164.721 364.458,164.492 
			365.164,164.116 367.536,162.399 368.501,161.659 368.589,161.612 368.677,161.565 368.854,161.471 371.973,159.243 
			372.938,158.503 374.08,157.668 376.404,155.864 377.193,155.217 377.94,154.706 379.694,153.318 380.659,152.578 
			381.448,151.931 382.678,151.05 384.914,149.292 385.003,149.245 385.703,148.646 386.362,148.181 388.204,146.747 
			389.258,145.96 390.005,145.448 392.989,143.18 393.648,142.715 393.736,142.668 394.348,142.116 395.095,141.604 
			396.896,140.305 397.903,139.43 398.474,139.012 401.499,136.608 402.158,136.144 402.287,135.962 403.035,135.45 
			403.735,134.851 405.312,133.558 406.454,132.723 406.978,132.217 410.097,129.99 410.709,129.437 410.885,129.343 
			411.456,128.926 412.204,128.415 414.181,127.022 415.234,126.234 415.587,126.046 419.718,123.166 419.718,123.166 
			419.807,123.119 419.76,123.031 420.907,122.42 423.149,120.886 423.944,120.463 424.603,119.999 427.115,118.547 
			428.304,117.801 428.522,117.572 429.14,117.243 432.535,115.321 434.124,114.475 436.636,113.024 436.725,112.977 
			436.813,112.93 436.989,112.836 439.108,111.708 440.961,110.72 444.139,109.028 445.157,108.6 445.157,108.6 449.046,106.755 
			449.446,106.655 449.534,106.608 449.711,106.514 453.647,104.758 454.889,104.323 456.483,103.701 457.813,103.219 
			460.561,102.209 460.737,102.115 462.867,101.434 463.844,101.14 466.15,100.365 466.638,100.218 469.257,99.391 471.122,98.851 
			472.41,98.504 474.852,97.771 476.14,97.424 478.229,96.878 479.205,96.585 480.094,96.338 482.006,95.887 484.188,95.517 
			485.524,95.259 487.706,94.89 488.465,94.826 490.383,94.598 492.613,94.317 493.995,94.147 496.719,93.943 497.742,93.737 
			500.019,93.545 500.866,93.433 503.231,93.194 504.213,93.124 504.437,93.118 504.972,93.059 508.719,92.65 510.461,92.516 
			512.514,92.329 514.743,92.048 515.19,92.036 515.59,91.937 517.332,91.802 518.714,91.633 519.25,91.574 521.303,91.387 
			522.332,91.405 524.967,91.248 525.679,91.096 525.903,91.09 526.485,91.12 528.226,90.985 529.209,90.915 530.903,90.693 
			532.244,90.658 533.538,90.536 534.339,90.336 536.168,90.155 537.503,89.897 540.221,89.469 540.71,89.322 542.133,89.017 
			543.157,88.812 544.534,88.419 545.822,88.073 546.175,87.885 548.741,86.745 550.153,85.993 551.212,85.429 552.406,84.906 
			553.777,84.289 555.672,83.167 556.202,82.885 556.467,82.744 558.367,81.845 559.25,81.375 559.426,81.281 562.168,80.047 
			563.18,79.395 565.434,78.308 566.099,78.067 568.706,76.792 569.459,76.505 569.77,76.452 570.835,76.111 571.635,75.912 
			572.53,75.889 572.977,75.877 574.235,76.113 574.594,76.149 574.953,76.184 576.982,76.803 578.699,77.475 578.882,77.604 
			579.064,77.734 581.11,79.023 583.421,80.172 584.015,80.649 584.874,80.985 586.691,82.056 588.414,82.951 588.778,83.21 
			589.595,83.682 591.007,84.629 591.324,84.8 593.559,86.443 593.653,86.619 593.835,86.749 596.122,88.703 598.221,90.304 
			598.997,90.911 599.638,91.476 601.778,92.942 603.189,93.89 605.483,94.368 606.295,94.615 607.189,94.592 608.53,94.558 
			610.442,94.106 610.842,94.006 611.725,93.536 613.361,92.778 613.625,92.637 614.331,92.261 615.52,91.515 617.233,90.263 
			617.892,89.799 618.463,89.381 620.393,87.9 621.576,86.93 622.588,86.278 623.247,85.814 624.565,84.885 625.666,84.186 
			626.548,83.716 627.213,83.475 629.696,82.606 631.214,82.477 632.549,82.219 634.443,82.797 634.714,82.88 637.025,84.028 
			637.707,84.458 639.441,85.8 640.306,86.359 641.764,87.396 642.634,88.179 643.592,88.914 646.103,90.863 646.791,91.516 
			647.52,92.034 650.171,94.248 650.901,94.766 651.724,95.461 653.282,96.897 654.152,97.68 656.033,99.51 656.215,99.64 
			656.309,99.816 658.337,102.135 659.713,103.442 660.959,104.931 661.929,106.114 662.622,106.991 664.062,109.056 
			664.109,109.145 664.203,109.321 665.473,111.704 666.124,114.416 666.271,114.905 666.323,115.217 665.998,118.222 
			666.045,118.31 665.957,118.357 665.073,120.528 664.161,121.58 663.331,122.362 662.542,123.008 661.4,123.843 660.694,124.219 
			659.012,124.889 658.17,125.223 657.817,125.411 655.505,125.963 654.528,126.256 652.881,126.567 652.481,126.667 
			650.693,126.713 649.487,126.789 648.681,126.765 648.275,126.641 647.693,126.611 645.181,126.362 644.105,126.256 
			641.193,126.107 640.699,126.03 640.252,126.042 637.97,126.011 637.164,125.987 636.493,126.004 633.993,126.203 633.77,126.208 
			633.681,126.255 632.216,126.696 631.016,126.995 630.928,127.042 630.84,127.089 628.327,128.54 627.886,128.775 
			626.874,129.428 625.732,130.262 624.249,131.732 623.896,131.92 623.766,132.102 622.289,133.796 621.9,134.342 621.369,136.324 
			621.251,136.954 621.398,137.442 621.95,139.754 622.414,140.413 622.79,141.119 623.489,142.22 624.365,143.226 625.147,144.056 
			626.205,145.192 626.846,145.757 628.081,146.799 629.274,147.976 631.467,149.754 633.119,151.367 634.677,152.803 
			636.605,154.722 638.304,156.423 639.592,157.777 641.155,159.436 642.354,160.837 644.57,163.509 644.8,163.727 644.847,163.815 
			644.988,164.08 647.345,167.017 648.085,167.982 648.597,168.729 649.061,169.388 650.454,171.366 650.501,171.454 
			650.965,172.113 651.941,173.52 652.035,173.696 653.151,175.367 654.321,177.35 654.738,177.921 655.114,178.627 
			656.419,180.652 657.218,182.152 658.293,183.959 659.28,185.812 660.549,188.195 660.785,188.637 661.025,189.302 
			662.347,191.996 662.823,193.103 663.681,195.138 664.062,196.068 664.884,198.463 665.513,200.281 666.252,202.946 
			666.299,203.034 666.346,203.122 666.787,204.587 667.045,205.923 667.186,206.188 667.596,208.235 667.807,209.482 
			667.854,209.57 667.901,209.659 668.001,210.059 668.57,213.041 668.675,213.665 668.927,214.777 669.033,215.401 
			669.373,216.465 669.479,217.089 669.72,217.754 669.919,218.554 670.107,218.907 670.448,219.972 671.388,221.737 
			671.717,222.355 672.087,222.838 673.333,224.327 675.197,225.487 675.38,225.616 675.515,225.657 677.809,226.135 
			678.797,226.289 678.885,226.242 681.785,225.944 682.274,225.797 683.692,225.268 683.827,225.31 685.11,224.74 686.298,223.993 
			687.222,223.388 689.029,222.313 689.247,222.083 689.335,222.036 689.511,221.942 692.06,220.132 694.125,218.692 
			694.343,218.463 694.825,218.093 696.32,217.07 696.979,216.606 698.209,215.724 699.221,215.072 700.628,214.096 
			701.287,213.632 702.387,212.933 703.447,212.369 705.124,211.475 705.477,211.287 707.33,210.3 707.33,210.3 708.925,209.678 
			709.807,209.208 711.849,208.574 713.755,207.898 716.062,207.123 717.262,206.824 719.35,206.278 721.709,205.815 
			722.645,205.657 722.957,205.604 724.651,205.381 727.057,205.006 727.681,204.901 728.886,204.825 731.028,204.591 
			733.616,204.346 734.198,204.375 735.316,204.347 736.834,204.218 738.04,204.143 739.469,204.061 740.722,204.074 
			742.016,203.951 742.911,203.928 744.964,203.741 745.722,203.677 746.57,203.565 747.999,203.484 748.846,203.373 750.54,203.15 
			750.852,203.097 752.282,203.016 752.817,202.957 755.864,203.148 756.088,203.142 756.223,203.183 759.24,203.955 
			760.463,204.55 762.115,206.163 762.209,206.34 762.35,206.604 763.378,208.323 		">
		</polygon>
	</g>
</g>
<g id="Layer_1">
</g>
</svg>
