<?xml version="1.0" encoding="iso-8859-1"?>
<!-- Generator: Adobe Illustrator 19.2.1, SVG Export Plug-In . SVG Version: 6.00 Build 0)  -->
<svg version="1.1" xmlns="http://www.w3.org/2000/svg" xmlns:xlink="http://www.w3.org/1999/xlink" x="0px" y="0px"
	 viewBox="0 0 841.89 595.28" style="enable-background:new 0 0 841.89 595.28;" xml:space="preserve">
<g id="layer219">
	<g id="layer219_1_" slic3r:z="8.78000000000007e-005">
		<polygon slic3r:type="contour" style="fill:#FFFFFF;stroke:#000000;stroke-miterlimit:10;" points="753.131,218.652 
			753.812,220.782 754.147,221.623 754.211,222.382 754.38,225.464 754.202,227.258 754.049,228.246 753.683,229.687 
			753.282,231.487 752.251,234.869 752.127,235.275 751.997,235.457 750.607,238.803 750.312,239.526 749.723,240.973 
			749.046,242.467 748.487,243.331 747.685,245.231 747.126,246.095 746.826,246.595 745.96,247.736 744.842,249.464 
			744.282,250.329 743.464,251.558 743.287,251.652 742.287,252.751 741.639,253.662 740.55,254.809 739.85,255.408 739.503,255.82 
			738.278,256.925 737.184,257.848 736.878,258.124 736.001,258.818 734.2,260.117 733.411,260.763 731.522,262.109 
			730.333,262.855 729.057,263.649 727.297,264.812 726.108,265.559 723.378,267.24 722.937,267.475 722.76,267.569 
			719.889,268.984 719.447,269.219 717.235,270.171 714.093,271.504 714.093,271.504 714.093,271.504 714.005,271.551 
			710.68,272.755 710.104,272.949 708.062,273.583 707.221,273.918 706.909,273.971 703.709,274.769 702.997,274.921 
			700.773,275.426 698.326,275.936 697.302,276.141 694.678,276.746 693.743,276.904 693.566,276.998 690.142,277.802 
			689.342,278.001 686.765,278.694 685.788,278.987 682.635,279.874 682.323,279.926 681.747,280.12 678.952,281.042 
			676.645,281.817 676.334,281.87 675.581,282.157 673.898,282.827 673.233,283.068 671.197,283.925 669.514,284.595 
			667.92,285.217 665.36,286.581 664.784,286.774 664.431,286.962 661.736,288.284 658.782,289.971 658.782,289.971 
			658.782,289.971 656.581,291.369 656.493,291.416 655.08,292.169 654.415,292.409 652.785,293.391 651.02,294.331 
			649.125,295.453 647.407,296.482 646.925,296.852 645.559,297.692 644.941,298.021 644.5,298.256 643.4,298.956 642.429,299.473 
			639.828,300.971 639.651,301.065 639.563,301.112 637.227,302.469 634.714,303.921 634.626,303.968 634.45,304.062 
			631.849,305.56 630.172,306.453 629.377,306.876 628.583,307.299 626.818,308.24 624.699,309.368 623.817,309.838 623.287,310.12 
			620.592,311.442 620.239,311.63 619.356,312.1 616.968,313.145 615.332,313.903 613.873,314.567 611.572,315.566 610.866,315.942 
			610.289,316.135 607.412,317.328 605.729,317.997 603.605,318.902 602.276,319.383 599.44,320.441 598.598,320.775 
			598.069,321.057 594.833,322.214 591.82,323.365 591.155,323.606 590.002,323.994 587.655,324.904 586.413,325.338 
			584.107,326.114 581.93,326.706 580.777,327.094 578.382,327.916 576.294,328.462 574.74,328.949 573.317,329.254 
			571.051,329.894 569.763,330.24 568.739,330.445 565.804,331.102 561.574,331.882 561.486,331.929 561.397,331.976 
			556.362,332.732 555.067,332.855 551.455,333.305 551.232,333.311 551.143,333.358 548.108,333.615 545.473,333.772 
			545.073,333.872 542.478,333.894 540.378,333.993 538.59,334.039 536.714,334.132 535.461,334.119 532.914,334.229 
			532.419,334.153 530.408,334.204 529.514,334.227 529.155,334.192 526.514,334.126 524.496,333.954 522.884,333.906 
			520.914,333.822 518.896,333.65 518.267,333.532 517.008,333.296 515.079,333.077 514.855,333.083 514.72,333.042 
			512.562,332.605 511.391,332.322 511.303,332.369 508.65,331.856 507.256,331.579 505.639,331.307 504.921,331.236 
			502.451,330.852 501.463,330.699 501.104,330.663 498.051,330.249 496.793,330.013 494.146,329.723 494.01,329.682 
			491.587,329.387 490.375,329.239 488.805,329.056 486.47,328.713 485.393,328.606 484.676,328.535 482.7,328.228 480.859,327.962 
			480.006,327.85 477.494,327.602 475.565,327.383 473.994,327.199 473.006,327.046 470.759,326.656 469.548,326.509 
			468.018,326.19 465.413,325.765 464.783,325.647 464.466,325.476 463.566,325.275 461.178,324.621 459.326,323.908 
			457.885,323.543 455.897,322.788 453.68,321.816 453.274,321.693 451.098,320.586 450.828,320.503 450.693,320.462 
			448.517,319.355 447.47,318.666 445.33,317.2 444.33,316.599 443.695,316.257 442.278,315.086 439.95,313.267 438.762,312.313 
			436.434,310.494 435.152,309.364 432.189,307.203 431.642,306.815 431.413,306.597 428.043,304.313 427.996,304.224 
			427.814,304.095 425.133,302.464 423.045,301.31 422.91,301.268 422.863,301.18 420.781,300.249 419.476,299.925 418.17,299.601 
			415.788,299.17 414.935,299.058 413.859,298.951 410.77,298.896 407.6,299.112 406.841,299.176 406.082,299.24 402.652,299.821 
			400.428,300.325 398.916,300.677 396.339,301.37 396.028,301.423 395.804,301.428 393.274,302.209 392.121,302.597 
			389.773,303.507 389.462,303.56 387.114,304.47 385.92,304.993 382.336,306.561 382.071,306.702 381.983,306.749 378.759,308.353 
			376.905,309.34 376.729,309.434 375.14,310.28 373.286,311.268 371.698,312.114 369.097,313.612 368.349,314.123 366.808,315.058 
			365.572,315.716 364.16,316.468 362.312,317.679 360.641,318.795 360.158,319.165 358.351,320.241 357.557,320.664 
			356.768,321.31 353.561,323.585 352.596,324.326 349.701,326.547 349.041,327.012 348.647,327.335 348.165,327.705 
			345.134,329.886 344.08,330.673 343.727,330.861 342.409,331.79 340.079,333.371 339.373,333.747 336.777,335.469 
			335.236,336.403 334.883,336.591 332.729,338.078 331.193,339.236 328.868,341.041 327.773,341.963 326.332,343.298 
			325.543,343.944 323.754,345.69 322.924,346.472 322.312,347.025 319.516,349.647 318.821,350.47 316.991,352.351 
			316.337,353.039 315.425,354.091 313.983,355.426 312.205,357.619 311.599,358.395 310.992,359.171 309.35,361.405 
			308.231,363.134 307.413,364.363 306.429,366.133 304.757,368.949 304.368,369.496 304.245,369.902 302.743,372.401 
			302.278,373.442 301.506,374.759 300.7,376.435 300.105,377.658 299.469,379.017 299.133,379.875 298.332,381.775 
			297.448,383.945 297.236,384.398 297.112,384.804 295.863,388.415 295.863,388.415 295.869,388.638 294.914,391.526 
			294.961,391.614 294.26,393.914 293.806,395.402 293.358,397.113 293.027,398.195 292.279,400.406 292.197,400.677 
			291.949,401.489 291.277,403.206 290.983,403.929 290.223,405.694 289.593,407.275 289.257,408.134 288.326,410.216 
			288.114,410.669 288.073,410.804 287.013,413.068 286.589,413.974 286.041,415.285 285.275,416.826 284.81,417.867 
			283.791,419.995 283.579,420.448 283.537,420.584 282.612,422.889 282.065,424.2 281.558,425.376 281.352,426.053 
			280.462,427.999 279.914,429.311 279.449,430.352 278.353,432.975 278.271,433.245 277.381,435.192 277.258,435.597 
			276.115,438.132 275.65,439.173 275.314,440.031 274.13,442.701 273.918,443.154 273.376,444.689 273.376,444.689 
			273.376,444.689 273.376,444.689 271.838,449.247 270.624,452.499 270.123,453.899 270.082,454.034 268.798,456.304 
			267.52,458.797 267.344,458.891 267.131,459.344 264.594,463.301 264.423,463.619 264.164,463.984 263.086,465.577 
			261.756,467.759 261.108,468.67 260.72,469.217 260.025,470.04 258.553,471.957 257.429,473.462 256.34,474.608 255.733,475.384 
			255.168,476.025 253.473,477.948 251.872,480.047 251.831,480.182 251.348,480.552 249.559,482.298 248.081,483.991 
			247.122,484.956 246.074,485.967 245.073,487.066 244.332,487.801 243.631,488.4 242.76,489.318 241.577,490.287 240.353,491.393 
			239.741,491.945 238.905,492.503 238.464,492.738 236.222,494.272 235.163,494.836 233.58,495.906 232.432,496.517 
			231.903,496.799 230.049,497.786 229.031,498.215 227.172,498.979 223.983,500.224 223.807,500.318 223.63,500.412 
			220.082,501.621 217.599,502.49 215.693,503.166 213.563,503.847 211.033,504.628 209.921,504.88 207.209,505.531 
			206.144,505.872 205.744,505.971 204.185,506.235 201.961,506.74 201.25,506.892 199.29,507.256 197.02,507.672 196.173,507.783 
			195.684,507.93 194.078,508.106 193.231,508.217 191.537,508.439 190.466,508.556 188.19,508.749 187.878,508.802 
			187.431,508.813 184.531,509.112 183.86,509.129 183.101,509.193 179.213,509.338 179.077,509.296 178.719,509.261 
			175.589,509.341 173.442,509.352 172.995,509.363 170.489,509.338 169.819,509.356 167.625,509.278 166.819,509.254 
			164.713,509.129 164.489,509.135 163.907,509.105 161.666,508.939 160.678,508.785 157.719,508.548 156.731,508.395 
			154.355,508.187 154.219,508.146 152.243,507.839 150.673,507.656 149.055,507.384 147.167,507.03 146.044,506.835 
			144.109,506.393 143.344,506.234 140.78,505.673 140.103,505.467 137.539,504.906 137.221,504.736 135.239,504.205 
			134.745,504.128 134.698,504.04 133.798,503.839 132.175,503.344 131.905,503.262 129.829,502.555 129.288,502.39 
			127.659,501.671 126.259,501.17 124.406,500.457 123.413,500.08 121.831,499.45 119.972,498.513 119.431,498.348 118.614,497.877 
			117.391,497.282 116.709,496.853 115.485,496.258 114.527,495.522 113.48,494.833 111.293,493.279 110.652,492.714 109.6,491.801 
			107.818,490.371 106.901,489.5 105.249,487.887 104.279,486.704 102.757,484.909 101.141,482.937 97.455,478.782 97.132,478.388 
			96.949,478.258 93.54,474.409 91.059,471.878 90.413,471.09 89.772,470.524 86.915,467.287 85.034,465.457 84.575,465.021 
			83.147,463.403 82.406,462.438 81.848,461.602 81.425,460.808 80.579,459.219 80.009,457.936 79.345,456.477 78.581,454.618 
			78.335,453.729 78,452.888 77.466,451.246 77.149,449.376 76.656,447.599 76.592,446.84 76.305,444.387 76.247,443.851 
			76.241,443.628 75.896,440.639 75.714,438.81 75.686,437.692 75.482,434.969 75.57,434.922 75.566,431.298 75.596,430.716 
			75.603,429.239 75.586,426.869 75.765,423.375 75.765,423.375 75.748,422.704 76.062,419.251 76.056,419.028 76.133,418.534 
			76.458,415.528 76.559,414.228 76.795,412.969 77.061,411.128 77.179,410.499 77.256,410.005 77.739,407.935 78.217,405.641 
			78.341,405.235 78.418,404.741 79.078,402.577 79.485,401 79.773,400.054 80.109,399.195 80.569,397.931 81.07,396.531 
			81.535,395.49 82.036,394.09 82.672,392.732 83.002,391.65 83.674,389.932 84.169,388.309 84.422,387.721 85.146,386.316 
			86.289,383.781 86.501,383.328 86.796,382.605 88.203,379.929 88.851,379.018 89.881,377.336 90.182,376.836 90.399,376.607 
			91.813,374.155 92.113,373.655 92.802,372.609 94.056,370.921 94.786,369.739 96.128,368.005 96.858,366.823 97.682,365.817 
			98.465,364.947 100.284,362.619 100.543,362.254 100.673,362.072 102.586,359.92 102.975,359.374 104.193,358.045 
			104.629,357.586 105.453,356.581 106.848,355.158 107.589,354.423 107.937,354.012 108.943,353.136 110.991,351.026 
			111.339,350.614 111.951,350.061 113.175,348.956 114.747,347.44 115.359,346.887 116.848,345.641 117.33,345.271 
			119.431,343.472 119.431,343.472 119.473,343.337 121.974,341.438 122.98,340.562 124.781,339.263 125.964,338.293 
			127.106,337.459 128.424,336.53 129.566,335.696 130.754,334.949 133.655,332.951 133.655,332.951 133.655,332.951 
			136.386,331.27 137.045,330.806 140.482,328.749 140.746,328.608 140.923,328.514 141.141,328.285 144.577,326.228 
			145.548,325.711 147.619,324.495 148.061,324.26 149.249,323.514 150.968,322.485 151.409,322.25 154.581,320.334 
			155.416,319.776 157.311,318.654 158.812,317.855 160.306,316.832 161.719,316.08 164.802,314.211 164.979,314.117 
			165.067,314.07 165.42,313.882 168.815,311.961 170.445,310.979 173.005,309.616 175.294,308.171 178.024,306.49 178.772,305.979 
			179.696,305.373 181.944,304.063 184.892,302.153 185.245,301.965 185.421,301.871 189.034,299.72 190.311,298.927 
			192.648,297.569 195.508,295.706 196.39,295.236 197.708,294.308 199.868,293.044 200.968,292.345 203.74,290.529 
			204.529,289.882 206.512,288.713 207.7,287.967 208.624,287.361 210.913,285.916 212.102,285.169 213.597,284.147 
			214.344,283.635 216.633,282.19 216.81,282.096 216.898,282.049 219.135,280.291 219.794,279.827 221.159,278.987 222.43,277.97 
			223.089,277.506 224.407,276.577 225.243,276.019 225.726,275.648 227.356,274.667 229.021,273.327 229.722,272.727 
			231.434,271.475 232.093,271.011 232.399,270.735 234.106,269.259 234.459,269.071 234.459,269.071 236.083,267.866 
			237.531,266.755 238.231,266.156 240.115,264.586 240.597,264.216 240.727,264.034 242.881,262.547 242.969,262.5 244.634,261.16 
			245.994,260.096 246.959,259.355 248.625,258.015 249.019,257.692 249.943,257.087 251.084,256.252 251.655,255.835 
			253.191,254.677 254.769,253.384 255.469,252.784 257.176,251.309 257.747,250.891 258.011,250.75 259.189,249.557 
			259.977,248.91 260.195,248.681 261.731,247.523 262.826,246.6 264.185,245.536 265.974,243.79 266.28,243.514 267.028,243.003 
			268.34,241.851 268.911,241.433 270.312,240.234 271.142,239.452 272.548,238.477 274.037,237.231 274.52,236.86 274.914,236.537 
			276.844,235.056 277.504,234.592 278.686,233.622 280.223,232.464 280.835,231.911 282.106,230.894 283.071,230.154 
			283.289,229.925 285.131,228.49 286.137,227.615 287.102,226.874 287.979,226.18 289.468,224.934 290.475,224.058 291.44,223.318 
			291.834,222.994 293.629,221.472 294.812,220.502 295.513,219.903 297.743,217.922 297.831,217.875 297.92,217.828 
			299.72,216.529 300.244,216.023 302.092,214.812 303.363,213.796 304.022,213.331 306.259,211.574 306.388,211.392 
			306.741,211.204 308.366,209.999 308.672,209.722 310.649,208.329 312.008,207.266 312.756,206.754 314.598,205.32 
			314.904,205.044 315.604,204.444 317.011,203.469 317.187,203.375 319.165,201.982 320.748,200.912 321.583,200.354 
			322.548,199.613 323.384,199.055 325.491,197.48 325.756,197.339 325.844,197.292 326.02,197.198 327.692,196.081 
			328.833,195.246 330.634,193.947 331.823,193.201 334.895,190.885 334.983,190.838 335.466,190.468 336.172,190.092 
			337.667,189.069 338.414,188.558 339.556,187.723 340.391,187.165 341.097,186.789 344.175,184.697 344.658,184.327 
			346.152,183.304 348,182.093 348.612,181.541 348.877,181.4 349.318,181.165 351.166,179.954 353.138,178.338 353.138,178.338 
			353.138,178.338 353.314,178.244 355.863,176.433 356.828,175.693 357.398,175.276 357.575,175.182 360.035,173.418 
			361.524,172.172 361.653,171.99 361.83,171.896 362.93,171.197 364.549,169.768 365.296,169.257 365.908,168.704 366.173,168.563 
			368.721,166.753 369.993,165.736 370.169,165.642 370.563,165.319 371.664,164.619 373.547,163.05 374.424,162.356 
			374.907,161.986 377.319,160.135 378.108,159.488 378.72,158.936 379.026,158.659 379.991,157.919 381.433,156.584 
			382.528,155.661 383.011,155.291 383.14,155.109 385.335,153.487 386.689,152.199 387.213,151.694 387.301,151.647 
			387.431,151.464 388.743,150.312 391.327,148.143 391.592,148.002 392.468,147.309 393.304,146.75 395.446,144.816 395.8,144.628 
			396.412,144.076 398.778,142.136 399.743,141.395 400.137,141.072 401.014,140.379 403.951,138.021 404.08,137.839 
			404.345,137.698 404.651,137.422 407.24,135.476 408.206,134.736 408.6,134.413 409.612,133.76 412.46,131.45 412.549,131.403 
			412.855,131.127 413.249,130.804 415.933,129.035 416.986,128.247 417.163,128.153 418.304,127.318 419.975,126.202 
			420.546,125.785 421.382,125.226 421.558,125.132 423.448,123.786 425.207,122.623 425.648,122.388 425.737,122.341 
			426.131,122.017 426.219,121.97 426.925,121.594 429.874,119.684 430.844,119.167 432.033,118.421 433.269,117.763 
			434.104,117.205 435.781,116.311 436.088,116.035 438.341,114.948 439.842,114.149 440.813,113.632 442.49,112.739 
			445.849,111.176 446.026,111.082 446.732,110.706 446.955,110.701 449.256,109.702 450.539,109.132 450.98,108.897 
			451.468,108.75 453.904,107.793 455.275,107.176 457.535,106.313 457.623,106.266 457.758,106.307 459.841,105.538 
			461.659,104.91 462.677,104.481 462.9,104.475 464.318,103.946 464.542,103.941 464.718,103.847 466.984,103.207 468.937,102.62 
			469.69,102.332 471.643,101.745 473.067,101.44 474.532,101 476.621,100.454 477.509,100.207 479.598,99.662 480.533,99.503 
			481.245,99.351 484.092,98.741 484.316,98.735 486.898,98.266 488.369,98.049 490.24,97.733 492.246,97.458 493.181,97.299 
			494.028,97.188 496.482,96.901 499.111,96.521 499.558,96.509 502.323,96.17 502.905,96.199 505.582,95.907 507.459,95.814 
			509.335,95.721 511.477,95.487 512.506,95.505 514.788,95.536 515.235,95.525 515.371,95.566 515.906,95.507 518.418,95.756 
			519.447,95.774 521.511,96.034 523.488,96.341 524.929,96.707 527.628,97.309 528.169,97.474 529.61,97.839 531.91,98.541 
			532.992,98.871 535.521,99.79 537.373,100.503 538.461,101.056 540.314,101.769 542.443,102.788 543.578,103.43 545.489,104.678 
			545.671,104.808 546.077,104.932 547.3,105.526 548.664,106.386 549.164,106.686 551.11,107.576 551.881,107.959 553.239,108.595 
			554.415,109.101 554.598,109.231 555.691,110.008 556.779,110.562 560.131,112.175 560.266,112.217 560.449,112.346 
			564.424,113.854 565.153,114.373 566.553,114.873 567.276,115.168 568.911,116.11 570.134,116.705 572.21,117.412 
			574.163,118.525 575.203,118.99 577.244,120.056 577.967,120.351 580.372,121.676 581.46,122.23 584.594,124.073 584.912,124.243 
			585.094,124.373 588.181,126.128 590.545,127.588 591.139,128.065 592.503,128.925 593.867,129.784 594.232,130.043 
			595.825,131.121 596.555,131.639 598.195,132.804 598.971,133.411 599.93,134.147 600.794,134.706 602.393,136.007 
			603.034,136.572 604.269,137.614 604.862,138.091 606.597,139.433 607.191,139.91 608.472,141.04 609.248,141.646 
			610.848,142.947 611.077,143.165 611.259,143.295 612.947,144.549 614.364,145.72 616.051,146.974 616.645,147.451 
			619.473,149.57 619.52,149.659 619.567,149.747 621.848,151.478 623.718,152.861 623.765,152.949 623.947,153.079 627.328,155.81 
			628.151,156.505 631.079,159.024 631.767,159.678 634.201,162.12 634.659,162.556 634.794,162.597 634.889,162.774 
			637.328,165.44 637.975,166.229 640.332,169.165 640.702,169.648 640.978,169.954 641.584,170.878 643.206,173.073 
			644.463,175.009 645.116,176.021 646.567,178.534 647.125,179.37 647.878,180.782 648.724,182.371 649.241,183.341 
			649.805,184.401 650.416,185.548 650.792,186.254 651.221,187.272 652.073,189.084 652.736,190.544 653.494,192.179 
			653.823,192.797 654.493,194.48 655.11,195.851 655.867,197.487 656.155,198.24 656.543,199.393 657.16,200.764 657.5,201.829 
			657.888,202.982 658.228,204.047 658.475,204.935 659.414,208.401 659.748,209.242 660.588,212.307 660.688,212.707 
			660.787,213.107 661.292,215.331 661.491,216.131 661.791,217.331 662.389,219.732 662.442,220.044 662.536,220.22 
			662.841,221.644 663.375,223.285 663.381,223.509 664.391,226.257 664.444,226.568 664.585,226.833 665.243,228.069 
			665.625,228.998 665.813,229.352 666.7,230.805 667.899,232.206 668.769,232.989 669.634,233.548 671.045,234.496 
			672.133,235.049 673.891,235.586 674.162,235.668 675.42,235.904 676.762,235.87 676.809,235.958 678.95,235.724 680.062,235.472 
			681.392,234.99 682.545,234.603 684.575,233.522 684.575,233.522 686.905,231.941 687.035,231.759 688.7,230.418 689.312,229.866 
			690.495,228.896 691.802,227.52 693.026,226.415 693.55,225.91 694.857,224.534 694.986,224.352 697.04,222.465 697.482,222.23 
			697.611,222.047 698.135,221.542 700.065,220.061 701.731,218.72 703.179,217.61 704.232,216.822 705.333,216.123 
			706.521,215.376 707.757,214.718 709.834,213.725 710.364,213.443 710.628,213.302 713.423,212.38 714.176,212.093 
			716.441,211.453 717.153,211.3 719.2,210.89 721.024,210.485 722.048,210.28 724.413,210.04 724.413,210.04 724.413,210.04 
			724.413,210.04 726.471,210.077 726.695,210.071 728.172,210.078 729.742,210.261 732.477,210.504 734.136,210.64 
			735.571,210.782 736.471,210.983 737.189,211.054 739.888,211.655 742.588,212.257 743.129,212.422 745.652,213.118 
			746.105,213.33 747.999,213.907 749.404,214.632 750.174,215.015 751.503,216.233 752.567,217.593 		">
		</polygon>
	</g>
</g>
<g id="Layer_1">
</g>
</svg>
