<?xml version="1.0" encoding="iso-8859-1"?>
<!-- Generator: Adobe Illustrator 19.2.1, SVG Export Plug-In . SVG Version: 6.00 Build 0)  -->
<svg version="1.1" xmlns="http://www.w3.org/2000/svg" xmlns:xlink="http://www.w3.org/1999/xlink" x="0px" y="0px"
	 viewBox="0 0 841.89 595.28" style="enable-background:new 0 0 841.89 595.28;" xml:space="preserve">
<g id="layer239">
	<g id="layer239_1_" slic3r:z="9.58000000000008e-005">
		<polygon slic3r:type="contour" style="fill:#FFFFFF;stroke:#000000;stroke-miterlimit:10;" points="769.672,199.079 
			770.348,200.986 770.641,201.962 770.993,203.474 771.151,204.41 771.221,205.392 771.337,208.163 771.218,210.492 
			771.177,210.627 771.1,211.121 770.758,213.457 770.634,213.862 770.386,214.674 769.396,217.92 768.937,219.185 768.023,221.937 
			767.852,222.255 767.811,222.39 765.991,226.418 765.861,226.601 765.649,227.053 764.013,229.511 763.023,231.058 
			762.464,231.922 760.957,234.198 760.916,234.333 760.916,234.333 759.138,236.526 758.749,237.073 757.101,239.084 
			756.453,239.995 755.282,241.412 754.458,242.417 752.462,244.84 752.374,244.887 752.333,245.022 750.372,247.085 
			749.46,248.138 748.106,249.425 747.282,250.431 745.976,251.806 745.758,252.035 745.41,252.447 744.151,253.911 743.715,254.37 
			741.62,256.392 741.096,256.897 739.524,258.414 737.653,260.431 737.476,260.525 737.347,260.707 735.469,262.5 734.639,263.282 
			733.586,264.069 733.062,264.575 730.525,266.832 730.437,266.879 730.396,267.014 728.465,268.496 728.071,268.819 
			726.753,269.747 725.958,270.17 725.741,270.4 724.858,270.87 723.316,271.804 722.787,272.086 720.668,273.214 719.786,273.684 
			718.285,274.483 715.985,275.482 714.925,276.046 714.349,276.24 713.684,276.481 710.36,277.685 710.224,277.643 
			707.559,278.383 706.23,278.864 705.118,279.117 701.964,280.003 701.964,280.003 701.829,279.962 698.228,280.859 696.763,281.3 
			694.675,281.846 694.051,281.951 693.475,282.145 689.75,283.448 689.615,283.407 689.527,283.454 689.262,283.595 
			685.538,284.899 684.432,285.375 682.219,286.326 680.76,286.99 678.771,287.936 677.4,288.553 675.458,289.587 674.529,289.969 
			673.823,290.345 671.616,291.52 668.88,292.977 667.997,293.447 667.203,293.87 664.914,295.316 664.119,295.739 662.178,296.773 
			660.459,297.801 659.8,298.266 658.435,299.106 657.552,299.576 655.216,300.933 654.116,301.633 651.868,302.943 
			651.427,303.178 650.632,303.601 648.784,304.812 647.596,305.558 646.625,306.075 645.524,306.774 645.218,307.051 
			643.806,307.803 642.264,308.737 640.281,309.907 639.446,310.465 637.769,311.358 636.356,312.11 635.256,312.809 
			634.197,313.373 633.402,313.797 631.637,314.737 629.56,315.729 628.677,316.199 626.247,317.38 624.788,318.044 
			622.223,319.184 621.164,319.748 620.057,320.224 617.004,321.51 616.074,321.892 614.88,322.415 613.285,323.037 
			611.779,323.613 610.096,324.282 608.766,324.764 607.26,325.339 605.442,325.968 605.089,326.156 604.024,326.496 
			602.294,327.078 601.012,327.647 598.882,328.328 598.04,328.663 596.846,329.186 595.163,329.856 593.922,330.29 
			593.257,330.531 592.327,330.913 590.203,331.817 589.274,332.199 588.256,332.628 584.802,334.014 583.696,334.49 
			579.801,336.111 579.183,336.44 576.482,337.538 575.152,338.02 574.976,338.114 574.576,338.214 570.722,339.7 568.816,340.375 
			566.909,341.05 564.338,341.966 563.85,342.113 561.361,342.759 559.408,343.346 557.719,343.792 555.896,344.196 
			553.895,344.695 550.913,345.264 549.713,345.563 546.865,346.173 545.794,346.29 545.483,346.343 544.682,346.543 
			542.365,346.871 541.565,347.07 539.694,347.387 537.599,347.709 537.064,347.767 536.352,347.92 534.393,348.283 
			533.058,348.541 531.722,348.799 530.075,349.11 528.916,349.274 526.957,349.638 525.086,349.954 524.151,350.112 
			522.368,350.382 521.433,350.54 520.898,350.599 520.274,350.704 517.997,350.897 516.527,351.114 515.456,351.231 
			513.803,351.318 512.732,351.435 510.944,351.481 508.444,351.679 508.221,351.685 507.638,351.655 505.491,351.666 
			504.421,351.783 502.809,351.735 499.903,351.809 499.815,351.856 499.367,351.868 496.014,351.954 492.573,352.087 
			492.038,352.146 491.456,352.116 487.656,352.214 483.944,352.264 483.361,352.235 483.138,352.24 480.097,352.274 
			479.25,352.385 475.585,352.524 475.138,352.535 474.467,352.553 470.938,352.733 469.732,352.809 467.543,352.954 467.32,352.96 
			465.667,353.047 463.79,353.14 462.808,353.21 460.125,353.279 459.367,353.344 459.143,353.349 458.92,353.355 457.89,353.337 
			454.578,353.288 453.908,353.305 452.026,353.174 450.367,353.038 449.784,353.008 447.138,352.718 445.791,352.529 
			443.003,351.975 442.914,352.022 440.397,351.55 439.632,351.39 437.297,351.048 434.609,350.893 433.756,350.781 
			433.351,350.657 432.409,350.592 429.133,350.184 427.069,349.924 425.098,349.84 423.304,349.663 422.051,349.65 
			420.263,349.696 418.698,349.736 417.316,349.906 414.774,350.24 414.686,350.287 414.598,350.334 412.103,350.756 
			409.568,351.313 408.944,351.419 408.456,351.565 405.52,352.223 403.343,352.815 402.943,352.915 402.767,353.009 
			400.325,353.743 399.884,353.978 398.554,354.459 396.471,355.229 395.453,355.658 393.018,356.615 391.823,357.138 
			390.717,357.613 389.964,357.901 388.281,358.571 387.263,359 385.539,359.804 383.727,360.656 380.414,362.307 380.326,362.354 
			380.326,362.354 377.766,363.717 375.471,364.939 374.942,365.222 374.147,365.645 372.206,366.679 370.487,367.707 
			369.869,368.036 369.428,368.271 366.827,369.77 365.55,370.563 364.226,371.268 362.949,372.061 360.831,373.189 
			360.525,373.466 360.26,373.607 357.971,375.052 356.694,375.846 355.464,376.727 354.281,377.697 351.48,380.095 
			350.956,380.601 350.085,381.518 348.554,382.9 347.989,383.54 345.588,385.839 345.547,385.974 345.37,386.068 343.975,387.491 
			341.227,390.201 340.091,391.259 339.525,391.9 338.172,393.187 336.647,394.792 336.518,394.975 336.429,395.022 336.17,395.386 
			333.816,397.773 333.598,398.002 332.598,399.102 332.598,399.102 332.509,399.149 329.248,402.811 328.554,403.634 
			328.465,403.681 328.336,403.864 326.77,405.604 325.816,406.792 323.903,408.943 323.862,409.079 323.774,409.126 
			322.343,410.907 319.659,414.376 319.4,414.741 319.312,414.788 317.41,417.387 315.814,419.709 315.208,420.485 314.301,421.761 
			312.965,423.719 312.447,424.448 311.882,425.089 310.887,426.412 309.715,427.829 308.762,429.017 307.549,430.569 
			306.595,431.756 306.378,431.986 303.605,435.502 303.346,435.866 303.175,436.184 302.216,437.148 300.826,438.794 
			299.743,440.164 299.178,440.805 298.525,441.493 297.871,442.181 297.483,442.727 297.006,443.321 296.223,444.191 
			294.922,445.79 293.968,446.978 293.58,447.525 292.885,448.348 291.278,450.224 289.453,452.328 289.324,452.511 
			289.236,452.558 287.458,454.751 286.069,456.397 284.938,457.679 284.373,458.319 283.767,459.095 282.548,460.424 
			280.418,462.805 279.635,463.675 279.07,464.316 278.328,465.051 276.327,467.25 275.455,468.167 274.367,469.313 
			272.147,471.741 272.018,471.924 271.841,472.018 271.8,472.153 269.234,474.992 268.321,476.045 267.668,476.733 
			265.578,478.978 264.707,479.896 263.707,480.995 263.312,481.318 262.094,482.647 261.005,483.793 260.134,484.71 
			258.956,485.904 258.474,486.274 257.208,487.515 254.719,489.86 253.365,491.148 251.617,492.758 250.481,493.816 
			249.386,494.739 247.856,496.121 246.238,497.549 245.408,498.331 245.055,498.519 245.013,498.654 243.389,499.859 
			241.547,501.293 240.888,501.758 240.099,502.404 238.516,503.474 237.151,504.314 236.669,504.684 234.774,505.807 
			233.273,506.606 231.684,507.452 229.96,508.257 228.943,508.686 227.042,509.584 225.801,510.019 224.959,510.354 
			222.612,511.264 219.599,512.415 219.111,512.562 218.846,512.703 214.851,513.924 214.275,514.118 212.274,514.617 
			210.409,515.157 209.744,515.397 206.72,516.102 205.609,516.354 203.873,516.712 203.473,516.811 201.914,517.075 
			200.267,517.386 199.643,517.491 197.461,517.861 197.461,517.861 197.461,517.861 197.461,517.861 195.096,518.1 
			193.937,518.264 192.107,518.446 191.748,518.41 188.936,518.661 188.848,518.708 188.713,518.667 185.319,518.888 
			183.978,518.923 181.742,518.98 179.642,519.079 176.913,519.06 175.66,519.047 171.86,519.145 171.813,519.057 171.724,519.104 
			170.336,519.05 168.277,519.013 168.142,518.972 165.007,518.829 164.201,518.805 161.513,518.65 159.989,518.555 
			157.884,518.431 156.178,518.206 153.937,518.04 153.578,518.004 151.872,517.78 150.031,517.514 148.773,517.278 
			147.202,517.095 145.585,516.823 142.526,516.186 142.391,516.145 142.256,516.103 139.15,515.378 138.474,515.172 
			136.674,514.771 135.186,514.317 133.786,513.816 132.704,513.486 130.493,512.737 129.093,512.237 127.376,511.565 
			126.788,511.312 125.024,510.552 124.165,510.216 123.983,510.086 123.712,510.004 121.219,508.726 120.584,508.384 
			119.99,507.908 118.538,507.095 116.768,506.111 116.721,506.023 116.356,505.764 113.987,504.08 113.804,503.951 
			112.893,503.303 109.106,500.448 107.783,499.453 104.079,496.327 103.35,495.809 103.168,495.68 102.069,494.679 99.823,492.589 
			98.906,491.718 97.665,490.453 95.555,488.404 92.251,485.179 88.759,481.6 85.961,478.899 85.455,478.375 82.651,475.449 
			82.192,475.014 78.748,471.524 78.424,471.129 77.966,470.694 75.802,468.334 74.697,467.109 74.009,466.456 72.993,465.185 
			72.805,464.832 71.682,462.937 71.453,462.719 71.077,462.013 69.849,459.495 69.232,458.124 68.181,455.511 67.071,452.364 
			67.071,452.364 67.071,452.364 66.279,449.387 66.068,448.139 65.751,446.269 65.511,443.904 65.336,442.298 65.238,438.498 
			65.18,437.962 65.245,437.021 65.259,434.068 65.318,432.904 65.449,431.021 65.514,430.08 65.68,427.839 65.858,426.045 
			66.088,424.563 66.153,423.622 66.419,421.781 66.537,421.151 66.484,420.84 66.679,419.716 67.074,417.693 67.145,416.975 
			67.576,414.593 67.972,412.57 68.09,411.941 69.016,407.935 69.257,406.9 70.036,404.107 70.242,403.43 70.69,401.719 
			71.02,400.637 71.433,399.284 71.892,398.019 71.975,397.749 72.434,396.484 73.271,394.226 73.566,393.503 74.915,390.292 
			75.209,389.568 75.845,388.21 76.693,386.399 77.536,384.364 77.919,383.594 78.131,383.141 79.326,380.918 80.133,379.242 
			80.728,378.019 81.8,376.202 82.353,375.114 82.866,374.161 83.89,372.256 84.573,370.986 85.645,369.169 86.458,367.717 
			87.918,365.353 87.918,365.353 89.29,363.036 90.02,361.854 91.098,360.26 93.082,357.391 93.299,357.162 93.818,356.433 
			95.684,354.193 96.508,353.187 97.938,351.406 99.804,349.166 100.022,348.937 100.935,347.884 102.418,346.414 102.636,346.185 
			104.725,343.939 104.855,343.757 106.956,341.958 107.609,341.271 108.963,339.983 110.534,338.466 111.323,337.82 
			112.023,337.22 112.459,336.762 113.118,336.297 114.036,335.469 114.784,334.957 115.572,334.311 116.626,333.523 
			118.291,332.183 119.345,331.395 119.698,331.207 120.221,330.702 122.417,329.08 123.906,327.833 124.476,327.416 
			125.971,326.393 127.595,325.189 128.431,324.63 129.661,323.749 131.156,322.726 132.121,321.985 133.745,320.781 
			135.416,319.664 137.305,318.318 138.447,317.483 139.895,316.373 140.731,315.814 141.872,314.98 143.897,313.675 
			144.862,312.934 146.18,312.006 147.192,311.353 149.04,310.143 150.317,309.349 152.118,308.051 152.294,307.957 
			152.777,307.586 154.23,306.699 154.536,306.423 157.043,304.748 157.22,304.654 157.526,304.377 160.168,302.744 
			161.969,301.445 163.334,300.604 165.311,299.212 165.311,299.212 167.159,298.001 167.73,297.584 169.842,296.232 
			170.372,295.95 171.119,295.439 172.967,294.228 174.197,293.346 176.133,292.089 177.675,291.154 178.599,290.549 
			179.523,289.944 180.664,289.109 182.247,288.04 183.171,287.434 183.789,287.105 186.296,285.43 187.044,284.919 
			187.308,284.778 190.298,282.733 191.133,282.174 192.493,281.11 193.152,280.646 194.558,279.671 195.306,279.159 
			196.671,278.319 198.56,276.973 200.231,275.856 201.591,274.792 202.426,274.234 203.656,273.353 204.757,272.653 
			207.04,270.984 208.4,269.92 209.1,269.321 210.242,268.486 212.084,267.052 213.225,266.217 213.62,265.894 215.026,264.918 
			215.991,264.178 217.045,263.39 217.922,262.697 218.275,262.508 221.259,260.24 221.259,260.24 221.259,260.24 221.347,260.193 
			223.718,258.477 224.113,258.153 226.131,256.625 226.484,256.437 226.484,256.437 228.809,254.633 229.774,253.892 
			229.862,253.845 229.862,253.845 229.862,253.845 232.411,252.035 232.893,251.664 235,250.089 235.088,250.042 237.984,247.82 
			238.337,247.632 238.555,247.403 239.125,246.986 240.879,245.599 241.756,244.905 243.027,243.888 244.169,243.054 
			245.746,241.76 246.841,240.838 247.235,240.514 248.112,239.821 249.077,239.08 250.042,238.34 252.102,236.676 252.279,236.582 
			254.78,234.684 255.527,234.172 256.71,233.202 257.546,232.644 258.905,231.58 259.741,231.022 261.277,229.864 262.595,228.935 
			263.649,228.148 265.932,226.479 266.591,226.014 268.392,224.715 269.84,223.605 271.64,222.306 271.817,222.212 
			271.817,222.212 273.176,221.148 274.671,220.125 275.683,219.473 276.737,218.685 278.979,217.151 279.768,216.505 
			280.297,216.223 280.603,215.946 281.968,215.106 284.47,213.208 284.734,213.067 285.129,212.743 285.57,212.508 288.73,210.145 
			289.389,209.681 292.42,207.501 293.473,206.713 293.738,206.572 293.827,206.525 294.486,206.061 296.681,204.439 
			297.516,203.88 298.087,203.463 300.065,202.07 302.042,200.677 302.13,200.63 303.231,199.931 305.431,198.532 306.355,197.927 
			306.838,197.557 307.014,197.462 309.433,195.835 310.663,194.953 310.751,194.906 311.281,194.624 312.205,194.019 
			314.053,192.808 314.888,192.25 315.989,191.55 316.03,191.415 316.295,191.274 319.16,189.635 320.879,188.606 322.685,187.531 
			323.391,187.155 323.921,186.873 325.639,185.844 327.622,184.675 330.447,183.171 330.535,183.124 330.623,183.077 
			331.812,182.331 332.518,181.954 334.501,180.785 335.472,180.268 336.09,179.939 340.274,177.371 340.315,177.236 
			340.315,177.236 341.462,176.625 343.751,175.179 344.546,174.756 345.205,174.292 347.671,172.752 348.771,172.053 
			349.036,171.912 349.742,171.536 353.043,169.438 354.497,168.55 355.115,168.221 356.038,167.616 357.315,166.823 
			359.075,165.659 360.834,164.495 361.541,164.119 362.288,163.608 363.871,162.538 365.76,161.192 367.078,160.264 
			367.826,159.752 368.308,159.382 369.756,158.271 370.021,158.13 372.392,156.414 372.916,155.908 373.575,155.444 
			374.323,154.933 376.212,153.587 376.871,153.123 377.136,152.982 378.542,152.006 381.708,149.867 382.367,149.402 
			382.762,149.079 383.862,148.38 386.634,146.564 386.94,146.288 387.116,146.194 389.358,144.66 390.853,143.637 391.206,143.449 
			391.247,143.314 393.925,141.321 395.155,140.44 395.549,140.116 395.814,139.975 398.092,138.083 399.498,137.107 
			399.716,136.878 399.804,136.831 402.871,134.291 403.659,133.645 404.142,133.275 404.36,133.045 406.331,131.429 
			407.867,130.271 408.22,130.083 410.945,128.179 412.44,127.156 412.922,126.786 413.54,126.457 415.606,125.017 416.794,124.27 
			416.971,124.176 417.059,124.129 421.061,121.432 421.149,121.385 421.679,121.103 422.909,120.221 425.021,118.87 
			425.415,118.546 425.986,118.129 428.446,116.366 429.594,115.755 429.947,115.567 430.871,114.961 433.736,113.322 
			435.672,112.064 436.949,111.271 438.003,110.483 438.309,110.207 439.144,109.649 440.021,108.955 442.258,107.198 
			444.5,105.664 444.765,105.523 446.524,104.359 446.524,104.359 446.524,104.359 446.612,104.312 449.396,102.943 
			450.766,102.326 454.391,100.623 454.791,100.523 454.968,100.429 455.144,100.335 455.986,100 459.398,98.749 460.239,98.415 
			460.816,98.221 463.164,97.31 463.787,97.205 464.893,96.729 466.711,96.101 467.553,95.766 468.665,95.514 469.906,95.079 
			470.795,94.833 471.818,94.628 473.242,94.322 473.907,94.082 475.954,93.671 476.754,93.472 477.154,93.372 479.16,93.097 
			479.872,92.944 481.966,92.622 483.349,92.452 485.396,92.042 485.532,92.083 485.755,92.077 487.32,92.037 487.855,91.978 
			490.938,91.81 491.473,91.751 492.055,91.781 494.467,91.63 496.344,91.537 497.238,91.514 497.997,91.449 500.856,91.286 
			502.15,91.164 504.603,90.877 506.209,90.701 508.127,90.473 509.197,90.356 510.756,90.092 513.251,89.67 514.186,89.512 
			517.169,88.943 517.792,88.838 521.128,88.081 521.352,88.075 524.152,87.377 524.24,87.33 524.24,87.33 526.552,86.778 
			528.106,86.291 528.859,86.003 530.5,85.469 531.389,85.223 534.048,84.26 534.448,84.16 535.113,83.919 536.884,83.202 
			539.008,82.298 540.82,81.446 542.191,80.829 542.986,80.406 546.652,78.567 546.74,78.52 546.74,78.52 546.74,78.52 
			549.741,76.922 550.359,76.593 551.194,76.035 552.43,75.377 554.284,74.389 555.078,73.966 555.607,73.684 557.061,72.797 
			558.473,72.045 559.444,71.528 560.456,70.876 560.898,70.641 563.151,69.554 563.992,69.219 564.169,69.125 565.363,68.602 
			566.776,67.85 567.088,67.797 568.511,67.492 568.823,67.439 570.388,67.399 571.994,67.224 573.652,67.36 574.682,67.378 
			575.493,67.626 578.011,68.098 578.822,68.346 580.04,68.717 582.069,69.336 583.245,69.842 585.956,70.891 586.138,71.021 
			586.591,71.233 589.179,72.687 589.814,73.029 592.818,75.054 593.547,75.572 594.277,76.09 596.599,77.686 597.328,78.204 
			598.281,78.716 601.186,80.342 602.856,80.925 604.755,81.726 606.732,82.033 607.72,82.187 609.42,82.188 611.114,81.965 
			613.826,81.314 615.156,80.832 616.927,80.116 617.68,79.828 618.345,79.587 621.087,78.354 621.975,78.107 622.775,77.908 
			625.035,77.044 625.57,76.986 625.882,76.933 628.6,76.505 629.359,76.441 630.835,76.448 631.6,76.607 632.276,76.813 
			633.094,77.285 634.27,77.791 636.351,78.722 636.987,79.063 638.345,79.699 639.027,80.129 639.797,80.512 641.25,81.325 
			642.114,81.884 642.749,82.226 643.884,82.868 644.384,83.168 644.566,83.297 645.883,84.069 647.43,85.058 647.659,85.276 
			648.524,85.835 650.752,87.254 651.523,87.637 654.563,89.303 654.698,89.345 656.374,90.152 657.962,91.006 658.097,91.047 
			658.367,91.129 660.673,92.054 661.308,92.396 661.896,92.649 663.025,93.067 664.513,93.521 666.86,94.311 667.442,94.341 
			670.412,95.025 670.636,95.019 673.418,95.35 674.224,95.374 677.712,95.329 678.336,95.224 681.053,94.796 681.142,94.749 
			681.542,94.649 683.595,94.462 685.736,94.228 685.736,94.228 685.871,94.27 687.671,94.671 689.024,95.083 689.112,95.036 
			690.429,95.808 691.558,96.226 693.864,97.151 694.046,97.28 695.863,98.352 696.951,98.906 698.221,99.589 699.721,100.49 
			700.309,100.743 701.72,101.691 702.084,101.95 703.36,102.857 703.684,103.251 703.819,103.292 705.283,104.552 705.835,105.164 
			707.435,106.465 708.352,107.336 709.128,107.943 710.051,109.037 711.432,110.567 712.455,112.062 713.248,113.339 
			714.282,115.281 714.664,116.211 715.234,117.493 715.95,119.264 716.191,119.929 716.479,120.682 717.171,123.259 717.67,125.26 
			717.67,125.26 717.717,125.348 718.257,127.213 718.709,129.125 719.05,130.19 719.108,130.725 719.378,132.508 719.688,134.155 
			719.805,135.226 719.964,136.161 720.081,137.232 720.203,138.526 720.309,139.149 720.597,139.902 721.218,143.197 
			723.01,146.775 723.245,147.216 724.168,148.311 726.155,150.765 726.843,151.418 727.754,152.066 729.036,153.196 
			730.364,154.414 730.776,154.762 731.37,155.238 732.839,156.722 734.303,157.981 734.533,158.199 735.632,159.2 735.873,159.865 
			736.531,161.1 736.73,161.901 736.664,164.542 736.664,164.542 736.664,164.542 736.664,164.542 734.704,166.605 733.292,167.357 
			732.409,167.827 731.879,168.109 729.173,168.984 728.861,169.037 726.455,169.412 726.232,169.418 723.902,169.299 
			722.826,169.192 721.614,169.044 720.714,168.844 718.856,167.907 718.721,167.866 718.721,167.866 716.58,166.4 716.216,166.141 
			715.71,165.617 715.023,164.964 714.329,164.087 713.865,163.428 713.588,163.122 712.325,160.962 710.526,158.861 
			710.203,158.467 707.416,156.212 707.099,156.041 704.74,154.805 704.376,154.546 702.341,153.703 701.082,153.467 
			700.042,153.002 699.5,152.837 697.019,152.006 696.748,151.923 694.043,151.098 691.79,150.485 690.708,150.155 690.526,150.025 
			690.255,149.943 688.814,149.577 688.003,149.33 686.426,148.923 686.156,148.84 684.397,148.304 682.28,147.732 681.245,147.49 
			680.251,147.113 678.492,146.577 677.052,146.211 676.105,145.922 674.305,145.521 673.717,145.268 672.099,144.997 
			670.747,144.584 668.588,144.147 666.924,143.787 665.347,143.381 663.865,143.15 661.66,142.625 661.389,142.543 
			661.254,142.502 659.007,142.112 658.513,142.035 657.348,141.976 656.901,141.987 656.278,142.093 655.919,142.057 
			655.077,142.392 654.589,142.539 653.23,143.603 652.924,143.879 652.07,145.467 651.993,145.961 652.063,146.943 652.056,148.42 
			652.12,149.178 652.702,150.908 653.142,152.373 653.665,153.568 654.581,156.139 654.816,156.58 654.91,156.757 656.708,160.558 
			656.943,160.999 657.084,161.264 658.264,163.694 658.541,164 660.086,166.689 660.315,166.907 660.409,167.084 660.503,167.26 
			661.708,168.884 662.543,170.026 662.637,170.203 663.472,171.344 664.118,172.133 664.212,172.309 665.646,174.151 
			666.246,174.852 667.498,176.564 667.774,176.87 668.05,177.176 669.391,178.842 670.789,181.043 671.342,181.655 671.53,182.008 
			671.947,182.579 673.064,184.25 673.863,185.751 674.28,186.321 674.562,186.851 675.314,188.263 676.066,189.675 676.407,190.74 
			676.883,191.846 677.317,193.088 677.658,194.153 678.245,196.106 678.567,198.2 678.825,199.536 678.93,200.16 678.818,201.012 
			678.923,203.336 678.904,204.365 678.875,204.948 678.744,206.83 678.756,207.277 678.542,209.43 678.47,211.847 678.305,212.389 
			678.323,213.059 678.181,214.494 678.157,215.3 678.185,216.418 678.308,217.712 678.337,218.83 678.431,219.006 678.531,219.406 
			678.724,219.983 678.818,220.159 679.324,220.683 679.647,221.078 680.235,221.331 680.641,221.455 681.088,221.443 
			681.712,221.338 682.288,221.144 683.706,220.615 683.971,220.474 684.765,220.051 685.383,219.722 685.866,219.352 
			686.572,218.976 686.966,218.653 688.02,217.865 688.808,217.218 690.121,216.066 691.563,214.732 691.563,214.732 
			693.181,213.303 693.446,213.162 694.841,211.74 696.989,210.029 697.383,209.706 697.513,209.524 700.102,207.578 
			700.585,207.208 702.174,206.362 703.933,205.198 704.551,204.869 705.216,204.628 708.487,203.113 708.929,202.878 
			709.241,202.825 713.235,201.604 714.077,201.269 714.165,201.222 714.212,201.31 714.389,201.216 717.813,200.413 
			719.683,200.096 721.019,199.838 721.554,199.78 722.625,199.663 725.39,199.323 727.266,199.23 728.337,199.113 730.749,198.962 
			732.043,198.839 734.637,198.817 735.931,198.694 739.461,198.514 739.596,198.555 739.684,198.508 743.432,198.099 
			744.102,198.082 745.75,197.771 747.485,197.413 748.644,197.249 750.509,196.709 752.415,196.034 753.08,195.793 753.48,195.693 
			755.116,194.935 755.557,194.7 755.822,194.559 757.234,193.807 757.676,193.572 758.647,193.055 759.617,192.538 
			759.841,192.532 760.106,192.391 761.841,192.033 762.335,192.11 762.788,192.322 764.641,193.035 764.729,192.988 
			764.729,192.988 766.369,194.154 766.875,194.678 767.522,195.466 767.845,195.861 768.45,196.785 769.202,198.197 		">
		</polygon>
	</g>
</g>
<g id="Layer_1">
</g>
</svg>
