<?xml version="1.0" encoding="iso-8859-1"?>
<!-- Generator: Adobe Illustrator 19.2.1, SVG Export Plug-In . SVG Version: 6.00 Build 0)  -->
<svg version="1.1" xmlns="http://www.w3.org/2000/svg" xmlns:xlink="http://www.w3.org/1999/xlink" x="0px" y="0px"
	 viewBox="0 0 841.89 595.28" style="enable-background:new 0 0 841.89 595.28;" xml:space="preserve">
<g id="layer236">
	<g id="layer236_1_" slic3r:z="9.46000000000008e-005">
		<polygon slic3r:type="contour" style="fill:#FFFFFF;stroke:#000000;stroke-miterlimit:10;" points="768.342,201.261 
			768.859,202.232 768.958,202.632 769.199,203.297 769.604,205.121 769.727,206.415 769.896,207.797 769.919,208.691 
			769.936,211.062 769.912,211.868 769.829,212.138 769.605,213.844 769.487,214.473 769.534,214.562 768.885,217.173 
			768.72,217.714 768.649,218.432 767.735,221.184 767.523,221.637 766.516,224.213 766.428,224.26 766.386,224.395 
			764.855,227.477 764.726,227.659 763.489,230.017 762.547,231.652 761.905,232.786 760.609,234.609 760.309,235.109 
			758.978,237.291 758.761,237.52 758.719,237.655 756.9,239.983 756.553,240.395 755.081,242.312 754.175,243.588 753.392,244.458 
			752.091,246.057 751.308,246.927 749.83,248.62 749.701,248.803 749.483,249.032 747.917,250.772 747.44,251.366 746.658,252.236 
			745.616,253.471 743.526,255.716 743.438,255.763 743.35,255.81 743.397,255.899 740.513,258.568 739.683,259.349 
			738.158,260.954 737.676,261.325 736.628,262.336 735.58,263.347 735.098,263.717 733.873,264.822 732.125,266.433 
			731.949,266.527 731.861,266.574 731.29,266.991 729.053,268.749 728.789,268.89 728.483,269.166 725.84,270.8 725.181,271.264 
			724.387,271.687 722.445,272.721 721.563,273.191 720.945,273.52 720.239,273.896 717.408,275.177 717.144,275.318 
			714.884,276.181 713.066,276.81 711.648,277.338 710.271,277.732 708.807,278.172 707.295,278.524 706.006,278.87 702.67,279.627 
			702.582,279.674 698.846,280.53 698.358,280.677 697.334,280.882 694.846,281.528 692.092,282.315 690.716,282.708 
			687.303,283.959 686.462,284.293 686.15,284.346 684.867,284.916 683.096,285.633 682.431,285.873 680.66,286.59 678.936,287.395 
			678.054,287.865 674.87,289.333 674.694,289.428 674.517,289.522 671.028,291.266 669.439,292.113 666.703,293.57 
			665.867,294.128 664.72,294.739 663.708,295.391 662.207,296.191 660.224,297.36 659.43,297.783 656.652,299.375 655.858,299.798 
			654.581,300.592 653.039,301.526 651.674,302.366 650.75,302.972 649.65,303.671 648.196,304.558 647.402,304.982 
			645.595,306.057 643.965,307.038 642.247,308.067 640.176,309.283 639.47,309.659 637.616,310.646 635.81,311.721 634.75,312.286 
			632.632,313.414 631.085,314.125 627.819,315.864 626.977,316.198 625.742,316.857 623.665,317.849 622.029,318.607 
			620.835,319.13 619.728,319.606 618.846,320.076 617.075,320.792 616.057,321.221 614.862,321.744 612.691,322.56 
			611.673,322.989 611.008,323.23 608.837,324.046 607.596,324.481 607.155,324.716 603.254,326.113 602.189,326.454 
			599.176,327.605 596.652,328.609 594.658,329.332 591.645,330.483 589.874,331.199 586.42,332.586 585.403,333.014 
			581.684,334.542 581.331,334.73 577.565,336.168 577.389,336.262 577.124,336.403 574.553,337.319 573.223,337.801 
			571.405,338.429 568.434,339.445 568.169,339.586 567.904,339.727 565.151,340.514 563.598,341.001 561.733,341.541 
			560.709,341.746 558.62,342.292 557.997,342.398 557.332,342.638 554.261,343.254 552.037,343.759 551.725,343.811 
			549.543,344.181 547.584,344.544 546.648,344.703 544.378,345.119 543.977,345.219 543.842,345.177 541.213,345.558 
			539.654,345.822 538.63,346.027 536.847,346.297 536,346.408 535.424,346.602 533.329,346.924 531.282,347.334 530.835,347.346 
			530.035,347.545 528.252,347.815 527.093,347.979 525.623,348.196 522.993,348.576 522.993,348.576 522.858,348.535 
			520.405,348.822 519.246,348.986 518.04,349.062 515.94,349.16 514.557,349.33 512.275,349.299 510.534,349.433 509.369,349.374 
			506.822,349.484 506.687,349.443 504.404,349.412 502.975,349.494 502.081,349.517 500.693,349.463 500.157,349.521 
			498.545,349.473 497.428,349.502 496.534,349.525 493.804,349.506 492.016,349.552 489.869,349.562 487.451,349.49 
			485.751,349.489 482.351,349.487 481.904,349.498 481.769,349.457 480.698,349.574 477.163,349.531 476.357,349.507 
			474.792,349.547 473.587,349.623 471.887,349.622 469.651,349.679 469.069,349.649 467.281,349.695 465.716,349.736 
			465.357,349.7 465.134,349.706 463.21,349.711 460.392,349.738 460.034,349.703 459.586,349.714 456.228,349.577 456.228,349.577 
			453.357,349.293 451.922,349.151 449.675,348.761 449.093,348.731 446.617,348.124 445.629,347.97 443.423,347.446 
			440.906,346.973 440.141,346.814 439.735,346.69 438.882,346.578 436.371,346.329 434.847,346.234 433.053,346.057 
			431.036,345.885 429.824,345.737 427.807,345.565 426.418,345.512 425.342,345.405 423.148,345.327 420.33,345.355 
			419.301,345.337 418.942,345.301 417.56,345.471 414.259,345.869 412.836,346.174 411.053,346.444 409.494,346.707 
			406.07,347.511 405.935,347.47 405.758,347.564 402.293,348.503 400.963,348.984 398.745,349.712 397.992,350 394.45,351.433 
			394.227,351.439 393.785,351.674 390.243,353.107 388.649,353.73 386.436,354.681 383.871,355.821 383.206,356.062 382.1,356.538 
			380.817,357.107 378.964,358.095 377.946,358.523 377.416,358.805 374.898,360.033 372.25,361.443 372.25,361.443 372.162,361.49 
			369.425,362.948 368.366,363.512 366.866,364.311 364.706,365.574 364,365.95 362.764,366.608 361.223,367.543 360.252,368.06 
			358.445,369.135 357.08,369.975 356.068,370.628 354.132,371.885 353.473,372.35 352.243,373.231 351.407,373.79 350.836,374.207 
			349.388,375.318 348.164,376.423 347.246,377.252 345.41,378.909 343.709,380.608 343.532,380.702 343.491,380.838 
			341.831,382.401 340.872,383.366 340.26,383.918 338.953,385.294 338.211,386.029 337.776,386.487 334.986,389.332 
			334.115,390.25 333.067,391.261 332.243,392.266 331.543,392.866 330.589,394.053 330.153,394.512 329.977,394.606 
			328.281,396.528 326.586,398.451 326.068,399.18 322.942,402.884 322.595,403.296 322.077,404.025 320.776,405.624 
			320.04,406.582 319.045,407.905 318.398,408.817 317.491,410.092 316.284,411.868 314.771,413.92 313.999,415.237 313.87,415.42 
			313.434,415.878 311.238,419.2 310.897,419.836 310.031,420.976 308.871,422.84 307.923,424.251 307.447,424.845 304.856,428.491 
			304.426,429.173 304.079,429.584 303.649,430.266 301.883,432.906 300.935,434.318 300.546,434.864 300.07,435.458 
			298.774,437.281 297.997,438.375 296.655,440.109 295.748,441.385 295.619,441.567 292.893,445.172 292.722,445.489 
			292.463,445.854 291.38,447.224 290.214,448.864 289.608,449.64 289.261,450.052 288.436,451.057 287.224,452.609 286.4,453.615 
			286.011,454.162 284.669,455.896 282.673,458.318 282.673,458.318 282.673,458.318 279.288,462.387 278.853,462.845 
			278.329,463.351 276.94,464.997 276.157,465.867 275.721,466.326 274.721,467.425 274.156,468.066 273.025,469.348 
			272.242,470.218 270.547,472.14 270.07,472.734 269.853,472.963 269.723,473.146 268.722,474.245 267.245,475.938 
			265.202,478.272 265.114,478.319 263.937,479.513 261.847,481.759 261.588,482.123 261.37,482.352 261.153,482.582 
			260.847,482.858 259.452,484.281 257.927,485.886 256.791,486.944 254.042,489.654 252.73,490.806 251.464,492.046 
			250.152,493.199 249.41,493.933 248.274,494.992 247.18,495.914 246.785,496.238 246.173,496.79 243.937,498.548 242.884,499.335 
			240.559,501.14 240.206,501.328 237.787,502.956 237.169,503.285 234.969,504.683 232.674,505.906 231.968,506.282 
			230.508,506.945 228.961,507.656 227.719,508.091 225.242,509.183 223.736,509.759 220.988,510.769 220.324,511.01 
			217.617,511.885 217.129,512.031 217.041,512.078 214.022,513.006 212.022,513.505 210.557,513.945 208.733,514.35 
			207.221,514.702 205.845,515.095 204.597,515.306 202.238,515.769 201.703,515.828 201.526,515.922 200.768,515.986 
			198.497,516.402 197.561,516.561 195.555,516.836 193.59,516.976 192.743,517.087 192.208,517.146 190.243,517.286 
			189.126,517.314 188.726,517.414 186.314,517.566 184.884,517.647 183.767,517.676 181.978,517.722 180.19,517.768 
			178.266,517.772 175.672,517.794 174.508,517.735 172.002,517.71 171.466,517.768 169.719,517.679 167.796,517.684 
			167.078,517.613 165.467,517.565 163.943,517.47 163.226,517.399 160.267,517.161 158.608,517.025 156.367,516.859 
			153.855,516.61 153.138,516.539 152.285,516.427 150.309,516.12 148.738,515.937 146.444,515.459 146.444,515.459 
			146.086,515.423 143.703,514.993 143.703,514.993 140.192,514.143 139.698,514.067 138.345,513.654 136.634,513.206 
			136.005,513.088 134.199,512.463 132.711,512.009 130.229,511.178 129.1,510.76 128.106,510.383 126.436,509.8 125.936,509.499 
			123.901,508.657 123.854,508.569 123.719,508.527 121.226,507.249 119.726,506.349 118.774,505.836 117.727,505.147 
			116.181,504.158 115.546,503.817 114.863,503.387 112.035,501.267 109.619,499.495 108.796,498.801 107.196,497.5 
			104.821,495.592 102.305,493.42 101.711,492.943 98.548,489.983 97.901,489.194 97.308,488.717 91.064,482.525 90.053,481.478 
			89.318,480.736 85.233,476.68 85.233,476.68 81.882,473.367 81.194,472.713 78.39,469.788 77.52,469.005 75.68,467.039 
			75.309,466.557 74.757,465.945 74.016,464.98 73.182,463.838 72.994,463.485 72.947,463.397 71.724,461.102 71.254,460.219 
			71.207,460.131 69.492,456.059 69.304,455.706 69.157,455.218 68.083,451.711 68.083,451.711 67.989,451.535 67.326,448.375 
			67.168,447.44 66.876,444.763 66.724,442.352 66.631,440.475 66.622,436.628 66.569,436.316 66.552,435.646 66.725,431.928 
			66.855,430.046 66.927,427.628 67.23,423.728 67.306,423.234 67.413,422.158 67.703,419.511 67.691,419.064 68.045,417.176 
			68.276,415.694 68.352,415.2 68.506,414.211 68.948,412.276 69.42,409.759 69.509,409.712 69.462,409.624 69.585,409.218 
			70.523,405.66 70.558,405.301 71.708,401.29 71.873,400.749 71.873,400.749 71.955,400.478 73.323,396.238 73.576,395.65 
			74.159,393.98 74.872,392.127 75.126,391.539 76.009,389.369 76.522,388.416 77.111,386.97 78.471,384.206 78.471,384.206 
			78.471,384.206 79.791,381.577 80.556,380.036 80.644,379.989 81.41,378.449 82.564,376.361 83.035,375.544 84.272,373.186 
			85.173,371.686 86.545,369.37 87.399,367.782 88.818,365.553 89.159,364.918 90.319,363.054 90.62,362.554 90.838,362.325 
			92.215,360.232 92.816,359.232 94.717,356.633 94.977,356.269 95.63,355.581 97.06,353.799 98.014,352.612 99.274,351.148 
			101.664,348.402 101.664,348.402 101.664,348.402 101.664,348.402 104.93,344.963 105.06,344.781 105.237,344.687 
			107.944,342.112 109.298,340.825 110.128,340.043 111.175,339.032 112.706,337.65 113.1,337.327 114.983,335.757 116.737,334.37 
			117.879,333.536 118.314,333.077 120.815,331.179 121.08,331.038 123.01,329.556 125.382,327.84 126.041,327.376 126.435,327.053 
			126.83,326.729 129.113,325.06 129.861,324.549 131.62,323.385 133.862,321.851 135.092,320.97 136.41,320.041 137.946,318.883 
			139.529,317.814 140.188,317.349 142.342,315.862 143.09,315.351 144.408,314.422 145.244,313.864 146.915,312.747 
			147.309,312.424 147.486,312.33 149.951,310.79 151.623,309.674 152.764,308.839 154.918,307.352 155.577,306.888 
			156.107,306.606 157.866,305.442 158.614,304.931 159.096,304.561 160.903,303.485 162.044,302.651 164.334,301.205 
			165.387,300.417 167.588,299.019 168.512,298.414 169.306,297.99 171.99,296.221 172.472,295.851 172.737,295.71 175.42,293.941 
			176.521,293.242 177.751,292.36 178.322,291.943 179.028,291.567 181.052,290.262 182.282,289.381 184.571,287.935 
			185.672,287.236 186.637,286.495 189.144,284.82 189.673,284.538 189.803,284.356 190.197,284.033 191.868,282.916 
			193.051,281.946 194.152,281.247 196.923,279.431 197.671,278.919 198.065,278.596 198.989,277.991 200.748,276.827 
			202.284,275.669 203.385,274.97 205.362,273.577 206.063,272.978 207.646,271.908 210.364,269.78 210.629,269.639 
			210.759,269.457 211.812,268.669 213.348,267.511 213.919,267.094 214.708,266.448 215.632,265.842 216.467,265.284 
			218.574,263.709 219.186,263.156 219.451,263.015 222.217,260.976 222.217,260.976 222.788,260.558 223.488,259.959 
			224.542,259.171 227.09,257.361 227.484,257.038 227.749,256.897 230.468,254.769 230.95,254.399 232.18,253.517 232.269,253.47 
			233.322,252.682 235.953,250.602 235.953,250.602 236.041,250.555 238.766,248.65 239.554,248.004 240.825,246.987 
			241.92,246.064 243.497,244.771 244.156,244.307 246.393,242.549 246.611,242.32 246.875,242.179 249.112,240.421 
			250.295,239.452 252.837,237.418 253.231,237.094 253.408,237 253.626,236.771 256.127,234.873 257.445,233.944 259.158,232.692 
			261.306,230.982 261.835,230.7 261.877,230.564 262.271,230.241 264.554,228.572 265.872,227.643 268.332,225.88 269.868,224.722 
			272.328,222.959 272.458,222.777 272.546,222.73 274.523,221.337 275.665,220.502 277.466,219.203 277.819,219.015 
			277.948,218.833 278.213,218.692 279.443,217.81 281.291,216.6 282.256,215.859 282.915,215.395 283.31,215.072 284.893,214.002 
			286.252,212.938 286.87,212.609 288.276,211.633 290.778,209.735 291.437,209.271 292.096,208.806 294.114,207.278 
			295.168,206.491 295.739,206.073 298.463,204.169 299.693,203.287 299.693,203.287 299.693,203.287 299.693,203.287 
			300.529,202.729 301.806,201.936 303.301,200.913 304.136,200.355 304.136,200.355 305.501,199.515 308.314,197.563 
			308.844,197.281 312.01,195.142 312.493,194.772 312.669,194.678 313.416,194.166 316.188,192.35 316.894,191.974 
			317.159,191.833 318.171,191.181 321.078,189.406 322.885,188.331 324.909,187.026 325.35,186.791 325.88,186.509 
			327.686,185.434 329.581,184.312 332.623,182.578 333.506,182.108 333.771,181.967 334.654,181.497 337.472,179.769 
			337.955,179.399 338.661,179.023 341.038,177.53 342.227,176.784 342.227,176.784 342.845,176.455 346.452,174.081 
			346.893,173.846 348.17,173.052 350.371,171.654 350.901,171.372 351.383,171.001 354.29,169.227 354.997,168.851 
			355.391,168.527 356.227,167.969 359.263,166.012 360.934,164.895 361.417,164.525 362.164,164.014 363.441,163.22 
			365.377,161.963 367.137,160.799 367.708,160.382 368.455,159.87 370.079,158.666 370.562,158.295 372.01,157.184 
			372.492,156.814 373.634,155.98 374.334,155.38 375.829,154.357 376.223,154.034 377.147,153.429 378.771,152.224 
			380.484,150.972 381.761,150.179 382.726,149.438 383.297,149.021 384.574,148.227 384.703,148.045 388.134,145.765 
			389.011,145.071 389.758,144.56 391.736,143.167 391.953,142.938 392.307,142.75 393.272,142.009 396.561,139.464 
			397.132,139.047 397.527,138.723 398.492,137.983 400.334,136.549 400.552,136.319 400.905,136.131 401.735,135.35 
			405.019,132.581 405.589,132.164 406.072,131.793 406.819,131.282 408.532,130.03 408.926,129.707 409.191,129.566 
			409.321,129.384 411.474,127.897 413.893,126.269 414.287,125.945 414.552,125.804 416.006,124.917 418.466,123.154 
			418.819,122.966 418.995,122.872 421.461,121.332 423.044,120.263 423.044,120.263 423.132,120.216 427.269,117.559 
			427.799,117.277 428.899,116.578 430.882,115.408 431.541,114.944 432.424,114.474 435.16,113.017 435.778,112.688 
			437.096,111.759 437.537,111.524 438.42,111.054 439.962,110.12 440.315,109.932 442.339,108.627 444.099,107.464 444.275,107.37 
			444.275,107.37 444.316,107.234 444.493,107.14 446.959,105.601 448.459,104.802 451.995,103.145 452.26,103.004 452.613,102.816 
			452.837,102.81 454.119,102.24 456.773,101.054 457.615,100.719 459.739,99.814 461.068,99.333 463.416,98.422 463.592,98.328 
			463.681,98.281 466.164,97.412 469.005,96.579 469.405,96.479 469.67,96.338 472.647,95.546 473.047,95.446 476.024,94.654 
			476.112,94.607 476.424,94.554 478.783,94.091 479.983,93.791 480.784,93.592 482.166,93.422 483.413,93.211 485.372,92.848 
			485.996,92.742 486.531,92.684 489.343,92.432 490.237,92.409 493.32,92.241 494.167,92.129 495.373,92.054 497.026,91.966 
			499.038,91.915 500.196,91.751 502.832,91.593 504.35,91.465 506.267,91.237 508.185,91.008 509.344,90.844 511.974,90.464 
			512.686,90.311 515.715,89.831 516.027,89.778 519.145,89.25 519.769,89.145 521.681,88.693 523.375,88.471 524.087,88.318 
			526.399,87.767 527.823,87.462 529.688,86.922 530.176,86.775 532.041,86.235 533.018,85.941 534.524,85.366 535.236,85.213 
			537.495,84.35 537.76,84.209 538.072,84.156 541.437,82.817 542.055,82.488 542.985,82.106 545.15,81.066 547.051,80.167 
			547.845,79.744 549.345,78.945 550.581,78.287 551.111,78.005 552.346,77.347 553.141,76.924 554.594,76.037 555.477,75.567 
			557.813,74.209 558.166,74.021 558.431,73.88 560.373,72.846 560.549,72.752 560.637,72.705 562.179,71.771 564.433,70.684 
			564.786,70.496 565.051,70.355 567.44,69.309 569.04,68.91 570.552,68.558 572.646,68.236 572.87,68.23 573.452,68.26 
			575.293,68.526 575.834,68.691 576.646,68.938 578.769,69.734 580.486,70.405 582.568,71.336 585.467,72.738 586.237,73.121 
			588.554,74.493 589.554,75.093 589.871,75.264 592.782,77.113 593.329,77.501 594.922,78.579 595.786,79.138 598.744,81.075 
			599.15,81.199 600.649,82.1 601.784,82.742 602.19,82.866 603.954,83.626 605.848,84.203 606.836,84.357 609.036,84.658 
			610.73,84.436 613.084,83.749 613.437,83.561 615.078,83.026 616.979,82.128 617.155,82.034 619.891,80.576 619.891,80.576 
			619.891,80.576 622.01,79.448 624.175,78.408 624.84,78.168 626.482,77.633 627.588,77.158 627.988,77.058 630.394,76.683 
			630.617,76.677 630.888,76.76 633.458,77.544 635.805,78.333 636.44,78.675 637.663,79.27 639.115,80.082 639.615,80.383 
			642.932,82.355 643.114,82.485 643.114,82.485 643.114,82.485 643.249,82.526 646.354,84.951 647.535,85.682 649.535,86.883 
			649.535,86.883 651.263,88.001 651.399,88.043 652.81,88.991 653.404,89.467 655.356,90.58 656.403,91.269 657.355,91.782 
			658.49,92.424 661.031,93.79 661.348,93.961 664.747,95.663 664.794,95.751 664.929,95.792 668.593,97.353 672.022,98.473 
			672.428,98.597 672.563,98.638 672.922,98.673 676.386,99.434 677.551,99.494 679.303,99.807 681.809,99.832 682.439,99.95 
			682.844,100.074 686.391,100.564 686.615,100.558 688.014,101.059 690.273,101.896 690.543,101.978 691.043,102.279 
			694.218,103.986 696.629,105.535 697.588,106.271 700.239,108.484 700.927,109.138 703.455,111.757 703.966,112.504 
			704.754,113.558 705.823,115.141 706.993,117.124 707.557,118.183 708.273,119.954 708.614,121.019 709.101,122.572 
			709.506,124.396 709.606,124.796 709.711,125.419 709.874,128.278 709.844,128.861 709.761,130.831 709.707,132.219 
			709.501,132.896 709.064,135.054 708.175,137.001 707.492,138.271 705.785,139.746 704.826,140.711 704.119,141.087 
			701.778,142.22 700.13,142.531 697.548,143 696.742,142.976 694.553,143.122 694.418,143.081 692.312,142.956 690.877,142.814 
			689.442,142.672 687.419,142.276 687.06,142.241 685.307,141.928 681.708,141.126 681.572,141.085 681.572,141.085 
			681.572,141.085 681.572,141.085 681.437,141.043 677.567,140.159 675.856,139.711 675.856,139.711 674.056,139.309 
			672.032,138.914 669.739,138.436 666.233,137.811 666.145,137.858 666.145,137.858 662.686,137.32 661.651,137.078 
			660.393,136.842 660.169,136.848 659.093,136.742 658.599,136.665 656.04,136.328 655.234,136.304 654.875,136.268 
			654.293,136.239 652.099,136.161 650.711,136.107 650.622,136.154 649.375,136.365 647.375,136.864 646.44,137.022 
			645.157,137.592 644.274,138.062 643.709,138.703 643.144,139.344 642.649,140.967 642.561,141.014 642.608,141.102 
			642.753,143.29 643,144.179 643.628,145.997 644.192,147.056 645.144,149.268 645.42,149.574 646.319,151.475 647.159,152.84 
			647.906,154.029 648.282,154.735 650.004,157.33 650.333,157.948 651.914,160.278 652.66,161.467 653.918,163.403 
			655.598,166.134 655.739,166.398 655.88,166.663 657.273,168.64 658.343,170.223 658.713,170.706 658.995,171.236 
			660.247,172.948 661.176,174.266 662.428,175.979 662.616,176.332 664.008,178.309 664.567,179.145 666.336,181.828 
			666.524,182.181 666.571,182.27 666.988,182.84 668.063,184.647 668.44,185.353 669.327,186.807 669.609,187.336 669.844,187.777 
			670.649,189.502 671.595,191.49 672.07,192.596 672.981,194.944 673.773,197.921 674.014,198.586 674.072,199.121 674.63,201.657 
			674.752,202.951 674.822,203.933 675.092,205.716 675.26,208.798 675.307,208.887 675.266,209.022 675.423,211.657 
			675.469,213.446 675.639,214.828 675.862,216.522 676.02,217.458 676.225,218.481 676.607,219.411 676.942,220.252 
			677.218,220.558 677.818,221.259 678.047,221.477 679.223,221.983 679.27,222.071 681.064,222.249 681.288,222.243 
			682.264,221.95 683.376,221.697 683.865,221.551 685.589,220.746 687.042,219.859 687.925,219.389 689.066,218.554 
			689.243,218.46 689.508,218.319 690.561,217.531 690.867,217.255 691.656,216.608 692.621,215.868 694.551,214.387 
			694.639,214.34 694.639,214.34 696.964,212.535 698.018,211.748 699.73,210.496 700.878,209.885 702.99,208.533 704.402,207.781 
			705.944,206.847 707.05,206.371 708.998,205.56 709.086,205.513 711.034,204.703 713.516,203.833 713.917,203.734 
			714.228,203.681 716.758,202.9 718.405,202.589 721.165,202.026 722.1,201.868 722.724,201.763 725.218,201.341 725.353,201.382 
			725.577,201.376 728.518,200.943 730.571,200.756 731.554,200.686 734.054,200.487 735.26,200.411 737.983,200.207 
			738.519,200.149 738.831,200.096 741.731,199.798 743.337,199.622 744.096,199.558 746.055,199.194 746.59,199.136 
			749.39,198.438 749.702,198.385 750.279,198.191 752.056,197.698 753.827,196.982 754.268,196.747 755.904,195.989 
			756.786,195.519 757.581,195.096 757.975,194.772 758.728,194.485 759.87,193.65 760.005,193.691 760.764,193.627 
			761.217,193.839 761.852,194.181 763.169,194.952 763.669,195.252 764.08,195.6 765.868,197.254 766.285,197.824 767.354,199.407 
					">
		</polygon>
	</g>
</g>
<g id="Layer_1">
</g>
</svg>
