<?xml version="1.0" encoding="iso-8859-1"?>
<!-- Generator: Adobe Illustrator 19.2.1, SVG Export Plug-In . SVG Version: 6.00 Build 0)  -->
<svg version="1.1" xmlns="http://www.w3.org/2000/svg" xmlns:xlink="http://www.w3.org/1999/xlink" x="0px" y="0px"
	 viewBox="0 0 841.89 595.28" style="enable-background:new 0 0 841.89 595.28;" xml:space="preserve">
<g id="layer221">
	<g id="layer221_1_" slic3r:z="8.86000000000007e-005">
		<polygon slic3r:type="contour" style="fill:#FFFFFF;stroke:#000000;stroke-miterlimit:10;" points="633.438,109.844 
			633.138,110.343 632.873,110.484 630.984,111.83 629.566,112.359 628.396,112.076 626.461,111.633 625.498,108.974 
			625.428,107.992 626.753,105.587 628.747,104.864 630.224,104.871 631.67,105.46 632.87,106.861 633.334,107.52 		">
		</polygon>
		<polygon slic3r:type="contour" style="fill:#FFFFFF;stroke:#000000;stroke-miterlimit:10;" points="756.085,216.965 
			756.467,217.895 756.919,219.807 757.218,221.007 757.258,222.572 757.157,223.872 757.08,224.366 756.667,227.419 
			756.543,227.824 756.466,228.318 755.983,230.389 755.559,231.294 755.223,232.153 754.304,234.682 754.139,235.223 
			753.084,237.711 753.002,237.981 751.936,240.022 750.905,241.703 750.222,242.973 749.503,244.602 748.603,246.102 
			747.007,248.424 746.53,249.018 745.924,249.794 744.452,251.711 743.54,252.764 742.145,254.186 740.75,255.609 739.443,256.985 
			738.784,257.449 737.689,258.372 736.989,258.971 735.935,259.759 734.27,261.099 731.545,263.003 730.886,263.468 
			730.404,263.838 727.497,265.613 727.102,265.936 726.308,266.359 723.707,267.857 721.059,269.268 721.059,269.268 
			719.823,269.926 717.434,270.971 717.434,270.971 717.434,270.971 713.981,272.357 711.545,273.315 711.368,273.409 
			710.968,273.508 708.927,274.142 708.35,274.336 705.773,275.029 704.661,275.281 702.261,275.88 701.149,276.132 
			700.437,276.284 697.766,276.8 695.054,277.452 695.054,277.452 694.43,277.557 691.542,278.302 691.23,278.355 690.742,278.502 
			687.765,279.294 685.635,279.975 684.746,280.222 682.128,281.05 682.04,281.097 679.51,281.878 677.163,282.788 676.098,283.128 
			675.568,283.41 672.203,284.75 672.114,284.797 671.761,284.985 668.749,286.136 667.336,286.888 665.612,287.693 
			663.318,288.915 662.523,289.338 661.817,289.714 659.434,290.983 657.716,292.011 657.451,292.152 657.057,292.476 
			655.644,293.228 655.156,293.374 653.703,294.262 651.761,295.296 650.131,296.277 648.148,297.447 647.4,297.958 
			645.947,298.845 645.641,299.122 645.023,299.451 643.699,300.156 643.258,300.391 642.334,300.996 640.392,302.03 
			638.232,303.294 637.703,303.576 637.261,303.811 634.925,305.168 633.16,306.108 631.924,306.766 629.853,307.983 
			629.677,308.077 627.511,309.116 625.922,309.963 624.245,310.856 623.051,311.378 621.551,312.178 620.403,312.789 
			618.767,313.546 616.82,314.357 613.813,315.732 613.725,315.779 613.548,315.873 610.895,317.059 608.859,317.917 
			608.106,318.205 607.529,318.398 605.093,319.356 602.039,320.642 601.951,320.689 601.904,320.601 598.362,322.034 
			595.703,322.997 594.508,323.52 592.161,324.43 590.607,324.918 589.854,325.205 586.795,326.268 584.712,327.037 
			582.982,327.619 579.788,328.64 578.723,328.981 576.593,329.662 575.128,330.102 574.416,330.255 571.974,330.989 
			570.862,331.241 568.509,331.928 567.085,332.233 565.662,332.538 564.238,332.843 562.279,333.206 559.92,333.669 
			558.537,333.839 556.443,334.161 555.331,334.414 553.013,334.742 551.407,334.917 550.025,335.087 547.972,335.274 
			545.56,335.425 544.936,335.531 544.266,335.548 541.495,335.664 538.013,335.933 537.565,335.944 536.359,336.02 
			534.036,336.124 533.454,336.094 530.012,336.228 529.924,336.275 529.701,336.28 526.301,336.278 525.048,336.266 
			521.824,336.17 520.483,336.204 516.807,335.896 516.671,335.855 516.448,335.861 515.189,335.625 512.584,335.199 
			512.089,335.123 510.696,334.845 508.584,334.497 507.461,334.302 505.573,333.948 503.732,333.682 502.296,333.54 
			501.308,333.387 499.02,333.132 497.761,332.896 495.473,332.642 492.062,332.193 491.838,332.199 491.703,332.157 
			490.985,332.086 488.068,331.714 487.303,331.555 484.927,331.347 482.998,331.128 481.38,330.857 480.08,330.756 
			478.016,330.496 475.775,330.33 474.698,330.223 472.41,329.969 470.975,329.827 470.481,329.75 469.493,329.597 467.834,329.46 
			466.846,329.307 465.452,329.03 464.329,328.835 461.364,328.374 460.688,328.168 458.888,327.767 457.312,327.36 457.312,327.36 
			457.312,327.36 455.6,326.912 454.43,326.629 452.989,326.263 451.272,325.592 449.196,324.884 446.708,323.83 446.255,323.618 
			445.532,323.323 443.403,322.304 442.586,321.833 438.322,319.572 438.322,319.572 438.275,319.484 438.275,319.484 
			433.912,316.822 433.46,316.61 432.642,316.139 429.461,314.208 428.103,313.572 425.839,312.511 425.339,312.211 
			424.568,311.828 421.987,310.597 420.769,310.226 418.782,309.472 416.935,308.982 416.123,308.735 415.27,308.623 
			413.294,308.315 411.953,308.35 409.982,308.266 406.629,308.353 405.647,308.423 404.935,308.575 401.323,309.026 
			399.676,309.337 397.94,309.694 396.875,310.035 394.922,310.622 393.545,311.015 392.704,311.35 389.603,312.548 386.95,313.735 
			385.62,314.216 384.208,314.968 382.219,315.914 380.277,316.948 379.836,317.183 377.052,318.552 376.346,318.928 
			373.74,320.203 372.416,320.908 372.151,321.049 371.357,321.472 368.397,322.935 367.161,323.593 365.09,324.81 363.018,326.026 
			361.653,326.866 360.376,327.66 358.882,328.682 357.475,329.658 356.11,330.498 354.533,331.791 352.908,332.996 351.59,333.925 
			350.366,335.03 349.489,335.724 347.906,336.793 346.806,337.493 345.623,338.462 343.775,339.673 343.116,340.137 
			342.939,340.231 342.192,340.743 339.72,342.059 338.355,342.899 336.902,343.787 335.672,344.668 335.142,344.95 333.559,346.02 
			331.494,347.46 330.529,348.2 329.563,348.941 328.251,350.093 326.891,351.157 326.103,351.804 324.573,353.185 322.648,354.89 
			321.471,356.083 319.858,357.735 318.987,358.652 318.163,359.658 317.38,360.528 316.338,361.762 315.426,362.815 
			313.135,365.96 313.135,365.96 313.135,365.96 313.135,365.96 310.892,369.194 310.033,370.558 308.737,372.381 308.308,373.063 
			307.577,374.245 305.817,377.109 304.404,379.561 304.233,379.879 303.079,381.966 302.654,382.872 302.613,383.007 
			302.572,383.142 301.088,386.312 300.375,388.164 299.744,389.746 299.126,391.775 298.996,391.958 298.248,394.169 298,394.981 
			297.122,397.374 296.957,397.915 296.497,399.18 295.955,400.715 295.655,401.214 294.901,403.202 294.224,404.696 
			293.799,405.602 292.781,407.73 292.657,408.136 292.321,408.995 291.214,411.171 290.407,412.847 289.388,414.975 
			289.005,415.746 288.793,416.198 287.768,418.104 286.873,419.827 286.361,420.779 285.513,422.591 284.924,424.037 
			283.952,426.254 283.486,427.295 282.691,429.418 282.055,430.777 281.301,432.765 281.348,432.853 281.259,432.9 
			281.136,433.306 280.34,435.429 280.299,435.564 280.175,435.97 278.92,439.357 278.584,440.216 277.871,442.068 277.406,443.109 
			276.864,444.644 276.781,444.915 276.652,445.097 276.239,446.45 275.697,447.985 275.532,448.526 275.067,449.567 
			274.13,451.425 273.335,453.548 273.252,453.818 272.952,454.318 271.668,456.588 271.192,457.182 270.638,458.27 270.55,458.317 
			269.684,459.457 267.835,462.368 267.618,462.597 267.27,463.009 266.152,464.738 265.292,466.102 264.644,467.013 
			263.52,468.518 262.914,469.295 262.484,469.977 262.137,470.388 261.442,471.211 260.135,472.587 258.575,474.551 
			257.969,475.327 257.839,475.509 257.621,475.738 256.315,477.114 254.672,479.348 254.237,479.807 253.283,480.995 
			251.847,482.552 251.105,483.287 250.581,483.793 249.928,484.481 248.88,485.492 247.615,486.732 247.356,487.097 
			245.655,488.796 244.519,489.854 243.559,490.818 241.37,492.664 241.282,492.711 241.282,492.711 239.216,494.151 
			238.645,494.568 237.368,495.361 235.338,496.442 234.238,497.142 232.167,498.358 231.372,498.781 229.825,499.492 
			228.101,500.297 227.212,500.543 226.106,501.019 224.2,501.694 221.717,502.564 220.787,502.945 220.299,503.092 
			217.328,504.108 216.175,504.495 213.733,505.229 213.068,505.47 212.58,505.617 209.691,506.362 209.067,506.468 
			206.532,507.025 203.284,507.735 202.349,507.893 201.461,508.139 198.966,508.561 197.631,508.819 195.536,509.142 
			193.083,509.428 192.148,509.587 190.407,509.721 188.936,509.938 188.401,509.996 187.33,510.113 185.989,510.148 
			184.471,510.276 184.071,510.376 182.818,510.363 181.389,510.445 181.165,510.451 180.047,510.479 178.483,510.52 
			177.677,510.496 175.53,510.506 172.847,510.575 171.906,510.51 171.459,510.521 170.43,510.503 168.283,510.513 166.983,510.413 
			166.4,510.383 164.653,510.294 164.295,510.258 164.159,510.217 161.559,510.015 159.901,509.879 157.883,509.707 156.489,509.43 
			154.742,509.34 154.472,509.258 152.137,508.915 151.148,508.762 148.231,508.389 147.331,508.189 145.308,507.794 
			144.59,507.723 142.385,507.198 142.114,507.115 142.114,507.115 138.873,506.348 138.603,506.266 138.603,506.266 
			135.992,505.617 135.092,505.417 133.421,504.833 132.657,504.674 130.987,504.091 129.993,503.714 127.282,502.665 126.74,502.5 
			125.882,502.164 123.259,501.068 121.859,500.567 120.501,499.931 119.413,499.378 117.237,498.271 117.102,498.229 
			116.967,498.188 115.009,496.852 112.821,495.297 112.686,495.256 112.504,495.126 109.899,493.001 107.659,491.135 
			106.836,490.441 103.808,487.521 103.667,487.256 103.303,486.997 100.076,483.278 97.495,480.347 95.702,478.469 93.08,475.673 
			92.204,474.667 89.812,472.089 86.326,468.734 85.955,468.251 85.638,468.081 82.604,464.938 82.328,464.632 82.046,464.102 
			80.612,462.26 79.531,460.23 79.484,460.142 79.484,460.142 78.25,457.4 78.009,456.735 77.387,455.14 76.999,453.987 
			76.806,453.411 76.266,451.546 75.773,449.769 75.661,448.922 75.398,447.363 75.145,446.251 75.128,445.58 74.8,443.262 
			74.613,441.209 74.502,440.362 74.403,438.262 74.286,437.191 74.275,436.744 74.234,435.18 74.2,433.838 74.212,432.586 
			74.196,430.215 74.214,429.186 74.293,425.291 74.376,425.021 74.359,424.35 74.513,421.662 74.555,419.827 74.786,418.345 
			74.851,417.404 75.147,414.98 75.454,413.004 75.56,411.928 75.879,410.398 76.398,407.969 76.475,407.475 76.552,406.981 
			77.165,404.728 77.618,403.241 77.99,402.023 78.426,399.865 78.515,399.818 79.228,397.965 79.811,396.295 80.229,395.166 
			80.736,393.99 81.496,392.225 82.668,389.108 82.621,389.02 82.621,389.02 82.71,388.973 83.888,386.08 84.483,384.856 
			84.777,384.133 85.543,382.592 86.65,380.417 87.209,379.552 88.058,377.741 88.317,377.376 89.441,375.871 90.383,374.237 
			91.631,372.326 92.974,370.591 93.315,369.956 94.434,368.227 94.864,367.545 95.211,367.134 95.817,366.357 97.289,364.441 
			98.502,362.889 99.367,361.748 100.539,360.331 101.363,359.326 101.928,358.685 102.752,357.679 103.535,356.809 104.536,355.71 
			105.666,354.428 105.972,354.152 107.279,352.776 107.714,352.318 108.062,351.906 109.197,350.848 110.286,349.702 
			112.076,347.956 112.511,347.497 112.553,347.362 112.729,347.268 114.918,345.422 116.054,344.364 116.843,343.717 
			117.237,343.394 119.95,341.043 120.61,340.578 121.704,339.656 122.976,338.639 123.941,337.898 125.259,336.97 127.013,335.582 
			127.101,335.535 129.608,333.86 129.914,333.584 130.355,333.349 131.762,332.374 132.686,331.768 132.903,331.539 
			134.357,330.652 135.852,329.629 136.734,329.159 138.011,328.366 138.935,327.76 140.83,326.638 141.401,326.221 
			143.031,325.239 144.661,324.258 146.644,323.088 147.879,322.43 148.539,321.966 151.357,320.238 152.105,319.727 
			152.369,319.586 155.894,317.482 156.2,317.206 156.553,317.018 157.259,316.642 159.684,315.238 161.49,314.162 162.503,313.51 
			164.309,312.434 166.645,311.077 166.822,310.983 166.863,310.848 170.611,308.738 171.535,308.133 174.224,306.588 
			176.16,305.33 177.79,304.349 179.067,303.555 181.574,301.88 182.675,301.181 186.329,298.895 186.506,298.801 186.859,298.613 
			189.854,296.791 190.601,296.28 192.008,295.304 193.285,294.511 195.044,293.347 195.88,292.789 197.204,292.084 197.863,291.62 
			199.664,290.321 200.546,289.851 201.906,288.787 202.959,287.999 204.984,286.695 205.16,286.6 205.248,286.554 207.137,285.208 
			207.797,284.743 208.944,284.132 210.568,282.927 210.921,282.739 213.122,281.341 213.781,280.876 216.2,279.248 
			218.395,277.626 218.66,277.485 218.748,277.438 219.054,277.162 221.644,275.216 222.479,274.658 224.015,273.5 225.163,272.889 
			226.652,271.643 227.97,270.714 229.677,269.239 230.424,268.728 231.077,268.04 232.79,266.788 233.802,266.136 235.379,264.842 
			236.297,264.014 238.31,262.262 238.793,261.892 239.364,261.474 241.206,260.04 242.3,259.117 243.619,258.189 245.414,256.666 
			245.414,256.666 245.455,256.531 247.479,255.226 248.356,254.533 249.851,253.51 250.816,252.769 252.57,251.382 
			253.576,250.506 255.589,248.755 256.072,248.384 256.595,247.879 258.438,246.445 259.314,245.751 261.239,244.046 
			261.939,243.447 264.217,241.554 264.658,241.319 265.27,240.767 266.936,239.426 267.901,238.686 269.302,237.487 
			270.92,236.058 271.009,236.011 272.239,235.13 273.292,234.342 273.38,234.295 273.38,234.295 275.487,232.72 277.459,231.103 
			278.383,230.498 278.865,230.128 281.496,228.047 281.978,227.677 282.067,227.63 282.196,227.447 283.82,226.243 
			284.874,225.455 287.328,223.468 287.811,223.098 289.606,221.575 290.306,220.976 290.571,220.835 290.965,220.512 
			292.413,219.401 294.249,217.743 295.214,217.002 296.397,216.033 296.615,215.803 297.451,215.245 298.681,214.363 
			299.075,214.04 299.646,213.623 300.876,212.741 301.929,211.954 304.342,210.102 304.913,209.685 306.931,208.157 
			307.591,207.692 308.12,207.41 308.514,207.087 309.391,206.393 310.404,205.741 311.239,205.183 313.04,203.884 313.699,203.42 
			316.33,201.339 316.506,201.245 317.43,200.639 317.913,200.269 318.837,199.664 322.05,197.613 322.138,197.566 322.314,197.472 
			323.856,196.537 325.875,195.009 326.404,194.727 327.369,193.987 327.94,193.569 330.624,191.8 331.195,191.383 333.307,190.031 
			334.319,189.379 334.89,188.962 335.767,188.268 336.473,187.892 337.221,187.381 337.968,186.87 339.374,185.894 340.21,185.336 
			343.382,183.42 345.006,182.215 346.283,181.422 346.589,181.145 347.642,180.358 348.696,179.57 349.225,179.288 
			349.443,179.059 349.443,179.059 351.862,177.431 353.533,176.314 354.234,175.715 356.17,174.457 358.406,172.7 358.406,172.7 
			358.406,172.7 358.406,172.7 360.383,171.307 360.689,171.03 362.008,170.102 362.884,169.408 364.597,168.156 367.186,166.211 
			367.275,166.164 367.363,166.117 367.581,165.888 368.899,164.959 369.252,164.771 370.394,163.936 371.447,163.149 
			371.624,163.055 373.16,161.897 375.832,159.681 376.008,159.587 376.402,159.264 377.456,158.476 377.85,158.153 
			378.904,157.365 379.951,156.354 381.705,154.967 384.112,152.892 384.112,152.892 384.2,152.845 385.995,151.322 
			386.478,150.952 388.055,149.659 388.538,149.289 390.156,147.86 391.91,146.473 392.304,146.15 392.569,146.009 394.5,144.528 
			396.736,142.77 397.348,142.217 398.401,141.43 398.749,141.018 400.02,140.001 400.985,139.261 403.004,137.733 405.328,135.928 
			405.94,135.376 406.953,134.723 407.347,134.4 408.53,133.43 409.583,132.643 411.602,131.114 414.062,129.351 415.38,128.423 
			415.774,128.099 418.016,126.565 418.234,126.336 418.411,126.242 420.082,125.125 421.447,124.285 422.324,123.591 
			423.03,123.215 424.172,122.381 424.348,122.287 424.966,121.958 427.65,120.189 428.221,119.772 428.309,119.725 
			428.574,119.584 429.191,119.255 431.616,117.85 432.451,117.292 432.805,117.104 434.658,116.117 436.994,114.759 
			437.436,114.524 437.877,114.289 441.278,112.591 442.602,111.886 445.473,110.47 445.473,110.47 445.473,110.47 447.862,109.425 
			449.721,108.661 450.739,108.232 453.352,107.181 453.97,106.852 456.052,106.083 457.823,105.366 458.488,105.125 
			460.218,104.544 461.771,104.057 463.013,103.622 463.854,103.287 465.407,102.8 466.207,102.601 466.608,102.501 466.872,102.36 
			469.049,101.767 471.002,101.18 471.491,101.033 475.044,100.047 475.444,99.947 477.845,99.349 478.91,99.008 480.245,98.75 
			482.469,98.246 482.557,98.199 482.781,98.193 485.187,97.818 486.211,97.613 488.481,97.196 490.04,96.933 490.799,96.868 
			492.582,96.599 492.805,96.593 495.035,96.312 496.194,96.148 496.282,96.101 496.417,96.142 500.741,95.539 501.1,95.575 
			504.983,95.207 505.206,95.201 505.741,95.142 508.553,94.891 509.759,94.815 511.189,94.734 512.753,94.694 514.677,94.689 
			517.224,94.579 518.03,94.603 519.418,94.656 520.853,94.799 521.524,94.781 524.441,95.154 526.147,95.378 527.812,95.738 
			530.641,96.157 531.994,96.57 533.752,97.106 536.046,97.584 538.569,98.28 538.704,98.321 541.186,99.152 543.668,99.983 
			544.709,100.448 545.344,100.79 547.696,101.803 548.149,102.015 550.002,102.728 550.86,103.064 551.266,103.188 
			553.795,104.107 555.242,104.696 556.912,105.279 557.911,105.88 560.17,106.717 560.576,106.84 561.028,107.052 563.063,107.895 
			564.516,108.707 565.556,109.173 567.279,110.068 568.273,110.445 568.726,110.657 569.32,111.134 571.407,112.288 
			572.184,112.894 573.918,114.237 573.918,114.237 576.37,115.65 576.917,116.039 579.687,117.623 580.468,118.452 
			582.697,119.871 585.255,121.908 586.025,122.291 587.348,123.286 589.353,124.711 589.947,125.188 592.816,127.172 
			593.228,127.519 595.503,129.026 596.597,129.803 598.149,131.016 598.284,131.057 599.878,132.135 600.883,132.959 
			602.347,134.219 602.665,134.39 604.217,135.602 605.04,136.297 606.275,137.339 607.009,138.08 608.332,139.075 609.155,139.77 
			610.619,141.03 610.802,141.159 611.989,142.113 612.995,142.937 614.365,144.02 614.729,144.279 616.052,145.274 
			617.651,146.575 618.245,147.052 619.703,148.088 619.886,148.218 622.032,149.907 622.396,150.166 625.042,152.156 
			626.776,153.498 627.553,154.105 630.022,156.189 630.481,156.624 630.616,156.665 633.685,159.45 634.237,160.062 
			636.671,162.504 637.87,163.905 639.434,165.565 641.097,167.625 642.349,169.337 644.806,172.674 644.853,172.762 644.9,172.851 
			647.227,176.37 647.462,176.811 648.073,177.958 648.82,179.147 649.149,179.765 650.13,181.395 651.681,184.308 651.963,184.837 
			652.057,185.014 652.292,185.455 653.661,188.238 654.084,189.033 655.077,191.11 655.412,191.951 655.7,192.704 657.215,195.976 
			657.262,196.064 657.309,196.152 658.267,198.588 658.366,198.988 659.283,201.559 659.382,201.959 659.476,202.136 
			660.697,206.131 660.744,206.219 661.378,208.261 661.778,209.861 661.778,209.861 661.778,209.861 662.417,212.126 
			662.423,212.349 662.822,213.95 663.121,215.15 663.233,215.997 663.726,217.774 663.925,218.574 664.465,220.439 
			664.524,220.974 664.623,221.374 665.252,223.192 665.545,224.169 666.356,226.117 666.873,227.087 667.343,227.97 
			667.854,228.717 668.548,229.594 669.147,230.295 669.377,230.512 670.018,231.078 670.97,231.59 671.652,232.02 672.24,232.273 
			673.775,232.815 675.528,233.128 676.693,233.188 678.969,232.995 680.746,232.502 681.899,232.114 684.329,230.933 
			684.818,230.787 685.036,230.557 685.342,230.281 687.584,228.747 687.978,228.424 689.426,227.313 691.439,225.561 
			691.921,225.191 692.139,224.962 692.751,224.409 694.328,223.116 695.07,222.381 696.694,221.176 697.436,220.441 
			698.707,219.424 699.19,219.054 699.89,218.455 701.514,217.25 702.526,216.597 703.668,215.763 704.504,215.204 705.339,214.646 
			706.616,213.853 707.411,213.43 707.764,213.242 708.693,212.86 709.664,212.343 710.729,212.002 711.482,211.715 
			712.147,211.474 713.212,211.133 715.212,210.635 715.701,210.488 717.966,209.848 718.766,209.648 718.989,209.643 
			719.213,209.637 721.749,209.08 723.578,208.898 724.737,208.734 725.584,208.623 727.372,208.577 727.819,208.566 
			729.519,208.567 733.102,208.698 733.637,208.64 733.996,208.675 734.578,208.705 737.313,208.948 737.36,209.036 
			740.278,209.409 741.131,209.521 744.319,209.976 745.577,210.212 745.848,210.294 746.254,210.418 749.624,211.003 
			750.394,211.385 752.294,212.187 753.211,213.058 754.998,214.712 		">
		</polygon>
	</g>
</g>
<g id="Layer_1">
</g>
</svg>
