<?xml version="1.0" encoding="iso-8859-1"?>
<!-- Generator: Adobe Illustrator 19.2.1, SVG Export Plug-In . SVG Version: 6.00 Build 0)  -->
<svg version="1.1" xmlns="http://www.w3.org/2000/svg" xmlns:xlink="http://www.w3.org/1999/xlink" x="0px" y="0px"
	 viewBox="0 0 841.89 595.28" style="enable-background:new 0 0 841.89 595.28;" xml:space="preserve">
<g id="layer199">
	<g id="layer199_1_" slic3r:z="7.98000000000006e-005">
		<polygon slic3r:type="contour" style="fill:#FFFFFF;stroke:#000000;stroke-miterlimit:10;" points="222.414,371.335 
			223.319,373.459 223.754,374.7 224.523,376.783 225.668,379.572 225.721,379.884 225.915,380.46 226.637,382.455 226.972,383.296 
			227.26,384.049 227.747,385.603 229.004,389.239 229.391,390.392 229.591,391.192 230.565,394.298 230.753,394.651 
			230.759,394.875 231.498,397.54 232.091,399.717 232.191,400.117 232.666,402.923 232.76,403.1 233.169,406.847 233.169,406.847 
			233.275,407.471 233.449,410.777 233.455,411 233.624,414.083 233.635,414.53 233.445,417.577 233.457,418.024 233.38,418.518 
			232.825,421.306 232.501,422.611 232.259,423.646 231.593,425.587 230.945,428.199 230.567,429.192 230.237,430.275 
			229.53,432.351 228.652,434.744 228.44,435.197 228.269,435.515 227.138,438.496 226.637,439.896 225.836,441.795 
			224.917,444.324 224.793,444.73 224.581,445.183 223.827,447.171 223.368,448.435 222.825,449.97 222.148,451.464 
			221.394,453.452 220.752,454.587 219.568,457.256 219.527,457.392 219.438,457.439 218.113,459.844 217.207,461.12 
			216.689,461.849 215.912,462.942 214.74,464.359 213.792,465.771 212.185,467.646 210.366,469.974 210.19,470.068 
			210.237,470.157 210.148,470.204 210.06,470.251 207.747,472.502 206.517,473.384 205.77,473.895 203.216,475.482 
			201.845,476.099 200.786,476.663 198.179,477.937 196.237,478.972 195.972,479.113 193.589,480.382 191.689,481.281 
			190.671,481.709 188.682,482.655 185.275,484.13 185.275,484.13 185.187,484.177 184.875,484.229 181.057,485.356 
			180.568,485.503 180.033,485.562 178.115,485.79 176.686,485.871 173.645,485.905 173.062,485.875 172.433,485.757 
			169.874,485.42 169.021,485.308 168.527,485.231 167.539,485.078 164.434,484.352 161.916,483.88 161.869,483.792 161.24,483.674 
			159.617,483.179 159.258,483.143 156.37,482.188 154.612,481.652 152.759,480.939 149.549,479.59 148.466,479.26 145.614,477.947 
			144.391,477.352 143.938,477.14 140.316,475.443 138.728,474.59 135.917,473.141 134.012,472.116 131.701,470.968 
			129.296,469.643 127.661,468.7 125.391,467.417 123.845,466.428 121.934,465.179 121.704,464.961 120.058,463.572 
			118.271,461.918 117.536,461.177 115.732,458.852 115.638,458.675 114.239,456.475 113.681,455.639 112.658,454.144 
			112.006,453.132 111.306,452.032 110.184,450.137 109.297,448.683 107.328,445.2 107.046,444.67 104.491,439.233 104.109,438.304 
			103.68,437.286 102.006,433.079 101.002,430.555 100.755,429.666 100.392,427.707 100.322,426.725 100.316,426.501 
			100.24,425.296 100.112,423.778 100.396,420.907 100.437,420.772 100.886,417.361 100.881,417.137 100.881,417.137 
			100.881,417.137 101.43,414.126 101.548,413.496 102.249,411.197 103.027,408.403 103.351,407.097 103.599,406.286 
			104.182,404.616 104.389,403.939 104.724,403.081 105.361,401.722 105.914,400.634 106.515,399.635 107.363,397.823 
			107.616,397.235 107.746,397.053 109.6,394.366 109.771,394.048 110.201,393.366 111.985,391.397 113.026,390.162 114.639,388.51 
			116.081,387.176 118.565,384.607 118.83,384.466 121.537,381.891 122.061,381.385 124.292,379.404 125.693,378.205 
			127.005,377.053 128.671,375.713 129.33,375.248 130.336,374.373 131.036,373.773 132.443,372.797 134.026,371.728 
			135.038,371.076 136.974,369.818 137.722,369.307 139.616,368.184 141.599,367.015 141.952,366.827 142.129,366.733 
			144.824,365.411 145.53,365.035 147.913,363.766 148.972,363.202 150.961,362.256 152.462,361.457 154.144,360.787 
			156.045,359.888 157.463,359.36 159.54,358.367 160.911,357.75 162.947,356.892 164.541,356.27 166.224,355.6 167.777,355.113 
			168.972,354.59 170.437,354.15 172.484,353.739 172.707,353.734 175.649,353.3 175.872,353.294 179.531,352.932 179.708,352.838 
			179.755,352.926 183.191,352.57 184.443,352.582 186.544,352.483 187.973,352.402 190.032,352.438 190.838,352.462 
			192.361,352.557 192.99,352.675 194.649,352.812 196.896,353.201 198.29,353.479 201.125,354.122 203.56,354.864 204.507,355.153 
			207.312,356.378 209.082,357.362 211.034,358.475 213.398,359.935 214.403,360.759 216.831,362.978 217.425,363.455 
			218.213,364.508 219.882,366.792 221.239,369.128 221.756,370.099 		">
		</polygon>
		<polygon slic3r:type="contour" style="fill:#FFFFFF;stroke:#000000;stroke-miterlimit:10;" points="618.25,187.27 
			618.391,187.534 618.679,188.288 620.189,191.335 621.469,194.166 621.657,194.519 621.939,195.048 623.267,197.967 
			623.702,199.208 625.023,201.903 625.881,203.939 626.357,205.045 627.062,206.369 627.685,207.964 628.395,209.511 
			629.012,210.882 629.388,211.588 630.152,213.447 630.821,215.13 630.968,215.619 631.696,217.837 633.276,221.867 
			633.276,221.867 633.323,221.955 633.323,221.955 634.756,225.497 635.144,226.65 635.872,228.869 636.87,231.169 636.97,231.569 
			637.933,234.229 638.033,234.629 639.278,237.818 639.325,237.906 639.566,238.571 640.529,241.23 640.676,241.719 
			641.251,243.225 641.874,244.819 642.021,245.308 642.901,248.238 643.336,249.479 643.87,251.121 644.122,252.232 
			644.527,254.056 644.685,254.992 645.066,257.621 645.242,259.227 645.312,260.21 645.329,260.88 645.146,262.451 
			645.086,263.615 644.331,267.303 644.289,267.438 644.207,267.709 643.129,271.002 642.622,272.179 642.157,273.219 
			641.509,274.131 640.95,274.995 639.643,276.371 638.254,278.017 637.818,278.476 637.424,278.799 636.029,280.222 
			634.846,281.191 633.539,282.567 632.444,283.49 631.485,284.454 630.39,285.377 630.084,285.653 628.419,286.993 
			626.759,288.557 626.365,288.88 625.005,289.944 624.611,290.268 624.434,290.362 622.94,291.384 622.016,291.99 621.004,292.642 
			619.462,293.576 617.655,294.652 616.243,295.404 615.584,295.868 613.777,296.943 613.248,297.225 612.942,297.502 
			610.2,298.735 608.964,299.393 605.834,301.174 605.169,301.415 604.775,301.738 601.638,303.295 600.444,303.818 
			597.837,305.092 596.378,305.756 594.342,306.614 593.148,307.137 592.483,307.377 591.641,307.712 589.688,308.299 
			589.423,308.44 589.288,308.399 587.911,308.792 586.758,309.18 586.67,309.227 584.223,309.737 583.511,309.89 580.528,310.458 
			579.593,310.617 576.692,310.915 574.551,311.149 572.857,311.371 569.327,311.552 569.104,311.557 568.792,311.61 
			567.763,311.592 565.121,311.526 564.227,311.549 560.557,311.464 559.616,311.399 558.675,311.333 555.81,311.273 
			554.51,311.172 552.628,311.041 551.416,310.894 548.546,310.61 547.74,310.586 545.269,310.202 544.193,310.095 543.922,310.013 
			540.464,309.475 539.564,309.275 537.135,308.756 536.053,308.425 535.559,308.349 532.724,307.706 531.418,307.381 
			528.672,306.692 528.313,306.656 528.042,306.574 525.107,305.531 524.79,305.36 524.702,305.407 523.52,304.677 521.256,303.616 
			521.256,303.616 521.209,303.528 519.068,302.062 518.886,301.933 517.187,300.232 516.635,299.62 515.67,298.66 514.518,297.348 
			512.438,294.717 512.297,294.452 512.203,294.276 510.428,291.369 510.099,290.751 509.565,289.109 508.76,287.385 
			508.472,286.632 508.126,285.344 507.774,283.832 507.54,281.69 507.459,278.561 507.406,278.249 507.715,274.573 
			507.709,274.349 508.293,270.979 508.7,269.403 509.278,267.509 509.985,265.433 510.403,264.304 511.529,261.099 511.9,259.881 
			512.277,258.887 513.237,256.223 513.32,255.953 513.444,255.547 514.263,252.618 514.723,251.354 515.084,247.989 
			515.084,247.989 515.044,244.724 514.745,243.524 514.358,242.371 513.976,241.441 513.6,240.735 513.23,240.253 511.801,238.634 
			510.702,237.634 509.238,236.374 507.962,235.467 505.869,234.089 504.281,233.236 501.111,231.751 500.841,231.669 
			500.57,231.586 498.4,230.703 498.177,230.708 496.418,230.172 494.077,229.606 492.683,229.328 491.154,229.01 488.772,228.579 
			486.437,228.236 485.09,228.047 483.249,227.782 481.543,227.557 479.296,227.167 477.902,226.89 477.497,226.766 
			476.014,226.536 475.385,226.418 474.438,226.129 472.097,225.563 469.439,224.826 468.674,224.667 468.086,224.413 
			465.058,223.194 463.382,222.387 459.9,220.956 459.177,220.661 458.495,220.231 456.142,219.218 455.507,218.876 
			454.555,218.364 452.967,217.51 448.839,215.29 448.792,215.202 448.792,215.202 448.792,215.202 444.205,212.546 
			442.753,211.733 439.613,209.667 437.661,208.554 435.426,206.911 433.792,205.969 432.198,204.892 431.193,204.068 
			429.011,202.737 427.553,201.701 424.954,199.799 423.526,198.18 422.144,196.65 421.857,195.897 421.116,194.932 
			420.623,193.155 420.341,192.626 419.825,189.955 419.731,189.778 419.772,189.643 419.614,188.708 419.655,188.572 
			419.615,187.008 419.593,184.413 419.675,184.143 419.87,183.019 419.912,182.884 420.337,180.279 420.372,179.92 
			421.338,177.479 422.263,175.174 422.517,174.586 423.194,173.092 423.577,172.322 424.384,170.646 424.513,170.463 
			424.554,170.328 426.274,167.6 428.429,164.413 428.776,164.001 429.247,163.184 429.459,162.731 429.801,162.096 
			430.702,160.597 431.903,158.597 433.181,156.104 433.693,155.151 434.459,153.611 436.031,150.394 436.979,148.983 
			437.627,148.071 439.34,145.12 439.77,144.437 440.859,143.291 441.984,141.786 442.808,140.78 443.243,140.322 443.808,139.681 
			446.174,137.741 447.139,137.001 448.94,135.702 449.952,135.049 451.541,134.203 452.159,133.874 454.63,132.558 
			454.807,132.464 455.954,131.853 457.455,131.054 457.631,130.96 460.326,129.638 460.815,129.491 463.645,128.211 
			464.486,127.876 466.345,127.112 467.675,126.631 468.34,126.39 471.135,125.468 472.865,124.887 475.041,124.294 
			476.642,123.895 478.554,123.443 480.201,123.133 481.001,122.933 482.966,122.793 483.813,122.682 487.066,122.196 
			487.425,122.231 489.655,121.95 490.502,121.839 490.725,121.833 493.137,121.682 495.866,121.701 496.808,121.766 
			497.255,121.755 497.925,121.738 500.66,121.98 502.59,122.199 502.725,122.24 504.836,122.589 506.766,122.808 509.371,123.233 
			511.124,123.546 512.83,123.77 514.718,124.124 516.741,124.52 517.912,124.803 519.8,125.157 521.599,125.558 522.77,125.841 
			525.334,126.401 526.505,126.684 529.881,127.492 531.233,127.905 533.257,128.3 533.439,128.43 534.792,128.842 536.279,129.296 
			536.685,129.42 537.091,129.544 538.267,130.05 539.849,130.681 541.519,131.264 544.048,132.183 544.319,132.266 544.725,132.39 
			547.03,133.314 548.336,133.639 550.641,134.564 552.758,135.136 553.976,135.507 555.599,136.002 557.54,136.668 559.21,137.251 
			560.927,137.923 562.597,138.506 563.909,139.054 566.308,140.156 566.761,140.368 566.896,140.409 567.667,140.792 
			570.119,142.205 571.024,142.629 574.206,144.56 575.746,145.326 578.381,146.869 579.88,147.77 581.562,148.8 582.015,149.012 
			583.608,150.09 584.608,150.69 585.701,151.467 587.43,152.586 588.294,153.145 588.659,153.405 589.07,153.752 592.222,156.266 
			592.545,156.66 592.91,156.919 596.39,160.05 596.437,160.139 596.525,160.092 596.896,160.574 599.923,163.494 600.382,163.929 
			603.233,166.943 603.921,167.596 606.59,170.48 606.866,170.786 609.123,173.323 609.911,174.376 610.046,174.418 
			610.187,174.682 612.133,177.272 612.785,178.284 614.272,180.438 614.642,180.92 614.877,181.362 616.235,183.698 
			617.968,186.74 		">
		</polygon>
	</g>
</g>
<g id="Layer_1">
</g>
</svg>
