<?xml version="1.0" encoding="iso-8859-1"?>
<!-- Generator: Adobe Illustrator 19.2.1, SVG Export Plug-In . SVG Version: 6.00 Build 0)  -->
<svg version="1.1" xmlns="http://www.w3.org/2000/svg" xmlns:xlink="http://www.w3.org/1999/xlink" x="0px" y="0px"
	 viewBox="0 0 841.89 595.28" style="enable-background:new 0 0 841.89 595.28;" xml:space="preserve">
<g id="layer249">
	<g id="layer249_1_" slic3r:z="9.98000000000009e-005">
		<polygon slic3r:type="contour" style="fill:#FFFFFF;stroke:#000000;stroke-miterlimit:10;" points="737.979,119.995 
			738.12,120.26 739.254,122.602 739.495,123.267 740.123,125.085 740.188,125.844 740.246,126.379 741.591,129.968 
			741.738,130.457 741.832,130.633 742.542,132.181 743.488,134.169 743.629,134.434 745.051,137.529 745.615,138.588 
			746.655,140.754 748.018,143.313 748.071,143.625 748.165,143.802 749.081,146.373 749.486,148.197 749.685,148.997 
			750.16,151.803 750.26,152.203 750.171,152.25 750.265,152.426 750.663,155.727 751.562,157.627 751.709,158.116 752.085,158.822 
			752.666,160.551 753.23,161.611 754.359,163.729 754.97,164.876 755.722,166.289 756.139,166.859 756.656,167.83 757.884,170.349 
			758.583,171.449 759.153,172.732 759.441,173.485 759.723,174.015 760.251,175.433 760.498,176.321 760.551,176.633 
			760.85,177.833 761.202,179.345 761.437,179.786 762.93,182.164 763.076,182.652 763.3,182.646 765.181,184.477 766.639,185.513 
			767.468,186.431 768.203,187.173 769.314,188.62 770.196,189.85 770.713,190.821 771.089,191.527 772.076,193.381 772.27,193.957 
			772.798,195.375 773.097,196.576 773.338,197.24 773.719,199.87 773.983,201.429 774.041,201.964 774.117,203.17 773.981,204.829 
			773.591,207.076 773.479,207.929 773.355,208.335 773.102,208.923 772.265,211.181 772.012,211.769 771.34,213.486 
			770.021,216.115 769.98,216.25 769.938,216.385 768.531,219.061 767.418,221.013 766.9,221.742 765.345,223.93 764.739,224.706 
			764.698,224.841 764.568,225.023 764.221,225.435 762.443,227.628 761.095,229.139 760.354,229.874 759.524,230.656 
			758.264,232.12 756.999,233.36 755.904,234.283 754.856,235.294 753.414,236.628 752.013,237.828 751.707,238.104 
			750.307,239.303 748.994,240.455 747.111,242.025 746.151,242.989 744.969,243.959 743.874,244.881 742.473,246.081 
			740.337,248.238 739.854,248.608 738.594,250.072 737.505,251.219 737.111,251.542 735.633,253.235 735.327,253.511 
			735.239,253.558 733.885,254.846 732.797,255.992 731.572,257.097 729.783,258.843 729.518,258.984 727.552,260.824 
			727.111,261.059 725.887,262.165 724.574,263.317 724.18,263.64 721.726,265.627 721.42,265.903 718.872,267.713 718.301,268.131 
			715.971,269.711 714.782,270.458 711.522,272.421 711.434,272.468 711.434,272.468 708.386,273.977 705.997,275.023 
			705.114,275.493 704.537,275.687 702.237,276.685 701.796,276.92 700.466,277.402 699.977,277.549 697.853,278.453 
			696.306,279.164 695.064,279.599 694.27,280.022 690.816,281.408 690.463,281.596 690.287,281.69 687.633,282.877 
			686.127,283.452 685.95,283.546 685.862,283.593 685.597,283.734 682.414,285.203 681.308,285.679 679.366,286.713 
			678.348,287.142 676.936,287.894 675.082,288.881 674.288,289.304 672.04,290.614 670.716,291.319 670.187,291.601 
			667.762,293.006 667.056,293.382 666.968,293.429 666.485,293.799 664.367,294.927 662.56,296.003 662.472,296.049 
			660.401,297.266 659.124,298.059 657.052,299.276 656.393,299.74 654.281,301.092 653.133,301.703 652.827,301.979 
			652.121,302.355 650.009,303.707 648.685,304.412 645.648,306.369 645.56,306.416 645.383,306.51 642.829,308.096 
			641.152,308.989 640.052,309.689 637.675,311.181 637.41,311.322 635.292,312.451 631.767,314.554 631.767,314.554 
			631.678,314.601 631.678,314.601 628.107,316.617 626.035,317.833 625.947,317.88 624.094,318.867 622.37,319.672 
			621.046,320.377 619.498,321.088 618.439,321.652 615.52,322.98 615.52,322.98 615.52,322.98 611.313,324.654 610.207,325.129 
			606.883,326.333 605.777,326.809 604.535,327.244 603.029,327.819 601.788,328.254 600.858,328.636 599.305,329.123 
			598.11,329.646 596.469,330.18 595.098,330.797 593.945,331.184 592.927,331.613 592.086,331.948 589.208,333.14 588.944,333.281 
			588.944,333.281 588.679,333.422 585.937,334.656 585.095,334.991 582.177,336.318 581.071,336.794 580.365,337.17 
			577.358,338.545 577.358,338.545 577.358,338.545 577.358,338.545 573.069,340.489 571.698,341.106 569.309,342.152 
			566.832,343.244 566.567,343.385 565.637,343.767 564.396,344.202 564.043,344.39 562.048,345.112 560.407,345.646 
			558.942,346.086 557.124,346.715 555.794,347.196 555.129,347.437 553.664,347.877 552.376,348.224 551.799,348.417 
			548.557,349.351 547.892,349.592 547.581,349.644 545.045,350.202 543.445,350.601 542.645,350.8 541.397,351.011 
			539.485,351.463 538.638,351.574 536.103,352.131 535.567,352.19 535.167,352.29 532.185,352.858 530.896,353.205 
			529.737,353.369 528.849,353.615 526.713,354.073 522.889,354.976 522.666,354.982 522.489,355.076 518.394,355.897 
			517.459,356.055 515.859,356.454 514.3,356.718 512.294,356.993 510.064,357.274 509.664,357.374 508.77,357.397 506.94,357.578 
			505.958,357.648 504.217,357.783 501.717,357.981 501.628,358.028 501.181,358.04 498.905,358.232 497.611,358.355 
			493.863,358.764 493.64,358.77 493.505,358.729 490.916,358.974 489.31,359.15 488.239,359.267 486.41,359.448 485.651,359.512 
			485.116,359.571 482.927,359.717 481.01,359.945 480.251,360.009 478.821,360.091 477.615,360.166 476.815,360.366 
			475.921,360.389 473.38,360.723 472.621,360.787 471.55,360.904 468.521,361.384 464.644,361.976 464.332,362.029 
			463.708,362.134 460.102,362.809 457.784,363.137 455.913,363.453 453.284,363.834 451.766,363.962 451.454,364.015 
			451.007,364.027 450.56,364.038 447.613,364.248 445.913,364.247 443.454,364.31 442.513,364.245 439.378,364.102 
			436.419,363.865 435.254,363.805 435.254,363.805 433.731,363.71 433.419,363.763 433.284,363.722 430.913,363.738 
			428.454,363.801 426.978,363.794 425.548,363.876 422.778,363.992 420.589,364.138 418.672,364.366 416.53,364.6 414.883,364.911 
			414.436,364.922 412.477,365.286 411.453,365.491 410.03,365.796 409.853,365.89 406.029,366.793 404.741,367.14 402.117,367.744 
			400.652,368.184 399.587,368.525 398.61,368.818 397.545,369.159 396.969,369.353 394.227,370.586 393.562,370.827 
			393.474,370.874 392.944,371.156 389.325,373.083 388.531,373.506 387.913,373.835 384.918,375.657 382.405,377.108 
			380.816,377.955 380.287,378.237 379.539,378.748 378.392,379.359 376.627,380.299 375.261,381.139 373.278,382.309 
			372.354,382.914 368.565,385.159 368.388,385.253 368.124,385.394 366.888,386.052 365.876,386.704 365.081,387.127 
			363.851,388.009 363.763,388.056 363.675,388.103 359.585,390.847 359.191,391.171 357.919,392.188 355.989,393.669 
			355.377,394.221 354.983,394.545 353.152,396.426 351.021,398.807 350.762,399.172 350.456,399.448 349.279,400.641 
			347.713,402.381 346.754,403.346 344.794,405.409 344.182,405.962 343.31,406.879 342.486,407.884 340.962,409.489 
			339.832,410.771 338.089,412.605 337.436,413.293 336.918,414.022 336.005,415.074 334.922,416.444 333.792,417.726 
			333.533,418.09 330.36,421.706 330.054,421.982 330.013,422.118 327.882,424.499 326.581,426.098 325.186,427.521 
			325.233,427.609 325.145,427.656 322.967,429.949 322.008,430.913 320.83,432.106 319.565,433.347 319.218,433.758 
			317.905,434.91 316.551,436.198 315.851,436.797 315.239,437.35 313.62,438.778 312.655,439.519 311.078,440.812 309.495,441.882 
			308.006,443.128 307.435,443.545 306.823,444.098 305.77,444.885 304.369,446.084 303.798,446.502 302.615,447.472 
			301.038,448.765 299.466,450.281 298.766,450.881 298.637,451.063 297.236,452.262 295.399,453.92 294.964,454.379 
			294.658,454.655 292.863,456.177 290.632,458.158 290.544,458.205 289.626,459.034 286.654,461.75 286.654,461.75 286.654,461.75 
			283.416,464.607 282.628,465.254 282.322,465.53 280.397,467.235 278.696,468.934 278.39,469.21 278.084,469.486 277.819,469.627 
			276.86,470.591 274.806,472.478 273.846,473.442 270.921,476.246 270.615,476.523 270.397,476.752 269.526,477.669 
			268.172,478.957 267.26,480.009 266.212,481.02 265.035,482.213 263.511,483.818 262.198,484.971 260.891,486.346 259.714,487.54 
			259.143,487.957 258.837,488.233 257.613,489.338 256.565,490.349 255.824,491.084 252.193,494.264 251.928,494.405 
			251.71,494.635 249.827,496.204 248.12,497.68 247.855,497.821 247.549,498.097 246.06,499.343 243.959,501.142 243.782,501.236 
			243.476,501.512 242.246,502.394 239.663,504.563 239.398,504.704 239.133,504.845 235.396,507.401 235.22,507.495 
			235.002,507.725 230.418,510.392 230.418,510.392 230.33,510.439 226.752,512.231 225.075,513.124 223.969,513.6 223.175,514.023 
			221.051,514.928 219.056,515.65 217.685,516.267 216.667,516.696 214.008,517.659 213.208,517.858 211.566,518.393 
			210.501,518.733 209.348,519.121 208.06,519.467 206.859,519.766 205.971,520.013 205.483,520.16 203.659,520.564 
			202.459,520.864 202.059,520.963 200.5,521.227 199.564,521.385 198.541,521.591 197.07,521.807 196.087,521.877 195.24,521.989 
			193.011,522.27 191.94,522.387 190.422,522.515 187.969,522.802 187.61,522.766 187.522,522.813 185.022,523.012 184.887,522.971 
			183.234,523.058 181.669,523.098 181.581,523.145 181.134,523.156 178.316,523.184 175.722,523.206 175.187,523.265 
			174.693,523.188 171.428,523.227 168.387,523.261 166.64,523.171 164.804,523.129 163.104,523.128 161.134,523.044 
			160.016,523.073 158.94,522.967 156.34,522.765 156.028,522.818 155.893,522.776 152.575,522.504 151.769,522.48 150.646,522.285 
			148.852,522.107 147.505,521.918 147.011,521.842 145.664,521.653 144.182,521.422 142.653,521.104 141.035,520.832 
			139.012,520.437 138.741,520.354 136.042,519.753 135.724,519.582 135.318,519.458 132.207,518.509 131.531,518.303 
			128.914,517.431 128.055,517.095 125.432,515.999 124.48,515.487 123.168,514.939 122.533,514.597 120.31,513.402 
			120.081,513.184 119.399,512.754 117.082,511.382 115.218,510.222 114.124,509.445 111.573,507.632 110.25,506.637 
			109.885,506.378 106.645,503.911 103.947,501.61 102.436,500.262 99.138,497.26 98.262,496.253 95.599,493.593 95.417,493.463 
			95.187,493.245 89.115,486.736 87.921,485.559 81.843,478.825 81.155,478.172 80.556,477.472 78.851,475.547 76.359,472.569 
			73.684,469.462 72.943,468.497 72.068,467.49 71.556,466.743 70.998,465.907 70.487,465.16 68.953,462.918 68.436,461.947 
			67.689,460.758 67.125,459.699 66.232,458.022 66.179,457.71 65.369,455.763 64.312,452.927 64.265,452.838 63.425,449.773 
			63.273,449.061 63.273,449.061 63.179,448.885 62.405,444.878 62.346,444.343 61.901,440.954 61.85,438.943 61.751,436.843 
			61.877,433.037 61.871,432.813 61.948,432.319 62.344,428.596 62.481,426.937 62.87,424.69 63.142,423.073 63.661,420.644 
			63.809,419.432 64.097,418.485 64.581,416.415 64.905,415.109 65.383,412.815 65.996,410.563 66.444,408.851 67.093,406.24 
			67.624,404.258 68.078,402.77 68.243,402.229 68.573,401.147 69.074,399.747 69.362,398.8 69.781,397.671 70.329,396.36 
			71.377,393.648 71.754,392.655 72.514,390.89 73.739,388.085 73.91,387.768 73.905,387.544 75.73,383.739 75.73,383.739 
			75.772,383.604 77.008,381.246 77.727,379.617 78.239,378.664 78.875,377.306 79.217,376.671 80.324,374.495 80.625,373.995 
			81.738,372.043 82.55,370.591 83.021,369.773 83.704,368.503 84.346,367.368 84.859,366.416 85.459,365.416 86.578,363.687 
			86.919,363.052 87.137,362.823 89.339,359.724 89.38,359.589 89.598,359.36 91.241,357.125 92.365,355.62 92.624,355.256 
			93.319,354.432 94.361,353.198 94.708,352.786 95.838,351.505 96.662,350.499 97.928,349.259 99.058,347.977 99.364,347.701 
			100.106,346.966 101.63,345.361 103.373,343.527 103.461,343.48 103.549,343.433 105.297,341.822 107.045,340.211 
			107.133,340.164 107.175,340.029 109.058,338.46 110.412,337.172 110.983,336.755 111.812,335.973 112.736,335.368 
			113.437,334.768 114.531,333.845 115.408,333.152 116.856,332.041 118.869,330.289 119.134,330.148 119.222,330.101 
			119.834,329.549 121.458,328.344 121.676,328.114 123.959,326.445 124.707,325.934 127.073,323.994 127.379,323.718 
			127.555,323.624 127.861,323.348 129.792,321.866 130.362,321.449 132.428,320.009 133.393,319.269 135.588,317.646 
			136.071,317.276 138.572,315.378 139.013,315.143 139.408,314.819 141.779,313.103 142.703,312.498 144.063,311.434 
			145.251,310.688 147.229,309.295 147.446,309.065 147.711,308.924 149.777,307.484 151.007,306.603 152.59,305.533 
			154.744,304.046 155.185,303.811 155.403,303.582 157.91,301.907 158.875,301.166 160.37,300.144 160.852,299.774 
			162.523,298.657 164.106,297.587 165.207,296.888 166.348,296.053 167.931,294.984 169.691,293.82 170.35,293.356 
			172.198,292.145 172.68,291.775 174.311,290.793 177.3,288.748 177.388,288.701 177.388,288.701 177.565,288.607 180.69,286.603 
			182.361,285.487 183.196,284.928 184.868,283.812 185.703,283.253 186.668,282.513 188.075,281.537 188.911,280.979 
			190.099,280.233 190.847,279.721 192.647,278.422 193.13,278.052 195.46,276.471 195.99,276.189 196.031,276.054 196.473,275.819 
			199.327,273.732 199.986,273.268 201.522,272.11 202.487,271.369 202.928,271.134 204.947,269.606 205.606,269.142 
			206.748,268.307 207.936,267.561 208.902,266.82 210.396,265.798 212.238,264.364 212.721,263.993 213.115,263.67 
			215.004,262.324 216.323,261.396 217.023,260.796 218.212,260.05 219.965,258.662 219.965,258.662 221.901,257.405 
			223.614,256.153 224.008,255.83 224.973,255.089 226.38,254.113 226.862,253.743 229.058,252.121 230.111,251.333 
			231.559,250.222 232.483,249.617 233.36,248.924 235.29,247.442 236.343,246.655 237.791,245.544 239.109,244.615 
			240.163,243.828 241.346,242.858 243.758,241.006 244.112,240.818 244.418,240.542 246.742,238.738 248.149,237.762 
			249.332,236.792 250.297,236.052 253.063,234.012 253.239,233.918 253.416,233.824 256.882,231.185 256.97,231.138 
			257.147,231.044 259.96,229.093 262.373,227.241 262.373,227.241 262.373,227.241 262.461,227.194 265.274,225.243 
			266.722,224.132 267.163,223.897 267.469,223.621 269.358,222.275 271.159,220.976 271.335,220.882 271.424,220.835 
			274.19,218.795 275.508,217.867 276.167,217.403 277.35,216.433 278.492,215.598 279.504,214.946 280.952,213.835 
			282.664,212.583 284.288,211.378 284.947,210.914 286.13,209.944 287.225,209.021 287.796,208.604 288.278,208.233 
			289.244,207.493 291.127,205.923 291.568,205.688 292.751,204.719 293.322,204.301 294.199,203.608 295.694,202.585 
			297.23,201.427 298.989,200.263 300.001,199.611 301.849,198.401 303.079,197.519 304.18,196.82 304.886,196.444 305.986,195.744 
			306.516,195.462 308.363,194.252 311.27,192.477 312.194,191.872 312.636,191.637 313.607,191.119 316.072,189.58 
			316.867,189.157 318.673,188.081 320.303,187.1 320.744,186.865 320.921,186.771 325.287,184.332 325.464,184.238 
			325.905,184.003 329.571,182.164 331.071,181.365 333.325,180.279 333.678,180.09 333.943,179.949 336.102,178.686 
			337.956,177.699 341.175,175.872 341.834,175.407 342.275,175.172 343.599,174.467 344.964,173.627 345.8,173.068 
			346.506,172.692 347.165,172.228 349.366,170.829 350.555,170.083 350.731,169.989 352.844,168.637 354.956,167.286 
			355.045,167.239 355.174,167.057 359.317,164.624 359.758,164.389 359.976,164.159 362.618,162.526 363.454,161.967 
			364.248,161.544 364.731,161.174 367.72,159.129 367.938,158.9 369.168,158.018 369.739,157.601 370.398,157.136 371.581,156.167 
			371.934,155.978 373.558,154.774 374.482,154.168 376.194,152.916 376.812,152.587 378.042,151.706 379.714,150.589 
			380.243,150.307 380.42,150.213 380.773,150.025 382.844,148.809 384.298,147.921 384.651,147.733 387.599,145.823 
			388.17,145.406 388.917,144.895 389.929,144.242 392.036,142.667 392.124,142.62 392.124,142.62 393.178,141.833 396.332,139.246 
			397.427,138.323 398.527,137.624 400.634,136.049 400.634,136.049 400.634,136.049 401.688,135.261 404.977,132.716 
			405.548,132.299 405.984,131.84 408.526,129.807 409.009,129.436 409.185,129.342 410.062,128.649 410.239,128.555 
			413.44,126.057 413.793,125.869 414.494,125.269 417.477,123 417.695,122.771 417.695,122.771 417.783,122.724 418.707,122.119 
			422.45,119.786 422.538,119.739 422.803,119.598 422.98,119.504 426.899,117.077 427.252,116.889 427.252,116.889 
			427.252,116.889 428.57,115.96 429.582,115.308 430.418,114.749 431.471,113.962 431.824,113.774 435.696,111.258 
			436.138,111.023 436.444,110.747 438.385,109.713 439.969,108.643 441.157,107.897 441.157,107.897 441.245,107.85 
			443.276,106.769 444.199,106.164 445.129,105.782 446.276,105.171 448.354,104.178 451.719,102.839 452.649,102.457 
			455.573,101.353 456.903,100.871 457.079,100.777 457.303,100.772 461.251,99.462 462.004,99.174 463.157,98.787 465.64,97.918 
			468.834,96.896 469.811,96.603 471.853,95.969 474.03,95.376 474.871,95.041 478.207,94.284 479.983,93.791 482.654,93.275 
			484.478,92.871 485.767,92.524 487.996,92.243 488.932,92.085 490.314,91.915 491.296,91.845 493.214,91.617 494.197,91.547 
			495.85,91.46 497.32,91.243 499.062,91.109 500.132,90.992 502.762,90.611 503.209,90.6 503.385,90.506 506.727,89.972 
			508.998,89.556 510.11,89.304 510.51,89.204 512.645,88.746 512.957,88.694 514.604,88.383 517.093,87.737 518.246,87.35 
			519.888,86.816 520.199,86.763 521.929,86.182 522.906,85.888 524.9,85.166 527.113,84.214 527.778,83.973 528.884,83.498 
			529.637,83.21 530.743,82.734 532.291,82.023 533.132,81.688 534.591,81.025 537.816,79.421 538.304,79.274 538.481,79.18 
			538.922,78.945 541.04,77.817 542.364,77.112 542.982,76.783 545.012,75.701 545.806,75.278 546.819,74.626 547.307,74.479 
			548.59,73.91 548.901,73.857 549.608,73.481 550.843,72.823 552.485,72.288 552.797,72.236 553.061,72.095 554.827,71.155 
			555.268,70.919 557.174,70.244 557.663,70.097 557.886,70.092 560.816,69.211 562.634,68.583 563.881,68.372 565.264,68.202 
			566.111,68.091 568.393,68.122 569.023,68.24 569.334,68.187 569.917,68.217 572.517,68.418 574.405,68.772 574.763,68.808 
			576.698,69.25 577.328,69.368 578.992,69.728 580.61,70 582.274,70.359 583.351,70.466 587.027,70.774 587.162,70.815 
			587.25,70.768 588.462,70.916 590.256,71.094 590.391,71.135 594.12,71.755 594.209,71.708 594.256,71.796 594.703,71.785 
			597.585,72.516 598.126,72.681 599.525,73.182 600.525,73.782 603.048,74.478 603.636,74.731 603.907,74.814 604.448,74.979 
			606.836,75.633 608.235,76.134 609.635,76.635 611.159,76.73 612.829,77.313 615.076,77.703 615.164,77.656 618.405,78.423 
			618.587,78.552 618.769,78.682 619.04,78.764 622.598,79.702 623.321,79.996 624.627,80.321 625.486,80.656 627.697,81.405 
			627.697,81.405 630.361,82.365 631.443,82.695 634.648,83.821 634.648,83.821 634.648,83.821 634.737,83.774 637.677,85.04 
			639.935,85.877 641.065,86.295 641.517,86.507 642.464,86.796 644.817,87.809 647.028,88.558 647.751,88.852 648.292,89.017 
			650.321,89.636 650.504,89.766 652.35,90.255 654.509,90.692 654.868,90.727 657.068,91.029 657.967,91.229 660.073,91.354 
			661.908,91.396 662.938,91.414 663.697,91.35 666.244,91.24 667.091,91.129 668.203,90.876 670.432,90.595 671.856,90.29 
			674.698,89.457 675.01,89.404 675.098,89.357 678.422,88.153 678.734,88.101 679.222,87.954 680.511,87.607 681.264,87.32 
			682.594,86.838 682.729,86.879 684.106,86.486 684.776,86.469 685.853,86.575 686.394,86.74 686.882,86.594 689.276,87.472 
			689.364,87.425 689.411,87.513 689.546,87.554 691.769,88.75 693.039,89.433 693.762,89.727 695.127,90.587 695.803,90.793 
			696.662,91.129 697.979,91.9 699.155,92.407 700.331,92.914 701.69,93.55 702.777,94.103 703.365,94.357 704.542,94.863 
			706.4,95.8 708.799,96.901 709.434,97.243 710.293,97.579 712.516,98.774 714.415,99.575 715.821,100.3 716.726,100.724 
			719.667,101.99 719.849,102.12 722.025,103.227 722.707,103.657 723.936,104.475 724.436,104.775 725.894,105.812 
			726.488,106.288 727.999,107.636 730.28,109.367 730.556,109.673 732.99,112.116 733.313,112.51 733.637,112.905 735.359,115.5 
			736.199,116.865 737.927,119.684 		">
		</polygon>
		<polygon slic3r:type="hole" style="stroke:#000000;stroke-miterlimit:10;" points="659.658,203.965 659.246,203.618 
			658.787,203.183 658.652,203.141 658.564,203.188 658.34,203.194 657.405,203.352 657.228,203.446 656.434,203.869 
			656.258,203.963 656.04,204.193 655.298,204.927 654.951,205.339 654.91,205.474 654.609,205.974 654.486,206.38 654.42,207.321 
			654.42,207.321 654.467,207.409 654.514,207.498 654.838,207.892 655.02,208.021 655.426,208.145 655.873,208.134 
			656.096,208.128 656.761,207.887 657.114,207.699 657.602,207.552 658.044,207.317 658.479,206.859 658.568,206.812 
			659.044,206.218 659.262,205.989 659.598,205.13 659.639,204.995 659.581,204.459 659.705,204.054 		">
		</polygon>
		<polygon slic3r:type="hole" style="stroke:#000000;stroke-miterlimit:10;" points="754.975,184.247 754.57,184.123 
			754.034,184.182 752.74,184.304 752.652,184.351 751.863,184.998 751.163,185.598 750.762,187.397 750.768,187.621 
			750.815,187.709 750.95,187.75 751.085,187.792 752.161,187.898 753.414,187.911 753.679,187.77 755.227,187.059 755.916,186.012 
			755.769,185.524 755.205,184.465 		">
		</polygon>
	</g>
</g>
<g id="Layer_1">
</g>
</svg>
