<?xml version="1.0" encoding="iso-8859-1"?>
<!-- Generator: Adobe Illustrator 19.2.1, SVG Export Plug-In . SVG Version: 6.00 Build 0)  -->
<svg version="1.1" xmlns="http://www.w3.org/2000/svg" xmlns:xlink="http://www.w3.org/1999/xlink" x="0px" y="0px"
	 viewBox="0 0 841.89 595.28" style="enable-background:new 0 0 841.89 595.28;" xml:space="preserve">
<g id="layer230">
	<g id="layer230_1_" slic3r:z="9.22000000000008e-005">
		<polygon slic3r:type="contour" style="fill:#FFFFFF;stroke:#000000;stroke-miterlimit:10;" points="764.938,206.359 
			765.414,207.465 765.52,208.089 765.631,208.936 765.906,210.942 765.988,212.371 765.992,214.295 765.821,216.312 
			765.696,218.418 765.66,218.777 765.342,220.306 765.265,220.8 764.941,222.106 764.823,222.735 764.245,224.629 763.579,226.57 
			763.538,226.705 763.538,226.705 763.45,226.752 762.26,229.198 761.671,230.645 761.117,231.733 759.492,234.638 
			759.451,234.773 759.321,234.955 757.39,238.137 756.96,238.819 755.794,240.459 754.888,241.735 754.458,242.417 
			753.209,244.328 751.743,246.469 751.526,246.698 751.267,247.062 749.571,248.985 748.618,250.173 747.576,251.407 
			745.922,253.194 745.268,253.882 744.527,254.617 742.478,256.728 741.301,257.921 741.083,258.15 739.771,259.302 
			738.158,260.954 737.064,261.877 735.445,263.306 734.215,264.187 733.073,265.022 731.979,265.945 730.266,267.197 
			728.683,268.266 727.936,268.778 725.864,269.994 724.411,270.881 722.863,271.592 721.363,272.391 719.815,273.102 
			718.091,273.907 716.232,274.67 713.308,275.775 712.108,276.074 708.778,277.054 708.201,277.248 707.889,277.301 
			704.689,278.099 701.441,278.809 700.953,278.955 700.418,279.014 697.082,279.771 692.64,281.003 692.552,281.05 692.552,281.05 
			687.757,282.471 687.092,282.712 683.679,283.962 682.35,284.444 679.561,285.589 678.19,286.206 676.378,287.058 674.565,287.91 
			673.636,288.292 672.353,288.861 670.629,289.666 669.128,290.465 667.404,291.27 665.774,292.251 664.05,293.056 
			663.038,293.709 660.79,295.019 658.984,296.094 658.366,296.423 656.03,297.781 655.677,297.969 655.677,297.969 
			655.324,298.157 652.546,299.749 652.017,300.031 649.11,301.806 647.745,302.646 646.379,303.487 645.279,304.186 
			643.119,305.449 642.501,305.779 642.148,305.967 641.089,306.531 639.018,307.747 637.959,308.311 635.399,309.674 
			633.946,310.562 632.798,311.173 631.339,311.836 628.956,313.106 628.114,313.44 624.713,315.138 624.449,315.279 
			621.265,316.748 620.383,317.218 617.817,318.358 615.605,319.309 614.01,319.932 610.692,321.359 610.027,321.6 607.238,322.745 
			605.997,323.18 605.644,323.368 601.79,324.854 600.948,325.189 599.884,325.529 598.113,326.246 596.871,326.68 595.588,327.25 
			593.417,328.066 592.264,328.454 590.493,329.17 586.904,330.515 586.504,330.615 586.239,330.756 584.245,331.478 
			581.897,332.389 581.497,332.488 577.42,333.98 576.666,334.268 573.295,335.383 571.43,335.923 568.9,336.704 566.235,337.444 
			564.594,337.978 561.17,338.782 559.969,339.081 556.322,339.891 555.875,339.902 555.787,339.949 554.986,340.149 
			552.092,340.671 551.645,340.682 549.151,341.104 547.592,341.368 546.209,341.538 544.962,341.749 543.444,341.877 541.75,342.1 
			539.744,342.375 538.808,342.533 536.979,342.714 536.044,342.873 535.508,342.931 533.102,343.306 531.72,343.476 
			529.402,343.804 528.378,344.009 527.619,344.073 523.337,344.541 523.248,344.588 523.248,344.588 523.248,344.588 
			520.031,344.716 518.825,344.791 518.019,344.767 514.842,344.76 514.842,344.76 514.842,344.76 510.59,344.645 509.601,344.492 
			507.99,344.444 506.331,344.307 504.36,344.224 502.478,344.093 498.849,343.873 497.819,343.855 494.19,343.635 493.743,343.647 
			493.608,343.606 489.755,343.391 488.367,343.338 485.367,343.236 483.038,343.117 481.291,343.027 478.332,342.79 
			477.75,342.761 477.391,342.725 474.479,342.576 473.091,342.522 472.867,342.528 472.509,342.493 469.014,342.314 
			467.044,342.231 465.567,342.224 463.597,342.14 461.715,342.01 460.774,341.944 457.139,341.501 456.78,341.465 456.421,341.43 
			453.139,340.799 452.51,340.681 452.374,340.639 452.151,340.645 448.91,339.878 447.516,339.601 445.852,339.241 
			443.964,338.887 442.299,338.527 441.535,338.368 439.423,338.02 438.253,337.737 436.188,337.476 434.571,337.205 
			432.688,337.074 431.835,336.962 428.965,336.678 428.024,336.613 425.647,336.405 422.648,336.303 421.883,336.144 
			420.048,336.102 419.824,336.108 418.254,335.924 416.018,335.982 415.66,335.946 412.842,335.974 412.083,336.038 
			411.324,336.103 407.312,336.653 407,336.706 406.6,336.806 403.041,337.568 402.329,337.721 400.329,338.219 399.487,338.554 
			398.687,338.754 395.581,339.728 394.339,340.163 391.68,341.126 390.174,341.701 388.314,342.465 386.543,343.182 
			384.861,343.851 383.931,344.233 381.807,345.137 381.366,345.372 379.283,346.142 379.283,346.142 377.159,347.046 
			376.406,347.334 374.24,348.374 372.869,348.991 372.428,349.226 371.369,349.79 369.074,351.012 367.573,351.811 
			365.367,352.986 362.678,354.532 361.795,355.002 361.177,355.331 358.264,356.882 356.281,358.051 355.575,358.427 
			354.74,358.986 353.239,359.785 352.268,360.302 350.55,361.33 348.126,362.735 347.861,362.876 347.419,363.111 345.172,364.421 
			343.853,365.35 342.841,366.002 341.747,366.925 340.693,367.712 340.04,368.4 338.551,369.646 337.327,370.752 335.319,372.727 
			335.102,372.956 334.884,373.185 333.354,374.567 331.564,376.313 331.129,376.771 330.517,377.324 328.074,379.758 
			326.503,381.274 326.155,381.686 325.849,381.962 324.501,383.473 323.459,384.708 323.024,385.166 322.288,386.125 
			321.505,386.995 320.987,387.724 319.821,389.364 318.049,391.781 317.231,393.01 315.211,396.238 314.263,397.649 
			313.403,399.013 312.414,400.56 311.384,402.242 310.524,403.606 309.07,406.193 308.899,406.511 308.086,407.963 
			305.984,411.462 305.472,412.415 305.301,412.732 304.83,413.549 303.505,415.955 303.075,416.637 302.215,418.001 
			300.802,420.453 300.584,420.682 300.331,421.27 299.124,423.046 298.612,423.999 297.84,425.316 296.38,427.68 296.209,427.997 
			295.956,428.585 295.402,429.673 295.232,429.991 295.108,430.396 293.965,432.931 293.288,434.425 293.035,435.013 
			291.974,437.277 291.674,437.777 291.379,438.5 290.702,439.994 290.531,440.311 289.206,442.716 288.182,444.622 288.14,444.757 
			287.622,445.486 287.369,446.074 286.939,446.756 286.339,447.756 285.909,448.438 285.349,449.302 284.184,450.943 
			283.065,452.672 282.894,452.989 282.547,453.401 282.376,453.718 280.557,456.046 279.609,457.458 279.22,458.004 
			278.873,458.416 278.485,458.963 276.925,460.927 275.93,462.25 274.846,463.619 273.893,464.807 273.198,465.63 272.633,466.271 
			271.938,467.094 270.638,468.693 270.202,469.152 269.596,469.928 269.16,470.387 267.376,472.356 265.728,474.367 
			265.469,474.731 265.251,474.961 263.597,476.748 262.161,478.306 260.901,479.77 260.425,480.364 259.294,481.645 
			258.594,482.245 257.77,483.25 256.593,484.444 255.374,485.772 255.156,486.002 255.027,486.184 252.278,488.894 251.754,489.4 
			251.36,489.723 251.23,489.905 249.135,491.927 247.999,492.985 247.693,493.262 247.387,493.538 245.592,495.06 244.015,496.354 
			242.785,497.235 241.114,498.352 239.225,499.698 238.124,500.397 236.229,501.519 234.817,502.272 234.111,502.648 
			231.463,504.058 230.533,504.44 227.921,505.491 226.991,505.873 223.273,507.4 222.961,507.453 222.696,507.594 219.325,508.709 
			218.572,508.997 217.154,509.525 216.842,509.578 215.377,510.019 214.265,510.271 212.8,510.711 209.953,511.321 
			209.864,511.368 209.553,511.421 206.705,512.031 203.546,512.694 203.322,512.699 203.146,512.793 200.028,513.321 
			198.334,513.543 197.222,513.796 194.457,514.135 194.457,514.135 194.457,514.135 191.245,514.486 190.798,514.498 
			187.762,514.755 186.868,514.778 184.815,514.965 182.803,515.016 182.445,514.981 181.15,515.104 180.121,515.085 
			179.315,515.061 177.168,515.072 176.274,515.095 172.515,515.057 172.156,515.022 170.815,515.056 169.068,514.967 
			168.798,514.884 166.962,514.842 166.515,514.854 166.38,514.812 163.915,514.652 161.898,514.48 159.657,514.314 
			157.416,514.148 156.069,513.959 154.051,513.787 153.916,513.746 153.781,513.705 151.446,513.362 148.887,513.025 
			147.899,512.872 147.046,512.759 144.393,512.246 143.717,512.04 141.647,511.556 140.612,511.314 140.253,511.279 
			139.306,510.99 137.506,510.589 136.018,510.135 133.854,509.475 132.454,508.974 130.966,508.52 128.62,507.73 125.908,506.682 
			125.861,506.593 125.773,506.64 123.421,505.627 122.015,504.903 121.063,504.391 119.428,503.448 118.564,502.889 
			118.246,502.718 116.747,501.817 115.565,501.087 115.018,500.699 112.513,498.974 111.008,497.849 109.044,496.289 
			104.84,492.863 104.429,492.516 104.2,492.298 103.97,492.08 99.52,487.766 96.769,485.152 96.216,484.54 95.758,484.105 
			92.912,481.315 90.478,478.872 87.586,475.994 86.346,474.728 85.522,474.034 81.848,470.325 80.931,469.454 78.174,466.617 
			77.668,466.094 77.345,465.699 76.417,464.381 75.811,463.457 75.576,463.016 74.025,460.103 73.602,459.309 72.363,456.343 
			72.034,455.725 71.499,454.084 71.048,452.172 70.86,451.819 70.185,448.212 70.227,448.077 70.227,448.077 70.18,447.989 
			69.676,444.065 69.513,441.206 69.49,440.312 69.444,438.524 69.381,436.065 69.388,434.588 69.407,431.859 69.527,427.83 
			69.521,427.606 69.51,427.159 69.724,423.306 69.849,421.201 70.015,418.959 70.541,415.054 70.617,414.56 71.131,411.907 
			71.526,409.884 71.52,409.66 71.686,409.119 72.328,406.284 72.735,404.708 73.065,403.626 73.637,401.509 73.838,400.609 
			73.92,400.338 74.922,397.539 75.046,397.133 76.171,393.928 76.336,393.387 77.385,390.676 78.233,388.864 78.616,388.094 
			78.958,387.459 79.547,386.012 79.882,385.154 80.907,383.248 81.419,382.296 82.532,380.344 83.681,378.032 84.411,376.851 
			86.337,373.446 86.678,372.811 87.238,371.946 88.439,369.947 89.381,368.312 89.64,367.948 90.588,366.537 91.966,364.443 
			92.395,363.761 92.525,363.579 92.784,363.214 93.95,361.574 94.727,360.48 94.986,360.116 96.369,358.246 97.67,356.647 
			98.406,355.688 99.142,354.73 99.837,353.907 101.179,352.173 101.615,351.714 101.744,351.532 102.05,351.255 103.792,349.421 
			105.488,347.499 105.664,347.405 105.706,347.269 108.107,344.971 108.978,344.054 110.685,342.578 112.345,341.015 
			113.304,340.05 114.352,339.039 114.923,338.622 116.412,337.376 117.071,336.912 118.56,335.665 121.455,333.444 
			121.673,333.214 121.761,333.167 122.026,333.026 125.145,330.799 126.24,329.876 127.864,328.671 128.04,328.577 128.129,328.53 
			131.03,326.532 131.206,326.438 131.424,326.209 133.49,324.769 134.414,324.163 135.691,323.37 137.185,322.347 138.768,321.278 
			139.604,320.719 141.364,319.556 141.758,319.233 142.77,318.58 144.265,317.558 144.794,317.276 146.289,316.253 147.39,315.554 
			148.007,315.225 149.679,314.108 150.779,313.409 152.45,312.292 153.286,311.734 155.222,310.476 155.399,310.382 
			155.399,310.382 157.905,308.707 157.905,308.707 157.994,308.66 160.636,307.026 162.701,305.586 162.79,305.539 
			162.878,305.492 164.902,304.188 166.444,303.253 167.368,302.648 167.898,302.366 169.263,301.526 169.745,301.155 
			171.552,300.08 172.917,299.24 174.5,298.17 174.588,298.123 175.995,297.147 177.272,296.354 178.284,295.702 179.12,295.143 
			181.056,293.886 181.627,293.469 183.521,292.346 185.722,290.948 185.81,290.9 185.899,290.853 187.917,289.325 188.929,288.673 
			191.036,287.098 191.389,286.91 193.414,285.605 193.72,285.329 193.896,285.235 196.009,283.883 197.062,283.096 
			198.292,282.214 201.017,280.31 201.105,280.263 201.193,280.216 201.282,280.169 203.477,278.547 204.312,277.988 
			205.631,277.06 207.649,275.531 208.397,275.02 208.791,274.697 210.815,273.392 211.651,272.834 212.751,272.135 213.54,271.488 
			214.723,270.518 217.136,268.667 217.354,268.437 217.53,268.343 219.59,266.68 219.678,266.633 221.614,265.375 222.844,264.494 
			224.115,263.477 225.604,262.231 226.263,261.766 227.976,260.514 228.676,259.915 230.124,258.804 231.001,258.11 
			232.36,257.046 232.667,256.77 233.632,256.03 235.344,254.778 235.697,254.59 235.65,254.501 238.287,252.644 238.899,252.092 
			240.04,251.257 241.006,250.516 242.1,249.594 243.725,248.389 244.119,248.065 244.207,248.018 246.75,245.985 247.497,245.473 
			248.809,244.321 249.157,243.91 250.604,242.799 251.128,242.293 252.446,241.365 252.841,241.041 255.077,239.284 
			256.219,238.449 257.355,237.391 258.714,236.327 258.979,236.186 259.285,235.91 260.909,234.705 261.304,234.382 
			263.499,232.76 264.287,232.113 265.47,231.143 265.953,230.773 267.883,229.292 268.236,229.104 269.643,228.128 
			269.949,227.852 272.014,226.412 272.762,225.9 273.55,225.254 274.033,224.884 274.998,224.143 278.158,221.78 278.158,221.78 
			278.158,221.78 278.247,221.733 281.189,219.6 282.066,218.906 282.419,218.718 283.473,217.931 284.132,217.466 286.633,215.568 
			286.986,215.38 287.468,215.009 290.629,212.647 290.805,212.553 292.035,211.671 292.959,211.066 294.495,209.908 
			295.237,209.173 295.501,209.032 296.949,207.921 299.321,206.205 299.497,206.111 299.497,206.111 300.639,205.276 
			301.651,204.624 302.793,203.789 303.717,203.184 304.199,202.814 304.905,202.438 305.035,202.255 306.795,201.092 
			307.936,200.257 308.731,199.834 311.502,198.018 312.25,197.507 313.35,196.808 314.492,195.973 315.463,195.456 
			316.034,195.039 316.475,194.804 318.058,193.734 318.058,193.734 318.058,193.734 318.146,193.687 320.877,192.006 
			322.242,191.166 322.548,190.89 324.925,189.397 325.19,189.256 327.479,187.81 328.403,187.205 328.58,187.111 329.021,186.876 
			329.197,186.782 330.21,186.13 332.281,184.913 333.47,184.167 334.835,183.326 336.553,182.298 337.083,182.016 337.653,181.599 
			341.573,179.172 341.879,178.895 341.967,178.848 342.538,178.431 345.18,176.798 346.192,176.145 346.192,176.145 
			346.322,175.963 346.41,175.916 348.216,174.841 350.37,173.354 350.941,172.936 351.777,172.378 353.625,171.167 
			354.637,170.515 355.561,169.91 357.979,168.282 358.903,167.676 359.168,167.535 360.133,166.795 361.145,166.143 
			362.246,165.443 363.123,164.75 364.311,164.003 364.706,163.68 367.124,162.052 367.389,161.911 369.013,160.706 369.19,160.612 
			369.672,160.242 371.738,158.802 373.58,157.368 373.757,157.274 374.063,156.997 375.952,155.652 377.488,154.494 
			377.97,154.123 379.418,153.012 380.207,152.366 380.383,152.272 382.313,150.791 382.443,150.608 382.884,150.373 
			384.42,149.215 386.615,147.593 387.975,146.529 388.722,146.018 389.205,145.648 390.959,144.261 391.882,143.655 
			392.936,142.868 394.954,141.34 395.349,141.016 396.579,140.135 397.238,139.67 397.897,139.206 399.692,137.684 
			400.657,136.943 401.446,136.296 403.329,134.727 403.9,134.31 405.083,133.34 405.695,132.787 406.178,132.417 408.108,130.936 
			408.855,130.424 409.997,129.59 412.151,128.103 412.545,127.78 413.775,126.898 414.258,126.528 415.005,126.016 
			416.982,124.624 418.212,123.742 418.477,123.601 418.654,123.507 421.602,121.597 422.702,120.898 426.357,118.612 
			426.751,118.288 426.927,118.194 428.075,117.583 431.07,115.762 431.158,115.715 431.158,115.715 434.424,113.975 
			435.436,113.323 435.878,113.088 436.142,112.947 437.555,112.195 439.673,111.067 439.938,110.926 441.262,110.221 
			443.91,108.811 446.251,107.677 447.975,106.872 448.152,106.778 448.152,106.778 450.806,105.591 451.471,105.35 
			452.488,104.922 453.459,104.405 455.23,103.688 456.737,103.112 456.825,103.065 458.555,102.484 459.884,102.003 
			461.167,101.433 461.479,101.38 461.832,101.192 462.897,100.851 464.138,100.417 464.803,100.176 468.886,98.908 468.886,98.908 
			468.886,98.908 469.775,98.662 473.193,97.634 473.281,97.587 473.369,97.54 476.123,96.754 476.435,96.701 478.611,96.108 
			481.635,95.404 482.212,95.21 482.612,95.111 485.642,94.63 486.354,94.478 486.442,94.431 489.519,94.038 490.189,94.021 
			492.866,93.729 494.248,93.559 496.437,93.413 498.043,93.238 499.872,93.056 501.255,92.887 502.596,92.852 503.131,92.794 
			504.514,92.624 507.902,92.179 508.037,92.22 508.661,92.115 512.008,91.805 512.767,91.741 515.62,91.354 516.067,91.343 
			518.073,91.067 518.744,91.05 519.991,90.839 521.821,90.658 522.891,90.541 524.809,90.313 525.121,90.26 526.815,90.037 
			528.556,89.903 529.58,89.698 531.81,89.417 534.216,89.042 535.192,88.748 538.04,88.138 538.969,87.757 541.017,87.346 
			543.5,86.477 543.9,86.377 544.253,86.189 546.777,85.185 548.277,84.386 549.207,84.004 550.843,83.246 551.549,82.87 
			552.961,82.118 554.726,81.178 554.991,81.037 556.933,80.003 557.639,79.627 559.846,78.452 560.64,78.029 561.964,77.324 
			562.847,76.854 565.542,75.532 565.806,75.391 565.983,75.297 569.395,74.046 570.06,73.805 572.149,73.259 574.119,73.343 
			574.166,73.431 574.255,73.384 576.601,74.174 576.825,74.168 579.359,75.311 579.995,75.652 582.082,76.806 584.711,78.126 
			585.71,78.726 586.345,79.068 589.25,80.693 590.115,81.252 590.385,81.335 593.937,83.749 594.119,83.878 597.447,86.298 
			597.994,86.687 599.587,87.764 601.228,88.93 602.092,89.489 604.897,90.714 606.338,91.08 608.126,91.034 609.067,91.099 
			611.691,90.495 612.091,90.395 614.433,89.261 614.875,89.026 616.858,87.857 618.7,86.423 618.788,86.376 618.788,86.376 
			621.071,84.707 621.424,84.519 621.73,84.242 623.843,82.891 624.237,82.567 625.65,81.815 627.103,80.928 628.209,80.452 
			629.409,80.153 630.304,80.13 632.351,79.719 632.621,79.802 633.115,79.879 634.239,80.073 636.009,81.057 636.238,81.275 
			636.373,81.316 638.602,82.735 640.195,83.812 640.331,83.854 640.466,83.895 643.347,86.326 644.076,86.844 645.904,88.363 
			647.68,89.57 648.503,90.264 650.238,91.607 652.154,93.078 652.931,93.685 655.306,95.592 655.441,95.633 657.687,97.723 
			658.281,98.2 660.203,99.895 662.173,101.679 662.355,101.808 664.466,103.857 665.836,104.94 667.129,106.517 668.828,108.218 
			668.969,108.483 670.673,110.407 671.696,111.902 672.531,113.044 673.283,114.456 674.087,116.18 673.94,117.392 
			673.691,119.903 673.35,120.538 672.543,122.214 671.189,123.502 670.8,124.049 668.906,125.171 667.717,125.917 666.922,126.34 
			665.287,127.098 664.351,127.256 663.375,127.55 661.51,128.09 659.951,128.354 658.974,128.647 658.215,128.712 657.144,128.829 
			656.25,128.852 654.374,128.945 653.168,129.02 652.809,128.985 651.915,129.008 650.574,129.042 649.944,128.924 
			648.421,128.829 647.75,128.846 646.627,128.652 646.268,128.616 645.774,128.539 643.98,128.362 643.127,128.249 
			641.557,128.066 641.11,128.078 640.751,128.042 638.198,127.929 637.527,127.946 636.139,127.892 635.469,127.909 
			634.798,127.927 634.398,128.026 633.821,128.22 633.245,128.414 632.803,128.649 631.573,129.531 631.267,129.807 
			630.302,130.548 629.69,131.1 629.208,131.47 628.166,132.705 627.612,133.793 626.882,134.975 626.346,136.733 626.181,137.274 
			626.063,137.904 626.061,139.604 626.308,140.492 626.372,141.251 627.207,142.393 627.395,142.746 627.577,142.875 
			627.853,143.181 629.688,144.924 630.793,146.148 631.434,146.713 632.674,147.978 633.961,149.332 634.602,149.897 
			635.843,151.163 636.948,152.387 637.036,152.34 638.323,153.694 639.105,154.523 639.934,155.442 640.81,156.448 
			641.639,157.366 642.609,158.549 643.714,159.773 645.148,161.615 645.518,162.098 646.67,163.41 647.088,163.981 
			647.182,164.158 648.293,165.606 648.845,166.218 650.332,168.371 651.12,169.425 651.402,169.954 651.913,170.702 
			653.071,172.238 653.817,173.427 654.376,174.262 655.075,175.363 656.051,176.769 657.361,179.017 657.731,179.5 
			657.872,179.764 659.365,182.142 660.164,183.642 660.681,184.613 661.709,186.331 662.415,187.655 663.319,189.779 
			664.165,191.368 664.788,192.963 665.593,194.687 666.514,197.481 667.037,198.676 667.137,199.076 667.284,199.564 
			668.029,202.453 668.17,202.718 668.827,205.653 668.827,205.653 668.874,205.742 669.49,208.813 669.853,210.772 
			670.006,211.483 670.375,213.666 670.422,213.754 670.422,213.754 670.522,214.154 671.026,216.378 671.079,216.69 
			671.813,219.132 671.954,219.396 672.33,220.103 672.947,221.473 673.776,222.392 674.24,223.051 674.74,223.351 675.928,224.305 
			677.28,224.717 678.586,225.042 680.774,224.896 681.357,224.926 682.021,224.685 683.31,224.339 684.593,223.769 
			685.346,223.481 685.964,223.152 687.24,222.359 687.947,221.983 689.047,221.283 691.33,219.614 691.683,219.426 
			691.948,219.285 693.967,217.757 694.32,217.569 694.32,217.569 696.121,216.27 697.174,215.482 699.11,214.225 699.681,213.807 
			700.605,213.202 702.411,212.127 703.071,211.662 704.13,211.098 705.718,210.252 706.513,209.829 706.778,209.688 
			707.089,209.635 708.284,209.113 710.408,208.208 710.985,208.014 714.309,206.81 714.885,206.617 718.662,205.625 
			718.927,205.484 719.374,205.472 722.222,204.862 723.734,204.51 725.74,204.235 726.052,204.182 726.81,204.118 728.728,203.89 
			729.352,203.784 731.405,203.597 732.564,203.433 733.058,203.51 734.352,203.387 736.317,203.247 737.523,203.172 
			739.488,203.032 741.764,202.839 741.852,202.792 741.988,202.833 743.817,202.652 746.047,202.371 746.27,202.365 
			746.359,202.318 749.435,201.926 749.924,201.779 752.33,201.404 753.13,201.205 753.265,201.246 753.489,201.24 756.836,200.93 
			758.271,201.072 759.659,201.126 760.565,201.55 761.7,202.192 762.658,202.928 763.628,204.111 764.139,204.858 		">
		</polygon>
	</g>
</g>
<g id="Layer_1">
</g>
</svg>
