<?xml version="1.0" encoding="iso-8859-1"?>
<!-- Generator: Adobe Illustrator 19.2.1, SVG Export Plug-In . SVG Version: 6.00 Build 0)  -->
<svg version="1.1" xmlns="http://www.w3.org/2000/svg" xmlns:xlink="http://www.w3.org/1999/xlink" x="0px" y="0px"
	 viewBox="0 0 841.89 595.28" style="enable-background:new 0 0 841.89 595.28;" xml:space="preserve">
<g id="layer208">
	<g id="layer208_1_" slic3r:z="8.34000000000006e-005">
		<polygon slic3r:type="contour" style="fill:#FFFFFF;stroke:#000000;stroke-miterlimit:10;" points="259.79,325.146 260.03,325.81 
			260.177,326.299 261.005,328.917 261.357,330.429 261.991,332.47 262.49,334.471 262.748,335.806 263.053,337.23 263.563,339.677 
			264.126,342.436 264.138,342.883 264.56,345.378 264.923,347.337 265.127,350.061 265.438,351.708 265.695,354.743 
			265.759,355.502 265.882,356.796 266.063,358.626 266.35,361.079 266.362,361.526 266.765,365.05 266.724,365.185 
			266.724,365.185 267.322,369.285 267.421,369.685 267.802,372.315 267.913,373.162 268.189,375.168 268.259,376.151 
			268.44,377.98 268.58,379.945 268.608,381.063 268.683,383.969 268.699,386.339 268.698,388.039 268.609,389.786 268.567,391.621 
			268.519,393.233 268.429,394.98 268.258,396.998 268.056,399.598 267.908,400.809 267.76,402.021 267.506,404.309 
			267.199,406.285 266.845,408.173 266.568,409.567 266.178,411.814 265.977,412.714 265.258,416.043 265.217,416.178 
			265.175,416.314 263.891,420.283 263.513,421.277 262.253,424.441 261.705,425.753 260.904,427.652 260.485,428.781 
			259.249,431.139 258.53,432.768 256.451,437.161 256.363,437.208 256.363,437.208 254.448,441.06 253.43,443.189 251.727,446.588 
			251.044,447.858 249.896,450.169 248.577,452.798 247.764,454.25 246.186,457.243 245.932,457.831 245.762,458.149 
			243.677,462.318 243.335,462.953 242.222,464.905 241.239,466.675 240.679,467.54 240.467,467.993 239.384,469.363 
			238.042,471.097 237.695,471.509 237.524,471.826 236.653,472.743 236.135,473.472 235.31,474.478 234.186,475.983 
			234.057,476.165 233.709,476.577 232.626,477.947 231.89,478.905 231.325,479.546 230.848,480.14 229.365,481.609 227.234,483.99 
			227.105,484.173 226.71,484.496 225.922,485.143 225.092,485.924 223.909,486.894 223.255,487.582 221.761,488.605 
			220.531,489.486 218.948,490.556 217.182,491.496 215.947,492.154 215.241,492.53 213.693,493.241 212.146,493.952 
			209.975,494.768 208.957,495.197 208.645,495.25 208.115,495.532 204.609,496.606 202.214,497.428 202.038,497.522 
			199.284,498.309 199.108,498.403 196.26,499.013 195.684,499.207 193.86,499.611 193.772,499.658 193.683,499.705 
			191.901,499.975 190.877,500.18 189.406,500.397 187.583,500.802 186.959,500.907 186.647,500.96 184.594,501.147 182.9,501.369 
			182.765,501.328 180.712,501.515 179.953,501.579 179.37,501.55 177.717,501.637 176.153,501.677 175.57,501.647 174.317,501.635 
			172.123,501.557 170.153,501.473 169.57,501.444 168.047,501.349 165.941,501.224 165.941,501.224 165.671,501.141 
			162.753,500.769 161.812,500.704 159.836,500.396 157.86,500.089 156.289,499.906 154.354,499.464 153.636,499.393 
			151.025,498.744 150.26,498.585 147.473,498.03 147.337,497.989 145.085,497.376 143.15,496.933 142.068,496.603 139.362,495.778 
			139.139,495.784 138.415,495.489 136.027,494.835 135.439,494.582 133.187,493.969 131.969,493.597 130.658,493.049 
			127.953,492.224 127.365,491.971 124.971,491.093 124.248,490.798 122.301,489.909 120.99,489.361 118.496,488.083 
			117.408,487.529 114.18,485.51 114.18,485.51 114.133,485.422 111.523,483.073 111.341,482.943 109.26,480.313 108.472,479.259 
			106.886,476.705 106.086,475.205 101.866,469.408 101.402,468.749 101.308,468.573 101.214,468.396 97.388,462.276 
			96.466,461.181 93.686,457.45 93.086,456.75 91.093,454.072 90.958,454.031 90.958,454.031 90.864,453.854 89.495,451.071 
			89.113,450.142 88.726,448.988 87.951,446.682 87.253,443.882 87.053,443.082 86.484,440.099 86.332,439.387 86.238,439.211 
			86.279,439.075 86.016,435.816 86.04,435.01 85.853,432.957 85.889,432.599 85.96,431.881 86.032,429.463 86.138,428.387 
			86.104,427.046 86.211,425.969 86.287,425.475 86.594,423.499 86.807,421.346 86.955,420.134 87.15,419.011 87.446,416.588 
			87.717,414.97 88.278,412.406 88.231,412.318 88.75,409.888 88.992,408.853 89.764,405.836 89.852,405.789 89.847,405.566 
			90.719,402.949 91.09,401.731 91.668,399.837 92.381,397.985 93.206,395.279 93.789,393.609 94.75,390.945 95.804,388.457 
			96.693,386.511 97.459,384.97 97.712,384.382 98.525,382.93 100.492,379.39 100.533,379.254 100.621,379.207 102.941,375.479 
			103.807,374.339 105.372,372.599 107.757,369.629 107.845,369.582 107.886,369.447 110.011,366.843 110.665,366.155 
			112.065,364.956 112.895,364.174 115.214,362.146 115.785,361.728 118.016,359.747 118.669,359.06 118.845,358.966 
			118.975,358.783 122.006,356.603 123.583,355.31 124.813,354.428 126.655,352.994 127.355,352.394 129.115,351.231 
			130.304,350.484 133.293,348.439 134.04,347.928 134.57,347.646 135.535,346.905 137.689,345.418 139.054,344.578 
			141.385,342.997 141.649,342.856 141.914,342.715 143.809,341.593 145.657,340.382 146.098,340.147 148.699,338.648 
			150.2,337.849 151.741,336.915 152.359,336.586 153.153,336.163 156.507,334.377 156.949,334.142 157.39,333.907 160.521,332.126 
			161.138,331.797 162.021,331.327 163.833,330.475 166.44,329.2 166.793,329.012 167.017,329.007 170.418,327.309 170.994,327.115 
			173.336,325.981 174.619,325.411 175.59,324.894 177.714,323.99 178.467,323.702 179.35,323.232 181.256,322.557 183.203,321.746 
			183.78,321.552 184.398,321.223 186.704,320.448 187.899,319.925 190.205,319.15 191.841,318.392 193.524,317.723 
			194.677,317.335 196.006,316.854 197.783,316.361 198.495,316.208 200.495,315.709 201.966,315.493 204.543,314.8 
			206.014,314.583 208.414,313.985 209.796,313.815 211.756,313.452 213.138,313.282 213.985,313.171 215.279,313.048 
			216.885,312.872 217.956,312.755 219.874,312.527 222.239,312.287 223.133,312.264 223.715,312.294 225.498,312.025 
			227.015,311.896 228.221,311.82 230.186,311.68 231.127,311.746 233.763,311.589 235.28,311.46 235.816,311.402 238.769,311.415 
			240.157,311.469 240.604,311.457 243.515,311.606 243.515,311.606 245.809,312.084 247.927,312.656 248.921,313.033 
			251.461,314.399 252.143,314.829 253.924,316.26 255.3,317.566 255.623,317.961 256.364,318.926 257.105,319.891 257.199,320.068 
			257.293,320.244 258.791,322.845 		">
		</polygon>
		<polygon slic3r:type="contour" style="fill:#FFFFFF;stroke:#000000;stroke-miterlimit:10;" points="635.407,181.192 
			636.264,183.228 637.404,185.793 637.744,186.858 637.979,187.299 638.596,188.67 639.794,191.771 640.27,192.877 
			641.609,196.243 641.897,196.996 642.42,198.19 643.183,200.049 644,202.221 644.481,203.55 645.345,205.81 645.92,207.316 
			646.361,208.781 646.936,210.287 647.523,212.24 647.963,213.705 648.592,215.523 649.226,217.565 649.472,218.453 
			650.306,221.295 650.5,221.872 650.746,222.76 651.48,225.202 652.496,228.173 652.648,228.885 652.789,229.149 653.899,232.297 
			654.14,232.962 654.715,234.468 655.908,237.345 656.049,237.61 656.143,237.787 656.566,238.581 658.082,241.853 
			658.552,242.735 659.445,244.412 660.097,245.424 661.037,247.19 661.783,248.378 662.8,249.65 664.475,252.157 665.075,252.857 
			666.938,255.717 667.532,256.194 669.541,259.542 669.771,259.76 670.346,261.266 670.963,262.637 670.891,265.055 
			670.902,265.502 670.861,265.637 670.773,265.684 669.677,268.307 669.082,269.53 667.999,270.9 667.051,272.311 666.963,272.358 
			665.745,273.687 665.745,273.687 665.745,273.687 663.991,275.074 663.249,275.809 661.931,276.737 660.001,278.219 
			659.648,278.407 658.988,278.871 657.364,280.076 656.793,280.493 655.034,281.657 654.157,282.35 652.133,283.655 
			652.044,283.702 650.461,284.772 649.096,285.612 648.743,285.8 647.113,286.781 644.824,288.227 644.03,288.65 643.017,289.302 
			640.728,290.748 639.322,291.724 637.515,292.799 636.109,293.775 634.744,294.615 633.467,295.408 631.837,296.39 629.989,297.6 
			628.141,298.811 627.788,298.999 625.54,300.309 625.234,300.586 625.146,300.633 621.927,302.46 621.839,302.507 
			621.662,302.601 619.014,304.011 617.337,304.904 616.496,305.239 615.79,305.615 613.978,306.467 611.371,307.742 
			611.194,307.836 611.106,307.883 608.235,309.299 604.963,310.814 604.875,310.861 604.875,310.861 601.598,312.154 
			600.668,312.535 598.809,313.299 596.549,314.162 595.043,314.738 594.155,314.984 590.607,316.194 590.03,316.388 
			586.435,317.509 586.347,317.556 585.147,317.855 582.617,318.636 582.217,318.736 578.881,319.493 577.593,319.839 
			574.834,320.402 572.475,320.865 570.827,321.176 568.151,321.469 567.527,321.574 566.368,321.738 564.539,321.919 
			561.727,322.171 561.503,322.176 558.597,322.251 555.691,322.326 555.109,322.296 552.515,322.318 549.562,322.304 
			549.427,322.263 549.203,322.269 546.109,321.99 543.821,321.736 542.521,321.635 541.58,321.57 539.021,321.233 536.957,320.973 
			535.475,320.743 534.487,320.589 532.375,320.241 530.846,319.922 529.499,319.733 526.799,319.132 526.305,319.055 
			526.17,319.014 522.753,318.341 522.212,318.176 520.094,317.604 517.8,317.126 516.854,316.837 516.448,316.714 515.548,316.513 
			513.072,315.906 510.69,315.475 509.431,315.239 508.355,315.132 505.167,314.677 504.808,314.642 504.402,314.518 
			501.297,313.793 500.667,313.675 499.767,313.474 496.609,312.437 495.662,312.148 493.763,311.347 492.357,310.622 
			491.405,310.11 489.541,308.95 488.447,308.173 486.854,307.096 486.26,306.619 485.072,305.665 483.15,303.97 482.967,303.84 
			482.92,303.752 482.691,303.534 480.804,301.48 479.74,300.121 479.276,299.461 478.859,298.891 477.789,297.308 477.09,296.207 
			476.285,294.483 475.862,293.689 475.098,291.83 474.376,289.835 474.035,288.77 473.783,287.658 473.091,285.081 
			472.405,281.028 472.358,280.94 472.311,280.851 471.819,277.375 471.509,274.027 471.351,273.092 471.375,272.286 
			470.936,269.121 470.508,266.403 470.449,265.868 470.208,265.203 469.48,262.985 469.099,262.055 468.206,260.378 
			467.694,259.631 466.76,258.089 465.472,256.735 464.785,256.082 464.191,255.605 463.597,255.128 462.868,254.61 
			461.421,254.021 458.887,252.878 458.434,252.666 458.163,252.584 455.728,251.841 454.376,251.429 454.24,251.387 
			453.746,251.311 450.106,250.644 448.447,250.507 446.7,250.418 444.282,250.346 442.359,250.351 440.3,250.314 438.112,250.46 
			436.188,250.465 434.535,250.552 432.305,250.833 429.805,251.031 429.494,251.084 426.37,251.388 426.37,251.388 
			426.146,251.394 424.046,251.493 422.44,251.668 421.77,251.685 419.846,251.69 418.058,251.736 415.64,251.664 411.658,251.632 
			410.764,251.655 410.405,251.62 409.511,251.643 406.329,251.411 404.135,251.333 403.146,251.18 402.341,251.156 
			399.564,251.048 395.576,250.793 395.129,250.804 394.682,250.816 390.7,250.784 389.629,250.901 387.976,250.988 
			386.858,251.017 384.67,251.163 382.399,251.579 381.552,251.69 380.528,251.895 378.522,252.171 375.675,252.781 375.01,253.022 
			371.545,253.961 371.145,254.06 370.656,254.207 368.121,254.764 366.167,255.351 365.72,255.363 365.456,255.504 
			362.873,255.973 359.272,256.871 359.096,256.965 358.961,256.924 358.872,256.971 357.002,257.287 355.401,257.686 
			355.266,257.645 352.772,258.067 351.301,258.284 349.342,258.647 348.359,258.717 347.601,258.781 346.442,258.945 
			345.059,259.115 343.583,259.108 340.2,259.777 340.2,259.777 340.2,259.777 336.411,260.322 336.011,260.421 335.523,260.568 
			333.788,260.926 332.452,261.184 331.652,261.383 329.34,261.935 328.046,262.058 327.105,261.992 323.215,263.837 
			322.992,263.843 319.286,264.117 319.062,264.123 319.062,264.123 315.915,263.533 315.057,263.197 313.181,261.59 
			312.582,260.889 312.812,259.407 313.013,258.507 313.142,258.325 314.578,256.767 315.502,256.162 318.009,254.487 
			319.027,254.058 319.727,253.458 321.393,252.118 322.664,251.101 323.147,250.731 323.364,250.502 325.107,248.668 
			325.625,247.939 326.873,246.028 327.156,244.857 327.922,243.316 328.37,241.605 328.706,240.746 329.154,239.035 329.396,238 
			329.519,237.594 330.268,235.383 330.898,233.801 331.399,232.401 332.076,230.907 333.219,228.373 333.302,228.102 
			333.602,227.602 334.621,225.473 335.722,223.074 336.229,221.898 336.694,220.857 338.19,218.134 338.231,217.999 
			338.231,217.999 338.231,217.999 339.744,215.947 341.657,213.795 342.958,212.196 344.218,210.732 345.089,209.815 
			345.613,209.31 346.837,208.204 348.061,207.099 349.109,206.088 350.198,204.942 351.028,204.16 351.158,203.978 
			352.864,202.502 355.042,200.209 355.301,199.845 355.955,199.157 356.478,198.651 357.179,198.052 359.762,195.883 
			360.463,195.283 363.176,192.932 363.659,192.562 363.923,192.421 364.712,191.774 366.419,190.299 368.379,188.235 
			368.597,188.006 368.856,187.641 369.509,186.953 369.815,186.677 370.686,185.76 372.476,184.014 375.354,181.122 
			376.313,180.158 376.531,179.928 378.315,177.959 379.574,176.495 380.575,175.396 380.969,175.072 381.099,174.89 
			381.405,174.614 383.371,172.774 384.724,171.486 385.425,170.887 387.043,169.458 387.349,169.182 389.009,167.618 
			389.709,167.019 390.492,166.149 391.146,165.461 391.758,164.908 393.064,163.533 393.63,162.892 393.977,162.48 
			394.153,162.386 394.895,161.651 396.425,160.27 398.256,158.389 398.344,158.342 398.603,157.977 398.862,157.613 
			400.869,155.637 402.259,153.991 404.042,152.022 405.178,150.963 405.873,150.14 406.179,149.864 406.92,149.129 409.487,146.29 
			409.487,146.29 409.487,146.29 409.487,146.29 411.188,144.591 412.277,143.444 413.101,142.439 413.801,141.839 414.931,140.558 
			415.497,139.917 415.803,139.64 416.85,138.629 418.251,137.43 419.869,136.002 420.876,135.126 421.929,134.338 424.042,132.987 
			424.701,132.522 425.448,132.011 426.414,131.27 428.391,129.878 429.75,128.814 431.504,127.427 432.605,126.727 
			432.999,126.404 434.276,125.611 434.67,125.287 436.83,124.024 438.548,122.995 439.078,122.713 440.048,122.196 
			441.019,121.679 441.372,121.491 444.197,119.987 444.285,119.94 444.903,119.611 445.433,119.329 446.139,118.953 
			449.451,117.302 450.646,116.779 453.835,115.534 454.941,115.058 457.642,113.96 458.483,113.625 460.166,112.956 
			461.984,112.327 464.42,111.37 465.573,110.983 466.461,110.736 469.303,109.902 471.256,109.315 472.233,109.022 
			473.121,108.775 475.08,108.412 477.44,107.949 479.305,107.409 481.84,106.851 483.529,106.405 485.041,106.053 485.929,105.807 
			487.888,105.443 489.759,105.127 491.453,104.904 493.324,104.588 494.306,104.518 495.777,104.301 497.295,104.172 
			500.642,103.863 500.954,103.81 501.401,103.798 504.707,103.624 506.63,103.619 508.33,103.62 510.389,103.657 512.136,103.746 
			512.495,103.782 513.571,103.888 515.189,104.16 515.548,104.195 515.953,104.319 519.065,105.268 521.141,105.975 
			522.54,106.476 524.434,107.054 525.563,107.472 526.334,107.855 527.692,108.491 529.55,109.427 529.956,109.551 
			530.909,110.063 532.679,111.047 533.314,111.388 535.901,112.843 536.401,113.143 537.036,113.485 539.718,115.116 
			540.852,115.758 543.122,117.042 544.122,117.642 546.433,118.791 547.433,119.391 549.879,120.581 550.561,121.011 
			551.69,121.429 554.136,122.619 557.389,123.833 557.571,123.962 557.706,124.003 561.317,125.253 562.987,125.836 
			563.934,126.125 565.605,126.708 567.004,127.209 568.269,127.669 570.98,128.717 571.25,128.8 572.062,129.047 574.773,130.096 
			575.767,130.473 578.296,131.392 579.154,131.728 580.96,132.353 582.589,133.071 583.994,133.796 585.853,134.732 
			587.17,135.504 589.299,136.523 590.298,137.123 590.751,137.335 593.479,139.055 594.526,139.743 596.896,141.427 
			598.401,142.552 600.453,144.065 602.005,145.277 604.292,147.232 605.938,148.621 608.09,150.534 609.919,152.053 
			611.841,153.748 613.858,155.62 615.416,157.056 617.708,159.234 618.855,160.323 621.101,162.413 621.424,162.807 
			623.352,164.726 624.545,165.903 625.468,166.998 626.344,168.004 626.85,168.528 628.607,170.764 629.254,171.553 
			629.483,171.771 631.481,174.672 632.087,175.596 633.673,178.15 634.044,178.632 635.313,181.015 		">
		</polygon>
		<polygon slic3r:type="contour" style="fill:#FFFFFF;stroke:#000000;stroke-miterlimit:10;" points="723.214,236.51 
			724.501,239.564 724.665,240.723 724.487,242.517 724.475,243.77 724.109,245.211 723.514,246.434 722.961,247.522 
			721.971,249.068 721.371,250.068 719.593,252.261 718.957,253.619 718.268,254.666 717.874,254.989 716.726,255.6 
			715.508,256.929 714.849,257.393 713.442,258.369 711.388,260.256 711.211,260.35 711.035,260.444 709.317,261.472 
			707.581,261.83 706.475,262.306 704.287,262.451 701.663,263.056 701.439,263.061 701.127,263.114 698.152,262.206 
			696.822,262.688 696.551,262.606 695.334,262.234 695.199,262.193 695.193,261.969 695.323,260.087 696.995,258.97 
			697.631,257.612 697.631,257.612 698.637,256.736 699.597,255.772 700.609,255.12 702.834,252.915 702.963,252.733 
			703.181,252.504 705.323,250.57 706.695,248.253 706.784,248.206 706.825,248.071 708.338,246.019 708.874,244.26 
			708.915,244.125 709.045,243.943 709.858,242.49 710.4,240.955 710.777,239.961 710.901,239.555 711.49,238.109 712.002,237.156 
			712.52,236.427 712.862,235.792 714.439,234.499 714.745,234.222 715.139,233.899 719.198,233.437 719.287,233.39 
			719.334,233.478 723.026,236.157 723.12,236.333 		">
		</polygon>
	</g>
</g>
<g id="Layer_1">
</g>
</svg>
