<?xml version="1.0" encoding="iso-8859-1"?>
<!-- Generator: Adobe Illustrator 19.2.1, SVG Export Plug-In . SVG Version: 6.00 Build 0)  -->
<svg version="1.1" xmlns="http://www.w3.org/2000/svg" xmlns:xlink="http://www.w3.org/1999/xlink" x="0px" y="0px"
	 viewBox="0 0 841.89 595.28" style="enable-background:new 0 0 841.89 595.28;" xml:space="preserve">
<g id="layer252">
	<g id="layer252_1_" slic3r:z="0.000101000000000001">
		<polygon slic3r:type="contour" style="fill:#FFFFFF;stroke:#000000;stroke-miterlimit:10;" points="740.585,120.421 
			740.685,120.821 741.025,121.886 741.319,122.862 741.724,124.686 743.021,128.187 743.074,128.499 743.309,128.94 
			744.596,131.994 745.489,133.671 746.241,135.083 747.416,137.289 748.021,138.213 749.238,140.285 749.567,140.902 
			750.324,142.538 751.141,144.709 751.282,144.974 751.329,145.062 751.346,145.733 751.551,146.757 751.516,147.115 
			751.486,147.698 751.332,148.686 751.002,149.768 750.701,151.968 750.589,152.821 750.6,153.268 751.709,158.116 
			751.803,158.292 751.944,158.557 752.226,159.086 753.213,160.94 753.918,162.264 754.341,163.058 754.665,163.453 
			755.881,165.524 756.298,166.095 756.392,166.271 757.65,168.207 757.65,168.207 758.584,169.749 759.336,171.161 
			760.224,172.615 761.158,174.157 762.28,176.051 762.75,176.934 763.168,177.505 764.525,179.841 764.619,180.018 
			764.896,180.324 766.253,182.66 767.088,183.801 768.945,186.438 768.945,186.438 768.945,186.438 768.992,186.526 
			770.866,189.833 772.37,192.658 772.37,192.658 772.37,192.658 773.245,195.364 773.544,196.564 773.797,197.676 773.814,198.347 
			773.848,199.688 773.852,203.311 773.899,203.4 773.858,203.535 773.474,206.005 773.315,206.77 772.902,208.123 772.572,209.205 
			771.812,210.969 771.641,211.287 771.6,211.422 770.487,213.374 769.421,215.415 769.08,216.05 768.055,217.955 767.101,219.143 
			766.283,220.371 765.635,221.283 765.117,222.012 764.899,222.241 762.763,224.399 762.198,225.04 761.332,226.18 
			761.073,226.545 759.413,228.108 759.107,228.385 758.89,228.614 757.401,229.86 756.877,230.366 756.482,230.689 
			754.811,231.806 754.24,232.223 753.275,232.964 751.957,233.892 750.115,235.326 749.503,235.879 747.702,237.178 
			745.466,238.935 745.466,238.935 744.677,239.582 742.747,241.063 742.659,241.11 742.529,241.292 740.469,242.956 
			738.856,244.608 738.068,245.254 737.809,245.619 736.72,246.765 735.454,248.006 735.019,248.464 733.453,250.204 
			732.276,251.398 731.622,252.086 730.881,252.821 729.398,254.29 727.914,255.76 727.131,256.63 726.608,257.136 724.336,259.252 
			724.118,259.481 723.288,260.263 721.799,261.509 721.452,261.921 719.215,263.678 718.162,264.466 715.749,266.317 
			714.431,267.246 713.066,268.086 709.723,270.319 708.887,270.878 708.27,271.207 707.21,271.771 704.827,273.04 703.415,273.792 
			701.868,274.503 701.026,274.838 700.761,274.979 700.232,275.261 698.243,276.207 697.449,276.63 695.636,277.481 
			694.001,278.239 692.365,278.997 689.935,280.178 689.052,280.648 688.299,280.936 686.398,281.835 685.781,282.164 
			684.633,282.775 682.909,283.58 682.468,283.815 679.42,285.325 679.42,285.325 678.979,285.56 677.213,286.5 677.125,286.547 
			675.536,287.393 673.553,288.562 673.024,288.844 672.67,289.032 671.611,289.596 670.599,290.249 667.91,291.794 
			667.822,291.841 667.645,291.935 665.044,293.433 663.503,294.368 662.49,295.02 660.419,296.236 658.966,297.124 
			657.689,297.917 656.235,298.805 655.135,299.504 654.429,299.88 653.287,300.715 651.304,301.884 648.75,303.471 
			647.867,303.941 647.032,304.499 644.919,305.851 643.73,306.597 642.365,307.437 639.546,309.165 638.887,309.629 
			638.623,309.77 638.358,309.911 637.475,310.381 635.227,311.692 633.068,312.955 632.979,313.002 632.715,313.143 
			630.202,314.595 629.278,315.2 627.207,316.416 626.459,316.928 625.135,317.633 623.547,318.479 621.87,319.372 620.81,319.936 
			620.281,320.218 619.31,320.735 616.968,321.869 615.156,322.721 613.344,323.573 612.767,323.766 612.502,323.907 
			609.849,325.094 609.095,325.382 607.589,325.957 606.924,326.198 605.153,326.915 603.912,327.349 603.07,327.684 
			601.917,328.071 600.011,328.747 597.663,329.657 595.581,330.426 592.35,331.807 591.597,332.095 589.961,332.852 
			587.349,333.904 586.819,334.186 585.978,334.521 583.501,335.613 580.718,336.982 579.612,337.458 577.181,338.639 
			576.917,338.78 576.828,338.827 574.928,339.726 573.733,340.248 570.903,341.529 570.197,341.905 566.702,343.427 
			566.125,343.62 565.684,343.855 564.931,344.143 562.63,345.142 561.566,345.482 560.724,345.817 558.953,346.534 558.465,346.68 
			556.823,347.215 555.582,347.649 553.899,348.319 553.011,348.565 550.393,349.393 549.728,349.634 547.951,350.127 
			545.998,350.714 544.797,351.013 543.374,351.318 541.373,351.817 540.973,351.917 540.662,351.969 537.279,352.638 
			534.343,353.295 533.143,353.594 531.007,354.052 529.007,354.551 527.895,354.803 524.83,355.642 521.494,356.399 
			520.606,356.646 519.094,356.997 516.47,357.602 514.999,357.819 512.328,358.335 508.316,358.885 508.093,358.891 
			508.093,358.891 507.957,358.85 505.369,359.095 503.987,359.265 501.175,359.516 500.863,359.569 500.728,359.528 
			499.792,359.686 497.38,359.837 495.598,360.107 494.751,360.218 493.233,360.346 492.074,360.51 491.45,360.616 489.486,360.756 
			487.303,361.125 486.856,361.137 486.009,361.248 484.179,361.429 483.109,361.546 481.503,361.722 478.961,362.055 
			478.826,362.014 478.738,362.061 475.214,362.465 474.814,362.565 474.814,362.565 471.561,363.051 471.025,363.109 
			470.625,363.209 469.155,363.426 466.437,363.854 464.701,364.211 462.254,364.722 458.159,365.543 458.159,365.543 
			458.071,365.59 453.971,366.187 451.117,366.574 449.735,366.744 448.129,366.919 445.629,367.117 443.346,367.087 
			442.094,367.074 441.558,367.133 439.588,367.049 437.305,367.018 435.023,366.988 433.146,367.08 430.864,367.05 
			429.035,367.231 427.293,367.365 426.982,367.418 426.534,367.429 424.84,367.652 423.723,367.681 422.564,367.845 
			420.646,368.073 419.934,368.225 417.928,368.501 416.546,368.67 413.027,369.298 412.627,369.397 412.316,369.45 
			411.204,369.702 408.18,370.406 406.626,370.894 403.961,371.633 400.59,372.749 399.925,372.99 399.749,373.084 397.095,374.27 
			395.589,374.846 395.147,375.081 393.465,375.75 391.435,376.832 390.417,377.26 390.152,377.401 389.758,377.725 387.11,379.135 
			385.786,379.84 384.95,380.398 382.92,381.479 379.919,383.078 379.078,383.412 378.636,383.647 374.753,385.716 374.441,385.768 
			373.558,386.238 373.164,386.562 371.752,387.314 370.21,388.248 369.945,388.389 369.857,388.436 367.786,389.652 
			365.938,390.863 365.102,391.421 361.765,393.878 361.677,393.925 361.677,393.925 360.712,394.666 359.135,395.959 
			357.475,397.523 357.081,397.846 356.686,398.169 356.251,398.628 354.768,400.098 353.155,401.749 352.937,401.979 
			350.889,404.089 349.323,405.829 349.235,405.876 347.186,407.987 345.662,409.592 344.573,410.738 343.79,411.608 
			343.137,412.296 342.006,413.578 341.224,414.448 340.223,415.547 338.834,417.194 338.575,417.558 337.356,418.887 
			335.926,420.668 335.49,421.127 335.143,421.538 335.013,421.721 333.966,422.732 331.664,425.43 331.576,425.478 
			331.576,425.478 331.487,425.525 328.744,428.458 327.826,429.287 327.608,429.516 327.302,429.793 325.507,431.315 
			323.983,432.92 323.018,433.661 322.1,434.489 320.834,435.73 320.004,436.512 318.733,437.529 317.197,438.686 315.796,439.886 
			314.478,440.814 314.437,440.949 311.406,443.13 310.747,443.594 310.176,444.012 308.64,445.169 307.063,446.463 
			305.921,447.297 305.703,447.526 304.609,448.449 302.855,449.836 302.284,450.254 301.672,450.806 300.136,451.964 
			298.694,453.299 297.817,453.992 297.335,454.363 295.975,455.426 294.574,456.626 293.874,457.225 293.127,457.736 
			291.42,459.212 290.413,460.088 289.666,460.599 289.272,460.922 287.518,462.31 286.205,463.462 285.417,464.108 
			284.628,464.755 282.657,466.371 282.262,466.695 282.044,466.924 280.338,468.399 279.066,469.416 278.019,470.427 
			277.101,471.256 276.047,472.044 275.435,472.596 275.041,472.92 273.905,473.978 272.769,475.036 271.763,475.912 
			270.062,477.611 268.708,478.898 268.143,479.539 267.442,480.138 266.789,480.826 266.265,481.332 262.91,484.818 
			262.645,484.959 262.516,485.141 260.638,486.934 258.89,488.545 258.849,488.68 258.672,488.774 257.36,489.926 256.353,490.802 
			255.741,491.355 254.694,492.366 254.605,492.413 250.533,495.828 249.921,496.381 249.438,496.751 247.684,498.138 
			246.325,499.202 246.107,499.431 243.565,501.465 242.164,502.664 241.77,502.988 241.505,503.129 239.268,504.886 
			237.556,506.138 237.291,506.279 236.632,506.743 234.608,508.048 233.378,508.93 232.366,509.582 231.218,510.193 
			230.029,510.939 228.882,511.55 227.735,512.161 225.881,513.148 224.469,513.901 224.069,514 223.627,514.235 220.532,515.657 
			218.497,516.515 217.791,516.891 217.126,517.131 214.778,518.042 213.048,518.623 211.807,519.058 207.947,520.32 
			207.859,520.367 207.859,520.367 207.771,520.414 207.371,520.514 203.594,521.505 203.105,521.652 202.705,521.752 
			201.593,522.004 200.258,522.262 198.922,522.52 197.628,522.643 195.534,522.965 194.687,523.077 192.369,523.405 
			191.075,523.527 189.333,523.661 187.863,523.878 184.692,524.094 184.333,524.058 184.11,524.064 181.027,524.233 
			180.58,524.244 178.433,524.255 175.886,524.365 175.304,524.335 174.409,524.358 171.815,524.38 170.339,524.373 
			168.057,524.343 165.821,524.4 162.821,524.298 161.48,524.333 158.257,524.237 157.315,524.171 156.957,524.136 156.463,524.059 
			153.327,523.916 152.116,523.768 150.098,523.596 148.934,523.537 147.451,523.307 145.522,523.088 142.781,522.621 
			142.558,522.627 142.287,522.545 139.411,522.037 138.376,521.795 135.629,521.105 135.27,521.07 134.818,520.858 
			132.159,520.121 130.671,519.667 129.271,519.166 126.56,518.117 125.566,517.74 123.208,516.504 122.032,515.997 
			121.715,515.826 121.262,515.614 116.811,513 116.358,512.788 115.946,512.44 111.942,509.814 110.207,508.472 105.868,505.005 
			105.457,504.658 105.045,504.31 100.465,500.178 98.86,498.653 96.797,496.693 93.758,493.327 88.561,487.824 86.992,485.94 
			81.19,479.513 80.22,478.33 79.297,477.236 76.711,474.081 75.141,472.198 74.542,471.497 72.925,469.526 71.538,467.772 
			71.074,467.113 69.587,464.959 68.934,463.947 67.812,462.052 67.301,461.305 66.073,458.786 65.744,458.169 64.698,455.78 
			63.594,452.856 63.301,451.879 63.107,451.302 61.921,446.949 61.863,446.413 61.693,445.031 61.218,442.225 61.096,440.93 
			60.897,438.43 60.905,435.254 60.923,434.224 61.106,432.654 61.237,430.772 61.349,429.919 61.615,428.078 61.887,426.46 
			62.082,425.337 62.389,423.361 62.748,421.696 62.743,421.473 63.268,419.267 63.71,417.332 64.117,415.756 64.801,412.786 
			65.255,411.298 65.538,410.127 65.945,408.551 66.145,407.651 66.847,405.352 66.882,404.993 67.336,403.505 67.625,402.558 
			68.745,399.129 68.833,399.082 68.833,399.082 68.833,399.082 69.004,398.765 70.212,395.289 70.553,394.654 71.142,393.207 
			71.519,392.213 72.197,390.72 73.039,388.685 73.122,388.414 74.353,385.833 74.435,385.562 74.777,384.927 75.495,383.298 
			75.878,382.528 76.732,380.94 77.792,378.676 77.963,378.358 78.134,378.041 79.2,376 79.842,374.865 80.266,373.96 
			80.607,373.325 81.42,371.872 82.533,369.92 82.574,369.785 82.704,369.602 83.864,367.738 84.588,366.333 85.106,365.604 
			85.836,364.422 86.484,363.511 87.432,362.099 87.82,361.553 88.25,360.871 89.722,358.954 90.199,358.36 91.8,356.261 
			91.93,356.079 91.971,355.943 93.401,354.162 95.314,352.01 95.403,351.963 95.356,351.875 97.663,349.4 97.751,349.353 
			98.711,348.389 100.106,346.966 100.235,346.784 102.548,344.532 102.854,344.256 103.202,343.844 104.95,342.234 
			106.521,340.717 106.827,340.441 107.133,340.164 109.017,338.595 110.941,336.89 111.336,336.567 113.525,334.721 
			114.007,334.351 114.096,334.304 114.184,334.257 116.679,332.135 118.474,330.612 118.563,330.565 118.651,330.518 
			120.187,329.361 121.37,328.391 121.941,327.973 122.512,327.556 124.53,326.028 126.767,324.27 126.896,324.088 127.073,323.994 
			128.738,322.654 129.486,322.143 130.492,321.267 130.845,321.079 131.063,320.85 132.952,319.504 134.97,317.975 
			135.453,317.605 136.112,317.141 137.472,316.077 138.348,315.383 139.096,314.872 139.843,314.361 140.502,313.896 
			142.391,312.551 143.621,311.669 145.157,310.511 146.081,309.906 148.935,307.819 149.2,307.678 149.288,307.631 
			149.377,307.584 152.496,305.357 154.344,304.146 154.826,303.776 156.892,302.336 158.298,301.36 159.263,300.62 160.364,299.92 
			161.77,298.945 162.824,298.157 164.407,297.087 165.99,296.018 166.737,295.507 167.614,294.813 168.232,294.484 
			171.045,292.533 171.221,292.439 171.31,292.392 171.398,292.345 174.04,290.711 175.841,289.412 176.37,289.13 177.206,288.572 
			178.524,287.643 179.183,287.179 179.889,286.803 180.99,286.103 183.144,284.617 184.068,284.011 184.55,283.641 187.54,281.596 
			187.716,281.502 188.158,281.267 190.488,279.686 191.235,279.174 192.553,278.246 193.695,277.411 195.278,276.342 
			195.761,275.971 196.596,275.413 198.044,274.302 198.791,273.791 200.592,272.492 201.381,271.845 202.964,270.776 
			203.14,270.682 203.358,270.452 205.247,269.106 206.742,268.084 207.489,267.573 207.972,267.202 209.949,265.809 
			212.056,264.234 212.274,264.005 212.45,263.911 214.646,262.289 215.787,261.454 216.841,260.666 218.118,259.873 
			221.013,257.651 221.366,257.463 221.584,257.234 224.615,255.054 225.056,254.818 225.144,254.771 225.232,254.724 
			227.998,252.685 229.358,251.621 230.5,250.787 231.335,250.228 232.695,249.164 233.836,248.33 235.196,247.266 236.82,246.061 
			238.621,244.762 239.233,244.209 240.157,243.604 241.428,242.587 242.923,241.565 243.711,240.918 244.5,240.272 
			246.124,239.067 247.66,237.909 248.319,237.444 249.067,236.933 250.515,235.822 251.833,234.894 252.71,234.2 253.634,233.595 
			254.864,232.713 256.488,231.508 256.753,231.367 258.859,229.792 259.477,229.463 260.619,228.628 261.937,227.7 
			263.473,226.542 263.867,226.219 264.35,225.848 265.845,224.826 266.769,224.22 268.216,223.109 269.005,222.463 
			269.576,222.046 271.683,220.47 272.254,220.053 272.518,219.912 274.449,218.431 275.59,217.596 276.95,216.532 277.697,216.021 
			278.268,215.604 279.057,214.957 281.211,213.47 282.788,212.177 284.371,211.108 285.377,210.232 285.989,209.679 
			286.778,209.033 288.314,207.875 289.103,207.228 289.409,206.952 289.626,206.723 291.38,205.335 292.875,204.313 
			293.752,203.619 294.452,203.02 295.506,202.232 296.43,201.627 297.966,200.469 300.031,199.029 302.055,197.724 
			303.727,196.608 304.651,196.002 305.18,195.72 305.751,195.303 306.369,194.974 307.075,194.598 309.982,192.823 
			310.423,192.588 310.688,192.447 313.112,191.043 314.301,190.296 314.919,189.967 318.973,187.582 319.15,187.488 
			319.15,187.488 319.238,187.441 322.369,185.66 323.34,185.143 324.134,184.72 324.487,184.532 325.105,184.203 327.576,182.887 
			329.3,182.082 331.507,180.907 334.378,179.491 334.996,179.162 336.055,178.598 337.114,178.034 339.098,176.864 
			340.245,176.253 341.61,175.413 343.287,174.52 344.346,173.956 346.329,172.786 348.707,171.294 348.883,171.2 349.101,170.97 
			349.366,170.829 351.785,169.202 352.973,168.455 353.632,167.991 353.762,167.809 353.938,167.715 356.404,166.175 
			357.546,165.34 358.34,164.917 360.058,163.889 361.512,163.002 361.777,162.861 363.142,162.02 364.595,161.133 365.343,160.622 
			365.696,160.434 366.09,160.11 367.761,158.994 369.256,157.971 370.003,157.46 372.246,155.926 374.176,154.445 374.705,154.163 
			376.2,153.14 376.418,152.911 376.771,152.723 378.225,151.835 378.489,151.694 381.573,149.826 381.973,149.726 382.72,149.214 
			386.422,147.017 386.904,146.646 387.916,145.994 388.752,145.436 389.676,144.83 390.859,143.861 391.124,143.72 
			391.165,143.584 395.202,140.528 395.467,140.387 396.826,139.323 397.703,138.629 398.274,138.212 399.592,137.284 
			399.68,137.237 399.68,137.237 402.14,135.473 403.941,134.174 404.029,134.127 404.029,134.127 407.413,131.759 408.202,131.112 
			408.378,131.018 408.467,130.971 410.485,129.443 412.457,127.827 412.586,127.644 412.763,127.55 416.011,125.141 
			416.712,124.541 416.888,124.447 417.153,124.306 419.089,123.048 420.978,121.702 421.331,121.514 421.637,121.238 
			425.203,118.999 426.257,118.212 426.433,118.118 426.475,117.982 428.416,116.948 429.47,116.161 430.223,115.873 
			431.059,115.314 433.748,113.769 434.807,113.205 435.996,112.459 437.055,111.895 437.89,111.336 439.344,110.449 
			440.315,109.932 440.844,109.65 442.121,108.856 443.845,108.052 445.828,106.882 446.093,106.741 446.358,106.6 448.576,105.872 
			450.653,104.879 450.918,104.738 451.318,104.639 453.401,103.869 454.819,103.341 457.125,102.566 458.102,102.272 
			458.855,101.984 460.72,101.444 462.85,100.763 463.603,100.475 465.821,99.747 467.239,99.219 468.969,98.638 470.081,98.385 
			471.499,97.857 473.452,97.27 474.958,96.694 476.07,96.442 477.847,95.949 479.753,95.274 480.241,95.127 482.065,94.722 
			483.842,94.229 485.266,93.924 487.042,93.431 487.843,93.231 488.466,93.126 490.337,92.809 492.031,92.587 492.967,92.429 
			495.331,92.189 496.09,92.125 496.979,91.878 498.673,91.656 500.367,91.433 502.997,91.052 503.22,91.047 503.22,91.047 
			506.562,90.513 507.539,90.22 510.339,89.522 510.651,89.469 511.051,89.369 514.163,88.618 514.651,88.471 515.051,88.371 
			515.805,88.084 518.958,87.197 519.976,86.769 522.282,85.994 522.947,85.753 523.212,85.612 526.666,84.226 526.842,84.132 
			527.107,83.991 529.719,82.939 531.137,82.411 533.744,81.136 533.744,81.136 533.832,81.089 536.268,80.131 537.198,79.75 
			539.669,78.434 540.069,78.334 542.058,77.388 544.182,76.483 545.065,76.013 545.641,75.82 548.119,74.727 548.736,74.398 
			550.284,73.687 552.237,73.1 553.255,72.671 556.45,71.65 557.827,71.256 560.045,70.528 562.098,70.341 563.745,70.031 
			565.757,69.979 566.786,69.997 567.457,69.98 570.192,70.223 571.268,70.329 571.404,70.37 575.133,70.99 576.121,71.144 
			578.321,71.445 578.997,71.652 579.444,71.64 580.973,71.959 581.556,71.988 583.979,72.284 584.832,72.396 587.832,72.498 
			588.279,72.487 590.432,72.7 592.808,72.907 593.167,72.943 595.455,73.197 596.978,73.292 597.114,73.333 600.937,74.13 
			600.937,74.13 604.412,75.338 604.548,75.379 604.595,75.467 607.441,76.557 607.712,76.64 609.117,77.364 610.793,78.171 
			612.01,78.542 614.045,79.385 614.586,79.55 615.627,80.015 616.85,80.61 617.621,80.993 619.026,81.717 622.055,82.937 
			622.055,82.937 625.348,84.015 626.16,84.263 627.283,84.457 629.177,85.035 631.788,85.684 632.329,85.849 633.006,86.055 
			634.811,86.68 636.934,87.475 637.293,87.511 639.281,88.265 640.951,88.848 642.257,89.172 643.61,89.585 645.368,90.121 
			645.639,90.204 647.756,90.776 648.162,90.9 648.297,90.941 650.32,91.336 650.456,91.377 652.208,91.69 654.538,91.809 
			655.032,91.886 655.926,91.863 658.12,91.941 659.061,92.006 661.202,91.772 662.185,91.702 662.897,91.55 665.085,91.404 
			666.285,91.105 667.797,90.753 668.421,90.647 670.333,90.195 671.268,90.037 673.445,89.444 673.933,89.298 674.11,89.204 
			676.593,88.335 677.393,88.135 678.281,87.888 678.681,87.789 679.964,87.219 680.899,87.061 682.323,86.756 684.106,86.486 
			684.376,86.569 684.958,86.598 685.947,86.752 686.441,86.829 687.158,86.9 688.511,87.312 688.693,87.442 688.828,87.483 
			689.146,87.654 690.51,88.514 691.187,88.72 692.91,89.615 694.086,90.122 694.539,90.334 695.985,90.923 697.708,91.818 
			698.385,92.024 700.919,93.167 701.372,93.379 703.042,93.962 704.354,94.51 704.895,94.675 707.965,95.759 708.417,95.972 
			710.587,96.855 711.176,97.109 712.94,97.868 714.657,98.54 715.063,98.664 716.692,99.382 720.168,100.59 720.438,100.673 
			720.573,100.714 720.709,100.755 723.749,102.422 724.16,102.769 724.613,102.981 725.431,103.452 728.165,105.395 
			729.623,106.432 732.274,108.645 733.004,109.163 734.338,110.605 735.584,112.094 736.278,112.971 737.77,115.348 
			738.329,116.184 739.545,118.255 739.733,118.608 739.827,118.785 		">
		</polygon>
		<polygon slic3r:type="hole" style="stroke:#000000;stroke-miterlimit:10;" points="662.453,201.344 662.042,200.996 
			661.818,201.002 661.595,201.008 660.43,200.948 659.895,201.007 658.871,201.212 658.383,201.359 657.941,201.594 
			656.929,202.246 656.27,202.71 655.611,203.175 654.775,203.733 654.428,204.145 653.686,204.879 653.257,205.562 
			652.915,206.197 652.62,206.92 652.455,207.461 652.426,208.043 652.525,208.443 652.76,208.885 652.948,209.238 653.813,209.797 
			653.901,209.75 654.307,209.874 655.119,210.121 655.43,210.069 656.677,209.858 657.166,209.711 658.054,209.464 
			658.584,209.182 659.643,208.618 660.084,208.383 660.479,208.06 661.267,207.413 661.573,207.137 662.185,206.585 
			662.315,206.402 662.703,205.855 662.745,205.72 662.786,205.585 663.216,204.903 663.434,204.674 663.516,204.403 
			663.546,203.821 663.617,203.103 663.517,202.703 663.464,202.391 663.318,201.903 		">
		</polygon>
	</g>
</g>
<g id="Layer_1">
</g>
</svg>
