<?xml version="1.0" encoding="iso-8859-1"?>
<!-- Generator: Adobe Illustrator 19.2.1, SVG Export Plug-In . SVG Version: 6.00 Build 0)  -->
<svg version="1.1" xmlns="http://www.w3.org/2000/svg" xmlns:xlink="http://www.w3.org/1999/xlink" x="0px" y="0px"
	 viewBox="0 0 841.89 595.28" style="enable-background:new 0 0 841.89 595.28;" xml:space="preserve">
<g id="layer248">
	<g id="layer248_1_" slic3r:z="9.94000000000009e-005">
		<polygon slic3r:type="contour" style="fill:#FFFFFF;stroke:#000000;stroke-miterlimit:10;" points="737.238,120.73 
			738.225,122.584 738.272,122.672 738.366,122.849 738.988,124.443 739.229,125.108 739.382,125.82 739.551,127.202 
			740.42,129.685 740.861,131.15 741.572,132.698 742.094,133.892 743.046,136.104 743.616,137.387 745.449,140.829 
			745.496,140.918 745.543,141.006 747.053,144.054 748.151,146.755 748.245,146.931 748.292,147.019 748.991,149.82 
			749.102,150.667 749.507,152.491 750.041,154.132 750.357,156.003 750.974,157.374 751.691,159.145 752.214,160.339 
			753.483,162.723 753.906,163.517 755.081,165.723 755.504,166.518 755.598,166.694 755.739,166.959 757.531,170.537 
			757.531,170.537 757.578,170.625 758.529,172.837 758.682,173.549 759.081,175.149 759.175,175.326 759.234,175.861 
			759.439,176.885 759.356,177.156 759.391,178.497 758.407,180.267 760.717,183.115 761.099,184.045 763.357,184.881 
			764.481,185.076 764.663,185.206 766.621,186.542 767.444,187.237 768.408,188.196 768.826,188.767 769.937,190.215 
			770.542,191.139 770.777,191.58 771.952,193.787 772.287,194.628 772.827,196.493 773.472,198.982 773.631,199.917 
			773.648,200.588 773.976,202.906 774.04,203.664 774.057,204.335 773.709,206.447 773.473,207.705 773.349,208.111 
			773.231,208.74 772.312,211.269 771.899,212.622 771.434,213.663 771.01,214.568 770.203,216.244 769.484,217.873 
			768.843,219.008 767.859,220.778 767.3,221.643 767.088,222.096 765.486,224.195 765.015,225.012 764.497,225.741 
			762.984,227.793 762.896,227.84 762.678,228.069 760.895,230.039 760.636,230.403 759.723,231.456 758.634,232.602 
			757.11,234.207 756.456,234.895 756.327,235.077 756.109,235.306 754.143,237.146 753.708,237.605 752.613,238.528 
			751.212,239.727 751.036,239.821 750.165,240.738 748.94,241.843 748.764,241.937 746.71,243.824 746.669,243.96 746.669,243.96 
			744.956,245.211 743.602,246.499 742.814,247.145 742.378,247.604 740.371,249.579 738.629,251.413 737.934,252.237 
			736.975,253.201 736.233,253.936 734.402,255.817 734.314,255.864 734.314,255.864 734.361,255.952 731.954,258.027 
			731.301,258.715 729.77,260.096 729.158,260.649 727.711,261.76 725.698,263.512 724.868,264.293 722.938,265.775 721.931,266.65 
			720.13,267.949 719.295,268.508 716.041,270.694 716.041,270.694 715.952,270.741 715.952,270.741 712.116,272.897 
			709.509,274.172 708.626,274.642 707.255,275.259 705.62,276.017 705.043,276.211 703.978,276.551 702.254,277.356 
			701.101,277.744 700.748,277.932 699.595,278.319 698.489,278.795 696.229,279.658 695.211,280.087 694.635,280.281 
			691.493,281.614 690.74,281.902 689.898,282.237 687.198,283.335 686.268,283.717 685.515,284.005 683.838,284.898 
			683.085,285.186 680.743,286.319 680.743,286.319 678.401,287.453 674.782,289.381 674.782,289.381 674.782,289.381 
			674.782,289.381 670.898,291.449 669.533,292.289 668.562,292.806 667.327,293.464 665.785,294.399 664.373,295.151 
			663.449,295.756 661.642,296.831 660.848,297.254 658.6,298.565 657.853,299.076 656.046,300.151 654.287,301.315 
			653.227,301.879 652.657,302.296 650.762,303.419 649.396,304.259 648.867,304.541 647.766,305.241 645.519,306.551 
			643.847,307.668 643.053,308.091 641.688,308.931 640.499,309.677 640.058,309.912 637.898,311.176 636.092,312.251 
			635.386,312.627 634.373,313.279 632.167,314.455 631.284,314.925 629.566,315.953 628.201,316.793 627.318,317.263 
			625.023,318.486 624.052,319.003 623.123,319.384 619.898,320.988 619.545,321.176 619.369,321.27 618.751,321.599 
			615.873,322.792 614.414,323.456 611.89,324.46 609.319,325.376 607.724,325.999 605.6,326.903 604.535,327.244 603.694,327.578 
			602.141,328.066 600.37,328.782 598.952,329.311 597.799,329.698 596.557,330.133 594.521,330.99 594.345,331.085 
			592.174,331.901 591.732,332.136 589.697,332.993 588.679,333.422 585.849,334.703 585.448,334.803 581.647,336.6 
			581.336,336.653 580.894,336.888 578.241,338.075 577.399,338.409 576.164,339.068 573.422,340.301 570.368,341.588 
			569.662,341.964 568.732,342.345 566.608,343.25 565.502,343.726 564.837,343.967 563.284,344.454 562.178,344.93 
			561.201,345.223 558.006,346.245 557.253,346.533 556.677,346.726 552.77,347.9 552.77,347.9 552.77,347.9 552.77,347.9 
			552.77,347.9 548.552,349.127 546.816,349.485 545.039,349.978 544.239,350.178 540.768,350.893 540.545,350.899 540.368,350.993 
			538.097,351.409 535.826,351.825 534.003,352.23 531.955,352.641 531.732,352.646 531.643,352.693 528.973,353.209 
			527.372,353.608 527.149,353.614 527.061,353.661 523.189,354.476 520.654,355.034 519.142,355.386 517.048,355.708 
			514.912,356.166 514.465,356.177 513.841,356.283 511.835,356.558 510.812,356.763 509.294,356.892 506.617,357.184 
			506.617,357.184 506.617,357.184 503.847,357.3 502.464,357.47 501.211,357.457 498.758,357.744 498.399,357.708 498.223,357.802 
			497.464,357.867 494.117,358.176 493.222,358.199 491.528,358.422 490.546,358.492 490.01,358.55 487.822,358.696 
			485.769,358.883 485.187,358.853 484.028,359.017 482.51,359.146 481.616,359.169 479.786,359.35 477.645,359.584 476.439,359.66 
			476.216,359.666 475.904,359.718 473.316,359.964 469.303,360.514 469.168,360.473 469.08,360.52 465.027,361.206 
			462.309,361.634 460.838,361.85 458.567,362.267 456.649,362.495 455.355,362.618 452.502,363.004 451.161,363.039 
			449.419,363.173 448.349,363.29 447.543,363.266 445.396,363.276 444.19,363.352 440.561,363.132 439.978,363.102 
			439.843,363.061 439.531,363.114 435.896,362.67 435.584,362.723 434.867,362.652 433.208,362.516 431.643,362.556 
			430.255,362.502 427.573,362.571 424.532,362.605 423.461,362.722 422.655,362.698 420.826,362.879 419.573,362.866 
			419.396,362.96 418.637,363.025 416.361,363.217 415.249,363.47 415.025,363.475 413.466,363.739 411.595,364.056 
			410.884,364.208 407.86,364.912 406.748,365.164 403.947,365.863 402.659,366.209 401.947,366.362 399.37,367.054 
			398.305,367.395 396.087,368.123 395.557,368.405 394.316,368.839 392.727,369.685 390.697,370.766 390.079,371.095 
			387.743,372.453 385.625,373.581 385.448,373.675 384.654,374.098 380.776,376.39 379.411,377.23 377.428,378.4 376.192,379.058 
			374.827,379.898 373.591,380.556 371.961,381.537 371.126,382.096 368.836,383.541 366.412,384.946 365.794,385.275 
			364.605,386.021 363.988,386.35 363.417,386.767 362.405,387.42 361.569,387.978 360.292,388.771 357.22,391.087 356.125,392.01 
			354.419,393.486 353.677,394.22 353.241,394.679 352.588,395.367 351.805,396.237 350.239,397.977 349.15,399.123 
			347.496,400.911 347.061,401.369 345.972,402.516 344.141,404.397 343.529,404.949 343.182,405.361 342.311,406.278 
			340.48,408.159 338.873,410.035 338.526,410.446 337.001,412.051 335.177,414.156 334.482,414.979 333.528,416.167 
			332.704,417.172 331.792,418.225 330.532,419.689 328.707,421.793 328.36,422.205 327.23,423.487 325.841,425.133 
			325.364,425.727 324.887,426.32 324.016,427.238 321.579,429.895 321.538,430.03 321.361,430.124 321.102,430.489 
			318.618,433.058 317.659,434.022 317.482,434.116 317.264,434.345 315.428,436.003 313.68,437.614 312.98,438.213 
			311.885,439.136 310.043,440.57 309.519,441.076 309.078,441.311 308.73,441.722 307.018,442.974 305.264,444.361 
			304.475,445.008 303.775,445.608 302.157,447.036 301.238,447.865 300.668,448.282 300.232,448.741 297.784,450.951 
			297.26,451.457 297.042,451.686 296.736,451.962 294.552,454.031 293.328,455.137 292.451,455.83 291.445,456.706 290.485,457.67 
			289.349,458.728 288.914,459.187 287.337,460.48 285.677,462.044 285.459,462.273 283.623,463.931 283.011,464.483 
			282.269,465.218 281.527,465.953 280.215,467.105 278.773,468.439 277.596,469.633 277.378,469.862 276.372,470.738 
			274.494,472.531 273.752,473.266 271.133,475.794 270.174,476.758 270.044,476.94 269.956,476.987 267.949,478.962 
			266.295,480.75 266.036,481.114 265.73,481.39 262.546,484.559 262.11,485.018 261.586,485.523 260.538,486.534 259.579,487.498 
			258.749,488.28 257.743,489.156 257.307,489.615 254.9,491.69 252.887,493.441 251.751,494.499 250.657,495.422 249.603,496.21 
			248.773,496.992 247.808,497.732 246.584,498.838 246.013,499.255 245.183,500.037 244.483,500.636 242.552,502.117 
			241.852,502.717 240.404,503.828 239.527,504.521 238.386,505.356 236.538,506.567 235.438,507.266 234.425,507.918 
			231.471,509.605 230.324,510.216 229.088,510.874 226.97,512.002 224.805,513.042 223.875,513.424 222.504,514.041 
			221.221,514.61 217.768,515.996 217.679,516.043 217.591,516.09 217.591,516.09 213.867,517.394 213.467,517.494 212.802,517.735 
			210.584,518.463 209.119,518.903 208.007,519.155 206.942,519.496 206.318,519.601 204.63,520.047 203.783,520.159 
			202.983,520.358 199.912,520.974 199.823,521.021 199.688,520.98 196.035,521.566 195.411,521.671 192.823,521.917 
			191.752,522.034 190.234,522.162 189.028,522.238 187.199,522.419 185.234,522.559 184.028,522.635 182.687,522.669 
			181.346,522.704 178.44,522.778 178.216,522.784 175.399,522.812 172.94,522.875 171.328,522.827 169.852,522.82 166.452,522.818 
			163.81,522.752 163.228,522.722 161.169,522.686 160.093,522.579 158.84,522.566 157.54,522.466 155.881,522.329 152.205,522.021 
			151.982,522.027 151.758,522.033 149.829,521.814 148.617,521.666 148.482,521.625 145.653,521.206 145.606,521.117 
			145.517,521.164 141.877,520.497 141.471,520.374 140.706,520.214 138.683,519.819 136.748,519.377 135.983,519.217 
			135.395,518.964 132.419,518.056 131.743,517.85 129.079,516.89 128.538,516.724 126.503,515.882 125.28,515.287 125.056,515.293 
			124.739,515.122 122.428,513.974 121.563,513.414 120.022,512.649 117.476,511.059 117.206,510.976 114.431,509.169 
			111.056,506.661 110.097,505.925 107.04,503.588 106.034,502.764 103.565,500.68 103.107,500.244 102.007,499.244 99.579,497.025 
			98.844,496.283 96.916,494.364 95.999,493.493 94.899,492.492 89.744,486.854 87.816,484.935 82.796,479.338 81.508,477.984 
			80.315,476.807 77.182,473.264 76.811,472.781 74.46,470.068 73.49,468.885 73.443,468.797 72.332,467.349 70.992,465.684 
			70.945,465.595 70.898,465.507 70.105,464.23 68.8,462.206 68.706,462.029 68.289,461.458 67.161,459.34 66.832,458.722 
			66.027,456.998 65.639,455.845 65.017,454.251 64.389,452.432 63.696,449.856 63.391,448.432 62.728,445.273 62.617,444.426 
			62.225,441.349 62.202,440.455 62.149,440.143 62.051,436.343 62.135,434.372 62.301,432.131 62.603,428.231 62.686,427.961 
			62.798,427.108 63.335,423.65 63.365,423.067 63.566,422.167 64.244,418.974 64.799,416.186 64.799,416.186 65.288,414.339 
			65.53,413.304 66.261,410.422 66.379,409.793 66.621,408.757 67.476,405.47 67.641,404.929 67.806,404.388 68.625,401.459 
			68.838,401.006 69.338,399.606 69.586,398.794 69.88,398.071 70.588,395.995 71.218,394.413 72.225,391.837 72.608,391.067 
			73.327,389.438 73.957,387.856 74.34,387.086 75.312,384.869 75.783,384.051 76.337,382.963 77.102,381.423 78.292,378.976 
			78.286,378.753 78.416,378.57 79.523,376.395 80.294,375.077 81.231,373.219 81.743,372.267 83.021,369.773 83.109,369.726 
			83.109,369.726 84.611,367.227 85.465,365.639 85.765,365.14 86.972,363.364 87.614,362.229 88.909,360.406 89.645,359.448 
			90.94,357.625 91.417,357.031 91.676,356.667 92.889,355.115 94.19,353.515 94.579,352.969 95.102,352.463 96.709,350.587 
			98.669,348.524 99.235,347.883 99.494,347.519 100.323,346.737 101.76,345.179 102.678,344.35 103.637,343.386 104.773,342.328 
			105.338,341.687 106.039,341.087 107.222,340.117 108.228,339.242 109.058,338.46 110.194,337.402 110.894,336.802 
			111.377,336.432 112.736,335.368 114.402,334.028 114.708,333.751 115.19,333.381 116.944,331.994 118.257,330.842 
			119.134,330.148 119.881,329.637 121.152,328.62 122.206,327.832 123.565,326.768 125.013,325.658 126.767,324.27 
			127.602,323.712 128.303,323.113 129.533,322.231 130.892,321.167 131.945,320.379 133.746,319.081 134.929,318.111 
			136.512,317.041 137.872,315.977 139.102,315.096 140.596,314.073 141.255,313.609 142.791,312.451 144.592,311.152 
			145.034,310.917 145.251,310.688 147.405,309.201 149.824,307.573 150,307.479 150.218,307.249 152.725,305.574 154.308,304.505 
			155.408,303.806 157.604,302.183 158.263,301.719 158.439,301.625 159.01,301.208 160.77,300.044 162.747,298.651 163.012,298.51 
			163.1,298.463 165.254,296.976 167.537,295.307 167.978,295.072 168.285,294.796 170.838,293.209 171.804,292.468 
			174.093,291.023 174.358,290.882 174.84,290.511 177.041,289.113 177.612,288.696 178.889,287.902 180.648,286.739 
			182.231,285.669 183.243,285.017 184.826,283.947 185.927,283.248 186.98,282.46 187.551,282.043 190.235,280.274 
			190.323,280.227 190.323,280.227 190.452,280.044 192.871,278.417 193.354,278.046 195.466,276.695 196.52,275.907 
			199.462,273.773 199.727,273.633 199.992,273.491 202.493,271.593 203.941,270.482 204.511,270.065 205.918,269.089 
			207.542,267.884 208.072,267.602 208.466,267.279 210.62,265.792 212.109,264.546 213.033,263.941 214.569,262.783 
			215.051,262.412 215.534,262.042 216.764,261.161 218.388,259.956 218.388,259.956 219.971,258.886 221.99,257.358 
			222.078,257.311 222.078,257.311 224.232,255.824 226.162,254.343 226.821,253.878 229.193,252.162 229.411,251.933 
			229.499,251.886 232.53,249.705 232.571,249.57 232.747,249.476 235.69,247.343 235.731,247.207 238.191,245.444 238.674,245.074 
			240.822,243.363 241.263,243.128 242.534,242.111 243.894,241.048 244.376,240.677 245.559,239.707 247.095,238.55 
			247.666,238.132 249.861,236.51 250.256,236.187 250.344,236.14 252.845,234.241 253.416,233.824 254.163,233.313 
			256.535,231.596 257.412,230.903 258.906,229.88 260.225,228.952 261.19,228.211 262.508,227.282 263.079,226.865 
			265.274,225.243 265.451,225.149 265.451,225.149 267.251,223.85 268.746,222.827 269.493,222.316 270.194,221.717 271.6,220.741 
			274.19,218.795 274.454,218.654 274.543,218.607 276.432,217.262 278.362,215.78 279.021,215.316 280.604,214.246 
			283.194,212.301 283.411,212.072 285.124,210.82 287.272,209.109 287.931,208.645 288.632,208.045 291.615,205.777 
			291.833,205.547 291.921,205.5 291.921,205.5 293.504,204.431 296.094,202.485 296.135,202.35 296.311,202.256 299.171,200.393 
			300.666,199.37 300.884,199.141 301.149,199 304.756,196.626 305.55,196.203 306.257,195.827 307.357,195.127 308.94,194.058 
			310.305,193.217 312.377,192.001 313.3,191.396 313.742,191.161 315.107,190.32 317.484,188.828 319.909,187.423 321.233,186.718 
			324.145,185.167 324.805,184.703 325.952,184.092 329.971,182.065 330.147,181.971 330.236,181.924 333.237,180.326 
			335.002,179.385 335.531,179.103 336.414,178.633 338.485,177.417 340.204,176.389 341.881,175.495 342.893,174.843 
			343.599,174.467 344.305,174.091 344.788,173.721 347.165,172.228 349.454,170.782 349.542,170.735 349.631,170.688 
			351.39,169.525 352.667,168.731 354.209,167.797 355.221,167.145 355.662,166.91 359.011,164.9 360.111,164.201 361.653,163.266 
			362.883,162.385 363.677,161.962 364.072,161.638 368.114,158.806 368.291,158.712 368.379,158.665 369.827,157.554 
			371.669,156.119 371.975,155.843 372.505,155.561 372.634,155.379 373.952,154.45 376.854,152.452 376.854,152.452 
			377.03,152.358 377.118,152.311 379.849,150.63 381.079,149.749 381.697,149.42 382.138,149.185 382.621,148.814 384.604,147.645 
			385.351,147.134 386.451,146.434 387.817,145.594 389.576,144.43 390.106,144.148 391.071,143.408 392.036,142.667 
			393.307,141.65 393.878,141.233 395.497,139.805 398.127,137.724 398.657,137.442 399.534,136.748 400.546,136.096 
			401.817,135.079 402.388,134.662 404.053,133.322 405.413,132.258 406.637,131.153 408.085,130.042 408.962,129.348 
			409.927,128.607 410.586,128.143 410.892,127.867 412.428,126.709 413.264,126.151 415.194,124.67 416.73,123.512 
			418.925,121.889 419.408,121.519 421.126,120.491 421.303,120.397 422.98,119.504 423.639,119.039 426.104,117.5 427.864,116.336 
			428.699,115.778 430.589,114.432 430.677,114.385 430.677,114.385 431.995,113.456 432.172,113.362 435.249,111.27 
			435.691,111.035 436.391,110.435 438.021,109.454 439.869,108.243 440.663,107.82 441.457,107.397 442.117,106.933 
			443.176,106.369 444.765,105.523 444.853,105.476 444.853,105.476 445.118,105.335 449.095,103.443 450.113,103.014 
			453.302,101.769 455.65,100.859 457.556,100.184 461.28,98.88 461.857,98.686 463.098,98.252 466.117,97.324 467.27,96.937 
			470.288,96.009 473.394,95.034 474.418,94.829 477.395,94.037 478.684,93.691 478.995,93.638 483.714,92.711 484.249,92.653 
			484.649,92.553 486.831,92.184 488.526,91.961 489.285,91.897 491.561,91.704 492.72,91.54 495.532,91.289 495.844,91.236 
			495.979,91.278 496.379,91.178 498.791,91.026 500.397,90.851 500.621,90.845 502.627,90.57 503.697,90.453 506.415,90.025 
			507.039,89.92 509.486,89.409 511.269,89.14 512.557,88.793 514.157,88.394 514.693,88.336 517.493,87.638 517.893,87.538 
			518.958,87.197 520.776,86.569 521.4,86.464 524.059,85.5 524.812,85.213 525.742,84.831 528.401,83.868 529.243,83.533 
			530.261,83.104 531.055,82.681 532.338,82.111 533.932,81.489 534.903,80.972 536.097,80.449 537.868,79.732 538.751,79.262 
			540.252,78.463 542.193,77.429 543.606,76.677 544.665,76.113 546.648,74.944 547.354,74.568 548.195,74.233 550.008,73.381 
			551.067,72.817 551.955,72.57 553.762,71.495 554.468,71.119 555.574,70.643 556.151,70.449 557.439,70.103 559.298,69.34 
			560.54,68.905 561.917,68.512 563.293,68.118 565.029,67.761 565.252,67.755 565.564,67.702 566.946,67.532 568.517,67.716 
			569.858,67.681 572.323,67.842 572.323,67.842 572.323,67.842 575.022,68.443 576.552,68.762 578.257,68.986 578.887,69.104 
			582.304,69.777 582.574,69.86 582.798,69.854 583.516,69.925 587.109,70.504 588.233,70.698 589.668,70.84 590.927,71.076 
			592.815,71.431 594.032,71.802 595.52,72.256 597.32,72.657 598.49,72.94 599.261,73.323 600.578,74.094 602.742,74.754 
			604.095,75.167 606.706,75.816 607.065,75.851 609.37,76.776 612.552,77.007 612.552,77.007 612.641,76.96 615.205,77.521 
			617.275,78.004 618.534,78.24 619.699,78.3 622.851,79.114 623.387,79.055 624.469,79.385 626.004,79.927 626.862,80.263 
			628.938,80.97 630.068,81.389 632.279,82.137 633.631,82.55 635.031,83.05 636.66,83.769 637.836,84.276 640.095,85.112 
			641.318,85.707 641.906,85.96 643.941,86.803 645.34,87.304 645.793,87.516 647.828,88.358 649.363,88.9 649.769,89.024 
			651.574,89.649 652.474,89.849 653.509,90.091 655.58,90.575 656.656,90.681 658.815,91.118 659.844,91.136 662.309,91.296 
			663.114,91.32 663.473,91.356 666.244,91.24 667.091,91.129 667.138,91.217 667.226,91.17 671.238,90.619 671.638,90.52 
			672.662,90.314 674.886,89.81 675.863,89.516 678.21,88.606 679.099,88.36 681.228,87.679 681.405,87.585 681.982,87.391 
			683.135,87.003 683.535,86.903 684.517,86.833 686.576,86.87 686.711,86.911 686.799,86.864 686.935,86.906 689.281,87.695 
			690.187,88.119 691.275,88.673 691.775,88.973 692.633,89.309 694.309,90.116 694.944,90.457 695.803,90.793 698.614,92.242 
			698.796,92.372 698.884,92.325 702.648,94.286 703.148,94.586 704.688,95.352 706.411,96.247 707.135,96.541 709.222,97.696 
			712.21,99.05 712.257,99.139 712.392,99.18 715.338,100.67 717.332,101.648 718.326,102.025 720.096,103.008 721.319,103.603 
			722.73,104.551 723.87,105.416 725.417,106.405 726.699,107.536 727.704,108.36 728.527,109.054 730.497,110.838 731.461,111.797 
			732.66,113.198 734,114.864 734.235,115.305 735.592,117.641 736.339,118.83 		">
		</polygon>
		<polygon slic3r:type="hole" style="stroke:#000000;stroke-miterlimit:10;" points="658.151,204.541 658.057,204.364 
			657.604,204.152 657.381,204.158 656.893,204.305 656.804,204.352 656.716,204.399 656.234,204.769 656.016,204.998 
			655.798,205.228 655.539,205.592 655.327,206.045 655.391,206.804 655.391,206.804 655.673,207.334 655.85,207.24 
			656.385,207.181 656.65,207.04 657.491,206.705 657.668,206.611 657.968,206.111 658.315,205.7 658.357,205.565 658.357,205.565 
			658.475,204.935 		">
		</polygon>
		<polygon slic3r:type="hole" style="stroke:#000000;stroke-miterlimit:10;" points="759.07,183.426 757.865,181.802 
			757.266,181.101 755.436,181.283 754.942,181.206 753.783,181.37 753.112,181.387 753.024,181.434 750.941,182.203 
			750.853,182.25 748.694,183.514 748.517,183.608 746.852,184.948 746.463,185.495 745.821,186.63 745.697,187.035 
			746.008,188.683 746.149,188.947 746.966,189.419 747.878,190.066 748.195,190.237 749.854,190.373 751.954,190.275 
			752.354,190.175 752.49,190.216 752.843,190.028 754.619,189.535 755.325,189.159 755.984,188.695 757.079,187.772 
			757.297,187.542 758.115,186.314 759.293,185.12 759.628,184.262 		">
		</polygon>
	</g>
</g>
<g id="Layer_1">
</g>
</svg>
