<?xml version="1.0" encoding="iso-8859-1"?>
<!-- Generator: Adobe Illustrator 19.2.1, SVG Export Plug-In . SVG Version: 6.00 Build 0)  -->
<svg version="1.1" xmlns="http://www.w3.org/2000/svg" xmlns:xlink="http://www.w3.org/1999/xlink" x="0px" y="0px"
	 viewBox="0 0 841.89 595.28" style="enable-background:new 0 0 841.89 595.28;" xml:space="preserve">
<g id="layer224">
	<g id="layer224_1_" slic3r:z="8.98000000000007e-005">
		<polygon slic3r:type="contour" style="fill:#FFFFFF;stroke:#000000;stroke-miterlimit:10;" points="652.293,107.167 
			653.051,108.803 653.638,110.756 653.802,111.915 653.613,113.262 653.536,113.756 652.564,115.973 652.346,116.202 
			652.217,116.384 651.869,116.796 650.386,118.266 648.803,119.335 648.627,119.429 645.867,119.992 645.203,120.233 
			644.714,120.38 642.485,120.661 641.814,120.678 641.638,120.772 639.091,120.882 637.749,120.917 635.743,121.192 
			634.984,121.256 633.825,121.42 632.667,121.584 630.572,121.907 630.037,121.965 627.854,122.334 626.878,122.628 
			626.213,122.869 624.783,122.95 623.848,123.108 621.524,123.213 621.077,123.224 620.719,123.189 619.148,123.005 
			618.425,122.711 616.696,121.592 616.243,121.38 616.014,121.162 614.491,119.367 614.121,118.885 613.14,117.255 612.37,115.172 
			611.654,113.401 611.437,111.93 611.433,108.307 611.469,107.948 611.463,107.724 611.675,107.271 612.806,104.29 613.49,103.02 
			614.531,101.785 616.227,99.862 616.268,99.727 616.268,99.727 618.104,98.07 618.716,97.517 620.076,96.453 621.259,95.483 
			622.048,94.837 624.154,93.261 624.154,93.261 624.154,93.261 626.449,92.039 628.173,91.234 628.615,90.999 630.127,90.647 
			631.415,90.301 631.639,90.295 634.197,90.632 635.003,90.656 635.05,90.745 635.185,90.786 637.414,92.205 637.961,92.593 
			639.101,93.459 639.742,94.024 641.3,95.46 643.399,97.061 644.175,97.668 646.192,99.54 647.015,100.234 648.902,102.288 
			649.548,103.077 650.289,104.042 651.259,105.225 651.958,106.325 		">
		</polygon>
		<polygon slic3r:type="contour" style="fill:#FFFFFF;stroke:#000000;stroke-miterlimit:10;" points="759.658,213.25 
			759.91,214.362 760.303,215.738 760.321,216.409 760.613,219.086 760.465,220.297 760.264,222.897 760.187,223.391 
			760.033,224.379 759.473,226.944 759.19,228.114 758.229,230.778 757.935,231.502 757.517,232.631 756.539,234.624 
			755.65,236.571 755.355,237.294 755.143,237.747 754.206,239.605 753.476,240.787 752.876,241.787 751.887,243.333 
			750.821,245.374 750.473,245.785 749.178,247.608 746.965,250.26 746.923,250.395 746.923,250.395 744.357,253.235 
			743.009,254.746 741.349,256.309 739.254,258.332 738.683,258.749 737.106,260.042 736.494,260.595 736.141,260.783 
			734.387,262.17 732.674,263.422 731.444,264.303 730.827,264.632 728.32,266.307 728.231,266.354 728.278,266.443 
			725.324,268.129 723.959,268.969 720.911,270.479 719.852,271.043 716.092,272.706 715.827,272.847 710.997,274.626 
			710.862,274.585 710.597,274.726 706.867,275.806 705.667,276.105 702.907,276.668 701.531,277.061 700.284,277.272 
			697.795,277.918 695.748,278.329 694.147,278.728 691.082,279.567 690.37,279.719 690.105,279.86 686.687,280.888 685.31,281.281 
			683.004,282.056 681.186,282.684 678.839,283.595 677.068,284.311 673.837,285.692 673.661,285.786 673.572,285.833 
			670.43,287.166 670.077,287.354 669.324,287.642 666.541,289.011 663.717,290.515 663.452,290.656 663.187,290.797 
			660.627,292.16 659.792,292.718 659.35,292.953 658.821,293.236 657.673,293.847 657.279,294.17 655.955,294.875 653.307,296.285 
			652.866,296.52 652.513,296.708 649.518,298.53 648.152,299.37 646.611,300.305 645.863,300.816 644.098,301.756 643.215,302.226 
			641.409,303.301 638.631,304.894 638.543,304.941 638.455,304.988 635.766,306.533 634.354,307.285 632.588,308.225 
			631.264,308.93 629.322,309.965 627.863,310.628 625.392,311.945 623.138,313.031 622.079,313.595 619.778,314.594 
			617.878,315.493 616.242,316.251 613.412,317.531 612.747,317.772 609.076,319.388 608.722,319.576 607.969,319.863 
			605.445,320.868 602.168,322.16 601.944,322.166 601.856,322.213 597.914,323.745 594.902,324.897 593.66,325.331 
			590.248,326.582 589.495,326.87 589.318,326.964 585.329,328.408 583.952,328.802 581.204,329.812 578.81,330.634 577.08,331.215 
			573.838,332.148 572.95,332.395 568.955,333.616 568.467,333.763 566.643,334.168 564.243,334.766 563.707,334.825 
			562.731,335.118 560.372,335.581 558.277,335.904 556.765,336.256 555.206,336.52 553.112,336.842 552.353,336.906 
			550.706,337.217 549.947,337.281 549.323,337.387 547.941,337.556 546.2,337.69 545.353,337.802 544.905,337.813 541.646,338.076 
			540.041,338.251 536.734,338.426 535.664,338.543 531.246,338.97 530.934,339.022 530.487,339.034 527.181,339.208 
			525.575,339.384 524.099,339.377 522.04,339.34 520.563,339.334 518.281,339.303 515.816,339.143 515.369,339.154 
			512.722,338.864 512.452,338.782 509.893,338.445 509.535,338.409 506.076,337.872 505.941,337.831 505.717,337.836 
			502.306,337.387 501.318,337.234 498.224,336.955 496.606,336.684 494.365,336.518 494.277,336.565 492.212,336.305 
			490.507,336.08 489.43,335.974 486.066,335.613 485.842,335.618 485.707,335.577 484.989,335.506 481.984,335.181 
			480.772,335.033 478.619,334.82 476.466,334.607 475.166,334.506 473.731,334.364 471.714,334.192 469.519,334.114 
			468.531,333.961 466.426,333.836 465.126,333.735 464.767,333.7 464.273,333.623 461.308,333.162 459.826,332.932 
			458.026,332.531 456.274,332.218 454.115,331.781 452.768,331.592 451.462,331.268 449.527,330.826 448.222,330.501 
			445.699,329.806 445.022,329.599 442.229,328.821 441.958,328.739 441.958,328.739 439.07,327.784 438.394,327.578 
			435.73,326.617 434.965,326.458 433.16,325.833 431.443,325.162 430.313,324.743 428.237,324.036 426.791,323.447 
			425.167,322.952 423.315,322.239 421.333,321.709 420.792,321.544 419.351,321.178 417.281,320.694 416.516,320.535 
			415.663,320.423 412.793,320.139 411.181,320.091 408.41,320.207 407.651,320.271 407.116,320.329 404.439,320.622 
			404.216,320.628 401.41,321.102 400.61,321.302 397.85,321.865 394.832,322.792 394.744,322.839 394.697,322.751 391.414,323.82 
			388.713,324.918 387.872,325.253 387.384,325.4 384.377,326.774 382.959,327.303 379.599,328.866 379.158,329.101 
			378.893,329.242 375.533,330.804 375.445,330.851 373.233,331.803 371.467,332.743 370.408,333.307 368.731,334.2 367.76,334.717 
			366.878,335.187 364.759,336.315 363.747,336.968 361.329,338.596 361.152,338.69 361.064,338.737 359.086,340.13 
			358.427,340.594 357.109,341.522 355.567,342.457 354.337,343.338 353.107,344.22 352.137,344.737 349.847,346.183 
			349.188,346.647 348.747,346.882 346.37,348.375 344.693,349.268 343.769,349.873 342.356,350.625 341.65,351.001 
			340.326,351.706 338.696,352.688 338.52,352.782 337.643,353.475 336.76,353.945 336.631,354.128 334.606,355.432 
			332.853,356.819 332.194,357.284 331.711,357.654 330.045,358.994 328.121,360.699 327.903,360.928 327.774,361.11 
			325.455,363.138 324.013,364.473 322.665,365.984 321.705,366.948 320.793,368 319.751,369.235 319.098,369.923 318.491,370.699 
			317.579,371.751 317.061,372.48 316.237,373.486 314.724,375.538 314.335,376.085 313.817,376.814 312.051,379.454 
			310.714,381.412 310.114,382.411 309.001,384.364 307.505,387.086 307.122,387.857 305.214,391.932 304.407,393.608 
			302.804,397.407 300.519,402.476 300.431,402.523 300.478,402.612 300.389,402.659 298.14,407.369 297.415,408.774 
			296.008,411.45 295.413,412.673 293.617,415.896 292.975,417.03 291.603,419.347 290.366,421.705 289.854,422.658 
			288.204,426.369 288.075,426.551 287.657,427.68 286.608,430.391 286.184,431.297 285.978,431.973 285.064,434.726 
			284.61,436.214 284.368,437.249 283.496,439.866 283.202,440.589 283.249,440.677 282.618,442.259 282.448,442.577 
			282.495,442.665 282.406,442.712 281.181,445.517 280.71,446.335 280.162,447.646 279.273,449.593 278.755,450.322 
			278.201,451.41 277.6,452.409 277.43,452.727 275.799,455.408 274.856,457.043 274.468,457.59 273.82,458.501 273.602,458.73 
			272.219,460.6 271.789,461.282 270.747,462.517 269.411,464.475 268.681,465.657 268.375,465.933 268.157,466.162 
			267.162,467.485 265.478,469.855 265.131,470.266 264.218,471.319 262.741,473.012 261.958,473.882 261.481,474.476 
			260.739,475.211 260.61,475.393 259.262,476.904 258.526,477.862 258.308,478.092 257.614,478.915 256.483,480.197 
			255.141,481.931 254.617,482.437 252.963,484.224 252.18,485.094 251.786,485.417 251.221,486.058 248.996,488.263 
			247.819,489.456 247.778,489.591 245.765,491.343 243.887,493.136 243.67,493.365 242.528,494.2 239.98,496.01 239.891,496.057 
			239.803,496.104 239.803,496.104 236.408,498.025 235.043,498.866 233.501,499.8 232.93,500.217 231.206,501.022 230.676,501.304 
			230.5,501.398 230.1,501.498 227.752,502.408 226.246,502.984 224.916,503.466 222.433,504.335 221.68,504.622 221.192,504.769 
			218.397,505.691 215.738,506.654 215.65,506.701 215.65,506.701 213.073,507.394 212.273,507.593 210.361,508.045 
			208.625,508.403 206.937,508.849 204.754,509.218 203.33,509.523 200.348,510.092 200.348,510.092 200.348,510.092 
			200.259,510.139 197.23,510.619 197.141,510.666 194.512,511.047 193.218,511.17 191.835,511.34 190.006,511.521 188.711,511.643 
			186.882,511.825 185.452,511.906 184.917,511.965 183.799,511.993 182.146,512.081 181.252,512.104 180.358,512.127 
			178.882,512.12 177.899,512.19 176.152,512.101 173.87,512.07 172.44,512.151 170.47,512.068 169.888,512.038 169.305,512.008 
			167.605,512.007 166.529,511.901 164.782,511.811 162.676,511.686 160.659,511.515 158.865,511.337 156.935,511.118 
			156.218,511.047 153.93,510.793 152.853,510.686 149.618,510.143 148.854,509.984 147.73,509.789 145.754,509.482 
			144.225,509.163 143.189,508.922 139.949,508.155 139.637,508.208 139.59,508.119 139.455,508.078 136.167,507.223 
			134.679,506.769 133.597,506.439 131.703,505.862 129.898,505.237 128.815,504.907 127.233,504.277 125.834,503.776 
			124.475,503.14 122.394,502.209 120.853,501.443 119.312,500.678 116.819,499.4 116.548,499.317 116.501,499.229 116.319,499.099 
			114.59,497.981 112.903,496.727 112.356,496.338 110.257,494.737 108.934,493.742 108.611,493.348 105.224,490.393 
			105.13,490.216 102.702,487.997 98.84,483.936 98.564,483.63 98.334,483.412 93.555,478.48 93.508,478.391 89.187,473.895 
			88.958,473.677 88.635,473.283 84.778,469.445 82.715,467.485 82.438,467.179 80.875,465.519 79.999,464.513 79.723,464.207 
			79.305,463.636 78.747,462.8 78.512,462.359 77.901,461.211 77.143,459.576 76.667,458.469 75.904,456.61 75.228,454.704 
			75.035,454.127 74.935,453.727 74.389,451.639 73.685,448.615 73.638,448.526 73.638,448.526 73.632,448.303 73.152,445.273 
			72.988,444.114 72.812,442.508 72.655,439.873 72.561,439.696 72.55,439.249 72.481,436.567 72.499,435.537 72.371,432.32 
			72.442,431.602 72.485,429.767 72.468,427.396 72.522,426.008 72.63,423.232 72.844,419.379 72.927,419.108 73.003,418.614 
			73.358,415.026 73.748,412.779 74.014,410.938 74.728,407.386 74.728,407.386 74.681,407.298 75.5,404.369 76.19,401.622 
			76.314,401.216 76.479,400.675 77.363,398.505 77.775,397.152 78.152,396.159 78.865,394.306 79.454,392.859 80.002,391.548 
			80.886,389.378 81.098,388.925 81.351,388.337 82.323,386.12 82.7,385.126 83.972,382.409 84.956,380.639 85.939,378.869 
			86.928,377.323 87.57,376.188 88.383,374.735 89.149,373.195 90.138,371.648 91.174,370.19 92.769,367.867 93.111,367.232 
			94.718,365.357 95.536,364.128 96.402,362.987 97.008,362.211 98.651,359.977 99.304,359.289 100.517,357.737 101.6,356.367 
			102.948,354.856 103.554,354.08 104.643,352.933 105.556,351.881 106.079,351.376 107.734,349.588 108.693,348.624 
			109.652,347.66 111.53,345.867 111.836,345.591 112.054,345.361 114.414,343.198 114.679,343.057 115.815,341.999 
			116.821,341.123 117.127,340.847 119.01,339.277 121.376,337.338 121.641,337.197 121.682,337.061 122.43,336.55 124.183,335.163 
			124.666,334.793 126.867,333.394 127.92,332.606 130.292,330.89 130.863,330.473 131.216,330.285 133.634,328.657 
			133.634,328.657 135.835,327.258 137.901,325.818 138.519,325.489 139.178,325.025 141.426,323.715 142.526,323.015 
			144.286,321.852 145.345,321.288 147.546,319.889 147.852,319.613 149.658,318.537 150.977,317.609 151.418,317.374 
			152.871,316.486 153.136,316.345 154.59,315.458 155.561,314.941 158.467,313.166 158.644,313.072 158.685,312.937 
			159.48,312.514 162.651,310.598 163.181,310.316 167.141,307.754 167.494,307.566 167.583,307.519 167.671,307.472 
			171.325,305.186 173.044,304.157 174.938,303.035 176.521,301.965 177.534,301.313 178.457,300.708 178.81,300.52 180.57,299.356 
			181.976,298.381 183.165,297.634 184.972,296.559 186.731,295.395 187.702,294.878 189.591,293.532 191.527,292.275 
			192.492,291.534 193.11,291.205 194.823,289.953 196.141,289.024 196.935,288.601 199.354,286.973 200.672,286.045 
			202.079,285.069 205.068,283.024 205.421,282.836 205.421,282.836 205.598,282.742 208.676,280.65 210.035,279.586 
			212.407,277.87 213.642,277.212 214.431,276.565 217.768,274.108 218.603,273.55 220.092,272.304 221.234,271.469 
			223.164,269.988 223.647,269.618 223.823,269.524 226.33,267.849 226.548,267.619 228.955,265.544 229.22,265.403 229.35,265.221 
			231.851,263.323 232.333,262.952 234.481,261.242 235.182,260.642 237.071,259.296 237.73,258.832 240.008,256.939 
			240.667,256.475 243.033,254.535 244.086,253.748 246.099,251.996 246.452,251.808 246.934,251.438 248.865,249.957 
			249.347,249.586 251.407,247.923 252.196,247.276 254.167,245.66 254.562,245.336 254.868,245.06 257.057,243.214 
			257.893,242.656 259.735,241.222 260.653,240.393 262.23,239.1 262.536,238.824 262.889,238.636 264.731,237.201 266.179,236.091 
			267.186,235.215 268.062,234.521 269.51,233.41 270.605,232.487 271.264,232.023 271.57,231.747 273.853,230.078 274.819,229.337 
			276.619,228.038 277.979,226.974 278.944,226.234 279.909,225.493 282.104,223.871 283.287,222.901 285.306,221.373 
			287.76,219.386 287.76,219.386 287.76,219.386 287.76,219.386 290.702,217.253 291.974,216.236 293.904,214.755 296.229,212.95 
			296.27,212.815 296.27,212.815 296.358,212.768 299.301,210.634 300.572,209.617 302.461,208.271 303.249,207.625 
			305.138,206.279 305.138,206.279 305.227,206.232 305.227,206.232 307.557,204.651 308.964,203.675 309.887,203.07 
			311.647,201.906 314.195,200.096 314.766,199.679 315.602,199.121 315.996,198.797 317.273,198.004 317.979,197.628 
			318.55,197.211 318.815,197.07 320.751,195.812 321.28,195.53 323.522,193.996 324.535,193.344 326.953,191.716 327.836,191.246 
			327.924,191.199 328.142,190.969 328.713,190.552 329.419,190.176 331.09,189.06 331.926,188.501 332.761,187.943 
			333.026,187.802 333.862,187.244 334.391,186.962 337.163,185.146 337.293,184.963 338.352,184.399 339.011,183.935 
			341.477,182.395 342.136,181.931 342.665,181.649 344.336,180.532 345.084,180.021 345.696,179.468 346.62,178.863 
			347.149,178.581 347.455,178.305 349.08,177.1 350.004,176.495 350.18,176.401 350.574,176.077 354.223,173.568 355.63,172.592 
			356.071,172.357 356.818,171.846 358.354,170.688 358.484,170.506 358.966,170.135 359.979,169.483 360.155,169.389 
			362.791,167.532 364.592,166.233 365.34,165.722 365.469,165.539 366.658,164.793 366.964,164.517 368.765,163.218 
			369.029,163.077 371.225,161.455 371.795,161.037 373.243,159.926 375.527,158.257 377.675,156.547 377.763,156.5 
			379.823,154.836 381.883,153.173 382.189,152.896 383.548,151.833 384.072,151.327 385.473,150.128 386.043,149.711 
			388.368,147.906 388.939,147.489 390.387,146.378 390.781,146.055 390.958,145.961 392.011,145.173 392.535,144.667 
			394.071,143.51 394.642,143.092 396.66,141.564 396.878,141.335 397.537,140.871 398.985,139.76 399.332,139.348 399.685,139.16 
			401.086,137.961 402.404,137.032 403.193,136.386 405.123,134.905 405.341,134.675 406.088,134.164 407.536,133.053 
			408.019,132.683 408.325,132.407 409.596,131.39 410.955,130.326 411.791,129.767 413.857,128.328 416.099,126.794 
			416.316,126.564 417.635,125.636 418.205,125.218 420.801,123.496 420.977,123.402 422.384,122.427 424.496,121.075 
			425.42,120.47 426.521,119.771 426.609,119.724 429.475,118.084 430.222,117.573 430.31,117.526 430.751,117.291 430.84,117.244 
			431.458,116.915 433.705,115.604 434.853,114.993 435.118,114.852 435.206,114.805 435.206,114.805 435.559,114.617 
			438.383,113.113 439.307,112.508 439.484,112.414 440.19,112.038 443.591,110.34 445.403,109.488 445.627,109.482 
			447.792,108.442 450.758,107.203 451.776,106.774 455.182,105.3 456.112,104.918 456.335,104.912 460.325,103.468 
			462.143,102.839 464.184,102.205 465.826,101.671 467.026,101.372 468.891,100.832 469.732,100.497 472.798,99.658 
			473.151,99.469 473.462,99.417 476.839,98.525 478.528,98.079 479.993,97.638 481.24,97.427 482.664,97.122 483.999,96.864 
			485.558,96.601 487.029,96.384 489.076,95.973 490.147,95.856 492.288,95.622 493.847,95.359 495.812,95.219 499.065,94.732 
			499.289,94.727 502.86,94.411 502.995,94.452 506.472,93.96 506.919,93.949 510.178,93.686 510.178,93.686 510.313,93.727 
			513.572,93.465 514.643,93.348 516.966,93.243 518.084,93.215 518.89,93.239 520.678,93.193 521.931,93.205 522.378,93.194 
			523.678,93.294 525.154,93.301 526.678,93.396 528.919,93.562 529.278,93.598 529.501,93.592 531.966,93.752 534.025,93.789 
			535.554,94.107 538.601,94.298 539.365,94.457 542.501,94.6 543.712,94.748 546.036,94.643 547.783,94.733 550.407,94.128 
			550.719,94.076 551.254,94.017 553.431,93.424 554.007,93.23 557.108,92.032 557.196,91.985 557.285,91.938 560.603,90.511 
			560.956,90.323 561.568,89.77 563.063,88.748 564.522,88.084 565.722,87.785 566.252,87.503 568.153,86.604 569.347,86.081 
			569.7,85.893 571.7,85.394 573.624,85.389 574.43,85.414 574.653,85.408 574.924,85.49 577.9,86.398 580.07,87.282 580.34,87.364 
			580.476,87.405 582.698,88.601 583.38,89.031 586.015,90.573 586.015,90.573 586.015,90.573 587.814,92.675 589.107,94.252 
			589.389,94.781 589.806,95.352 590.575,97.435 590.603,100.253 590.562,100.388 590.562,100.388 589.089,104.005 588.877,104.458 
			588.282,105.681 587.169,107.633 586.745,108.539 586.261,110.609 586.196,111.55 586.413,113.021 586.53,114.091 587.6,115.674 
			588.71,117.122 589.427,118.893 591.82,121.471 591.914,121.648 594.295,123.779 596.035,125.344 596.217,125.474 
			598.216,126.675 599.451,127.717 600.815,128.577 601.95,129.219 605.055,131.644 605.695,132.209 608.952,135.346 
			608.999,135.435 612.433,138.478 612.75,138.649 615.913,141.609 616.825,142.257 619.435,144.606 620.67,145.648 622.68,147.296 
			624.05,148.379 626.108,150.116 627.066,150.851 627.978,151.499 630.083,153.324 631.546,154.584 632.505,155.319 
			634.521,157.191 634.798,157.497 636.726,159.416 637.002,159.722 637.737,160.464 638.977,161.729 639.53,162.341 
			640.406,163.348 641.235,164.266 642.299,165.625 643.268,166.808 643.498,167.026 644.285,168.08 644.979,168.956 
			646.372,170.934 646.56,171.287 646.836,171.593 648.511,174.1 649.539,175.818 650.421,177.048 651.59,179.031 652.107,180.002 
			652.525,180.573 653.465,182.338 654.076,183.486 654.499,184.28 655.439,186.045 656.473,187.987 656.902,189.005 
			657.748,190.594 659.123,193.6 659.128,193.824 659.175,193.912 659.222,194 660.315,196.478 660.797,197.807 660.943,198.296 
			661.666,200.29 661.76,200.467 662.1,201.532 662.734,203.573 662.834,203.973 663.814,207.303 663.914,207.703 664.014,208.103 
			664.56,210.192 664.765,211.216 665.158,212.592 665.563,214.416 665.674,215.263 665.868,215.84 666.22,217.352 666.273,217.664 
			666.414,217.928 666.719,219.352 667.294,220.858 667.682,222.011 667.923,222.676 668.774,224.489 668.963,224.842 
			669.104,225.106 670.167,226.466 670.261,226.642 670.261,226.642 671.59,227.861 672.137,228.249 672.907,228.632 
			674.713,229.257 675.66,229.546 676.96,229.647 679.242,229.677 680.707,229.237 682.26,228.75 683.148,228.503 683.725,228.309 
			684.914,227.563 686.544,226.582 688.521,225.189 689.357,224.631 689.71,224.443 690.104,224.119 691.811,222.644 
			692.076,222.503 693.788,221.251 694.795,220.375 696.066,219.358 696.154,219.311 697.778,218.106 697.955,218.012 
			698.261,217.736 700.591,216.155 701.951,215.091 702.304,214.903 704.063,213.74 704.24,213.645 704.505,213.504 706.4,212.382 
			707.547,211.771 709.406,211.007 710.071,210.767 710.424,210.579 711.801,210.185 713.531,209.604 714.284,209.316 
			716.549,208.677 717.573,208.471 719.661,207.925 720.461,207.726 721.308,207.615 722.108,207.415 723.179,207.298 
			724.25,207.181 727.373,206.877 727.462,206.83 727.773,206.777 730.679,206.703 732.956,206.51 733.003,206.598 735.374,206.582 
			736.491,206.553 738.956,206.714 741.015,206.75 742.538,206.845 745.356,206.818 746.479,207.012 747.509,207.031 
			749.968,206.967 750.732,207.127 752.079,207.316 752.797,207.387 753.879,207.717 755.514,208.659 756.331,209.13 
			757.383,210.043 758.53,211.131 		">
		</polygon>
	</g>
</g>
<g id="Layer_1">
</g>
</svg>
