<?xml version="1.0" encoding="iso-8859-1"?>
<!-- Generator: Adobe Illustrator 19.2.1, SVG Export Plug-In . SVG Version: 6.00 Build 0)  -->
<svg version="1.1" xmlns="http://www.w3.org/2000/svg" xmlns:xlink="http://www.w3.org/1999/xlink" x="0px" y="0px"
	 viewBox="0 0 841.89 595.28" style="enable-background:new 0 0 841.89 595.28;" xml:space="preserve">
<g id="layer194">
	<g id="layer194_1_" slic3r:z="7.78000000000006e-005">
		<polygon slic3r:type="contour" style="fill:#FFFFFF;stroke:#000000;stroke-miterlimit:10;" points="195.409,408.489 
			195.879,409.371 197.013,411.713 197.865,413.526 198.629,415.385 198.975,416.673 199.82,419.962 199.873,420.274 
			199.926,420.586 200.465,424.151 200.704,426.515 200.786,427.945 200.873,429.598 200.966,431.474 200.824,432.91 
			200.611,435.062 200.51,436.362 200.085,438.968 199.56,441.174 199.018,442.709 197.769,446.32 197.775,446.543 197.686,446.59 
			197.604,446.861 195.731,450.577 195.219,451.53 193.946,454.247 193.475,455.064 192.357,456.793 191.362,458.116 
			189.325,460.673 189.195,460.856 189.107,460.903 186.482,463.207 185.346,464.265 184.422,464.87 183.54,465.34 181.057,466.209 
			179.327,466.791 177.768,467.054 176.162,467.23 174.779,467.4 171.921,467.563 171.921,467.563 171.921,467.563 168.738,467.331 
			167.168,467.148 164.88,466.894 164.115,466.734 163.174,466.669 161.239,466.227 159.075,465.567 158.128,465.278 
			155.693,464.535 154.064,463.816 151.841,462.621 151.206,462.279 150.706,461.979 147.707,460.177 145.796,458.929 
			143.927,457.546 141.375,455.732 140.322,454.82 136.577,451.829 136.53,451.741 136.395,451.7 132.321,448.091 131.956,447.832 
			129.898,446.096 127.841,444.359 127.658,444.23 127.564,444.053 123.496,440.668 123.407,440.715 123.36,440.627 
			123.313,440.539 121.52,438.661 120.457,437.302 120.274,437.172 119.898,436.466 118.735,434.707 118.547,434.354 
			118.018,432.936 117.255,431.076 117.108,430.588 117.002,429.965 116.221,427.435 115.452,425.352 115.258,424.775 
			115.329,424.058 115.084,421.469 115.002,420.04 115.409,418.464 115.739,417.381 115.81,416.664 117.377,413.224 
			117.465,413.177 117.507,413.041 119.45,410.307 120.756,408.931 121.716,407.967 124.117,405.669 124.817,405.069 
			127.313,402.947 129.549,401.19 130.514,400.449 130.997,400.079 133.363,398.139 133.628,397.998 134.287,397.534 
			136.176,396.188 138.73,394.601 139.124,394.278 139.301,394.184 142.696,392.263 142.784,392.216 142.872,392.168 
			146.138,390.429 147.733,389.807 150.21,388.714 152.157,387.904 154.458,386.905 155.611,386.517 156.411,386.318 
			159.829,385.291 160.453,385.185 163.659,384.611 165.936,384.418 167.901,384.278 169.289,384.332 172.789,384.734 
			174.136,384.923 175.488,385.335 179.381,387.114 180.199,387.585 183.709,390.135 184.032,390.529 184.955,391.624 
			186.983,393.942 187.771,394.996 189.498,397.815 191.279,400.945 191.837,401.781 192.166,402.398 193.858,405.576 
			194.986,407.694 		">
		</polygon>
		<polygon slic3r:type="contour" style="fill:#FFFFFF;stroke:#000000;stroke-miterlimit:10;" points="613.378,218.755 
			614.982,221.979 615.499,222.95 615.975,224.056 617.161,226.71 617.825,228.169 618.401,229.676 619.488,231.929 620.31,234.324 
			620.503,234.9 620.938,236.142 621.625,238.495 621.96,239.337 622.805,242.625 622.904,243.025 623.456,245.337 623.72,246.896 
			623.725,247.12 624.025,248.32 624.505,251.35 624.752,252.238 625.132,254.868 625.272,256.833 625.401,258.35 625.505,260.674 
			625.41,262.198 625.291,264.527 625.102,265.874 624.718,268.344 624.518,269.244 623.698,272.173 623.61,272.22 623.528,272.49 
			622.297,275.072 620.707,277.618 620.536,277.936 620.448,277.983 620.1,278.394 617.669,281.275 617.24,281.957 616.415,282.963 
			614.803,284.615 613.719,285.985 613.59,286.167 612.319,287.184 611.789,287.466 611.307,287.836 609.153,289.323 
			607.611,290.257 606.251,291.321 604.845,292.297 604.539,292.573 603.48,293.137 602.379,293.836 602.026,294.024 
			599.602,295.429 597.972,296.41 596.824,297.021 593.917,298.796 593.829,298.843 593.741,298.89 590.599,300.223 
			589.758,300.558 588.204,301.045 586.651,301.533 585.81,301.868 583.545,302.507 583.456,302.554 583.28,302.648 
			581.544,303.006 581.368,303.1 579.897,303.317 578.65,303.528 577.267,303.698 576.285,303.768 574.32,303.908 573.114,303.983 
			572.444,304.001 569.403,304.034 568.82,304.004 568.238,303.974 564.297,303.807 563.667,303.689 562.997,303.707 
			560.62,303.499 558.873,303.41 558.562,303.463 558.426,303.421 555.956,303.038 552.015,302.87 551.88,302.829 551.744,302.788 
			549.903,302.522 548.015,302.168 547.927,302.215 543.828,301.113 543.604,301.118 543.469,301.077 538.411,299.239 
			538.323,299.286 538.188,299.244 534.56,297.325 533.789,296.942 532.29,296.041 531.743,295.652 530.826,294.781 
			530.179,293.992 529.721,293.557 528.516,291.933 528.14,291.227 527.529,290.079 526.442,287.826 526.154,287.072 
			526.101,286.761 525.303,283.56 525.286,282.889 525.217,280.207 525.159,279.672 525.2,279.536 525.66,276.572 525.943,275.402 
			526.592,272.79 526.722,272.608 527.605,270.438 528.065,269.174 528.789,267.768 530.409,264.64 531.133,263.234 
			532.547,260.782 533.577,259.1 533.966,258.554 536.026,255.19 536.327,254.69 536.497,254.373 537.528,252.691 538.6,250.874 
			538.982,250.104 539.96,248.11 540.596,246.752 541.02,245.846 541.68,243.682 541.887,243.005 542.052,242.464 542.153,241.164 
			542.371,239.235 542.301,238.253 542.132,236.87 541.78,235.358 541.245,233.717 540.858,232.564 539.735,230.669 
			539.406,230.051 538.248,228.515 538.107,228.25 538.06,228.162 536.268,226.284 535.944,225.89 534.757,224.936 533.657,223.936 
			533.428,223.718 532.746,223.288 530.876,221.905 529.512,221.045 527.877,220.103 527.242,219.761 526.56,219.331 
			524.79,218.348 523.567,217.753 521.438,216.734 518.545,215.556 517.639,215.132 517.051,214.879 513.846,213.753 
			513.575,213.671 513.528,213.582 509.47,212.345 507.894,211.938 505.641,211.325 503.795,210.835 501.859,210.393 
			499.924,209.951 499.16,209.791 497.09,209.308 496.143,209.019 494.072,208.535 492.496,208.128 491.955,207.963 488.62,207.02 
			488.35,206.938 488.215,206.896 484.88,205.953 484.609,205.871 482.939,205.287 482.533,205.163 480.769,204.404 
			480.451,204.233 479.816,203.891 477.817,202.69 476.682,202.048 474.859,200.753 474.083,200.147 473.307,199.54 
			471.473,197.798 470.644,196.88 469.58,195.52 468.381,194.12 468.152,193.902 467.176,192.495 465.924,190.783 465.043,189.553 
			463.873,187.57 463.08,186.293 461.817,184.133 461.106,182.586 460.53,181.079 460.055,179.973 459.72,179.132 459.52,178.332 
			458.986,176.69 458.493,174.914 458.446,174.825 458.541,173.302 458.642,172.002 458.707,171.061 458.943,169.802 
			459.391,168.091 460.069,166.597 461.093,164.692 461.523,164.009 461.782,163.645 463.825,161.311 464.649,160.306 
			464.867,160.076 465.084,159.847 467.839,157.36 468.71,156.443 471.117,154.368 471.205,154.321 471.294,154.274 
			473.883,152.329 474.766,151.859 477.149,150.59 477.943,150.167 478.608,149.926 481.626,148.998 483.315,148.552 
			486.562,147.842 487.409,147.731 489.592,147.362 490.574,147.292 491.286,147.139 493.786,146.941 494.681,146.918 
			497.492,146.667 498.251,146.602 498.475,146.597 501.381,146.522 502.587,146.446 504.734,146.436 506.699,146.296 
			508.399,146.297 511.034,146.14 511.84,146.164 512.734,146.141 514.61,146.048 515.64,146.066 516.94,146.167 518.416,146.174 
			521.104,146.328 522.893,146.282 524.64,146.371 528.263,146.368 528.487,146.362 528.622,146.403 528.846,146.398 
			532.381,146.441 533.681,146.542 535.428,146.631 537.222,146.809 540.139,147.181 540.498,147.216 541.08,147.246 
			543.868,147.801 545.397,148.119 547.156,148.656 548.326,148.939 550.99,149.899 551.126,149.941 551.443,150.111 
			554.025,151.342 555.383,151.978 557.7,153.35 559.929,154.769 561.657,155.888 564.615,157.825 565.297,158.255 565.709,158.602 
			566.303,159.079 568.766,160.939 569.407,161.505 569.954,161.893 570.683,162.411 572.464,163.842 573.152,164.495 
			573.564,164.842 574.064,165.143 576.262,167.144 576.674,167.491 576.809,167.533 579.56,170.146 579.837,170.452 581.947,172.5 
			584.287,174.767 584.516,174.984 586.127,176.732 587.461,178.174 587.644,178.304 587.738,178.48 588.061,178.875 
			590.042,181.105 590.877,182.247 592.352,183.954 592.675,184.348 592.863,184.701 594.215,186.814 594.638,187.608 
			594.967,188.226 596.095,190.344 596.706,191.492 597.035,192.11 598.445,194.758 599.568,196.652 600.649,198.682 
			601.719,200.265 603.07,202.378 603.493,203.172 603.864,203.655 604.657,204.932 605.121,205.591 605.915,206.868 
			606.89,208.274 607.449,209.11 608.612,210.87 608.706,211.046 608.935,211.264 610.058,213.159 610.71,214.171 611.504,215.448 
			612.256,216.86 612.955,217.961 		">
		</polygon>
	</g>
</g>
<g id="Layer_1">
</g>
</svg>
