<?xml version="1.0" encoding="iso-8859-1"?>
<!-- Generator: Adobe Illustrator 19.2.1, SVG Export Plug-In . SVG Version: 6.00 Build 0)  -->
<svg version="1.1" xmlns="http://www.w3.org/2000/svg" xmlns:xlink="http://www.w3.org/1999/xlink" x="0px" y="0px"
	 viewBox="0 0 841.89 595.28" style="enable-background:new 0 0 841.89 595.28;" xml:space="preserve">
<g id="layer229">
	<g id="layer229_1_" slic3r:z="9.18000000000008e-005">
		<polygon slic3r:type="contour" style="fill:#FFFFFF;stroke:#000000;stroke-miterlimit:10;" points="764.673,208.2 
			764.678,208.423 765.165,211.677 765.17,211.9 765.188,212.571 765.168,215.3 765.139,215.883 765.073,216.824 764.783,219.471 
			764.63,220.459 764.429,221.359 763.957,223.876 763.792,224.417 763.539,225.005 762.956,226.675 762.278,228.169 
			761.984,228.892 761.224,230.657 760.929,231.38 760.847,231.651 759.433,234.103 758.962,234.92 757.031,238.101 
			756.948,238.372 756.736,238.825 754.923,241.376 753.592,243.558 753.333,243.922 752.903,244.605 751.649,246.292 
			751.002,247.203 749.83,248.62 748.053,250.813 747.876,250.907 747.181,251.73 745.351,253.612 745.18,253.929 744.915,254.07 
			743.738,255.264 742.255,256.733 741.996,257.098 739.989,259.073 739.506,259.443 738.894,259.996 736.446,262.206 
			735.875,262.624 733.115,264.887 733.115,264.887 733.115,264.887 729.949,267.026 728.501,268.137 727.706,268.56 
			725.682,269.864 725.329,270.052 725.153,270.146 721.575,271.938 721.31,272.079 720.957,272.267 717.109,273.977 
			716.756,274.165 714.85,274.84 712.679,275.657 712.014,275.897 708.549,276.836 706.148,277.435 704.86,277.781 703.124,278.139 
			701.036,278.685 699.124,279.137 697.165,279.5 695.076,280.046 692.811,280.686 691.299,281.038 688.328,282.053 686.11,282.782 
			684.203,283.457 681.456,284.467 680.173,285.037 677.207,286.276 676.678,286.558 675.219,287.222 673.759,287.886 
			673.006,288.174 670.664,289.307 667.352,290.958 667.352,290.958 667.263,291.005 664.086,292.698 661.838,294.008 
			660.867,294.525 659.502,295.365 658.354,295.976 657.737,296.305 656.107,297.287 655.136,297.804 652.711,299.208 
			652.005,299.584 650.157,300.795 648.657,301.594 648.263,301.917 645.62,303.551 645.444,303.645 645.444,303.645 
			642.755,305.19 642.402,305.378 641.696,305.754 639.006,307.3 636.8,308.475 635.564,309.133 633.846,310.161 633.228,310.491 
			632.522,310.867 630.886,311.624 630.003,312.094 627.662,313.228 625.232,314.409 623.508,315.214 621.654,316.201 
			619.177,317.294 618.071,317.77 614.487,319.338 614.399,319.385 614.134,319.526 610.504,321.006 609.486,321.435 
			606.297,322.68 604.438,323.444 602.531,324.119 600.407,325.023 599.166,325.458 598.06,325.934 597.13,326.316 594.559,327.232 
			594.206,327.42 590.882,328.624 590.793,328.671 590.529,328.812 586.893,330.068 585.475,330.597 582.462,331.748 
			580.291,332.564 578.073,333.292 575.278,334.214 573.86,334.743 570.13,335.823 569.554,336.016 566.712,336.85 565.335,337.243 
			565.023,337.296 560.623,338.393 560.223,338.493 559.823,338.593 556.352,339.308 555.104,339.519 552.522,339.988 
			551.586,340.147 549.092,340.569 548.557,340.627 548.468,340.674 545.927,341.008 544.009,341.236 543.698,341.289 
			543.162,341.347 541.109,341.534 540.485,341.64 538.256,341.921 536.562,342.143 535.626,342.302 533.308,342.63 
			532.461,342.741 532.15,342.794 530.455,343.016 528.226,343.297 527.69,343.356 524.031,343.718 523.049,343.788 
			520.549,343.987 520.414,343.945 520.414,343.945 518.178,344.003 517.372,343.979 515.402,343.895 513.343,343.859 
			511.461,343.728 509.308,343.515 507.337,343.432 506.62,343.361 503.126,343.182 503.126,343.182 503.126,343.182 
			498.867,342.844 498.014,342.732 496.538,342.725 494.52,342.553 492.279,342.387 490.444,342.345 486.591,342.131 
			486.232,342.095 484.038,342.017 482.244,341.84 482.109,341.799 481.885,341.804 478.344,341.537 476.686,341.401 
			474.58,341.276 472.698,341.146 469.609,341.091 469.115,341.014 468.533,340.984 465.668,340.924 462.71,340.687 
			461.904,340.663 461.321,340.633 460.469,340.521 457.91,340.184 457.057,340.072 456.292,339.912 453.91,339.481 
			452.334,339.075 449.323,338.526 449.052,338.443 448.064,338.29 445.635,337.77 444.917,337.699 443.747,337.416 
			441.947,337.015 439.836,336.667 439.159,336.461 436.418,335.994 435.701,335.923 435.565,335.882 435.118,335.893 
			432.919,335.592 431.93,335.439 430.63,335.338 429.778,335.225 428.566,335.078 426.413,334.865 425.472,334.799 
			424.801,334.817 420.984,334.244 420.672,334.296 420.314,334.261 417.396,333.889 416.278,333.917 413.908,333.933 
			411.984,333.938 411.002,334.008 408.949,334.195 408.861,334.242 407.031,334.423 405.072,334.787 403.695,335.18 
			401.471,335.685 400.183,336.031 398.583,336.43 397.253,336.912 395.123,337.593 393.258,338.133 390.999,338.996 
			389.404,339.619 386.792,340.67 386.039,340.958 384.491,341.669 382.985,342.244 381.926,342.808 381.085,343.143 
			379.843,343.577 379.178,343.818 377.719,344.482 376.083,345.24 375.154,345.622 373.165,346.568 372.9,346.709 372.059,347.043 
			371.176,347.513 370.911,347.654 368.881,348.735 365.309,350.751 365.221,350.798 365.221,350.798 365.133,350.845 
			361.249,352.913 359.972,353.707 357.413,355.07 356.842,355.487 355.076,356.427 354.282,356.85 353.929,357.038 
			351.858,358.255 349.122,359.712 348.945,359.806 348.462,360.176 346.256,361.351 344.891,362.191 343.614,362.985 
			342.207,363.96 341.195,364.613 340.495,365.212 339.006,366.458 336.075,369.039 336.075,369.039 336.075,369.039 
			336.075,369.039 333.279,371.661 332.32,372.625 331.578,373.36 329.918,374.924 328.653,376.164 326.952,377.863 326.21,378.598 
			325.468,379.333 324.468,380.432 323.161,381.808 322.943,382.037 322.902,382.172 321.513,383.818 320.559,385.006 
			319.864,385.829 318.699,387.47 317.88,388.699 315.772,391.974 314.954,393.203 314.783,393.52 314.524,393.885 312.204,397.613 
			311.692,398.565 310.449,400.7 309.761,401.747 309.507,402.335 308.224,404.604 307.069,406.692 306.64,407.374 305.485,409.462 
			303.772,412.414 302.235,415.271 301.805,415.953 301.163,417.088 300.733,417.77 300.433,418.27 298.931,420.769 
			298.072,422.134 297.689,422.904 296.7,424.45 296.099,425.45 295.928,425.768 294.862,427.808 294.438,428.714 293.761,430.207 
			292.96,432.107 292.795,432.648 292.247,433.959 291.782,435 291.658,435.406 291.528,435.588 290.727,437.488 289.879,439.299 
			289.372,440.475 288.907,441.516 288.436,442.334 287.712,443.739 287.24,444.556 286.858,445.327 286.905,445.415 
			285.745,447.279 284.284,449.643 284.114,449.96 283.813,450.46 283.295,451.189 282.389,452.465 281.658,453.647 281.14,454.376 
			280.187,455.564 278.938,457.475 278.721,457.704 278.503,457.933 278.073,458.616 276.554,460.444 274.782,462.861 
			274.653,463.043 274.611,463.178 272.787,465.283 271.486,466.882 270.226,468.346 270.096,468.528 270.055,468.664 
			269.708,469.075 268.013,470.998 267.1,472.05 265.929,473.467 265.364,474.108 264.581,474.978 263.186,476.401 261.626,478.364 
			261.061,479.005 260.407,479.693 257.535,482.809 257.494,482.944 257.405,482.991 257.276,483.173 257.146,483.356 
			255.098,485.466 253.879,486.795 252.961,487.624 251.478,489.093 250.519,490.058 250.083,490.516 249.253,491.298 
			248.818,491.757 247.376,493.091 246.151,494.196 245.275,494.89 244.574,495.489 241.896,497.482 241.632,497.623 
			239.125,499.298 238.33,499.721 238.289,499.856 238.201,499.903 234.982,501.73 233.129,502.718 231.981,503.329 
			229.857,504.233 228.751,504.709 226.539,505.661 224.456,506.43 222.814,506.964 221.131,507.634 219.802,508.115 
			217.895,508.791 217.319,508.984 216.03,509.331 215.142,509.577 214.165,509.871 212.565,510.27 211.542,510.475 209.718,510.88 
			207.006,511.531 206.694,511.584 206.294,511.684 203.488,512.158 201.664,512.563 200.193,512.78 198.322,513.096 
			197.475,513.208 196.852,513.313 194.845,513.588 193.551,513.711 191.945,513.887 189.98,514.027 188.239,514.161 
			185.651,514.406 184.804,514.518 183.998,514.494 181.986,514.545 180.957,514.527 179.527,514.608 177.827,514.607 
			175.545,514.577 173.486,514.54 171.698,514.586 169.727,514.503 168.563,514.443 166.816,514.354 164.71,514.229 164.263,514.24 
			161.169,513.962 160.586,513.932 156.91,513.624 156.463,513.636 155.834,513.518 153.769,513.258 151.84,513.039 
			151.569,512.956 148.334,512.413 148.023,512.466 147.752,512.383 144.335,511.711 143.929,511.587 141.229,510.985 
			139.565,510.625 138.077,510.171 136.23,509.682 135.736,509.605 135.419,509.435 132.666,508.521 129.961,507.696 
			129.014,507.407 127.973,506.942 126.121,506.229 124.856,505.769 123.768,505.216 122.092,504.409 121.322,504.026 
			120.869,503.814 119.052,502.742 118.052,502.142 116.465,501.288 115.736,500.77 115.007,500.252 112.913,498.874 
			110.403,496.925 109.491,496.278 106.657,493.935 104.829,492.416 104.417,492.069 104.047,491.586 100.426,488.19 
			99.738,487.536 99.509,487.319 96.569,484.352 94.594,482.345 93.447,481.256 90.508,478.29 89.544,477.33 86.834,474.581 
			85.094,473.016 82.431,470.355 80.596,468.613 78.986,466.865 78.022,465.905 77.375,465.117 77.14,464.676 76.305,463.534 
			76.07,463.093 74.331,459.827 74.184,459.338 72.81,456.332 72.569,455.667 71.988,453.937 71.683,452.513 71.342,451.448 
			70.826,448.778 70.709,447.707 70.334,445.301 70.164,443.918 70.183,442.889 69.967,439.718 69.881,436.365 69.899,435.336 
			69.894,433.412 69.925,431.13 69.979,429.742 69.992,426.789 70.165,423.071 70.242,422.577 70.26,421.548 70.533,418.23 
			70.763,416.748 71.136,413.831 71.731,410.908 72.003,409.29 72.445,407.355 72.687,406.32 72.97,405.149 73.383,403.797 
			73.548,403.256 74.291,400.821 74.615,399.515 75.069,398.027 75.699,396.445 76.365,394.504 77.119,392.517 77.791,390.799 
			78.721,388.718 79.104,387.947 80.07,385.507 80.112,385.371 81.478,382.831 82.12,381.696 82.974,380.109 83.486,379.156 
			84.941,376.569 86.23,374.522 87.167,372.664 88.586,370.435 88.668,370.165 89.828,368.301 90.952,366.796 91.165,366.343 
			92.024,364.979 92.76,364.02 93.667,362.744 94.832,361.104 95.61,360.01 96.604,358.687 98.206,356.588 98.683,355.995 
			99.289,355.218 100.201,354.166 100.896,353.343 101.761,352.202 102.415,351.514 104.069,349.727 104.157,349.68 
			105.634,347.987 106.288,347.299 108.471,345.23 108.689,345.001 109.037,344.589 111.355,342.561 112.227,341.644 
			113.71,340.174 113.886,340.08 114.016,339.898 115.505,338.652 116.164,338.188 118.224,336.524 118.748,336.018 
			119.713,335.278 121.514,333.979 122.302,333.332 124.28,331.94 125.156,331.246 125.727,330.829 126.869,329.994 
			127.834,329.253 129.064,328.372 130.559,327.349 131.659,326.65 132.977,325.721 133.548,325.304 135.79,323.77 135.967,323.676 
			136.232,323.535 139.003,321.719 140.322,320.79 140.586,320.649 141.993,319.674 144.37,318.181 144.941,317.764 
			145.559,317.435 147.848,315.989 149.384,314.831 149.472,314.784 149.649,314.69 151.497,313.48 152.291,313.057 
			153.698,312.081 154.051,311.893 155.592,310.959 156.605,310.306 157.44,309.748 158.452,309.096 160.741,307.65 
			161.094,307.462 161.359,307.321 163.207,306.11 164.614,305.135 165.096,304.764 166.197,304.065 167.521,303.36 
			168.091,302.943 169.763,301.826 171.834,300.61 172.581,300.098 172.846,299.957 173.287,299.722 176.059,297.906 
			176.453,297.583 176.895,297.348 178.213,296.419 179.402,295.673 179.796,295.35 181.514,294.321 182.791,293.528 
			184.068,292.735 185.08,292.082 187.016,290.825 188.246,289.943 190.312,288.503 190.665,288.315 192.378,287.063 
			193.696,286.135 195.279,285.065 196.203,284.46 198.398,282.838 198.574,282.744 198.969,282.42 201.434,280.881 
			202.223,280.234 204.112,278.888 204.418,278.612 206.395,277.219 206.572,277.125 208.59,275.597 210.22,274.615 
			211.056,274.057 212.374,273.128 213.298,272.523 214.045,272.012 215.358,270.86 216.541,269.89 217.906,269.049 
			218.913,268.174 220.007,267.251 222.161,265.764 222.426,265.623 222.467,265.488 224.88,263.636 225.274,263.313 
			227.205,261.832 228.081,261.138 230.671,259.193 230.889,258.963 230.977,258.916 231.195,258.687 233.431,256.929 
			234.002,256.512 234.838,255.954 236.374,254.796 238.916,252.762 239.004,252.715 239.093,252.668 239.399,252.392 
			241.988,250.446 242.382,250.123 243.13,249.612 244.754,248.407 247.514,246.144 247.514,246.144 247.514,246.144 
			247.602,246.097 250.186,243.928 250.798,243.375 251.94,242.541 253.123,241.571 255.094,239.954 255.842,239.443 
			255.971,239.261 256.413,239.026 258.208,237.503 259.173,236.763 260.444,235.746 261.674,234.864 263.604,233.383 
			264.175,232.966 264.263,232.919 264.481,232.69 266.894,230.838 267.859,230.097 269.089,229.216 270.319,228.334 
			272.338,226.806 272.644,226.53 272.732,226.483 272.82,226.436 274.839,224.908 275.192,224.72 276.287,223.797 277.781,222.774 
			278.835,221.987 281.03,220.364 281.424,220.041 281.512,219.994 283.048,218.836 283.578,218.554 284.631,217.767 
			286.167,216.609 287.574,215.633 289.81,213.876 290.293,213.505 291.523,212.624 292.005,212.253 293.412,211.278 
			294.201,210.631 294.86,210.167 295.913,209.379 298.985,207.064 298.985,207.064 299.115,206.881 300.215,206.182 
			300.521,205.906 300.786,205.765 302.763,204.372 303.51,203.86 304.346,203.302 305.182,202.744 305.447,202.603 
			307.995,200.793 308.566,200.375 309.754,199.629 311.867,198.277 312.614,197.766 312.832,197.537 314.639,196.461 
			316.004,195.621 317.104,194.922 317.322,194.692 318.293,194.175 318.558,194.034 321.418,192.171 321.547,191.989 
			321.635,191.942 321.635,191.942 325.555,189.515 325.731,189.421 326.743,188.769 327.185,188.534 327.844,188.069 
			329.209,187.229 329.78,186.812 331.41,185.83 331.851,185.595 333.569,184.567 334.052,184.197 334.317,184.056 334.581,183.915 
			336.211,182.933 338.283,181.717 340.878,179.995 342.243,179.155 342.596,178.967 345.409,177.015 345.497,176.968 
			345.586,176.921 346.774,176.175 347.61,175.617 349.017,174.641 350.205,173.895 351.041,173.336 352.053,172.684 
			354.778,170.78 355.26,170.41 356.096,169.851 358.297,168.453 359.262,167.712 359.527,167.571 361.681,166.084 363.746,164.644 
			363.834,164.597 364.847,163.945 366.559,162.693 367.571,162.041 368.054,161.67 368.319,161.529 368.407,161.482 
			369.154,160.971 372.315,158.608 372.797,158.238 373.986,157.492 376.046,155.828 376.528,155.458 377.011,155.087 
			377.187,154.993 379.512,153.189 380.783,152.172 380.871,152.125 381.442,151.708 382.584,150.873 384.644,149.21 
			385.038,148.886 385.697,148.422 388.069,146.706 389.34,145.689 389.517,145.595 390.04,145.09 393.554,142.539 393.554,142.539 
			393.642,142.492 394.431,141.845 396.714,140.176 397.856,139.341 398.073,139.112 398.821,138.601 402.064,135.967 
			402.064,135.967 402.152,135.92 403.029,135.227 405.265,133.469 406.36,132.546 406.578,132.317 407.237,131.853 
			410.574,129.396 410.615,129.261 410.791,129.167 411.627,128.609 413.91,126.939 414.922,126.287 415.229,126.011 
			416.064,125.452 416.635,125.035 419.142,123.36 420.637,122.338 420.637,122.338 420.637,122.338 423.367,120.657 
			425.48,119.305 426.933,118.418 427.592,117.954 428.298,117.577 430.193,116.455 431.87,115.562 433.765,114.44 434.648,113.97 
			435.089,113.735 436.148,113.171 437.207,112.606 439.808,111.108 440.073,110.967 440.338,110.826 441.397,110.262 
			444.533,108.705 445.239,108.329 445.769,108.047 448.776,106.672 450.458,106.003 452.847,104.957 453.024,104.863 
			453.289,104.722 455.413,103.818 455.724,103.765 457.319,103.142 457.984,102.901 460.243,102.038 461.22,101.745 
			462.149,101.363 463.391,100.928 465.432,100.294 467.786,99.607 469.027,99.173 470.004,98.879 472.846,98.046 473.999,97.658 
			476.176,97.065 477.952,96.572 478.929,96.279 479.864,96.121 482.088,95.616 483.424,95.358 486.006,94.889 487.03,94.684 
			489.348,94.356 490.018,94.339 493.095,93.946 493.407,93.894 493.454,93.982 496.978,93.578 497.289,93.525 500.548,93.263 
			500.86,93.21 501.307,93.198 503.36,93.011 504.431,92.894 506.437,92.619 508.402,92.479 511.702,92.081 512.326,91.976 
			513.085,91.911 515.449,91.672 516.832,91.502 517.367,91.443 518.973,91.268 521.92,91.058 522.009,91.011 522.097,90.964 
			522.32,90.958 525.268,90.748 526.515,90.537 527.185,90.52 528.48,90.397 529.103,90.292 530.844,90.158 531.915,90.041 
			533.162,89.83 534.721,89.566 535.345,89.46 538.104,88.897 539.039,88.739 541.128,88.193 541.752,88.088 543.528,87.595 
			544.682,87.207 547.247,86.068 547.6,85.88 548.441,85.545 550.342,84.646 550.783,84.411 552.372,83.565 553.343,83.048 
			553.784,82.813 555.596,81.961 556.962,81.121 558.021,80.556 560.275,79.47 561.069,79.047 562.611,78.112 563.493,77.642 
			563.935,77.407 565.976,76.773 567.877,75.874 569.471,75.252 571.778,74.477 572.001,74.471 572.225,74.465 574.377,74.678 
			575.595,75.05 577.083,75.503 578.124,75.969 579.165,76.434 581.658,77.712 581.84,77.842 582.023,77.971 584.839,79.643 
			586.744,80.668 588.15,81.392 589.514,82.252 590.696,82.982 592.56,84.142 593.795,85.184 595.982,86.738 596.987,87.563 
			598.31,88.557 600.18,89.941 603.044,91.702 603.72,91.908 605.972,92.521 606.602,92.639 606.737,92.68 608.572,92.723 
			609.731,92.559 611.42,92.112 612.614,91.59 613.673,91.026 613.938,90.885 614.997,90.321 616.404,89.345 617.328,88.74 
			618.075,88.228 619.741,86.888 620.576,86.33 621.983,85.354 623.43,84.243 623.825,83.92 625.72,82.798 626.161,82.563 
			626.602,82.328 629.926,81.124 629.926,81.124 630.015,81.077 630.103,81.03 632.603,80.831 633.638,81.073 634.226,81.326 
			635.408,82.057 636.855,82.646 638.631,83.853 639.907,84.759 640.953,85.448 642.188,86.49 643.058,87.273 645.292,88.915 
			645.428,88.957 647.485,90.693 649.584,92.295 649.72,92.336 651.913,94.114 653.053,94.979 653.97,95.85 655.252,96.98 
			655.94,97.634 656.951,98.681 659.332,100.812 659.332,100.812 659.332,100.812 661.354,102.908 662.642,104.261 663.471,105.179 
			663.976,105.703 665.499,107.498 665.822,107.893 667.174,110.005 667.826,111.017 668.008,111.147 668.243,111.588 
			669.389,114.377 669.577,114.73 669.893,116.601 669.828,117.542 669.256,119.659 669.044,120.112 668.438,120.888 
			667.36,122.482 666.972,123.029 665.259,124.281 665.13,124.463 663.452,125.356 662.258,125.879 661.017,126.313 
			659.863,126.701 658.351,127.053 657.063,127.399 656.216,127.51 655.769,127.522 654.833,127.68 652.869,127.82 651.886,127.89 
			650.545,127.925 650.098,127.936 649.069,127.918 648.575,127.841 647.004,127.658 646.557,127.669 646.422,127.628 
			645.839,127.598 643.775,127.338 643.057,127.267 640.769,127.013 639.604,126.953 638.575,126.935 637.634,126.87 
			636.34,126.992 635.846,126.916 635.175,126.933 634.328,127.044 633.304,127.249 633.081,127.255 632.992,127.302 
			631.886,127.778 631.098,128.424 629.597,129.224 628.809,129.87 627.59,131.199 626.843,131.71 626.407,132.169 625.112,133.991 
			624.635,134.585 624.005,136.167 623.881,136.573 623.745,138.232 624.038,139.208 624.302,140.767 625.001,141.868 
			625.466,142.527 626.159,143.404 626.435,143.71 627.353,144.581 628.317,145.54 628.681,145.799 631.433,148.413 
			631.662,148.631 633.725,150.591 634.825,151.591 634.872,151.68 634.919,151.768 635.377,152.204 637.811,154.646 
			638.27,155.082 640.891,157.878 641.168,158.184 643.337,160.767 643.337,160.767 645.135,162.868 645.923,163.922 
			647.681,166.158 648.051,166.641 648.145,166.817 648.515,167.3 650.043,169.318 650.972,170.637 651.859,172.09 652.23,172.573 
			653.393,174.332 653.717,174.726 654.234,175.697 655.35,177.369 656.097,178.557 657.031,180.099 658.576,182.788 
			658.759,182.918 658.806,183.006 660.216,185.654 660.263,185.742 661.579,188.214 663.189,191.662 663.283,191.838 
			663.33,191.926 663.518,192.28 664.757,195.245 665.432,197.151 666.014,198.881 666.207,199.458 666.454,200.346 
			667.188,202.788 667.487,203.988 667.686,204.788 667.939,205.9 668.344,207.724 668.696,209.236 668.854,210.171 
			669.311,212.307 669.27,212.442 669.528,213.777 669.775,214.666 669.986,215.913 670.279,216.89 670.52,217.554 670.96,219.019 
			671.201,219.684 671.53,220.302 672.288,221.938 673.393,223.162 673.852,223.598 674.581,224.116 675.721,224.981 
			676.309,225.234 678.691,225.665 679.809,225.637 681.592,225.367 682.968,224.974 683.28,224.921 685.004,224.116 
			685.269,223.975 685.534,223.834 685.975,223.599 687.34,222.759 688.135,222.336 689.235,221.636 690.818,220.567 
			691.96,219.732 692.837,219.039 694.331,218.016 696.35,216.488 696.615,216.347 696.791,216.253 697.362,215.835 
			699.516,214.348 700.046,214.066 701.323,213.273 702.07,212.762 703.523,211.874 703.7,211.78 704.936,211.122 705.818,210.652 
			707.054,209.994 708.248,209.471 709.09,209.137 710.331,208.702 711.084,208.414 714.32,207.258 715.209,207.011 718.139,206.13 
			719.074,205.972 721.074,205.473 722.633,205.21 723.257,205.104 724.192,204.946 726.51,204.618 728.204,204.395 
			730.657,204.109 731.105,204.097 731.416,204.044 733.516,203.946 734.14,203.84 735.705,203.8 736.911,203.724 738.34,203.643 
			739.634,203.52 740.305,203.503 741.823,203.374 743.652,203.193 743.652,203.193 743.699,203.281 746.064,203.042 
			747.135,202.925 748.47,202.667 749.406,202.508 749.941,202.45 751.012,202.333 751.947,202.175 753.018,202.058 
			754.676,202.194 756.418,202.06 758.57,202.273 759.382,202.52 761.693,203.669 761.74,203.757 763.169,205.375 764.532,207.935 
			764.626,208.112 		">
		</polygon>
	</g>
</g>
<g id="Layer_1">
</g>
</svg>
