<?xml version="1.0" encoding="iso-8859-1"?>
<!-- Generator: Adobe Illustrator 19.2.1, SVG Export Plug-In . SVG Version: 6.00 Build 0)  -->
<svg version="1.1" xmlns="http://www.w3.org/2000/svg" xmlns:xlink="http://www.w3.org/1999/xlink" x="0px" y="0px"
	 viewBox="0 0 841.89 595.28" style="enable-background:new 0 0 841.89 595.28;" xml:space="preserve">
<g id="layer192">
	<g id="layer192_1_" slic3r:z="7.70000000000006e-005">
		<polygon slic3r:type="contour" style="fill:#FFFFFF;stroke:#000000;stroke-miterlimit:10;" points="181.773,419.263 
			182.014,419.928 182.49,421.034 183.013,422.228 183.259,423.117 183.611,424.629 184.227,427.7 184.233,427.923 184.239,428.147 
			184.642,431.67 184.712,432.653 184.387,435.658 184.275,436.511 184.08,437.635 183.685,439.658 183.095,441.105 
			182.883,441.558 181.859,443.463 180.658,445.462 180.016,446.597 179.115,448.096 177.949,449.737 175.948,451.936 
			175.859,451.983 173.758,453.781 172.128,454.763 170.228,455.662 168.981,455.873 167.592,455.819 166.069,455.724 
			164.769,455.623 161.316,455.309 161.046,455.227 160.91,455.185 158.135,453.378 157.682,453.166 155.818,452.006 
			155.318,451.706 153.725,450.628 151.167,448.591 149.75,447.42 147.416,445.377 146.729,444.724 144.618,442.675 
			143.613,441.851 143.472,441.587 142.231,440.321 141.726,439.797 140.803,438.703 139.327,436.996 137.476,434.583 
			136.918,433.747 135.76,432.211 135.102,430.976 134.25,429.163 133.921,428.545 133.774,428.057 133.152,424.763 
			133.094,424.227 133.212,423.598 133.725,420.945 134.061,420.087 134.609,418.775 134.862,418.187 136.37,415.912 
			137.147,414.818 138.236,413.672 139.195,412.707 140.678,411.238 142.126,410.127 143.968,408.693 145.022,407.905 
			146.034,407.253 148.411,405.76 151.365,404.074 151.542,403.98 151.63,403.933 151.942,403.88 155.136,402.858 156.384,402.647 
			158.301,402.419 159.778,402.426 161.936,402.862 163.866,403.081 165.536,403.665 167.794,404.501 170.564,406.085 
			171.658,406.862 174.221,409.123 175.596,410.43 177.583,412.884 178.829,414.373 179.482,415.385 180.04,416.221 
			180.828,417.274 		">
		</polygon>
		<polygon slic3r:type="contour" style="fill:#FFFFFF;stroke:#000000;stroke-miterlimit:10;" points="604.592,225.02 
			605.35,226.656 606.196,228.245 606.854,229.48 607.612,231.116 608.152,232.981 608.733,234.711 609.167,235.952 
			609.708,237.817 610.389,239.947 610.629,240.612 610.776,241.1 611.21,244.042 611.679,246.624 611.854,248.23 612.581,252.149 
			612.54,252.284 612.587,252.372 612.991,255.896 613.295,259.02 613.259,259.378 613.341,260.808 613.387,262.596 613.38,264.073 
			613.202,265.867 613.214,266.314 612.553,270.178 612.553,270.178 612.553,270.178 611.474,273.471 611.268,274.148 
			610.331,276.006 609.648,277.276 608.612,278.734 607.747,279.875 606.104,282.109 605.716,282.656 604.321,284.079 
			603.626,284.902 602.402,286.007 601.39,286.659 600.295,287.582 598.676,289.011 598.111,289.651 597.058,290.439 
			596.352,290.815 594.063,292.261 593.798,292.402 593.492,292.678 591.156,294.035 589.702,294.923 589.437,295.064 
			587.625,295.916 587.313,295.968 586.472,296.303 584.477,297.026 583.459,297.454 581.683,297.947 579.506,298.54 
			579.194,298.593 578.929,298.734 576.658,299.15 575.9,299.214 574.605,299.337 571.482,299.641 571.035,299.653 570.899,299.611 
			570.676,299.617 569.199,299.61 566.552,299.321 566.105,299.332 562.335,298.847 561.482,298.735 560.406,298.629 
			557.083,298.132 555.377,297.908 554.295,297.578 552.183,297.229 549.837,296.44 549.295,296.275 548.978,296.104 
			546.267,295.055 543.638,293.736 543.638,293.736 543.591,293.648 541.081,291.699 539.617,290.439 537.453,288.079 
			536.713,287.114 536.149,286.055 535.344,284.331 534.898,282.642 534.64,281.307 534.624,278.936 534.618,278.713 
			534.659,278.578 535.096,276.419 535.585,274.572 536.251,272.631 537.305,270.144 537.647,269.509 538.454,267.833 
			539.608,265.745 539.95,265.11 540.98,263.428 542.228,261.517 542.57,260.882 543.953,259.013 544.389,258.554 544.648,258.19 
			545.902,256.502 546.467,255.861 547.421,254.674 547.768,254.262 548.504,253.304 549.717,251.751 550.67,250.564 
			551.795,249.059 552.961,247.418 554.674,244.466 554.892,244.237 554.933,244.102 555.31,243.108 556.282,240.891 
			556.318,240.532 556.961,237.697 557.026,236.756 556.95,235.55 556.793,232.915 556.588,231.891 556.2,230.738 555.754,229.049 
			555.131,227.455 554.644,225.901 553.428,223.83 552.634,222.553 550.595,219.787 550.131,219.128 549.901,218.91 
			546.774,215.591 546.545,215.373 546.545,215.373 546.545,215.373 543.388,212.636 542.247,211.77 540.742,210.646 
			539.107,209.704 538.56,209.315 537.014,208.326 534.838,207.219 533.432,206.494 529.68,204.98 528.734,204.692 526.022,203.643 
			524.217,203.018 522.682,202.476 520.606,201.769 518.889,201.097 517.489,200.597 514.913,199.589 512.161,198.676 
			510.267,198.098 508.103,197.438 506.027,196.731 503.862,196.071 502.28,195.44 501.286,195.063 499.022,194.003 
			497.935,193.449 496.664,192.766 493.93,190.823 492.425,189.699 489.897,187.08 489.209,186.426 487.957,184.714 
			486.935,183.219 486.506,182.201 485.936,180.918 485.626,179.271 485.456,177.889 485.969,175.236 486.17,174.336 
			486.688,173.607 487.777,172.461 488.683,171.185 489.866,170.215 491.849,169.046 492.508,168.581 494.009,167.782 
			495.38,167.165 495.821,166.93 498.169,166.02 498.345,165.926 498.434,165.879 500.381,165.068 502.464,164.299 503.441,164.006 
			506.5,162.943 507.253,162.655 511.466,161.205 511.554,161.158 511.642,161.111 515.767,159.707 516.255,159.56 518.473,158.832 
			519.05,158.639 520.874,158.234 521.362,158.087 521.362,158.087 524.168,157.612 525.239,157.495 528.445,156.921 
			529.204,156.857 532.592,156.412 532.816,156.406 536.075,156.143 536.21,156.184 537.24,156.203 538.763,156.298 
			539.481,156.369 540.922,156.734 541.957,156.976 543.668,157.424 544.209,157.589 544.933,157.884 547.014,158.814 
			548.285,159.498 549.784,160.399 551.013,161.217 552.695,162.247 553.653,162.983 555.111,164.019 555.934,164.714 
			557.034,165.715 557.998,166.674 558.78,167.504 560.026,168.993 560.349,169.387 562.559,171.836 562.606,171.924 
			562.789,172.053 564.364,174.16 564.693,174.778 565.157,175.437 566.309,176.75 566.915,177.674 567.885,178.857 
			569.048,180.616 569.789,181.581 571.323,183.823 573.404,186.454 573.915,187.201 575.167,188.914 576.607,190.98 
			577.159,191.592 578.217,192.728 579.604,194.481 581.509,197.206 581.697,197.559 581.744,197.647 584.418,200.755 
			585.294,201.761 586.499,203.386 587.463,204.345 589.709,206.435 590.267,207.27 590.773,207.794 593.348,210.502 
			594.088,211.467 596.622,214.309 597.133,215.057 599.349,217.729 600.225,218.735 600.366,219 600.642,219.306 601.471,220.224 
			602.623,221.537 603.422,223.037 603.887,223.696 		">
		</polygon>
	</g>
</g>
<g id="Layer_1">
</g>
</svg>
