<?xml version="1.0" encoding="iso-8859-1"?>
<!-- Generator: Adobe Illustrator 19.2.1, SVG Export Plug-In . SVG Version: 6.00 Build 0)  -->
<svg version="1.1" xmlns="http://www.w3.org/2000/svg" xmlns:xlink="http://www.w3.org/1999/xlink" x="0px" y="0px"
	 viewBox="0 0 841.89 595.28" style="enable-background:new 0 0 841.89 595.28;" xml:space="preserve">
<g id="layer198">
	<g id="layer198_1_" slic3r:z="7.94000000000006e-005">
		<polygon slic3r:type="contour" style="fill:#FFFFFF;stroke:#000000;stroke-miterlimit:10;" points="215.743,372.848 
			217.018,375.455 218.451,378.997 218.545,379.173 218.639,379.35 219.984,382.939 220.806,385.334 221.005,386.134 
			222.262,389.77 222.403,390.035 223.131,392.253 224,394.736 224.141,395 224.247,395.624 225.456,399.172 226.525,402.455 
			226.525,402.455 226.525,402.455 227.329,405.879 227.504,407.485 227.862,409.22 228.079,410.691 228.266,412.744 
			228.306,414.309 228.299,415.785 227.957,418.12 227.732,419.826 227.295,421.985 226.9,424.008 225.998,427.207 225.839,427.972 
			225.715,428.378 224.772,431.712 224.607,432.254 223.74,435.094 223.363,436.088 222.951,437.441 222.12,439.923 221,443.351 
			220.917,443.622 220.788,443.804 220.122,445.745 219.539,447.415 218.572,449.856 218.443,450.038 217.389,452.526 
			215.827,456.189 215.786,456.325 215.745,456.46 214.974,457.777 213.525,460.588 213.395,460.77 213.136,461.135 
			211.494,463.369 210.628,464.51 209.892,465.468 209.286,466.244 208.068,467.573 207.332,468.531 206.767,469.172 
			205.584,470.142 203.124,471.905 202.465,472.37 200.964,473.169 198.934,474.25 198.493,474.485 198.228,474.626 
			197.298,475.008 194.209,476.653 192.926,477.223 191.691,477.881 190.408,478.45 189.614,478.873 187.266,479.784 
			186.072,480.307 185.095,480.6 182.124,481.616 180.877,481.827 178.341,482.384 177.717,482.49 173.917,482.587 173.517,482.687 
			173.247,482.605 169.253,482.126 167.588,481.766 165.518,481.282 162.095,480.386 161.33,480.227 161.195,480.186 
			160.789,480.062 157.184,479.036 154.385,478.034 153.256,477.616 149.098,475.978 149.098,475.978 148.963,475.937 
			145.434,474.417 143.758,473.61 141.994,472.85 140.588,472.126 138.366,470.93 136.46,469.906 134.373,468.752 132.467,467.727 
			130.65,466.655 129.786,466.096 128.469,465.324 127.922,464.936 125.694,463.517 123.871,462.222 123.689,462.092 
			122.089,460.791 121.037,459.879 118.926,457.83 118.832,457.654 118.785,457.566 118.65,457.524 116.616,454.982 
			116.011,454.058 115.224,453.005 114.53,452.128 113.455,450.321 112.291,448.562 111.733,447.726 111.362,447.243 
			110.892,446.361 109.629,444.201 108.313,441.73 107.085,439.211 106.504,437.482 106.122,436.552 104.395,432.033 
			104.008,430.88 103.321,428.527 103.021,427.327 102.453,424.344 102.43,423.45 102.542,422.597 102.503,419.332 102.651,418.12 
			102.987,415.562 103.023,415.203 103.872,411.692 103.913,411.557 103.913,411.557 104.037,411.151 105.145,407.275 
			105.311,406.734 105.853,405.199 106.153,404.699 106.966,403.247 108.073,401.071 108.155,400.8 108.285,400.618 
			109.574,398.572 110.045,397.754 110.522,397.161 111.087,396.52 112.176,395.373 114.136,393.31 114.966,392.528 
			115.667,391.928 118.986,388.801 119.38,388.478 123.006,385.074 123.006,385.074 123.183,384.98 126.42,382.123 127.997,380.83 
			130.057,379.167 131.763,377.691 133.653,376.345 135.147,375.323 136.465,374.394 138.313,373.183 139.767,372.296 
			141.132,371.456 144.262,369.675 144.351,369.628 144.704,369.44 147.622,368.113 148.064,367.878 150.712,366.467 
			151.465,366.18 153.942,365.087 154.607,364.846 156.954,363.936 158.902,363.125 161.338,362.168 162.62,361.598 165.68,360.535 
			166.168,360.389 167.545,359.995 169.986,359.261 171.187,358.962 173.946,358.399 176.887,357.966 177.911,357.76 
			178.94,357.779 182.111,357.563 185.017,357.488 185.958,357.554 187.57,357.602 189.987,357.674 191.199,357.821 
			193.805,358.247 195.469,358.606 199.21,359.673 199.345,359.715 199.527,359.844 203.05,361.14 204.908,362.077 206.314,362.801 
			207.402,363.355 208.725,364.35 209.683,365.086 210.6,365.957 212.487,368.011 213.228,368.976 214.715,371.13 215.32,372.054 		
			">
		</polygon>
		<polygon slic3r:type="contour" style="fill:#FFFFFF;stroke:#000000;stroke-miterlimit:10;" points="614.762,187.315 
			615.896,189.656 616.789,191.333 617.5,192.881 618.68,195.311 619.109,196.329 619.485,197.035 620.478,199.112 621.089,200.26 
			621.988,202.16 622.317,202.778 623.598,205.608 624.074,206.714 624.408,207.556 625.818,210.204 626.106,210.957 
			626.294,211.31 627.481,213.963 627.774,214.94 628.973,218.041 629.542,219.324 630.453,221.671 630.453,221.671 
			631.269,223.842 631.698,224.86 632.467,226.943 633.142,228.849 633.524,229.779 634.2,231.685 634.675,232.791 634.822,233.28 
			635.838,236.251 636.319,237.581 637.277,240.016 637.424,240.505 637.811,241.658 638.345,243.299 638.533,243.653 
			639.402,246.135 639.89,247.689 640.33,249.154 640.577,250.042 640.923,251.33 641.375,253.243 641.908,256.584 641.914,256.808 
			641.914,256.808 641.919,257.031 642.1,260.561 641.868,263.743 641.874,263.966 641.833,264.102 641.154,267.295 
			640.824,268.377 640.412,269.73 639.993,270.859 639.398,272.082 638.286,274.035 637.856,274.717 637.726,274.899 
			637.338,275.446 635.948,277.092 634.948,278.192 634.165,279.062 633.688,279.655 631.769,281.584 630.768,282.683 
			629.939,283.465 629.503,283.924 627.973,285.305 627.402,285.722 627.143,286.087 625.524,287.515 624.212,288.667 
			623.818,288.991 623.335,289.361 621.97,290.201 620.169,291.5 619.551,291.829 619.375,291.923 617.745,292.905 615.809,294.162 
			615.544,294.303 615.149,294.627 612.549,296.125 610.342,297.3 610.254,297.347 607.782,298.663 606.811,299.18 604.516,300.402 
			602.533,301.572 601.692,301.907 599.221,303.223 598.026,303.746 594.578,305.355 594.402,305.449 594.313,305.496 
			591.389,306.6 591.301,306.647 591.077,306.653 588.412,307.393 587.036,307.786 585.347,308.232 584.323,308.437 
			582.723,308.836 581.652,308.953 577.911,309.586 577.152,309.65 575.281,309.967 573.675,310.142 573.228,310.154 
			572.422,310.13 570.322,310.229 569.205,310.257 567.952,310.245 565.893,310.208 563.028,310.148 562.446,310.118 
			559.758,309.963 556.981,309.856 556.534,309.867 554.787,309.778 552.681,309.653 552.234,309.665 551.74,309.588 
			549.005,309.345 548.017,309.192 546.582,309.05 545.1,308.819 542.988,308.471 541.729,308.235 539.3,307.716 537.636,307.356 
			536.013,306.861 532.731,306.229 532.548,306.1 532.413,306.059 532.054,306.023 529.437,305.151 527.99,304.562 526.32,303.978 
			524.462,303.042 523.239,302.447 520.863,300.54 520.452,300.192 519.764,299.539 517.965,297.438 516.261,295.513 
			515.843,294.943 515.003,293.577 514.168,292.436 513.933,291.994 512.799,289.652 512.512,288.899 512.324,288.546 
			511.396,285.528 510.916,282.498 510.752,281.339 510.823,280.622 510.86,276.863 510.89,276.281 511.38,272.734 511.504,272.328 
			511.757,271.74 512.489,268.858 513.237,266.647 513.278,266.512 514.203,264.206 514.41,263.53 515.423,261.178 516.012,259.731 
			517.19,256.838 517.402,256.385 517.573,256.067 518.575,253.268 518.899,251.962 519.4,250.562 519.559,249.798 519.754,248.674 
			520.055,246.475 520.097,244.639 520.039,244.104 519.717,242.01 519.047,240.327 518.618,239.309 518.154,238.65 
			516.808,236.761 514.886,235.066 514.427,234.63 513.651,234.024 512.693,233.288 511.281,232.34 509.558,231.445 
			507.065,230.167 505.389,229.36 503.172,228.388 501.908,227.928 499.473,227.186 498.391,226.855 496.997,226.578 
			494.568,226.059 492.409,225.622 490.656,225.31 489.262,225.032 487.915,224.843 486.568,224.654 485.533,224.412 
			484.322,224.265 481.628,223.886 479.022,223.461 478.211,223.214 476.276,222.771 475.376,222.571 472.129,221.581 
			471.994,221.539 471.541,221.327 468.424,220.155 466.883,219.389 464.484,218.288 462.038,217.098 460.95,216.544 
			460.221,216.026 459.633,215.773 458.862,215.39 457.904,214.654 456.175,213.536 454.129,212.246 453.353,211.64 
			450.072,209.308 449.525,208.92 445.697,206.2 445.333,205.941 445.333,205.941 444.739,205.464 441.317,202.868 440.952,202.609 
			437.119,199.665 436.937,199.536 436.707,199.318 435.655,198.406 433.05,196.28 432.18,195.498 430.164,193.626 429.188,192.219 
			428.724,191.56 428.401,191.166 427.743,189.93 427.455,189.177 426.715,186.512 426.615,186.112 426.541,183.206 
			426.595,181.818 426.795,180.918 427.166,179.7 427.408,178.665 427.868,177.401 427.909,177.266 429.022,175.313 
			430.052,173.632 430.865,172.179 431.778,171.127 433.409,168.445 433.45,168.31 433.45,168.31 433.491,168.175 435.229,164.417 
			435.647,163.288 436.024,162.294 437.891,158.354 438.062,158.036 438.144,157.766 439.947,153.067 440.118,152.749 
			440.884,151.209 442.374,148.263 442.368,148.039 442.456,147.992 442.674,147.763 444.799,145.158 445.665,144.017 
			447.013,142.507 447.142,142.324 447.448,142.048 450.12,139.832 450.779,139.368 451.88,138.668 453.945,137.228 
			456.323,135.736 456.982,135.271 459.894,133.72 460.247,133.532 462.895,132.122 463.16,131.981 465.596,131.024 
			467.497,130.125 468.426,129.743 470.597,128.927 471.751,128.539 474.057,127.764 475.434,127.371 477.346,126.919 
			478.593,126.708 480.728,126.251 481.576,126.139 482.023,126.128 485.552,125.948 486.311,125.883 488.229,125.655 
			490.464,125.598 492.429,125.458 493.77,125.423 494.441,125.406 497.082,125.472 497.799,125.543 498.47,125.526 
			501.211,125.992 502.781,126.176 505.34,126.513 507.675,126.855 507.899,126.849 510.192,127.327 513.427,127.87 
			514.416,128.024 515.18,128.183 518.327,128.773 519.856,129.092 523.003,129.682 523.226,129.676 526.373,130.267 
			527.543,130.55 530.42,131.057 532.76,131.623 534.378,131.895 537.036,132.632 538.118,132.962 541.136,133.734 541.541,133.858 
			541.724,133.988 545.152,135.107 545.693,135.272 547.317,135.768 549.481,136.428 550.381,136.628 552.504,137.424 
			555.433,138.243 555.75,138.414 555.974,138.408 559.767,139.787 560.491,140.081 561.396,140.506 563.343,141.395 
			565.06,142.067 565.424,142.326 565.83,142.449 567.147,143.221 567.918,143.604 569.282,144.463 570.87,145.317 571.099,145.535 
			572.598,146.436 573.692,147.213 577.009,149.186 578.055,149.875 579.102,150.563 581.195,151.941 582.424,152.76 
			584.341,154.231 585.617,155.138 588.216,157.04 589.221,157.864 592.196,160.471 593.248,161.384 596.546,164.386 
			596.546,164.386 596.546,164.386 599.668,167.482 600.127,167.917 602.654,170.537 603.389,171.278 605.141,173.291 
			606.299,174.827 607.222,175.922 608.374,177.234 609.114,178.199 610.278,179.959 611.765,182.113 611.859,182.289 
			611.906,182.378 613.352,184.667 614.245,186.344 		">
		</polygon>
	</g>
</g>
<g id="Layer_1">
</g>
</svg>
