<?xml version="1.0" encoding="iso-8859-1"?>
<!-- Generator: Adobe Illustrator 19.2.1, SVG Export Plug-In . SVG Version: 6.00 Build 0)  -->
<svg version="1.1" xmlns="http://www.w3.org/2000/svg" xmlns:xlink="http://www.w3.org/1999/xlink" x="0px" y="0px"
	 viewBox="0 0 841.89 595.28" style="enable-background:new 0 0 841.89 595.28;" xml:space="preserve">
<g id="layer209">
	<g id="layer209_1_" slic3r:z="8.38000000000006e-005">
		<polygon slic3r:type="contour" style="fill:#FFFFFF;stroke:#000000;stroke-miterlimit:10;" points="264.167,314.431 
			264.413,315.319 264.901,316.872 265.012,317.719 265.605,319.896 266.015,321.943 266.168,322.655 266.595,325.373 
			266.759,326.532 267.246,329.785 267.351,330.409 267.879,333.527 268.154,335.533 268.207,335.845 268.365,336.78 
			268.921,341.016 269.279,342.751 269.577,345.652 269.781,348.375 269.904,349.669 270.102,353.869 270.119,354.54 
			270.23,355.387 270.363,358.828 270.497,360.57 270.491,362.046 270.601,364.593 270.782,366.423 270.846,367.182 
			270.969,368.476 271.074,370.799 271.313,373.164 271.378,373.923 271.535,376.559 271.593,377.094 271.692,379.194 
			271.738,380.982 271.76,383.576 271.7,384.741 271.682,385.77 271.722,387.335 271.616,388.412 271.609,389.888 271.514,391.411 
			271.378,393.07 271.283,394.594 271.034,397.105 270.88,398.093 270.815,399.035 270.508,401.011 270.278,402.493 270.13,403.705 
			269.793,406.263 269.593,407.163 269.079,409.816 269.044,410.175 268.513,412.157 268.271,413.192 268.189,413.462 
			267.287,416.662 266.509,419.456 266.426,419.726 266.344,419.997 265.047,423.519 264.117,425.601 263.233,427.771 
			262.85,428.542 262.002,430.353 260.689,433.205 259.411,435.698 258.174,438.056 256.819,441.044 255.753,443.084 
			254.864,445.031 253.374,447.977 251.501,451.693 250.9,452.693 250.517,453.463 248.898,456.592 248.003,458.315 246,462.214 
			245.576,463.119 244.122,465.707 242.879,467.841 241.537,469.576 240.413,471.081 239.677,472.039 239.288,472.586 
			238.593,473.409 238.117,474.003 237.292,475.008 236.598,475.831 236.339,476.196 235.209,477.478 234.214,478.801 
			233.866,479.212 233.001,480.353 232.913,480.4 229.387,484.204 229.081,484.48 228.863,484.709 228.598,484.85 226.762,486.508 
			225.408,487.795 224.879,488.077 224.002,488.771 222.242,489.934 220.483,491.098 219.647,491.656 216.911,493.114 
			216.028,493.584 214.434,494.206 212.621,495.058 211.292,495.54 209.297,496.262 208.279,496.691 206.061,497.419 
			204.908,497.806 204.331,498 201.531,498.698 200.066,499.139 198.601,499.579 197.577,499.784 196.465,500.036 194.818,500.347 
			193.618,500.646 192.771,500.758 190.588,501.127 189.341,501.338 188.094,501.549 186.535,501.813 185.464,501.93 
			184.617,502.041 183.011,502.216 182.388,502.322 182.029,502.286 179.976,502.473 178.323,502.561 178.276,502.472 
			176.264,502.524 175.458,502.5 173.535,502.505 171.788,502.416 170.982,502.392 168.652,502.272 167.846,502.248 
			167.041,502.224 164.664,502.017 162.823,501.751 160.535,501.497 159.953,501.467 156.812,501.101 156.541,501.018 
			156.406,500.977 156.406,500.977 152.765,500.31 151.73,500.068 149.166,499.508 147.86,499.183 145.207,498.67 145.025,498.54 
			144.396,498.422 142.279,497.851 141.467,497.603 139.214,496.99 137.503,496.542 136.103,496.041 133.627,495.433 
			133.221,495.31 132.227,494.933 130.469,494.396 129.881,494.143 127.534,493.353 126.27,492.894 124.688,492.263 123.018,491.68 
			122.065,491.168 119.26,489.942 118.719,489.777 116.084,488.235 114.72,487.375 113.262,486.339 111.98,485.209 111.293,484.555 
			110.046,483.066 108.753,481.489 105.826,477.27 105.409,476.699 105.221,476.346 104.198,474.851 100.943,470.014 
			100.202,469.048 99.32,467.818 96.658,463.458 94.766,461.18 92.914,458.768 91.486,457.149 90.792,456.272 89.957,455.13 
			89.44,454.16 88.688,452.747 88.406,452.218 87.784,450.623 87.208,449.117 86.821,447.964 86.721,447.564 86.568,446.852 
			85.906,443.693 85.653,442.581 85.301,441.069 85.079,439.375 84.945,437.633 84.869,436.427 84.576,433.751 84.571,433.527 
			84.718,432.315 84.671,432.227 84.748,431.733 84.844,428.51 84.892,426.898 84.934,426.763 85.147,424.61 85.176,424.027 
			85.36,422.457 85.655,420.034 85.815,419.269 86.039,417.563 86.069,416.981 86.335,415.14 86.453,414.511 86.535,414.24 
			87.013,411.946 87.409,409.923 87.568,409.158 87.686,408.529 88.464,405.735 89.124,403.571 89.413,402.624 89.991,400.73 
			90.326,399.872 90.615,398.925 91.452,396.667 91.741,395.72 92.943,392.02 93.279,391.162 95.129,386.551 95.299,386.234 
			95.429,386.051 97.137,382.876 97.308,382.558 97.69,381.788 99.451,378.924 100.046,377.701 101.677,375.02 101.977,374.52 
			102.236,374.156 103.366,372.874 104.585,371.545 105.191,370.769 106.975,368.8 108.317,367.065 109.1,366.195 110.407,364.819 
			111.407,363.72 112.019,363.167 114.474,361.181 115.521,360.169 117.051,358.788 118.364,357.636 120.689,355.831 
			120.689,355.831 120.777,355.784 123.143,353.845 124.284,353.01 125.379,352.087 127.439,350.424 127.615,350.33 
			128.539,349.724 130.387,348.514 130.564,348.42 131.223,347.956 132.629,346.98 134.3,345.863 135.136,345.305 136.366,344.423 
			138.349,343.254 138.479,343.072 138.832,342.884 140.768,341.626 143.016,340.316 143.28,340.175 143.545,340.034 
			146.146,338.535 147.47,337.83 150.201,336.149 151.613,335.397 152.448,334.839 155.891,333.006 157.256,332.165 159.463,330.99 
			160.786,330.285 163.081,329.063 163.611,328.781 165.688,327.788 167.453,326.848 169.001,326.137 170.678,325.244 
			172.002,324.539 173.149,323.928 175.05,323.029 175.626,322.835 176.685,322.271 177.792,321.796 179.516,320.991 
			180.534,320.562 180.71,320.468 181.905,319.945 183.411,319.37 183.94,319.088 185.447,318.512 188.236,317.367 188.412,317.273 
			188.677,317.132 191.684,315.757 192.566,315.287 194.649,314.518 196.555,313.842 197.532,313.549 198.82,313.203 
			200.509,312.757 201.75,312.322 203.974,311.817 206.104,311.136 207.793,310.69 210.681,309.945 210.858,309.851 
			210.946,309.804 214.017,309.188 215.264,308.977 217.8,308.42 217.935,308.461 218.735,308.262 220.782,307.851 221.006,307.845 
			224.077,307.23 224.389,307.177 227.46,306.561 227.772,306.508 230.842,305.893 231.019,305.799 233.378,305.335 
			234.225,305.224 234.314,305.177 237.52,304.603 237.879,304.638 240.82,304.205 241.849,304.223 244.303,303.936 
			246.138,303.978 247.12,303.908 249.497,304.116 251.061,304.076 253.173,304.424 254.432,304.66 256.008,305.067 
			259.007,306.869 259.142,306.91 259.189,306.998 262.328,310.765 262.557,310.983 262.698,311.247 		">
		</polygon>
		<polygon slic3r:type="contour" style="fill:#FFFFFF;stroke:#000000;stroke-miterlimit:10;" points="729.669,233.526 
			730.268,235.926 730.367,236.326 730.513,238.514 730.5,239.767 730.146,241.655 729.952,242.779 729.71,243.814 729.079,245.396 
			728.06,247.525 727.542,248.254 727.283,248.618 726.082,250.618 725.564,251.347 724.181,253.216 723.833,253.628 
			723.833,253.628 723.704,253.81 722.267,255.368 721.079,256.115 719.637,257.449 717.847,259.195 717.318,259.477 
			716.971,259.889 715.123,261.099 713.499,262.304 713.234,262.445 710.674,263.808 710.274,263.908 709.833,264.143 
			706.461,265.259 705.444,265.687 704.208,266.345 703.231,266.639 701.896,266.897 701.36,266.956 700.96,267.055 
			698.148,267.306 696.625,267.211 696.313,267.264 695.643,267.281 692.378,267.321 689.878,267.519 689.119,267.583 
			688.225,267.606 685.266,267.369 684.772,267.292 684.548,267.298 683.878,267.315 680.996,266.584 678.725,267.001 
			678.055,267.018 675.713,268.152 675.054,268.616 674.047,269.492 673.211,270.05 672.246,270.791 670.587,272.354 
			669.751,272.913 669.486,273.054 668.433,273.841 667.426,274.717 667.12,274.993 666.638,275.364 664.919,276.392 
			663.119,277.691 662.724,278.014 662.459,278.155 660.3,279.419 658.764,280.577 657.881,281.047 655.245,282.904 
			655.157,282.951 654.892,283.092 652.514,284.585 651.414,285.284 650.755,285.748 649.743,286.401 648.242,287.2 
			647.536,287.576 646.612,288.181 644.453,289.444 641.593,291.307 640.975,291.636 640.669,291.913 637.544,293.917 
			637.103,294.152 634.549,295.738 634.461,295.785 631.73,297.466 630.718,298.118 629.353,298.959 627.811,299.893 
			626.093,300.921 624.904,301.668 623.05,302.655 621.815,303.313 619.343,304.629 619.167,304.723 616.872,305.945 
			614.53,307.079 614.177,307.267 611.659,308.495 609.67,309.441 608.564,309.917 607.416,310.528 605.292,311.432 
			603.609,312.102 602.062,312.813 599.538,313.817 599.049,313.964 598.696,314.152 595.549,315.262 593.289,316.125 
			591.56,316.706 589.253,317.481 587.653,317.88 585.611,318.514 583.482,319.196 581.97,319.548 578.993,320.34 578.193,320.539 
			575.033,321.202 574.233,321.402 573.921,321.454 570.003,322.181 568.933,322.298 566.75,322.668 566.526,322.673 
			564.744,322.943 563.538,323.019 561.932,323.194 559.52,323.346 558.314,323.421 557.285,323.403 553.485,323.501 
			552.455,323.483 551.338,323.511 549.008,323.392 546.456,323.279 545.738,323.208 545.514,323.214 544.708,323.19 
			542.285,322.894 539.279,322.569 539.279,322.569 539.279,322.569 536.274,322.243 534.792,322.013 533.309,321.783 
			532.545,321.623 530.298,321.234 529.31,321.08 528.816,321.003 526.298,320.531 524.275,320.136 522.881,319.859 520.54,319.293 
			520.134,319.169 519.052,318.839 516.535,318.367 515.365,318.083 512.577,317.529 512.353,317.535 512.083,317.452 
			509.295,316.897 506.424,316.613 506.065,316.578 505.436,316.46 503.73,316.235 502.56,315.952 501.437,315.757 500.401,315.516 
			497.078,315.019 496.855,315.025 496.808,314.937 496.719,314.984 496.584,314.943 493.426,313.905 492.385,313.44 
			489.586,312.438 488.133,311.626 486.498,310.684 484.999,309.783 484.864,309.741 484.587,309.435 482.488,307.834 
			482.171,307.663 481.577,307.186 479.884,305.709 478.508,304.402 478.003,303.878 477.773,303.661 475.51,300.9 475.375,300.859 
			475.328,300.771 473.424,298.046 472.478,296.057 471.544,294.516 470.545,292.215 470.016,290.797 469.288,288.579 
			468.748,286.714 468.596,286.002 467.886,282.755 467.734,282.043 467.769,281.684 467.242,278.566 466.814,275.848 
			466.75,275.089 466.644,274.466 466.328,272.595 466.111,271.124 465.612,269.124 465.454,268.188 464.867,266.235 
			464.479,265.082 463.909,263.799 463.251,262.564 462.411,261.198 461.576,260.057 460.289,258.703 459.554,257.961 
			459.143,257.614 458.413,257.096 457.596,256.625 456.373,256.03 453.932,255.064 453.526,254.94 453.256,254.857 
			449.656,254.055 449.386,253.973 449.251,253.931 448.533,253.86 444.727,253.735 443.698,253.716 441.192,253.691 
			439.851,253.726 439.004,253.837 435.833,254.053 433.421,254.204 432.662,254.268 430.521,254.502 429.585,254.661 
			427.756,254.842 424.32,255.199 423.473,255.31 423.026,255.321 421.732,255.444 418.826,255.519 417.261,255.559 
			414.756,255.534 411.667,255.479 410.638,255.461 408.85,255.507 407.238,255.459 405.626,255.411 403.656,255.327 
			403.073,255.297 401.909,255.238 398.956,255.224 395.244,255.275 394.303,255.21 393.679,255.315 390.103,255.407 
			388.138,255.547 386.22,255.775 385.061,255.939 383.814,256.15 382.031,256.42 379.584,256.93 377.937,257.241 375.672,257.881 
			375.048,257.986 372.118,258.867 371.718,258.967 371.63,259.014 371.63,259.014 368.476,259.9 365.811,260.639 365.235,260.833 
			364.746,260.98 363.058,261.426 361.769,261.772 359.904,262.312 359.104,262.512 358.969,262.471 358.704,262.612 
			356.304,263.21 353.727,263.903 353.639,263.95 353.639,263.95 353.55,263.997 353.239,264.049 350.438,264.748 350.262,264.842 
			347.461,265.54 346.485,265.834 344.843,266.368 344.178,266.609 342.401,267.102 341.737,267.342 341.648,267.389 
			338.807,268.223 337.7,268.699 336.459,269.133 334.912,269.844 333.894,270.273 333.276,270.602 330.887,271.648 
			329.651,272.306 328.498,272.693 326.462,273.551 324.997,273.991 323.668,274.473 322.914,274.76 321.491,275.065 
			319.667,275.47 317.931,275.828 316.243,276.274 315.484,276.338 313.966,276.467 311.96,276.742 310.843,276.771 
			307.801,276.804 306.99,276.557 305.314,275.75 303.056,274.913 301.827,274.095 300.428,271.894 299.505,270.799 
			298.982,269.605 298.16,267.21 298.096,266.451 297.662,263.51 297.745,263.239 297.935,260.192 297.929,259.969 298.012,259.698 
			298.984,257.481 299.843,256.117 300.403,255.253 302.586,253.183 303.104,252.454 304.9,250.932 305.382,250.562 
			305.776,250.238 307.712,248.981 308.419,248.605 311.19,246.789 311.367,246.695 311.367,246.695 314.321,245.008 
			315.109,244.362 316.951,242.927 317.864,241.875 318.476,241.322 319.165,240.276 320.118,239.088 320.719,238.089 
			321.832,236.136 322.592,234.372 323.534,232.737 324.135,231.738 325.242,229.562 325.801,228.697 327.049,226.786 
			327.992,225.152 329.328,223.194 329.799,222.376 330.182,221.606 331.348,219.966 331.943,218.742 332.849,217.466 
			333.497,216.555 335.398,213.956 335.398,213.956 335.398,213.956 337.712,211.705 338.188,211.111 339.371,210.141 
			341.42,208.031 341.814,207.707 343.174,206.643 344.88,205.168 346.458,203.875 346.981,203.369 348.553,201.852 
			349.824,200.836 350.566,200.101 351.178,199.548 352.49,198.396 354.933,195.962 355.021,195.915 355.198,195.821 
			356.775,194.528 359.323,192.718 360.771,191.607 363.531,189.344 363.531,189.344 363.619,189.297 363.661,189.162 
			363.749,189.115 366.239,186.769 367.545,185.393 369.817,183.277 371.695,181.484 371.913,181.255 374.22,178.78 375.05,177.998 
			375.527,177.404 376.186,176.94 376.227,176.805 376.663,176.346 378.846,174.277 379.458,173.724 380.547,172.578 
			381.683,171.52 382.69,170.644 384.179,169.398 384.791,168.845 386.015,167.74 386.803,167.093 387.374,166.676 388.593,165.347 
			388.987,165.024 389.117,164.842 389.246,164.66 390.512,163.419 391.865,162.132 393.431,160.392 394.214,159.521 
			394.214,159.521 396.621,157.446 397.757,156.388 398.846,155.242 400.147,153.643 401.153,152.767 401.807,152.079 
			403.243,150.521 405.421,148.228 405.815,147.905 406.339,147.399 406.863,146.894 409.217,144.507 410.177,143.543 
			410.612,143.084 411.525,142.032 412.967,140.698 413.314,140.286 414.932,138.858 416.545,137.206 416.763,136.976 
			417.769,136.1 419.129,135.037 419.918,134.39 421.018,133.691 421.765,133.179 423.437,132.063 425.279,130.629 425.543,130.488 
			427.168,129.283 427.65,128.912 428.092,128.677 430.198,127.102 431.958,125.939 434.024,124.499 434.506,124.128 
			435.695,123.382 436.224,123.1 438.031,122.025 439.355,121.32 440.414,120.755 443.197,119.387 444.433,118.728 444.698,118.587 
			445.669,118.07 448.94,116.555 449.646,116.179 450.929,115.609 453.277,114.699 455.577,113.7 455.754,113.606 458.19,112.649 
			460.008,112.02 461.69,111.351 463.332,110.816 465.415,110.047 469.586,108.732 469.674,108.685 469.763,108.638 
			470.163,108.538 472.516,107.851 474.563,107.441 474.787,107.435 478.434,106.626 478.523,106.579 479.011,106.432 
			482.482,105.716 482.747,105.575 483.547,105.376 485.547,104.877 487.818,104.461 488.442,104.355 488.754,104.303 
			490.001,104.092 491.736,103.734 492.272,103.675 494.413,103.441 496.419,103.166 497.625,103.09 500.125,102.892 
			501.419,102.769 504.231,102.518 504.59,102.553 505.484,102.53 507.719,102.473 508.166,102.461 510.808,102.528 
			511.837,102.546 513.002,102.606 514.125,102.8 515.472,102.989 516.06,103.243 519.077,104.015 519.665,104.268 519.936,104.351 
			523.141,105.476 525.035,106.054 526.211,106.561 528.428,107.533 528.61,107.662 530.651,108.728 532.691,109.794 
			533.691,110.395 536.549,111.932 537.278,112.45 540.594,114.422 540.912,114.593 544.046,116.436 544.499,116.648 
			547.222,118.144 547.674,118.356 550.803,119.976 551.391,120.229 552.885,120.906 554.696,121.754 555.825,122.173 
			558.042,123.145 560.841,124.146 561.788,124.435 562.241,124.647 565.264,125.643 565.535,125.726 567.252,126.397 
			568.381,126.816 568.787,126.939 571.451,127.9 572.851,128.401 574.75,129.202 577.232,130.033 578.226,130.41 580.666,131.376 
			581.072,131.5 583.877,132.725 584.465,132.978 584.465,132.978 584.601,133.02 588,134.722 589.952,135.835 591.134,136.565 
			594.268,138.408 594.544,138.714 598.096,141.128 598.096,141.128 601.882,143.983 601.882,143.983 602.476,144.46 
			605.586,147.109 605.722,147.15 609.384,150.411 609.702,150.582 613.182,153.714 613.641,154.149 616.845,156.975 
			617.58,157.716 620.284,160.241 621.107,160.936 623.676,163.42 624,163.814 624.411,164.162 626.298,166.216 626.804,166.74 
			628.461,168.576 628.879,169.147 630.125,170.636 630.865,171.601 632.399,173.843 632.864,174.502 633.281,175.073 
			634.868,177.627 635.708,178.992 636.313,179.916 636.924,181.063 636.977,181.375 637.453,182.481 637.694,183.146 
			638.651,185.582 639.368,187.353 640.983,191.025 641.265,191.554 641.412,192.043 642.892,195.673 643.268,196.379 
			644.131,198.638 644.748,200.009 644.895,200.498 646.193,203.998 646.428,204.44 646.768,205.505 647.444,207.411 
			648.166,209.405 648.46,210.382 648.559,210.782 649.827,214.865 649.827,214.865 649.827,214.865 650.855,218.284 
			651.154,219.484 651.794,221.749 652.522,223.967 652.716,224.544 652.768,224.855 653.696,227.874 654.424,230.092 
			654.958,231.733 655.622,233.192 656.051,234.21 656.72,235.893 657.108,237.046 658.042,238.588 659.088,240.977 
			660.116,242.695 660.534,243.266 661.515,244.896 662.026,245.643 663.096,247.226 664.759,249.286 665.218,249.722 
			667.381,252.082 667.522,252.347 667.658,252.388 670.909,255.302 671.279,255.784 672.331,256.697 675.189,258.234 
			676.636,258.823 678.383,258.912 678.654,258.995 680.977,258.89 683.413,257.933 684.348,257.775 685.013,257.534 
			687.231,256.806 688.343,256.553 689.626,255.984 690.956,255.502 692.903,254.692 693.433,254.41 694.533,253.71 
			695.769,253.052 696.122,252.864 698.323,251.465 699.806,249.996 700.2,249.672 700.418,249.443 701.807,247.797 
			702.673,246.656 703.32,245.745 704.251,243.663 704.681,242.981 704.763,242.711 704.975,242.258 705.983,239.682 
			706.519,237.923 706.684,237.382 707.427,234.947 707.639,234.495 708.352,232.642 708.776,231.736 708.817,231.601 
			708.858,231.466 709.512,230.778 710.554,229.543 711.036,229.173 712.708,228.057 715.35,226.423 715.879,226.141 
			716.232,225.953 716.986,225.665 719.256,225.249 720.151,225.226 721.233,225.556 722.903,226.139 724.314,227.087 
			725.861,228.076 727.565,230.001 728.218,231.013 		">
		</polygon>
	</g>
</g>
<g id="Layer_1">
</g>
</svg>
