<?xml version="1.0" encoding="iso-8859-1"?>
<!-- Generator: Adobe Illustrator 19.2.1, SVG Export Plug-In . SVG Version: 6.00 Build 0)  -->
<svg version="1.1" xmlns="http://www.w3.org/2000/svg" xmlns:xlink="http://www.w3.org/1999/xlink" x="0px" y="0px"
	 viewBox="0 0 841.89 595.28" style="enable-background:new 0 0 841.89 595.28;" xml:space="preserve">
<g id="layer201">
	<g id="layer201_1_" slic3r:z="8.06000000000006e-005">
		<polygon slic3r:type="contour" style="fill:#FFFFFF;stroke:#000000;stroke-miterlimit:10;" points="230.973,361.452 
			231.831,363.487 232.548,365.258 233.699,368.271 234.415,370.042 234.615,370.842 235.425,372.79 236.148,374.784 
			237.54,378.461 237.728,378.814 237.968,379.479 239.125,382.715 239.753,384.533 240.241,386.087 241.168,389.105 
			241.268,389.505 241.315,389.593 242.078,393.152 242.23,393.864 242.705,396.67 242.763,397.206 243.003,399.571 
			243.243,401.935 243.33,403.588 243.412,405.018 243.451,408.283 243.337,410.836 243.39,411.147 243.272,411.777 
			242.982,414.424 242.958,415.229 242.852,416.306 242.462,418.553 241.979,420.623 241.937,420.758 241.371,423.099 
			241.206,423.64 240.034,426.757 239.992,426.892 239.992,426.892 238.685,429.968 238.355,431.05 237.506,432.861 
			236.411,435.484 235.987,436.39 235.185,438.289 234.384,440.189 233.96,441.095 232.859,443.494 232.44,444.623 231.675,446.164 
			230.709,448.604 230.414,449.328 230.202,449.78 229.101,452.18 228.176,454.485 227.964,454.938 226.556,457.614 
			225.879,459.107 225.19,460.154 224.719,460.971 223.341,463.065 222.476,464.205 221.522,465.393 220.003,467.221 
			219.397,467.997 218.008,469.644 217.619,470.19 216.188,471.972 215.406,472.842 212.969,475.499 212.533,475.958 
			212.009,476.464 210.255,477.851 209.161,478.774 208.631,479.056 207.531,479.755 204.712,481.483 203.476,482.141 
			200.787,483.686 198.581,484.861 197.033,485.572 195.709,486.277 195.091,486.606 193.279,487.458 192.438,487.793 
			192.214,487.799 191.861,487.987 188.272,489.331 187.16,489.584 185.119,490.218 183.424,490.44 179.147,491.132 
			179.059,491.179 178.924,491.138 178.7,491.143 174.765,491.2 171.806,490.963 171.224,490.933 169.653,490.75 167.23,490.454 
			166.736,490.377 165.748,490.224 163.095,489.71 160.396,489.109 159.178,488.737 157.873,488.413 155.349,487.717 
			152.103,486.727 151.38,486.433 150.974,486.309 150.433,486.144 147.769,485.183 146.639,484.765 144.875,484.005 
			142.117,482.868 141.258,482.532 139.718,481.767 138.406,481.219 137.001,480.494 135.19,479.646 131.244,477.556 
			130.838,477.432 130.521,477.261 126.439,475.129 124.128,473.981 122.494,473.038 121.406,472.485 120.089,471.713 
			119.407,471.284 117.396,469.635 116.802,469.159 114.945,466.522 114.486,466.087 113.787,464.986 112.899,463.533 
			111.683,461.461 109.538,458.072 109.209,457.454 108.28,456.136 106.688,453.358 106.218,452.476 103.133,447.321 
			102.804,446.703 102.522,446.173 99.631,439.895 99.396,439.454 99.396,439.454 99.349,439.366 97.805,434.976 97.118,432.623 
			97.007,431.776 96.585,429.282 96.344,428.617 96.374,428.034 96.363,427.587 96.488,423.781 96.418,422.799 96.448,422.217 
			96.814,420.776 97.156,418.441 97.758,415.741 97.917,414.976 98.041,414.571 98.89,411.059 99.421,409.077 100.122,406.778 
			101.154,403.396 101.195,403.261 101.525,402.179 102.444,399.65 102.698,399.062 104.011,396.21 104.264,395.621 105.413,393.31 
			106.008,392.087 106.561,390.999 107.115,389.911 108.063,388.5 108.622,387.636 110.047,385.631 110.394,385.219 
			110.653,384.855 112.478,382.75 112.949,381.933 114.126,380.739 114.868,380.004 116.222,378.717 117.405,377.747 
			118.629,376.642 119.635,375.766 121.913,373.873 123.008,372.951 126.603,370.129 126.998,369.806 127.48,369.436 
			130.064,367.267 130.9,366.708 132.924,365.404 136.184,363.441 136.449,363.3 136.625,363.206 137.108,362.836 140.15,361.102 
			142.616,359.562 143.41,359.139 146.235,357.635 147.158,357.03 149.406,355.72 150.907,354.92 152.407,354.121 154.437,353.04 
			155.455,352.611 157.885,351.431 158.415,351.149 160.71,349.926 161.239,349.644 161.328,349.597 164.205,348.405 
			164.823,348.076 166.859,347.218 167.965,346.743 169.341,346.349 170.63,346.003 172.718,345.457 173.118,345.357 
			175.613,344.935 176.548,344.777 179.713,344.338 181.007,344.215 182.39,344.045 185.067,343.753 187.208,343.519 
			188.326,343.49 189.173,343.379 191.943,343.263 193.42,343.27 195.432,343.218 197.984,343.331 198.879,343.308 200.272,343.586 
			202.519,343.975 204.184,344.335 206.119,344.778 208.148,345.396 209.548,345.897 213.023,347.105 213.882,347.441 
			214.923,347.906 218.134,349.255 221.215,350.787 222.168,351.299 222.715,351.688 225.402,353.542 225.813,353.89 
			226.043,354.107 226.46,354.678 228.353,356.956 229.516,358.715 229.939,359.51 		">
		</polygon>
		<polygon slic3r:type="contour" style="fill:#FFFFFF;stroke:#000000;stroke-miterlimit:10;" points="622.84,184.825 
			623.974,187.167 625.437,190.127 625.959,191.321 626.194,191.763 626.623,192.781 627.816,195.658 628.485,197.341 
			629.49,199.865 630.388,201.765 631.011,203.36 632.009,205.66 632.104,205.837 633.014,208.184 633.208,208.761 633.783,210.267 
			634.693,212.615 635.128,213.856 636.185,216.692 637.712,220.411 637.906,220.987 638.053,221.476 639.11,224.312 
			639.398,225.065 640.026,226.883 640.983,229.319 641.318,230.16 642.14,232.555 642.569,233.573 643.338,235.655 
			643.773,236.897 644.348,238.403 645.018,240.086 645.259,240.751 645.787,242.169 646.316,243.587 646.51,244.163 
			647.426,246.734 647.76,247.576 648.53,249.659 648.776,250.547 649.222,252.236 649.58,253.971 649.938,255.707 650.29,257.219 
			650.577,259.672 650.624,259.76 650.676,260.072 650.693,262.442 650.509,264.013 650.373,265.672 650.178,266.795 
			649.229,269.906 649.064,270.447 648.893,270.765 648.593,271.265 647.144,274.075 646.538,274.852 645.796,275.586 
			644.495,277.186 642.924,278.702 642.488,279.161 642.094,279.484 640.387,280.96 638.463,282.664 638.374,282.711 
			638.286,282.758 636.05,284.516 634.779,285.533 633.154,286.738 630.965,288.583 630.041,289.189 629.341,289.788 
			627.587,291.175 626.663,291.781 625.392,292.798 624.556,293.356 622.62,294.613 622.267,294.801 622.179,294.848 
			620.196,296.018 617.818,297.511 617.553,297.652 617.465,297.699 617.2,297.84 614.906,299.062 614.241,299.302 612.74,300.102 
			610.751,301.047 609.339,301.799 607.133,302.975 605.055,303.967 603.732,304.673 602.008,305.477 600.284,306.282 
			599.089,306.805 597.23,307.569 595.859,308.185 594.264,308.808 590.852,310.059 590.54,310.112 587.922,310.939 586.457,311.38 
			586.322,311.338 586.145,311.432 585.657,311.579 583.345,312.131 582.009,312.389 579.827,312.758 579.338,312.905 
			578.891,312.916 575.95,313.35 572.379,313.665 571.532,313.776 570.102,313.858 568.138,313.998 567.379,314.062 566.126,314.05 
			565.008,314.078 563.62,314.025 561.561,313.988 558.696,313.927 556.279,313.855 555.92,313.82 553.279,313.754 552.067,313.606 
			550.05,313.434 546.732,313.161 546.326,313.038 546.103,313.043 544.621,312.813 542.691,312.594 542.286,312.47 
			540.039,312.081 538.151,311.727 536.757,311.449 535.722,311.208 533.651,310.724 532.528,310.529 530.011,310.057 
			529.199,309.81 527.311,309.455 526.993,309.285 526.858,309.243 524.335,308.548 524.2,308.507 523.794,308.383 521.083,307.334 
			520.406,307.128 517.866,305.761 517.278,305.508 514.221,303.171 513.856,302.912 511.61,300.822 510.511,299.822 
			510.329,299.692 510.141,299.339 507.384,296.502 505.814,294.619 505.767,294.531 504.65,292.859 503.669,291.229 
			503.434,290.788 502.577,288.752 502.436,288.487 501.707,286.269 501.449,284.934 500.992,282.798 500.881,281.951 
			500.805,280.745 500.706,278.645 500.778,276.228 500.708,275.245 501.086,272.551 501.122,272.192 501.075,272.104 
			501.541,269.363 501.701,268.599 502.149,266.887 502.396,266.076 503.08,263.105 503.251,262.788 503.375,262.382 
			504.029,259.994 504.395,258.553 504.59,257.43 504.743,256.442 505.133,254.195 505.24,251.418 505.276,251.06 505.223,250.748 
			504.884,247.983 504.49,246.606 503.456,244.664 503.174,244.135 501.235,241.769 501.141,241.592 499.042,239.991 
			498.677,239.732 496.907,238.749 496.048,238.413 494.19,237.476 492.837,237.064 492.296,236.899 491.079,236.527 
			489.414,236.168 487.656,235.631 484.868,235.077 484.462,234.953 483.968,234.876 481.092,234.368 478.71,233.938 
			477.945,233.778 475.022,233.182 474.258,233.023 474.122,232.982 473.628,232.905 471.47,232.469 470.123,232.279 
			468.141,231.749 466.564,231.342 463.365,230.44 462.689,230.234 459.895,229.456 459.036,229.12 456.602,228.377 
			455.114,227.923 453.173,227.257 452.496,227.051 449.521,226.143 449.115,226.02 448.621,225.943 445.098,224.647 
			442.798,223.945 441.399,223.444 437.835,222.283 437.699,222.242 437.517,222.113 433.859,220.775 432.371,220.321 
			429.613,219.184 426.678,218.141 425.502,217.635 422.209,216.556 421.938,216.474 421.891,216.385 419.139,215.472 
			418.462,215.266 417.157,214.941 416.257,214.741 414.857,214.24 413.369,213.786 412.74,213.668 411.252,213.214 410.529,212.92 
			408.311,211.948 408.311,211.948 406.536,210.741 405.384,209.428 405.107,209.122 404.878,208.904 404.067,206.957 
			403.909,206.021 403.405,203.798 403.335,202.815 403.277,200.58 403.055,198.886 403.132,198.392 403.15,197.362 
			403.339,196.015 403.693,194.127 403.775,193.857 405.366,189.611 405.661,188.887 406.038,187.893 407.057,185.765 
			407.434,184.771 408.659,181.966 409.502,179.931 409.973,179.113 410.143,178.796 410.232,178.749 410.402,178.431 
			411.557,176.344 412.193,174.985 412.793,173.986 413.347,172.898 414.307,170.234 414.679,169.016 414.72,168.881 
			414.761,168.746 414.885,168.34 415.799,165.588 416.817,163.459 417.289,162.641 418.666,160.548 419.314,159.637 
			419.791,159.043 420.662,158.126 421.616,156.938 422.269,156.25 423.223,155.063 423.523,154.563 423.652,154.381 
			424.518,153.24 426.331,150.688 426.89,149.824 427.585,149.001 428.015,148.318 428.362,147.907 429.534,146.49 430.011,145.896 
			431.311,144.297 431.924,143.744 432.359,143.286 433.101,142.551 436.15,139.341 436.715,138.7 437.021,138.424 439.428,136.349 
			440.782,135.062 442.8,133.533 445.349,131.723 445.525,131.629 449.273,129.52 451.215,128.486 452.757,127.551 454.169,126.799 
			455.14,126.282 457.129,125.336 457.217,125.289 459.565,124.379 460.141,124.185 461.601,123.521 462.93,123.04 466.519,121.695 
			466.784,121.554 467.008,121.548 468.337,121.067 470.867,120.286 472.067,119.986 473.797,119.405 474.597,119.206 
			476.909,118.654 479.845,117.997 480.333,117.85 480.734,117.751 482.693,117.387 483.54,117.276 485.811,116.86 486.881,116.743 
			489.64,116.18 489.864,116.174 492.317,115.887 492.988,115.87 493.794,115.894 496.164,115.878 498.135,115.961 499.97,116.003 
			502.835,116.064 504.852,116.236 506.376,116.331 508.975,116.532 512.563,116.888 512.881,117.058 513.193,117.006 
			516.657,117.767 518.998,118.333 519.492,118.409 521.886,119.287 524.362,119.895 526.167,120.519 527.926,121.056 
			529.19,121.515 530.049,121.851 530.86,122.099 532.666,122.723 533.842,123.23 535.018,123.737 535.971,124.249 536.829,124.585 
			539.999,126.069 541.128,126.487 543.98,127.801 544.974,128.178 547.556,129.409 548.597,129.874 549.949,130.287 
			552.661,131.336 555.272,131.984 555.725,132.196 556.219,132.273 557.977,132.809 559.512,133.351 559.918,133.475 
			560.459,133.64 562.447,134.394 563.488,134.86 565.975,135.914 566.564,136.168 566.834,136.25 567.74,136.674 570.774,138.117 
			571.903,138.536 574.35,139.725 575.438,140.279 576.343,140.703 579.013,141.887 579.331,142.058 581.33,143.259 
			584.188,144.796 584.688,145.096 584.87,145.226 585.005,145.267 586.052,145.956 588.962,147.805 589.462,148.105 
			592.837,150.613 593.519,151.043 596.994,153.951 597.176,154.08 600.657,157.212 600.839,157.341 601.709,158.124 
			604.143,160.567 604.419,160.873 604.601,161.002 605.107,161.526 607.594,164.281 610.074,166.812 610.074,166.812 
			610.074,166.812 612.426,169.525 614.177,171.538 615.1,172.632 615.747,173.421 617.927,176.452 617.927,176.452 
			617.927,176.452 620.772,180.942 620.866,181.118 621.007,181.383 622.088,183.413 622.746,184.649 		">
		</polygon>
	</g>
</g>
<g id="Layer_1">
</g>
</svg>
