<?xml version="1.0" encoding="iso-8859-1"?>
<!-- Generator: Adobe Illustrator 19.2.1, SVG Export Plug-In . SVG Version: 6.00 Build 0)  -->
<svg version="1.1" xmlns="http://www.w3.org/2000/svg" xmlns:xlink="http://www.w3.org/1999/xlink" x="0px" y="0px"
	 viewBox="0 0 841.89 595.28" style="enable-background:new 0 0 841.89 595.28;" xml:space="preserve">
<g id="layer247">
	<g id="layer247_1_" slic3r:z="9.90000000000009e-005">
		<polygon slic3r:type="contour" style="fill:#FFFFFF;stroke:#000000;stroke-miterlimit:10;" points="736.496,121.465 
			736.919,122.259 737.824,124.384 738.012,124.737 738.111,125.137 738.669,127.672 738.768,128.072 738.962,128.649 
			739.849,131.802 740.178,132.42 740.759,134.15 742.034,136.757 742.275,137.422 742.604,138.039 744.119,141.311 
			745.571,143.824 745.858,144.577 746.234,145.283 746.992,146.919 747.427,148.16 747.814,149.313 748.114,150.513 
			748.748,152.555 748.795,152.643 749.869,156.15 749.916,156.238 749.963,156.326 750.11,156.815 751.537,160.133 
			751.772,160.574 753.135,163.134 753.464,163.752 753.981,164.723 754.357,165.429 754.88,166.623 755.497,167.994 
			756.296,169.495 756.737,170.96 757.207,171.842 757.512,173.266 757.611,173.666 757.705,173.843 757.77,174.602 757.71,175.766 
			757.633,176.26 757.557,176.754 757.085,177.572 756.744,178.207 754.932,179.059 754.484,179.07 754.084,179.17 752.796,179.516 
			751.643,179.904 751.066,180.098 749.913,180.485 748.454,181.149 747.924,181.431 745.5,182.835 745.059,183.07 744.97,183.117 
			744.794,183.211 743.046,184.822 742.086,185.786 741.674,187.139 741.208,188.18 741.402,188.756 742.09,189.41 743.148,190.546 
			744.054,190.97 745.406,191.382 746.536,191.801 746.941,191.924 748.288,192.113 748.512,192.108 748.735,192.102 
			750.159,191.797 751.053,191.774 753.271,191.046 754.248,190.752 755.354,190.277 756.719,189.436 756.984,189.295 
			757.072,189.248 758.95,187.455 758.95,187.455 759.127,187.361 760.563,185.803 761.134,185.386 762.21,185.493 763.969,186.029 
			765.597,186.748 766.28,187.177 767.514,188.219 768.473,188.955 768.702,189.173 769.025,189.567 770.142,191.239 
			771.029,192.692 771.499,193.575 772.368,196.058 772.556,196.411 772.856,197.611 773.313,199.746 773.507,200.323 
			773.952,203.711 774.005,204.023 773.922,204.294 773.81,205.147 773.627,206.717 773.302,208.023 772.86,209.958 
			772.441,211.087 771.899,212.622 771.569,213.704 771.234,214.563 770.338,216.286 769.408,218.368 769.066,219.003 
			768.854,219.455 767.523,221.637 766.622,223.136 766.234,223.683 765.333,225.183 764.473,226.547 763.649,227.552 
			762.784,228.693 761.695,229.839 760.565,231.121 759.264,232.72 758.699,233.361 757.433,234.601 756.474,235.566 
			755.214,237.029 754.867,237.441 753.948,238.27 753.295,238.958 752.901,239.281 751.412,240.527 750.188,241.632 
			749.316,242.549 748.269,243.561 747.657,244.113 746.303,245.401 745.644,245.865 744.637,246.741 743.325,247.893 
			741.712,249.545 740.753,250.509 740.188,251.15 738.404,253.119 737.969,253.578 736.833,254.636 735.479,255.923 
			734.519,256.887 732.948,258.404 732.424,258.91 731.989,259.368 730.458,260.75 729.493,261.49 728.222,262.507 727.216,263.383 
			724.938,265.276 724.414,265.781 722.178,267.539 721.913,267.68 719.759,269.167 717.911,270.377 716.899,271.03 
			715.928,271.547 713.504,272.951 712.798,273.327 711.739,273.891 709.085,275.078 708.291,275.501 706.431,276.264 
			706.343,276.311 705.013,276.793 702.401,277.844 702.401,277.844 701.424,278.138 699.253,278.954 699.165,279.001 
			699.165,279.001 699.077,279.048 695.752,280.252 693.981,280.969 692.652,281.45 690.969,282.12 688.886,282.889 
			688.356,283.171 686.497,283.935 685.126,284.552 684.861,284.693 683.667,285.215 682.826,285.55 681.325,286.349 
			679.071,287.436 678.407,287.677 677.436,288.194 675.67,289.134 674.964,289.51 674.346,289.839 672.669,290.732 
			671.169,291.531 670.245,292.137 668.833,292.889 667.597,293.547 664.378,295.374 664.29,295.421 664.202,295.468 
			663.631,295.885 661.207,297.29 660.854,297.478 658.606,298.788 658.076,299.07 655.875,300.469 655.61,300.61 653.498,301.962 
			652.133,302.802 649.932,304.201 649.226,304.577 648.873,304.765 648.037,305.323 645.524,306.774 643.983,307.709 
			642.794,308.455 640.987,309.531 638.916,310.747 638.169,311.258 636.933,311.916 635.521,312.668 634.773,313.18 
			632.655,314.308 631.025,315.289 628.954,316.506 628.424,316.788 628.159,316.929 625.6,318.292 624.188,319.044 
			624.011,319.138 623.834,319.232 622.905,319.614 620.21,320.936 619.592,321.265 618.574,321.693 616.273,322.692 
			613.349,323.796 612.331,324.225 608.566,325.664 608.566,325.664 608.478,325.711 605.553,326.815 604.535,327.244 
			603.117,327.772 602.629,327.919 599.793,328.976 599.57,328.982 597.134,329.939 596.646,330.086 596.557,330.133 
			593.857,331.231 592.35,331.807 590.579,332.523 590.403,332.617 588.367,333.475 586.819,334.186 584.872,334.996 
			582.618,336.083 581.071,336.794 579.347,337.599 579.123,337.605 577.399,338.409 574.922,339.502 573.728,340.025 
			571.562,341.065 569.968,341.687 568.862,342.163 566.649,343.115 565.543,343.59 563.148,344.413 562.484,344.653 
			562.26,344.659 561.995,344.8 559.601,345.622 557.559,346.256 557.071,346.403 553.341,347.483 551.252,348.029 549.075,348.622 
			545.075,349.619 544.987,349.666 544.898,349.713 540.892,350.487 538.668,350.992 537.509,351.156 536.621,351.402 
			532.703,352.129 532.526,352.223 532.391,352.182 530.744,352.493 528.432,353.044 528.208,353.05 528.12,353.097 
			526.072,353.508 525.049,353.713 523.849,354.012 521.666,354.381 519.754,354.833 519.307,354.845 518.683,354.95 
			516.724,355.314 515.612,355.566 514.142,355.783 511.735,356.158 511.512,356.163 511.424,356.21 508.835,356.456 
			507.318,356.584 506.2,356.613 504.235,356.753 503.476,356.817 503.164,356.87 500.841,356.975 498.923,357.203 498.205,357.132 
			496.599,357.307 494.77,357.489 492.805,357.629 490.664,357.863 490.129,357.921 489.146,357.991 487.405,358.125 
			486.511,358.148 484.769,358.283 482.269,358.481 482.046,358.487 481.51,358.545 479.322,358.691 478.252,358.808 
			477.493,358.872 476.599,358.895 474.01,359.141 473.922,359.188 473.834,359.235 469.863,359.65 466.833,360.13 465.674,360.294 
			463.892,360.564 461.486,360.939 459.88,361.114 457.25,361.495 453.638,361.946 453.326,361.999 453.191,361.957 452.879,362.01 
			451.002,362.103 449.573,362.185 448.902,362.202 448.144,362.266 444.926,362.394 444.567,362.358 440.802,362.097 
			439.456,361.908 436.944,361.659 436.497,361.671 436.362,361.629 434.703,361.493 433.044,361.357 432.462,361.327 
			429.597,361.267 428.344,361.254 428.032,361.307 427.226,361.283 424.05,361.275 421.862,361.421 420.879,361.491 
			419.762,361.519 419.538,361.525 417.932,361.701 416.414,361.829 415.791,361.935 412.049,362.568 411.826,362.573 
			411.737,362.62 411.737,362.62 411.202,362.679 407.378,363.582 405.513,364.122 403.201,364.674 399.153,365.583 399.065,365.63 
			399.065,365.63 398.8,365.771 394.941,367.034 393.393,367.745 391.981,368.497 390.833,369.108 388.539,370.33 387.085,371.217 
			386.82,371.358 386.644,371.452 384.749,372.575 384.043,372.951 383.249,373.374 379.194,375.759 378.623,376.177 
			378.447,376.271 378.182,376.412 377.211,376.929 374.61,378.427 373.816,378.85 373.421,379.174 371.174,380.484 
			369.502,381.601 369.238,381.742 368.973,381.883 365.271,384.08 364.259,384.733 362.935,385.438 361.046,386.784 
			361.046,386.784 360.958,386.831 359.728,387.712 356.786,389.846 355.997,390.492 355.297,391.092 353.46,392.75 
			352.848,393.302 352.501,393.714 351.5,394.813 349.758,396.647 348.239,398.476 347.804,398.934 347.062,399.669 
			344.184,402.562 343.878,402.838 342.047,404.719 340.917,406.001 340.523,406.324 340.046,406.918 339.61,407.376 
			336.914,410.398 336.479,410.857 335.696,411.727 334.307,413.373 333.482,414.379 332.876,415.155 332.181,415.978 
			331.01,417.395 330.051,418.359 328.791,419.823 327.402,421.469 326.666,422.427 326.666,422.427 326.666,422.427 
			324.711,424.715 323.151,426.678 322.934,426.908 322.321,427.46 321.409,428.512 319.714,430.435 317.971,432.269 
			317.624,432.681 317.23,433.004 316.053,434.197 314.917,435.256 313.693,436.361 312.863,437.143 312.074,437.789 
			311.944,437.971 310.979,438.712 309.449,440.093 309.273,440.187 307.96,441.34 306.554,442.315 305.153,443.514 
			303.752,444.714 303.181,445.131 301.563,446.559 300.862,447.159 300.25,447.711 299.773,448.305 297.678,450.327 
			296.936,451.062 296.76,451.156 295.93,451.938 294.182,453.549 292.304,455.342 292.175,455.524 291.998,455.618 290.38,457.047 
			288.155,459.251 288.067,459.298 287.979,459.345 284.835,462.378 284.312,462.884 283.876,463.343 283.7,463.437 
			281.952,465.047 280.38,466.564 279.944,467.023 279.374,467.44 278.897,468.034 277.673,469.139 276.584,470.285 275.142,471.62 
			272.787,474.006 271.651,475.065 271.257,475.388 269.862,476.811 268.991,477.728 267.772,479.056 266.336,480.614 
			265.288,481.625 262.234,484.612 261.58,485.3 260.138,486.634 258.22,488.562 257.914,488.839 257.784,489.021 257.696,489.068 
			256.383,490.22 254.023,492.383 253.629,492.707 251.528,494.505 249.644,496.075 249.515,496.257 249.427,496.304 
			247.849,497.597 246.319,498.979 246.101,499.208 245.619,499.578 245.136,499.948 241.587,502.858 241.499,502.905 
			241.193,503.181 239.569,504.386 237.68,505.732 237.591,505.779 237.503,505.826 235.655,507.037 233.849,508.112 
			232.484,508.952 230.365,510.081 227.847,511.308 227.053,511.732 226.258,512.155 223.781,513.247 221.833,514.058 
			221.039,514.481 218.515,515.485 217.273,515.92 215.944,516.401 214.791,516.789 213.414,517.182 210.707,518.057 
			210.619,518.104 210.443,518.198 207.866,518.89 206.842,519.096 204.353,519.741 203.953,519.841 203.73,519.847 
			200.035,520.568 198.7,520.826 196.382,521.154 194.329,521.341 193.082,521.552 190.893,521.698 190.182,521.85 189.287,521.873 
			186.652,522.03 185.581,522.147 183.928,522.235 182.899,522.216 181.158,522.351 179.37,522.397 176.999,522.413 175.746,522.4 
			171.675,522.415 171.364,522.468 171.228,522.427 171.005,522.433 166.305,522.33 164.828,522.323 162.411,522.251 
			161.605,522.227 159.634,522.143 158.829,522.119 158.334,522.043 155.782,521.929 153.629,521.716 151.835,521.539 
			150.488,521.35 149.547,521.284 148.335,521.137 146.582,520.824 145.235,520.635 142.312,520.039 141.459,519.927 
			139.03,519.407 138.489,519.242 138.266,519.248 136.331,518.806 134.978,518.393 133.172,517.768 131.232,517.103 
			130.102,516.684 128.432,516.101 126.397,515.258 125.539,514.923 124.951,514.669 122.504,513.48 121.958,513.091 
			120.052,512.066 118.6,511.254 116.871,510.135 114.825,508.846 112.226,506.944 109.856,505.26 107.575,503.529 104.236,500.663 
			103.595,500.098 103.23,499.839 102.313,498.967 99.979,496.925 98.509,495.441 98.233,495.135 96.581,493.523 94.7,491.692 
			90.42,487.06 87.575,484.27 83.66,479.897 81.82,477.931 80.121,476.23 77.447,473.123 76.665,472.293 74.125,469.227 
			73.25,468.22 71.304,465.631 70.699,464.707 69.259,462.641 68.648,461.494 67.431,459.423 67.196,458.981 66.339,456.945 
			65.916,456.151 65.822,455.975 65.816,455.751 64.512,452.027 64.16,450.515 63.509,447.803 63.063,446.114 62.782,443.884 
			62.537,441.296 62.414,440.002 62.352,435.843 62.352,435.843 62.305,435.755 62.642,431.496 62.732,429.749 63.069,427.19 
			63.518,423.779 63.76,422.744 64.232,420.227 64.592,418.562 64.663,417.844 65.022,416.18 65.589,413.839 65.583,413.616 
			65.712,413.433 66.644,409.652 67.534,406.005 67.741,405.329 67.859,404.699 68.932,401.182 69.097,400.641 69.721,398.836 
			70.77,396.125 70.935,395.584 71.059,395.178 72.113,392.69 72.702,391.243 72.785,390.973 74.098,388.121 74.899,386.221 
			75.029,386.039 75.836,384.363 76.808,382.146 77.149,381.511 77.573,380.605 78.469,378.882 79.364,377.159 79.876,376.207 
			80.218,375.572 81.749,372.49 81.837,372.443 81.92,372.173 83.292,369.856 84.104,368.403 84.876,367.086 85.347,366.269 
			86.419,364.452 86.89,363.634 88.226,361.676 88.615,361.13 89.951,359.172 91.117,357.531 91.723,356.755 92.936,355.203 
			93.066,355.021 93.195,354.838 94.673,353.145 96.191,351.317 96.756,350.676 97.321,350.035 99.017,348.112 99.888,347.195 
			101.807,345.267 102.025,345.038 102.331,344.761 103.855,343.156 104.991,342.098 105.515,341.593 105.997,341.223 
			107.31,340.07 108.84,338.689 109.146,338.413 109.364,338.183 110.853,336.937 112.342,335.691 112.648,335.415 113.131,335.044 
			114.796,333.704 116.856,332.041 117.121,331.9 117.25,331.718 119.181,330.236 120.628,329.126 120.846,328.896 122.735,327.55 
			123.13,327.227 125.366,325.47 126.025,325.005 127.602,323.712 129.315,322.46 129.315,322.46 129.797,322.09 131.51,320.838 
			131.463,320.75 134.188,318.846 134.229,318.71 136.865,316.853 137.26,316.53 139.237,315.137 140.202,314.396 141.126,313.791 
			142.75,312.586 143.103,312.398 144.816,311.146 146.311,310.124 147.364,309.336 148.641,308.543 150.136,307.52 
			152.378,305.986 152.86,305.616 153.213,305.428 155.632,303.8 157.521,302.454 158.533,301.802 159.587,301.014 160.993,300.038 
			162.005,299.386 163.324,298.457 165.213,297.111 165.477,296.97 167.543,295.531 168.202,295.066 170.356,293.579 
			171.28,292.974 171.545,292.833 172.204,292.369 174.316,291.017 175.417,290.318 176.605,289.571 177.971,288.731 
			180.389,287.103 180.742,286.915 180.96,286.686 183.732,284.87 184.567,284.311 186.545,282.919 187.204,282.454 
			187.645,282.219 189.799,280.732 190.458,280.268 191.423,279.527 192.524,278.828 194.018,277.805 194.942,277.2 196.92,275.807 
			198.544,274.602 199.909,273.762 201.622,272.51 202.587,271.77 203.464,271.076 204.605,270.241 206.141,269.083 
			206.406,268.942 208.03,267.738 210.096,266.298 210.755,265.833 211.326,265.416 213.433,263.841 214.527,262.918 
			215.757,262.036 216.899,261.202 217.823,260.596 219.359,259.439 220.018,258.974 220.854,258.416 222.172,257.487 
			223.402,256.606 224.455,255.818 225.332,255.125 227.221,253.779 228.846,252.574 229.899,251.786 232.006,250.211 
			232.753,249.7 233.542,249.053 235.254,247.801 236.043,247.155 238.062,245.626 238.544,245.256 241.045,243.358 
			241.351,243.081 241.834,242.711 243.635,241.412 244.729,240.489 247.142,238.638 247.407,238.497 247.625,238.268 
			250.214,236.322 251.356,235.487 252.321,234.747 253.639,233.818 255.175,232.66 255.923,232.149 257.765,230.715 
			260.048,229.046 260.489,228.811 260.884,228.487 262.596,227.235 263.65,226.448 264.091,226.213 265.144,225.425 
			266.374,224.544 267.475,223.844 269.099,222.639 269.582,222.269 270.241,221.805 271.953,220.553 273.578,219.348 
			274.678,218.649 275.643,217.908 276.608,217.168 277.62,216.515 279.904,214.846 280.122,214.617 280.563,214.382 
			282.758,212.76 283.594,212.201 284.206,211.649 285.347,210.814 286.53,209.844 287.672,209.01 288.814,208.175 291.05,206.417 
			292.28,205.536 292.763,205.166 293.64,204.472 295.352,203.22 295.923,202.803 296.847,202.197 298.077,201.316 299.307,200.434 
			299.966,199.97 301.331,199.13 304.632,197.032 305.203,196.614 305.38,196.52 306.48,195.821 309.387,194.046 309.605,193.817 
			309.781,193.723 312.512,192.042 313.965,191.155 313.965,191.155 314.054,191.108 318.149,188.587 318.855,188.211 
			321.103,186.9 322.162,186.336 322.515,186.148 323.839,185.443 326.529,183.898 328.959,182.717 330.371,181.965 330.9,181.683 
			332.754,180.696 333.901,180.085 335.796,178.962 338.75,177.276 339.103,177.088 339.368,176.947 341.969,175.448 
			343.511,174.514 343.599,174.467 343.687,174.42 343.687,174.42 347.783,171.899 348.354,171.482 349.542,170.735 351.349,169.66 
			352.008,169.196 352.538,168.914 353.109,168.496 355.445,167.139 356.28,166.581 357.91,165.599 360.641,163.919 
			362.665,162.614 363.106,162.379 363.677,161.962 364.778,161.262 366.973,159.64 368.291,158.712 369.038,158.2 369.915,157.507 
			371.539,156.302 373.075,155.144 373.205,154.962 373.47,154.821 374.041,154.403 375.977,153.146 377.118,152.311 
			377.471,152.123 379.408,150.865 380.684,150.072 381.785,149.373 382.491,148.997 384.339,147.786 384.868,147.504 
			385.351,147.134 386.01,146.669 387.552,145.735 389.882,144.154 390.147,144.013 390.235,143.966 392.036,142.667 
			394.402,140.727 394.49,140.68 394.62,140.498 396.244,139.293 398.522,137.401 398.698,137.307 398.786,137.26 400.546,136.096 
			402.912,134.156 403,134.109 403.088,134.062 405.325,132.305 406.984,130.741 407.202,130.512 407.29,130.465 408.915,129.26 
			410.933,127.732 410.975,127.596 411.328,127.408 411.545,127.179 412.646,126.48 415.453,124.305 415.718,124.164 
			415.806,124.117 415.806,124.117 419.802,121.196 420.108,120.92 420.108,120.92 423.109,119.321 424.339,118.44 424.957,118.111 
			428.564,115.736 428.87,115.46 429.529,114.996 430.63,114.297 431.771,113.462 432.431,112.998 432.825,112.674 434.014,111.928 
			435.202,111.182 437.086,109.612 437.792,109.236 438.539,108.725 441.316,107.132 441.758,106.897 443.123,106.057 
			443.211,106.01 443.388,105.916 445.288,105.017 445.553,104.876 448.601,103.366 448.954,103.178 449.354,103.079 
			449.796,102.844 453.732,101.087 453.908,100.993 453.997,100.946 458.209,99.496 459.716,98.92 462.469,98.134 465.705,96.977 
			466.593,96.73 468.635,96.096 470.765,95.415 471.741,95.122 474.942,94.324 477.742,93.625 479.166,93.32 483.572,92.446 
			484.243,92.429 485.043,92.23 488.343,91.832 491.244,91.533 491.867,91.428 492.138,91.51 492.985,91.399 495.62,91.242 
			496.556,91.084 497.85,90.961 498.52,90.944 499.144,90.838 500.797,90.751 501.868,90.634 504.321,90.347 505.568,90.136 
			507.839,89.72 508.863,89.515 511.892,89.034 512.292,88.935 512.692,88.835 515.14,88.324 516.516,87.931 518.293,87.438 
			520.823,86.657 521.447,86.552 524.506,85.489 524.859,85.301 525.171,85.248 528.183,84.097 528.937,83.809 529.025,83.762 
			529.113,83.715 531.99,82.523 532.167,82.429 532.92,82.141 534.909,81.195 535.485,81.002 537.121,80.244 537.474,80.056 
			539.022,79.345 541.628,78.07 542.07,77.835 542.817,77.324 544.494,76.431 547.36,74.791 547.448,74.744 547.625,74.65 
			551.114,72.905 551.249,72.946 551.379,72.764 554.38,71.166 556.151,70.449 556.904,70.162 557.216,70.109 558.586,69.492 
			560.181,68.87 560.581,68.77 561.958,68.376 563.646,67.93 564.27,67.825 566.582,67.273 567.341,67.209 568.058,67.28 
			569.311,67.293 570.611,67.394 571.911,67.494 573.976,67.754 575.281,68.079 576.134,68.191 577.617,68.421 579.057,68.787 
			581.44,69.218 582.475,69.46 583.016,69.625 584.004,69.778 586.968,70.239 588.898,70.458 589.168,70.54 591.374,71.065 
			591.509,71.106 593.856,71.896 596.92,72.757 597.008,72.71 597.008,72.71 600.225,74.282 600.678,74.494 601.354,74.7 
			604.6,75.691 605.547,75.979 608.065,76.452 609.105,76.917 610.717,76.965 612.511,77.143 614.888,77.35 615.246,77.385 
			615.517,77.468 618.393,77.976 620.899,78.001 622.34,78.366 624.087,78.455 624.493,78.579 626.116,79.074 626.569,79.286 
			629.686,80.459 630.091,80.583 632.797,81.408 633.067,81.49 633.791,81.785 635.326,82.327 637.09,83.087 637.86,83.47 
			638.313,83.682 641.165,84.995 642.706,85.761 644.964,86.598 646.005,87.063 647.769,87.823 648.222,88.035 649.622,88.536 
			652.374,89.449 652.51,89.49 652.645,89.532 652.645,89.532 656.156,90.381 656.291,90.422 659.662,91.007 663.026,91.367 
			664.279,91.38 665.62,91.345 666.873,91.358 667.903,91.376 671.291,90.931 671.779,90.785 672.627,90.673 674.627,90.174 
			676.804,89.582 677.645,89.247 679.734,88.701 680.575,88.366 682.216,87.832 683.058,87.497 684.84,87.228 684.84,87.228 
			684.84,87.228 686.54,87.229 687.258,87.3 688.658,87.801 689.152,87.877 689.516,88.137 690.963,88.726 691.598,89.067 
			694.268,90.251 694.586,90.422 694.721,90.463 694.903,90.593 698.22,92.565 699.625,93.29 701.801,94.397 703.477,95.204 
			705.653,96.311 706.423,96.694 708.011,97.548 709.01,98.148 709.734,98.443 711.909,99.55 714.038,100.569 714.856,101.04 
			716.032,101.547 717.437,102.271 719.254,103.343 720.389,103.985 720.66,104.067 721.024,104.326 723.987,106.487 
			724.399,106.834 725.722,107.829 727.139,109.001 727.644,109.524 730.026,111.655 730.39,111.914 731.96,113.798 
			732.142,113.927 732.142,113.927 733.352,115.775 734.751,117.976 734.986,118.417 735.456,119.3 		">
		</polygon>
	</g>
</g>
<g id="Layer_1">
</g>
</svg>
