<?xml version="1.0" encoding="iso-8859-1"?>
<!-- Generator: Adobe Illustrator 19.2.1, SVG Export Plug-In . SVG Version: 6.00 Build 0)  -->
<svg version="1.1" xmlns="http://www.w3.org/2000/svg" xmlns:xlink="http://www.w3.org/1999/xlink" x="0px" y="0px"
	 viewBox="0 0 841.89 595.28" style="enable-background:new 0 0 841.89 595.28;" xml:space="preserve">
<g id="layer255">
	<g id="layer255_1_" slic3r:z="0.000102200000000001">
		<polygon slic3r:type="contour" style="fill:#FFFFFF;stroke:#000000;stroke-miterlimit:10;" points="740.51,117.515 
			741.379,119.997 741.955,121.504 742.36,123.327 743.041,125.457 743.187,125.946 743.434,126.834 744.068,128.876 
			744.403,129.717 745.166,131.576 745.889,133.571 745.983,133.747 747.393,136.395 747.675,136.925 748.756,138.955 
			749.638,140.185 749.967,140.803 750.113,141.291 750.407,142.268 750.424,142.938 750.282,144.374 750.158,144.779 
			750.117,144.915 750.123,145.138 748.886,147.496 748.55,148.355 747.955,149.578 747.832,149.984 747.237,151.207 
			747.236,152.907 747.323,154.56 748.128,156.284 749.344,158.355 749.761,158.926 750.355,159.403 751.513,160.939 
			751.836,161.333 752.213,162.039 753.641,163.658 754.152,164.405 755.304,165.718 756.833,167.736 757.567,168.478 
			758.214,169.267 758.866,170.279 759.701,171.42 759.983,171.95 761.517,174.192 761.564,174.28 761.658,174.457 763.245,177.011 
			763.709,177.67 765.29,180 765.801,180.748 767.106,182.772 767.476,183.255 768.792,185.726 768.98,186.079 770.396,188.95 
			770.966,190.233 772.006,192.398 772.44,193.64 772.734,194.617 773.092,196.352 773.209,197.423 773.384,199.029 
			773.407,199.923 773.217,202.97 773.193,203.776 773.11,204.046 772.209,207.246 771.79,208.375 771.113,209.869 770.047,211.909 
			769.535,212.862 769.099,213.32 768.887,213.773 767.986,215.273 767.168,216.501 766.779,217.048 765.213,218.788 
			763.43,220.758 763.3,220.94 763.082,221.17 761.07,222.921 759.104,224.761 758.798,225.038 757.526,226.054 756.297,226.936 
			756.167,227.118 755.902,227.259 753.572,228.84 752.736,229.399 751.106,230.38 749.918,231.126 748.505,231.878 
			747.011,232.901 745.951,233.465 744.457,234.488 744.28,234.582 743.315,235.322 742.479,235.881 742.391,235.928 
			740.372,237.456 739.76,238.008 738.36,239.207 736.523,240.865 736.394,241.047 736.176,241.277 734.387,243.023 
			733.039,244.534 731.95,245.68 731.037,246.732 729.513,248.337 727.9,249.989 727.465,250.448 725.204,253.011 725.204,253.011 
			725.028,253.105 722.891,255.263 721.455,256.821 721.367,256.868 719.707,258.431 718.877,259.213 717.388,260.459 
			715.505,262.029 714.804,262.628 713.798,263.504 712.744,264.292 711.12,265.497 708.613,267.172 708.484,267.354 
			708.484,267.354 708.042,267.589 704.694,269.599 704.123,270.016 699.274,272.825 698.921,273.013 698.745,273.107 
			698.48,273.248 694.332,275.457 694.155,275.551 693.802,275.739 691.86,276.773 690.272,277.619 688.595,278.512 
			687.888,278.888 685.199,280.434 684.758,280.669 681.757,282.267 681.316,282.502 680.521,282.925 678.756,283.865 
			677.785,284.382 676.373,285.134 675.449,285.74 674.084,286.58 673.995,286.627 672.583,287.379 669.5,289.248 669.5,289.248 
			669.5,289.248 669.411,289.295 669.411,289.295 666.328,291.164 665.051,291.957 663.421,292.938 661.261,294.202 
			660.779,294.572 659.767,295.224 658.931,295.783 657.083,296.993 656.554,297.275 654.659,298.398 653.164,299.42 
			652.988,299.514 651.005,300.684 650.081,301.289 647.397,303.058 647.132,303.199 646.779,303.387 644.314,304.927 
			643.302,305.579 640.836,307.119 640.571,307.26 640.089,307.63 638.37,308.658 637.799,309.076 636.787,309.728 636.081,310.104 
			632.998,311.973 632.909,312.02 632.909,312.02 632.909,312.02 629.473,314.076 628.414,314.641 627.225,315.387 625.065,316.65 
			623.789,317.444 622.111,318.337 621.364,318.848 620.04,319.553 617.834,320.728 616.245,321.574 615.715,321.856 
			615.05,322.097 611.338,323.848 611.073,323.989 611.073,323.989 609.213,324.752 607.001,325.704 606.913,325.751 
			606.689,325.757 603.147,327.19 602.129,327.619 600.711,328.147 598.187,329.152 595.175,330.303 594.069,330.778 
			590.485,332.347 589.909,332.541 589.732,332.635 585.796,334.391 585.131,334.632 584.16,335.149 582.524,335.907 
			581.595,336.289 579.076,337.516 578.5,337.71 578.147,337.898 577.705,338.133 575.187,339.361 573.816,339.978 572.757,340.542 
			571.874,341.012 569.309,342.152 568.779,342.434 568.514,342.575 564.619,344.196 563.16,344.86 560.459,345.958 
			557.535,347.062 556.252,347.632 553.24,348.783 552.175,349.124 551.598,349.317 547.962,350.574 545.786,351.167 
			543.744,351.801 539.92,352.704 539.608,352.757 539.432,352.851 535.384,353.76 532.984,354.359 531.207,354.852 
			527.565,355.885 527.03,355.944 526.765,356.085 522.9,357.123 520.499,357.722 518.675,358.127 515.34,358.883 514.451,359.13 
			514.004,359.141 510.31,359.863 509.104,359.939 507.009,360.261 506.162,360.372 503.886,360.565 501.968,360.793 
			499.691,360.986 498.532,361.15 497.774,361.214 495.856,361.442 493.673,361.811 493.226,361.823 492.514,361.975 
			490.596,362.204 489.438,362.368 487.967,362.584 485.472,363.006 485.337,362.965 485.337,362.965 482.661,363.258 
			481.102,363.521 480.119,363.591 478.384,363.949 477.537,364.06 477.001,364.119 476.289,364.271 474.195,364.594 
			472.948,364.805 472.324,364.91 471.477,365.021 469.695,365.291 468.583,365.543 464.712,366.359 464.4,366.411 463.911,366.558 
			460.264,367.368 458.217,367.778 456.081,368.236 452.74,368.769 451.892,368.88 451.357,368.939 447.745,369.389 
			444.086,369.752 443.551,369.81 441.18,369.827 439.615,369.867 436.039,369.959 435.457,369.929 435.28,370.023 434.386,370.046 
			431.127,370.309 428.538,370.554 426.979,370.818 424.573,371.193 422.791,371.462 422.614,371.556 421.855,371.621 
			421.544,371.673 418.426,372.201 415.531,372.723 414.731,372.922 413.796,373.08 410.595,373.879 410.283,373.931 
			407.889,374.753 407.224,374.994 406.071,375.382 403.588,376.251 402.658,376.633 400.352,377.408 397.916,378.365 
			397.651,378.506 397.21,378.741 397.033,378.835 393.491,380.268 391.591,381.167 389.249,382.301 386.378,383.717 
			385.848,383.999 385.054,384.422 383.33,385.227 381.211,386.355 380.811,386.454 379.528,387.024 377.098,388.205 
			376.569,388.487 376.216,388.675 375.951,388.816 372.285,390.655 371.714,391.073 370.92,391.496 368.148,393.312 
			366.612,394.469 365.294,395.398 363.805,396.644 363.016,397.291 362.139,397.984 359.561,400.377 359.079,400.747 
			358.949,400.929 358.161,401.576 356.807,402.863 355.241,404.604 354.894,405.015 354.37,405.521 353.458,406.573 
			350.927,409.054 350.797,409.236 350.579,409.466 347.701,412.358 347.048,413.046 346.918,413.228 346.701,413.457 
			344.958,415.292 343.522,416.849 342.698,417.855 342.568,418.037 342.351,418.266 340.049,420.965 338.872,422.158 
			338.001,423.076 337.524,423.669 337.129,423.993 336.435,424.816 335.122,425.968 333.774,427.479 333.162,428.031 
			332.638,428.537 331.679,429.501 329.448,431.482 329.054,431.805 328.66,432.129 326.906,433.516 325.152,434.903 
			324.452,435.503 323.84,436.055 321.168,438.271 320.291,438.965 318.449,440.399 316.165,442.068 315.989,442.162 
			315.989,442.162 312.387,444.76 311.993,445.083 311.51,445.454 309.751,446.617 308.174,447.91 307.209,448.651 306.461,449.162 
			304.884,450.455 303.919,451.196 303.348,451.613 302.865,451.984 301.241,453.188 298.61,455.269 297.863,455.78 
			296.592,456.797 295.362,457.679 294.791,458.096 294.267,458.602 291.148,460.829 289.83,461.758 288.777,462.546 287.9,463.239 
			286.846,464.027 286.187,464.491 285.487,465.091 284.039,466.202 281.673,468.141 281.544,468.324 281.279,468.465 
			279.613,469.805 278.301,470.957 277.73,471.374 277.118,471.927 274.052,474.466 273.875,474.56 273.045,475.342 
			272.957,475.389 272.957,475.389 271.121,477.047 269.767,478.334 269.067,478.934 267.713,480.221 266.053,481.785 
			265.835,482.014 265.27,482.655 263.522,484.266 261.474,486.376 260.379,487.299 258.849,488.68 257.495,489.968 
			257.189,490.244 256.883,490.52 255.482,491.719 253.469,493.471 252.987,493.841 252.593,494.165 249.309,496.933 
			248.343,497.674 247.29,498.461 245.101,500.307 244.924,500.401 244.659,500.542 240.669,503.687 239.792,504.38 236.72,506.696 
			236.632,506.743 236.632,506.743 236.544,506.79 235.885,507.255 231.971,509.905 231.795,509.999 231.706,510.046 
			227.652,512.432 227.476,512.526 227.034,512.761 223.857,514.453 221.65,515.628 221.25,515.728 219.703,516.439 218.155,517.15 
			217.89,517.291 217.537,517.479 214.525,518.63 212.489,519.487 212.177,519.54 210.006,520.356 209.783,520.362 209.783,520.362 
			209.694,520.409 207.388,521.184 206.853,521.243 205.388,521.683 204.011,522.076 203.211,522.276 202.499,522.428 
			201.122,522.822 199.963,522.986 198.54,523.291 197.339,523.59 195.245,523.912 194.798,523.924 194.71,523.971 194.621,524.018 
			191.321,524.416 190.027,524.538 189.492,524.597 188.198,524.72 187.215,524.79 185.162,524.977 184.356,524.953 
			183.821,525.011 181.05,525.127 179.262,525.173 176.403,525.336 175.732,525.353 174.703,525.335 172.379,525.439 
			170.95,525.521 168.756,525.443 166.297,525.506 164.821,525.5 163.568,525.487 161.197,525.503 159.674,525.408 157.75,525.413 
			154.838,525.264 154.48,525.229 151.656,525.033 150.58,524.926 147.98,524.725 145.692,524.47 144.433,524.234 141.739,523.856 
			141.516,523.862 141.11,523.738 138.593,523.266 136.704,522.912 136.163,522.747 134.634,522.428 133.464,522.145 
			133.193,522.063 130.758,521.32 129.541,520.949 128.006,520.407 127.012,520.029 125.024,519.275 124.301,518.981 
			123.531,518.598 121.672,517.661 119.314,516.425 117.086,515.006 114.54,513.416 111.076,510.955 110.03,510.266 
			109.618,509.919 108.889,509.401 105.326,506.54 103.404,504.845 98.542,500.183 98.542,500.183 98.542,500.183 98.495,500.094 
			98.495,500.094 91.964,493.149 89.295,490.265 84.957,485.098 81.871,481.643 79.237,478.4 77.574,476.341 77.021,475.728 
			74.988,473.186 73.601,471.432 71.426,468.625 71.238,468.272 69.569,465.989 68.681,464.535 67.982,463.435 66.765,461.363 
			66.295,460.481 66.107,460.128 64.451,456.591 64.116,455.75 63.394,453.755 63.065,453.138 62.431,451.096 62.043,449.943 
			61.55,448.166 61.356,447.589 60.893,445.23 60.793,444.83 60.477,442.96 60.401,441.754 60.348,441.442 60.267,440.012 
			60.179,438.359 60.239,437.195 60.246,435.718 60.187,435.183 60.365,433.389 60.348,432.718 60.389,432.583 60.684,430.16 
			61.033,428.048 61.104,427.331 61.299,426.207 61.735,424.049 61.93,422.925 62.65,419.596 63.015,418.155 63.216,417.255 
			63.699,415.185 63.859,414.42 64.513,412.033 64.719,411.356 65.008,410.409 65.256,409.598 66.117,406.534 66.282,405.992 
			66.323,405.857 66.364,405.722 66.782,404.593 67.602,401.664 67.731,401.482 67.896,400.941 68.521,399.135 69.275,397.147 
			69.57,396.424 69.864,395.701 70.789,393.395 71.502,391.543 71.844,390.908 72.221,389.914 73.234,387.561 73.958,386.156 
			74.465,384.98 75.189,383.574 76.079,381.628 76.42,380.993 76.674,380.405 77.61,378.546 78.122,377.594 78.293,377.276 
			79.536,375.142 79.96,374.236 80.643,372.966 81.202,372.102 81.797,370.878 82.356,370.014 82.61,369.426 83.469,368.062 
			84.8,365.88 84.93,365.698 84.971,365.563 85.577,364.787 87.214,362.329 87.385,362.011 87.82,361.553 90.069,358.542 
			91.152,357.172 91.8,356.261 93.06,354.797 94.755,352.874 95.408,352.187 95.756,351.775 98.193,349.118 98.234,348.982 
			98.322,348.935 100.765,346.502 101.289,345.996 103.037,344.385 103.908,343.468 105.832,341.764 106.356,341.258 
			107.71,339.971 108.846,338.912 109.24,338.589 111.341,336.79 112,336.326 112.042,336.191 114.584,334.157 115.679,333.234 
			117.038,332.17 118.833,330.648 119.139,330.372 120.717,329.079 121.287,328.661 122.517,327.78 123.483,327.039 
			124.754,326.022 126.331,324.729 127.12,324.082 127.69,323.665 129.356,322.325 130.586,321.443 131.157,321.026 
			132.693,319.868 134.27,318.575 135.412,317.74 136.642,316.859 138.178,315.701 139.978,314.402 140.155,314.308 
			140.373,314.079 142.262,312.733 143.492,311.851 144.545,311.064 145.599,310.276 146.74,309.441 147.97,308.56 148.935,307.819 
			150.077,306.985 150.648,306.567 151.042,306.244 151.966,305.639 152.802,305.08 155.703,303.082 156.097,302.759 
			156.362,302.618 156.933,302.201 159.393,300.437 160.582,299.691 162.165,298.621 163.659,297.599 165.943,295.93 
			166.472,295.648 166.955,295.277 168.626,294.161 170.474,292.95 170.65,292.856 170.868,292.627 172.539,291.51 173.64,290.811 
			174.74,290.111 175.358,289.782 176.588,288.901 178.436,287.69 179.401,286.95 181.031,285.968 183.538,284.293 183.626,284.246 
			183.715,284.199 185.957,282.665 188.287,281.084 188.287,281.084 188.287,281.084 190.835,279.274 192.153,278.346 
			193.119,277.605 194.042,277 196.591,275.189 196.808,274.96 196.897,274.913 197.161,274.772 200.28,272.545 201.334,271.757 
			203.093,270.593 203.488,270.27 204.847,269.206 206.43,268.137 206.825,267.813 207.484,267.349 209.814,265.768 
			211.744,264.287 212.097,264.099 213.986,262.753 215.787,261.454 215.917,261.272 216.182,261.131 218.159,259.738 
			219.695,258.58 220.925,257.698 222.066,256.864 223.12,256.076 224.791,254.96 224.791,254.96 226.986,253.337 227.339,253.149 
			227.822,252.779 230.017,251.157 231.594,249.864 231.859,249.723 233.395,248.565 235.019,247.36 236.161,246.525 
			237.344,245.555 238.839,244.533 240.198,243.469 241.075,242.775 241.822,242.264 243.405,241.194 245.512,239.619 
			245.995,239.249 246.26,239.108 247.048,238.461 248.849,237.162 249.508,236.698 251.309,235.399 252.451,234.565 
			254.075,233.36 255.175,232.66 256.052,231.967 257.37,231.038 259.218,229.828 259.436,229.598 259.701,229.457 261.766,228.017 
			262.861,227.094 264.091,226.213 265.409,225.284 266.463,224.497 268.393,223.015 268.481,222.968 268.658,222.874 
			270.588,221.393 272.254,220.053 273.089,219.495 273.878,218.848 275.196,217.92 276.95,216.532 277.126,216.438 
			277.344,216.209 279.145,214.91 280.987,213.476 281.646,213.012 282.7,212.224 283.706,211.348 285.636,209.867 285.725,209.82 
			285.942,209.591 287.567,208.386 289.579,206.634 290.456,205.941 291.816,204.877 293.876,203.213 293.964,203.166 
			294.052,203.119 295.894,201.685 298.354,199.922 298.837,199.552 300.155,198.623 300.814,198.159 302.88,196.719 
			303.539,196.255 304.51,195.737 305.08,195.32 306.669,194.474 307.77,193.775 308.652,193.305 312.618,190.966 312.795,190.872 
			312.883,190.825 314.384,190.026 317.202,188.298 317.291,188.251 317.467,188.157 320.509,186.424 321.392,185.954 
			322.451,185.39 323.687,184.731 325.629,183.697 326.158,183.415 327.088,183.034 327.529,182.799 330.177,181.388 
			332.696,180.16 333.49,179.737 334.02,179.455 334.549,179.173 336.714,178.134 337.774,177.569 338.303,177.287 341.169,175.648 
			342.493,174.943 342.581,174.896 342.758,174.802 346.724,172.463 347.606,171.993 348.354,171.482 349.542,170.735 
			350.819,169.942 352.179,168.878 353.191,168.226 355.21,166.698 355.651,166.463 356.704,165.675 358.729,164.37 
			359.258,164.088 359.523,163.947 359.741,163.718 361.506,162.778 363.448,161.744 363.713,161.603 366.884,159.687 
			367.985,158.988 369.174,158.242 371.021,157.031 372.163,156.196 372.604,155.961 374.323,154.933 375.729,153.957 
			376.259,153.675 376.435,153.581 380.578,151.148 380.666,151.101 381.461,150.678 384.944,148.71 385.032,148.663 
			385.427,148.34 385.868,148.105 385.956,148.058 387.804,146.847 389.164,145.783 389.605,145.548 389.999,145.225 
			391.806,144.149 393.471,142.809 394.436,142.069 395.843,141.093 396.849,140.217 397.685,139.659 398.303,139.33 
			398.827,138.824 400.457,137.843 401.904,136.732 402.652,136.221 403.399,135.709 406.218,133.982 406.218,133.982 
			406.218,133.982 406.347,133.799 408.019,132.683 409.296,131.889 410.431,130.831 411.444,130.179 412.362,129.35 
			413.55,128.604 414.733,127.634 415.393,127.17 416.711,126.241 417.899,125.495 418.953,124.707 420.189,124.049 
			421.371,123.079 422.295,122.474 423.219,121.869 424.532,120.716 425.367,120.158 425.762,119.835 427.48,118.806 
			428.892,118.054 430.61,117.026 431.14,116.744 431.67,116.462 433.529,115.698 435.824,114.476 435.824,114.476 435.912,114.429 
			438.166,113.342 440.149,112.173 440.502,111.985 440.855,111.797 441.784,111.415 442.844,110.851 442.844,110.851 
			444.297,109.964 444.962,109.723 446.068,109.247 447.439,108.63 448.545,108.155 451.511,106.915 452.264,106.627 
			452.752,106.481 456.165,105.23 456.918,104.942 457.318,104.842 461.048,103.762 463.443,102.94 465.308,102.4 469.297,100.955 
			469.385,100.908 469.609,100.903 473.468,99.64 475.551,98.871 477.592,98.237 480.787,97.215 481.452,96.975 484.382,96.094 
			484.47,96.047 486.694,95.542 488.959,94.903 489.495,94.844 490.383,94.598 492.43,94.187 493.277,94.076 495.678,93.477 
			496.748,93.36 498.79,92.726 499.325,92.668 500.214,92.421 502.308,92.099 502.755,92.088 503.69,91.929 505.738,91.519 
			506.938,91.219 508.673,90.862 510.185,90.51 512.05,89.97 513.204,89.582 514.004,89.383 514.98,89.089 516.445,88.649 
			518.528,87.879 519.681,87.492 520.346,87.251 521.099,86.963 524.683,85.395 524.994,85.342 525.171,85.248 525.348,85.154 
			527.648,84.156 529.196,83.445 529.372,83.351 529.86,83.204 532.338,82.111 532.779,81.876 534.597,81.248 535.085,81.101 
			535.35,80.96 537.256,80.285 538.892,79.527 540.263,78.91 543.099,77.853 543.499,77.753 547.129,76.273 547.129,76.273 
			547.218,76.226 550.901,75.058 551.254,74.87 551.789,74.811 553.342,74.324 554.231,74.078 555.649,73.549 557.561,73.097 
			557.873,73.045 558.273,72.945 560.149,72.852 561.173,72.647 562.02,72.535 564.702,72.466 564.926,72.461 565.014,72.414 
			565.149,72.455 568.602,72.769 568.873,72.851 569.231,72.887 572.061,73.306 573.455,73.583 577.807,74.098 578.166,74.133 
			578.39,74.128 579.107,74.199 582.113,74.524 584.889,74.632 585.695,74.656 586.054,74.691 586.86,74.715 589.413,74.829 
			590.489,74.935 591.654,74.995 593.895,75.161 594.659,75.32 595.465,75.344 598.159,75.722 599.241,76.052 600.682,76.418 
			601.676,76.795 603.617,77.461 603.934,77.631 605.969,78.474 606.604,78.815 608.233,79.534 609.321,80.088 610.139,80.559 
			612.003,81.719 612.685,82.149 613.049,82.408 615.048,83.609 616.912,84.769 617.412,85.069 618.318,85.493 619.088,85.876 
			620.488,86.377 620.941,86.589 622.699,87.125 624.546,87.615 626.475,87.833 627.422,88.122 628.275,88.235 630.434,88.671 
			630.792,88.707 630.928,88.748 631.198,88.83 633.945,89.52 635.703,90.057 637.597,90.634 639.985,91.289 641.385,91.79 
			643.543,92.226 645.255,92.674 646.155,92.875 647.096,92.94 648.713,93.212 650.237,93.307 650.866,93.425 652.519,93.338 
			654.354,93.38 655.201,93.269 656.36,93.105 657.166,93.129 658.637,92.912 661.043,92.537 661.931,92.29 664.514,91.821 
			665.891,91.428 667.668,90.935 668.156,90.788 668.821,90.547 670.645,90.143 671.933,89.796 673.31,89.403 674.822,89.051 
			676.645,88.646 677.622,88.353 679.134,88.001 679.669,87.942 681.275,87.767 681.499,87.761 681.722,87.755 683.334,87.803 
			683.558,87.798 684.587,87.816 685.04,88.028 686.346,88.352 686.616,88.435 686.751,88.476 688.422,89.059 690.592,89.943 
			690.639,90.031 690.727,89.984 692.985,90.821 694.208,91.416 695.385,91.922 696.831,92.512 697.237,92.635 699.448,93.384 
			699.766,93.555 703.418,94.668 703.554,94.71 703.689,94.751 706.618,95.57 708.012,95.848 709.411,96.349 711.17,96.885 
			711.758,97.138 713.787,97.757 715.728,98.423 717.351,98.918 718.657,99.242 718.974,99.413 720.015,99.879 720.65,100.22 
			722.779,101.239 723.143,101.498 723.279,101.539 725.954,102.947 727.089,103.589 728.453,104.448 729.865,105.396 731,106.038 
			731.64,106.603 732.828,107.557 734.339,108.905 735.762,110.3 736.22,110.736 737.56,112.401 737.701,112.666 738.818,114.337 
			739.194,115.043 740.322,117.162 		">
		</polygon>
		<polygon slic3r:type="hole" style="stroke:#000000;stroke-miterlimit:10;" points="666.602,199.134 666.555,199.046 
			666.284,198.964 664.749,198.421 664.349,198.521 662.161,198.667 661.802,198.631 661.625,198.725 661.272,198.913 
			659.278,199.636 658.348,200.018 657.289,200.582 656.589,201.181 655.182,202.157 654.394,202.803 653.04,204.091 
			652.734,204.367 652.604,204.549 652.345,204.914 651.262,206.284 651.009,206.872 650.431,208.766 650.531,209.166 
			650.871,210.231 651.012,210.495 651.747,211.237 652.112,211.496 653.106,211.873 653.329,211.867 654.27,211.933 
			654.629,211.968 655.612,211.898 656.994,211.729 657.259,211.587 658.235,211.294 658.724,211.147 658.9,211.053 
			659.918,210.624 660.495,210.431 661.024,210.149 661.554,209.867 661.948,209.543 663.178,208.662 663.702,208.156 
			664.579,207.463 665.621,206.228 666.098,205.634 666.787,204.587 667.252,203.546 667.505,202.958 667.582,202.464 
			667.718,200.806 667.577,200.541 		">
		</polygon>
	</g>
</g>
<g id="Layer_1">
</g>
</svg>
