<?xml version="1.0" encoding="iso-8859-1"?>
<!-- Generator: Adobe Illustrator 19.2.1, SVG Export Plug-In . SVG Version: 6.00 Build 0)  -->
<svg version="1.1" xmlns="http://www.w3.org/2000/svg" xmlns:xlink="http://www.w3.org/1999/xlink" x="0px" y="0px"
	 viewBox="0 0 841.89 595.28" style="enable-background:new 0 0 841.89 595.28;" xml:space="preserve">
<g id="layer235">
	<g id="layer235_1_" slic3r:z="9.42000000000008e-005">
		<polygon slic3r:type="contour" style="fill:#FFFFFF;stroke:#000000;stroke-miterlimit:10;" points="767.306,201.019 
			768.2,202.696 768.388,203.049 768.534,203.538 768.939,205.361 769.092,206.073 769.173,207.503 769.266,209.379 
			769.318,211.391 769.223,212.914 768.992,214.397 768.721,216.014 768.768,216.102 768.361,217.679 767.919,219.614 
			767.547,220.831 767.046,222.231 766.964,222.501 766.328,223.86 765.821,225.036 764.755,227.076 763.695,229.34 
			763.224,230.158 762.971,230.746 761.51,233.11 761.163,233.521 760.18,235.291 759.143,236.749 758.502,237.884 757.377,239.39 
			756.812,240.03 755.128,242.4 755.128,242.4 754.958,242.718 753.309,244.728 752.962,245.14 751.355,247.015 750.572,247.885 
			749.618,249.073 748.618,250.173 747.399,251.501 746.057,253.236 745.751,253.512 744.05,255.211 743.22,255.993 
			742.219,257.092 740.866,258.38 739.341,259.985 738.423,260.813 737.028,262.236 736.94,262.283 735.539,263.482 734.185,264.77 
			733.967,264.999 732.255,266.251 731.337,267.08 729.713,268.285 729.053,268.749 728.571,269.119 725.358,271.17 
			725.093,271.311 721.386,273.285 721.121,273.426 720.856,273.567 720.503,273.755 717.497,275.13 715.814,275.8 714.972,276.134 
			712.713,276.998 712.49,277.003 712.49,277.003 709.871,277.831 709.471,277.931 707.648,278.336 705.471,278.929 
			703.959,279.281 702,279.644 699.599,280.243 697.864,280.6 695.51,281.287 694.975,281.346 692.045,282.226 691.157,282.473 
			691.069,282.52 690.892,282.614 686.856,283.97 685.438,284.499 683.49,285.309 682.249,285.744 680.701,286.455 679.066,287.213 
			677.871,287.735 675.529,288.869 674.512,289.298 671.728,290.667 670.581,291.278 670.14,291.513 666.126,293.763 
			666.038,293.81 665.95,293.857 662.819,295.638 662.202,295.967 661.495,296.343 659.071,297.747 657.218,298.735 655.411,299.81 
			653.21,301.209 652.681,301.491 650.609,302.707 648.32,304.153 647.926,304.476 646.69,305.134 645.148,306.068 644.578,306.486 
			641.8,308.078 640.653,308.689 638.181,310.005 637.522,310.47 636.816,310.846 634.168,312.256 633.109,312.82 630.549,314.183 
			628.737,315.035 626.66,316.028 623.7,317.491 623.612,317.538 623.524,317.585 620.605,318.912 619.458,319.523 616.316,320.857 
			616.228,320.904 616.228,320.904 616.228,320.904 616.004,320.909 611.797,322.583 611.268,322.865 607.943,324.069 
			606.084,324.833 603.689,325.655 601.03,326.618 599.524,327.194 595.67,328.679 595.229,328.914 590.798,330.594 
			590.357,330.829 588.186,331.645 585.838,332.556 585.309,332.838 581.855,334.224 580.525,334.705 578.313,335.657 
			576.983,336.139 574.5,337.008 573.347,337.395 571.176,338.212 569.534,338.746 567.181,339.433 565.763,339.961 
			562.033,341.041 561.721,341.094 561.633,341.141 557.985,341.951 556.473,342.303 554.026,342.813 552.738,343.159 
			549.931,343.634 549.308,343.739 548.819,343.886 546.19,344.267 544.854,344.525 543.695,344.689 541.913,344.958 
			540.889,345.164 540.354,345.222 538.213,345.456 536.165,345.867 535.542,345.972 534.695,346.083 532.959,346.441 
			532.024,346.6 530.376,346.91 527.882,347.332 527.882,347.332 527.835,347.244 525.205,347.625 523.735,347.842 522.44,347.964 
			520.211,348.245 519.764,348.257 518.246,348.385 515.834,348.537 515.164,348.554 514.805,348.518 513.599,348.594 
			511.811,348.64 511.14,348.657 508.722,348.585 507.205,348.714 504.475,348.694 504.117,348.659 503.893,348.665 
			502.193,348.664 501.611,348.634 499.775,348.592 498.211,348.632 495.928,348.601 494.587,348.636 491.858,348.616 
			490.828,348.598 490.47,348.562 488.458,348.614 486.846,348.566 486.622,348.572 485.817,348.548 482.37,348.457 
			480.446,348.462 478.075,348.478 475.705,348.495 474.317,348.441 472.081,348.498 471.77,348.551 471.187,348.521 
			469.04,348.532 467.787,348.519 465.728,348.483 463.94,348.529 461.793,348.539 459.958,348.497 457.852,348.372 
			456.911,348.307 453.682,347.987 453.188,347.91 452.964,347.916 452.558,347.792 449.459,347.29 447.523,346.848 
			446.488,346.606 443.653,345.963 443.295,345.928 441.718,345.521 441.136,345.491 439.472,345.131 438.036,344.989 
			436.96,344.883 433.148,344.533 433.101,344.445 433.101,344.445 433.101,344.445 429.202,344.143 428.396,344.119 
			426.29,343.994 423.467,343.798 423.29,343.892 420.202,343.837 419.308,343.86 418.549,343.925 416.719,344.106 414.178,344.44 
			412.619,344.703 411.548,344.82 409.589,345.184 409.054,345.242 408.742,345.295 406.295,345.805 404.83,346.246 
			403.053,346.739 402.565,346.885 401.588,347.179 399.858,347.76 399.017,348.095 396.71,348.87 394.939,349.587 393.033,350.262 
			390.156,351.454 389.979,351.548 386.261,353.075 386.261,353.075 386.261,353.075 382.719,354.509 380.995,355.313 
			379.536,355.977 378.123,356.729 376.311,357.581 374.234,358.574 373.793,358.809 373.351,359.044 371.233,360.172 
			369.115,361.3 369.115,361.3 365.849,363.04 365.849,363.04 365.761,363.087 362.848,364.638 361.041,365.713 359.982,366.277 
			358.264,367.305 357.517,367.817 356.81,368.193 355.18,369.174 353.509,370.291 352.585,370.896 351.573,371.548 
			350.255,372.477 348.372,374.047 348.195,374.141 348.019,374.235 346.182,375.892 344.346,377.55 343.516,378.332 
			342.292,379.437 340.897,380.86 340.503,381.183 340.067,381.641 338.672,383.064 337.495,384.258 335.358,386.415 
			334.881,387.009 331.915,389.948 331.785,390.131 331.438,390.542 330.349,391.689 329.737,392.241 328.825,393.293 
			327.694,394.575 327.259,395.034 326.782,395.628 324.48,398.326 322.879,400.425 320.972,402.8 320.018,403.988 318.205,406.54 
			318.075,406.722 316.739,408.68 316.262,409.274 315.791,410.091 313.2,413.737 312.9,414.237 311.993,415.513 309.927,418.653 
			309.756,418.97 309.627,419.152 309.067,420.017 307.177,423.063 306.447,424.245 305.193,425.932 304.027,427.572 
			303.209,428.801 302.82,429.348 300.842,432.441 300.542,432.941 300.371,433.259 299.552,434.487 298.133,436.716 
			297.398,437.674 296.403,438.997 295.885,439.726 295.502,440.497 294.377,442.002 292.953,444.007 292.217,444.965 
			292.134,445.236 291.269,446.376 289.756,448.429 288.761,449.751 288.154,450.528 288.113,450.663 286.076,453.22 
			285.04,454.679 284.346,455.502 283.392,456.689 282.397,458.012 281.573,459.018 281.314,459.382 279.053,461.946 
			278.577,462.539 278.188,463.086 276.622,464.826 275.363,466.29 274.839,466.796 274.709,466.978 272.796,469.13 
			271.189,471.005 270.059,472.287 269.535,472.793 268.405,474.074 267.622,474.944 266.927,475.768 265.974,476.955 
			265.232,477.69 264.19,478.925 263.448,479.66 261.794,481.447 260.488,482.822 259.746,483.557 258.31,485.115 257.48,485.897 
			257.133,486.309 256.827,486.585 253.16,490.124 253.071,490.171 253.03,490.306 251.194,491.964 249.052,493.898 249.01,494.033 
			248.922,494.08 248.834,494.127 247.304,495.509 245.202,497.307 244.543,497.772 242.437,499.347 241.165,500.364 
			239.671,501.386 238.394,502.18 236.281,503.531 235.222,504.095 233.28,505.129 232.221,505.694 231.515,506.07 229.126,507.115 
			225.896,508.496 224.966,508.877 224.478,509.024 222.53,509.835 220.624,510.51 219.871,510.798 217.429,511.532 
			215.076,512.218 213.923,512.606 213.034,512.852 209.745,513.697 209.345,513.797 207.833,514.149 206.721,514.401 
			205.921,514.601 204.498,514.906 203.562,515.064 201.915,515.375 200.668,515.586 198.797,515.903 196.479,516.231 
			195.809,516.248 194.338,516.465 192.732,516.64 191.749,516.71 189.249,516.909 186.837,517.06 186.526,517.113 185.767,517.177 
			184.426,517.211 184.114,517.264 182.414,517.263 181.431,517.333 181.161,517.251 177.896,517.29 176.69,517.366 
			173.961,517.346 172.484,517.339 169.843,517.273 169.62,517.279 169.484,517.238 166.843,517.171 164.737,517.047 
			163.796,516.981 160.838,516.744 159.897,516.679 159.673,516.685 156.132,516.418 155.191,516.352 153.079,516.004 
			151.015,515.744 150.926,515.791 148.544,515.36 147.78,515.201 146.074,514.976 144.633,514.611 143.151,514.38 140.945,513.856 
			139.281,513.496 137.163,512.924 136.575,512.671 135.134,512.305 133.917,511.934 133.464,511.722 129.359,510.396 
			129.271,510.443 129.224,510.354 129.042,510.225 126.648,509.347 126.195,509.135 124.613,508.504 123.708,508.08 
			121.667,507.014 121.167,506.714 119.215,505.601 116.034,503.67 115.669,503.411 115.487,503.281 115.305,503.152 
			114.44,502.592 110.154,499.437 108.602,498.224 105.768,495.881 105.221,495.493 104.169,494.58 102.293,492.973 98.76,489.53 
			97.984,488.924 97.937,488.835 97.937,488.835 90.594,481.643 90.5,481.466 90.365,481.425 89.812,480.813 85.356,476.275 
			82.099,473.137 81.823,472.831 78.749,469.824 78.378,469.341 78.29,469.388 78.149,469.123 75.621,466.504 75.298,466.11 
			74.281,464.839 73.629,463.826 73.117,463.079 71.983,460.737 71.367,459.366 70.133,456.624 69.657,455.518 69.27,454.365 
			68.782,452.812 68.389,451.435 67.867,448.54 67.721,448.052 67.487,445.911 67.264,444.217 67.294,443.634 67.061,439.793 
			67.068,438.316 67.04,435.499 67.213,431.781 67.201,431.334 67.225,430.528 67.357,426.946 67.493,425.287 67.736,422.552 
			67.973,419.594 68.127,418.605 68.552,416 68.782,414.518 69.142,412.853 69.26,412.224 69.337,411.73 69.697,410.065 
			69.986,409.118 70.67,406.148 70.953,404.978 71.984,401.596 72.35,400.155 73.599,396.544 73.805,395.868 74.059,395.28 
			75.06,392.48 75.732,390.763 76.197,389.722 77.211,387.37 77.34,387.187 77.423,386.917 78.654,384.335 79.549,382.612 
			80.061,381.66 80.314,381.072 81.427,379.119 81.722,378.396 82.193,377.579 83.606,375.127 84.289,373.856 85.785,371.134 
			86.474,370.087 87.929,367.5 88.617,366.453 89.777,364.589 90.549,363.272 91.367,362.043 92.274,360.767 93.522,358.856 
			94.429,357.58 95.512,356.21 97.419,353.835 97.549,353.653 97.637,353.606 98.243,352.83 99.762,351.001 100.109,350.59 
			101.675,348.849 102.37,348.026 104.724,345.639 105.466,344.905 106.82,343.617 108.085,342.377 109.133,341.366 
			109.874,340.631 110.663,339.984 111.534,339.067 112.105,338.65 113.812,337.174 114.995,336.204 117.578,334.035 
			118.149,333.618 118.367,333.389 118.761,333.066 120.474,331.814 121.221,331.302 123.193,329.686 123.281,329.639 
			125.788,327.964 127.106,327.035 128.772,325.695 128.948,325.601 130.837,324.255 131.761,323.65 132.903,322.815 
			135.321,321.187 137.87,319.377 137.958,319.33 138.046,319.283 140.594,317.473 141.912,316.544 143.584,315.428 
			144.725,314.593 145.561,314.035 147.191,313.053 148.774,311.984 149.916,311.149 152.423,309.474 152.511,309.427 
			152.511,309.427 155.677,307.288 156.03,307.1 156.383,306.912 157.042,306.448 158.625,305.378 161.091,303.838 161.309,303.609 
			161.573,303.468 164.433,301.605 165.004,301.188 165.004,301.188 168.788,298.72 168.965,298.626 169.053,298.579 
			169.318,298.438 172.354,296.481 173.937,295.411 175.344,294.435 176.444,293.736 177.456,293.084 178.204,292.572 
			180.799,290.85 181.37,290.433 181.811,290.198 183.353,289.264 184.847,288.241 185.595,287.73 187.089,286.707 188.278,285.961 
			189.949,284.844 190.65,284.245 191.397,283.733 191.88,283.363 191.921,283.228 192.009,283.181 194.604,281.459 
			196.099,280.436 197.859,279.273 198.824,278.532 200.189,277.692 200.672,277.321 203.043,275.605 203.132,275.558 
			203.22,275.511 205.638,273.883 206.427,273.237 207.922,272.214 209.458,271.056 210.864,270.08 211.741,269.387 
			213.101,268.323 213.713,267.77 214.984,266.754 215.337,266.566 216.743,265.59 218.586,264.156 219.509,263.55 220.21,262.951 
			222.011,261.652 223.241,260.77 223.941,260.171 224.512,259.753 226.313,258.455 227.719,257.479 228.419,256.879 
			230.35,255.398 230.744,255.075 231.709,254.334 232.939,253.453 233.333,253.129 234.475,252.295 236.099,251.09 236.67,250.673 
			238.689,249.144 238.818,248.962 238.907,248.915 239.389,248.545 241.449,246.881 241.89,246.646 242.985,245.724 
			244.256,244.707 244.651,244.383 246.187,243.225 246.757,242.808 248.335,241.515 249.606,240.498 250.088,240.128 
			251.271,239.158 253.29,237.63 253.902,237.077 255.438,235.919 255.832,235.596 258.245,233.745 258.816,233.327 
			259.563,232.816 261.759,231.194 262.459,230.594 264.083,229.389 264.171,229.342 266.631,227.579 267.861,226.697 
			270.451,224.752 271.592,223.917 272.558,223.177 274.929,221.461 275.017,221.414 275.106,221.367 275.194,221.32 
			277.083,219.974 278.401,219.045 279.366,218.304 279.849,217.934 280.596,217.423 281.826,216.541 282.75,215.936 
			283.145,215.613 283.539,215.289 284.681,214.455 285.693,213.802 287.582,212.457 288.417,211.898 290.042,210.693 
			291.972,209.212 294.079,207.637 294.255,207.543 294.344,207.496 296.321,206.103 297.816,205.08 298.516,204.481 
			299.046,204.199 300.011,203.458 300.452,203.223 300.935,202.853 303.353,201.225 304.277,200.62 304.76,200.249 
			305.025,200.108 305.948,199.503 308.061,198.151 308.985,197.546 311.974,195.501 312.634,195.036 313.251,194.707 
			313.516,194.566 315.099,193.497 316.594,192.474 317.253,192.01 317.518,191.869 319.589,190.652 321.702,189.301 
			321.967,189.16 322.496,188.878 325.05,187.291 325.974,186.686 326.768,186.263 327.121,186.075 327.869,185.563 
			330.252,184.294 331.705,183.407 333.865,182.144 334.395,181.862 334.924,181.579 336.554,180.598 338.667,179.246 
			341.221,177.66 341.309,177.613 341.309,177.613 342.939,176.631 345.228,175.186 345.975,174.674 346.988,174.022 
			347.164,173.928 348.264,173.229 350.554,171.783 350.818,171.642 351.477,171.178 352.931,170.29 354.561,169.309 
			355.397,168.751 355.661,168.61 358.474,166.659 359.928,165.771 359.969,165.636 361.511,164.702 364.018,163.027 
			364.106,162.98 364.283,162.886 367.36,160.793 368.325,160.053 368.59,159.912 369.161,159.494 369.338,159.4 372.627,156.855 
			373.551,156.25 373.681,156.068 373.946,155.927 376.141,154.305 376.888,153.793 377.282,153.47 377.853,153.053 
			381.149,150.731 382.379,149.85 382.861,149.479 383.52,149.015 385.103,147.945 385.409,147.669 387.563,146.182 389.67,144.607 
			390.023,144.419 391.253,143.537 392.089,142.979 393.183,142.056 394.019,141.498 395.643,140.293 397.268,139.088 
			398.145,138.394 398.715,137.977 399.987,136.96 400.687,136.361 401.693,135.485 402.482,134.838 404.277,133.316 
			405.548,132.299 406.643,131.376 407.084,131.141 408.355,130.124 409.062,129.748 410.027,129.008 412.751,127.103 
			414.423,125.987 415.211,125.34 416.006,124.917 417.412,123.941 419.436,122.637 420.666,121.755 421.549,121.285 
			422.032,120.915 423.573,119.98 426.786,117.93 427.051,117.788 427.534,117.418 427.887,117.23 429.076,116.484 431.323,115.173 
			432.206,114.703 433.442,114.045 435.472,112.964 436.443,112.447 436.484,112.312 436.572,112.265 438.026,111.378 
			440.674,109.967 440.762,109.92 441.421,109.456 442.168,108.945 444.899,107.264 446.176,106.471 446.352,106.377 
			447.235,105.907 449.135,105.008 450.195,104.444 451.477,103.874 453.201,103.069 453.954,102.781 456.785,101.501 
			457.449,101.26 459.485,100.402 461.08,99.78 461.433,99.592 462.098,99.351 464.092,98.629 465.51,98.1 466.663,97.713 
			467.952,97.366 469.682,96.785 470.97,96.439 472.258,96.092 473.723,95.652 475.324,95.253 476.612,94.907 479.013,94.308 
			479.148,94.35 479.236,94.303 481.595,93.839 481.595,93.839 483.642,93.429 484.578,93.271 485.96,93.101 486.449,92.954 
			489.708,92.691 490.019,92.639 493.861,92.406 494.084,92.4 494.708,92.294 497.343,92.137 498.326,92.067 500.826,91.869 
			502.255,91.787 505.155,91.489 505.691,91.43 508.232,91.097 508.767,91.038 508.991,91.032 512.156,90.593 512.827,90.576 
			515.721,90.054 516.568,89.943 518.615,89.532 519.239,89.427 519.598,89.462 520.31,89.31 523.204,88.788 525.34,88.331 
			525.916,88.137 528.364,87.627 529.076,87.474 531.076,86.975 531.429,86.787 533.517,86.242 534.582,85.901 535.736,85.513 
			536.977,85.079 537.818,84.744 538.618,84.545 541.584,83.305 542.072,83.159 542.337,83.017 543.484,82.406 545.873,81.361 
			546.579,80.985 549.363,79.616 549.716,79.428 550.069,79.24 551.611,78.305 552.14,78.023 552.934,77.6 554.082,76.989 
			554.258,76.895 556.289,75.814 556.642,75.626 558.448,74.551 559.772,73.846 560.478,73.47 562.108,72.488 562.461,72.3 
			563.256,71.877 565.027,71.161 566.927,70.262 567.945,69.833 568.433,69.686 571.099,68.947 571.722,68.841 573.24,68.713 
			574.363,68.908 575.263,69.108 575.804,69.273 578.063,70.11 579.145,70.44 579.327,70.569 582.814,72.224 584.173,72.861 
			586.395,74.056 587.713,74.827 589.077,75.687 590.029,76.199 591.846,77.271 592.576,77.789 594.986,79.338 595.169,79.467 
			595.351,79.597 598.173,81.493 599.49,82.264 601.125,83.206 602.754,83.925 603.525,84.308 605.465,84.974 606.771,85.298 
			608.612,85.564 611.418,85.089 612.13,84.936 614.478,84.026 615.319,83.691 616.249,83.31 618.143,82.187 619.644,81.388 
			620.568,80.783 621.627,80.219 622.157,79.937 624.322,78.897 625.028,78.521 625.911,78.051 627.329,77.522 628.752,77.217 
			629.152,77.117 630.582,77.036 632.017,77.178 633.37,77.591 635.358,78.345 636.351,78.722 637.169,79.193 638.621,80.006 
			640.074,80.818 641.438,81.678 642.714,82.584 643.578,83.144 645.948,84.828 646.677,85.346 646.906,85.563 647.359,85.776 
			649.864,87.501 650.816,88.013 651.91,88.79 652.727,89.261 653.868,90.127 654.55,90.556 655.503,91.069 657.19,92.323 
			658.19,92.923 659.19,93.524 661.371,94.855 663.229,95.791 664.594,96.651 666.769,97.758 668.081,98.306 669.616,98.848 
			671.968,99.861 673.503,100.403 675.709,100.928 677.108,101.429 679.085,101.736 680.837,102.049 681.508,102.032 
			684.343,102.675 684.613,102.757 686.548,103.199 687.407,103.535 687.677,103.618 689.436,104.154 690.836,104.655 
			691.835,105.256 693.105,105.939 693.335,106.156 693.605,106.239 694.564,106.975 696.98,108.747 697.439,109.183 
			700.278,111.749 700.508,111.967 701.478,113.15 702.4,114.244 702.588,114.597 703.57,116.227 704.269,117.328 705.021,118.74 
			706.026,121.264 706.125,121.664 706.266,121.929 706.735,124.512 706.875,126.476 706.957,127.906 706.725,131.088 
			706.737,131.535 706.613,131.941 705.906,134.017 704.622,136.287 704.581,136.422 704.493,136.469 702.168,138.274 
			702.08,138.321 700.091,139.266 698.273,139.895 697.249,140.1 695.285,140.24 694.661,140.346 694.214,140.357 691.932,140.326 
			689.691,140.16 689.02,140.177 688.526,140.101 686.008,139.628 684.256,139.316 684.12,139.274 682.409,138.826 680.386,138.431 
			678.633,138.118 677.327,137.794 674.539,137.239 673.463,137.133 670.769,136.755 669.287,136.524 668.793,136.447 
			665.74,136.034 663.676,135.774 662.376,135.673 661.523,135.561 658.876,135.271 657.935,135.206 656.229,134.981 
			656.005,134.987 654.035,134.903 652.464,134.72 651.347,134.749 648.259,134.694 648.17,134.741 648.035,134.699 
			648.035,134.699 646.964,134.816 644.246,135.244 644.023,135.25 641.499,136.254 640.892,137.03 640.068,138.036 
			639.849,139.965 639.602,140.777 639.613,141.224 640.347,143.665 640.776,144.683 641.158,145.613 642.521,148.173 
			642.568,148.261 643.878,150.509 644.437,151.344 644.484,151.433 644.531,151.521 646.394,154.381 647.181,155.434 
			648.58,157.635 649.367,158.689 650.531,160.448 651.042,161.195 652.065,162.69 652.994,164.008 653.505,164.756 
			654.904,166.957 656.485,169.287 656.485,169.287 656.485,169.287 657.878,171.264 658.759,172.494 659.088,173.112 
			660.064,174.519 660.575,175.266 660.804,175.484 662.291,177.638 662.62,178.255 663.972,180.368 664.76,181.421 665.788,183.14 
			666.91,185.035 666.957,185.123 668.315,187.459 668.597,187.988 668.743,188.477 669.501,190.113 670.306,191.837 
			671.498,194.714 671.645,195.202 671.839,195.779 672.908,199.062 673.236,201.38 673.335,201.78 673.699,203.739 
			673.892,206.015 673.986,206.192 673.944,206.327 674.237,209.004 674.465,210.921 674.494,212.039 674.511,212.71 
			674.898,215.563 675.003,216.187 675.449,217.875 675.602,218.587 675.607,218.81 675.842,219.252 676.318,220.358 
			676.877,221.194 677.106,221.411 677.835,221.929 678.558,222.224 679.282,222.519 680.446,222.578 680.94,222.655 
			681.652,222.502 683.252,222.103 684.935,221.434 685.377,221.199 686.7,220.494 687.671,219.977 687.977,219.7 689.078,219.001 
			689.519,218.766 689.737,218.537 690.879,217.702 691.361,217.332 692.503,216.497 693.074,216.08 693.556,215.71 
			695.269,214.458 696.934,213.118 698.3,212.277 699.747,211.166 702.213,209.627 702.743,209.345 706.097,207.558 
			706.361,207.417 706.361,207.417 706.361,207.417 706.361,207.417 706.538,207.323 710.121,205.755 710.739,205.426 
			711.939,205.127 714.022,204.357 717.176,203.471 717.399,203.465 717.487,203.418 718.111,203.313 721.67,202.55 
			722.247,202.356 723.094,202.245 724.476,202.075 725.412,201.917 727.418,201.642 728.177,201.578 729.112,201.419 
			731.077,201.279 734.559,201.011 734.648,200.964 734.648,200.964 738.13,200.696 740.183,200.509 741.477,200.386 
			742.636,200.222 744.107,200.005 745.89,199.736 746.825,199.577 749.225,198.979 750.737,198.627 752.291,198.139 
			753.22,197.758 756.05,196.477 756.139,196.43 756.227,196.383 756.315,196.336 758.834,195.108 758.834,195.108 758.834,195.108 
			758.834,195.108 760.569,194.75 761.61,195.216 761.927,195.386 763.109,196.117 764.385,197.023 765.073,197.677 766.46,199.43 
			766.601,199.695 		">
		</polygon>
	</g>
</g>
<g id="Layer_1">
</g>
</svg>
