<?xml version="1.0" encoding="iso-8859-1"?>
<!-- Generator: Adobe Illustrator 19.2.1, SVG Export Plug-In . SVG Version: 6.00 Build 0)  -->
<svg version="1.1" xmlns="http://www.w3.org/2000/svg" xmlns:xlink="http://www.w3.org/1999/xlink" x="0px" y="0px"
	 viewBox="0 0 841.89 595.28" style="enable-background:new 0 0 841.89 595.28;" xml:space="preserve">
<g id="layer205">
	<g id="layer205_1_" slic3r:z="8.22000000000006e-005">
		<polygon slic3r:type="contour" style="fill:#FFFFFF;stroke:#000000;stroke-miterlimit:10;" points="248.829,347.751 
			249.117,348.504 249.258,348.769 250.315,351.604 250.907,353.781 251.242,354.623 251.982,357.288 252.622,359.553 
			252.968,360.841 253.214,361.73 253.866,364.442 255.04,368.349 255.087,368.437 255.134,368.525 256.408,372.832 256.56,373.544 
			257.1,375.409 257.499,377.009 257.646,377.497 258.068,379.992 258.379,381.639 258.807,384.357 258.724,384.627 
			258.928,387.351 258.945,388.022 259.108,390.88 259.084,391.686 259.218,395.128 259.241,396.022 259.251,398.169 
			259.108,401.304 259.114,401.527 259.072,401.663 258.723,405.474 258.611,406.327 258.611,406.327 258.179,410.409 
			258.049,410.592 258.025,411.397 257.689,413.956 257.482,414.632 256.999,416.703 256.627,417.92 256.044,419.59 
			255.555,421.437 254.965,422.884 254.04,425.189 253.239,427.089 252.609,428.671 252.356,429.259 251.843,430.211 
			250.53,433.063 249.77,434.828 248.539,437.409 248.244,438.133 248.074,438.45 247.52,439.538 245.73,442.984 244.669,445.248 
			243.48,447.694 243.056,448.6 242.166,450.547 241.312,452.134 240.635,453.628 240.335,454.128 240.164,454.445 238.88,456.715 
			238.368,457.668 237.808,458.532 237.514,459.256 236.189,461.661 236.189,461.661 235.252,463.519 234.693,464.383 
			233.627,466.424 233.192,466.882 232.161,468.564 232.073,468.611 231.943,468.793 230.778,470.434 230.43,470.845 
			229.477,472.033 227.616,474.497 227.616,474.497 227.575,474.632 227.487,474.679 226.922,475.32 224.455,478.559 
			223.978,479.153 223.019,480.117 221.318,481.816 220.317,482.916 219.923,483.239 218.828,484.162 218.304,484.667 
			217.557,485.179 216.327,486.06 216.021,486.337 214.744,487.13 214.126,487.459 211.396,489.14 210.907,489.286 210.643,489.427 
			210.025,489.756 207.371,490.943 206.312,491.507 204.941,492.124 204.5,492.359 202.77,492.94 201.175,493.563 200.157,493.992 
			199.846,494.044 199.357,494.191 196.739,495.019 195.186,495.506 194.609,495.7 193.05,495.964 192.162,496.21 190.603,496.474 
			188.467,496.932 186.373,497.254 185.349,497.459 183.879,497.676 182.72,497.84 180.531,497.986 179.596,498.144 
			177.272,498.248 173.337,498.305 173.202,498.263 173.202,498.263 173.067,498.222 170.067,498.12 169.573,498.044 
			168.32,498.031 167.737,498.001 166.255,497.771 164.008,497.381 162.614,497.104 159.92,496.726 159.379,496.561 
			157.221,496.124 155.645,495.717 153.08,495.157 151.639,494.792 148.081,493.854 148.081,493.854 148.081,493.854 
			147.81,493.772 144.158,492.658 143.435,492.363 140.459,491.455 138.383,490.748 137.212,490.465 135.001,489.717 
			133.825,489.21 131.296,488.291 129.808,487.837 128.861,487.548 127.503,486.912 126.868,486.571 123.475,485.092 
			123.204,485.009 122.522,484.58 119.623,483.178 118.894,482.66 117.347,481.671 115.936,480.723 114.613,479.728 
			113.925,479.074 113.284,478.509 112.32,477.55 111.856,476.891 110.927,475.573 108.876,472.36 108.735,472.095 108.688,472.007 
			108.547,471.742 105.833,467.069 104.058,464.163 103.635,463.368 101.76,460.061 99.762,457.16 98.416,455.271 96.006,452.022 
			95.912,451.846 95.771,451.581 93.762,448.233 93.715,448.144 93.668,448.056 93.662,447.833 92.705,445.397 91.794,443.049 
			91.7,442.873 91.448,441.761 91.254,441.184 91.055,440.384 90.75,438.96 90.333,436.689 90.322,436.242 90.322,436.242 
			90.322,436.242 90.275,436.154 90.119,431.819 90.197,429.625 90.274,427.431 90.517,424.695 90.582,423.754 90.612,423.172 
			90.896,420.302 91.162,418.461 91.646,416.39 91.923,414.996 92.478,412.208 92.684,411.532 92.761,411.038 93.456,408.515 
			93.781,407.209 94.394,404.957 94.683,404.01 94.972,403.063 95.632,400.899 96.586,398.011 96.669,397.74 96.798,397.558 
			97.883,394.488 97.924,394.353 98.095,394.035 99.273,391.142 99.868,389.919 100.84,387.702 102.029,385.255 102.071,385.12 
			102.242,384.803 103.343,382.403 103.732,381.856 105.198,379.716 106.022,378.711 107.623,376.612 108.141,375.883 
			108.836,375.06 110.401,373.319 111.096,372.496 111.914,371.267 112.48,370.626 113.398,369.798 114.01,369.245 115.717,367.77 
			117.029,366.617 118.347,365.689 120.495,363.978 121.284,363.332 123.167,361.762 126.151,359.494 127.028,358.8 
			127.687,358.336 130.9,356.285 134.025,354.281 134.819,353.858 135.39,353.44 139.086,351.019 140.098,350.367 142.781,348.598 
			143.705,347.993 145.641,346.735 146.653,346.083 147.883,345.201 150.219,343.844 150.308,343.797 150.308,343.797 
			152.956,342.386 153.662,342.01 154.986,341.305 156.927,340.271 157.634,339.895 158.34,339.519 160.505,338.479 
			162.094,337.633 163.641,336.922 165.983,335.788 166.383,335.689 166.736,335.501 168.996,334.637 171.343,333.727 
			171.431,333.68 174.803,332.564 175.379,332.371 176.444,332.03 178.839,331.208 180.792,330.621 181.681,330.374 
			184.969,329.529 185.458,329.383 188.835,328.491 189.682,328.379 192.082,327.781 194.394,327.229 194.93,327.171 197.6,326.655 
			198.359,326.591 200.724,326.351 202.512,326.305 204.077,326.265 204.971,326.242 206.583,326.29 207.436,326.402 
			209.812,326.609 211.159,326.798 213.359,327.1 215.382,327.495 216.865,327.725 219.341,328.333 220.24,328.533 221.323,328.863 
			223.663,329.429 226.639,330.337 227.18,330.502 227.633,330.714 230.609,331.622 232.144,332.164 232.462,332.335 
			233.861,332.836 235.855,333.813 237.166,334.361 237.984,334.832 241.447,337.293 241.811,337.552 242.223,337.9 
			243.881,339.736 245.215,341.178 245.491,341.484 247.501,344.832 247.924,345.627 		">
		</polygon>
		<polygon slic3r:type="contour" style="fill:#FFFFFF;stroke:#000000;stroke-miterlimit:10;" points="630.553,182.077 
			631.493,183.842 631.728,184.284 632.733,186.808 633.872,189.373 634.207,190.215 634.354,190.703 635.881,194.422 
			635.975,194.598 636.938,197.257 637.22,197.787 637.179,197.922 638.33,200.935 638.759,201.953 639.957,205.053 
			640.344,206.207 640.679,207.048 641.93,210.46 642.752,212.855 643.328,214.361 644.091,216.221 644.144,216.532 
			644.725,218.262 645.113,219.415 645.841,221.633 646.475,223.675 647.056,225.405 647.444,226.558 648.213,228.641 
			648.507,229.617 648.606,230.018 649.664,232.853 650.48,235.025 650.961,236.354 651.343,237.284 652.154,239.231 
			652.677,240.426 653.252,241.932 654.339,244.186 654.773,245.427 655.62,247.016 656.53,249.364 656.724,249.94 658.11,253.394 
			658.11,253.394 658.163,253.706 659.413,257.118 659.413,257.118 660.4,260.672 660.422,261.566 660.615,263.842 660.721,264.466 
			660.573,265.678 660.437,267.336 660.354,267.607 660.107,268.419 659.358,270.63 658.928,271.312 657.862,273.353 
			656.991,274.27 655.649,276.004 655.078,276.421 654.119,277.386 653.289,278.167 652.853,278.626 651.317,279.784 
			649.74,281.077 649.21,281.359 647.321,282.705 646.044,283.498 644.244,284.797 643.849,285.121 642.972,285.814 641.784,286.56 
			641.301,286.931 639.63,288.047 638.4,288.929 637.211,289.675 634.969,291.209 634.704,291.35 634.398,291.627 632.992,292.602 
			631.756,293.26 629.867,294.606 628.767,295.305 626.742,296.61 625.907,297.168 625.424,297.539 622.823,299.037 
			622.252,299.454 620.311,300.489 619.781,300.771 618.192,301.617 615.986,302.792 615.544,303.027 615.103,303.262 
			612.761,304.396 609.978,305.765 609.89,305.812 609.801,305.859 607.018,307.228 605.206,308.079 604.453,308.367 
			602.152,309.366 601.27,309.836 598.834,310.793 596.927,311.468 594.58,312.379 592.185,313.201 590.897,313.547 588.19,314.422 
			586.814,314.815 584.372,315.549 582.195,316.142 580.595,316.541 578.459,316.998 578.059,317.098 577.524,317.157 
			575.565,317.52 573.829,317.878 572.67,318.042 572,318.059 569.323,318.352 567.805,318.48 565.305,318.679 562.846,318.742 
			561.37,318.735 559.046,318.839 556.676,318.856 555.782,318.879 554.123,318.742 552.423,318.741 551.705,318.67 
			548.611,318.392 547.223,318.338 545.741,318.108 543.812,317.889 542.465,317.7 540.4,317.44 537.748,316.927 535.907,316.661 
			532.354,315.947 531.995,315.911 531.725,315.829 531.366,315.793 528.307,315.156 526.778,314.837 525.249,314.519 
			523.044,313.994 521.644,313.493 520.65,313.116 518.938,312.668 517.721,312.297 515.692,311.678 514.116,311.271 
			512.628,310.817 510.552,310.11 509.875,309.904 508.652,309.309 506.753,308.508 505.671,308.178 502.86,306.729 502.36,306.428 
			501.948,306.081 499.355,304.403 498.397,303.667 496.98,302.496 496.204,301.889 494.828,300.583 494.505,300.188 
			493.494,299.141 491.366,296.422 490.996,295.939 490.949,295.851 490.902,295.763 490.338,294.704 488.833,291.879 
			488.692,291.614 487.735,289.178 487.301,287.937 486.854,286.248 486.755,285.848 486.661,285.672 486.098,282.913 
			486.092,282.689 485.629,280.33 485.454,277.024 485.407,276.936 485.36,276.848 485.28,273.718 485.305,271.212 485.246,270.677 
			485.282,270.318 485.472,267.271 485.449,266.377 485.379,265.395 485.445,262.753 485.276,261.371 485.235,259.806 
			485.13,259.183 484.831,257.983 484.52,256.335 483.574,254.346 483.474,253.946 483.292,253.817 481.54,251.804 481.264,251.498 
			479.071,249.72 478.618,249.508 476.166,248.095 475.713,247.883 473.314,246.781 471.779,246.239 469.926,245.526 
			469.068,245.191 468.121,244.902 467.039,244.572 464.198,243.705 463.928,243.623 463.251,243.416 461.046,242.892 
			460.505,242.727 458.522,242.196 457.805,242.125 456.276,241.806 454.793,241.576 452.058,241.333 449.453,240.908 
			447.882,240.725 445.012,240.441 443.982,240.422 441.83,240.209 440.53,240.108 439.365,240.049 436.812,239.936 435.553,239.7 
			432.465,239.645 431.748,239.574 430.001,239.484 429.195,239.46 426.595,239.259 425.742,239.147 425.113,239.029 
			422.201,238.88 418.925,238.472 417.76,238.412 416.325,238.27 413.766,237.933 411.79,237.626 410.22,237.443 408.514,237.218 
			406.179,236.876 402.714,236.115 401.862,236.003 401.456,235.879 400.691,235.72 397.58,234.771 393.928,233.657 
			393.792,233.615 393.434,233.58 390.005,232.46 388.699,232.136 386.311,231.481 385.729,231.452 383.8,231.233 383.306,231.156 
			383.082,231.162 380.358,231.366 378.753,231.541 376.793,231.905 374.164,232.286 373.94,232.291 370.987,232.278 
			370.405,232.248 367.117,231.393 366.758,231.358 365.988,230.975 364.077,229.727 362.936,228.861 362.461,227.755 
			361.78,225.625 361.774,225.402 361.856,225.131 362.552,222.608 363.083,220.626 363.942,219.262 364.92,217.268 
			365.344,216.363 365.597,215.775 367.14,213.14 368.465,210.735 368.812,210.324 368.854,210.188 369.201,209.777 
			370.802,207.678 372.216,205.226 372.951,204.267 373.163,203.815 373.811,202.903 374.806,201.58 375.195,201.033 
			375.801,200.257 376.496,199.434 377.52,197.529 378.168,196.618 378.804,195.259 379.193,194.712 379.658,193.671 
			379.988,192.589 380.671,191.319 381.048,190.325 381.525,189.731 381.996,188.914 382.597,187.914 383.916,185.286 
			384.134,185.057 386.153,181.828 386.972,180.599 387.013,180.464 387.013,180.464 387.101,180.417 390.357,176.531 
			391.31,175.343 391.658,174.932 391.964,174.655 394.671,172.081 395.625,170.893 397.497,168.876 397.626,168.694 
			399.156,167.313 399.898,166.578 400.551,165.89 401.422,164.973 401.811,164.426 402.718,163.15 403.589,162.233 404.283,161.41 
			406.279,158.988 407.274,157.665 408.445,156.248 409.746,154.649 411.348,152.55 411.348,152.55 411.565,152.32 412.566,151.221 
			412.913,150.809 413.649,149.851 414.779,148.569 415.303,148.064 416.387,146.694 416.999,146.141 417.258,145.777 
			418.041,144.907 419.259,143.578 421.431,141.062 421.519,141.015 421.519,141.015 425.539,137.288 425.892,137.1 
			428.653,134.837 430.1,133.726 430.318,133.496 432.819,131.598 434.267,130.487 434.355,130.44 437.563,128.165 438.663,127.466 
			438.839,127.372 441.923,125.503 442.847,124.898 443.553,124.522 445.406,123.535 447.701,122.313 448.672,121.796 
			450.879,120.621 451.232,120.433 453.533,119.434 453.797,119.293 456.498,118.195 457.869,117.578 459.952,116.809 
			463.229,115.516 463.406,115.422 463.582,115.328 466.824,114.395 467.977,114.008 470.33,113.321 471.572,112.886 
			472.372,112.687 475.131,112.124 477.484,111.437 478.373,111.19 480.555,110.821 482.379,110.416 484.068,109.97 
			485.891,109.565 487.139,109.354 489.051,108.903 489.986,108.744 492.08,108.422 493.598,108.294 493.91,108.241 
			494.445,108.182 497.834,107.737 498.816,107.667 500.604,107.622 501.587,107.552 503.999,107.4 504.581,107.43 506.328,107.519 
			507.493,107.579 509.734,107.745 512.422,107.899 512.781,107.935 513.275,108.012 515.704,108.531 516.604,108.731 
			519.215,109.38 519.756,109.545 520.074,109.716 522.015,110.382 523.279,110.841 524.138,111.177 525.043,111.601 
			526.719,112.408 528.166,112.997 530.024,113.934 532.288,114.994 532.741,115.206 534.011,115.889 535.464,116.702 
			535.734,116.784 537.639,117.809 538.274,118.15 538.457,118.28 540.45,119.258 541.268,119.729 542.309,120.194 543.308,120.795 
			545.349,121.861 545.984,122.202 546.936,122.714 548.842,123.739 550.2,124.375 552.011,125.223 555.534,126.52 555.669,126.561 
			555.805,126.602 559.551,127.893 560.316,128.052 561.668,128.465 562.345,128.671 563.474,129.089 563.609,129.13 
			564.826,129.502 566.32,130.179 567.314,130.556 568.261,130.845 570.207,131.734 572.195,132.489 573.595,132.989 
			574.812,133.361 576.394,133.991 578.559,134.651 579.011,134.863 579.147,134.905 579.552,135.028 582.369,136.701 
			584.498,137.72 585.268,138.102 587.538,139.386 589.761,140.582 590.578,141.053 591.26,141.483 592.942,142.513 593.9,143.249 
			595.494,144.326 596.588,145.103 598.457,146.487 599.463,147.311 601.156,148.789 602.344,149.742 603.99,151.132 
			605.089,152.132 605.959,152.915 608.158,154.916 608.846,155.57 609.351,156.094 612.285,158.837 612.514,159.054 
			612.697,159.184 614.443,160.973 616.006,162.633 616.189,162.762 619.41,166.259 619.457,166.347 622.173,169.319 
			622.819,170.108 624.53,172.256 625.276,173.444 627.133,176.081 627.368,176.522 627.462,176.699 629.566,180.224 
			629.707,180.488 		">
		</polygon>
	</g>
</g>
<g id="Layer_1">
</g>
</svg>
