<?xml version="1.0" encoding="iso-8859-1"?>
<!-- Generator: Adobe Illustrator 19.2.1, SVG Export Plug-In . SVG Version: 6.00 Build 0)  -->
<svg version="1.1" xmlns="http://www.w3.org/2000/svg" xmlns:xlink="http://www.w3.org/1999/xlink" x="0px" y="0px"
	 viewBox="0 0 841.89 595.28" style="enable-background:new 0 0 841.89 595.28;" xml:space="preserve">
<g id="layer222">
	<g id="layer222_1_" slic3r:z="8.90000000000007e-005">
		<polygon slic3r:type="contour" style="fill:#FFFFFF;stroke:#000000;stroke-miterlimit:10;" points="642.658,106.52 
			643.328,108.203 643.55,109.897 642.802,112.108 642.496,112.384 641.972,112.89 640.353,114.318 639.782,114.736 
			636.982,115.434 635.923,115.998 634.234,116.444 631.569,117.184 630.722,117.295 630.01,117.447 627.292,117.875 
			626.492,118.075 625.733,118.139 624.745,117.985 622.981,117.225 622.305,117.019 621.852,116.807 620.423,115.189 
			619.912,114.441 619.677,114 618.831,112.411 618.532,111.211 618.509,110.317 618.545,108.258 618.71,107.717 619.553,105.682 
			620.195,104.547 621.219,102.642 621.784,102.001 622.485,101.402 624.109,100.197 626.086,98.804 626.616,98.522 629.228,97.47 
			629.54,97.418 630.793,97.43 632.405,97.478 632.675,97.561 632.858,97.69 635.216,98.927 636.356,99.792 637.685,101.011 
			638.784,102.012 640.525,103.577 641.63,104.801 642.699,106.384 		">
		</polygon>
		<polygon slic3r:type="contour" style="fill:#FFFFFF;stroke:#000000;stroke-miterlimit:10;" points="756.828,214.53 
			758.073,217.719 758.078,217.943 758.412,220.484 758.435,221.378 758.387,222.99 758.393,223.214 757.956,225.372 
			757.756,226.272 757.278,228.566 757.077,229.466 756.665,230.819 756.5,231.36 755.61,233.306 755.109,234.706 754.526,236.376 
			754.19,237.235 753.595,238.458 752.653,240.093 752.482,240.41 750.898,243.18 750.945,243.268 750.857,243.315 750.769,243.362 
			748.796,246.678 748.149,247.59 746.63,249.418 744.552,252.111 744.464,252.158 744.422,252.293 741.809,255.045 741.285,255.55 
			740.414,256.468 739.148,257.708 737.353,259.23 737,259.418 736.429,259.836 734.146,261.505 732.828,262.433 731.027,263.732 
			729.709,264.661 728.785,265.266 727.42,266.107 725.26,267.37 724.071,268.116 722.924,268.727 720.717,269.903 718.593,270.807 
			716.869,271.612 714.08,272.757 713.816,272.898 711.244,273.814 709.115,274.496 708.403,274.648 705.561,275.482 
			705.249,275.534 704.761,275.681 701.29,276.397 698.266,277.101 697.954,277.153 697.642,277.206 694.707,277.863 
			692.53,278.456 691.018,278.808 688.488,279.589 687.553,279.747 687.111,279.982 684.27,280.816 683.116,281.203 
			680.898,281.931 679.922,282.225 677.662,283.088 676.244,283.617 675.715,283.899 672.614,285.097 671.331,285.667 
			669.296,286.524 666.071,288.128 665.983,288.175 665.806,288.269 662.847,289.732 660.599,291.042 659.804,291.466 
			659.233,291.883 657.733,292.682 656.232,293.481 655.703,293.763 655.526,293.857 655.085,294.092 652.131,295.778 
			648.871,297.741 648.518,297.929 648.341,298.023 647.859,298.394 645.788,299.61 644.728,300.174 644.552,300.268 
			643.451,300.967 641.115,302.325 640.762,302.513 640.409,302.701 638.026,303.97 635.778,305.28 634.984,305.703 
			634.413,306.121 631.765,307.531 630.794,308.048 629.117,308.941 627.923,309.464 624.745,311.156 624.48,311.297 
			624.304,311.391 620.462,313.324 620.462,313.324 620.462,313.324 616.702,314.986 615.242,315.65 613.43,316.502 
			611.306,317.407 610.641,317.647 608.341,318.646 605.905,319.603 605.152,319.891 604.31,320.226 601.963,321.136 
			599.086,322.329 598.197,322.575 597.579,322.904 594.255,324.108 591.596,325.071 590.266,325.553 586.853,326.803 
			586.365,326.95 586.189,327.044 582.376,328.395 581.176,328.694 578.205,329.71 575.898,330.485 574.521,330.878 
			571.633,331.624 570.744,331.87 568.256,332.516 566.791,332.956 565.679,333.208 563.72,333.572 562.831,333.818 
			562.431,333.918 559.937,334.34 558.913,334.545 556.996,334.774 554.948,335.184 552.319,335.565 551.56,335.629 551.16,335.729 
			549.642,335.857 547.948,336.08 546.877,336.197 545.001,336.29 543.036,336.43 541.159,336.523 539.641,336.651 536.918,336.855 
			534.459,336.919 532.941,337.047 530.306,337.204 528.429,337.297 526.729,337.296 523.912,337.324 522.794,337.353 
			519.57,337.257 518.047,337.162 516.477,336.978 515.177,336.877 513.424,336.565 512.3,336.37 511.495,336.346 509.607,335.992 
			508.571,335.75 506.73,335.484 505.742,335.331 505.383,335.295 503.272,334.947 501.701,334.763 500.49,334.616 499.725,334.456 
			496.137,334.101 495.596,333.936 494.655,333.871 492.008,333.581 490.167,333.315 488.373,333.138 487.161,332.99 
			485.32,332.724 484.873,332.736 484.244,332.617 482.091,332.404 480.521,332.221 478.95,332.038 478.233,331.967 
			476.439,331.789 474.645,331.612 473.703,331.546 471.28,331.251 469.31,331.167 467.739,330.984 466.751,330.83 464.416,330.488 
			463.428,330.334 461.046,329.903 458.887,329.467 457.764,329.272 457.087,329.066 456.187,328.865 454.252,328.423 
			454.029,328.428 453.488,328.263 451.553,327.821 450.471,327.491 448.348,326.696 446.589,326.159 445.366,325.564 
			443.784,324.934 442.114,324.351 441.12,323.974 438.991,322.955 438.673,322.784 436.362,321.635 435.998,321.376 
			434.275,320.481 431.464,319.032 431.417,318.944 431.329,318.991 428.653,317.584 426.801,316.871 425.666,316.229 
			422.596,315.145 421.961,314.803 421.69,314.721 420.067,314.225 418.714,313.813 418.444,313.73 416.462,313.2 413.274,312.745 
			412.691,312.715 412.333,312.68 409.556,312.572 409.468,312.619 406.115,312.705 405.803,312.758 405.491,312.811 
			401.832,313.173 398.761,313.789 398.538,313.795 398.361,313.889 397.561,314.088 395.384,314.681 394.143,315.116 
			392.766,315.509 392.101,315.75 390.018,316.519 386.923,317.941 386.835,317.988 386.835,317.988 386.747,318.035 
			383.299,319.644 382.24,320.208 380.516,321.013 379.498,321.442 376.891,322.717 375.167,323.522 374.149,323.95 
			370.748,325.648 370.042,326.024 369.295,326.536 366.382,328.087 364.793,328.933 363.163,329.914 360.874,331.36 
			360.038,331.918 359.291,332.43 357.532,333.593 355.513,335.121 353.977,336.279 351.476,338.178 350.864,338.73 348.71,340.217 
			348.092,340.546 347.345,341.058 345.32,342.362 344.179,343.197 342.99,343.943 341.578,344.695 339.683,345.818 
			338.229,346.705 336.335,347.827 336.117,348.057 334.446,349.173 333.828,349.502 331.85,350.895 330.097,352.282 
			328.825,353.299 327.248,354.592 325.977,355.609 324.317,357.173 323.093,358.278 321.133,360.342 319.914,361.67 
			318.914,362.77 317.613,364.369 317.001,364.922 316.742,365.286 315.441,366.885 314.316,368.391 313.457,369.755 
			312.032,371.76 311.555,372.354 309.83,374.858 308.888,376.493 307.899,378.04 307.469,378.722 306.656,380.174 305.455,382.173 
			305.072,382.944 303.877,385.167 302.905,387.384 302.481,388.289 301.014,392.129 301.014,392.129 299.588,395.834 
			299.046,397.369 298.079,399.81 297.785,400.533 296.73,403.021 296.689,403.156 296.518,403.474 295.246,406.191 
			294.486,407.955 292.908,410.948 292.401,412.124 292.101,412.624 291.594,413.8 290.228,416.341 289.292,418.199 
			288.903,418.746 288.567,419.604 287.372,421.827 287.072,422.327 285.846,425.132 285.169,426.626 285.045,427.032 
			284.415,428.613 283.614,430.513 283.443,430.831 283.319,431.236 282.818,432.636 282.323,434.259 281.822,435.659 
			281.616,436.335 281.28,437.194 280.196,440.264 280.202,440.487 279.736,441.528 279.194,443.063 279.024,443.381 
			278.305,445.01 277.716,446.456 277.179,448.215 276.755,449.121 276.414,449.756 275.359,452.243 275.018,452.878 
			274.894,453.284 274.806,453.331 274.034,454.648 272.921,456.601 272.15,457.918 270.896,459.605 270.766,459.788 
			270.596,460.105 268.994,462.204 267.658,464.162 267.01,465.073 266.581,465.756 265.974,466.532 263.554,469.86 
			263.166,470.406 262.819,470.818 262.165,471.506 260.599,473.246 259.387,474.798 258.91,475.392 258.386,475.898 
			257.909,476.491 257.432,477.085 256.779,477.773 255.914,478.914 254.571,480.648 253.877,481.471 253.571,481.748 
			252.482,482.894 250.999,484.364 249.256,486.198 248.209,487.209 245.113,490.331 245.071,490.466 244.983,490.513 
			244.983,490.513 244.807,490.607 241.787,493.235 240.646,494.069 240.469,494.163 239.016,495.051 235.714,497.149 
			235.45,497.29 235.273,497.384 234.526,497.895 232.231,499.117 231.789,499.352 229.889,500.251 229.801,500.298 
			229.712,500.345 227.365,501.255 224.617,502.265 224.352,502.406 224.264,502.453 221.069,503.475 218.986,504.244 
			217.833,504.632 215.615,505.36 215.439,505.454 215.439,505.454 213.397,506.088 211.573,506.493 210.461,506.745 
			207.973,507.391 206.861,507.643 204.102,508.206 202.59,508.558 202.054,508.616 198.536,509.244 198.36,509.338 
			197.289,509.455 195.107,509.824 194.66,509.835 191.983,510.128 189.353,510.509 188.459,510.532 187.7,510.596 185.871,510.777 
			184.441,510.859 183.012,510.94 181.894,510.969 180.465,511.05 179.571,511.073 178.406,511.014 176.976,511.095 
			175.588,511.041 173.441,511.052 171.876,511.092 171.294,511.062 169.594,511.061 168.206,511.007 167.488,510.936 
			165.965,510.841 164.8,510.782 163.053,510.693 161.841,510.545 158.883,510.308 158.524,510.272 156.865,510.136 
			156.101,509.977 155.877,509.982 153.948,509.763 152.736,509.616 150.266,509.232 148.648,508.96 146.266,508.529 
			145.725,508.364 144.737,508.211 143.972,508.052 142.578,507.774 141.273,507.45 138.932,506.884 137.356,506.477 
			136.05,506.153 133.303,505.463 132.851,505.251 132.715,505.209 132.309,505.086 129.598,504.037 128.11,503.583 
			126.393,502.911 123.906,501.857 122.776,501.439 122.324,501.227 119.424,499.825 119.424,499.825 119.336,499.872 
			116.931,498.547 115.385,497.558 114.75,497.216 114.02,496.698 112.515,495.574 111.328,494.62 109.546,493.189 108.129,492.018 
			106.254,490.411 104.325,488.492 103.361,487.533 101.845,485.961 99.54,483.336 97.789,481.323 94.985,478.398 93.192,476.521 
			91.169,474.425 89.512,472.589 86.484,469.669 85.52,468.71 85.014,468.186 82.169,465.396 81.893,465.09 81.705,464.737 
			80.547,463.201 80.082,462.542 79.941,462.277 78.96,460.647 78.484,459.541 77.82,458.082 77.245,456.576 76.575,454.893 
			76.376,454.093 75.894,452.763 75.595,451.563 75.401,450.986 74.944,448.851 74.616,446.533 74.51,445.909 74.293,444.439 
			74.124,443.056 74.059,442.297 73.914,440.109 73.674,437.744 73.698,436.938 73.617,435.509 73.665,433.897 73.607,431.662 
			73.573,430.32 73.591,429.291 73.681,425.844 73.8,423.515 73.807,422.038 74.026,420.109 74.115,418.362 74.34,416.656 
			74.559,414.727 74.712,413.739 75.167,410.551 75.25,410.28 75.285,409.921 75.892,407.445 76.453,404.881 76.577,404.475 
			76.659,404.205 77.355,401.682 77.679,400.376 78.221,398.841 78.516,398.118 79.476,395.453 79.647,395.136 79.688,395.001 
			79.771,394.73 80.996,391.925 81.579,390.255 82.127,388.943 82.675,387.632 83.394,386.003 83.9,384.827 84.707,383.151 
			85.131,382.245 85.602,381.428 86.969,378.887 87.351,378.117 88.676,375.712 89.112,375.253 89.412,374.754 91.52,371.478 
			92.038,370.749 92.857,369.52 93.245,368.974 94.105,367.609 95.147,366.375 96.619,364.458 96.748,364.276 97.396,363.364 
			98.738,361.63 98.867,361.448 99.127,361.083 101.04,358.931 101.646,358.155 102.382,357.197 102.947,356.556 104.595,354.545 
			104.772,354.451 105.119,354.04 106.125,353.164 106.997,352.247 108.215,350.918 109.434,349.589 110.175,348.854 
			111.352,347.661 112.359,346.785 113.889,345.404 114.283,345.081 115.025,344.346 116.337,343.194 116.82,342.823 
			119.621,340.425 119.927,340.149 120.41,339.778 122.382,338.162 124.4,336.634 124.4,336.634 124.577,336.54 126.684,334.965 
			128.178,333.942 129.367,333.196 130.156,332.549 131.827,331.432 133.763,330.175 133.804,330.039 133.981,329.945 
			136.358,328.453 137.547,327.706 138.736,326.96 140.101,326.12 141.907,325.044 142.919,324.392 143.626,324.016 
			146.003,322.523 147.415,321.771 147.721,321.495 148.427,321.119 151.158,319.438 152.741,318.369 154.018,317.575 
			155.471,316.688 156.619,316.077 158.425,315.001 158.867,314.766 161.244,313.274 162.038,312.851 163.845,311.775 
			165.387,310.841 167.105,309.813 169.617,308.361 172.083,306.822 173.272,306.075 177.191,303.648 177.232,303.513 
			177.232,303.513 177.232,303.513 181.369,300.857 181.634,300.716 181.987,300.528 185.07,298.659 186.083,298.007 
			188.06,296.614 188.148,296.567 188.589,296.332 189.996,295.356 190.261,295.215 191.979,294.187 192.856,293.493 
			193.868,292.841 195.233,292 195.939,291.624 196.993,290.837 197.917,290.231 199.411,289.209 199.676,289.068 199.806,288.885 
			201.742,287.628 202.925,286.658 204.113,285.912 205.696,284.842 206.05,284.654 207.944,283.532 208.733,282.885 
			210.404,281.768 211.416,281.116 214.1,279.347 215.33,278.466 216.648,277.537 218.755,275.962 220.379,274.757 223.28,272.759 
			223.41,272.576 223.41,272.576 224.463,271.789 226.394,270.308 226.658,270.167 229.201,268.133 229.813,267.58 232.273,265.817 
			232.579,265.541 234.856,263.648 235.292,263.189 237.44,261.479 238.364,260.874 240.553,259.028 240.948,258.705 
			242.878,257.223 243.449,256.806 244.938,255.56 245.95,254.908 248.845,252.686 249.022,252.592 249.063,252.457 
			251.959,250.235 252.441,249.865 254.631,248.019 255.508,247.325 257.785,245.433 258.18,245.109 260.369,243.264 
			261.158,242.617 263.041,241.048 263.876,240.489 265.012,239.431 266.242,238.549 268.432,236.704 268.738,236.427 
			269.044,236.151 270.492,235.04 271.457,234.3 272.645,233.553 274.529,231.984 274.746,231.755 275.229,231.384 277.206,229.991 
			278.389,229.022 279.925,227.864 281.155,226.982 283.345,225.136 283.345,225.136 285.934,223.191 287.205,222.174 
			288.17,221.433 289.618,220.323 291.501,218.753 291.719,218.524 292.773,217.736 294.085,216.584 295.445,215.52 295.927,215.15 
			296.586,214.686 298.169,213.616 300.053,212.046 300.317,211.905 300.447,211.723 301.589,210.889 302.995,209.913 
			304.443,208.802 305.014,208.385 307.126,207.033 308.703,205.74 308.792,205.693 308.88,205.646 310.245,204.806 
			312.264,203.277 312.835,202.86 313.141,202.584 313.229,202.537 317.054,199.933 317.272,199.704 317.89,199.375 
			320.573,197.606 322.509,196.348 322.774,196.207 323.168,195.884 323.433,195.743 325.81,194.25 326.687,193.557 
			327.217,193.275 330.03,191.324 331.701,190.207 332.449,189.696 332.89,189.461 334.208,188.532 334.249,188.397 
			334.249,188.397 335.703,187.509 336.232,187.227 336.321,187.18 338.651,185.599 341.246,183.877 342.788,182.943 
			345.248,181.18 345.424,181.086 345.424,181.086 345.513,181.039 347.007,180.016 347.36,179.828 348.679,178.9 349.732,178.112 
			349.997,177.971 351.227,177.089 354.434,174.815 355.223,174.168 355.488,174.027 355.664,173.933 357.906,172.399 
			358.389,172.029 358.96,171.612 359.748,170.965 360.366,170.636 363.303,168.279 363.568,168.138 363.874,167.862 
			364.533,167.398 367.04,165.723 367.74,165.123 368.311,164.706 369.193,164.236 369.894,163.636 371.824,162.155 372.13,161.879 
			372.572,161.644 373.36,160.997 373.843,160.627 376.385,158.593 376.779,158.27 377.792,157.617 378.492,157.018 
			380.552,155.354 381.076,154.849 381.864,154.202 383.924,152.539 384.754,151.757 385.366,151.204 386.29,150.599 
			389.221,148.018 389.221,148.018 389.398,147.924 389.615,147.695 392.252,145.838 393.17,145.009 393.917,144.498 
			397.513,141.676 398.037,141.171 398.125,141.124 398.255,140.942 398.914,140.477 401.721,138.302 402.421,137.703 
			405.976,135.017 406.37,134.694 406.676,134.417 406.894,134.188 407.948,133.4 410.319,131.684 410.931,131.132 414.886,128.346 
			415.015,128.164 415.104,128.117 415.498,127.793 418.093,126.071 419.147,125.284 419.411,125.143 422.095,123.374 
			423.678,122.304 423.766,122.257 424.602,121.699 426.232,120.717 427.638,119.742 427.903,119.601 428.344,119.366 
			428.521,119.272 428.962,119.037 431.298,117.679 432.134,117.121 432.31,117.027 433.546,116.369 436.235,114.824 
			438.354,113.695 440.384,112.614 440.649,112.473 440.825,112.379 443.52,111.057 444.891,110.441 448.516,108.737 
			448.827,108.684 449.092,108.543 449.18,108.496 449.933,108.208 453.252,106.781 454.317,106.44 457.194,105.248 
			459.854,104.285 460.654,104.085 461.407,103.798 461.983,103.604 464.201,102.876 465.666,102.436 466.555,102.189 
			467.484,101.807 470.373,101.062 472.103,100.481 474.368,99.841 476.233,99.301 477.521,98.955 479.745,98.45 480.145,98.35 
			480.457,98.297 482.457,97.799 484.864,97.424 485.575,97.271 485.887,97.218 486.558,97.201 489.988,96.621 491.1,96.369 
			491.635,96.31 492.841,96.234 494.712,95.918 496.141,95.836 497.212,95.719 500.465,95.233 501.359,95.21 504.483,94.906 
			505.553,94.789 507.471,94.561 508.318,94.45 509.571,94.462 510.554,94.392 511.313,94.328 513.501,94.182 514.307,94.206 
			516.63,94.102 517.883,94.114 518.642,94.05 520.748,94.175 522.765,94.347 524.201,94.489 527.342,94.855 527.477,94.897 
			527.565,94.85 531.877,95.499 532.012,95.541 532.147,95.582 533.047,95.782 536.599,96.496 537.411,96.744 540.693,97.375 
			541.416,97.67 543.04,98.165 544.704,98.525 545.692,98.678 546.774,99.008 547.315,99.173 548.803,99.627 548.939,99.669 
			549.209,99.751 551.144,100.193 552.809,100.553 554.332,100.648 556.226,101.226 556.814,101.479 559.061,101.869 
			560.643,102.499 562.031,102.553 563.737,102.778 564.813,102.884 565.766,103.396 568.154,104.051 569.9,105.84 570.811,106.488 
			571.487,106.694 573.192,108.619 574.162,109.802 574.35,110.155 576.237,112.209 576.742,112.733 577.754,113.78 579.67,115.252 
			580.17,115.552 582.369,117.554 583.468,118.554 583.698,118.772 586.796,120.974 588.084,122.328 589.542,123.364 
			591.553,125.012 592.964,125.96 595.886,128.256 596.433,128.645 596.662,128.862 597.027,129.121 600.402,131.629 
			600.854,131.841 601.037,131.971 601.313,132.277 603.824,134.226 605.146,135.22 605.376,135.438 609.127,138.652 
			609.309,138.782 611.414,140.607 612.831,141.778 613.013,141.908 613.06,141.996 613.242,142.125 616.441,144.727 
			616.94,145.028 617.305,145.287 618.081,145.893 619.498,147.064 620.409,147.712 621.597,148.666 623.055,149.702 
			625.519,151.562 625.701,151.692 625.977,151.998 628.353,153.905 629.723,154.988 631.14,156.16 632.057,157.031 
			633.432,158.338 634.208,158.944 634.714,159.468 637.242,162.087 637.7,162.523 637.747,162.611 640.422,165.718 
			641.069,166.507 643.149,169.138 644.307,170.674 645.377,172.257 646.352,173.663 647.422,175.246 648.403,176.876 
			649.244,178.241 649.949,179.565 650.789,180.931 652.011,183.225 652.716,184.549 653.139,185.344 654.409,187.727 
			654.691,188.257 656.065,191.263 656.253,191.616 656.441,191.969 657.916,195.376 658.392,196.482 659.014,198.077 
			659.349,198.918 659.93,200.648 660.177,201.536 660.558,202.466 661.392,205.308 661.832,206.773 662.472,209.038 
			662.672,209.838 663.018,211.126 663.018,211.126 663.511,212.903 663.522,213.35 663.722,214.15 664.027,215.574 
			664.526,217.574 664.673,218.063 664.825,218.774 665.271,220.463 665.905,222.505 666.099,223.081 666.24,223.346 
			667.286,225.735 667.333,225.823 667.427,226 668.273,227.588 668.966,228.465 669.472,228.989 669.613,229.254 670.113,229.554 
			670.753,230.119 671.753,230.72 672.341,230.973 674.235,231.551 674.641,231.675 674.776,231.716 677.823,231.906 
			678.582,231.842 680.135,231.354 681.382,231.143 681.871,230.997 683.771,230.098 684.524,229.81 685.536,229.158 
			687.208,228.041 688.961,226.654 689.05,226.607 691.198,224.896 691.722,224.391 692.599,223.697 693.693,222.774 
			696.277,220.605 696.277,220.605 696.365,220.558 696.453,220.511 698.819,218.572 699.784,217.831 701.103,216.902 
			702.992,215.557 703.08,215.509 703.298,215.28 705.057,214.117 705.322,213.976 706.205,213.506 706.864,213.041 
			707.746,212.571 708.099,212.383 708.323,212.377 709.076,212.09 709.606,211.808 710.671,211.467 711.336,211.226 712,210.986 
			713.289,210.639 714.842,210.152 716.042,209.853 718.043,209.354 719.466,209.049 721.467,208.55 721.778,208.497 
			724.543,208.158 724.767,208.152 725.079,208.099 725.702,207.994 727.579,207.901 729.232,207.814 730.038,207.838 
			731.202,207.897 733.349,207.887 734.649,207.988 736.349,207.989 736.755,208.112 738.279,208.207 739.625,208.396 
			742.137,208.645 744.337,208.946 746.043,209.171 747.296,209.183 749.678,209.614 750.801,209.809 753.112,210.958 
			753.794,211.387 755.675,213.218 756.64,214.177 		">
		</polygon>
	</g>
</g>
<g id="Layer_1">
</g>
</svg>
