<?xml version="1.0" encoding="iso-8859-1"?>
<!-- Generator: Adobe Illustrator 19.2.1, SVG Export Plug-In . SVG Version: 6.00 Build 0)  -->
<svg version="1.1" xmlns="http://www.w3.org/2000/svg" xmlns:xlink="http://www.w3.org/1999/xlink" x="0px" y="0px"
	 viewBox="0 0 841.89 595.28" style="enable-background:new 0 0 841.89 595.28;" xml:space="preserve">
<g id="layer216">
	<g id="layer216_1_" slic3r:z="8.66000000000007e-005">
		<polygon slic3r:type="contour" style="fill:#FFFFFF;stroke:#000000;stroke-miterlimit:10;" points="749.045,225.02 
			749.192,225.508 749.203,225.955 749.225,228.549 748.929,230.973 748.905,231.779 748.64,233.62 748.568,234.337 
			748.439,234.519 747.732,236.595 747.201,238.578 746.948,239.166 746.954,239.389 746.07,241.559 745.946,241.965 
			745.858,242.012 744.927,244.094 744.544,244.864 743.644,246.364 742.536,248.539 742.366,248.857 742.236,249.039 
			740.511,251.544 739.039,253.461 738.604,253.919 738.345,254.284 736.467,256.077 735.502,256.817 734.584,257.646 
			732.747,259.304 731.912,259.862 729.982,261.344 729.54,261.579 729.364,261.673 729.058,261.949 726.898,263.212 
			725.403,264.235 724.521,264.705 723.508,265.357 721.79,266.386 721.084,266.762 719.454,267.743 718.877,267.937 
			718.26,268.266 716.889,268.883 715.871,269.311 714.982,269.558 713.347,270.316 712.105,270.75 711.752,270.938 
			710.287,271.379 708.204,272.148 707.539,272.389 704.698,273.222 702.786,273.674 700.738,274.085 696.379,275.047 
			696.155,275.052 696.067,275.099 695.755,275.152 691.973,275.92 688.813,276.583 688.278,276.642 688.013,276.783 
			685.789,277.287 683.342,277.797 683.077,277.939 678.9,279.03 677.835,279.371 676.77,279.711 674.952,280.339 673.887,280.68 
			672.381,281.256 671.051,281.737 669.104,282.548 668.086,282.976 666.538,283.687 664.461,284.68 663.667,285.103 
			662.961,285.479 660.707,286.566 658.548,287.829 657.665,288.299 657.135,288.582 655.241,289.704 654.799,289.939 
			653.034,290.879 650.168,292.518 649.904,292.659 649.551,292.848 646.82,294.528 645.19,295.51 644.531,295.974 643.166,296.814 
			641.93,297.472 640.741,298.219 638.229,299.67 638.14,299.717 638.052,299.764 635.01,301.497 634.304,301.874 633.115,302.62 
			631.132,303.789 628.972,305.053 628.796,305.147 628.619,305.241 626.325,306.463 624.736,307.309 623.412,308.014 
			622.088,308.719 621.029,309.283 619.128,310.182 618.952,310.276 616.786,311.316 614.974,312.168 613.78,312.69 
			612.056,313.495 610.861,314.018 610.067,314.441 607.984,315.21 606.613,315.827 604.265,316.738 602.894,317.354 
			598.952,318.887 598.864,318.934 598.864,318.934 598.864,318.934 594.787,320.426 592.086,321.524 591.598,321.671 
			591.109,321.818 588.45,322.781 585.832,323.609 585.255,323.802 584.279,324.096 581.925,324.783 580.595,325.264 
			578.419,325.857 574.865,326.843 574.553,326.896 573.841,327.048 570.641,327.847 568.994,328.157 566.635,328.621 
			562.94,329.342 562.628,329.395 561.781,329.506 558.528,329.992 557.769,330.056 553.622,330.566 553.175,330.577 
			552.504,330.594 548.798,330.869 546.474,330.973 544.463,331.025 541.645,331.052 541.286,331.017 538.11,331.009 
			537.798,331.062 535.11,330.907 534.216,330.93 532.245,330.847 530.586,330.71 528.975,330.662 526.957,330.491 524.716,330.324 
			523.728,330.171 521.575,329.958 520.228,329.769 519.734,329.692 518.069,329.332 516.093,329.025 515.329,328.866 512,328.146 
			511.011,327.993 509.17,327.727 507.371,327.326 506.518,327.213 503.824,326.835 502.071,326.522 499.471,326.321 
			498.707,326.162 497.495,326.014 495.295,325.712 494.266,325.694 490.854,325.245 490.001,325.133 488.878,324.938 
			487.89,324.784 486.408,324.554 485.42,324.401 483.173,324.011 481.555,323.739 479.849,323.515 479.132,323.444 
			476.926,322.919 476.026,322.718 474.274,322.406 472.021,321.792 470.757,321.333 468.863,320.755 468.051,320.508 
			465.028,319.512 465.028,319.512 465.028,319.512 464.44,319.258 461.13,317.509 460.947,317.38 460.812,317.339 459.583,316.52 
			457.219,315.06 456.767,314.848 454.074,312.77 453.621,312.558 453.209,312.21 451.105,310.386 450.599,309.862 449.682,308.991 
			448.394,307.637 447.336,306.501 446.784,305.889 445.726,304.753 444.479,303.264 443.145,301.822 440.982,299.462 
			440.658,299.067 437.901,296.23 437.625,295.924 434.415,292.875 434.321,292.699 430.529,289.62 430.347,289.491 
			426.166,286.959 425.037,286.54 421.967,285.456 419.849,284.884 418.32,284.566 415.762,284.229 415.132,284.111 
			414.773,284.075 412.091,284.144 410.35,284.278 408.609,284.413 405.579,284.893 404.732,285.004 404.332,285.104 
			400.861,285.82 400.237,285.925 400.061,286.019 396.678,286.688 394.942,287.045 393.165,287.538 389.206,288.401 
			389.03,288.495 388.806,288.501 386.629,289.093 385.388,289.528 384.588,289.727 381.616,290.743 380.775,291.078 
			380.552,291.084 378.781,291.8 376.168,292.852 375.815,293.04 372.72,294.461 371.349,295.078 369.537,295.93 367.418,297.058 
			366.801,297.387 364.947,298.374 363.888,298.938 363.358,299.22 361.375,300.39 359.881,301.412 358.957,302.018 357.244,303.27 
			355.708,304.427 354.872,304.986 353.996,305.679 352.683,306.832 350.929,308.219 349.658,309.236 348.081,310.529 
			346.898,311.499 344.485,313.35 344.091,313.673 343.914,313.767 343.608,314.044 340.707,316.042 338.159,317.852 
			337.676,318.222 337.5,318.316 336.623,319.01 334.028,320.732 333.368,321.196 331.215,322.683 330.032,323.653 329.461,324.07 
			327.048,325.922 326.695,326.11 326.259,326.568 324.023,328.326 322.493,329.707 321.18,330.859 320.086,331.782 318.732,333.07 
			317.202,334.451 316.113,335.597 314.412,337.296 312.581,339.178 312.016,339.819 311.404,340.371 309.968,341.929 
			308.837,343.211 307.754,344.581 306.754,345.68 305.541,347.232 304.546,348.555 304.075,349.372 302.356,352.101 
			302.055,352.601 301.931,353.007 301.295,354.365 300.017,356.858 299.546,357.676 298.286,360.84 297.944,361.475 
			296.931,363.827 296.507,364.733 295.882,366.538 294.916,368.979 294.751,369.52 294.332,370.649 293.832,372.049 
			293.755,372.543 292.965,374.889 292.594,376.107 292.093,377.506 291.645,379.218 291.309,380.077 290.826,382.147 
			290.66,382.688 289.971,385.435 290.018,385.523 289.976,385.658 289.168,389.034 288.726,390.969 288.237,392.816 
			287.877,394.48 287.44,396.639 286.662,399.432 286.503,400.197 286.379,400.603 285.683,403.126 285.094,404.573 
			284.764,405.655 283.886,408.048 283.933,408.137 283.892,408.272 282.967,410.577 282.59,411.571 282.048,413.106 
			281.205,415.141 281.082,415.547 280.41,417.264 280.115,417.987 279.986,418.17 279.149,420.428 278.519,422.01 277.647,424.627 
			277.517,424.809 277.476,424.945 277.228,425.756 276.256,427.973 275.879,428.967 274.943,430.825 273.629,433.678 
			273.417,434.13 272.611,435.806 271.586,437.712 270.861,439.117 269.795,441.158 268.429,443.698 268.217,444.151 
			267.039,447.044 266.409,448.626 265.536,451.243 264.658,453.637 264.493,454.178 263.062,457.659 262.72,458.294 
			262.337,459.065 262.296,459.2 262.296,459.2 262.255,459.335 260.076,463.328 259.823,463.916 259.093,465.098 258.233,466.462 
			257.98,467.05 257.12,468.415 257.079,468.55 255.56,470.378 253.923,472.836 253.576,473.248 253.229,473.659 252.534,474.482 
			250.403,476.863 249.273,478.145 248.007,479.385 247.442,480.026 246.789,480.714 245.824,481.455 244.958,482.595 
			243.911,483.607 243.087,484.612 242.651,485.07 240.644,487.046 240.032,487.598 239.29,488.333 236.354,490.69 235.959,491.013 
			235.565,491.337 234.423,492.171 233.452,492.688 232.793,493.153 230.016,494.745 229.839,494.839 229.574,494.98 
			226.568,496.355 224.002,497.494 223.296,497.87 220.195,499.069 219.089,499.544 217.583,500.12 214.347,501.277 
			211.552,502.199 210.664,502.445 208.799,502.985 207.199,503.384 206.487,503.537 203.998,504.182 200.439,504.945 
			200.351,504.992 200.351,504.992 196.656,505.713 195.097,505.977 194.874,505.983 192.868,506.258 192.02,506.369 
			189.567,506.656 188.05,506.784 187.202,506.896 184.032,507.111 180.19,507.344 179.79,507.444 179.208,507.414 175.902,507.589 
			174.29,507.541 172.59,507.54 169.279,507.49 169.19,507.537 169.19,507.537 168.92,507.455 165.473,507.365 164.396,507.258 
			162.426,507.175 160.855,506.991 159.014,506.725 156.414,506.524 155.068,506.335 153.768,506.234 152.374,505.957 
			151.791,505.927 151.568,505.933 148.645,505.337 147.927,505.266 146.621,504.941 145.227,504.664 142.798,504.145 
			142.439,504.109 138.928,503.26 138.928,503.26 138.793,503.219 135.776,502.447 134.829,502.158 131.9,501.338 131.494,501.215 
			131.359,501.173 130.906,500.961 128.154,500.048 127.43,499.753 125.307,498.958 123.908,498.457 122.143,497.697 
			120.197,496.808 119.156,496.342 116.98,495.235 116.21,494.852 113.94,493.569 113.893,493.48 113.758,493.439 111.935,492.144 
			110.43,491.019 109.701,490.501 108.372,489.283 107.637,488.541 106.579,487.405 105.932,486.617 105.145,485.563 
			103.528,483.592 102.688,482.226 101.301,480.473 99.132,477.889 95.764,473.905 94.982,473.075 94.153,472.156 91.755,469.355 
			88.857,466.253 88.533,465.859 88.304,465.641 86.646,463.805 85.406,462.539 85.265,462.275 83.825,460.209 83.308,459.238 
			82.368,457.473 81.798,456.19 80.658,453.625 80.512,453.136 80.124,451.983 79.49,449.942 79.343,449.453 78.799,445.665 
			78.734,444.906 78.687,444.818 78.723,444.459 78.225,440.759 78.021,438.035 77.91,437.188 77.887,436.294 77.771,433.523 
			77.844,429.405 77.885,429.27 77.879,429.047 77.999,425.017 78.124,422.911 78.29,420.67 78.651,417.306 78.793,415.871 
			79.355,411.606 79.478,411.201 79.992,408.548 80.269,407.154 80.357,407.107 80.434,406.613 81.118,403.643 81.283,403.102 
			81.82,401.343 82.197,400.349 82.321,399.943 83.11,397.597 83.534,396.691 84.418,394.521 84.883,393.48 85.26,392.486 
			85.797,390.728 86.133,389.869 86.633,388.47 87.052,387.34 88.283,384.759 88.671,384.212 89.007,383.353 90.409,380.454 
			91.133,379.049 91.263,378.866 91.993,377.685 93.706,374.733 93.795,374.686 93.795,374.686 93.795,374.686 95.873,371.993 
			97.557,369.623 97.857,369.123 98.075,368.894 98.681,368.118 100.324,365.884 101.106,365.014 102.148,363.779 102.973,362.774 
			103.885,361.721 105.409,360.116 106.016,359.34 107.281,358.1 108.241,357.136 108.982,356.401 110.554,354.884 111.819,353.644 
			112.779,352.68 114.132,351.392 114.874,350.657 116.187,349.505 116.71,349 118.988,347.107 119.559,346.69 120.171,346.137 
			122.319,344.427 123.502,343.457 123.985,343.086 124.555,342.669 125.874,341.741 128.116,340.207 128.422,339.93 
			130.752,338.349 132.376,337.144 133.124,336.633 133.477,336.445 136.072,334.723 136.69,334.394 137.261,333.977 
			139.285,332.672 139.903,332.343 140.827,331.738 142.151,331.033 144.31,329.769 145.146,329.211 147.482,327.854 
			147.788,327.577 149.289,326.778 150.348,326.214 153.873,324.11 154.579,323.734 154.755,323.64 155.326,323.223 
			158.898,321.208 162.734,319.051 162.823,319.004 162.823,319.004 162.864,318.869 166.436,316.853 167.672,316.195 
			169.919,314.885 170.008,314.838 172.432,313.434 172.962,313.152 175.345,311.882 176.139,311.459 177.022,310.989 
			180.676,308.703 181.206,308.421 181.47,308.28 184.995,306.176 186.36,305.336 188.697,303.979 189.091,303.655 189.532,303.42 
			191.562,302.339 192.751,301.593 194.251,300.794 194.958,300.418 196.988,299.337 198.488,298.538 199.942,297.65 
			201.219,296.857 202.584,296.017 204.832,294.706 205.538,294.33 205.803,294.189 206.509,293.813 209.551,292.08 
			212.681,290.299 213.652,289.782 214.223,289.365 217.265,287.631 217.483,287.402 218.495,286.75 220.037,285.815 
			220.567,285.533 222.326,284.37 223.691,283.529 224.527,282.971 226.334,281.896 226.687,281.708 226.951,281.567 
			228.752,280.268 229.764,279.615 231.13,278.775 233.148,277.247 233.413,277.106 234.072,276.642 235.655,275.572 
			236.267,275.019 237.627,273.956 238.945,273.027 239.863,272.198 241.311,271.087 241.97,270.623 244.071,268.824 
			244.336,268.683 244.907,268.266 246.796,266.92 247.455,266.456 248.991,265.298 250.132,264.463 250.75,264.134 
			252.681,262.653 253.122,262.418 253.646,261.912 255.405,260.749 257.071,259.409 257.683,258.856 258.56,258.162 
			259.613,257.375 261.055,256.04 261.626,255.623 262.15,255.118 263.727,253.824 264.863,252.766 265.475,252.214 
			267.612,250.056 267.7,250.009 267.7,250.009 267.788,249.962 270.148,247.799 270.802,247.111 271.761,246.147 273.074,244.995 
			273.686,244.442 274.386,243.843 275.922,242.685 277.588,241.345 278.159,240.927 279.165,240.051 280.13,239.311 
			280.524,238.988 282.319,237.465 283.108,236.819 284.379,235.802 285.821,234.467 286.569,233.956 288.099,232.575 
			288.452,232.387 288.67,232.157 290.818,230.447 291.212,230.123 292.66,229.013 294.061,227.813 295.155,226.891 
			296.639,225.421 296.727,225.374 296.815,225.327 297.033,225.098 299.087,223.211 299.393,222.934 299.699,222.658 
			300.752,221.87 302.024,220.854 304.348,219.049 304.831,218.679 305.62,218.032 307.679,216.369 308.645,215.628 
			310.398,214.241 312.894,212.119 313.023,211.937 313.376,211.749 316.007,209.668 316.884,208.974 317.366,208.604 
			318.855,207.358 321.263,205.283 321.351,205.236 321.351,205.236 325.347,202.315 325.871,201.809 327.407,200.651 
			329.772,198.712 329.861,198.665 329.861,198.665 333.815,195.879 334.563,195.368 336.187,194.163 337.988,192.864 
			339.041,192.076 339.129,192.029 339.347,191.8 342.513,189.661 343.214,189.061 344.708,188.038 346.509,186.739 
			347.916,185.764 349.146,184.882 350.729,183.813 351.299,183.395 352.488,182.649 353.189,182.049 355.036,180.839 
			356.614,179.546 356.878,179.405 358.544,178.064 359.244,177.465 359.639,177.142 361.086,176.031 361.745,175.566 
			363.587,174.132 365.206,172.704 365.294,172.657 365.73,172.198 366.43,171.599 367.837,170.623 368.537,170.023 369.59,169.236 
			370.291,168.636 372.092,167.337 373.71,165.909 374.281,165.492 374.764,165.121 376.388,163.916 377.129,163.182 
			378.006,162.488 379.013,161.612 380.637,160.407 382.079,159.073 382.208,158.891 382.385,158.797 382.473,158.75 
			384.969,156.628 386.016,155.616 387.417,154.417 388.2,153.547 389.206,152.671 389.248,152.536 390.036,151.889 
			393.144,149.215 393.45,148.939 394.15,148.339 395.027,147.645 396.293,146.405 396.687,146.082 397.74,145.294 398.176,144.836 
			400.236,143.172 401.46,142.067 401.984,141.561 402.202,141.332 403.826,140.127 405.315,138.881 406.28,138.141 406.545,138 
			408.563,136.471 409.923,135.407 410.535,134.855 410.753,134.626 412.2,133.515 413.56,132.451 414.79,131.569 415.008,131.34 
			415.802,130.917 417.208,129.941 418.35,129.107 419.051,128.507 419.533,128.137 420.063,127.855 420.239,127.761 
			421.775,126.603 423.317,125.669 424.153,125.11 424.282,124.928 427.013,123.247 427.583,122.83 428.772,122.084 
			429.255,121.713 431.102,120.503 431.544,120.268 431.762,120.038 433.086,119.333 433.392,119.057 436.039,117.647 
			437.187,117.036 437.981,116.613 438.423,116.378 440.276,115.391 440.453,115.297 441.118,115.056 442.971,114.069 
			443.589,113.74 444.472,113.27 444.96,113.123 445.225,112.982 448.055,111.701 448.673,111.372 448.849,111.278 449.426,111.084 
			452.303,109.892 452.656,109.704 454.162,109.129 454.339,109.035 456.775,108.077 458.504,107.496 459.034,107.214 
			459.787,106.926 461.164,106.533 462.67,105.957 463.823,105.57 464.977,105.182 466.13,104.795 467.418,104.448 469.46,103.814 
			470.172,103.662 471.06,103.415 472.837,102.922 473.813,102.629 475.902,102.083 476.702,101.883 477.59,101.637 
			478.702,101.385 479.903,101.085 481.414,100.733 483.685,100.317 483.774,100.27 483.909,100.311 486.091,99.942 486.803,99.79 
			490.321,99.162 490.545,99.157 490.721,99.063 493.839,98.535 494.51,98.518 496.204,98.295 496.963,98.231 500.575,97.78 
			500.799,97.775 501.287,97.628 503.699,97.476 504.546,97.365 506.87,97.261 508.611,97.126 510.446,97.169 512.099,97.081 
			512.905,97.105 515.411,97.131 515.77,97.166 516.128,97.202 519.363,97.745 519.857,97.821 522.739,98.553 523.863,98.747 
			527.562,99.95 527.921,99.985 527.968,100.073 529.097,100.492 532.126,101.711 532.578,101.923 535.701,103.319 537.242,104.085 
			540.241,105.887 541.423,106.617 544.333,108.466 544.968,108.807 545.515,109.196 548.561,111.086 548.696,111.127 
			548.743,111.216 548.926,111.345 551.913,112.7 553.501,113.554 554.271,113.937 554.771,114.237 557.482,115.286 
			558.435,115.798 560.517,116.729 561.24,117.023 561.781,117.188 563.451,117.772 564.451,118.372 566.574,119.168 
			567.885,119.715 568.656,120.098 571.82,121.359 572.361,121.524 575.395,122.967 575.483,122.92 575.483,122.92 575.483,122.92 
			578.289,124.145 578.694,124.269 580.594,125.07 582.723,126.089 583.581,126.425 584.534,126.937 586.392,127.874 
			587.845,128.686 588.797,129.199 591.884,130.954 592.202,131.124 592.337,131.166 592.655,131.336 595.295,133.103 
			596.024,133.621 596.888,134.18 599.534,136.17 600.263,136.688 600.945,137.118 604.097,139.632 604.508,139.979 
			604.738,140.197 605.149,140.544 608.165,143.016 608.894,143.535 609.947,144.447 610.952,145.271 612.005,146.183 
			613.01,147.008 616.114,149.433 616.297,149.563 616.344,149.651 618.625,151.382 620.271,152.771 620.406,152.812 
			620.818,153.159 623.193,155.067 623.652,155.502 625.069,156.674 626.486,157.845 626.897,158.193 629.184,160.147 
			629.231,160.235 629.919,160.888 631.43,162.236 631.524,162.413 632.124,163.113 633.593,164.597 633.964,165.079 
			635.898,167.222 636.268,167.704 637.514,169.193 638.255,170.158 638.443,170.511 640.153,172.659 640.523,173.142 
			640.899,173.848 641.734,174.99 642.533,176.49 643.044,177.238 643.467,178.032 644.977,181.08 645.776,182.58 646.764,184.434 
			647.375,185.581 648.367,187.659 648.326,187.794 648.42,187.97 649.795,190.977 650.647,192.789 651.217,194.072 
			652.115,195.973 652.256,196.237 652.309,196.549 653.167,198.585 654.03,200.844 654.271,201.509 654.564,202.486 
			655.099,204.127 655.48,205.057 656.214,207.499 656.22,207.722 656.267,207.81 656.513,208.699 657.247,211.14 657.3,211.452 
			657.799,213.453 658.486,215.806 658.591,216.429 658.738,216.918 659.442,219.942 659.683,220.607 660.381,223.407 
			660.481,223.807 660.669,224.16 661.649,227.49 661.884,227.931 662.601,229.702 662.794,230.279 662.935,230.544 
			663.923,232.397 664.716,233.674 665.18,234.333 666.426,235.822 666.656,236.04 666.885,236.258 668.896,237.906 
			669.396,238.207 672.436,239.873 672.659,239.867 673.471,240.115 674.959,240.569 675.406,240.557 676.976,240.741 
			678.982,240.465 679.918,240.307 680.806,240.061 682.936,239.38 684.001,239.039 684.748,238.528 686.202,237.64 
			687.126,237.035 689.009,235.466 689.621,234.913 691.711,232.667 692.452,231.932 693.494,230.698 694.23,229.739 
			695.661,227.958 695.878,227.729 695.967,227.682 697.75,225.712 698.009,225.348 699.057,224.336 699.71,223.649 
			699.969,223.284 701.982,221.532 703.512,220.151 704.083,219.734 705.708,218.529 708.085,217.036 708.35,216.895 
			708.526,216.801 711.092,215.661 712.198,215.186 714.769,214.27 715.169,214.17 715.657,214.023 717.346,213.577 
			718.458,213.325 719.793,213.067 721.487,212.844 721.888,212.744 723.141,212.757 723.676,212.699 725.246,212.882 
			727.493,213.271 729.646,213.484 732.522,213.992 733.375,214.104 736.298,214.7 736.48,214.83 739.374,216.008 740.368,216.385 
			743.502,218.228 745.137,219.17 747.112,221.177 747.764,222.19 		">
		</polygon>
	</g>
</g>
<g id="Layer_1">
</g>
</svg>
