<?xml version="1.0" encoding="iso-8859-1"?>
<!-- Generator: Adobe Illustrator 19.2.1, SVG Export Plug-In . SVG Version: 6.00 Build 0)  -->
<svg version="1.1" xmlns="http://www.w3.org/2000/svg" xmlns:xlink="http://www.w3.org/1999/xlink" x="0px" y="0px"
	 viewBox="0 0 841.89 595.28" style="enable-background:new 0 0 841.89 595.28;" xml:space="preserve">
<g id="layer200">
	<g id="layer200_1_" slic3r:z="8.02000000000006e-005">
		<polygon slic3r:type="contour" style="fill:#FFFFFF;stroke:#000000;stroke-miterlimit:10;" points="226.059,365.201 
			227.381,367.896 228.286,370.02 228.662,370.727 229.484,373.121 229.819,373.963 229.96,374.227 231.258,377.728 
			232.115,379.764 232.696,381.494 233.754,384.33 233.806,384.642 234.041,385.083 235.016,388.189 235.697,390.319 
			236.284,392.272 236.841,394.808 237.24,396.408 237.61,398.591 237.92,400.238 238.084,401.397 238.33,403.985 238.411,405.415 
			238.58,408.497 238.59,410.644 238.595,412.568 238.37,415.974 238.381,416.421 238.387,416.644 237.844,419.879 237.773,420.597 
			237.124,423.208 236.794,424.29 236.753,424.426 236.505,425.237 235.498,427.813 235.126,429.031 234.413,430.883 
			233.53,433.053 233.53,433.053 233.53,433.053 232.687,435.088 231.886,436.987 231.592,437.711 231.509,437.981 230.243,440.922 
			229.824,442.051 229.023,443.95 228.305,445.579 227.468,447.838 227.338,448.02 227.297,448.155 226.243,450.643 
			225.824,451.772 224.941,453.942 224.175,455.483 223.492,456.753 222.644,458.564 222.214,459.246 221.531,460.516 
			220.754,461.61 219.629,463.115 218.805,464.121 217.722,465.491 216.768,466.678 216.115,467.366 214.643,469.283 
			213.213,471.064 211.994,472.393 209.769,474.597 209.681,474.644 208.586,475.567 206.344,477.101 205.991,477.289 
			205.903,477.336 205.815,477.383 205.285,477.665 202.154,479.446 201.313,479.781 199.813,480.58 197.341,481.896 
			196.459,482.366 194.693,483.306 193.722,483.823 192.881,484.158 189.303,485.95 188.639,486.19 185.938,487.289 
			184.961,487.582 183.361,487.981 181.714,488.292 179.931,488.562 176.937,488.683 175.731,488.759 173.537,488.681 
			172.372,488.622 169.59,488.291 169.32,488.208 166.491,487.789 166.491,487.789 163.791,487.187 161.991,486.786 159.65,486.22 
			158.345,485.896 156.363,485.365 155.551,485.117 154.963,484.864 152.075,483.909 150.858,483.538 150.54,483.367 
			147.194,481.977 144.254,480.711 143.983,480.628 139.861,478.631 139.773,478.678 139.726,478.59 135.509,476.417 
			134.557,475.905 131.293,474.244 129.388,473.219 127.165,472.024 124.625,470.657 123.354,469.974 121.22,468.732 
			118.756,466.871 118.298,466.436 118.068,466.218 117.24,465.3 115.858,463.77 115.347,463.022 114.694,462.01 114.042,460.998 
			113.343,459.898 112.967,459.191 111.656,456.944 110.775,455.714 109.47,453.689 108.953,452.718 107.037,449.547 
			106.849,449.194 104.969,445.663 103.506,442.703 101.709,438.902 99.988,434.607 99.941,434.519 99.894,434.431 98.731,430.971 
			98.321,428.924 98.239,427.494 98.411,425.477 98.358,425.165 98.171,423.112 98.278,422.035 98.609,419.253 98.597,418.806 
			99.464,415.966 99.694,414.483 100.337,411.648 100.496,410.884 100.95,409.396 101.693,406.961 102.017,405.655 102.812,403.532 
			103.525,401.68 104.032,400.504 104.497,399.463 105.216,397.834 105.77,396.746 106.918,394.435 107.395,393.841 
			107.689,393.118 108.243,392.03 108.891,391.118 109.668,390.025 110.751,388.655 111.446,387.832 113.011,386.091 
			113.965,384.904 115.489,383.299 115.796,383.023 117.497,381.324 117.803,381.047 118.632,380.266 120.122,379.019 
			120.822,378.42 122.746,376.715 125.548,374.317 125.724,374.223 125.854,374.04 126.248,373.717 129.715,371.078 
			130.415,370.479 132.392,369.086 133.799,368.11 134.417,367.781 136.088,366.664 137.188,365.965 139.483,364.743 
			139.789,364.467 142.214,363.062 143.008,362.639 145.303,361.417 146.362,360.853 148.48,359.725 149.934,358.837 151.57,358.08 
			153.423,357.093 154.618,356.57 157.006,355.524 157.801,355.101 160.319,353.873 160.896,353.679 163.591,352.358 
			163.855,352.217 166.78,351.112 166.868,351.065 169.263,350.243 170.639,349.85 171.216,349.656 171.663,349.645 173.487,349.24 
			175.716,348.959 177.099,348.789 178.122,348.584 181.381,348.321 184.729,348.012 185.711,347.942 186.558,347.83 
			189.464,347.756 189.776,347.703 192.417,347.769 193.758,347.735 197.658,348.037 197.746,347.99 197.882,348.031 
			200.981,348.533 202.016,348.775 204.404,349.429 204.675,349.512 204.898,349.506 208.286,350.761 210.321,351.604 
			212.267,352.493 213.49,353.088 215.895,354.413 217.577,355.443 219.541,357.003 221.234,358.481 222.798,360.141 
			223.909,361.588 225.589,364.319 225.824,364.76 		">
		</polygon>
		<polygon slic3r:type="contour" style="fill:#FFFFFF;stroke:#000000;stroke-miterlimit:10;" points="620.116,185.03 
			621.526,187.677 621.908,188.607 623.095,191.261 623.9,192.985 624.892,195.062 625.274,195.992 626.749,199.398 626.89,199.663 
			626.89,199.663 626.937,199.751 628.699,203.911 629.833,206.253 630.026,206.83 630.261,207.271 631.225,209.93 632.364,212.496 
			632.511,212.984 633.756,216.173 634.044,216.926 634.003,217.062 634.05,217.15 635.682,221.492 636.587,223.616 
			636.922,224.457 637.984,227.517 638.172,227.87 638.272,228.27 639.47,231.371 639.711,232.036 639.758,232.124 640.821,235.183 
			641.009,235.536 641.972,238.196 642.354,239.125 643.076,241.12 643.892,243.291 643.986,243.468 644.861,246.174 
			644.955,246.351 645.678,248.345 646.018,249.41 646.065,249.498 646.758,252.075 646.91,252.787 647.368,254.923 
			647.626,256.258 647.889,257.817 648.065,259.423 648.165,259.823 648.188,260.717 648.175,261.97 648.098,262.464 
			647.803,264.888 647.437,266.329 646.659,269.122 645.993,271.063 644.969,272.968 644.503,274.009 644.032,274.826 
			643.467,275.467 642.902,276.108 642.16,276.843 641.113,277.854 640.024,279.001 639.282,279.735 638.67,280.288 
			637.534,281.346 635.915,282.775 635.386,283.057 632.761,285.361 632.761,285.361 632.673,285.408 629.824,287.718 
			629.342,288.088 628.906,288.547 626.67,290.304 626.187,290.674 624.386,291.973 623.992,292.297 623.333,292.761 
			621.879,293.648 619.985,294.771 619.679,295.047 619.149,295.329 616.854,296.551 616.065,297.198 615.359,297.574 
			614.742,297.903 613.724,298.332 610.458,300.071 610.193,300.212 610.105,300.259 609.752,300.447 606.174,302.239 
			605.292,302.709 601.714,304.501 601.626,304.548 601.449,304.642 598.001,306.251 597.513,306.398 595.389,307.303 
			594.194,307.826 594.018,307.92 593.706,307.972 591.223,308.841 590.07,309.229 588.428,309.763 588.252,309.857 
			586.563,310.303 584.651,310.755 583.763,311.002 582.739,311.207 581.18,311.471 579.798,311.64 576.456,312.174 
			576.233,312.179 575.609,312.285 572.127,312.553 570.697,312.635 568.868,312.816 567.391,312.809 566.721,312.827 
			565.156,312.867 564.35,312.843 560.185,312.681 559.291,312.704 558.35,312.639 555.709,312.573 554.186,312.478 
			552.886,312.377 550.062,312.181 549.792,312.099 547.057,311.856 544.992,311.596 543.375,311.324 540.634,310.858 
			539.781,310.745 539.287,310.669 538.252,310.427 536.134,309.855 533.887,309.465 533.076,309.218 530.153,308.622 
			529.388,308.463 527.947,308.097 527.859,308.144 526.594,307.684 526.459,307.643 524.518,306.977 522.442,306.27 
			521.172,305.587 519.767,304.863 519.72,304.774 518.632,304.221 517.309,303.226 516.486,302.531 514.928,301.095 
			514.011,300.224 513.276,299.482 511.618,297.646 511.571,297.558 509.631,295.192 508.932,294.091 507.304,291.673 
			506.693,290.525 505.935,288.889 505.6,288.048 504.925,286.142 504.82,285.518 504.661,284.583 504.345,282.712 504.181,281.553 
			504.141,279.988 504.076,279.23 504.154,277.035 504.137,276.365 504.391,274.077 504.504,273.224 504.451,272.912 
			504.964,270.259 505.454,268.413 505.53,267.919 506.067,266.16 506.804,263.502 507.098,262.778 507.263,262.237 
			508.171,259.261 508.336,258.72 509.12,256.15 509.32,255.25 509.84,252.821 510.088,250.31 510.206,249.68 510.271,248.739 
			510.131,246.774 509.873,245.439 509.674,244.639 508.687,242.785 508.593,242.609 508.499,242.432 506.471,240.113 
			506.059,239.766 504.001,238.029 503.272,237.511 501.455,236.44 499.368,235.285 499.097,235.203 498.915,235.073 
			496.474,234.107 494.04,233.365 493.857,233.235 493.634,233.241 490.664,232.557 487.652,232.008 486.258,231.73 
			484.911,231.541 482.082,231.122 479.341,230.656 478.488,230.543 475.789,229.942 475.518,229.859 475.43,229.906 
			472.777,229.393 471.472,229.068 468.049,228.172 467.102,227.883 466.02,227.553 464.214,226.929 462.679,226.387 
			460.738,225.721 458.074,224.76 457.804,224.678 456.357,224.089 454.458,223.288 454.187,223.205 453.781,223.081 
			450.706,221.773 450.435,221.691 449.8,221.349 447.495,220.424 445.413,219.494 445.278,219.453 442.925,218.439 
			440.302,217.344 438.85,216.531 434.822,214.711 434.686,214.67 434.639,214.581 430.517,212.585 428.935,211.954 
			426.083,210.641 422.466,209.168 421.831,208.827 420.29,208.061 418.026,207.001 417.121,206.577 415.662,205.54 
			414.334,204.322 413.417,203.451 412.8,202.08 411.672,199.962 411.003,196.579 410.856,196.09 410.987,194.208 411.022,193.849 
			411.506,191.779 411.542,191.42 412.42,189.027 412.815,187.003 413.021,186.327 413.269,185.515 413.687,184.386 
			413.976,183.439 414.223,182.628 414.259,182.269 415.72,178.205 415.838,177.576 417.246,174.9 418.094,173.089 418.218,172.683 
			418.683,171.642 419.621,168.084 419.65,167.502 419.739,167.455 421.046,164.379 421.6,163.291 422.165,162.65 422.942,161.557 
			424.072,160.275 425.026,159.087 425.503,158.493 425.98,157.9 427.11,156.618 428.488,154.525 428.658,154.207 428.788,154.025 
			428.959,153.707 429.648,152.661 431.673,149.656 432.792,147.927 433.092,147.427 434.699,145.552 437.383,142.083 
			438.037,141.395 439.126,140.249 441.48,137.862 441.698,137.633 443.14,136.298 445.729,134.353 446.83,133.653 449.56,131.973 
			450.266,131.597 452.738,130.281 453.532,129.858 455.915,128.588 456.003,128.541 456.845,128.207 458.569,127.402 
			458.745,127.308 461.446,126.209 461.976,125.927 464.323,125.017 464.988,124.776 467.206,124.048 470.13,122.944 
			471.331,122.645 472.26,122.263 474.925,121.524 476.437,121.172 477.949,120.819 479.461,120.467 481.197,120.11 
			484.403,119.535 484.45,119.623 484.538,119.576 488.815,118.885 488.903,118.838 489.039,118.879 492.162,118.575 
			492.921,118.511 494.039,118.482 495.921,118.613 498.833,118.762 500.309,118.768 502.686,118.976 504.48,119.153 
			505.915,119.295 508.338,119.591 510.762,119.887 512.02,120.123 513.861,120.388 515.749,120.742 516.785,120.984 519.89,121.71 
			521.284,121.987 523.401,122.559 524.842,122.924 527.859,123.697 528.583,123.991 528.853,124.074 529.259,124.198 
			533.094,125.441 533.499,125.565 533.817,125.736 537.475,127.073 537.928,127.285 541.321,128.764 542.227,129.188 
			544.485,130.025 545.255,130.408 545.796,130.573 548.013,131.544 551.577,132.705 551.848,132.788 551.983,132.829 
			552.389,132.953 555.5,133.902 556.447,134.191 557.935,134.645 558.976,135.11 561.505,136.029 561.505,136.029 561.64,136.07 
			563.81,136.954 564.804,137.331 566.798,138.309 569.197,139.41 570.467,140.093 573.772,141.619 574.772,142.22 576.947,143.327 
			578.353,144.051 579.123,144.434 581.305,145.765 582.122,146.236 584.121,147.437 585.027,147.861 586.074,148.55 
			587.073,149.151 588.484,150.099 589.437,150.611 590.213,151.217 590.901,151.871 592.271,152.954 593.823,154.167 
			594.052,154.384 594.599,154.773 595.928,155.991 596.522,156.468 598.033,157.816 598.262,158.034 600.049,159.688 
			600.326,159.994 601.107,160.824 601.889,161.654 603.265,162.96 603.588,163.355 603.682,163.531 605.657,165.538 
			607.497,167.504 607.727,167.722 608.326,168.422 609.984,170.259 610.401,170.83 612.711,173.678 614.051,175.344 
			615.303,177.056 617.025,179.651 617.119,179.828 618.618,182.429 619.834,184.5 		">
		</polygon>
	</g>
</g>
<g id="Layer_1">
</g>
</svg>
