<?xml version="1.0" encoding="iso-8859-1"?>
<!-- Generator: Adobe Illustrator 19.2.1, SVG Export Plug-In . SVG Version: 6.00 Build 0)  -->
<svg version="1.1" xmlns="http://www.w3.org/2000/svg" xmlns:xlink="http://www.w3.org/1999/xlink" x="0px" y="0px"
	 viewBox="0 0 841.89 595.28" style="enable-background:new 0 0 841.89 595.28;" xml:space="preserve">
<g id="layer241">
	<g id="layer241_1_" slic3r:z="9.66000000000008e-005">
		<polygon slic3r:type="contour" style="fill:#FFFFFF;stroke:#000000;stroke-miterlimit:10;" points="770.455,198.209 
			771.125,199.892 771.477,201.404 771.929,203.316 772.016,204.969 772.085,207.652 771.978,208.728 771.883,210.251 
			771.647,211.51 771.405,212.545 771.04,213.986 770.209,216.468 769.749,217.732 769.625,218.138 769.243,218.909 768.111,221.89 
			767.134,223.884 766.751,224.654 765.903,226.465 765.173,227.647 764.831,228.282 764.183,229.194 763.665,229.923 
			762.759,231.199 761.634,232.704 760.945,233.751 759.774,235.168 759.297,235.761 758.173,237.267 757.437,238.225 
			757.307,238.407 757.001,238.684 755.441,240.647 753.481,242.711 753.481,242.711 753.481,242.711 751.48,244.91 750.915,245.55 
			749.737,246.744 749.084,247.432 747.253,249.313 746.471,250.183 745.076,251.606 744.77,251.882 743.422,253.393 
			742.291,254.675 741.638,255.362 740.373,256.603 739.325,257.614 738.366,258.578 737.318,259.589 735.835,261.059 
			735.658,261.153 734.175,262.623 733.869,262.899 731.721,264.609 730.802,265.438 729.496,266.814 729.496,266.814 
			729.496,266.814 727.695,268.113 727.389,268.389 726.948,268.624 724.706,270.158 723.999,270.534 722.063,271.792 
			721.445,272.121 721.316,272.303 718.668,273.713 717.521,274.324 716.238,274.894 714.867,275.511 714.202,275.752 
			711.501,276.85 711.06,277.085 709.995,277.425 708.042,278.013 705.559,278.882 705.471,278.929 703.206,279.568 703.07,279.527 
			701.647,279.832 699.693,280.419 699.382,280.472 696.716,281.212 696.14,281.405 693.298,282.239 692.322,282.532 
			690.815,283.108 690.327,283.255 688.244,284.024 686.826,284.553 685.496,285.034 684.567,285.416 681.825,286.65 
			681.072,286.937 680.719,287.125 680.189,287.407 677.141,288.917 676.7,289.152 674.399,290.151 671.622,291.743 
			671.222,291.843 670.651,292.26 668.044,293.535 666.149,294.658 665.49,295.122 662.272,296.949 662.183,296.996 662.007,297.09 
			658.617,299.235 658.088,299.517 657.47,299.846 655.487,301.016 654.604,301.486 653.239,302.326 652.138,303.026 
			649.849,304.471 648.967,304.941 648.219,305.453 644.918,307.551 644.918,307.551 644.918,307.551 644.742,307.645 
			641.523,309.472 641.17,309.66 640.864,309.936 638.569,311.158 637.951,311.487 637.027,312.093 634.426,313.591 
			633.279,314.202 632.043,314.86 631.249,315.283 630.101,315.895 629.348,316.182 628.642,316.558 627.936,316.934 
			626.477,317.598 625.594,318.068 624.576,318.497 622.499,319.49 621.393,319.966 620.198,320.488 617.056,321.822 
			615.638,322.35 612.449,323.596 611.432,324.024 607.225,325.698 607.001,325.704 606.825,325.798 603.812,326.949 
			602.347,327.389 600.088,328.253 599.646,328.488 597.652,329.21 595.746,329.885 595.216,330.167 594.992,330.173 
			593.398,330.796 592.557,331.13 591.715,331.465 590.256,332.129 590.079,332.223 588.397,332.893 586.761,333.65 
			586.537,333.656 585.255,334.226 582.689,335.366 582.113,335.559 578.529,337.128 576.758,337.844 574.058,338.943 
			571.445,339.994 569.763,340.664 566.35,341.915 565.685,342.155 561.114,343.57 560.714,343.67 560.225,343.817 556.448,344.809 
			553.736,345.46 552.759,345.753 550.847,346.205 548.665,346.574 547.776,346.821 544.394,347.489 543.011,347.659 
			541.276,348.017 539.94,348.275 537.846,348.597 535.799,349.008 534.952,349.119 533.616,349.377 531.657,349.74 
			528.274,350.409 527.874,350.509 527.786,350.556 527.562,350.561 524.98,351.031 523.733,351.242 522.262,351.458 
			520.303,351.822 519.768,351.88 518.52,352.091 516.603,352.32 515.397,352.395 514.638,352.46 512.72,352.688 511.738,352.758 
			511.29,352.769 509.102,352.915 507.137,353.055 506.379,353.119 505.037,353.154 503.696,353.188 502.937,353.252 
			500.655,353.222 498.555,353.32 496.902,353.408 494.937,353.548 492.837,353.646 490.737,353.745 488.813,353.75 
			487.384,353.831 486.625,353.895 484.254,353.912 482.602,353.999 481.172,354.08 480.813,354.045 480.725,354.092 
			478.49,354.149 477.819,354.167 474.425,354.388 473.889,354.446 473.531,354.411 469.601,354.691 466.477,354.995 
			465.495,355.065 462.324,355.281 461.701,355.386 460.718,355.456 459.377,355.491 457.412,355.631 456.965,355.642 
			456.965,355.642 456.518,355.654 453.206,355.604 450.701,355.579 449.448,355.567 447.43,355.395 445.818,355.347 
			444.56,355.111 440.878,354.579 440.742,354.538 440.742,354.538 440.654,354.585 436.837,354.012 435.625,353.864 
			433.784,353.599 431.631,353.385 430.196,353.243 427.549,352.954 424.861,352.799 423.785,352.692 422.396,352.639 
			420.026,352.655 417.437,352.9 416.008,352.982 415.473,353.04 414.137,353.298 411.555,353.767 407.819,354.624 407.73,354.671 
			407.419,354.724 403.642,355.715 402.93,355.868 402.265,356.109 401.023,356.543 398.67,357.23 395.658,358.381 394.728,358.763 
			392.957,359.48 391.186,360.196 390.345,360.531 388.091,361.618 385.396,362.94 384.602,363.363 382.395,364.538 
			382.395,364.538 382.395,364.538 379.835,365.901 378.07,366.841 376.481,367.687 374.587,368.81 373.704,369.28 371.456,370.59 
			369.65,371.665 369.032,371.994 368.196,372.553 366.519,373.446 365.154,374.286 364.624,374.568 361.494,376.349 
			361.141,376.537 360.482,377.001 358.722,378.165 357.186,379.322 355.915,380.339 355.038,381.033 352.896,382.967 
			352.107,383.613 351.889,383.843 351.236,384.531 349.488,386.141 348.44,387.152 348.005,387.611 347.875,387.793 
			345.997,389.586 344.126,391.603 343.996,391.785 342.119,393.578 340.459,395.142 339.588,396.059 337.669,397.987 
			337.015,398.675 336.709,398.951 336.144,399.592 335.403,400.327 334.096,401.703 332.707,403.349 332.359,403.76 
			331.053,405.136 330.229,406.141 329.663,406.782 328.274,408.428 327.491,409.299 326.797,410.122 326.143,410.809 
			323.324,414.237 322.847,414.831 322.411,415.29 320.81,417.389 319.297,419.441 319.038,419.805 318.131,421.081 316.4,423.362 
			315.358,424.597 314.623,425.555 313.757,426.696 313.063,427.519 311.02,429.853 309.849,431.27 309.413,431.729 
			307.588,433.833 306.199,435.48 305.11,436.626 305.11,436.626 305.11,436.626 304.021,437.772 302.497,439.377 301.667,440.159 
			300.796,441.076 299.577,442.405 298.794,443.275 297.84,444.463 296.493,445.974 295.451,447.208 294.756,448.032 
			292.407,450.642 292.148,451.006 292.06,451.053 291.931,451.236 289.711,453.664 288.363,455.175 288.187,455.269 287.84,455.68 
			285.667,458.197 284.796,459.114 284.449,459.525 283.925,460.031 281.229,463.053 279.964,464.293 279.528,464.752 
			279.399,464.934 277.568,466.815 276.303,468.056 274.955,469.567 273.954,470.666 273.954,470.666 273.736,470.895 
			270.646,474.24 270.387,474.605 268.733,476.392 266.773,478.456 266.249,478.961 264.289,481.025 263.288,482.124 
			263.07,482.353 262.023,483.365 260.539,484.834 259.274,486.075 258.491,486.945 257.573,487.774 255.478,489.796 
			254.995,490.166 253.424,491.683 251.499,493.388 250.799,493.987 250.275,494.493 248.262,496.244 247.473,496.891 
			244.937,499.148 244.631,499.425 243.448,500.394 243.448,500.394 243.359,500.441 241.164,502.064 240.199,502.804 
			238.487,504.056 237.827,504.52 235.45,506.013 235.274,506.107 235.185,506.154 232.273,507.705 231.478,508.128 
			229.401,509.121 227.765,509.879 225.994,510.596 223.605,511.641 222.588,512.07 221.746,512.405 219.44,513.18 216.733,514.055 
			216.38,514.243 213.45,515.123 211.674,515.616 209.497,516.209 207.096,516.808 205.584,517.16 202.202,517.828 201.713,517.975 
			200.466,518.186 198.46,518.461 197.748,518.614 196.278,518.83 194.36,519.059 192.083,519.251 191.324,519.316 190.789,519.374 
			188.065,519.578 186.189,519.671 184.624,519.712 180.824,519.809 180.512,519.862 180.289,519.868 176.218,519.883 
			174.206,519.935 172.777,520.016 171.165,519.968 170.359,519.944 169.553,519.92 168.659,519.943 166.689,519.859 
			165.883,519.835 163.418,519.675 162.254,519.616 161.895,519.58 159.207,519.426 158.401,519.401 155.801,519.2 155.172,519.082 
			151.807,518.721 151.583,518.727 151.448,518.685 148.26,518.231 148.125,518.189 145.925,517.888 144.531,517.611 
			142.867,517.251 140.391,516.643 139.403,516.49 137.15,515.877 136.656,515.8 136.474,515.671 133.815,514.934 132.686,514.515 
			129.751,513.472 129.21,513.307 128.44,512.924 126.77,512.341 124.735,511.499 124.417,511.328 124.1,511.157 122.877,510.562 
			122.059,510.091 120.56,509.19 119.972,508.937 119.425,508.548 117.837,507.694 116.426,506.747 114.468,505.41 112.052,503.638 
			109.135,501.566 106.348,499.311 104.473,497.704 102.827,496.315 101.269,494.878 99.346,493.183 98.017,491.965 95.49,489.346 
			94.296,488.168 93.103,486.991 87.912,481.712 86.119,479.834 84.467,478.221 82.492,476.214 81.251,474.949 78.723,472.329 
			77.524,470.929 75.226,468.527 74.762,467.868 73.286,466.161 72.175,464.714 71.758,464.143 70.777,462.513 69.742,460.571 
			69.178,459.512 68.849,458.894 67.463,455.44 67.369,455.264 67.181,454.911 66.306,452.204 65.907,450.604 65.52,449.451 
			65.198,447.357 64.94,446.021 64.711,444.103 64.583,442.586 64.355,440.668 64.396,440.533 64.397,438.832 64.392,436.909 
			64.405,435.656 64.518,433.103 64.589,432.386 64.53,431.85 64.826,429.427 64.915,427.68 65.033,427.051 65.4,423.91 
			65.589,422.563 65.778,421.216 66.055,419.822 66.245,418.475 66.917,415.058 67.112,413.934 67.985,409.617 68.109,409.211 
			68.357,408.4 68.999,405.565 69.495,403.941 69.742,403.13 69.907,402.589 70.526,400.56 70.944,399.431 71.145,398.531 
			71.693,397.219 72.317,395.414 73.077,393.65 73.537,392.385 74.297,390.621 74.803,389.445 75.646,387.41 76.323,385.916 
			76.789,384.875 77.766,382.882 78.832,380.841 79.085,380.253 79.639,379.165 80.622,377.395 81.217,376.172 82.112,374.449 
			83.355,372.315 83.485,372.132 84.639,370.045 85.575,368.187 86.176,367.187 86.476,366.687 88.278,363.688 88.278,363.688 
			88.278,363.688 90.174,360.866 90.992,359.637 92.199,357.861 94.059,355.398 94.842,354.527 95.878,353.069 97.226,351.558 
			98.051,350.553 99.222,349.136 100.788,347.396 101.006,347.167 103.095,344.921 103.401,344.644 104.361,343.68 105.408,342.669 
			105.979,342.252 107.421,340.918 109.21,339.172 110.305,338.249 110.917,337.696 112.712,336.174 113.413,335.574 
			114.378,334.833 116.22,333.399 116.349,333.217 116.614,333.076 118.939,331.272 120.122,330.302 122.011,328.956 
			122.841,328.174 123.676,327.616 125.301,326.411 125.43,326.228 125.871,325.993 127.76,324.648 128.637,323.954 
			130.832,322.332 131.009,322.238 132.722,320.986 133.381,320.522 135.752,318.805 135.97,318.576 136.235,318.435 
			138.96,316.531 139.572,315.978 141.066,314.956 141.99,314.35 143.526,313.192 144.274,312.681 144.98,312.305 147.528,310.495 
			147.881,310.307 149.287,309.331 150.694,308.356 151.047,308.168 151.794,307.656 153.289,306.634 154.784,305.611 
			155.443,305.147 156.985,304.212 159.709,302.308 160.151,302.073 160.327,301.979 161.863,300.821 163.888,299.517 
			164.017,299.334 164.547,299.052 166.524,297.659 167.801,296.866 169.119,295.937 170.09,295.42 171.497,294.445 
			172.903,293.469 173.609,293.093 176.334,291.189 176.863,290.907 177.787,290.302 179.459,289.185 180.206,288.674 
			182.142,287.416 182.23,287.369 184.519,285.923 185.661,285.089 187.685,283.784 189.31,282.579 190.498,281.833 
			191.246,281.321 193.617,279.605 194.188,279.188 195.683,278.165 196.519,277.607 198.584,276.167 199.067,275.797 
			199.42,275.609 201.527,274.034 202.492,273.293 202.757,273.152 206.446,270.507 206.623,270.413 206.799,270.319 
			207.194,269.996 209.783,268.05 211.19,267.075 212.243,266.287 214.526,264.618 215.403,263.924 216.675,262.908 
			217.375,262.308 218.781,261.332 219.352,260.915 220.67,259.986 222.383,258.735 223.613,257.853 225.455,256.419 
			225.543,256.372 227.167,255.167 227.432,255.026 227.432,255.026 229.363,253.545 231.163,252.246 232.393,251.364 
			233.971,250.071 234.235,249.93 235.771,248.772 236.166,248.449 237.66,247.426 238.802,246.592 241.08,244.699 241.827,244.188 
			244.016,242.342 244.105,242.295 244.193,242.248 246.253,240.584 247.306,239.797 249.148,238.363 250.331,237.393 
			251.473,236.558 253.227,235.171 253.315,235.124 254.939,233.919 256.081,233.084 257.617,231.927 258.935,230.998 
			259.859,230.393 261.13,229.376 262.625,228.353 263.808,227.383 265.479,226.267 267.145,224.926 267.498,224.738 
			267.716,224.509 270.57,222.423 270.746,222.329 270.835,222.282 270.835,222.282 273.077,220.748 274.307,219.866 
			275.625,218.938 276.196,218.52 276.855,218.056 279.362,216.381 281.469,214.806 281.469,214.806 281.469,214.806 
			284.017,212.996 285.6,211.926 286.388,211.279 288.277,209.933 290.166,208.588 291.132,207.847 292.45,206.918 293.415,206.178 
			294.251,205.619 295.039,204.973 296.357,204.044 296.928,203.627 299.17,202.093 300.842,200.976 301.059,200.747 
			301.677,200.418 303.831,198.931 305.108,198.138 307.792,196.369 308.539,195.858 309.021,195.487 309.375,195.299 
			309.769,194.976 311.528,193.812 312.452,193.207 313.07,192.878 313.641,192.461 317.648,189.987 317.737,189.94 
			317.825,189.893 318.484,189.428 321.791,187.554 322.674,187.084 323.292,186.755 324.48,186.008 326.334,185.021 
			327.611,184.228 329.906,183.006 330.523,182.677 332.024,181.878 332.553,181.596 333.348,181.173 334.801,180.285 
			335.243,180.05 337.491,178.74 338.897,177.764 338.985,177.717 338.985,177.717 339.162,177.623 342.157,175.802 
			343.216,175.237 347.047,172.857 347.312,172.716 347.488,172.622 348.677,171.876 351.714,169.919 351.714,169.919 
			351.714,169.919 354.756,168.186 355.944,167.439 356.162,167.21 356.427,167.069 360.258,164.689 361.182,164.084 
			362.106,163.478 363.512,162.503 364.436,161.897 365.754,160.969 367.643,159.623 368.697,158.835 369.091,158.512 
			370.145,157.724 372.822,155.732 372.999,155.638 373.305,155.362 374.535,154.48 376.471,153.222 377.218,152.711 
			377.877,152.247 378.801,151.641 381.485,149.873 383.462,148.48 383.638,148.386 383.727,148.339 385.663,147.081 
			388.434,145.265 389.358,144.66 389.929,144.242 390.941,143.59 392.783,142.156 393.837,141.368 394.19,141.18 394.802,140.628 
			395.985,139.658 397.127,138.823 398.003,138.13 398.486,137.759 399.451,137.019 401.382,135.538 402.476,134.615 
			403.747,133.598 405.06,132.446 405.542,132.075 406.419,131.382 406.943,130.876 407.779,130.318 409.797,128.79 
			410.457,128.325 411.292,127.767 411.951,127.303 413.493,126.368 414.417,125.763 415.253,125.205 415.517,125.064 
			418.065,123.254 419.036,122.737 419.784,122.225 420.266,121.855 421.32,121.067 422.638,120.139 423.562,119.533 
			424.003,119.298 427.999,116.377 428.176,116.283 428.264,116.236 429.453,115.49 432.095,113.856 432.448,113.668 
			432.713,113.527 432.754,113.392 435.614,111.529 436.75,110.471 437.144,110.148 438.109,109.407 440.828,107.279 
			441.046,107.05 441.222,106.956 444.441,105.128 445.23,104.482 445.806,104.288 446.201,103.965 447.442,103.53 449.472,102.449 
			449.961,102.302 451.196,101.644 451.549,101.456 453.585,100.599 453.938,100.411 456.904,99.171 457.922,98.743 461.158,97.586 
			461.246,97.539 462.976,96.957 462.976,96.957 466.035,95.895 467.453,95.366 469.053,94.967 469.895,94.632 470.918,94.427 
			473.142,93.922 474.254,93.67 475.543,93.324 476.166,93.218 477.725,92.955 480.443,92.527 480.62,92.433 480.755,92.474 
			483.473,92.046 483.832,92.082 485.838,91.807 486.685,91.695 488.026,91.661 488.249,91.655 488.697,91.644 491.555,91.481 
			492.897,91.446 494.014,91.417 494.461,91.406 496.873,91.255 498.303,91.173 500.715,91.022 502.009,90.899 504.997,90.554 
			505.756,90.489 506.915,90.325 508.521,90.15 511.327,89.675 511.415,89.628 511.462,89.716 511.862,89.617 515.333,88.901 
			515.869,88.843 518.805,88.186 519.428,88.08 522.629,87.282 523.829,86.983 525.117,86.636 527.112,85.914 528.312,85.615 
			529.642,85.133 531.724,84.364 533.366,83.83 536.685,82.402 537.126,82.167 537.438,82.115 538.409,81.597 541.503,80.176 
			542.345,79.841 543.622,79.048 545.611,78.102 546.846,77.444 547.288,77.209 548.435,76.598 549.536,75.898 550.948,75.146 
			551.783,74.588 552.666,74.118 554.478,73.266 555.402,72.661 557.479,71.668 557.744,71.527 558.009,71.386 560.08,70.169 
			561.934,69.182 562.775,68.848 565.205,67.667 565.294,67.62 567.294,67.121 567.782,66.974 567.782,66.974 570.418,66.817 
			570.776,66.852 571.359,66.882 574.406,67.072 575.753,67.261 577.958,67.786 579.17,67.934 580.475,68.258 581.375,68.459 
			582.64,68.918 583.587,69.207 585.122,69.749 586.162,70.215 588.15,70.969 588.874,71.263 589.191,71.434 591.326,72.677 
			591.643,72.848 591.826,72.977 592.372,73.366 594.56,74.92 595.289,75.438 597.112,76.733 597.658,77.122 599.746,78.276 
			600.563,78.747 600.834,78.83 601.24,78.953 604.086,80.043 605.256,80.326 606.921,80.686 608.756,80.729 609.203,80.717 
			612.456,80.231 612.904,80.219 614.28,79.826 616.01,79.245 616.498,79.098 618.316,78.47 619.205,78.223 619.516,78.17 
			619.828,78.118 621.782,77.531 622.493,77.378 623.694,77.079 624.541,76.968 626.682,76.734 627.264,76.763 627.576,76.711 
			627.888,76.658 630.488,76.859 630.894,76.983 631.658,77.142 632.564,77.567 634.822,78.403 635.275,78.615 636.41,79.257 
			637.592,79.987 637.998,80.111 640.673,81.519 640.991,81.689 641.173,81.819 641.943,82.202 643.443,83.103 645.078,84.045 
			645.442,84.304 645.577,84.345 647.577,85.546 649.617,86.612 650.029,86.96 652.84,88.408 653.157,88.579 655.962,89.804 
			656.597,90.146 658.944,90.936 660.255,91.483 661.608,91.896 662.643,92.138 665.119,92.745 665.39,92.828 665.613,92.822 
			667.86,93.212 668.984,93.406 669.119,93.448 670.06,93.513 671.942,93.643 672.254,93.591 673.907,93.503 675.695,93.458 
			676.278,93.487 676.99,93.335 679.302,92.783 680.19,92.537 681.437,92.326 683.349,91.874 683.526,91.78 684.508,91.71 
			685.667,91.546 685.938,91.628 686.25,91.576 688.279,92.195 689.99,92.643 690.443,92.855 692.213,93.838 694.477,94.898 
			695.024,95.287 696.065,95.752 697.882,96.824 698.652,97.207 700.922,98.491 701.375,98.703 702.962,99.556 703.55,99.81 
			703.733,99.939 705.785,101.452 706.514,101.97 708.384,103.354 710.706,104.949 711.253,105.338 711.435,105.467 
			711.711,105.774 713.857,107.463 714.316,107.899 714.639,108.293 716.291,109.906 717.026,110.647 717.208,110.777 
			717.532,111.171 719.154,113.366 719.712,114.202 720.13,114.773 720.923,116.05 721.957,117.992 722.668,119.539 
			723.743,121.346 724.36,122.717 725.171,124.664 725.411,125.329 725.993,127.059 726.668,128.965 726.768,129.365 726.826,129.9 
			727.301,132.707 727.359,133.242 727.377,133.913 727.558,135.742 728.115,138.278 728.409,139.254 729.507,141.955 
			729.93,142.749 731.423,145.127 731.799,145.833 734.156,148.77 734.802,149.558 736.143,151.224 737.477,152.666 
			738.077,153.366 739.693,155.338 740.763,156.921 741.321,157.756 742.584,159.916 743.289,161.24 744.512,163.535 
			744.653,163.799 744.752,164.2 745.304,166.512 744.98,167.817 744.768,168.27 743.425,170.005 743.249,170.099 743.161,170.146 
			742.943,170.375 740.56,171.644 738.7,172.408 737.682,172.836 735.106,173.529 732.664,174.263 731.287,174.656 727.504,175.424 
			727.416,175.471 727.193,175.477 723.404,176.022 721.345,175.985 719.557,176.031 716.493,175.171 716.222,175.088 
			715.905,174.917 712.506,173.215 712.141,172.956 711.777,172.697 710.313,171.437 708.99,170.442 708.578,170.095 
			707.52,168.959 706.191,167.741 705.363,166.823 704.075,165.469 703.481,164.992 701.647,163.25 701.371,162.944 
			699.495,161.337 698.449,160.648 696.761,159.394 695.944,158.923 694.668,158.016 692.763,156.991 692.263,156.691 
			689.816,155.501 689.769,155.413 688.276,154.736 687.235,154.27 687.188,154.182 686.376,153.935 684.253,153.139 
			684.253,153.139 684.118,153.098 681.501,152.226 680.101,151.725 678.795,151.401 677.802,151.023 675.367,150.281 
			675.096,150.198 674.961,150.157 674.061,149.957 671.585,149.349 671.179,149.225 670.326,149.113 668.573,148.8 
			666.597,148.493 666.015,148.463 665.744,148.381 664.627,148.41 663.021,148.585 660.797,149.09 660.62,149.184 660.573,149.095 
			660.532,149.231 659.366,150.871 659.325,151.006 659.148,152.8 659.306,153.736 659.493,155.789 659.839,157.077 
			660.244,158.901 660.631,160.054 661.26,161.872 661.26,161.872 662.299,164.038 662.488,164.391 662.77,164.92 663.839,166.503 
			664.815,167.91 664.909,168.086 666.249,169.752 666.802,170.364 668.095,171.941 668.924,172.859 669.247,173.254 
			671.463,175.926 671.88,176.496 672.48,177.197 673.955,178.904 675.295,180.569 675.936,181.134 676.259,181.528 
			677.282,183.023 678.305,184.518 678.587,185.048 679.95,187.607 680.379,188.625 681.736,190.961 682.223,192.514 
			682.828,195.138 682.828,195.138 683.203,197.544 683.161,197.68 683.166,199.603 682.953,201.756 682.935,202.785 
			682.121,205.938 682.08,206.073 682.039,206.208 681.838,207.108 681.566,208.726 681.36,209.402 681.16,210.302 680.877,211.472 
			680.635,212.508 680.599,212.866 680.517,213.137 680.251,214.978 680.127,215.384 679.985,216.819 679.831,217.807 
			679.866,219.148 679.83,219.507 679.883,219.819 680.171,220.572 680.218,220.66 680.718,220.961 680.941,220.955 
			681.477,220.896 681.877,220.797 682.053,220.703 682.63,220.509 683.866,219.851 684.26,219.527 684.525,219.386 
			685.096,218.969 685.755,218.505 686.061,218.229 687.197,217.17 687.285,217.123 687.326,216.988 688.244,216.159 
			688.898,215.471 688.939,215.336 690.505,213.596 691.323,212.367 692.806,210.897 693.677,209.98 694.678,208.881 
			697.038,206.718 697.038,206.718 697.127,206.671 699.357,204.69 701.999,203.056 702.352,202.868 702.705,202.68 705.353,201.27 
			706.771,200.741 708.189,200.213 710.007,199.584 710.807,199.385 711.519,199.232 713.296,198.739 714.455,198.575 
			715.214,198.511 716.19,198.217 717.173,198.147 719.091,197.919 719.761,197.902 720.967,197.826 721.191,197.821 
			721.814,197.715 723.197,197.545 724.091,197.522 726.238,197.512 728.297,197.548 729.414,197.52 730.038,197.414 
			732.903,197.475 734.556,197.387 736.256,197.389 738.315,197.425 738.938,197.32 741.485,197.209 742.109,197.104 
			744.074,196.964 745.856,196.694 747.327,196.478 748.839,196.126 750.663,195.721 752.528,195.181 752.704,195.087 
			754.475,194.37 754.964,194.223 756.376,193.471 757.876,192.672 757.964,192.625 758.229,192.484 759.465,191.826 
			760.483,191.397 761.33,191.286 762.395,190.946 764.059,191.305 765.053,191.682 766.006,192.195 766.964,192.931 
			768.346,194.461 768.481,194.502 768.575,194.679 769.927,196.791 		">
		</polygon>
	</g>
</g>
<g id="Layer_1">
</g>
</svg>
