<?xml version="1.0" encoding="iso-8859-1"?>
<!-- Generator: Adobe Illustrator 19.2.1, SVG Export Plug-In . SVG Version: 6.00 Build 0)  -->
<svg version="1.1" xmlns="http://www.w3.org/2000/svg" xmlns:xlink="http://www.w3.org/1999/xlink" x="0px" y="0px"
	 viewBox="0 0 841.89 595.28" style="enable-background:new 0 0 841.89 595.28;" xml:space="preserve">
<g id="layer243">
	<g id="layer243_1_" slic3r:z="9.74000000000008e-005">
		<polygon slic3r:type="contour" style="fill:#FFFFFF;stroke:#000000;stroke-miterlimit:10;" points="771.332,197.516 
			771.72,198.669 772.506,201.422 772.565,201.958 772.664,202.358 772.775,204.905 772.839,205.664 772.886,205.752 
			772.703,207.322 772.372,210.105 772.242,210.287 772.206,210.646 771.393,213.798 770.768,215.604 770.521,216.415 
			769.549,218.632 768.618,220.714 768.194,221.62 767.723,222.437 766.875,224.248 766.28,225.471 765.767,226.424 
			764.519,228.335 764.348,228.653 764.307,228.788 764.089,229.017 762.441,231.028 761.664,232.122 760.84,233.127 
			760.145,233.95 758.979,235.591 758.456,236.096 757.108,237.607 755.807,239.206 755.548,239.571 754.158,241.217 
			753.723,241.676 751.757,243.516 751.28,244.109 750.274,244.985 749.532,245.72 748.008,247.325 747.484,247.831 
			747.443,247.966 747.048,248.289 745.171,250.082 742.993,252.375 742.952,252.51 742.863,252.557 742.863,252.557 
			740.685,254.85 740.12,255.491 738.984,256.549 737.195,258.295 736.671,258.801 735.1,260.317 734.794,260.594 734.705,260.641 
			732.869,262.298 731.645,263.403 730.55,264.326 729.938,264.879 728.932,265.755 728.496,266.213 727.307,266.96 725.86,268.07 
			724.412,269.181 723.576,269.74 721.993,270.809 721.905,270.856 720.805,271.556 719.616,272.302 719.616,272.302 
			719.528,272.349 717.145,273.618 715.732,274.37 714.361,274.987 712.814,275.698 712.461,275.886 710.908,276.373 
			707.807,277.571 707.366,277.806 707.054,277.859 703.282,279.074 702.794,279.221 702.306,279.368 701.417,279.614 
			699.688,280.196 698.752,280.354 697.864,280.6 695.646,281.328 694.093,281.816 692.851,282.25 691.345,282.826 689.968,283.219 
			688.862,283.695 686.691,284.511 685.585,284.987 684.655,285.369 682.796,286.132 682.266,286.414 680.054,287.366 
			678.465,288.212 677.671,288.635 674.711,290.098 674.446,290.239 674.446,290.239 674.358,290.286 671.004,292.072 
			669.68,292.777 668.091,293.624 666.02,294.84 665.049,295.357 664.519,295.639 662.007,297.09 659.5,298.765 659.5,298.765 
			659.412,298.812 657.605,299.888 656.634,300.405 654.522,301.756 654.433,301.803 654.257,301.897 652.009,303.208 
			650.732,304.001 649.367,304.842 648.572,305.265 647.031,306.199 646.107,306.804 644.388,307.833 643.288,308.532 
			642.494,308.955 640.864,309.936 640.028,310.495 638.881,311.106 638.439,311.341 635.838,312.839 635.003,313.397 
			634.738,313.538 633.502,314.197 631.296,315.372 630.854,315.607 630.59,315.748 629.795,316.171 627.765,317.252 
			625.688,318.245 625.111,318.439 624.847,318.58 622.417,319.76 621.752,320.001 618.833,321.329 618.392,321.564 
			618.257,321.523 616.621,322.28 614.45,323.097 614.273,323.191 610.508,324.63 609.401,325.105 606.566,326.163 603.241,327.366 
			602.665,327.56 602.312,327.748 600.805,328.324 598.411,329.146 597.922,329.293 597.393,329.575 593.804,330.919 
			592.698,331.395 591.456,331.83 588.714,333.063 588.538,333.157 585.572,334.397 585.043,334.679 582.654,335.724 
			580.971,336.394 580.883,336.441 578.759,337.346 577.917,337.68 577.211,338.056 573.757,339.443 573.316,339.678 
			572.875,339.913 568.668,341.587 568.444,341.592 567.25,342.115 564.279,343.131 563.526,343.419 559.796,344.499 
			557.177,345.327 555.712,345.767 552.912,346.465 551.577,346.723 551,346.917 547.441,347.679 544.77,348.195 543.034,348.553 
			540.052,349.122 538.804,349.333 538.493,349.386 537.869,349.491 534.574,350.113 530.88,350.834 530.792,350.881 
			530.48,350.934 526.697,351.702 525.85,351.813 524.291,352.077 523.179,352.329 522.379,352.529 519.973,352.904 
			518.414,353.168 517.031,353.337 515.337,353.56 514.178,353.724 512.613,353.764 509.984,354.145 509.984,354.145 
			509.984,354.145 507.213,354.261 505.831,354.431 504.578,354.418 502.078,354.617 501.719,354.581 501.584,354.54 
			501.272,354.593 497.966,354.767 494.571,354.988 493.901,355.006 493.454,355.017 491.042,355.169 489.301,355.303 
			488.271,355.285 486.307,355.425 485.636,355.442 485.189,355.453 483.089,355.552 481.212,355.645 480.677,355.704 
			479.112,355.744 479.024,355.791 478.665,355.755 476.924,355.889 476.477,355.901 474.288,356.047 472.547,356.181 
			471.253,356.304 468.353,356.602 464.205,357.111 464.117,357.158 463.894,357.164 460.235,357.526 459.429,357.502 
			457.287,357.736 456.705,357.707 455.634,357.824 454.293,357.858 451.834,357.921 448.658,357.913 447.54,357.942 
			446.511,357.924 443.776,357.681 442.294,357.451 441.217,357.344 439.106,356.996 438.388,356.925 435.606,356.594 
			434.259,356.405 431.659,356.203 430.806,356.091 428.789,355.919 427.353,355.777 426.818,355.835 424.624,355.758 
			422.565,355.721 421.536,355.703 418.942,355.725 418.406,355.783 418.183,355.789 415.683,355.988 414.077,356.163 
			413.988,356.21 411.941,356.621 410.782,356.785 410.206,356.978 407.405,357.677 407.093,357.729 406.517,357.923 
			403.716,358.621 401.851,359.161 400.875,359.455 399.274,359.854 398.521,360.142 397.721,360.341 395.238,361.21 
			394.797,361.445 394.044,361.733 392.449,362.356 390.284,363.396 389.49,363.819 388.695,364.242 386.442,365.329 
			384.723,366.357 384.106,366.686 383.664,366.921 380.71,368.607 378.374,369.965 376.785,370.811 374.449,372.168 
			374.184,372.309 373.831,372.497 370.789,374.231 369.512,375.024 367.882,376.005 365.105,377.598 364.093,378.25 
			362.816,379.044 361.539,379.837 360.791,380.348 359.691,381.048 359.473,381.277 355.919,383.963 355.348,384.38 
			352.988,386.543 351.763,387.649 351.587,387.743 351.546,387.878 351.281,388.019 349.45,389.9 348.19,391.364 347.319,392.281 
			347.19,392.463 346.796,392.787 344.353,395.221 342.522,397.102 341.08,398.436 340.733,398.848 339.468,400.088 
			338.249,401.417 337.507,402.152 336.942,402.793 336.507,403.251 335.765,403.986 333.94,406.091 333.375,406.732 
			332.592,407.602 330.721,409.618 329.943,410.712 329.855,410.759 329.814,410.894 329.549,411.035 327.771,413.228 
			326.253,415.057 325.252,416.156 324.122,417.438 323.086,418.896 322.22,420.036 321.743,420.63 320.919,421.636 
			319.836,423.006 318.623,424.558 317.411,426.11 316.539,427.027 316.498,427.162 316.021,427.756 312.937,431.325 
			312.807,431.507 312.283,432.013 311.412,432.93 309.364,435.04 307.969,436.463 307.098,437.38 306.356,438.115 305.568,438.762 
			304.649,439.591 303.731,440.419 302.595,441.478 301.636,442.442 300.588,443.453 299.411,444.646 298.628,445.516 
			297.975,446.204 296.627,447.715 295.497,448.997 294.455,450.231 290.882,453.947 290.794,453.994 290.794,453.994 
			290.052,454.729 289.575,455.323 287.656,457.251 287.179,457.845 286.785,458.168 286.479,458.444 284.913,460.184 
			283.477,461.742 282.123,463.03 280.599,464.635 279.816,465.505 278.898,466.334 278.374,466.839 276.849,468.444 
			276.067,469.314 274.842,470.419 273.536,471.795 273.365,472.113 272.405,473.077 271.01,474.499 269.227,476.469 
			268.75,477.063 268.097,477.751 265.089,480.825 264.959,481.008 264.653,481.284 262.387,483.624 261.34,484.635 
			260.686,485.323 258.938,486.933 257.543,488.356 256.319,489.461 256.366,489.549 256.189,489.643 253.565,491.948 
			252.864,492.547 252.034,493.329 249.586,495.539 249.586,495.539 249.498,495.586 248.273,496.691 247.791,497.062 
			245.648,498.996 243.677,500.612 243.106,501.03 241.835,502.046 241.617,502.276 240.781,502.834 239.422,503.898 
			238.892,504.18 237.268,505.385 236.385,505.855 235.373,506.507 232.949,507.912 232.684,508.053 231.978,508.429 
			229.948,509.51 229.46,509.657 226.765,510.978 226.276,511.125 225.747,511.407 223.534,512.359 222.47,512.699 222.028,512.934 
			219.769,513.798 218.527,514.232 216.486,514.866 214.091,515.688 213.026,516.029 212.314,516.181 209.073,517.115 
			208.584,517.261 206.849,517.619 204.937,518.071 204.313,518.177 201.154,518.839 199.283,519.156 197.501,519.425 
			194.512,519.771 194.065,519.782 193.753,519.835 190.765,520.18 188.577,520.326 187.282,520.448 184.065,520.576 
			183.841,520.582 180.623,520.709 176.688,520.766 176.6,520.813 176.6,520.813 173.288,520.763 170.47,520.791 170.247,520.797 
			170.023,520.803 169.665,520.767 166.129,520.724 163.665,520.564 162.5,520.504 161.335,520.444 159.859,520.438 
			157.571,520.183 157.124,520.195 154.253,519.911 154.03,519.917 151.518,519.668 148.824,519.29 148.689,519.249 
			148.419,519.166 146.442,518.859 145.86,518.829 143.566,518.351 142.172,518.074 140.014,517.637 138.978,517.396 137.355,516.9 
			136.861,516.824 136.003,516.488 134.426,516.081 132.486,515.415 131.133,515.003 130.68,514.791 130.004,514.584 
			128.151,513.871 127.157,513.494 125.575,512.864 124.217,512.228 122.811,511.503 121.859,510.991 120.589,510.308 
			119.907,509.878 117.36,508.288 116.543,507.817 116.043,507.517 115.496,507.128 110.116,503.196 109.205,502.548 
			107.059,500.858 105.095,499.298 103.814,498.168 102.397,496.997 99.005,493.818 98.822,493.689 98.775,493.6 97.905,492.818 
			93.772,488.674 93.038,487.932 88.993,483.742 87.018,481.734 86.789,481.517 83.156,477.673 82.926,477.456 80.122,474.53 
			79.205,473.659 76.395,470.51 75.749,469.722 73.074,466.614 72.751,466.22 72.563,465.867 71.54,464.372 70.288,462.66 
			69.912,461.954 68.878,460.012 68.502,459.306 67.844,458.07 67.556,457.317 66.552,454.793 66.07,453.463 65.583,451.91 
			64.691,448.533 64.638,448.221 64.58,447.686 64.158,445.191 63.835,443.097 63.771,442.338 63.707,441.579 63.685,438.985 
			63.686,437.285 63.676,435.138 63.759,433.167 64.079,429.938 64.138,428.774 64.511,425.856 64.606,424.333 64.724,423.703 
			65.344,419.974 65.739,417.951 66.252,415.298 66.854,412.599 67.09,411.34 67.621,409.358 68.305,406.388 68.382,405.894 
			68.552,405.576 69.289,402.918 69.826,401.159 70.203,400.165 71.116,397.413 71.364,396.601 72.035,394.884 72.795,393.12 
			73.131,392.261 74.062,390.18 74.521,388.915 75.411,386.969 76.176,385.428 76.512,384.569 77.531,382.44 77.661,382.258 
			77.873,381.805 78.98,379.63 79.787,377.954 80.429,376.819 81.707,374.325 82.007,373.826 82.137,373.643 83.627,370.697 
			84.015,370.15 84.569,369.062 85.811,366.928 86.753,365.293 87.401,364.382 88.773,362.065 89.162,361.518 89.892,360.336 
			91.228,358.378 91.835,357.602 93.742,355.227 94.566,354.221 96.344,352.028 96.821,351.435 97.209,350.888 98.816,349.012 
			99.858,347.778 99.946,347.731 100.076,347.548 101.165,346.402 101.383,346.173 102.866,344.703 104.696,342.822 
			104.785,342.775 105.003,342.545 106.839,340.888 107.321,340.517 108.328,339.642 109.77,338.307 112.047,336.414 
			112.265,336.185 112.571,335.909 114.543,334.292 115.596,333.505 117.703,331.93 118.227,331.424 121.034,329.249 
			121.34,328.973 121.734,328.65 123.93,327.028 124.589,326.563 126.519,325.082 126.913,324.759 129.55,322.902 130.121,322.484 
			131.086,321.744 132.269,320.774 133.499,319.892 134.423,319.287 135.564,318.452 137.936,316.736 138.507,316.319 
			139.254,315.807 140.878,314.603 142.02,313.768 143.691,312.651 143.78,312.604 146.022,311.07 146.063,310.935 148.393,309.354 
			148.658,309.213 150.682,307.909 153.407,306.004 153.584,305.91 153.672,305.863 153.89,305.634 156.573,303.865 
			157.674,303.166 159.433,302.002 161.41,300.609 162.07,300.145 164.006,298.887 166.336,297.306 166.819,296.936 
			167.389,296.519 169.59,295.12 171.568,293.727 172.227,293.263 173.592,292.422 174.692,291.723 175.44,291.212 177.023,290.142 
			178.123,289.443 179.577,288.556 181.071,287.533 181.907,286.975 183.007,286.275 184.679,285.159 185.867,284.412 
			187.58,283.16 189.251,282.044 189.91,281.579 192.594,279.811 193.076,279.44 193.647,279.023 195.536,277.677 196.284,277.166 
			197.778,276.143 198.173,275.82 200.109,274.562 201.292,273.592 203.269,272.199 204.322,271.412 205.994,270.295 207.4,269.32 
			209.154,267.932 209.989,267.374 211.131,266.539 212.185,265.752 213.85,264.412 214.774,263.806 215.474,263.207 
			217.799,261.402 218.458,260.938 219.865,259.962 220.612,259.451 222.631,257.923 223.025,257.6 223.378,257.412 225.308,255.93 
			226.232,255.325 226.409,255.231 227.286,254.538 228.91,253.333 229.216,253.056 231.764,251.246 232.335,250.829 
			233.783,249.718 234.748,248.977 235.054,248.701 236.019,247.96 236.984,247.22 237.861,246.526 239.444,245.457 
			240.056,244.904 241.504,243.793 242.204,243.194 242.687,242.823 243.917,241.942 244.923,241.066 245.671,240.555 
			247.513,239.12 247.995,238.75 248.125,238.568 248.478,238.38 250.802,236.575 252.162,235.511 252.95,234.865 253.698,234.354 
			255.146,233.243 256.552,232.267 257.388,231.709 259.406,230.181 261.031,228.976 261.996,228.235 263.579,227.165 
			264.938,226.102 265.992,225.314 266.651,224.85 267.663,224.197 268.54,223.504 269.199,223.039 270.341,222.205 272.23,220.859 
			273.548,219.93 274.207,219.466 275.613,218.49 278.073,216.727 278.426,216.539 278.603,216.445 278.732,216.263 
			281.239,214.588 282.775,213.43 282.952,213.336 283.17,213.107 284.794,211.902 286.377,210.832 286.683,210.556 288.089,209.58 
			290.196,208.005 291.338,207.171 292.085,206.659 292.962,205.966 294.457,204.943 295.552,204.02 296.564,203.368 299.2,201.511 
			299.683,201.14 300.871,200.394 301.884,199.742 303.82,198.484 305.579,197.32 307.074,196.298 308.086,195.646 309.451,194.805 
			310.287,194.247 311.87,193.177 312.264,192.854 313.147,192.384 314.906,191.22 316.625,190.192 318.737,188.84 319.355,188.511 
			319.708,188.323 322.221,186.872 324.604,185.603 325.045,185.368 327.117,184.151 329.235,183.023 329.588,182.835 
			330.912,182.13 333.03,181.002 333.472,180.767 334.178,180.391 334.572,180.068 337.261,178.522 337.703,178.287 
			340.215,176.836 341.933,175.807 342.593,175.343 344.223,174.362 346.029,173.286 347.306,172.493 348.406,171.794 
			348.977,171.376 350.431,170.489 353.779,168.479 354.397,168.15 354.615,167.921 355.939,167.216 358.228,165.77 
			359.063,165.212 359.77,164.836 361.794,163.531 363.112,162.603 363.112,162.603 363.2,162.556 367.373,159.54 367.638,159.399 
			368.691,158.612 369.833,157.777 370.798,157.037 371.675,156.343 371.851,156.249 372.028,156.155 375.894,153.416 
			376.553,152.952 377.83,152.159 379.984,150.672 380.161,150.578 380.425,150.437 383.374,148.527 384.386,147.874 
			385.439,147.087 388.652,145.036 390.412,143.872 390.677,143.731 391.071,143.408 392.566,142.385 392.872,142.109 
			394.755,140.539 395.544,139.893 397.168,138.688 397.474,138.412 399.01,137.254 399.228,137.025 399.581,136.836 
			401.158,135.543 403.265,133.968 404.271,133.092 405.672,131.893 405.89,131.664 407.379,130.418 407.379,130.418 
			407.379,130.418 409.486,128.843 409.968,128.472 411.069,127.773 411.816,127.262 412.828,126.609 414.411,125.54 
			416.435,124.235 417.665,123.353 418.413,122.842 419.861,121.731 420.873,121.079 422.191,120.15 422.673,119.78 
			423.644,119.263 425.445,117.964 426.893,116.853 427.729,116.295 429.094,115.454 429.971,114.761 431.159,114.015 
			433.49,112.434 434.408,111.605 435.155,111.093 435.461,110.817 436.556,109.894 436.862,109.618 437.915,108.83 
			438.616,108.231 439.716,107.532 443.329,105.381 443.812,105.01 443.988,104.916 446.513,103.912 448.096,102.842 
			448.449,102.654 449.514,102.314 451.455,101.28 452.385,100.898 453.268,100.428 454.021,100.14 456.592,99.224 459.693,98.026 
			460.669,97.732 460.934,97.591 464.347,96.341 464.97,96.235 465.235,96.094 468.742,95.02 471.807,94.18 472.83,93.975 
			473.23,93.875 474.742,93.523 476.79,93.113 477.902,92.861 480.531,92.48 481.731,92.181 484.185,91.894 484.632,91.882 
			484.808,91.788 485.079,91.871 488.249,91.655 489.991,91.521 490.885,91.498 492.85,91.358 493.385,91.299 495.126,91.165 
			496.109,91.095 496.332,91.089 499.326,90.968 499.638,90.915 502.227,90.67 503.121,90.647 503.209,90.6 506.509,90.202 
			507.221,90.049 509.451,89.768 510.474,89.563 512.969,89.141 514.169,88.842 516.04,88.525 517.24,88.226 517.64,88.126 
			519.064,87.821 522.129,86.982 523.282,86.594 523.859,86.4 524.835,86.107 526.877,85.473 527.853,85.179 528.518,84.938 
			529.448,84.557 531.354,83.881 532.284,83.5 533.037,83.212 534.984,82.401 535.073,82.354 536.444,81.737 537.55,81.262 
			539.627,80.269 540.068,80.034 540.774,79.658 542.498,78.853 543.205,78.477 544.087,78.007 545.146,77.443 547.353,76.268 
			548.236,75.798 549.383,75.186 550.748,74.346 552.249,73.547 552.955,73.171 554.102,72.56 555.203,71.861 556.833,70.879 
			557.233,70.78 559.18,69.969 560.239,69.405 561.964,68.6 564.046,67.831 564.135,67.784 566.482,66.873 566.747,66.732 
			567.329,66.762 568.623,66.639 569.429,66.663 570.594,66.723 573.235,66.789 573.594,66.825 573.729,66.866 576.652,67.462 
			577.505,67.574 579.123,67.846 580.428,68.17 581.464,68.412 582.363,68.612 584.075,69.061 585.069,69.438 586.333,69.897 
			588.903,70.681 588.992,70.634 591.297,71.559 591.344,71.647 593.343,72.849 593.978,73.19 594.754,73.796 596.254,74.697 
			597.53,75.604 598.894,76.464 599.029,76.505 600.029,77.106 601.34,77.653 601.746,77.777 603.281,78.319 606.698,78.992 
			606.834,79.033 606.881,79.121 606.969,79.074 610.369,79.077 610.592,79.071 611.263,79.054 613.851,78.808 614.916,78.468 
			617.587,77.952 617.675,77.905 617.852,77.811 620.482,77.43 620.882,77.33 621.505,77.225 623.517,77.173 624.994,77.18 
			626.111,77.151 628.135,77.546 629.658,77.641 631.958,78.343 632.499,78.508 633.222,78.802 635.392,79.686 636.298,80.11 
			638.385,81.264 638.838,81.476 640.743,82.501 643.101,83.738 643.466,83.997 644.507,84.462 645.959,85.275 646.412,85.487 
			648.317,86.511 648.952,86.853 651.081,87.872 652.122,88.337 654.245,89.133 654.968,89.427 657.044,90.134 658.491,90.724 
			659.885,91.001 660.967,91.331 661.867,91.531 663.396,91.85 664.473,91.957 664.967,92.033 666.09,92.228 666.673,92.258 
			667.343,92.241 669.631,92.495 670.661,92.513 671.867,92.438 673.026,92.274 674.59,92.233 676.326,91.876 678.15,91.471 
			678.638,91.324 680.815,90.731 681.48,90.49 682.415,90.332 683.839,90.027 684.645,90.051 685.715,89.934 686.427,89.782 
			687.103,89.988 688.944,90.254 690.391,90.843 690.979,91.096 692.385,91.821 693.473,92.374 696.013,93.74 696.195,93.87 
			696.513,94.041 698.736,95.236 701.005,96.52 701.64,96.862 702.323,97.291 704.046,98.187 705.41,99.046 706.409,99.647 
			708.773,101.107 709.543,101.49 711.043,102.391 713.001,103.727 714.001,104.328 715.641,105.494 716.417,106.1 717.652,107.142 
			719.251,108.443 720.991,110.009 721.903,110.656 723.837,112.799 724.707,113.581 726.5,115.459 726.776,115.765 
			727.193,116.336 728.128,117.878 729.162,119.819 729.45,120.573 729.873,121.367 730.736,123.626 731.364,125.444 
			731.893,126.862 732.286,128.239 732.491,129.263 732.802,130.91 732.767,131.269 732.772,131.492 733.159,134.345 
			733.17,134.792 734.198,138.211 734.109,138.258 734.156,138.346 735.343,141 736.048,142.324 736.659,143.471 737.917,145.407 
			738.704,146.461 739.686,148.091 741.543,150.727 741.778,151.168 742.477,152.269 743.605,154.387 744.117,155.134 
			745.439,157.829 746.379,159.595 747.266,161.048 748.723,163.784 748.911,164.137 749.005,164.314 749.24,164.755 
			750.239,167.056 750.45,168.303 750.614,169.462 750.254,171.126 750.213,171.262 750.125,171.309 748.906,172.637 
			747.935,173.154 745.693,174.688 745.693,174.688 745.693,174.688 745.605,174.735 743.569,175.593 742.904,175.834 
			741.398,176.409 740.686,176.562 738.427,177.425 737.85,177.619 737.762,177.666 737.497,177.807 735.102,178.629 
			733.067,179.487 732.755,179.539 731.425,180.021 729.831,180.643 729.566,180.784 728.813,181.072 726.418,181.894 
			725.041,182.288 724.288,182.575 723.047,183.01 721.535,183.362 719.717,183.99 718.381,184.248 716.411,184.165 
			715.652,184.229 714.758,184.252 713.593,184.192 712.111,183.962 709.811,183.261 709.088,182.966 708.088,182.365 
			707.406,181.936 706.183,181.341 704.813,180.258 703.225,179.404 701.744,177.473 701.697,177.385 700.492,175.761 
			700.075,175.19 699.528,174.801 697.73,172.7 697.5,172.483 696.671,171.564 695.801,170.782 695.613,170.428 694.367,168.939 
			693.027,167.274 692.704,166.88 691.093,165.132 690.27,164.437 688.612,162.601 688.612,162.601 688.612,162.601 
			686.519,161.223 685.655,160.664 684.561,159.886 683.608,159.374 682.973,159.033 681.479,158.355 680.262,157.984 
			678.227,157.141 677.01,156.77 675.116,156.192 674.581,156.251 674.128,156.039 672.646,155.809 671.846,156.008 
			669.269,156.701 669.004,156.842 667.256,158.452 666.955,160.652 666.866,160.699 667.277,162.747 667.711,163.988 
			667.858,164.476 668.375,165.447 669.298,166.542 669.574,166.848 669.668,167.024 671.008,168.69 672.296,170.044 
			672.937,170.609 674.183,172.098 674.412,172.316 675.423,173.363 676.011,173.617 678.492,176.147 678.627,176.189 
			678.674,176.277 678.951,176.583 681.102,178.496 681.514,178.843 683.931,180.615 684.348,181.186 686.505,183.323 
			687.028,184.517 689.103,186.924 689.573,187.807 690.566,189.884 691.171,190.808 691.365,191.385 692.328,194.044 
			692.334,194.268 692.381,194.356 692.569,194.709 694.097,196.728 695.444,196.917 696.785,196.882 697.315,196.6 699.762,196.09 
			701.622,195.326 703.134,194.974 704.728,194.352 705.923,193.829 707.346,193.524 709.035,193.078 710.994,192.714 
			713.947,192.728 714.394,192.716 714.753,192.752 718.247,192.93 719.382,193.572 720.458,193.679 721.134,193.885 
			722.164,193.903 723.105,193.969 724.993,194.323 726.528,194.865 727.381,194.977 727.922,195.142 728.775,195.255 
			729.581,195.279 731.957,195.486 731.957,195.486 731.957,195.486 734.469,195.734 735.186,195.805 735.904,195.877 
			737.11,195.801 739.839,195.82 740.063,195.814 740.198,195.856 743.727,195.675 743.727,195.675 743.816,195.628 
			747.075,195.366 748.322,195.155 750.681,194.691 751.528,194.58 753.169,194.046 753.746,193.852 755.823,192.859 
			756.176,192.671 756.618,192.436 758.03,191.684 758.736,191.308 759.483,190.797 759.972,190.65 762.007,189.792 
			762.407,189.693 763.307,189.893 765.101,190.071 766.101,190.671 767.465,191.531 768.341,192.537 769.17,193.456 
			769.869,194.556 770.574,195.88 		">
		</polygon>
		<polygon slic3r:type="hole" style="stroke:#000000;stroke-miterlimit:10;" points="686.495,210.746 686.1,211.07 685.582,211.799 
			684.582,212.898 684.058,213.404 683.587,214.221 683.328,214.586 683.198,214.768 682.697,216.168 682.538,216.932 
			682.29,217.744 682.178,218.597 682.496,218.768 682.896,218.668 683.202,218.392 683.596,218.068 683.726,217.886 
			684.95,216.781 684.95,216.781 685.038,216.734 685.939,215.234 686.11,214.917 686.752,213.782 686.752,213.782 686.752,213.782 
			687.346,212.559 687.429,212.288 687.464,211.929 687.047,211.359 686.989,210.823 		">
		</polygon>
	</g>
</g>
<g id="Layer_1">
</g>
</svg>
