<?xml version="1.0" encoding="iso-8859-1"?>
<!-- Generator: Adobe Illustrator 19.2.1, SVG Export Plug-In . SVG Version: 6.00 Build 0)  -->
<svg version="1.1" xmlns="http://www.w3.org/2000/svg" xmlns:xlink="http://www.w3.org/1999/xlink" x="0px" y="0px"
	 viewBox="0 0 841.89 595.28" style="enable-background:new 0 0 841.89 595.28;" xml:space="preserve">
<g id="layer191">
	<g id="layer191_1_" slic3r:z="7.66000000000005e-005">
		<polygon slic3r:type="contour" style="fill:#FFFFFF;stroke:#000000;stroke-miterlimit:10;" points="171.556,429.009 
			171.761,430.033 171.82,430.568 172.141,434.363 171.698,436.298 170.85,438.109 170.467,438.879 170.126,439.514 
			168.949,440.708 167.73,442.037 165.871,442.8 163.724,442.811 162.148,442.404 161.024,442.209 160.207,441.738 158.702,440.613 
			157.696,439.789 155.21,437.035 155.163,436.947 154.933,436.729 153.588,434.84 152.871,433.069 152.348,431.874 
			151.315,428.232 151.215,427.832 151.121,427.656 150.977,423.768 151.601,421.962 152.279,420.468 154.633,418.082 
			154.892,417.717 155.069,417.623 155.245,417.529 159.116,416.714 159.652,416.655 159.787,416.696 163.804,418.069 
			165.309,419.194 167.825,421.366 168.607,422.196 169.312,423.52 170.581,425.903 		">
		</polygon>
		<polygon slic3r:type="contour" style="fill:#FFFFFF;stroke:#000000;stroke-miterlimit:10;" points="550.333,176.534 
			550.48,177.022 550.632,177.734 551.213,181.164 551.706,182.941 551.622,184.911 551.728,185.535 551.156,187.652 
			551.149,189.129 549.354,190.651 549.042,190.704 546.877,191.744 545.4,191.737 542.1,192.135 540.753,191.946 539.006,191.857 
			536.859,191.867 534.124,191.624 533.271,191.512 533,191.429 532.506,191.353 528.907,190.551 525.031,189.442 524.896,189.401 
			524.172,189.106 520.462,187.457 519.738,187.163 515.969,184.978 515.422,184.589 514.323,183.589 513.03,182.011 
			512.349,179.882 512.061,179.128 512.096,178.77 512.721,176.964 512.98,176.6 513.804,175.594 514.94,174.536 516.253,173.384 
			516.694,173.149 518.983,171.703 519.907,171.098 520.172,170.957 523.178,169.582 525.65,168.266 527.503,167.279 
			528.91,166.303 529.398,166.157 531.087,165.711 532.916,165.529 534.481,165.489 536.587,165.614 539.004,165.686 540.31,166.01 
			542.704,166.888 543.203,167.189 545.126,168.884 547.184,170.62 547.466,171.15 548.729,173.31 		">
		</polygon>
		<polygon slic3r:type="contour" style="fill:#FFFFFF;stroke:#000000;stroke-miterlimit:10;" points="593.433,224.278 
			593.904,225.161 594.896,227.238 595.848,229.45 596.782,230.992 597.623,232.357 599.033,235.005 599.949,237.576 
			600.53,239.306 601.657,243.124 601.704,243.212 601.704,243.212 602.69,246.766 603.048,248.502 603.412,250.461 
			604.022,253.308 604.133,254.155 604.285,254.867 604.625,257.632 604.818,259.909 604.805,261.161 605.062,264.197 
			605.038,265.003 605.091,265.315 604.501,268.461 604.117,270.932 603.875,271.967 602.821,274.454 602.361,275.719 
			601.507,277.306 599.187,281.034 599.234,281.123 599.234,281.123 599.146,281.17 596.362,284.239 594.06,286.937 
			593.713,287.349 593.583,287.531 593.277,287.807 590.729,289.618 589.982,290.129 587.951,291.21 584.904,292.72 
			584.286,293.049 584.021,293.19 583.18,293.525 581.32,294.288 579.326,295.011 578.702,295.116 578.437,295.257 575.902,295.814 
			574.031,296.131 573.184,296.242 572.913,296.16 572.513,296.259 570.501,296.311 569.337,296.252 566.919,296.18 566.337,296.15 
			565.707,296.032 562.743,295.571 560.949,295.394 559.961,295.24 558.926,294.998 557.62,294.674 556.044,294.267 
			554.144,293.466 551.386,292.329 550.251,291.687 548.205,290.398 546.559,289.008 545.371,288.055 542.602,284.771 
			542.555,284.682 542.508,284.594 541.093,281.723 541.04,281.411 540.765,279.405 541.002,276.446 540.99,275.999 
			541.073,275.729 542.434,271.265 542.605,270.947 542.817,270.494 543.995,267.601 544.213,267.372 545.155,265.737 
			546.663,263.461 546.792,263.279 546.88,263.232 549.005,260.627 550.789,258.658 551.66,257.741 552.272,257.188 554.491,254.76 
			554.927,254.302 554.968,254.166 557.411,251.733 558.064,251.045 560.242,248.752 560.548,248.476 560.589,248.34 
			561.243,247.653 562.326,246.283 562.497,245.965 563.539,244.73 564.316,243.637 564.699,242.866 565.906,241.091 
			566.318,239.738 566.99,238.021 567.35,236.356 567.509,235.592 567.591,235.321 567.77,231.827 567.753,231.157 567.314,227.992 
			567.343,227.409 567.249,227.233 566.722,224.115 566.281,222.65 565.501,220.12 565.301,219.32 565.107,218.743 564.309,215.543 
			564.163,215.054 563.869,214.078 563.806,211.619 563.554,210.507 563.055,208.507 564.603,206.096 564.639,205.737 
			564.945,205.461 565.398,205.673 566.027,205.791 568.233,206.316 569.497,206.775 570.173,206.982 570.397,206.976 
			572.473,207.683 573.931,208.719 575.66,209.838 577.377,210.509 578.694,211.281 579.799,212.505 581.564,213.265 
			582.704,214.13 584.439,215.473 585.344,215.897 586.115,216.279 587.079,217.239 588.484,217.963 589.266,218.793 
			589.772,219.317 590.465,220.194 592.164,221.895 592.211,221.983 592.352,222.248 		">
		</polygon>
	</g>
</g>
<g id="Layer_1">
</g>
</svg>
