<?xml version="1.0" encoding="iso-8859-1"?>
<!-- Generator: Adobe Illustrator 19.2.1, SVG Export Plug-In . SVG Version: 6.00 Build 0)  -->
<svg version="1.1" xmlns="http://www.w3.org/2000/svg" xmlns:xlink="http://www.w3.org/1999/xlink" x="0px" y="0px"
	 viewBox="0 0 841.89 595.28" style="enable-background:new 0 0 841.89 595.28;" xml:space="preserve">
<g id="layer245">
	<g id="layer245_1_" slic3r:z="9.82000000000009e-005">
		<polygon slic3r:type="contour" style="fill:#FFFFFF;stroke:#000000;stroke-miterlimit:10;" points="731.557,117.297 
			733.109,120.21 733.344,120.651 734.301,123.087 734.865,124.146 735.634,126.229 735.64,126.453 735.687,126.541 
			736.062,128.947 736.813,132.059 736.954,132.324 737.007,132.636 737.846,135.701 738.698,137.514 738.945,138.402 
			739.321,139.108 740.407,141.362 741.201,142.639 742.176,144.045 742.458,144.575 742.834,145.281 743.399,146.34 
			744.051,147.352 744.239,147.705 745.138,149.606 745.237,150.006 745.29,150.318 745.86,151.6 746.676,153.771 747.146,154.654 
			748.063,157.225 749.602,159.691 749.884,160.22 750.072,160.573 751.018,162.562 751.723,163.886 752.187,164.545 
			752.522,165.387 753.186,166.846 753.574,167.999 754.108,169.641 754.155,169.729 754.53,172.135 754.447,172.405 
			753.864,174.076 753.864,174.076 752.999,175.216 752.604,175.54 750.969,176.297 750.704,176.438 750.615,176.485 
			748.668,177.296 746.897,178.013 746.32,178.206 745.479,178.541 744.284,179.064 743.531,179.352 742.249,179.922 
			741.278,180.439 739.071,181.614 738.236,182.172 735.329,183.947 735.064,184.088 734.976,184.135 734.275,184.734 
			732.48,186.257 732.309,186.574 731.808,187.974 731.255,189.062 731.084,189.379 731.178,189.556 731.36,189.686 
			731.637,189.992 733.565,191.91 733.835,191.993 733.971,192.034 734.106,192.075 737.223,193.248 737.27,193.336 
			737.629,193.372 739.564,193.814 741.893,193.933 742.299,194.057 742.387,194.01 742.475,193.963 743.417,194.028 
			746.681,193.989 746.817,194.03 747.04,194.024 749.405,193.785 750.029,193.679 751.317,193.333 752.252,193.175 
			753.005,192.887 754.159,192.499 754.824,192.259 755.883,191.695 756.589,191.319 757.295,190.942 757.866,190.525 
			758.395,190.243 758.966,189.826 760.196,188.944 760.814,188.615 762.05,187.957 763.256,187.881 763.438,188.011 
			764.514,188.117 765.014,188.418 767.055,189.484 767.513,189.919 768.019,190.443 769.118,191.444 769.629,192.191 
			770.235,193.115 771.269,195.057 771.609,196.122 772.526,198.693 772.672,199.181 773.171,201.182 773.282,202.029 
			773.376,202.205 773.458,203.635 773.516,204.17 773.475,204.305 773.51,205.646 773.108,207.446 772.996,208.299 772.43,210.64 
			771.864,212.981 771.611,213.569 771.363,214.38 770.562,216.28 769.973,217.727 769.466,218.903 768.612,220.491 
			768.059,221.578 767.546,222.531 766.734,223.984 766.216,224.713 765.532,225.983 765.15,226.753 764.325,227.759 
			763.113,229.311 762.465,230.222 760.858,232.098 760.511,232.509 760.034,233.103 758.815,234.432 757.297,236.26 
			756.861,236.719 756.643,236.948 755.56,238.318 754.648,239.37 754.43,239.6 752.505,241.304 751.546,242.268 750.281,243.509 
			749.015,244.749 748.621,245.073 748.227,245.396 746.655,246.912 744.43,249.117 744.254,249.211 744.124,249.393 
			741.811,251.645 740.116,253.567 740.116,253.567 737.849,255.907 737.632,256.136 737.414,256.366 736.849,257.007 
			735.319,258.388 734.053,259.628 733.659,259.952 733.441,260.181 731.864,261.474 730.463,262.673 729.368,263.596 
			728.933,264.055 728.056,264.748 726.567,265.994 724.725,267.429 724.066,267.893 723.454,268.445 722.706,268.957 
			721.518,269.703 720.77,270.214 720.152,270.543 719.317,271.102 718.658,271.566 717.822,272.124 716.851,272.641 
			715.215,273.399 713.98,274.057 710.885,275.479 710.443,275.714 709.825,276.043 707.431,276.865 705.836,277.488 
			704.107,278.069 702.465,278.603 701.224,279.038 698.782,279.772 697.188,280.394 695.723,280.834 694.393,281.316 
			692.798,281.939 692.045,282.226 690.315,282.808 689.386,283.189 688.368,283.618 686.685,284.288 685.844,284.623 
			685.402,284.858 685.049,285.046 684.031,285.474 682.172,286.238 681.113,286.802 679.212,287.701 677.224,288.647 
			676.871,288.835 676.253,289.164 675.105,289.775 673.87,290.433 672.987,290.903 672.369,291.232 671.133,291.89 
			668.927,293.065 667.956,293.582 667.12,294.141 664.649,295.457 662.401,296.767 661.83,297.184 660.642,297.931 659.541,298.63 
			658.441,299.329 657.205,299.987 656.764,300.223 655.575,300.969 654.033,301.903 653.327,302.279 651.744,303.349 
			650.291,304.236 649.849,304.471 648.084,305.411 647.248,305.97 645.795,306.857 645.048,307.368 641.876,309.284 
			641.788,309.331 641.699,309.378 641.611,309.425 638.439,311.341 636.409,312.422 635.968,312.657 633.632,314.014 
			632.573,314.578 630.719,315.565 629.619,316.265 628.206,317.017 627.589,317.346 627.059,317.628 624.541,318.856 
			622.817,319.661 621.493,320.366 619.857,321.124 619.545,321.176 617.156,322.222 616.003,322.609 613.391,323.661 
			611.355,324.518 609.448,325.194 606.436,326.345 605.995,326.58 605.506,326.727 602.759,327.737 600.941,328.365 
			600.676,328.506 598.77,329.181 597.44,329.663 593.409,331.243 592.88,331.525 592.568,331.578 592.215,331.766 590.932,332.335 
			588.232,333.434 587.214,333.863 584.384,335.143 583.542,335.478 580.8,336.712 580.535,336.853 580.447,336.9 580.182,337.041 
			577.617,338.18 576.864,338.468 575.005,339.232 573.722,339.801 570.715,341.176 570.492,341.182 570.315,341.276 
			567.261,342.562 565.796,343.002 563.137,343.965 560.254,344.934 558.701,345.422 554.883,346.549 554.571,346.601 
			554.394,346.695 550.394,347.693 548.081,348.245 546.169,348.696 542.698,349.412 541.987,349.564 541.586,349.664 
			537.757,350.344 534.821,351.001 533.662,351.165 531.838,351.57 529.656,351.939 528.367,352.286 526.897,352.502 
			525.385,352.854 524.314,352.971 522.49,353.376 521.867,353.482 521.066,353.681 518.66,354.056 517.013,354.367 
			516.031,354.437 514.472,354.701 513.401,354.818 512.777,354.923 510.724,355.11 508.63,355.432 508.048,355.403 
			507.201,355.514 505.412,355.56 504.477,355.718 502.642,355.676 500.365,355.868 499.294,355.985 497.953,356.02 496.971,356.09 
			494.647,356.194 491.971,356.487 491.971,356.487 491.747,356.493 489.2,356.603 487.817,356.773 486.476,356.807 
			484.064,356.959 483.841,356.964 483.664,357.058 481.205,357.122 479.599,357.297 478.929,357.314 477.635,357.437 
			477.276,357.401 476.293,357.471 475.135,357.635 473.84,357.758 471.205,357.915 469.111,358.238 466.969,358.472 
			464.028,358.905 462.869,359.069 462.022,359.18 458.586,359.537 456.622,359.677 454.704,359.905 454.168,359.964 
			453.498,359.981 453.186,360.034 450.951,360.091 450.28,360.109 446.568,360.159 446.48,360.206 446.392,360.253 
			446.121,360.171 442.404,359.998 441.551,359.886 439.486,359.626 438.904,359.596 437.645,359.36 437.422,359.365 
			435.087,359.023 433.922,358.963 431.234,358.809 430.069,358.749 428.41,358.613 427.828,358.583 427.516,358.636 
			425.099,358.564 422.863,358.621 421.387,358.615 420.093,358.737 417.546,358.847 416.116,358.929 414.822,359.052 
			412.951,359.368 410.816,359.826 409.304,360.178 408.415,360.424 406.415,360.923 404.103,361.475 401.838,362.114 
			400.679,362.278 399.614,362.619 398.725,362.865 397.037,363.311 396.107,363.693 394.513,364.316 393.495,364.745 
			391.859,365.502 388.858,367.101 387.799,367.665 386.257,368.599 383.921,369.956 381.85,371.173 380.967,371.643 
			379.514,372.53 378.719,372.953 375.236,374.922 374.883,375.11 374.312,375.527 371.005,377.401 369.463,378.336 
			368.757,378.712 368.01,379.223 366.733,380.017 365.191,380.951 364.444,381.462 362.372,382.679 359.865,384.354 
			359.206,384.818 358.329,385.511 356.311,387.04 355.652,387.504 354.734,388.333 354.033,388.932 352.721,390.084 
			351.72,391.184 350.455,392.424 350.107,392.836 349.672,393.294 348.018,395.082 346.54,396.775 345.363,397.968 
			344.357,398.844 342.873,400.314 341.043,402.195 340.825,402.424 340.519,402.701 340.301,402.93 338.994,404.306 
			337.081,406.457 336.905,406.551 336.775,406.734 333.862,409.985 333.473,410.532 332.949,411.037 332.431,411.766 
			331.083,413.277 329.87,414.829 329.435,415.288 328.134,416.887 326.568,418.627 325.485,419.997 324.572,421.05 
			323.748,422.055 323.23,422.784 321.017,425.436 319.934,426.806 319.457,427.4 317.715,429.234 316.414,430.833 315.413,431.932 
			315.283,432.115 315.107,432.209 312.799,434.684 311.834,435.424 310.657,436.618 309.215,437.952 308.821,438.275 
			306.59,440.256 305.625,440.997 304.795,441.779 303,443.301 302.3,443.901 301.47,444.683 300.816,445.371 299.463,446.658 
			297.979,448.128 297.067,449.18 296.196,450.097 293.883,452.349 293.318,452.99 293.1,453.219 290.828,455.335 290.263,455.976 
			289.474,456.622 289.433,456.758 287.426,458.733 285.725,460.432 285.072,461.12 282.282,463.965 281.976,464.241 
			281.452,464.747 280.84,465.3 278.921,467.228 278.397,467.733 278.179,467.963 276.519,469.526 275.43,470.673 274.471,471.637 
			272.552,473.565 271.681,474.482 270.722,475.446 269.415,476.822 267.543,478.839 267.414,479.021 267.108,479.297 
			263.576,482.877 263.358,483.107 261.351,485.082 259.562,486.828 259.256,487.104 257.119,489.262 255.718,490.461 
			255.065,491.149 253.4,492.489 251.74,494.052 251.169,494.47 250.733,494.928 249.55,495.898 248.02,497.28 247.932,497.327 
			247.626,497.603 246.708,498.432 246.443,498.573 243.73,500.924 242.458,501.941 241.493,502.681 240.134,503.745 
			239.651,504.116 238.551,504.815 237.586,505.556 237.144,505.791 235.603,506.725 234.326,507.518 233.09,508.176 
			230.666,509.581 230.313,509.769 229.871,510.004 227.971,510.903 226.776,511.425 224.034,512.659 223.281,512.947 
			220.316,514.186 220.227,514.233 219.563,514.474 216.727,515.531 216.15,515.725 214.862,516.071 213.22,516.605 211.579,517.14 
			210.602,517.433 209.89,517.586 207.937,518.173 206.601,518.431 204.378,518.935 201.53,519.545 200.683,519.657 
			198.277,520.032 197.03,520.243 196.494,520.301 193.641,520.688 191.5,520.922 190.294,520.997 188.553,521.132 186.453,521.23 
			185.47,521.3 181.27,521.498 180.823,521.509 180.064,521.574 176.217,521.583 174.429,521.629 172.864,521.669 170.67,521.591 
			167.27,521.589 166.105,521.53 164.941,521.47 162.3,521.404 159.882,521.332 159.253,521.214 157.953,521.113 155.894,521.076 
			155.265,520.958 152.888,520.751 151.453,520.609 151.182,520.527 150.194,520.373 148.13,520.113 147.547,520.083 
			145.03,519.611 144.536,519.534 144.401,519.493 140.625,518.785 140.084,518.62 137.878,518.095 137.607,518.012 
			137.519,518.059 134.949,517.275 134.32,517.157 133.461,516.822 130.844,515.949 129.127,515.278 127.862,514.818 
			126.551,514.27 125.328,513.675 124.199,513.257 123.611,513.004 122.246,512.144 120.706,511.379 120.071,511.037 
			118.389,510.007 116.207,508.676 115.525,508.246 114.614,507.598 109.416,503.795 108.64,503.189 107.405,502.147 
			104.301,499.721 102.608,498.244 101.232,496.937 99.768,495.678 98.575,494.5 97.705,493.717 94.26,490.227 91.685,487.52 
			87.182,482.893 85.43,480.881 82.444,477.826 79.64,474.901 78.764,473.894 76.183,470.963 75.307,469.957 72.862,467.067 
			72.074,466.014 70.77,463.989 70.17,463.289 68.578,460.512 68.578,460.512 68.531,460.423 67.356,458.217 66.833,457.022 
			66.069,455.163 65.241,452.545 64.948,451.568 64.748,450.768 63.856,447.391 63.692,446.232 63.27,443.738 63.206,442.979 
			63.06,440.791 63.014,439.002 62.991,438.108 63.076,434.438 63.165,432.691 63.367,430.091 63.728,426.726 63.793,425.785 
			64.218,423.179 64.484,421.338 64.602,420.709 65.398,416.886 65.516,416.257 65.723,415.58 66.319,412.657 67.127,409.281 
			67.127,409.281 67.08,409.193 68.017,405.635 68.801,403.065 68.966,402.523 69.879,399.771 70.127,398.96 70.168,398.824 
			71.258,395.978 72.012,393.99 72.684,392.273 73.992,389.197 74.286,388.474 74.498,388.021 75.176,386.527 75.941,384.987 
			76.195,384.398 76.913,382.77 77.426,381.817 78.274,380.006 78.786,379.053 79.387,378.053 80.235,376.242 80.877,375.107 
			81.855,373.114 83.009,371.026 83.521,370.074 84.504,368.304 85.364,366.939 85.923,366.075 86.995,364.258 87.767,362.941 
			88.715,361.53 89.963,359.619 90.569,358.843 92.082,356.791 92.559,356.197 92.6,356.061 93.642,354.827 94.637,353.504 
			94.855,353.275 96.721,351.035 98.369,349.024 98.805,348.565 99.676,347.648 100.459,346.778 100.765,346.502 101.33,345.861 
			102.466,344.803 103.16,343.98 104.296,342.921 105.521,341.816 105.738,341.587 106.133,341.264 107.357,340.159 108.275,339.33 
			109.37,338.407 110.2,337.625 111.294,336.702 112.477,335.732 114.449,334.116 114.931,333.746 115.502,333.328 117.65,331.618 
			118.745,330.695 119.975,329.813 121.028,329.026 122.082,328.238 123.659,326.945 124.889,326.063 126.16,325.047 
			127.39,324.165 128.661,323.148 129.627,322.407 130.462,321.849 132.481,320.321 133.14,319.857 134.941,318.558 
			135.906,317.817 137.707,316.518 138.848,315.684 141.043,314.061 141.485,313.826 141.702,313.597 142.932,312.716 
			144.251,311.787 144.692,311.552 146.934,310.018 147.77,309.46 149.835,308.02 150.406,307.602 150.847,307.367 153.266,305.74 
			155.508,304.206 156.079,303.788 157.179,303.089 158.804,301.884 159.816,301.232 161.311,300.209 163.641,298.628 
			163.947,298.352 164.124,298.258 164.959,297.7 166.719,296.536 167.684,295.795 168.961,295.002 169.62,294.538 171.821,293.139 
			174.239,291.511 174.416,291.417 174.546,291.235 176.658,289.883 177.67,289.231 179.035,288.391 179.783,287.879 
			181.413,286.898 183.39,285.505 184.402,284.853 185.897,283.83 187.215,282.901 188.051,282.343 189.281,281.461 
			190.599,280.533 191.258,280.069 192.623,279.228 193.765,278.394 195.172,277.418 196.755,276.348 197.679,275.743 
			198.997,274.814 200.315,273.886 201.28,273.145 203.081,271.846 205.099,270.318 205.364,270.177 207.342,268.784 
			208.13,268.138 208.13,268.138 208.307,268.044 210.678,266.327 211.773,265.405 213.268,264.382 214.145,263.688 
			216.734,261.743 217.217,261.373 217.964,260.861 219.588,259.656 220.642,258.869 221.783,258.034 222.401,257.705 
			224.202,256.406 225.255,255.619 227.451,253.996 228.11,253.532 230.611,251.634 230.787,251.54 232.147,250.476 
			232.935,249.829 233.112,249.735 234.648,248.577 236.49,247.143 236.755,247.002 237.237,246.632 239.256,245.104 
			240.221,244.363 241.975,242.976 242.193,242.747 243.511,241.818 245.088,240.525 245.441,240.337 245.659,240.108 
			247.766,238.532 250.002,236.775 250.308,236.499 250.661,236.311 252.415,234.923 253.469,234.136 254.698,233.254 
			255.575,232.561 257.77,230.938 258.341,230.521 258.694,230.333 259.177,229.963 261.243,228.523 262.208,227.782 
			264.491,226.113 264.579,226.066 264.621,225.931 264.885,225.79 267.345,224.027 267.875,223.745 268.487,223.192 
			269.982,222.169 271.653,221.053 272.706,220.265 273.672,219.525 275.166,218.502 276.002,217.944 277.408,216.968 
			279.339,215.487 280.833,214.464 281.14,214.188 282.152,213.536 283.511,212.472 284.17,212.007 284.741,211.59 285.795,210.803 
			289.131,208.346 289.526,208.022 289.92,207.699 290.185,207.558 291.721,206.4 293.039,205.472 293.522,205.101 294.134,204.549 
			295.234,203.849 298.088,201.763 298.088,201.763 299.495,200.787 302.266,198.971 302.531,198.83 302.749,198.601 
			305.656,196.826 306.798,195.992 306.974,195.898 307.415,195.663 310.935,193.335 312.123,192.589 312.741,192.26 
			313.883,191.426 315.248,190.585 316.79,189.651 318.861,188.434 319.479,188.105 321.068,187.259 321.727,186.795 
			323.933,185.62 326.934,184.022 327.77,183.463 328.741,182.946 330.73,182 331.789,181.436 332.142,181.248 334.566,179.844 
			336.508,178.81 336.773,178.669 340.563,176.424 341.575,175.772 342.193,175.443 343.116,174.837 344.658,173.903 
			346.288,172.922 348.183,171.799 349.107,171.194 349.766,170.73 351.043,169.936 353.332,168.491 355.58,167.18 355.756,167.086 
			355.845,167.039 357.651,165.964 360.47,164.236 361.482,163.584 361.788,163.308 363.153,162.467 364.954,161.168 
			366.096,160.334 366.755,159.869 368.379,158.665 369.609,157.783 370.18,157.366 370.357,157.272 372.681,155.467 
			373.999,154.539 374.57,154.121 375.406,153.563 377.607,152.164 378.531,151.559 378.884,151.371 381.655,149.555 
			383.062,148.579 383.062,148.579 383.238,148.485 383.768,148.203 386.804,146.246 387.287,145.876 387.817,145.594 
			390.412,143.872 391.553,143.037 391.948,142.714 392.43,142.344 395.85,139.617 396.638,138.97 396.727,138.923 396.768,138.788 
			398.963,137.166 400.105,136.331 400.458,136.143 400.981,135.637 404.313,132.957 405.101,132.31 405.101,132.31 405.101,132.31 
			407.29,130.465 408.603,129.313 408.868,129.172 409.262,128.848 409.745,128.478 411.769,127.173 413.352,126.104 
			413.835,125.733 416.383,123.923 417.13,123.412 418.184,122.624 418.272,122.577 421.391,120.35 422.756,119.509 
			423.327,119.092 424.162,118.534 425.616,117.646 427.464,116.436 428.958,115.413 429.835,114.72 430.718,114.25 431.901,113.28 
			434.049,111.569 434.137,111.522 434.314,111.428 434.532,111.199 436.244,109.947 437.651,108.971 438.439,108.325 
			440.864,106.92 442.582,105.892 443.465,105.422 445.848,104.153 446.424,103.959 446.866,103.724 447.307,103.489 
			449.343,102.631 451.061,101.603 451.061,101.603 451.285,101.597 455.268,99.929 456.598,99.448 459.481,98.479 462.54,97.416 
			463.693,97.028 466.529,95.971 467.818,95.625 468.394,95.431 471.906,94.581 474.836,93.7 475.995,93.536 477.907,93.084 
			480.09,92.715 481.249,92.551 484.502,92.065 487.802,91.667 488.026,91.661 488.249,91.655 491.197,91.445 492.626,91.364 
			494.903,91.171 495.438,91.112 497.85,90.961 497.938,90.914 500.574,90.757 501.644,90.64 504.233,90.394 505.615,90.225 
			507.574,89.861 509.357,89.592 510.916,89.328 512.963,88.917 514.698,88.559 515.81,88.307 518.299,87.662 519.011,87.509 
			519.411,87.409 520.876,86.969 522.741,86.429 523.67,86.047 524.782,85.795 526.865,85.026 527.042,84.932 529.125,84.162 
			530.984,83.399 531.296,83.346 533.949,82.159 534.261,82.107 535.497,81.449 536.78,80.879 536.956,80.785 537.309,80.597 
			538.768,79.933 539.433,79.692 540.934,78.893 541.993,78.329 544.729,76.872 545.082,76.684 545.347,76.543 548.13,75.174 
			548.789,74.71 549.937,74.099 551.261,73.394 551.614,73.205 554.038,71.801 554.568,71.519 555.009,71.284 557.927,69.956 
			558.633,69.58 560.622,68.635 561.287,68.394 561.999,68.241 564.576,67.549 565.288,67.396 567.2,66.944 568.047,66.833 
			569.165,66.804 571,66.847 572.57,67.03 573.511,67.095 575.041,67.414 576.029,67.567 577.24,67.715 579.129,68.069 
			580.569,68.435 582.01,68.8 583.675,69.16 583.945,69.243 586.239,69.721 586.645,69.844 587.051,69.968 590.068,70.741 
			590.203,70.782 593.591,72.037 593.591,72.037 593.591,72.037 593.773,72.166 597.266,74.045 598.489,74.64 600.577,75.794 
			602.518,76.46 603.735,76.831 605.893,77.268 605.94,77.356 608.187,77.746 609.17,77.676 610.511,77.641 611.676,77.701 
			613.24,77.661 614.676,77.803 617.134,77.739 617.982,77.628 618.605,77.523 621.382,77.63 622.723,77.596 624.423,77.597 
			625.187,77.756 626.805,78.028 628.246,78.393 628.969,78.688 631.269,79.389 632.351,79.719 632.892,79.884 634.609,80.556 
			635.515,80.98 637.373,81.917 637.691,82.087 638.867,82.594 640.319,83.407 640.637,83.577 641.631,83.954 643.853,85.15 
			644.442,85.403 646.706,86.463 647.429,86.758 649.24,87.606 650.552,88.154 651.998,88.743 653.486,89.197 653.486,89.197 
			654.839,89.61 655.968,90.028 657.321,90.44 658.174,90.553 660.109,90.995 662.444,91.338 662.714,91.42 662.938,91.414 
			666.032,91.693 666.12,91.646 669.479,91.783 670.414,91.625 671.573,91.461 672.867,91.338 674.026,91.174 675.585,90.91 
			676.874,90.564 678.739,90.024 679.492,89.736 681.18,89.29 681.933,89.002 683.269,88.744 685.181,88.293 685.493,88.24 
			687.24,88.329 687.869,88.447 688.998,88.866 689.492,88.942 690.169,89.149 691.48,89.697 691.662,89.826 692.662,90.427 
			693.297,90.768 694.432,91.41 696.384,92.523 697.113,93.041 697.566,93.253 700.06,94.531 701.012,95.044 703.235,96.239 
			704.323,96.793 705.911,97.646 707.045,98.288 708.092,98.977 710.221,99.996 710.95,100.514 711.538,100.768 714.125,102.222 
			715.76,103.164 716.807,103.853 718.535,104.972 720.77,106.614 721.91,107.48 724.515,109.605 725.109,110.082 726.297,111.035 
			727.672,112.342 728.313,112.907 729.001,113.561 729.6,114.261 731.087,116.415 731.369,116.944 		">
		</polygon>
	</g>
</g>
<g id="Layer_1">
</g>
</svg>
