<?xml version="1.0" encoding="iso-8859-1"?>
<!-- Generator: Adobe Illustrator 19.2.1, SVG Export Plug-In . SVG Version: 6.00 Build 0)  -->
<svg version="1.1" xmlns="http://www.w3.org/2000/svg" xmlns:xlink="http://www.w3.org/1999/xlink" x="0px" y="0px"
	 viewBox="0 0 841.89 595.28" style="enable-background:new 0 0 841.89 595.28;" xml:space="preserve">
<g id="layer250">
	<g id="layer250_1_" slic3r:z="0.000100200000000001">
		<polygon slic3r:type="contour" style="fill:#FFFFFF;stroke:#000000;stroke-miterlimit:10;" points="739.861,121.826 
			739.966,122.45 740.841,125.156 740.988,125.644 741.134,126.133 742.214,129.863 742.967,131.275 743.818,133.087 
			744.57,134.499 745.61,136.665 746.174,137.724 747.72,140.413 747.814,140.59 747.861,140.678 748.912,143.29 749.87,145.726 
			749.87,145.726 749.964,145.903 750.427,148.262 750.356,148.979 750.59,151.121 750.624,152.462 751.099,155.268 
			751.105,155.492 751.152,155.58 751.346,156.157 751.933,158.11 752.267,158.951 752.931,160.41 753.119,160.763 753.307,161.117 
			754.582,163.723 755.281,164.824 755.704,165.618 756.592,167.071 757.808,169.143 758.19,170.072 758.701,170.82 
			759.594,172.497 759.976,173.426 760.822,175.015 760.869,175.103 761.357,176.657 762.25,178.334 762.297,178.422 
			763.331,180.364 763.519,180.717 765.105,183.271 765.793,183.924 766.293,184.224 767.216,185.319 768.233,186.59 
			769.438,188.215 769.902,188.874 770.836,190.415 771.824,192.269 771.824,192.269 772.628,193.993 772.781,194.705 
			773.221,196.17 773.368,196.658 773.632,198.217 773.942,199.864 774.001,200.4 774.035,201.741 774.064,202.859 774.033,205.141 
			773.992,205.276 773.951,205.411 773.508,207.346 773.049,208.611 772.513,210.369 772.3,210.822 771.411,212.769 
			771.158,213.357 770.734,214.262 769.75,216.032 768.814,217.891 768.172,219.026 767.701,219.843 766.541,221.707 
			765.634,222.983 764.681,224.171 764.068,224.723 763.768,225.223 762.161,227.098 761.99,227.416 761.814,227.51 
			759.983,229.391 757.847,231.549 757.847,231.549 757.758,231.596 755.44,233.624 753.121,235.652 752.815,235.928 
			752.42,236.251 749.748,238.467 749.442,238.744 749.136,239.02 746.423,241.371 745.587,241.929 745.546,242.065 
			744.758,242.711 742.439,244.739 742.086,244.927 741.344,245.662 739.29,247.549 738.248,248.784 737.2,249.795 735.676,251.4 
			734.981,252.223 733.586,253.646 733.368,253.875 732.232,254.933 731.232,256.033 731.143,256.08 731.014,256.262 
			728.783,258.243 727.077,259.718 726.247,260.5 725.287,261.464 724.104,262.434 722.527,263.727 721.609,264.556 
			719.632,265.949 718.578,266.737 716.56,268.265 715.989,268.682 713.523,270.222 712.111,270.974 710.528,272.043 
			708.498,273.125 708.145,273.313 707.792,273.501 705.403,274.546 703.414,275.492 702.661,275.78 701.378,276.35 
			700.272,276.825 699.831,277.06 697.707,277.965 696.777,278.347 695.182,278.969 693.017,280.009 691.423,280.632 
			690.14,281.202 689.034,281.677 687.133,282.576 685.939,283.099 685.009,283.481 681.785,285.085 681.608,285.179 
			678.472,286.736 678.207,286.877 677.678,287.159 675.471,288.334 673.882,289.18 671.105,290.772 670.575,291.054 
			670.046,291.336 667.356,292.882 666.256,293.581 664.802,294.469 664.008,294.892 662.731,295.685 660.748,296.854 
			660.042,297.23 659.601,297.465 658.059,298.4 656.694,299.24 656.388,299.516 653.61,301.109 652.157,301.996 650.662,303.019 
			649.868,303.442 648.414,304.329 646.696,305.358 645.154,306.292 642.824,307.873 642.559,308.014 642.382,308.108 
			639.517,309.747 638.063,310.635 635.774,312.08 635.333,312.315 634.45,312.785 632.067,314.055 631.231,314.613 628.895,315.97 
			628.013,316.44 627.53,316.811 625.677,317.798 624.488,318.544 623.958,318.826 622.058,319.725 621.705,319.913 
			620.292,320.665 619.451,321 619.186,321.141 617.862,321.846 616.403,322.51 615.297,322.985 614.279,323.414 611.402,324.607 
			611.049,324.795 610.784,324.936 610.56,324.941 607.86,326.04 606.089,326.756 605.953,326.715 605.865,326.762 601.964,328.16 
			601.388,328.353 601.388,328.353 601.388,328.353 601.211,328.448 596.869,330.08 596.381,330.227 595.939,330.462 
			594.698,330.896 593.415,331.466 591.997,331.995 590.05,332.805 588.502,333.516 586.819,334.186 586.378,334.421 
			584.478,335.32 583.283,335.842 580.63,337.029 579.747,337.499 578.552,338.022 577.181,338.639 576.387,339.062 
			573.027,340.624 572.804,340.63 572.627,340.724 571.345,341.294 568.914,342.475 568.514,342.575 566.39,343.479 
			564.619,344.196 563.954,344.437 562.183,345.153 562.007,345.247 559.789,345.975 559.612,346.069 558.771,346.404 
			556.953,347.032 556.553,347.132 555.176,347.525 554.423,347.813 551.981,348.547 550.828,348.934 549.763,349.275 
			547.363,349.874 545.986,350.267 545.098,350.513 544.298,350.713 542.786,351.065 542.162,351.17 540.603,351.434 
			539.315,351.78 538.603,351.933 537.132,352.15 534.508,352.754 532.773,353.112 530.725,353.522 530.237,353.669 
			529.302,353.827 526.101,354.625 524.277,355.03 521.965,355.582 517.782,356.45 517.782,356.45 517.782,356.45 513.599,357.318 
			512.617,357.388 510.923,357.61 509.452,357.827 507.311,358.061 505.258,358.248 504.675,358.218 503.516,358.382 
			501.416,358.481 501.105,358.534 499.499,358.709 496.91,358.955 496.063,359.066 494.01,359.253 492.851,359.417 
			491.333,359.545 488.745,359.791 488.657,359.838 488.657,359.838 486.021,359.995 484.462,360.259 483.345,360.288 
			481.339,360.563 480.668,360.58 480.356,360.633 478.08,360.826 475.938,361.059 475.627,361.112 474.021,361.288 
			473.038,361.358 472.015,361.563 469.073,361.996 467.826,362.207 466.979,362.319 463.684,362.94 460.166,363.568 
			459.454,363.72 458.295,363.884 455.266,364.365 453.26,364.64 451.118,364.874 448.395,365.078 446.965,365.159 446.518,365.171 
			445.624,365.194 442.806,365.222 440.03,365.114 438.642,365.06 437.207,364.918 434.612,364.94 433.448,364.881 431.301,364.891 
			430.407,364.914 428.171,364.972 426.742,365.053 426.295,365.065 423.436,365.228 422.142,365.35 421.606,365.409 
			417.947,365.771 416.788,365.935 415.988,366.135 413.982,366.41 413.806,366.504 411.8,366.779 410.023,367.272 409.399,367.378 
			407.487,367.83 405.31,368.422 402.645,369.162 401.221,369.467 399.804,369.995 397.985,370.624 396.921,370.964 
			395.638,371.534 392.808,372.815 390.248,374.178 389.189,374.742 388.571,375.071 385.882,376.616 384.34,377.551 
			383.634,377.927 383.016,378.256 381.563,379.143 380.327,379.801 380.062,379.942 378.167,381.065 375.872,382.287 
			375.696,382.381 375.519,382.475 371.595,384.678 370.582,385.331 369.612,385.848 368.335,386.641 367.893,386.876 
			367.411,387.246 366.263,387.857 365.781,388.228 363.185,389.95 361.161,391.254 358.878,392.924 357.871,393.799 
			357.477,394.123 356.818,394.587 355.77,395.598 354.634,396.656 353.763,397.573 352.633,398.855 351.891,399.59 350.326,401.33 
			349.454,402.247 346.623,405.228 346.099,405.733 346.099,405.733 346.011,405.78 343.922,408.026 341.702,410.454 
			341.443,410.819 341.137,411.095 340.225,412.147 338.612,413.799 337.352,415.263 336.181,416.68 335.704,417.274 
			335.227,417.868 334.274,419.056 331.707,421.895 331.448,422.26 330.707,422.995 328.97,425.052 328.493,425.646 
			328.275,425.875 328.058,426.105 326.404,427.892 324.614,429.638 324.573,429.773 324.485,429.82 324.396,429.867 
			322.431,431.707 320.777,433.494 320.559,433.724 320.076,434.094 318.416,435.658 316.886,437.039 316.315,437.456 
			315.221,438.379 313.337,439.949 312.678,440.413 309.912,442.453 308.335,443.746 307.852,444.116 307.329,444.622 
			306.67,445.086 304.827,446.52 304.127,447.12 303.121,447.995 301.543,449.289 300.013,450.67 299.442,451.087 298.742,451.687 
			297.43,452.839 295.988,454.173 295.287,454.773 294.499,455.42 293.186,456.572 291.962,457.677 290.602,458.741 290.385,458.97 
			290.296,459.017 287.936,461.18 286.971,461.921 285.965,462.797 283.775,464.643 283.075,465.242 282.639,465.701 
			281.674,466.441 280.715,467.405 279.797,468.234 278.661,469.292 277.389,470.309 276.56,471.091 276.342,471.32 
			275.818,471.826 273.152,474.265 271.975,475.459 269.921,477.346 269.049,478.263 268.832,478.492 268.484,478.904 
			268.178,479.18 266.389,480.926 264.429,482.99 264.341,483.037 262.333,485.012 260.632,486.711 260.415,486.94 260.197,487.169 
			259.061,488.227 258.055,489.103 257.619,489.562 256.701,490.391 256.177,490.896 255.912,491.037 252.675,493.894 
			251.363,495.046 249.915,496.157 248.514,497.356 247.814,497.956 247.42,498.279 246.06,499.343 244.442,500.772 
			243.082,501.835 242.688,502.159 241.593,503.082 240.145,504.192 239.398,504.704 238.827,505.121 235.749,507.213 
			235.002,507.725 234.255,508.236 231.124,510.016 230.288,510.575 229.406,511.045 226.934,512.361 226.317,512.69 
			224.063,513.777 221.233,515.057 220.968,515.198 220.656,515.251 217.691,516.491 215.608,517.26 214.767,517.595 
			212.684,518.364 211.042,518.898 209.889,519.286 208.024,519.826 206.336,520.272 205.535,520.471 203.847,520.917 
			203.535,520.97 202.6,521.128 201.488,521.381 201.176,521.433 199.305,521.75 198.505,521.949 197.434,522.066 196.499,522.225 
			194.269,522.506 193.511,522.57 191.057,522.857 190.61,522.868 190.434,522.962 187.799,523.119 186.416,523.289 
			185.969,523.301 184.628,523.335 182.528,523.434 181.322,523.51 179.757,523.55 178.281,523.543 176.851,523.625 
			175.151,523.623 173.586,523.664 171.528,523.627 166.875,523.613 166.875,523.613 166.739,523.571 162.398,523.504 
			161.504,523.527 159.757,523.438 158.728,523.419 156.351,523.212 154.74,523.164 153.304,523.022 151.51,522.844 
			148.999,522.596 148.999,522.596 148.911,522.643 146.664,522.253 145.811,522.141 143.835,521.834 143.117,521.763 
			141.994,521.568 140.6,521.291 140.106,521.214 138.171,520.772 137.135,520.53 135.559,520.123 133.889,519.54 132.671,519.168 
			130.642,518.549 129.378,518.09 127.073,517.165 125.673,516.664 123.95,515.769 123.497,515.557 122.321,515.05 120.369,513.937 
			119.187,513.207 116.782,511.882 114.324,510.245 113.548,509.639 110.22,507.219 108.485,505.877 106.204,504.146 
			104.282,502.451 101.765,500.279 99.061,497.754 95.663,494.352 94.834,493.433 90.143,488.454 88.438,486.529 88.162,486.223 
			80.979,478.266 80.843,478.225 80.749,478.048 80.473,477.742 75.953,472.445 73.925,470.127 72.397,468.108 71.703,467.231 
			71.009,466.354 70.686,465.96 69.987,464.859 69.288,463.759 67.983,461.735 67.231,460.322 66.808,459.528 66.056,458.116 
			65.386,456.433 65.051,455.592 64.67,454.662 63.941,452.444 63.249,449.867 62.809,448.402 62.24,445.419 61.824,443.149 
			61.689,441.407 61.503,437.654 61.498,437.431 61.527,436.848 61.571,433.313 61.707,431.654 62.003,429.231 62.452,425.82 
			62.405,425.731 62.405,425.731 62.877,423.214 63.349,420.697 63.555,420.02 63.591,419.661 63.75,418.897 64.316,416.556 
			64.434,415.927 65.325,412.28 65.567,411.245 66.504,407.687 66.663,406.922 67.607,403.587 67.895,402.641 68.267,401.423 
			68.39,401.017 69.186,398.894 69.899,397.042 70.105,396.365 71.242,393.607 71.366,393.201 71.79,392.296 72.42,390.714 
			72.927,389.538 73.604,388.044 74.111,386.868 75.301,384.421 75.636,383.563 76.485,381.752 76.914,381.07 77.126,380.617 
			78.104,378.623 78.828,377.218 79.123,376.494 80.018,374.771 80.407,374.225 81.131,372.819 81.643,371.867 81.856,371.414 
			82.886,369.732 83.911,367.827 84.128,367.597 84.299,367.28 85.283,365.51 86.272,363.963 86.831,363.099 87.22,362.552 
			88.904,360.183 89.51,359.407 90.676,357.766 91.023,357.355 91.323,356.855 92.406,355.485 92.883,354.891 94.013,353.609 
			94.967,352.422 96.403,350.864 96.968,350.223 98.622,348.436 99.582,347.472 101.412,345.59 101.542,345.408 103.243,343.709 
			104.467,342.604 105.121,341.916 105.821,341.317 107.045,340.211 108.399,338.924 109.058,338.46 109.405,338.048 
			111.071,336.708 112.342,335.691 112.954,335.139 114.402,334.028 116.415,332.276 116.768,332.088 117.162,331.765 
			118.957,330.242 119.704,329.731 121.064,328.667 121.588,328.161 124.354,326.122 124.442,326.075 124.442,326.075 
			127.249,323.9 128.038,323.254 129.703,321.913 129.968,321.772 130.098,321.59 131.987,320.244 132.864,319.551 133.04,319.457 
			133.611,319.039 135.806,317.417 136.289,317.047 138.484,315.425 138.79,315.148 139.143,314.96 141.032,313.614 
			142.215,312.645 142.568,312.457 142.962,312.133 145.557,310.411 146.787,309.53 148.017,308.648 149.6,307.578 152.148,305.768 
			152.413,305.627 152.719,305.351 154.961,303.817 156.28,302.888 157.51,302.007 159.31,300.708 159.575,300.567 161.423,299.356 
			162.17,298.845 165.113,296.711 165.113,296.711 165.113,296.711 167.973,294.848 169.379,293.873 170.48,293.174 
			171.974,292.151 173.428,291.264 174.264,290.705 175.364,290.006 177.035,288.889 177.871,288.331 179.848,286.938 
			180.643,286.515 181.125,286.145 183.544,284.517 184.556,283.864 185.962,282.889 186.71,282.378 188.116,281.402 
			189.04,280.797 189.876,280.238 191.459,279.169 191.765,278.892 193.348,277.823 194.931,276.753 195.943,276.101 
			196.82,275.407 198.885,273.967 200.333,272.856 201.693,271.793 202.175,271.422 202.617,271.187 205.118,269.289 
			205.294,269.195 205.512,268.965 207.801,267.52 210.173,265.804 210.173,265.804 210.349,265.71 212.586,263.952 214.298,262.7 
			215.046,262.189 215.44,261.866 217.594,260.379 218.076,260.008 218.824,259.497 220.536,258.245 221.678,257.411 
			223.214,256.253 224.314,255.553 225.939,254.348 227.651,253.097 228.616,252.356 230.635,250.828 230.635,250.828 
			232.347,249.576 234.06,248.324 234.849,247.677 236.955,246.102 237.438,245.732 239.15,244.48 239.545,244.157 239.763,243.927 
			241.387,242.723 242.617,241.841 243.976,240.777 245.424,239.666 246.389,238.926 248.19,237.627 248.496,237.35 
			248.761,237.209 250.473,235.958 251.833,234.894 253.063,234.012 254.028,233.271 256.005,231.879 256.929,231.273 
			258.2,230.256 259.783,229.187 261.102,228.258 262.243,227.423 262.944,226.824 264.35,225.848 265.097,225.337 265.757,224.873 
			266.986,223.991 267.775,223.344 269.27,222.322 270.235,221.581 271.641,220.606 272.695,219.818 273.925,218.936 
			275.155,218.055 275.943,217.408 276.514,216.991 278.227,215.739 280.775,213.929 281.387,213.376 282.134,212.865 
			283.759,211.66 284.724,210.92 285.206,210.549 286.742,209.391 288.231,208.145 289.414,207.175 289.72,206.899 290.468,206.388 
			291.168,205.788 292.528,204.724 293.187,204.26 293.758,203.843 295.117,202.779 298.236,200.551 298.942,200.175 
			299.248,199.899 302.679,197.619 303.25,197.201 304.221,196.684 305.892,195.568 307.434,194.633 307.787,194.445 
			309.77,193.276 311.971,191.877 312.236,191.736 313.383,191.125 315.319,189.868 316.202,189.398 317.126,188.792 319.903,187.2 
			321.315,186.448 322.021,186.072 324.669,184.661 325.111,184.426 327.052,183.392 328.906,182.405 332.219,180.754 
			332.572,180.566 334.072,179.767 336.938,178.128 337.114,178.034 337.291,177.94 338.438,177.329 341.569,175.548 
			342.099,175.266 343.552,174.379 345.623,173.162 345.8,173.068 346.9,172.369 349.189,170.923 350.025,170.365 350.949,169.76 
			351.52,169.343 352.973,168.455 354.338,167.615 354.603,167.474 356.275,166.357 357.551,165.564 359.888,164.206 
			361.076,163.46 362.353,162.667 362.748,162.343 364.554,161.268 365.696,160.434 367.014,159.505 367.632,159.176 
			368.991,158.112 369.562,157.695 370.133,157.277 371.098,156.537 371.275,156.443 374.57,154.121 374.876,153.845 
			375.535,153.381 376.636,152.681 378.966,151.1 379.054,151.053 379.143,151.006 379.802,150.542 380.731,150.16 383.991,148.198 
			383.991,148.198 388.305,145.447 388.393,145.4 388.699,145.124 389.888,144.378 390.941,143.59 391.73,142.943 392.566,142.385 
			393.089,141.88 396.727,138.923 396.991,138.782 397.297,138.506 398.486,137.759 399.539,136.972 400.287,136.46 
			401.075,135.814 401.735,135.35 405.289,132.663 406.078,132.017 408.402,130.212 409.368,129.472 409.497,129.29 
			409.938,129.055 410.333,128.731 413.799,126.092 414.676,125.399 417.001,123.594 417.442,123.359 418.054,122.807 
			418.584,122.525 419.066,122.154 422.326,120.192 423.733,119.216 426.551,117.488 426.993,117.253 428.399,116.278 
			428.487,116.231 428.487,116.231 430.247,115.067 430.865,114.738 433.154,113.292 435.09,112.035 436.414,111.329 
			437.909,110.307 438.615,109.931 439.274,109.467 439.803,109.184 440.816,108.532 442.71,107.41 443.24,107.128 443.505,106.987 
			445.494,106.041 447.7,104.866 447.788,104.819 447.788,104.819 451.907,103.192 452.619,103.039 453.46,102.705 456.208,101.694 
			457.449,101.26 459.003,100.773 460.597,100.15 462.374,99.657 465.122,98.647 465.21,98.6 465.61,98.5 469.07,97.338 
			469.693,97.232 470.711,96.803 473.688,96.011 476.306,95.183 477.683,94.79 480.972,93.945 481.595,93.839 484.666,93.224 
			486.931,92.584 487.155,92.578 489.337,92.209 490.543,92.133 491.614,92.016 493.132,91.888 494.067,91.729 495.855,91.683 
			499.062,91.109 499.42,91.144 499.644,91.139 500.132,90.992 503.168,90.735 504.903,90.377 506.821,90.149 509.133,89.597 
			510.38,89.386 511.669,89.04 513.669,88.541 514.604,88.383 516.069,87.943 518.823,87.156 519.888,86.816 521.441,86.328 
			522.371,85.947 524.189,85.318 524.853,85.077 525.383,84.795 527.378,84.073 529.102,83.268 530.208,82.792 530.696,82.646 
			531.226,82.364 533.703,81.271 534.368,81.03 534.544,80.936 537.416,79.52 538.081,79.28 538.787,78.904 539.981,78.381 
			542.276,77.159 544.347,75.942 545.23,75.472 545.806,75.278 547.442,74.521 548.06,74.192 549.078,73.763 549.872,73.34 
			551.29,72.811 552.579,72.465 554.168,71.619 555.544,71.226 557.274,70.644 560.069,69.722 561.045,69.429 561.622,69.235 
			564.252,68.854 565.099,68.743 565.322,68.737 568.722,68.739 569.799,68.846 572.622,69.042 572.846,69.036 575.186,69.602 
			576.31,69.797 578.915,70.222 579.139,70.216 579.274,70.258 581.839,70.818 583.903,71.078 586.144,71.244 587.444,71.345 
			588.832,71.399 589.326,71.476 590.626,71.576 592.379,71.889 593.861,72.119 595.208,72.309 597.455,72.698 600.337,73.429 
			600.425,73.382 600.561,73.424 602.866,74.348 604.136,75.032 606.653,75.504 606.742,75.457 609.812,76.541 609.859,76.629 
			609.859,76.629 610.129,76.712 613.105,77.619 613.87,77.779 615.54,78.362 616.575,78.604 618.022,79.193 619.198,79.7 
			621.227,80.318 621.497,80.401 623.574,81.108 623.979,81.232 625.738,81.768 627.002,82.228 630.655,83.342 630.655,83.342 
			630.655,83.342 630.655,83.342 633.724,84.426 634.807,84.756 637.247,85.722 637.518,85.805 637.924,85.929 640.229,86.854 
			641.629,87.354 644.11,88.185 644.381,88.268 645.057,88.474 647.316,89.311 647.857,89.476 648.621,89.635 650.021,90.136 
			651.55,90.455 652.227,90.661 653.079,90.773 654.832,91.086 656.985,91.299 657.479,91.376 660.167,91.53 660.255,91.483 
			662.714,91.42 664.591,91.327 665.35,91.263 667.044,91.04 669.091,90.63 669.715,90.524 672.074,90.061 672.739,89.82 
			674.651,89.369 675.981,88.887 677.752,88.171 679.04,87.824 679.617,87.63 680.24,87.525 680.905,87.284 681.258,87.096 
			681.882,86.991 683.035,86.603 683.523,86.456 684.282,86.392 685.312,86.41 685.853,86.575 686.388,86.517 686.923,86.458 
			687.011,86.411 687.282,86.494 688.911,87.213 689.593,87.642 690.858,88.102 691.54,88.532 692.31,88.915 693.809,89.816 
			694.944,90.457 696.756,91.306 697.026,91.388 697.161,91.429 699.514,92.443 700.19,92.649 701.46,93.332 702.095,93.674 
			703.724,94.392 706.077,95.405 706.665,95.659 709.152,96.713 709.787,97.055 711.099,97.603 712.64,98.368 715.715,99.676 
			716.168,99.888 716.303,99.929 716.574,100.012 720.014,101.579 721.102,102.132 721.825,102.427 722.96,103.069 724.054,103.846 
			725.553,104.747 726.465,105.394 727.741,106.301 728.246,106.825 729.34,107.602 731.309,109.385 733.237,111.304 
			734.066,112.222 735.412,114.112 736.435,115.606 736.717,116.136 737.51,117.413 738.591,119.443 739.014,120.237 		">
		</polygon>
		<polygon slic3r:type="hole" style="stroke:#000000;stroke-miterlimit:10;" points="660.252,202.742 660.252,202.742 
			659.482,202.359 659.17,202.412 658.723,202.424 658.235,202.57 657.923,202.623 657.747,202.717 657.217,202.999 
			656.687,203.281 656.334,203.469 655.504,204.251 655.11,204.574 654.892,204.804 654.156,205.762 654.115,205.897 
			653.986,206.08 653.732,206.668 653.65,206.938 653.708,207.474 653.714,207.697 653.808,207.874 654.084,208.18 654.225,208.444 
			654.861,208.786 655.084,208.78 655.308,208.775 655.937,208.893 656.16,208.887 656.337,208.793 657.314,208.499 
			657.578,208.358 658.285,207.982 658.855,207.565 659.467,207.012 659.815,206.601 660.68,205.46 660.68,205.46 660.768,205.413 
			660.721,205.325 660.963,204.29 661.04,203.796 661.04,203.796 660.805,203.354 		">
		</polygon>
	</g>
</g>
<g id="Layer_1">
</g>
</svg>
