<?xml version="1.0" encoding="iso-8859-1"?>
<!-- Generator: Adobe Illustrator 19.2.1, SVG Export Plug-In . SVG Version: 6.00 Build 0)  -->
<svg version="1.1" xmlns="http://www.w3.org/2000/svg" xmlns:xlink="http://www.w3.org/1999/xlink" x="0px" y="0px"
	 viewBox="0 0 841.89 595.28" style="enable-background:new 0 0 841.89 595.28;" xml:space="preserve">
<g id="layer220">
	<g id="layer220_1_" slic3r:z="8.82000000000007e-005">
		<polygon slic3r:type="contour" style="fill:#FFFFFF;stroke:#000000;stroke-miterlimit:10;" points="753.691,216.087 
			754.82,218.206 755.301,219.535 755.706,221.359 755.699,222.836 755.798,224.936 755.65,226.147 755.467,227.718 754.735,230.6 
			754.659,231.094 754.576,231.364 754.458,231.994 753.156,235.293 752.65,236.469 751.554,239.092 751.254,239.592 
			750.953,240.092 749.634,242.72 748.444,245.167 748.185,245.531 748.014,245.849 746.678,247.807 746.289,248.353 
			745.86,249.036 744.482,251.129 744.394,251.176 743.917,251.77 742.745,253.187 742.569,253.281 740.126,255.714 739.69,256.173 
			738.861,256.955 737.984,257.648 736.889,258.571 734.476,260.423 734.347,260.605 733.511,261.163 730.963,262.974 
			730.61,263.162 730.304,263.438 727.002,265.536 726.561,265.771 725.637,266.376 723.389,267.687 721.889,268.486 
			720.43,269.149 718.441,270.095 717.335,270.571 715.787,271.282 714.016,271.999 712.686,272.48 710.957,273.061 709.45,273.637 
			709.315,273.596 707.674,274.13 706.474,274.429 704.073,275.028 702.385,275.474 700.961,275.779 699.137,276.184 
			697.625,276.536 696.602,276.741 694.466,277.198 692.554,277.65 690.73,278.055 688.153,278.747 687.753,278.847 
			685.312,279.581 684.111,279.88 682.205,280.556 679.41,281.477 679.187,281.483 679.099,281.53 676.216,282.499 674.533,283.169 
			673.162,283.785 671.656,284.361 668.514,285.694 668.337,285.788 668.161,285.882 665.154,287.257 663.124,288.338 
			662.153,288.855 661.005,289.466 659.152,290.453 658.052,291.153 657.039,291.805 656.068,292.322 655.892,292.416 
			654.786,292.892 651.349,294.949 651.349,294.949 647.777,296.964 646.677,297.663 646.283,297.987 645.312,298.504 
			643.77,299.438 643.152,299.767 642.976,299.861 642.228,300.372 640.022,301.548 638.656,302.388 637.421,303.046 
			636.409,303.698 634.732,304.591 632.307,305.996 632.042,306.137 631.866,306.231 629.571,307.453 627.1,308.769 627.1,308.769 
			627.011,308.816 623.963,310.326 622.463,311.125 621.845,311.454 620.298,312.165 617.026,313.681 616.938,313.728 
			616.938,313.728 613.843,315.149 612.119,315.954 610.836,316.524 609.418,317.052 607.735,317.722 605.17,318.862 
			604.946,318.867 604.77,318.961 602.158,320.013 599.986,320.829 598.48,321.405 596.044,322.362 594.715,322.844 
			593.785,323.225 590.949,324.282 588.154,325.204 587.225,325.586 584.742,326.455 583.589,326.843 583.189,326.942 
			579.552,328.199 578.841,328.352 577.376,328.792 575.511,329.332 573.246,329.972 573.069,330.066 572.757,330.118 
			570.092,330.858 569.292,331.057 567.068,331.562 565.644,331.867 564.532,332.119 561.815,332.547 560.703,332.799 
			556.026,333.591 555.802,333.596 555.714,333.643 555.49,333.649 551.296,334.07 548.219,334.462 548.084,334.421 
			547.996,334.468 545.137,334.631 542.054,334.8 541.831,334.805 541.519,334.858 538.078,334.991 536.425,335.079 534.995,335.16 
			532.937,335.124 531.419,335.252 529.719,335.251 526.407,335.202 526.095,335.255 525.825,335.172 521.484,335.105 
			521.037,335.116 520.407,334.998 517.672,334.755 516.772,334.555 515.784,334.401 513.719,334.141 511.696,333.746 
			509.449,333.356 508.638,333.109 506.932,332.884 505.315,332.613 504.685,332.495 503.609,332.388 501.497,332.04 
			499.433,331.78 498.445,331.626 495.662,331.295 495.304,331.259 492.88,330.964 491.669,330.816 489.692,330.509 
			488.839,330.397 485.698,330.03 484.981,329.959 484.352,329.841 482.916,329.699 480.805,329.351 477.846,329.114 
			477.799,329.025 477.44,328.99 474.793,328.7 473.493,328.599 471.699,328.422 470.8,328.221 469.094,327.996 468.153,327.931 
			467.476,327.725 465.635,327.459 464.377,327.223 463.253,327.028 460.013,326.262 459.742,326.179 459.518,326.185 
			455.46,324.947 455.46,324.947 455.372,324.994 455.372,324.994 454.919,324.782 450.897,323.185 450.579,323.015 
			449.674,322.591 446.957,321.318 446.004,320.806 443.828,319.699 443.099,319.181 441.735,318.321 440.189,317.332 
			439.142,316.643 437.819,315.648 436.043,314.441 435.679,314.182 435.085,313.705 433.674,312.757 432.945,312.239 
			431.445,311.338 429.852,310.261 428.987,309.701 427.67,308.93 425.9,307.947 424.947,307.434 423.224,306.539 422.407,306.068 
			422.137,305.986 419.784,304.972 419.061,304.678 418.432,304.56 416.361,304.076 415.373,303.923 412.95,303.627 
			412.773,303.721 410.22,303.608 407.497,303.812 407.361,303.771 405.308,303.958 404.061,304.169 403.926,304.127 
			401.255,304.643 399.031,305.148 397.919,305.4 395.654,306.04 394.101,306.527 393.389,306.68 390.288,307.878 389.223,308.218 
			387.676,308.929 385.464,309.881 382.416,311.391 381.927,311.538 379.456,312.854 378.397,313.418 378.22,313.512 
			378.044,313.606 375.308,315.063 374.954,315.251 372.571,316.52 371.777,316.943 371.071,317.319 368.688,318.588 
			367.805,319.058 365.734,320.275 363.839,321.397 362.427,322.149 360.049,323.642 359.696,323.83 359.214,324.2 356.972,325.734 
			355.783,326.48 354.07,327.732 353.017,328.52 351.658,329.584 350.998,330.048 349.551,331.159 348.497,331.947 347.885,332.499 
			345.514,334.215 343.489,335.52 342.259,336.402 339.841,338.03 339.046,338.453 338.652,338.776 338.211,339.011 
			337.463,339.522 334.556,341.297 332.62,342.555 330.866,343.942 328.807,345.605 328.194,346.158 325.699,348.28 
			325.611,348.327 322.462,351.137 322.244,351.366 321.897,351.777 319.454,354.211 318.495,355.175 317.753,355.91 
			316.576,357.104 315.881,357.927 314.58,359.526 313.668,360.578 312.761,361.854 311.29,363.771 309.311,366.864 
			309.011,367.364 308.363,368.275 306.426,371.233 305.702,372.638 304.03,375.455 303.688,376.09 303.559,376.272 
			301.939,379.401 301.297,380.536 300.408,382.482 299.86,383.793 299.394,384.834 298.475,387.363 298.057,388.492 
			297.061,391.515 296.978,391.786 296.648,392.868 295.988,395.032 295.735,395.62 294.992,398.055 294.615,399.049 
			294.079,400.808 293.448,402.39 293.154,403.113 292.353,405.012 292.058,405.736 291.887,406.053 290.957,408.135 
			290.362,409.358 289.814,410.67 289.007,412.346 288.713,413.069 288.247,414.11 287.564,415.38 286.633,417.462 286.374,417.826 
			286.08,418.55 285.055,420.455 284.378,421.949 284.042,422.807 283.494,424.119 282.775,425.748 281.762,428.1 281.721,428.235 
			281.468,428.823 280.755,430.676 280.501,431.264 279.742,433.028 279.37,434.246 278.775,435.469 277.85,437.774 
			277.638,438.227 276.926,440.08 276.755,440.397 275.706,443.108 275.541,443.649 275.123,444.778 274.492,446.36 
			273.667,449.066 273.496,449.383 273.243,449.971 272.536,452.047 271.823,453.9 271.693,454.082 271.093,455.082 
			269.079,458.534 268.82,458.898 268.649,459.216 268.09,460.08 267.266,461.085 266.106,462.949 265.847,463.314 265.158,464.361 
			263.698,466.724 263.438,467.089 263.268,467.406 263.138,467.589 261.578,469.553 260.195,471.422 259.977,471.652 
			259.671,471.928 259.371,472.428 259.023,472.839 257.157,475.079 256.592,475.72 255.85,476.455 255.032,477.684 
			254.031,478.783 253.207,479.789 252.601,480.565 250.859,482.399 250.641,482.628 250.117,483.134 249.593,483.639 
			248.286,485.015 246.933,486.302 246.368,486.943 245.844,487.449 244.054,489.195 242.047,491.17 242.047,491.17 
			240.511,492.328 238.534,493.721 238.358,493.815 237.875,494.185 235.274,495.684 233.161,497.035 232.367,497.458 
			230.249,498.586 229.849,498.686 228.831,499.115 227.148,499.785 226.13,500.213 223.959,501.03 221.876,501.799 
			220.458,502.328 216.822,503.584 216.822,503.584 216.822,503.584 216.822,503.584 213.227,504.705 212.251,504.999 
			209.627,505.603 207.762,506.143 206.25,506.495 204.914,506.753 202.155,507.316 199.708,507.827 199.531,507.921 
			196.59,508.354 195.878,508.507 193.96,508.735 192.578,508.905 192.042,508.963 190.66,509.133 189.813,509.244 188.072,509.378 
			186.554,509.507 185.707,509.618 183.965,509.752 182.089,509.845 180.389,509.844 178.736,509.932 175.606,510.012 
			175.559,509.924 175.471,509.971 172.43,510.004 170.954,509.997 168.671,509.967 168.177,509.89 166.565,509.842 
			166.118,509.853 165.983,509.812 164.324,509.676 161.724,509.474 161.23,509.397 161.007,509.403 157.284,509.007 
			156.925,508.971 156.342,508.941 154.413,508.723 152.349,508.463 151.855,508.386 151.449,508.262 148.349,507.76 
			147.767,507.73 145.249,507.258 144.844,507.134 142.773,506.651 141.379,506.373 139.397,505.843 138.139,505.607 
			136.427,505.159 135.392,504.917 134.039,504.504 132.416,504.009 130.834,503.379 130.022,503.131 127.676,502.342 
			127.088,502.088 126.682,501.965 124.965,501.293 123.653,500.745 122.207,500.156 121.483,499.861 121.077,499.738 
			119.49,498.884 118.449,498.418 117.314,497.776 115.726,496.923 115.179,496.534 114.633,496.145 113.127,495.021 
			111.898,494.203 110.299,492.902 107.648,490.688 107.371,490.382 107.189,490.253 104.344,487.463 103.973,486.98 
			103.327,486.191 100.652,483.084 97.29,479.323 96.373,478.452 93.704,475.568 93.057,474.779 92.646,474.432 90.112,471.589 
			88.049,469.629 86.391,467.793 85.38,466.745 83.634,464.956 82.758,463.95 81.647,462.502 81.23,461.931 80.854,461.225 
			80.055,459.724 78.868,457.071 78.727,456.806 78.627,456.406 77.623,453.882 76.948,451.975 76.895,451.664 76.69,450.64 
			76.338,449.128 76.191,448.64 75.869,446.545 75.64,444.628 75.523,443.557 75.289,441.416 75.178,440.568 75.167,440.121 
			75.009,437.486 74.922,435.833 74.882,434.268 74.93,432.657 74.873,430.421 74.892,427.692 74.904,426.439 75.07,424.198 
			75.107,422.139 75.249,420.704 75.421,418.686 75.617,415.863 75.735,415.234 75.888,414.245 76.119,412.763 76.272,411.775 
			76.549,410.381 76.78,408.899 77.063,407.728 77.305,406.693 77.753,404.982 78.448,402.459 78.49,402.323 78.49,402.323 
			79.144,399.936 79.81,397.995 79.939,397.813 79.981,397.677 80.906,395.372 81.866,392.708 82.037,392.39 82.202,391.849 
			83.127,389.544 83.374,388.732 84.435,386.468 84.517,386.198 84.77,385.61 85.748,383.616 86.001,383.028 86.85,381.217 
			87.533,379.947 87.963,379.264 88.563,378.265 89.164,377.265 89.723,376.401 91.354,373.719 91.784,373.037 92.52,372.079 
			93.644,370.574 95.058,368.122 95.493,367.663 95.664,367.346 97.312,365.335 97.919,364.559 98.048,364.376 99.955,362.001 
			101.256,360.402 101.863,359.626 103.428,357.886 103.994,357.245 104.211,357.016 104.341,356.833 104.776,356.375 
			106.43,354.587 107.302,353.67 107.955,352.983 108.349,352.659 109.397,351.648 110.792,350.225 111.793,349.126 112.84,348.115 
			113.629,347.468 115.2,345.952 115.86,345.487 117.043,344.517 118.355,343.365 119.667,342.213 121.292,341.008 123.44,339.298 
			123.746,339.022 124.841,338.099 125.982,337.264 126.288,336.988 128.048,335.824 128.795,335.313 130.378,334.243 
			131.961,333.174 133.191,332.292 134.645,331.405 135.039,331.081 136.934,329.959 138.122,329.213 139.841,328.184 
			140.853,327.532 142.748,326.41 143.407,325.945 145.478,324.729 146.184,324.353 147.902,323.324 149.797,322.202 
			151.957,320.939 153.322,320.098 156.141,318.371 156.8,317.906 157.418,317.577 159.883,316.038 160.678,315.615 
			160.943,315.474 163.761,313.746 164.644,313.276 165.833,312.53 167.863,311.448 171.034,309.533 171.741,309.157 175.177,307.1 
			175.442,306.959 178.349,305.184 180.856,303.509 181.385,303.227 184.027,301.594 185.875,300.383 187.77,299.261 
			190.895,297.257 191.336,297.022 192.525,296.275 194.902,294.783 195.561,294.318 196.75,293.572 198.468,292.543 
			201.063,290.822 201.811,290.31 204.271,288.547 204.271,288.547 206.519,287.237 207.572,286.449 209.726,284.962 
			209.814,284.915 209.944,284.733 211.75,283.657 212.762,283.005 213.951,282.259 214.875,281.653 216.634,280.49 
			217.729,279.567 218.918,278.821 220.236,277.892 221.419,276.922 222.519,276.223 223.485,275.482 224.714,274.601 
			226.562,273.39 226.739,273.296 226.78,273.161 229.24,271.398 229.723,271.027 231.3,269.734 232.83,268.353 233.224,268.029 
			234.631,267.054 235.29,266.589 235.466,266.495 236.691,265.39 237.744,264.603 237.874,264.42 239.716,262.986 241.205,261.74 
			241.646,261.505 243.877,259.524 244.141,259.383 244.141,259.383 244.141,259.383 246.513,257.667 247.172,257.203 
			248.443,256.186 249.456,255.533 250.509,254.746 252.522,252.994 252.61,252.947 252.61,252.947 255.023,251.096 
			255.241,250.866 256.953,249.614 258.436,248.145 258.831,247.821 259.837,246.946 260.891,246.158 261.285,245.835 
			263.386,244.036 263.651,243.895 265.446,242.372 266.847,241.173 267.635,240.527 268.859,239.422 269.913,238.634 
			270.307,238.311 271.884,237.018 272.632,236.506 273.95,235.578 275.745,234.055 276.139,233.732 277.016,233.038 
			278.334,232.11 279.87,230.952 281.142,229.935 282.501,228.871 284.078,227.578 284.296,227.349 285.085,226.702 
			286.403,225.773 287.015,225.221 288.769,223.834 289.952,222.864 291.047,221.941 292.753,220.466 293.059,220.189 
			293.672,219.637 295.249,218.344 295.69,218.109 297.179,216.862 298.845,215.522 299.592,215.011 301.304,213.759 
			301.434,213.577 301.828,213.253 303.323,212.231 303.982,211.767 305.606,210.562 307.537,209.08 308.372,208.522 
			309.602,207.641 309.997,207.317 311.18,206.347 312.103,205.742 312.368,205.601 312.763,205.278 314.346,204.208 
			316.099,202.821 317.241,201.986 317.812,201.569 318.559,201.058 320.978,199.43 321.284,199.154 321.725,198.919 
			322.826,198.219 324.056,197.338 324.85,196.915 326.298,195.804 327.045,195.292 327.575,195.01 331,192.507 331.088,192.46 
			331.353,192.318 332.406,191.531 334.301,190.409 335.307,189.533 335.572,189.392 335.749,189.298 337.467,188.269 
			339.574,186.694 339.839,186.553 342.081,185.019 344.017,183.761 344.635,183.432 347.142,181.758 347.842,181.158 
			348.283,180.923 349.072,180.276 350.172,179.577 351.049,178.883 352.191,178.049 352.544,177.861 352.674,177.679 
			352.762,177.632 356.805,174.799 357.946,173.964 359.265,173.035 359.965,172.436 361.107,171.601 361.454,171.19 
			362.29,170.631 365.232,168.498 366.68,167.387 367.998,166.458 368.61,165.906 369.534,165.301 370.587,164.513 370.893,164.237 
			370.982,164.19 371.07,164.143 373.836,162.103 375.325,160.857 376.684,159.793 377.867,158.823 378.085,158.594 
			378.874,157.947 379.268,157.624 379.486,157.395 382.381,155.173 383.694,154.021 384.7,153.145 386.407,151.67 386.625,151.44 
			386.713,151.393 386.931,151.164 387.808,150.47 390.874,147.931 391.88,147.055 392.41,146.773 392.804,146.45 394.117,145.298 
			395.17,144.51 396.047,143.817 396.265,143.587 398.589,141.783 399.419,141.001 400.296,140.308 400.867,139.89 402.268,138.691 
			403.674,137.715 404.728,136.928 405.034,136.652 407.141,135.076 408.018,134.383 408.894,133.689 409.465,133.272 
			410.866,132.073 412.184,131.144 413.326,130.31 415.656,128.729 416.445,128.082 417.675,127.2 418.293,126.871 420.576,125.202 
			420.753,125.108 420.753,125.108 420.841,125.061 422.247,124.086 424.713,122.546 424.931,122.317 425.372,122.082 
			426.914,121.147 427.22,120.871 427.573,120.683 429.203,119.702 431.669,118.162 432.463,117.739 433.475,117.087 
			434.799,116.381 436.564,115.441 437.712,114.83 441.507,112.809 441.684,112.715 441.86,112.621 442.966,112.145 
			446.103,110.588 446.944,110.254 448.668,109.449 450.351,108.779 452.122,108.063 452.298,107.969 452.387,107.922 
			454.734,107.011 455.84,106.535 457.835,105.813 458.853,105.384 459.829,105.091 462.224,104.269 463.377,103.881 
			463.954,103.687 465.419,103.247 466.796,102.854 467.949,102.466 470.614,101.727 471.367,101.439 471.991,101.334 
			474.921,100.453 475.809,100.206 477.897,99.661 478.521,99.555 480.345,99.15 481.945,98.751 483.281,98.493 484.751,98.277 
			486.534,98.007 489.964,97.427 490.14,97.333 490.364,97.327 492.993,96.946 495.135,96.712 496.382,96.501 497.764,96.332 
			500.129,96.092 501.735,95.916 503.876,95.682 505.394,95.554 508.741,95.244 508.741,95.244 509.1,95.28 511.912,95.028 
			512.047,95.07 515.089,95.036 516.206,95.007 518.177,95.091 518.983,95.115 520.418,95.257 521.047,95.375 524.594,95.866 
			524.641,95.954 524.729,95.907 528.011,96.538 529.223,96.686 531.928,97.511 535.175,98.501 535.445,98.584 536.033,98.837 
			538.245,99.586 540.097,100.298 540.909,100.546 541.861,101.058 543.896,101.901 545.213,102.672 545.984,103.055 
			547.571,103.909 548.159,104.162 548.565,104.286 551.017,105.699 551.423,105.823 553.823,106.924 554.728,107.349 
			556.539,108.197 557.445,108.621 558.398,109.133 559.662,109.593 561.021,110.229 561.021,110.229 562.785,110.989 
			562.92,111.03 564.996,111.737 566.266,112.42 568.765,113.922 569.265,114.222 572.253,115.577 572.617,115.836 572.982,116.095 
			575.657,117.502 576.839,118.233 577.339,118.533 578.65,119.081 581.014,120.541 581.879,121.1 582.425,121.489 585.513,123.244 
			587.794,124.975 588.882,125.528 589.746,126.088 592.069,127.683 593.48,128.631 594.574,129.408 596.532,130.745 
			596.943,131.092 598.584,132.258 598.948,132.517 600.818,133.9 601.229,134.247 602.782,135.46 603.24,135.896 604.975,137.238 
			605.48,137.762 606.803,138.757 607.397,139.234 609.272,140.841 609.684,141.188 610.278,141.665 611.283,142.489 
			612.882,143.79 613.018,143.831 615.211,145.609 615.211,145.609 617.445,147.251 618.403,147.987 619.726,148.982 
			620.82,149.759 623.101,151.49 624.336,152.532 625.888,153.745 627.258,154.828 629.316,156.565 630.78,157.824 632.702,159.52 
			634.583,161.35 635.689,162.574 638.081,165.152 638.404,165.547 641.038,168.789 641.502,169.448 642.613,170.896 
			644.053,172.962 644.658,173.886 646.38,176.481 646.897,177.452 647.926,179.17 648.02,179.347 649.33,181.594 649.471,181.859 
			649.659,182.212 650.881,184.507 651.404,185.702 652.438,187.643 652.72,188.173 653.625,190.297 653.672,190.385 
			654.524,192.198 655.375,194.01 655.757,194.939 656.521,196.799 657.185,198.258 657.185,198.258 657.807,199.853 
			658.001,200.429 658.488,201.982 658.829,203.047 659.609,205.577 660.103,207.354 660.742,209.619 661.183,211.084 
			661.576,212.461 661.887,214.108 662.033,214.596 662.38,215.885 662.538,216.82 662.679,217.085 663.184,219.309 663.53,220.597 
			663.929,222.197 664.269,223.262 665.086,225.433 665.42,226.275 666.079,227.51 666.366,228.264 667.624,230.2 667.671,230.288 
			667.671,230.288 669.37,231.989 670.281,232.637 670.963,233.066 672.322,233.703 672.998,233.909 673.269,233.991 
			675.516,234.381 675.833,234.552 676.145,234.499 677.974,234.318 679.404,234.236 679.757,234.048 682.063,233.273 
			682.552,233.126 682.64,233.079 684.717,232.087 685.947,231.205 687.571,230 687.612,229.865 689.584,228.248 689.849,228.107 
			690.155,227.831 692.474,225.803 693.345,224.886 693.957,224.333 694.699,223.599 695.399,222.999 697.064,221.659 
			697.983,220.83 698.771,220.183 699.472,219.584 701.884,217.732 702.061,217.638 702.061,217.638 702.102,217.503 
			703.991,216.157 704.827,215.599 705.445,215.27 706.369,214.664 707.604,214.006 708.799,213.484 710.082,212.914 
			711.011,212.532 712.829,211.904 713.494,211.663 714.159,211.422 716.247,210.876 717.583,210.618 719.007,210.313 
			721.454,209.803 721.854,209.703 722.078,209.698 724.531,209.411 726.272,209.277 726.496,209.271 727.031,209.212 
			728.643,209.26 729.001,209.296 730.525,209.391 733.213,209.545 733.931,209.617 735.142,209.764 736.936,209.942 
			739.048,210.29 740.307,210.526 741.477,210.809 744.218,211.276 745.794,211.683 748.088,212.16 748.629,212.325 
			749.488,212.661 750.799,213.209 752.263,214.469 753.086,215.163 753.315,215.381 		">
		</polygon>
	</g>
</g>
<g id="Layer_1">
</g>
</svg>
