<?xml version="1.0" encoding="iso-8859-1"?>
<!-- Generator: Adobe Illustrator 19.2.1, SVG Export Plug-In . SVG Version: 6.00 Build 0)  -->
<svg version="1.1" xmlns="http://www.w3.org/2000/svg" xmlns:xlink="http://www.w3.org/1999/xlink" x="0px" y="0px"
	 viewBox="0 0 841.89 595.28" style="enable-background:new 0 0 841.89 595.28;" xml:space="preserve">
<g id="layer260">
	<g id="layer260_1_" slic3r:z="0.000104200000000001">
		<polygon slic3r:type="contour" style="fill:#FFFFFF;stroke:#000000;stroke-miterlimit:10;" points="739.705,115.791 
			740.275,117.073 740.657,118.003 741.426,120.086 741.867,121.551 742.459,123.728 742.459,123.728 742.506,123.816 
			742.699,126.092 742.974,128.098 743.097,129.393 743.331,131.534 743.343,131.981 743.36,132.652 743.365,134.575 
			743.429,135.334 743.163,137.175 743.145,138.204 742.462,139.475 742.379,139.745 741.354,141.65 741.184,141.968 
			740.878,142.244 738.711,144.984 737.881,145.766 735.833,147.876 735.356,148.47 734.873,148.841 733.608,150.081 
			732.654,151.269 730.783,153.285 730.57,153.738 729.923,154.649 729.364,155.514 729.257,156.59 729.41,157.302 729.974,158.361 
			731.467,159.039 732.555,159.592 735.073,160.064 735.749,160.271 739.207,160.808 739.795,161.061 740.966,161.344 
			742.319,161.757 742.813,161.834 744.665,162.547 745.612,162.835 746.788,163.342 748.329,164.108 749.423,164.885 
			750.74,165.656 752.656,167.128 753.156,167.428 753.386,167.646 753.979,168.123 756.172,169.901 756.907,170.642 
			758.33,172.037 759.253,173.132 760.869,175.103 761.193,175.498 761.469,175.804 763.232,178.264 763.514,178.793 
			765.324,181.341 765.418,181.518 765.465,181.606 765.93,182.265 767.334,184.69 767.616,185.219 768.327,186.767 
			769.231,188.891 769.419,189.244 769.378,189.379 769.472,189.556 770.676,192.88 770.923,193.768 771.233,195.416 
			771.386,196.128 771.444,196.663 771.32,198.769 771.348,199.886 771.354,200.11 771.277,200.604 770.841,202.762 
			770.422,203.892 769.827,205.115 769.056,206.432 767.643,208.884 767.425,209.113 767.166,209.478 765.565,211.577 
			763.787,213.77 763.44,214.182 763.045,214.505 760.903,216.439 760.379,216.944 759.72,217.409 757.613,218.984 757.525,219.031 
			755.677,220.242 755.501,220.336 753.694,221.411 752.017,222.304 751.223,222.727 750.163,223.291 749.193,223.808 
			746.986,224.983 746.809,225.077 746.809,225.077 743.761,226.587 741.908,227.574 739.837,228.791 738.383,229.678 
			736.053,231.259 735.088,232 733.64,233.11 733.116,233.616 731.627,234.862 730.144,236.332 729.314,237.114 727.613,238.813 
			726.918,239.636 726.7,239.865 725.7,240.964 724.087,242.616 723.392,243.44 721.65,245.274 719.737,247.426 719.478,247.79 
			717.082,250.312 715.558,251.917 713.904,253.704 711.85,255.591 711.632,255.821 710.102,257.202 708.789,258.354 
			708.748,258.489 704.275,262.004 703.969,262.281 703.704,262.422 703.222,262.792 699.708,265.343 697.16,267.153 
			696.06,267.852 695.489,268.27 691.664,270.873 691.358,271.149 690.917,271.384 688.586,272.965 687.574,273.618 
			686.209,274.458 685.903,274.734 684.626,275.528 683.131,276.55 681.766,277.391 680.712,278.178 678.6,279.53 676.534,280.97 
			676.358,281.064 675.169,281.81 673.409,282.974 673.233,283.068 673.015,283.297 670.155,285.16 668.966,285.906 
			666.854,287.258 666.548,287.534 664.435,288.886 663.6,289.444 661.575,290.749 660.387,291.495 658.939,292.606 
			658.368,293.023 657.839,293.305 656.079,294.469 654.714,295.309 653.396,296.238 652.56,296.796 651.283,297.59 
			650.447,298.148 649.435,298.8 647.499,300.058 645.869,301.039 644.68,301.786 644.11,302.203 643.097,302.855 641.691,303.831 
			641.426,303.972 639.049,305.465 639.049,305.465 638.96,305.512 636.277,307.281 635,308.074 633.594,309.05 631.699,310.172 
			631.699,310.172 631.611,310.219 629.321,311.665 628.486,312.223 626.326,313.486 625.361,314.227 625.008,314.415 
			623.819,315.161 622.937,315.631 621.395,316.566 619.812,317.635 619.371,317.87 616.505,319.51 616.417,319.557 
			616.417,319.557 616.417,319.557 616.328,319.604 613.151,321.296 612.045,321.772 611.162,322.242 609.838,322.947 
			609.173,323.188 607.273,324.086 607.096,324.181 605.284,325.032 604.931,325.22 604.931,325.22 602.983,326.031 
			601.436,326.742 600.377,327.306 598.694,327.975 596.923,328.692 596.393,328.974 594.71,329.644 594.357,329.832 
			593.075,330.401 590.862,331.353 589.844,331.782 586.526,333.209 584.184,334.343 582.46,335.148 579.277,336.616 
			578.612,336.857 575.74,338.273 574.505,338.931 573.31,339.454 572.781,339.736 571.104,340.629 570.351,340.917 
			569.203,341.528 568.538,341.769 565.667,343.185 563.366,344.183 561.507,344.947 557.924,346.515 557.394,346.797 
			555.447,347.608 553.099,348.518 552.434,348.759 552.258,348.853 548.892,350.192 546.721,351.008 544.726,351.731 
			541.708,352.658 540.732,352.952 540.555,353.046 539.443,353.298 537.266,353.891 536.29,354.184 534.513,354.677 
			532.248,355.317 529.141,356.292 528.565,356.486 527.365,356.785 524.17,357.806 523.728,358.042 522.128,358.441 
			519.775,359.127 519.598,359.221 516.398,360.019 515.198,360.319 512.35,360.929 511.15,361.228 510.215,361.386 
			509.679,361.445 506.961,361.872 503.261,362.37 502.814,362.382 502.726,362.429 502.591,362.387 498.714,362.979 
			495.596,363.507 494.525,363.624 492.701,364.029 490.342,364.492 489.807,364.55 488.783,364.756 486.201,365.225 
			484.553,365.535 482.059,365.957 481.971,366.004 481.971,366.004 481.971,366.004 479.164,366.479 477.788,366.872 
			476.852,367.031 475.829,367.236 475.382,367.247 473.646,367.605 471.734,368.057 469.51,368.561 469.198,368.614 
			468.798,368.714 466.663,369.171 465.239,369.477 464.127,369.729 462.35,370.222 461.55,370.421 461.062,370.568 458.75,371.12 
			456.926,371.524 455.902,371.73 453.943,372.093 452.696,372.304 451.361,372.562 449.09,372.978 448.731,372.943 
			448.555,373.037 446.102,373.324 444.366,373.681 442.001,373.921 440.172,374.102 437.854,374.43 436.024,374.612 
			435.889,374.57 434.683,374.646 433.659,374.851 432.589,374.968 431.206,375.138 429.736,375.355 427.735,375.854 
			427.735,375.854 425.6,376.311 424.976,376.417 423.511,376.857 421.287,377.362 420.487,377.561 419.687,377.761 
			419.375,377.813 415.728,378.623 415.151,378.817 414.839,378.869 412.486,379.556 410.98,380.132 408.985,380.854 
			408.232,381.142 406.814,381.67 404.555,382.534 403.802,382.821 403.36,383.056 402.607,383.344 399.548,384.407 398.353,384.93 
			397.735,385.259 394.146,386.604 393.882,386.745 393.128,387.033 392.111,387.461 389.986,388.366 386.533,389.752 
			385.691,390.087 382.949,391.321 381.531,391.849 381.09,392.084 377.289,393.882 375.877,394.634 375.259,394.963 
			374.553,395.339 373.847,395.715 373.052,396.138 371.075,397.531 369.886,398.277 368.833,399.065 367.779,399.852 
			366.773,400.728 365.767,401.604 365.155,402.157 364.542,402.709 362.659,404.279 361.523,405.337 360.258,406.577 
			358.821,408.135 358.692,408.318 357.733,409.282 355.943,411.028 355.596,411.439 355.249,411.851 354.766,412.221 
			353.112,414.008 351.717,415.431 351.499,415.66 349.533,417.5 347.662,419.517 347.444,419.746 347.185,420.111 345.613,421.627 
			344.136,423.32 343.306,424.102 343.088,424.332 341.734,425.619 340.598,426.677 340.292,426.953 339.504,427.6 338.762,428.335 
			337.45,429.487 336.314,430.545 336.055,430.91 335.178,431.603 334.477,432.203 334.301,432.297 332.153,434.007 
			331.188,434.748 330.222,435.488 329.034,436.235 327.763,437.252 327.103,437.716 326.403,438.316 325.962,438.551 
			323.372,440.496 322.584,441.143 321.748,441.701 320.389,442.765 318.982,443.74 317.005,445.133 315.51,446.156 
			314.498,446.808 313.839,447.273 313.18,447.737 311.597,448.807 309.972,450.011 309.443,450.293 308.96,450.664 
			308.389,451.081 306.718,452.198 305.488,453.079 304.741,453.591 302.94,454.889 300.963,456.282 300.745,456.512 
			300.48,456.653 298.15,458.234 296.832,459.162 296.479,459.35 294.148,460.931 291.989,462.195 291.771,462.424 287.722,465.033 
			287.151,465.45 286.139,466.103 285.568,466.52 284.603,467.261 283.461,468.095 282.761,468.695 279.071,471.34 278.371,471.939 
			277.359,472.592 276.482,473.285 275.693,473.932 274.946,474.443 274.069,475.137 270.697,477.952 270.479,478.181 
			269.908,478.599 269.208,479.198 268.772,479.657 267.548,480.762 266.412,481.82 266.147,481.961 265.929,482.19 264.27,483.754 
			262.127,485.688 261.909,485.917 261.209,486.517 258.107,489.415 257.407,490.015 257.101,490.291 255.741,491.355 
			254.647,492.278 253.993,492.966 253.599,493.289 249.921,496.381 249.744,496.475 249.262,496.845 248.561,497.445 
			247.596,498.185 246.543,498.973 245.577,499.713 245.054,500.219 241.323,502.999 241.146,503.093 240.752,503.416 
			240.004,503.928 238.686,504.856 237.721,505.597 236.844,506.29 236.403,506.525 234.867,507.683 232.889,509.076 
			232.36,509.358 230.6,510.522 228.841,511.686 228.358,512.056 226.769,512.902 225.581,513.648 222.845,515.105 222.315,515.387 
			220.814,516.187 219.002,517.038 218.561,517.273 217.278,517.843 215.289,518.789 214.713,518.983 213.695,519.412 
			212.189,519.987 209.971,520.715 208.329,521.25 205.799,522.03 203.669,522.711 202.069,523.11 200.516,523.598 199.316,523.897 
			197.668,524.208 195.486,524.577 193.839,524.888 191.968,525.204 190.274,525.427 188.668,525.602 186.126,525.936 
			185.232,525.959 182.197,526.216 181.573,526.321 177.955,526.549 177.643,526.601 174.026,526.829 173.802,526.834 
			173.132,526.852 170.408,527.056 169.602,527.032 167.59,527.084 166.025,527.124 164.82,527.2 162.761,527.163 161.108,527.25 
			160.302,527.226 157.572,527.207 156.767,527.183 154.349,527.111 152.155,527.033 151.079,526.926 148.479,526.725 
			147.314,526.665 145.52,526.488 143.502,526.316 141.303,526.015 140.361,525.949 139.732,525.831 137.397,525.489 
			135.238,525.052 134.697,524.887 131.951,524.197 130.422,523.879 127.175,522.888 127.04,522.847 126.363,522.641 
			124.017,521.851 123.429,521.598 121.347,520.667 120.53,520.196 118.489,519.13 117.536,518.618 114.22,516.645 113.491,516.127 
			110.575,514.055 109.163,513.107 108.799,512.848 105.689,510.199 105.095,509.722 102.714,507.591 102.026,506.938 
			101.291,506.196 99.504,504.542 98.769,503.8 98.311,503.365 95.313,499.863 91.768,495.973 89.922,493.783 88.811,492.336 
			82.769,485.244 81.699,483.661 80.083,481.689 78.836,480.2 77.214,478.005 75.827,476.251 74.205,474.056 72.306,471.555 
			71.148,470.019 69.662,467.865 69.056,466.941 68.404,465.929 67.376,464.211 66.67,462.887 65.924,461.698 65.172,460.286 
			65.072,459.886 64.884,459.533 64.079,457.809 63.504,456.303 62.406,453.602 61.824,451.872 61.29,450.231 60.897,448.854 
			60.339,446.318 60.175,445.159 59.619,440.924 59.613,440.7 59.566,440.612 59.649,440.341 59.551,436.541 59.588,434.483 
			59.694,433.406 59.86,431.165 59.997,429.506 60.15,428.518 60.345,427.395 60.581,426.136 61.094,423.483 61.254,422.719 
			61.419,422.178 62.109,419.431 62.392,418.261 62.84,416.549 63.129,415.602 63.541,414.25 63.907,412.809 64.278,411.591 
			64.649,410.374 65.062,409.021 65.681,406.992 66.058,405.998 66.223,405.457 66.512,404.51 66.971,403.246 68.097,400.041 
			68.05,399.952 68.091,399.817 68.174,399.547 69.481,396.471 69.817,395.612 70.318,394.213 70.489,393.895 71.42,391.813 
			72.262,389.778 72.303,389.643 72.345,389.508 73.829,386.338 74.759,384.256 74.842,383.986 75.867,382.081 76.844,380.087 
			77.015,379.77 78.64,376.865 78.894,376.277 79.324,375.595 80.395,373.778 80.996,372.778 81.679,371.508 82.238,370.643 
			83.269,368.962 83.569,368.462 83.699,368.28 85.33,365.598 85.506,365.504 85.677,365.187 87.231,362.999 88.185,361.812 
			89.003,360.583 90.434,358.801 91.17,357.843 91.735,357.202 93.866,354.821 95.214,353.31 96.52,351.934 98.61,349.689 
			99.175,349.048 101.835,346.385 102.053,346.155 102.053,346.155 105.373,343.028 105.679,342.752 106.332,342.064 
			108.257,340.359 108.869,339.807 109.787,338.978 110.487,338.378 111.582,337.455 112.983,336.256 115.478,334.134 
			115.873,333.811 116.049,333.717 118.721,331.501 119.027,331.225 121.352,329.42 122.317,328.68 124.2,327.11 125.254,326.322 
			126.26,325.447 127.708,324.336 128.891,323.366 129.679,322.719 130.821,321.885 132.357,320.727 134.111,319.34 
			134.858,318.828 135.341,318.458 136.877,317.3 138.236,316.236 139.113,315.543 140.167,314.755 142.45,313.086 143.721,312.069 
			144.774,311.281 145.916,310.447 148.594,308.454 149.341,307.943 150.395,307.155 151.801,306.18 153.472,305.063 
			153.778,304.787 154.173,304.464 156.15,303.071 157.204,302.283 158.216,301.631 159.71,300.608 160.37,300.144 161.599,299.262 
			163.006,298.287 164.983,296.894 165.248,296.753 165.425,296.659 167.578,295.172 169.161,294.102 171.451,292.656 
			172.857,291.681 175.099,290.147 175.805,289.771 176.682,289.077 178.53,287.867 179.366,287.308 180.772,286.333 
			182.09,285.404 183.191,284.705 184.026,284.146 186.533,282.472 186.798,282.331 187.498,281.731 189.829,280.15 190.4,279.733 
			191.235,279.174 193.519,277.505 195.543,276.201 195.672,276.018 197.697,274.714 199.933,272.956 199.933,272.956 
			200.198,272.815 202.175,271.422 202.264,271.375 204.064,270.076 205.424,269.012 206.524,268.313 208.237,267.061 
			208.278,266.926 208.366,266.879 210.52,265.392 210.608,265.345 210.561,265.257 213.374,263.306 215.263,261.96 
			215.746,261.589 217.682,260.332 220.931,257.922 221.019,257.875 221.06,257.74 221.807,257.228 224.444,255.371 224.62,255.277 
			224.838,255.048 227.21,253.332 229.758,251.521 229.887,251.339 229.976,251.292 233.271,248.971 233.313,248.835 
			233.489,248.741 236.343,246.655 239.021,244.662 239.109,244.615 239.197,244.568 242.052,242.482 242.534,242.111 
			242.534,242.111 242.623,242.064 245.388,240.025 246.795,239.049 247.454,238.585 249.078,237.38 249.826,236.869 
			251.232,235.893 252.244,235.241 253.386,234.406 254.31,233.801 254.969,233.337 256.464,232.314 258.088,231.109 
			259.495,230.134 261.472,228.741 262.349,228.047 263.008,227.583 265.468,225.82 266.345,225.126 267.31,224.385 269.417,222.81 
			271.565,221.1 272.395,220.318 273.36,219.577 274.807,218.466 275.726,217.638 276.691,216.897 277.568,216.203 279.498,214.722 
			279.716,214.493 279.892,214.399 282.217,212.594 283.182,211.854 284.147,211.113 285.112,210.373 286.207,209.45 
			288.267,207.786 289.144,207.093 289.974,206.311 291.551,205.018 292.557,204.142 293.258,203.542 294.529,202.525 
			295.1,202.108 295.8,201.509 297.03,200.627 299.049,199.099 300.237,198.352 301.203,197.612 301.95,197.101 303.621,195.984 
			305.339,194.956 306.44,194.256 307.499,193.692 308.293,193.269 309.659,192.429 313.142,190.46 313.672,190.178 
			313.937,190.037 318.126,187.693 318.126,187.693 319.362,187.035 321.522,185.771 322.316,185.348 323.11,184.925 
			325.629,183.697 326.6,183.18 328.188,182.334 329.471,181.764 330.795,181.059 332.207,180.307 333.355,179.696 334.99,178.938 
			335.832,178.604 338.615,177.235 339.233,176.906 339.762,176.624 342.146,175.354 343.422,174.561 343.599,174.467 
			347.742,172.034 348.006,171.893 348.401,171.57 348.666,171.429 350.737,170.213 351.967,169.331 352.714,168.82 
			353.067,168.632 355.092,167.327 356.192,166.628 357.822,165.646 360.423,164.148 362.759,162.791 364.701,161.756 
			365.095,161.433 365.931,160.875 366.637,160.499 367.561,159.893 368.62,159.329 368.885,159.188 372.504,157.261 
			373.074,156.844 376.211,155.287 377.358,154.676 377.446,154.629 377.623,154.535 381.683,152.373 381.86,152.279 
			382.654,151.856 384.507,150.868 385.737,149.987 386.62,149.517 387.503,149.047 388.868,148.206 390.01,147.372 
			391.116,146.896 392.257,146.061 394.282,144.757 394.988,144.381 396.394,143.405 396.924,143.123 397.76,142.565 
			398.548,141.918 399.913,141.078 401.496,140.008 402.203,139.632 402.773,139.215 406.298,137.111 406.475,137.017 
			406.604,136.835 406.957,136.647 408.987,135.566 410.965,134.173 411.141,134.079 411.229,134.032 413.342,132.68 415.49,130.97 
			415.49,130.97 417.338,129.759 419.757,128.131 419.845,128.084 420.11,127.943 422.181,126.727 424.029,125.516 424.382,125.328 
			424.864,124.958 427.548,123.189 428.254,122.813 429.531,122.019 431.078,121.309 432.402,120.604 433.685,120.034 
			434.744,119.47 436.692,118.659 440.187,117.138 440.94,116.85 442.799,116.086 445.106,115.311 445.994,115.065 449.277,113.996 
			452.03,113.21 452.742,113.057 453.184,112.822 453.495,112.769 456.337,111.936 457.402,111.595 457.979,111.401 
			460.067,110.856 460.644,110.662 461.885,110.227 463.703,109.599 464.633,109.217 465.474,108.882 466.892,108.354 
			468.31,107.825 469.105,107.402 471.364,106.539 472.647,105.969 473.753,105.493 474.594,105.159 476.1,104.583 477.342,104.149 
			479.513,103.332 480.931,102.804 482.214,102.234 484.032,101.606 486.738,100.731 487.715,100.437 489.221,99.862 
			491.398,99.269 492.686,98.923 495.087,98.324 498.505,97.297 498.593,97.25 498.77,97.156 501.794,96.452 504.412,95.624 
			505.124,95.471 505.524,95.372 508.548,94.668 510.542,93.945 511.56,93.516 512.843,92.947 513.555,92.794 515.42,92.254 
			516.749,91.773 518.167,91.244 519.538,90.627 519.803,90.486 521.315,90.134 522.645,89.653 524.587,88.618 525.74,88.231 
			528.305,87.091 529.011,86.715 530.694,86.046 532.112,85.517 533.665,85.03 535.883,84.302 536.948,83.961 538.231,83.391 
			540.002,82.675 541.155,82.287 541.955,82.088 545.109,81.202 545.732,81.096 545.956,81.09 546.403,81.079 548.809,80.704 
			548.944,80.745 550.462,80.617 551.98,80.488 552.603,80.383 553.721,80.354 554.75,80.372 556.092,80.338 558.015,80.333 
			558.868,80.445 559.762,80.422 561.421,80.559 562.497,80.665 564.244,80.754 565.903,80.891 569.215,80.94 570.156,81.005 
			571.05,80.982 574.403,80.896 576.544,80.662 577.215,80.645 579.315,80.546 579.674,80.581 580.745,80.464 582.574,80.283 
			584.498,80.278 586.374,80.185 586.956,80.215 587.404,80.204 589.015,80.252 591.256,80.418 591.974,80.489 593.274,80.59 
			594.621,80.779 595.926,81.103 597.414,81.557 598.497,81.887 600.214,82.559 600.89,82.765 602.431,83.531 603.519,84.084 
			605.112,85.162 605.747,85.503 606.523,86.11 607.57,86.798 608.987,87.97 609.628,88.535 611.815,90.089 612.086,90.172 
			612.585,90.472 614.444,91.408 616.026,92.039 616.837,92.286 617.196,92.322 619.219,92.717 621.013,92.895 622.272,93.131 
			624.601,93.25 625.319,93.321 627.654,93.664 628.148,93.74 628.372,93.735 631.16,94.289 632.959,94.69 633.995,94.932 
			635.482,95.386 636.341,95.722 638.594,96.335 638.864,96.417 639,96.459 641.881,97.19 642.511,97.308 643.722,97.456 
			644.216,97.532 644.887,97.515 645.917,97.533 646.499,97.563 648.775,97.371 651.182,96.996 651.893,96.843 652.246,96.655 
			652.911,96.414 655.535,95.81 656.377,95.475 658.153,94.982 658.595,94.747 660.148,94.26 661.701,93.773 662.101,93.673 
			664.319,92.945 665.119,92.745 667.161,92.111 668.138,91.818 669.65,91.466 671.12,91.249 671.297,91.155 672.815,91.026 
			673.974,90.862 675.673,90.863 677.774,90.765 677.997,90.759 678.221,90.753 680.603,91.184 681.05,91.173 681.861,91.42 
			682.808,91.709 684.296,92.163 684.926,92.281 686.143,92.652 687.225,92.982 688.307,93.312 689.436,93.731 691.465,94.349 
			692.007,94.514 693.671,94.874 695.112,95.24 695.606,95.317 698.17,95.877 698.894,96.172 701.317,96.467 701.676,96.503 
			702.035,96.538 705.899,97.199 706.528,97.317 707.293,97.477 709.852,97.814 711.069,98.185 714.263,98.863 714.398,98.905 
			714.486,98.858 715.433,99.146 717.368,99.589 718.044,99.795 719.532,100.249 720.074,100.414 722.067,101.392 723.696,102.11 
			724.149,102.322 725.919,103.306 726.007,103.259 726.007,103.259 727.871,104.419 728.735,104.978 731.146,106.527 
			731.875,107.045 734.48,109.17 734.709,109.388 734.892,109.517 737.284,112.095 737.466,112.225 738.859,114.202 		">
		</polygon>
		<polygon slic3r:type="hole" style="stroke:#000000;stroke-miterlimit:10;" points="677.369,195.1 677.087,194.57 676.816,194.488 
			676.634,194.358 674.994,193.192 674.182,192.945 673.423,193.009 672.217,193.085 671.276,193.02 669.411,193.56 
			668.923,193.706 667.187,194.064 665.416,194.781 664.175,195.215 661.433,196.449 661.033,196.549 660.856,196.643 
			660.415,196.878 657.549,198.517 655.743,199.592 655.654,199.639 653.854,200.938 653.459,201.262 651.923,202.42 
			650.611,203.572 650.434,203.666 649.081,204.953 648.645,205.412 647.95,206.235 647.52,206.917 646.884,208.275 
			646.843,208.411 646.342,209.81 646.266,210.304 646.377,211.151 646.529,211.863 646.776,212.752 647.74,213.711 
			647.881,213.976 649.333,214.789 649.516,214.918 649.786,215.001 651.362,215.407 653.868,215.432 654.715,215.321 
			657.745,214.841 658.057,214.788 658.145,214.741 661.252,213.766 662.093,213.432 663.994,212.533 665.053,211.969 
			666.859,210.893 668.048,210.147 669.278,209.265 669.543,209.124 670.726,208.154 672.827,206.356 673.133,206.079 
			673.174,205.944 673.521,205.533 675.17,203.522 675.646,202.928 677.154,200.653 677.448,199.929 677.514,198.988 
			677.879,197.547 678.156,196.153 		">
		</polygon>
	</g>
</g>
<g id="Layer_1">
</g>
</svg>
