<?xml version="1.0" encoding="iso-8859-1"?>
<!-- Generator: Adobe Illustrator 19.2.1, SVG Export Plug-In . SVG Version: 6.00 Build 0)  -->
<svg version="1.1" xmlns="http://www.w3.org/2000/svg" xmlns:xlink="http://www.w3.org/1999/xlink" x="0px" y="0px"
	 viewBox="0 0 841.89 595.28" style="enable-background:new 0 0 841.89 595.28;" xml:space="preserve">
<g id="layer244">
	<g id="layer244_1_" slic3r:z="9.78000000000008e-005">
		<polygon slic3r:type="contour" style="fill:#FFFFFF;stroke:#000000;stroke-miterlimit:10;" points="730.662,119.02 
			731.367,120.344 732.93,123.704 733.024,123.881 733.071,123.969 733.165,124.145 734.046,127.075 734.304,128.411 
			734.503,129.211 734.562,129.746 734.884,131.841 735.195,133.488 735.787,135.665 736.04,136.777 736.85,138.724 
			737.038,139.077 737.796,140.713 738.266,141.596 739.294,143.314 739.671,144.02 740.464,145.297 741.628,147.056 
			741.904,147.363 741.904,147.363 741.904,147.363 741.951,147.451 743.555,150.675 744.583,152.394 745.253,154.076 
			747.18,157.695 747.227,157.783 747.227,157.783 748.784,160.92 749.389,161.844 749.953,162.903 750.711,164.538 
			751.839,166.657 752.08,167.322 752.174,167.498 752.227,167.81 752.602,170.216 752.748,170.704 752.336,172.057 
			752.212,172.463 752.083,172.645 751.394,173.692 750.823,174.109 749.899,174.714 749.234,174.955 748.44,175.378 
			747.204,176.036 745.433,176.753 744.945,176.9 744.592,177.088 742.597,177.81 741.05,178.521 740.12,178.903 739.014,179.378 
			738.261,179.666 736.713,180.377 734.106,181.652 734.018,181.699 733.577,181.934 730.794,183.303 730.705,183.35 
			730.529,183.444 727.445,185.313 727.181,185.454 727.181,185.454 725.127,187.341 724.785,187.976 724.596,189.323 
			724.478,189.952 724.76,190.482 726.9,191.948 727.494,192.424 729.441,193.314 729.576,193.355 730.476,193.556 731.646,193.839 
			731.87,193.833 734.299,194.352 734.522,194.346 735.557,194.588 737.263,194.813 737.669,194.936 738.34,194.919 
			739.951,194.967 741.204,194.98 743.169,194.84 745.316,194.829 746.834,194.701 749.375,194.367 750.134,194.303 
			751.958,193.898 752.223,193.757 752.534,193.704 754.129,193.082 754.882,192.794 756.206,192.089 757.53,191.384 
			757.618,191.337 757.618,191.337 759.207,190.491 759.425,190.261 759.778,190.073 761.902,189.169 762.343,188.934 
			762.655,188.881 763.508,188.993 764.855,189.182 766.895,190.248 767.354,190.684 769.376,192.779 769.511,192.821 
			769.511,192.821 769.511,192.821 769.652,193.085 771.157,195.91 771.303,196.398 772.219,198.969 772.56,200.034 
			772.924,201.993 773.182,203.329 773.276,203.505 773.222,204.893 773.198,205.699 773.038,206.464 772.66,209.158 
			772.336,210.463 771.805,212.445 771.569,213.704 771.198,214.922 770.65,216.233 769.849,218.132 769.507,218.768 
			769.384,219.173 768.147,221.531 766.916,224.113 766.828,224.16 766.786,224.295 765.544,226.43 765.202,227.065 
			764.296,228.341 763.731,228.982 762.347,230.851 761.912,231.31 760.699,232.862 759.221,234.555 759.092,234.738 
			757.573,236.566 756.961,237.119 756.313,238.03 755.183,239.312 753.923,240.776 753.311,241.328 751.304,243.304 
			751.045,243.668 750.345,244.268 749.032,245.42 748.073,246.384 747.025,247.395 745.936,248.541 744.712,249.647 
			743.67,250.881 742.358,252.033 741.534,253.039 740.315,254.367 739.532,255.238 738.308,256.343 737.349,257.307 
			735.954,258.729 735.253,259.329 734.294,260.293 732.369,261.998 732.281,262.045 732.281,262.045 729.915,263.985 
			729.044,264.902 728.079,265.642 727.555,266.148 727.378,266.242 725.054,268.046 724.524,268.328 723.035,269.575 
			722.859,269.669 721.358,270.468 719.952,271.443 719.157,271.866 717.969,272.613 717.527,272.848 714.615,274.399 
			714.526,274.446 714.35,274.54 711.384,275.779 710.72,276.02 708.949,276.737 707.354,277.359 706.689,277.6 702.965,278.904 
			702.565,279.003 702.253,279.056 698.57,280.224 698.17,280.324 695.11,281.387 695.11,281.387 695.022,281.434 692.581,282.168 
			689.792,283.313 689.745,283.225 689.656,283.272 685.938,284.799 685.538,284.899 685.273,285.04 684.343,285.422 
			682.307,286.279 679.877,287.46 679.701,287.554 679.436,287.695 677.271,288.735 675.947,289.44 674.799,290.051 674.181,290.38 
			673.387,290.803 671.357,291.884 671.004,292.072 670.563,292.307 668.044,293.535 665.755,294.981 664.872,295.451 
			663.419,296.338 661.919,297.137 661.083,297.696 659.541,298.63 657.823,299.658 657.252,300.076 656.899,300.264 
			656.105,300.687 654.21,301.809 652.185,303.114 651.832,303.302 651.479,303.49 649.673,304.565 648.219,305.453 
			647.119,306.152 646.195,306.757 644.477,307.786 643.641,308.344 642.141,309.143 641.305,309.701 639.587,310.73 
			638.528,311.294 637.821,311.67 635.485,313.027 634.161,313.732 631.472,315.278 630.766,315.654 630.325,315.889 
			629.354,316.406 627.589,317.346 626.441,317.957 624.894,318.668 622.152,319.901 621.799,320.089 621.357,320.324 
			618.968,321.37 617.686,321.94 615.162,322.944 613.92,323.379 610.378,324.812 609.978,324.912 608.872,325.387 606.301,326.304 
			604.971,326.785 602.712,327.648 601.47,328.083 599.034,329.04 598.281,329.328 597.881,329.428 595.669,330.379 
			593.098,331.296 592.656,331.531 592.256,331.63 591.15,332.106 588.408,333.34 586.196,334.291 585.001,334.814 582.877,335.719 
			581.948,336.1 580.665,336.67 579.647,337.099 577.788,337.863 575.887,338.762 575.622,338.903 573.54,339.672 571.727,340.524 
			569.692,341.381 567.832,342.145 564.685,343.255 563.62,343.595 560.425,344.617 559.272,345.004 558.872,345.104 
			555.142,346.184 552.653,346.83 550.964,347.276 547.717,347.986 546.829,348.232 546.293,348.291 542.51,349.059 
			539.839,349.575 538.281,349.839 536.057,350.343 534.186,350.66 532.85,350.918 530.18,351.434 526.485,352.155 526.308,352.249 
			526.085,352.255 523.726,352.718 521.767,353.081 520.831,353.24 519.496,353.498 518.202,353.621 517.713,353.767 
			515.66,353.954 513.478,354.324 513.031,354.335 512.272,354.399 510.354,354.628 509.283,354.744 507.63,354.832 505.13,355.03 
			504.954,355.124 504.73,355.13 502.136,355.152 500.93,355.228 498.742,355.373 497.848,355.396 497.001,355.508 494.23,355.624 
			492.712,355.752 491.506,355.828 489.23,356.021 488.783,356.032 488.559,356.038 486.1,356.101 484.447,356.188 483.465,356.258 
			481.5,356.398 480.741,356.462 480.382,356.427 478.953,356.508 478.418,356.567 477.123,356.69 475.782,356.724 473.729,356.911 
			471.9,357.092 469.223,357.385 467.705,357.513 466.635,357.63 463.47,358.07 459.634,358.526 459.322,358.579 455.569,358.765 
			455.257,358.817 454.946,358.87 451.193,359.056 451.104,359.103 451.057,359.015 450.834,359.021 446.987,359.03 
			443.763,358.934 443.269,358.857 441.428,358.591 440.758,358.609 438.917,358.343 438.375,358.178 435.505,357.894 
			434.652,357.781 434.382,357.699 433.217,357.639 430.482,357.397 429.676,357.372 427.57,357.248 425.823,357.158 
			424.123,357.157 421.976,357.168 419.564,357.319 418.311,357.307 417.017,357.43 415.811,357.505 414.117,357.728 
			413.67,357.739 413.358,357.792 410.511,358.402 409.975,358.461 408.999,358.754 408.375,358.86 404.821,359.846 
			404.333,359.992 403.845,360.139 401.221,360.743 400.556,360.984 398.644,361.436 397.579,361.776 396.867,361.929 
			395.938,362.311 394.255,362.98 393.325,363.362 392.707,363.691 391.248,364.355 388.247,365.953 387.453,366.376 
			386.305,366.987 384.146,368.251 381.721,369.655 380.221,370.454 379.562,370.918 377.62,371.953 376.873,372.464 
			376.255,372.793 374.489,373.733 371.889,375.231 371.406,375.602 369.729,376.495 367.528,377.893 367.087,378.129 
			365.986,378.828 363.915,380.044 363.079,380.603 362.285,381.026 362.067,381.255 358.99,383.347 357.848,384.182 
			354.823,386.586 354.735,386.633 354.646,386.68 353.51,387.738 352.11,388.937 350.326,390.907 350.108,391.136 349.932,391.23 
			349.802,391.412 348.625,392.605 346.365,395.169 346.188,395.263 346.147,395.398 346.147,395.398 342.698,398.708 
			342.35,399.119 341.827,399.625 340.079,401.236 338.731,402.747 337.512,404.075 337.471,404.21 337.383,404.258 
			335.117,406.597 333.162,408.884 332.291,409.801 332.12,410.119 331.596,410.625 330.425,412.042 328.865,414.005 
			328.388,414.599 327.953,415.058 325.651,417.756 324.827,418.762 324.479,419.173 323.178,420.772 322.272,422.048 
			321.577,422.871 320.753,423.877 320.188,424.518 318.54,426.528 318.239,427.028 317.15,428.175 315.849,429.774 
			314.719,431.055 314.066,431.743 311.582,434.312 311.452,434.495 311.058,434.818 310.317,435.553 308.133,437.622 
			307.215,438.451 307.262,438.539 305.161,440.338 303.148,442.09 303.06,442.137 302.971,442.184 301.052,444.112 
			299.351,445.811 299.045,446.087 298.651,446.41 296.52,448.791 295.779,449.526 295.737,449.662 295.431,449.938 
			292.076,453.424 290.375,455.123 290.246,455.305 290.157,455.352 290.069,455.399 288.327,457.234 287.15,458.427 
			285.755,459.85 285.19,460.49 284.577,461.043 281.481,464.165 281.046,464.623 280.828,464.852 278.691,467.01 277.208,468.48 
			277.12,468.527 277.12,468.527 275.16,470.59 273.371,472.336 272.935,472.795 271.322,474.447 269.803,476.275 269.191,476.828 
			268.497,477.651 267.755,478.386 266.054,480.085 264.312,481.919 262.393,483.847 261.869,484.353 261.257,484.905 
			259.95,486.281 259.209,487.016 258.597,487.568 257.985,488.121 256.719,489.361 255.671,490.372 254.665,491.248 
			253.088,492.541 251.428,494.105 250.639,494.752 249.592,495.763 248.803,496.409 248.103,497.009 247.096,497.885 
			246.614,498.255 243.024,501.3 242.935,501.347 242.717,501.576 241.576,502.411 241.052,502.917 239.469,503.986 
			238.063,504.962 237.492,505.379 235.732,506.543 235.379,506.731 235.203,506.825 232.955,508.135 231.807,508.746 
			230.13,509.639 228.583,510.35 228.141,510.585 226.506,511.343 224.958,512.054 222.875,512.823 221.504,513.44 219.998,514.015 
			217.115,514.984 216.539,515.178 215.786,515.466 213.079,516.341 211.302,516.834 210.014,517.18 208.237,517.673 
			205.437,518.371 204.725,518.524 202.454,518.94 200.942,519.292 200.407,519.351 197.289,519.878 195.147,520.112 
			193.853,520.235 191.488,520.475 190.506,520.545 189.882,520.65 186.847,520.907 184.747,521.006 182.6,521.016 180.723,521.109 
			178.353,521.125 176.476,521.218 174.106,521.235 173.435,521.252 172.629,521.228 170.347,521.197 168.87,521.19 
			166.094,521.083 163.317,520.975 162.512,520.951 161.347,520.892 159.6,520.802 158.659,520.737 156.553,520.612 
			154.759,520.435 152.471,520.18 151.483,520.027 150.271,519.879 148.477,519.701 146.86,519.43 146.86,519.43 145.154,519.205 
			144.119,518.963 141.107,518.414 140.296,518.167 139.26,517.925 138.361,517.725 137.143,517.353 135.973,517.07 134.35,516.575 
			131.868,515.744 130.786,515.414 130.197,515.161 127.486,514.112 127.351,514.071 126.492,513.735 124.411,512.804 
			124.093,512.634 123.687,512.51 122.053,511.568 121.465,511.314 119.965,510.413 116.102,508.052 115.919,507.923 
			115.919,507.923 115.784,507.881 109.264,503.083 109.128,503.042 109.081,502.954 104.742,499.486 102.32,497.491 
			101.997,497.097 99.204,494.618 98.699,494.095 98.287,493.747 94.06,489.427 92.361,487.726 87.029,482.182 86.383,481.393 
			82.708,477.685 79.581,474.365 79.534,474.277 79.446,474.324 79.17,474.018 75.989,470.387 75.807,470.257 72.668,466.49 
			72.48,466.137 72.11,465.655 70.206,462.93 69.177,461.212 68.707,460.329 67.902,458.605 67.526,457.899 67.338,457.546 
			66.146,454.669 65.999,454.181 65.265,451.739 64.72,449.65 64.315,447.827 63.805,445.379 63.793,444.932 63.465,442.614 
			63.343,439.62 63.279,438.861 63.309,438.279 63.382,434.161 63.418,433.802 63.518,432.503 63.708,429.456 63.815,428.379 
			64.223,425.103 64.73,422.227 64.914,420.656 65.704,416.61 65.87,416.069 66.141,414.451 66.707,412.11 66.908,411.21 
			67.35,409.275 67.839,407.429 68.246,405.852 68.741,404.229 69.107,402.788 69.313,402.112 70.097,399.542 70.598,398.142 
			71.311,396.29 72.572,393.126 72.654,392.855 73.332,391.361 74.257,389.056 74.427,388.739 74.681,388.151 76.035,385.163 
			76.713,383.669 76.884,383.352 77.52,381.993 78.627,379.818 78.927,379.318 79.051,378.912 80.288,376.554 81.483,374.331 
			81.954,373.514 83.615,370.25 83.656,370.115 83.786,369.933 85.588,366.934 86.701,364.981 87.001,364.482 88.461,362.118 
			88.762,361.618 89.191,360.936 90.922,358.655 92.217,356.832 93.13,355.779 94.602,353.863 95.944,352.128 96.815,351.211 
			97.857,349.976 98.81,348.789 99.246,348.33 100.07,347.325 100.158,347.278 100.941,346.408 102.207,345.167 102.731,344.662 
			103.254,344.156 104.608,342.869 105.35,342.134 106.268,341.305 107.316,340.294 109.505,338.448 109.546,338.313 
			109.635,338.266 111.824,336.42 112.306,336.05 113.925,334.621 114.89,333.881 115.196,333.605 116.514,332.676 117.962,331.565 
			118.268,331.289 120.811,329.255 121.117,328.979 121.558,328.744 124.1,326.71 124.365,326.569 126.56,324.947 127.043,324.577 
			129.632,322.631 129.762,322.449 129.938,322.355 130.904,321.614 132.616,320.362 132.922,320.086 135.341,318.458 
			135.294,318.37 135.735,318.135 138.195,316.372 138.501,316.095 139.643,315.261 141.314,314.144 141.797,313.774 
			142.456,313.309 144.039,312.24 145.357,311.311 146.41,310.524 148.17,309.36 149.576,308.384 150.588,307.732 151.907,306.803 
			153.401,305.781 154.502,305.081 156.35,303.871 158.633,302.202 159.074,301.967 159.91,301.408 161.581,300.292 
			162.635,299.504 164.088,298.617 165.053,297.876 166.813,296.712 168.525,295.461 169.273,294.949 170.638,294.109 
			171.956,293.18 172.88,292.575 174.51,291.594 176.752,290.06 177.017,289.919 177.193,289.825 177.853,289.36 179.524,288.244 
			180.713,287.497 181.725,286.845 182.343,286.516 184.585,284.982 186.827,283.448 187.309,283.078 188.321,282.426 
			189.64,281.497 190.034,281.174 192.364,279.593 192.806,279.358 193.2,279.034 195.707,277.359 195.925,277.13 197.814,275.784 
			199.968,274.297 200.409,274.062 200.627,273.833 201.551,273.228 203.44,271.882 203.922,271.512 205.635,270.26 
			207.742,268.684 208.666,268.079 210.29,266.874 210.508,266.645 212.044,265.487 212.438,265.164 212.438,265.164 
			214.415,263.771 216.128,262.519 217.575,261.408 219.2,260.203 219.329,260.021 221.001,258.904 221.218,258.675 
			222.713,257.652 223.766,256.865 225.832,255.425 226.797,254.684 228.51,253.432 229.869,252.368 231.276,251.393 
			232.635,250.329 234.083,249.218 234.83,248.707 235.442,248.154 236.89,247.043 239.173,245.374 239.568,245.051 239.833,244.91 
			240.315,244.54 242.157,243.105 243.428,242.089 243.734,241.812 244.04,241.536 245.488,240.425 246.936,239.314 
			247.901,238.574 248.955,237.786 250.579,236.581 252.421,235.147 252.815,234.824 253.033,234.594 254.745,233.342 
			255.581,232.784 255.711,232.602 257.865,231.115 259.006,230.28 261.29,228.611 261.684,228.288 261.86,228.194 262.343,227.824 
			264.803,226.06 265.768,225.32 266.821,224.532 268.228,223.557 269.811,222.487 270.205,222.164 270.6,221.84 273.106,220.165 
			275.125,218.637 275.39,218.496 275.608,218.267 277.938,216.686 278.95,216.034 280.004,215.246 281.057,214.458 
			281.716,213.994 282.552,213.436 283.823,212.419 285.229,211.443 286.195,210.703 287.642,209.592 288.784,208.757 
			290.102,207.829 290.761,207.364 292.692,205.883 294.316,204.678 294.669,204.49 294.887,204.261 295.458,203.844 
			297.347,202.498 298.665,201.569 299.589,200.964 301.878,199.518 302.272,199.195 303.196,198.59 304.691,197.567 
			305.88,196.821 306.497,196.492 307.421,195.886 310.94,193.559 311.205,193.418 311.511,193.142 311.599,193.095 
			312.965,192.254 315.825,190.391 315.913,190.344 316.089,190.25 319.132,188.517 320.144,187.865 320.497,187.677 
			320.673,187.583 324.422,185.473 325.746,184.768 328.57,183.264 330.688,182.136 331.395,181.76 332.807,181.008 
			334.702,179.885 335.672,179.368 336.908,178.71 337.038,178.528 340.786,176.418 341.269,176.048 342.416,175.437 
			345.235,173.709 345.235,173.709 345.323,173.662 348.271,171.752 349.813,170.818 349.901,170.771 349.943,170.636 
			353.997,168.25 354.744,167.739 355.892,167.128 357.786,166.005 358.357,165.588 359.24,165.118 361.659,163.49 362.494,162.932 
			363.2,162.556 364.077,161.862 366.802,159.958 368.338,158.8 368.514,158.706 368.556,158.571 370.533,157.178 371.016,156.807 
			372.334,155.879 372.946,155.326 375.276,153.745 377.565,152.3 377.783,152.07 378.225,151.835 379.454,150.954 381.832,149.461 
			383.238,148.485 383.768,148.203 386.145,146.711 387.993,145.5 389.4,144.524 390.588,143.778 391.377,143.132 392.124,142.62 
			392.213,142.573 395.72,139.799 395.938,139.57 396.509,139.152 397.033,138.647 398.174,137.812 399.051,137.119 
			399.975,136.513 400.675,135.914 404.183,133.139 404.577,132.816 405.06,132.446 405.495,131.987 406.284,131.341 
			407.29,130.465 408.297,129.589 409.133,129.031 409.309,128.937 411.463,127.45 412.781,126.521 413.175,126.198 413.97,125.775 
			415.465,124.752 416.695,123.87 417.354,123.406 417.748,123.083 421.614,120.344 421.744,120.162 421.92,120.068 
			422.009,120.021 423.462,119.133 426.01,117.323 426.187,117.229 426.363,117.135 429.047,115.366 430.495,114.255 
			430.671,114.161 430.936,114.02 431.418,113.65 433.878,111.887 434.796,111.058 435.191,110.735 435.367,110.641 
			437.739,108.924 439.051,107.772 439.581,107.49 443.329,105.381 443.594,105.24 444.565,104.723 445.359,104.3 446.819,103.636 
			447.525,103.26 448.584,102.696 449.337,102.408 449.778,102.173 451.767,101.227 454.997,99.847 455.174,99.753 455.927,99.465 
			457.833,98.79 460.14,98.015 461.069,97.633 464.352,96.564 466.747,95.742 468.3,95.255 470.701,94.656 472.389,94.21 
			473.454,93.87 476.348,93.348 479.908,92.585 480.531,92.48 480.755,92.474 481.69,92.316 484.59,92.018 486.149,91.754 
			488.114,91.614 489.902,91.568 490.75,91.457 493.026,91.264 493.832,91.288 495.797,91.148 497.091,91.025 498.609,90.897 
			500.038,90.815 502.45,90.664 503.697,90.453 506.374,90.16 506.997,90.055 510.027,89.574 510.204,89.48 513.41,88.906 
			513.722,88.853 516.169,88.343 517.057,88.096 518.569,87.744 519.058,87.597 520.346,87.251 523.011,86.512 524.388,86.118 
			525.406,85.69 526.206,85.49 527.359,85.102 528.866,84.527 529.707,84.192 530.637,83.81 531.701,83.47 533.649,82.659 
			534.579,82.277 535.461,81.807 536.391,81.426 537.45,80.862 538.027,80.668 538.998,80.151 539.751,79.863 541.339,79.017 
			542.222,78.547 542.752,78.265 544.34,77.419 545.182,77.084 546.017,76.526 548.271,75.439 549.683,74.687 550.254,74.269 
			550.695,74.034 552.108,73.282 553.473,72.442 554.356,71.972 554.797,71.737 555.368,71.32 557.933,70.18 558.51,69.986 
			561.116,68.711 561.646,68.429 562.399,68.141 564.488,67.596 565.594,67.12 566.882,66.774 568.353,66.557 570.323,66.64 
			570.547,66.635 570.906,66.67 573.194,66.925 574.317,67.119 576.341,67.515 578.54,67.816 578.676,67.857 580.428,68.17 
			581.599,68.453 581.734,68.494 581.822,68.447 584.257,69.19 584.887,69.308 586.557,69.891 587.998,70.257 589.486,70.711 
			590.75,71.17 592.467,71.842 593.467,72.443 594.331,73.002 596.872,74.368 597.236,74.627 597.33,74.804 597.601,74.886 
			600.006,76.211 600.506,76.512 600.641,76.553 602.899,77.39 603.305,77.513 604.07,77.673 606.364,78.151 607.534,78.434 
			609.234,78.435 609.458,78.429 610.975,78.3 613.611,78.143 614.146,78.085 614.37,78.079 614.593,78.073 617.852,77.811 
			619.899,77.4 620.929,77.418 622.805,77.325 623.388,77.355 623.923,77.297 625.582,77.433 627.334,77.746 628.593,77.982 
			629.04,77.97 629.716,78.177 632.381,79.137 635.18,80.139 635.451,80.221 635.586,80.262 635.768,80.392 638.173,81.717 
			639.443,82.4 640.667,82.995 641.754,83.549 643.66,84.573 645.471,85.421 646.33,85.757 648.37,86.823 648.823,87.035 
			651.628,88.26 651.763,88.302 651.81,88.39 654.204,89.268 654.61,89.392 656.368,89.928 657.497,90.346 657.903,90.47 
			658.938,90.712 660.244,91.036 661.009,91.196 662.267,91.432 663.032,91.591 663.973,91.656 665.408,91.798 666.396,91.952 
			669.485,92.007 669.979,92.083 670.202,92.078 670.426,92.072 672.967,91.738 673.638,91.721 673.726,91.674 674.661,91.516 
			676.532,91.199 676.709,91.105 679.109,90.507 679.774,90.266 681.462,89.82 683.11,89.509 683.686,89.315 684.086,89.216 
			686.139,89.029 686.769,89.147 688.339,89.33 689.374,89.572 689.78,89.695 691.544,90.455 691.862,90.626 691.997,90.667 
			692.45,90.879 694.043,91.957 694.767,92.251 696.631,93.411 698.577,94.301 699.124,94.689 701.394,95.973 702.299,96.397 
			704.84,97.763 704.975,97.805 705.61,98.146 707.474,99.306 708.021,99.695 710.291,100.979 713.196,102.604 713.696,102.904 
			714.013,103.075 717.018,105.1 717.518,105.401 719.434,106.872 720.622,107.826 721.034,108.173 723.732,110.475 
			724.332,111.175 726.342,112.824 726.801,113.259 726.983,113.389 727.63,114.177 728.553,115.272 728.829,115.578 
			729.81,117.208 		">
		</polygon>
		<polygon slic3r:type="hole" style="stroke:#000000;stroke-miterlimit:10;" points="684.38,166.78 683.14,165.515 683.217,165.021 
			682.311,164.597 680.652,164.461 679.224,162.842 677.865,162.206 677.101,162.047 675.96,161.181 675.148,160.934 
			673.231,161.162 672.919,161.215 672.742,161.309 672.53,161.761 672.353,163.555 672.541,163.909 672.729,164.262 
			673.522,165.539 674.639,167.21 675.356,167.281 676.698,167.246 677.344,168.035 677.85,168.559 678.402,169.171 
			679.361,169.907 680.019,171.143 681.583,171.102 683.137,170.615 683.896,170.551 684.472,170.357 684.32,169.645 
			684.703,167.175 684.516,166.822 		">
		</polygon>
	</g>
</g>
<g id="Layer_1">
</g>
</svg>
