<?xml version="1.0" encoding="iso-8859-1"?>
<!-- Generator: Adobe Illustrator 19.2.1, SVG Export Plug-In . SVG Version: 6.00 Build 0)  -->
<svg version="1.1" xmlns="http://www.w3.org/2000/svg" xmlns:xlink="http://www.w3.org/1999/xlink" x="0px" y="0px"
	 viewBox="0 0 841.89 595.28" style="enable-background:new 0 0 841.89 595.28;" xml:space="preserve">
<g id="layer254">
	<g id="layer254_1_" slic3r:z="0.000101800000000001">
		<polygon slic3r:type="contour" style="fill:#FFFFFF;stroke:#000000;stroke-miterlimit:10;" points="739.828,117.085 
			740.157,117.703 741.344,120.356 741.391,120.445 741.438,120.533 742.236,123.733 742.764,125.151 743.116,126.663 
			743.75,128.705 744.884,131.047 745.172,131.8 745.507,132.641 746.635,134.76 747.158,135.954 748.833,138.461 749.115,138.99 
			749.579,139.65 750.466,141.103 750.842,141.809 751.13,142.562 751.318,142.915 751.488,144.298 751.588,144.698 751.47,145.327 
			751.393,145.821 750.757,147.18 750.415,147.815 750.374,147.95 750.292,148.221 749.485,149.897 749.243,150.932 
			748.866,151.926 749.264,155.226 749.275,155.673 750.515,158.638 751.484,159.821 751.531,159.91 752.225,160.786 
			753.253,162.505 753.53,162.811 755.199,165.094 755.334,165.135 755.522,165.488 757.374,167.901 757.515,168.166 
			757.656,168.431 759.002,170.32 759.278,170.626 760.118,171.991 760.771,173.003 761.658,174.457 762.963,176.481 
			763.292,177.099 763.615,177.493 765.108,179.871 765.296,180.224 765.619,180.618 767.018,182.819 767.435,183.39 
			767.811,184.096 768.51,185.196 768.845,186.038 770.766,189.433 770.813,189.521 770.813,189.521 772.194,192.752 
			772.529,193.593 773.063,195.234 773.215,195.946 773.613,199.247 773.619,199.47 773.666,199.558 773.713,199.647 
			773.37,203.682 773.098,205.299 772.65,207.011 771.819,209.493 771.648,209.81 771.006,210.945 769.94,212.985 769.681,213.35 
			769.557,213.756 769.045,214.708 767.756,216.755 766.237,218.583 765.848,219.13 765.195,219.818 763.847,221.329 
			762.758,222.475 761.534,223.58 760.357,224.774 759.397,225.738 758.438,226.702 757.867,227.119 756.725,227.954 
			755.278,229.065 754.571,229.441 752.418,230.928 752.241,231.022 751.317,231.627 749.911,232.603 749.646,232.744 
			747.18,234.283 746.874,234.56 745.821,235.347 744.72,236.047 744.279,236.282 742.655,237.487 741.778,238.18 740.683,239.103 
			739.194,240.349 738.977,240.578 738.759,240.808 737.228,242.189 735.745,243.659 735.31,244.117 734.309,245.217 
			732.961,246.728 732.567,247.051 731.348,248.38 730.218,249.661 729.694,250.167 728.081,251.819 726.822,253.283 
			725.862,254.247 724.467,255.67 723.943,256.175 723.596,256.587 721.501,258.609 721.195,258.885 719.794,260.084 
			718.876,260.913 718.57,261.19 716.204,263.129 714.58,264.334 713.132,265.445 712.385,265.956 711.066,266.885 708.471,268.607 
			706.27,270.006 703.887,271.275 701.551,272.632 699.562,273.578 698.591,274.095 697.003,274.941 695.284,275.969 
			693.872,276.722 693.784,276.769 692.46,277.474 691.001,278.137 689.765,278.796 688.129,279.553 686.764,280.394 
			684.599,281.434 683.716,281.904 681.727,282.849 679.656,284.066 679.126,284.348 678.244,284.818 677.096,285.429 
			675.243,286.416 674.76,286.786 673.13,287.768 672.777,287.956 672.601,288.05 670.617,289.219 669.911,289.595 668.852,290.159 
			667.004,291.37 665.857,291.981 664.668,292.727 664.227,292.962 661.19,294.919 661.102,294.966 661.014,295.013 
			658.548,296.553 657.801,297.064 655.818,298.234 654.717,298.933 653.794,299.538 650.975,301.266 650.798,301.36 
			650.71,301.407 647.362,303.417 646.132,304.298 644.855,305.092 642.784,306.308 641.507,307.101 640.277,307.983 
			639.353,308.588 638.558,309.011 636.534,310.316 636.093,310.551 633.933,311.814 632.962,312.332 631.597,313.172 
			629.614,314.341 627.984,315.323 627.278,315.699 625.295,316.868 624.547,317.379 624.283,317.52 623.841,317.755 
			621.458,319.025 620.222,319.683 616.515,321.657 615.986,321.939 615.809,322.033 615.544,322.174 611.696,323.883 
			610.414,324.453 608.025,325.499 606.96,325.839 605.854,326.315 603.906,327.126 602.176,327.707 599.564,328.758 
			598.723,329.093 596.11,330.144 594.604,330.72 594.204,330.82 590.485,332.347 588.585,333.246 586.372,334.197 585.354,334.626 
			583.189,335.666 582.836,335.854 582.748,335.901 582.66,335.948 582.307,336.136 578.547,337.798 577.929,338.127 
			576.381,338.838 574.657,339.643 574.128,339.925 572.98,340.536 571.609,341.153 569.532,342.146 567.496,343.003 
			565.196,344.002 562.054,345.335 561.036,345.764 557.847,347.009 556.829,347.438 556.694,347.397 556.517,347.491 
			556.252,347.632 552.705,348.841 550.31,349.664 548.58,350.245 544.362,351.472 544.362,351.472 544.274,351.519 
			540.138,352.475 537.737,353.074 536.09,353.384 532.89,354.182 531.866,354.388 531.378,354.534 527.689,355.479 
			525.024,356.219 523.512,356.571 520.446,357.41 519.335,357.662 518.711,357.768 515.152,358.53 512.081,359.146 
			510.969,359.398 508.692,359.591 506.821,359.908 506.151,359.925 504.857,360.048 502.627,360.329 502.627,360.329 
			498.656,360.744 498.433,360.75 498.121,360.802 497.586,360.861 495.533,361.048 494.285,361.259 492.856,361.34 
			490.361,361.762 490.273,361.809 490.138,361.768 487.597,362.102 485.949,362.413 484.967,362.483 483.273,362.705 
			482.29,362.775 481.802,362.922 479.661,363.156 477.655,363.431 476.807,363.542 476.184,363.648 474.313,363.964 
			473.778,364.023 471.86,364.251 469.277,364.72 469.189,364.767 465.094,365.588 462.559,366.145 460.912,366.456 
			458.152,367.019 456.729,367.324 455.929,367.524 452.587,368.057 448.887,368.555 448.44,368.566 447.769,368.583 
			444.287,368.852 443.169,368.881 441.157,368.932 440.798,368.897 440.575,368.903 439.816,368.967 435.969,368.976 
			433.11,369.139 431.816,369.262 430.074,369.396 427.621,369.683 427.174,369.694 426.415,369.759 425.792,369.864 
			423.474,370.192 422.85,370.298 419.821,370.778 419.062,370.842 418.75,370.895 415.144,371.57 414.697,371.581 413.585,371.833 
			411.984,372.232 410.961,372.438 409.449,372.79 407.807,373.324 406.742,373.664 405.901,373.999 402.53,375.115 400.27,375.978 
			400.094,376.072 400.094,376.072 400.006,376.119 398.411,376.742 395.887,377.746 394.604,378.316 394.163,378.551 
			392.439,379.356 389.921,380.584 389.832,380.631 389.391,380.866 385.725,382.705 384.225,383.504 382.724,384.303 
			381.442,384.873 380.029,385.625 379.5,385.907 379.011,386.053 377.287,386.858 375.434,387.845 373.933,388.644 
			373.051,389.115 371.109,390.149 368.996,391.5 368.82,391.594 365.13,394.239 364.865,394.38 364.559,394.656 362.364,396.279 
			360.398,398.119 360.31,398.166 357.685,400.47 356.596,401.616 356.508,401.663 356.202,401.94 356.031,402.257 354.242,404.003 
			352.282,406.067 352.152,406.249 351.716,406.707 349.056,409.37 347.355,411.069 346.443,412.122 346.007,412.58 
			345.442,413.221 344.306,414.279 343.046,415.743 342.44,416.519 341.875,417.16 341.398,417.754 338.79,420.729 338.572,420.958 
			338.443,421.141 338.313,421.323 336.353,423.386 334.917,424.944 334.829,424.991 334.611,425.221 334.482,425.403 
			332.604,427.196 331.079,428.801 330.773,429.077 330.208,429.718 328.543,431.058 327.101,432.392 326.442,432.857 
			325.918,433.362 323.028,435.808 322.94,435.855 322.94,435.855 322.94,435.855 318.867,439.27 318.032,439.828 317.155,440.522 
			315.53,441.727 314.477,442.514 313.071,443.49 311.576,444.512 310.087,445.759 309.428,446.223 308.857,446.64 307.627,447.522 
			306.267,448.586 305.744,449.091 304.602,449.926 302.978,451.131 301.489,452.377 300.918,452.794 299.252,454.134 
			297.893,455.198 297.281,455.751 296.051,456.632 294.515,457.79 292.938,459.083 291.796,459.918 290.389,460.894 
			289.206,461.863 288.547,462.328 287.494,463.115 285.917,464.409 284.339,465.702 283.769,466.119 282.939,466.901 
			281.797,467.735 280.178,469.164 279.519,469.628 278.995,470.134 277.507,471.38 276.106,472.579 274.746,473.643 
			274.222,474.148 273.652,474.566 272.91,475.301 271.992,476.129 271.074,476.958 270.462,477.511 268.148,479.762 
			267.666,480.133 267.189,480.727 266.359,481.508 264.352,483.484 261.297,486.47 260.903,486.793 260.556,487.205 
			258.849,488.68 257.536,489.832 257.189,490.244 256.577,490.797 255.571,491.672 253.776,493.195 253.293,493.565 
			252.504,494.212 248.914,497.257 248.343,497.674 247.467,498.367 246.284,499.337 245.23,500.125 244.53,500.725 
			244.047,501.095 240.451,503.916 239.881,504.333 238.08,505.632 236.809,506.649 235.796,507.302 232.807,509.347 
			232.06,509.858 231.177,510.328 228.311,511.968 227.652,512.432 226.458,512.955 223.898,514.318 222.221,515.211 
			220.938,515.781 219.214,516.586 217.843,517.202 215.672,518.019 214.478,518.542 213.636,518.876 211.73,519.552 
			210.665,519.892 209.2,520.332 207.559,520.867 205.605,521.454 205.117,521.601 203.117,522.099 201.693,522.404 
			200.405,522.751 199.157,522.962 198.669,523.108 198.222,523.12 197.287,523.278 194.881,523.653 193.098,523.923 
			191.357,524.057 190.421,524.215 187.656,524.555 187.656,524.555 187.609,524.466 187.521,524.513 184.439,524.682 
			182.027,524.834 181.58,524.845 178.897,524.914 177.868,524.896 175.544,525 172.55,525.122 172.103,525.133 171.386,525.062 
			168.791,525.084 165.08,525.135 164.856,525.141 164.721,525.099 160.738,525.068 160.738,525.068 157.515,524.972 
			155.633,524.841 153.662,524.757 152.274,524.704 149.762,524.455 148.462,524.354 145.051,523.905 144.916,523.864 
			144.916,523.864 141.863,523.45 140.334,523.132 138.716,522.86 137.322,522.583 135.881,522.217 134.17,521.769 132.323,521.28 
			131.241,520.95 128.083,519.912 128.036,519.824 127.948,519.871 124.737,518.522 123.831,518.098 121.567,517.038 
			120.25,516.267 116.798,514.253 115.252,513.263 111.106,510.373 110.377,509.855 110.148,509.637 109.236,508.989 
			105.262,505.781 104.163,504.78 101.182,501.949 99.212,500.165 98.619,499.689 97.931,499.035 92.546,493.179 89.095,489.465 
			85.68,485.393 81.63,480.978 79.549,478.348 77.751,476.247 76.457,474.669 74.841,472.698 74.1,471.733 72.666,469.89 
			71.461,468.266 69.927,466.024 69.651,465.718 69.557,465.542 68.111,463.252 67.177,461.711 66.566,460.563 66.284,460.034 
			64.533,456.321 64.392,456.056 64.151,455.391 63.094,452.555 62.66,451.314 62.12,449.449 62.02,449.049 61.568,447.137 
			61.222,445.848 60.753,443.266 60.7,442.954 60.736,442.595 60.49,440.007 60.432,439.471 60.42,439.024 60.433,437.771 
			60.44,436.295 60.493,434.907 60.588,433.383 60.648,432.218 60.908,430.154 60.902,429.93 60.897,429.707 61.322,427.101 
			61.829,424.225 61.947,423.596 62.03,423.325 62.785,419.637 62.944,418.873 62.986,418.738 62.986,418.738 64.082,414.415 
			64.077,414.191 64.277,413.291 64.813,411.533 65.226,410.18 65.262,409.821 65.385,409.415 65.998,407.163 66.541,405.628 
			66.747,404.952 67.531,402.381 67.737,401.705 68.073,400.846 68.609,399.088 69.534,396.783 69.829,396.059 70.123,395.336 
			70.966,393.301 71.72,391.313 71.973,390.725 72.056,390.455 72.857,388.555 73.363,387.379 73.705,386.744 74.253,385.433 
			74.553,384.933 75.319,383.392 76.208,381.446 76.55,380.81 76.721,380.493 78.128,377.817 78.811,376.547 79.194,375.777 
			80.089,374.054 81.202,372.102 81.243,371.966 81.285,371.831 82.445,369.967 83.257,368.515 83.599,367.879 84.158,367.015 
			84.93,365.698 85.448,364.969 86.825,362.876 87.514,361.829 88.727,360.277 89.893,358.636 91.105,357.084 91.582,356.49 
			92.536,355.303 93.231,354.479 93.666,354.021 95.361,352.098 96.403,350.864 97.145,350.129 98.146,349.03 98.887,348.295 
			100.677,346.549 101.418,345.814 102.901,344.344 104.473,342.827 105.173,342.228 106.527,340.94 108.581,339.053 
			109.064,338.683 109.37,338.407 111.736,336.467 112.742,335.591 114.408,334.251 116.509,332.452 116.815,332.176 
			117.427,331.624 118.875,330.513 119.445,330.095 120.54,329.173 121.199,328.708 122.294,327.785 124.53,326.028 
			124.618,325.981 124.795,325.887 127.031,324.129 128.52,322.883 129.179,322.419 130.056,321.725 130.892,321.167 
			132.34,320.056 132.911,319.639 133.217,319.363 135.412,317.74 137.56,316.03 137.913,315.842 138.307,315.519 140.108,314.22 
			142.085,312.827 142.215,312.645 142.568,312.457 144.457,311.111 146.387,309.629 146.564,309.535 146.74,309.441 
			149.024,307.772 150.254,306.891 151.966,305.639 152.36,305.315 152.625,305.174 153.679,304.387 155.88,302.988 
			156.362,302.618 157.286,302.013 159.352,300.573 161.594,299.039 161.594,299.039 163.836,297.505 165.284,296.394 
			166.296,295.742 166.69,295.418 167.879,294.672 168.626,294.161 169.109,293.79 170.868,292.627 172.41,291.692 172.981,291.275 
			174.346,290.435 175.664,289.506 178.348,287.737 178.477,287.555 178.565,287.508 178.83,287.367 181.119,285.921 
			182.22,285.222 183.715,284.199 185.78,282.759 185.957,282.665 186.133,282.571 188.11,281.178 189.782,280.062 190.923,279.227 
			191.494,278.81 193.866,277.094 193.954,277.047 194.131,276.953 196.461,275.372 197.338,274.678 199.621,273.009 
			200.545,272.404 200.851,272.127 201.863,271.475 203.311,270.364 203.97,269.9 205.859,268.554 207.001,267.719 208.978,266.326 
			209.726,265.815 210.603,265.121 212.009,264.146 213.633,262.941 214.163,262.659 214.469,262.383 216.093,261.178 
			218.288,259.556 218.288,259.556 218.377,259.509 221.013,257.651 222.902,256.305 223.385,255.935 224.879,254.913 
			226.768,253.567 227.469,252.967 228.522,252.179 230.235,250.928 231.07,250.369 232.606,249.211 233.219,248.659 
			236.161,246.525 236.161,246.525 236.161,246.525 238.968,244.35 240.769,243.052 241.163,242.728 241.646,242.358 
			243.535,241.012 245.247,239.76 246.083,239.202 246.783,238.602 248.673,237.256 250.297,236.052 250.691,235.728 
			252.492,234.429 254.646,232.942 254.999,232.754 255.128,232.572 255.964,232.014 257.5,230.856 258.118,230.527 
			259.524,229.551 260.401,228.858 261.719,227.929 263.608,226.583 263.561,226.495 263.738,226.401 266.11,224.685 
			266.504,224.361 267.251,223.85 268.658,222.874 270.588,221.393 270.806,221.164 270.982,221.07 272.824,219.636 
			274.843,218.108 275.237,217.784 275.985,217.273 277.303,216.344 279.145,214.91 279.451,214.634 279.804,214.446 
			281.252,213.335 283.488,211.578 283.882,211.254 284.63,210.743 285.813,209.773 287.567,208.386 288.049,208.016 
			288.573,207.51 290.021,206.399 292.298,204.506 293.087,203.86 294.14,203.072 295.547,202.097 296.336,201.45 297.301,200.71 
			298.313,200.057 300.861,198.247 301.079,198.018 301.914,197.459 303.544,196.478 304.733,195.732 305.127,195.408 
			305.834,195.032 306.669,194.474 309.229,193.111 311.83,191.612 312.93,190.913 313.636,190.537 314.472,189.979 
			316.367,188.856 317.955,188.01 319.762,186.935 320.733,186.418 321.351,186.089 322.057,185.713 323.381,185.008 
			326.294,183.457 326.294,183.457 326.382,183.41 326.382,183.41 330.665,181.242 331.548,180.772 331.813,180.631 
			334.773,179.168 336.626,178.181 336.891,178.04 337.244,177.851 339.009,176.911 341.434,175.507 342.846,174.755 
			346.547,172.557 346.9,172.369 347.43,172.087 348.53,171.388 351.214,169.619 351.39,169.525 352.62,168.643 355.21,166.698 
			355.651,166.463 355.916,166.322 358.687,164.506 360.141,163.618 360.406,163.477 361.112,163.101 362.036,162.496 
			363.801,161.556 364.372,161.139 366.355,159.969 368.644,158.524 369.127,158.153 369.921,157.73 372.863,155.597 
			373.787,154.991 374.229,154.756 374.493,154.615 376.253,153.452 377.089,152.893 379.248,151.63 381.367,150.502 
			384.232,148.862 385.597,148.022 386.168,147.605 386.827,147.14 387.663,146.582 388.805,145.748 389.511,145.372 
			389.817,145.095 391.576,143.932 393.242,142.591 394.119,141.898 394.954,141.34 396.314,140.276 397.632,139.347 
			398.115,138.977 398.38,138.836 400.227,137.625 402.069,136.191 402.64,135.774 405.547,133.999 406.689,133.164 
			406.689,133.164 406.689,133.164 409.019,131.583 411.032,129.832 411.032,129.832 411.12,129.785 413.274,128.298 
			415.246,126.681 415.287,126.546 415.375,126.499 417.576,125.1 419.642,123.66 419.73,123.613 419.859,123.431 422.019,122.168 
			423.861,120.734 424.344,120.363 425.574,119.482 427.245,118.365 428.081,117.807 428.522,117.572 429.051,117.29 
			430.864,116.438 432.317,115.551 433.159,115.216 434.13,114.699 435.453,113.994 436.601,113.383 437.795,112.86 
			439.161,112.019 440.526,111.179 440.702,111.085 440.791,111.038 442.426,110.28 444.145,109.252 444.674,108.97 
			445.027,108.782 446.975,107.971 449.228,106.884 449.493,106.743 451.847,106.057 453.482,105.299 455.253,104.582 
			457.518,103.942 461.378,102.68 461.555,102.586 461.69,102.627 462.131,102.392 465.861,101.312 467.456,100.69 469.809,100.003 
			473.71,98.605 473.886,98.511 473.886,98.511 474.286,98.411 478.105,97.284 479.258,96.897 482.011,96.11 483.429,95.582 
			485.918,94.936 486.23,94.883 486.806,94.69 488.942,94.232 490.277,93.974 491.701,93.669 493.972,93.253 494.684,93.1 
			496.866,92.731 497.443,92.537 498.914,92.32 500.114,92.021 501.496,91.851 502.967,91.635 504.614,91.324 505.326,91.171 
			505.638,91.119 508.885,90.409 509.197,90.356 509.197,90.356 512.086,89.611 512.263,89.517 512.263,89.517 514.663,88.918 
			516.481,88.29 517.057,88.096 518.923,87.556 520.517,86.934 521.888,86.317 522.288,86.217 524.283,85.495 525.742,84.831 
			527.201,84.167 527.866,83.926 529.237,83.31 530.52,82.74 531.849,82.258 533.662,81.406 534.238,81.213 535.833,80.59 
			537.027,80.067 539.104,79.074 539.946,78.74 540.475,78.458 542.734,77.594 543.888,77.207 546.277,76.161 547.736,75.497 
			550.53,74.575 551.595,74.235 554.92,73.031 555.408,72.884 555.584,72.79 555.761,72.696 556.608,72.585 558.255,72.274 
			559.367,72.022 560.615,71.811 561.462,71.7 562.668,71.624 563.873,71.548 565.797,71.544 568.309,71.792 569.609,71.893 
			572.214,72.318 572.797,72.348 573.155,72.383 577.649,73.163 578.502,73.275 579.131,73.393 580.878,73.482 582.178,73.583 
			583.478,73.684 585.631,73.897 586.437,73.921 588.048,73.969 589.66,74.017 591.048,74.071 591.901,74.183 594.413,74.432 
			595.266,74.544 598.901,74.987 598.989,74.94 598.989,74.94 599.26,75.023 601.512,75.636 601.647,75.677 604.047,76.779 
			606.17,77.574 606.623,77.786 607.028,77.91 608.704,78.717 609.563,79.053 610.657,79.83 612.109,80.642 613.379,81.325 
			614.92,82.091 615.602,82.521 616.284,82.951 617.784,83.852 619.865,84.782 620.001,84.824 620.001,84.824 620.724,85.118 
			622.53,85.743 622.665,85.784 625.547,86.515 625.682,86.556 625.953,86.639 627.841,86.993 628.829,87.147 629.864,87.388 
			630.493,87.506 631.799,87.831 634.051,88.444 634.369,88.615 634.64,88.697 638.562,89.894 639.462,90.094 642.485,91.09 
			643.25,91.25 645.367,91.821 646.267,92.022 646.49,92.016 648.243,92.329 649.231,92.483 649.367,92.524 651.743,92.731 
			652.325,92.761 654.025,92.762 655.19,92.821 656.084,92.799 657.825,92.664 658.584,92.6 660.543,92.237 661.749,92.161 
			663.485,91.803 665.044,91.539 665.444,91.439 666.509,91.099 668.244,90.741 669.044,90.542 670.733,90.096 672.686,89.509 
			673.086,89.409 673.975,89.162 675.575,88.763 676.063,88.617 678.505,87.883 678.905,87.783 679.752,87.672 680.687,87.513 
			681.623,87.355 683.276,87.268 683.411,87.309 683.634,87.304 684.84,87.228 685.517,87.434 686.328,87.682 686.869,87.847 
			688.134,88.306 688.675,88.471 688.945,88.554 690.804,89.49 692.609,90.115 692.927,90.286 694.285,90.922 695.144,91.258 
			695.326,91.387 697.408,92.318 699.078,92.901 700.254,93.408 702.689,94.15 703.73,94.616 706.882,95.429 706.882,95.429 
			707.018,95.471 709.77,96.384 710.311,96.549 712.57,97.386 713.381,97.633 716.586,98.759 717.127,98.924 717.533,99.048 
			719.521,99.802 719.609,99.755 721.15,100.52 721.468,100.691 722.785,101.463 723.467,101.892 725.778,103.041 726.777,103.642 
			728.142,104.501 731.282,106.568 731.37,106.521 731.417,106.609 731.417,106.609 734.256,109.176 734.897,109.741 
			736.096,111.141 737.066,112.324 738.6,114.566 738.694,114.743 738.788,114.919 		">
		</polygon>
		<polygon slic3r:type="hole" style="stroke:#000000;stroke-miterlimit:10;" points="665.507,200.057 664.737,199.674 
			663.925,199.427 663.249,199.221 662.266,199.291 661.554,199.443 661.019,199.502 660.396,199.607 659.554,199.942 
			659.066,200.089 658.36,200.465 657.477,200.935 656.424,201.722 655.982,201.957 655.588,202.281 654.535,203.068 
			653.881,203.756 653.14,204.491 652.663,205.085 651.927,206.043 651.467,207.307 651.178,208.254 651.295,209.325 
			651.301,209.549 651.907,210.472 651.907,210.472 652.906,211.073 653.041,211.114 653.624,211.144 654.165,211.309 
			654.835,211.292 655.641,211.316 655.865,211.31 656.177,211.257 657.065,211.011 657.73,210.77 658.618,210.524 659.46,210.189 
			660.519,209.625 660.519,209.625 662.061,208.69 662.061,208.69 663.503,207.356 663.72,207.127 664.721,206.027 665.021,205.527 
			665.581,204.663 665.875,203.94 666.129,203.352 666.182,201.964 666.224,201.828 666.13,201.652 666.018,200.805 		">
		</polygon>
	</g>
</g>
<g id="Layer_1">
</g>
</svg>
