<?xml version="1.0" encoding="iso-8859-1"?>
<!-- Generator: Adobe Illustrator 19.2.1, SVG Export Plug-In . SVG Version: 6.00 Build 0)  -->
<svg version="1.1" xmlns="http://www.w3.org/2000/svg" xmlns:xlink="http://www.w3.org/1999/xlink" x="0px" y="0px"
	 viewBox="0 0 841.89 595.28" style="enable-background:new 0 0 841.89 595.28;" xml:space="preserve">
<g id="layer227">
	<g id="layer227_1_" slic3r:z="9.10000000000007e-005">
		<polygon slic3r:type="contour" style="fill:#FFFFFF;stroke:#000000;stroke-miterlimit:10;" points="762.425,209.51 
			762.854,210.528 762.912,211.064 763.023,211.911 763.34,213.781 763.363,214.676 763.415,216.687 763.125,219.334 
			763.071,220.722 762.758,222.475 762.398,224.14 761.991,225.716 761.708,226.886 761.249,228.151 761.119,228.333 
			760.448,230.05 760.406,230.186 760.065,230.821 759.305,232.585 758.84,233.626 757.897,235.261 757.426,236.078 756.19,238.436 
			755.459,239.618 754.818,240.753 754.258,241.617 753.01,243.528 751.974,244.986 751.503,245.804 750.643,247.168 
			749.907,248.126 748.518,249.772 748.43,249.819 746.905,251.424 746.734,251.742 744.686,253.852 743.379,255.228 
			742.767,255.781 741.502,257.021 740.236,258.262 738.312,259.966 737.088,261.071 735.334,262.459 734.192,263.293 
			732.35,264.727 729.978,266.444 729.449,266.726 728.966,267.096 726.765,268.495 725.794,269.012 724.076,270.04 
			722.664,270.792 719.569,272.214 718.021,272.924 714.703,274.352 713.726,274.645 710.843,275.614 709.467,276.008 
			708.978,276.154 705.378,277.052 702.177,277.85 701.33,277.961 700.354,278.255 697.33,278.959 695.017,279.51 693.329,279.957 
			690.175,280.843 689.287,281.089 688.887,281.189 685.251,282.446 684.01,282.88 681.262,283.89 679.491,284.607 677.19,285.605 
			674.625,286.745 673.96,286.986 671.971,287.932 670.865,288.408 670.6,288.549 670.159,288.784 667.064,290.205 664.239,291.709 
			663.975,291.85 663.798,291.944 660.932,293.584 660.05,294.054 658.331,295.082 657.978,295.27 656.437,296.205 654.23,297.38 
			653.965,297.521 653.701,297.662 651.1,299.16 649.911,299.907 648.193,300.935 646.474,301.963 645.374,302.663 644.403,303.18 
			643.303,303.879 642.155,304.49 639.554,305.988 639.025,306.271 638.672,306.459 635.982,308.004 634.923,308.568 
			633.029,309.69 632.499,309.972 630.687,310.824 627.639,312.334 626.756,312.804 626.268,312.951 624.502,313.891 
			622.249,314.978 621.407,315.313 618.801,316.588 616.9,317.486 615.217,318.156 612.164,319.442 611.322,319.777 
			607.162,321.539 607.074,321.586 606.898,321.68 603.62,322.972 602.114,323.548 600.873,323.983 598.837,324.84 597.419,325.369 
			596.001,325.897 594.495,326.473 593.253,326.907 592.412,327.242 588.158,328.828 587.982,328.922 586.917,329.262 
			583.681,330.419 582.927,330.707 579.38,331.917 577.738,332.451 575.167,333.367 572.725,334.101 570.86,334.641 
			567.619,335.574 566.642,335.868 563.306,336.624 563.13,336.718 563.13,336.718 559.882,337.428 557.835,337.839 
			556.723,338.091 554.14,338.56 553.74,338.66 552.805,338.818 550.575,339.099 549.728,339.21 547.322,339.585 546.34,339.655 
			544.11,339.936 543.263,340.048 542.281,340.117 539.739,340.451 538.133,340.627 535.857,340.819 534.698,340.983 
			533.762,341.142 530.103,341.504 529.391,341.657 526.668,341.861 525.732,342.019 525.597,341.978 523.856,342.112 
			522.65,342.188 522.562,342.235 519.832,342.216 519.609,342.221 518.715,342.244 516.52,342.167 515.715,342.143 
			513.026,341.988 511.368,341.852 509.797,341.668 508.362,341.526 506.927,341.384 504.862,341.124 503.786,341.018 
			502.486,340.917 500.38,340.792 498.363,340.62 497.51,340.508 495.492,340.336 494.686,340.312 494.192,340.235 491.592,340.034 
			489.351,339.868 487.963,339.814 486.798,339.754 485.004,339.577 484.016,339.423 483.346,339.44 481.058,339.186 
			479.893,339.127 479.534,339.091 478.458,338.985 475.676,338.653 474.287,338.6 472.317,338.516 469.987,338.397 
			469.135,338.285 467.076,338.248 465.776,338.147 464.117,338.011 463.264,337.899 462.1,337.839 461.111,337.686 
			459.317,337.508 458.329,337.355 458.059,337.272 457.7,337.237 455.406,336.759 453.159,336.369 452.124,336.127 449.56,335.567 
			448.842,335.496 447.178,335.136 445.243,334.694 443.49,334.381 442.049,334.015 439.532,333.543 438.991,333.378 
			437.597,333.101 436.067,332.782 435.303,332.623 433.191,332.275 430.903,332.02 430.091,331.773 429.327,331.613 
			426.451,331.106 426.092,331.07 425.821,330.988 423.122,330.386 421.91,330.238 420.334,329.832 418.716,329.56 418.222,329.483 
			415.981,329.317 415.487,329.24 413.07,329.168 409.005,329.407 408.734,329.324 408.558,329.418 408.334,329.424 
			405.122,329.775 403.522,330.174 402.586,330.332 400.274,330.884 399.251,331.089 397.433,331.718 396.233,332.017 
			395.344,332.263 392.549,333.185 391.796,333.473 388.649,334.583 388.072,334.777 384.53,336.21 384.089,336.445 
			380.858,337.825 379.664,338.348 378.87,338.771 377.763,339.247 376.922,339.582 374.357,340.721 373.651,341.097 
			373.474,341.191 372.768,341.567 370.514,342.654 369.149,343.494 368.531,343.824 366.984,344.534 365.307,345.427 
			364.253,346.215 362.358,347.337 361.211,347.948 358.61,349.447 358.434,349.541 357.992,349.776 355.615,351.269 
			354.556,351.833 352.614,352.867 350.543,354.083 349.042,354.882 347.1,355.916 346.218,356.386 344.058,357.65 343.705,357.838 
			343.705,357.838 343.529,357.932 341.151,359.424 340.139,360.077 337.55,362.022 337.285,362.163 336.673,362.716 
			334.572,364.515 333.912,364.979 332.776,366.037 331.511,367.277 329.981,368.659 329.545,369.117 329.239,369.394 
			327.144,371.416 324.789,373.803 324.701,373.85 324.572,374.032 322.741,375.913 321.523,377.242 321.087,377.701 320.787,378.2 
			319.568,379.529 318.703,380.67 316.931,383.086 316.413,383.815 315.636,384.909 313.745,387.955 311.732,391.407 
			311.048,392.677 308.693,396.764 308.269,397.669 306.991,400.163 305.796,402.385 305.112,403.656 303.452,406.919 
			302.174,409.413 300.807,411.953 298.322,416.222 298.069,416.81 297.598,417.627 295.62,420.72 294.807,422.173 294.595,422.626 
			293.824,423.943 292.928,425.666 292.716,426.119 292.08,427.477 291.532,428.788 290.401,431.77 290.189,432.223 290.018,432.54 
			289.441,434.434 288.769,436.151 288.475,436.875 287.797,438.368 286.837,441.033 286.713,441.438 286.672,441.574 
			286.63,441.709 285.317,444.561 284.551,446.102 284.469,446.372 284.38,446.419 284.251,446.602 282.832,448.83 281.678,450.918 
			281.248,451.6 280.43,452.829 279.305,454.334 278.663,455.469 277.668,456.792 276.032,459.25 275.772,459.614 275.643,459.796 
			273.865,461.989 272.44,463.994 272.093,464.406 271.704,464.953 271.139,465.594 269.621,467.422 269.103,468.151 
			268.626,468.745 267.325,470.344 265.718,472.22 265.064,472.908 263.675,474.554 263.069,475.33 262.545,475.835 
			262.109,476.294 260.155,478.581 258.766,480.227 258.678,480.274 255.805,483.39 255.199,484.166 254.981,484.396 
			254.763,484.625 252.844,486.553 251.538,487.929 250.837,488.528 250.054,489.398 249.442,489.951 248.135,491.327 
			247.741,491.65 246.823,492.479 245.728,493.402 244.198,494.783 243.056,495.618 242.003,496.405 240.067,497.663 
			239.89,497.757 237.69,499.156 235.707,500.325 235.089,500.654 234.559,500.936 232.529,502.017 231.205,502.722 
			230.275,503.104 228.816,503.768 226.822,504.49 225.715,504.966 223.321,505.788 222.479,506.123 222.079,506.223 
			219.42,507.186 218.179,507.62 215.337,508.454 214.937,508.554 214.448,508.7 212.095,509.387 210.671,509.692 209.648,509.897 
			208.759,510.144 206.712,510.554 204.353,511.018 203.641,511.17 203.241,511.27 200.835,511.645 199.588,511.856 198.029,512.12 
			197.229,512.319 195.846,512.489 194.552,512.612 193.57,512.682 192.187,512.852 189.91,513.044 188.928,513.114 
			187.993,513.272 185.669,513.377 184.287,513.547 183.169,513.575 182.498,513.593 181.604,513.616 180.263,513.65 
			178.922,513.685 178.204,513.614 175.251,513.6 174.222,513.582 171.357,513.521 170.598,513.585 167.957,513.519 
			167.375,513.489 166.387,513.336 164.057,513.217 162.534,513.122 160.022,512.873 157.781,512.707 155.764,512.535 
			154.329,512.393 152.129,512.092 151.364,511.933 150.6,511.773 147.994,511.348 146.241,511.035 145.7,510.87 144.218,510.64 
			142.689,510.321 142.33,510.286 141.024,509.962 138.819,509.437 137.872,509.148 136.025,508.658 133.725,507.957 
			133.137,507.704 132.778,507.668 130.026,506.755 128.762,506.295 127.044,505.624 126.503,505.459 124.604,504.657 
			122.793,503.809 121.887,503.385 121.07,502.914 119.529,502.148 118.259,501.465 116.806,500.653 116.171,500.311 
			114.578,499.234 113.849,498.716 113.713,498.674 113.484,498.457 110.609,496.249 109.651,495.513 106.405,492.823 
			104.759,491.434 103.06,489.733 101.179,487.902 99.25,485.983 97.322,484.064 95.347,482.057 93.648,480.356 91.532,478.084 
			89.927,476.56 87.675,474.247 84.189,470.892 83.684,470.368 82.079,468.843 80.474,467.319 80.197,467.013 79.227,465.83 
			78.263,464.87 78.122,464.606 77.981,464.341 76.53,461.828 75.919,460.681 74.638,457.85 74.256,456.921 73.44,454.75 
			73.147,453.773 72.959,453.42 72.207,450.308 72.249,450.173 71.885,448.214 71.633,447.102 71.674,446.966 71.335,444.201 
			71.165,442.819 70.996,439.737 70.932,438.978 70.915,438.307 70.811,434.283 70.8,433.836 70.841,433.701 70.914,429.584 
			70.934,426.854 71.029,425.331 71.136,422.554 71.231,421.031 71.302,420.313 71.704,416.813 72.035,414.031 72.266,412.549 
			72.933,408.908 73.009,408.414 73.051,408.279 73.906,404.991 74.106,404.091 74.808,401.792 74.926,401.162 75.096,400.845 
			75.757,398.681 76.092,397.822 76.546,396.334 76.753,395.658 76.965,395.205 78.385,391.276 78.467,391.006 78.597,390.823 
			79.192,389.6 80.34,387.289 80.552,386.836 81.948,383.714 82.201,383.126 82.714,382.173 84.08,379.633 85.664,376.863 
			86.094,376.181 86.306,375.728 87.972,372.688 88.231,372.323 89.65,370.095 90.422,368.778 90.551,368.595 90.64,368.548 
			90.81,368.231 92.883,365.315 93.271,364.768 93.96,363.721 95.173,362.169 96.768,359.846 97.245,359.252 98.158,358.2 
			99.718,356.236 100.324,355.46 101.802,353.767 102.019,353.538 102.714,352.715 104.021,351.339 104.15,351.157 104.498,350.745 
			105.975,349.052 107.37,347.629 107.764,347.306 108.724,346.342 109.595,345.425 110.513,344.596 112.085,343.079 
			112.697,342.527 113.703,341.651 114.839,340.593 115.539,339.993 117.028,338.747 118.606,337.454 119.877,336.437 
			120.972,335.514 121.542,335.097 123.078,333.939 123.52,333.704 123.649,333.521 126.156,331.847 127.516,330.783 
			128.569,329.995 129.799,329.113 130.852,328.326 132.218,327.486 133.359,326.651 134.548,325.905 135.56,325.252 
			137.361,323.953 138.285,323.348 139.562,322.555 140.268,322.179 142.027,321.015 142.422,320.692 142.775,320.504 
			143.61,319.945 145.858,318.635 147.088,317.753 148.453,316.913 149.466,316.261 150.566,315.561 151.578,314.909 
			153.032,314.022 155.586,312.435 156.203,312.106 158.799,310.384 159.416,310.055 159.505,310.008 159.634,309.826 
			162.806,307.91 163.424,307.581 165.095,306.464 165.401,306.188 167.425,304.883 167.602,304.789 168.132,304.507 
			170.156,303.203 170.862,302.827 173.286,301.422 175.046,300.259 176.541,299.236 178.212,298.119 180.236,296.815 
			180.942,296.439 182.525,295.369 184.108,294.299 185.956,293.089 188.334,291.596 189.475,290.762 191.276,289.463 
			191.67,289.139 192.112,288.904 193.871,287.741 195.013,286.906 196.908,285.784 199.062,284.297 199.15,284.25 199.415,284.109 
			201.604,282.263 201.957,282.075 202.528,281.658 204.24,280.406 206.482,278.872 206.571,278.825 206.571,278.825 
			206.571,278.825 209.295,276.921 210.178,276.451 211.543,275.61 213.385,274.176 214.309,273.571 215.227,272.742 
			216.899,271.625 218.917,270.097 219.094,270.003 219.182,269.956 220.889,268.481 221.942,267.693 223.26,266.764 
			224.614,265.477 224.879,265.336 226.503,264.131 227.686,263.161 228.74,262.374 229.793,261.586 231.682,260.24 
			233.524,258.806 233.871,258.394 235.76,257.049 237.208,255.938 238.479,254.921 240.015,253.763 241.722,252.287 
			242.075,252.099 243.741,250.759 245.453,249.507 246.024,249.09 246.507,248.72 248.525,247.192 250.144,245.763 
			250.626,245.393 252.115,244.147 254.175,242.483 254.393,242.254 254.658,242.113 256.894,240.356 258.383,239.109 
			259.084,238.51 260.443,237.446 262.768,235.641 262.897,235.459 262.985,235.412 265.316,233.831 266.934,232.403 
			267.546,231.85 269.129,230.781 271.454,228.976 271.542,228.929 271.631,228.882 273.914,227.213 275.756,225.779 
			275.974,225.549 276.368,225.226 278.081,223.974 280.187,222.399 280.452,222.258 282.694,220.724 283.66,219.984 
			284.448,219.337 285.06,218.784 285.808,218.273 286.773,217.533 288.397,216.328 288.791,216.004 288.88,215.957 291.34,214.194 
			292.263,213.589 292.964,212.989 293.576,212.437 294.5,211.831 295.989,210.585 297.13,209.751 297.878,209.239 300.161,207.57 
			300.82,207.106 301.432,206.553 302.268,205.995 303.28,205.343 305.299,203.814 305.652,203.626 305.652,203.626 
			306.399,203.115 306.705,202.839 309.918,200.788 311.325,199.812 312.866,198.878 313.832,198.137 314.185,197.949 
			315.944,196.786 316.033,196.739 316.297,196.598 318.41,195.246 318.675,195.105 319.422,194.594 320.522,193.894 320.699,193.8 
			322.635,192.543 325.318,190.774 326.113,190.351 326.772,189.886 326.86,189.839 327.961,189.14 329.544,188.07 329.985,187.835 
			331.085,187.136 331.88,186.713 332.804,186.108 333.904,185.408 334.74,184.85 335.399,184.386 336.193,183.963 339.406,181.912 
			339.583,181.818 339.889,181.541 342.972,179.673 343.849,178.979 344.114,178.838 344.379,178.697 346.138,177.533 
			347.15,176.881 348.116,176.14 348.598,175.77 349.304,175.394 350.752,174.283 352.294,173.349 352.512,173.12 353.259,172.608 
			356.602,170.375 357.743,169.54 358.538,169.117 360.644,167.542 360.733,167.495 360.821,167.448 361.127,167.172 
			362.227,166.473 364.734,164.798 365.129,164.474 365.482,164.286 366.753,163.269 367.282,162.987 367.942,162.523 
			369.301,161.459 371.014,160.207 371.19,160.113 373.562,158.397 374.309,157.886 375.669,156.822 377.817,155.111 
			379.835,153.583 379.835,153.583 379.835,153.583 382.072,151.826 382.819,151.315 384.178,150.251 384.396,150.021 
			386.368,148.405 388.122,147.018 388.298,146.924 388.386,146.877 390.582,145.255 392.382,143.956 392.777,143.632 
			393.083,143.356 395.013,141.875 397.032,140.347 397.032,140.347 397.12,140.3 399.138,138.771 400.98,137.337 401.328,136.926 
			401.681,136.738 403.611,135.257 405.318,133.781 405.494,133.687 405.583,133.64 407.554,132.024 409.532,130.631 
			409.926,130.307 410.232,130.031 412.033,128.732 414.316,127.063 414.316,127.063 416.252,125.805 418.536,124.136 
			418.8,123.995 420.077,123.202 420.472,122.879 421.131,122.414 423.596,120.875 424.609,120.222 425.532,119.617 
			427.251,118.589 428.175,117.983 428.969,117.56 433.023,115.174 433.112,115.127 433.112,115.127 433.112,115.127 
			436.377,113.388 437.437,112.824 438.054,112.495 438.584,112.213 439.731,111.602 441.673,110.568 442.997,109.863 
			445.692,108.541 445.916,108.535 448.434,107.307 449.982,106.597 453.965,104.928 454.318,104.74 455.159,104.406 
			458.395,103.249 459.637,102.814 461.855,102.086 463.185,101.605 465.403,100.877 466.779,100.483 469.309,99.702 
			469.533,99.697 471.927,98.875 472.063,98.916 473.128,98.575 475.657,97.795 475.969,97.742 476.546,97.548 479.435,96.803 
			481.747,96.251 481.97,96.245 483.394,95.94 484.953,95.677 485.129,95.583 485.753,95.477 487.983,95.196 489.142,95.032 
			490.747,94.857 491.818,94.74 494.583,94.4 496.189,94.225 498.466,94.032 499.089,93.926 501.007,93.698 502.925,93.47 
			504.131,93.394 504.89,93.33 508.637,92.921 508.996,92.956 509.084,92.909 512.655,92.594 514.037,92.424 515.243,92.348 
			517.249,92.073 517.473,92.067 517.608,92.108 519.796,91.963 520.467,91.945 522.655,91.8 524.708,91.613 525.961,91.625 
			529.044,91.456 529.267,91.451 529.267,91.451 529.491,91.445 532.62,91.365 533.244,91.259 534.538,91.136 536.456,90.908 
			536.768,90.855 536.991,90.85 537.215,90.844 540.427,90.493 542.344,90.265 543.545,89.965 544.745,89.666 546.833,89.12 
			549.175,87.986 549.705,87.704 550.458,87.417 551.958,86.617 553.465,86.042 554.306,85.707 554.965,85.243 556.283,84.314 
			556.766,83.944 557.737,83.427 558.355,83.098 560.173,82.47 562.25,81.477 563.05,81.277 563.844,80.854 566.01,79.814 
			567.739,79.233 569.422,78.563 571.952,77.783 572.399,77.771 573.205,77.795 574.64,77.937 575.358,78.008 576.434,78.115 
			577.205,78.498 578.069,79.057 580.245,80.164 580.292,80.252 580.427,80.294 583.108,81.925 585.372,82.985 586.143,83.368 
			586.596,83.58 589.048,84.993 589.777,85.511 590.688,86.159 591.693,86.983 592.564,87.766 594.21,89.155 595.127,90.026 
			596.179,90.939 597.69,92.286 598.878,93.24 599.93,94.153 602.253,95.748 602.8,96.137 603.206,96.26 606.27,97.121 
			608.629,96.658 609.117,96.511 609.605,96.364 611.6,95.642 612.659,95.078 614.201,94.144 616.178,92.751 616.355,92.657 
			616.443,92.61 618.509,91.17 620.392,89.6 620.698,89.324 621.398,88.724 623.07,87.608 623.729,87.144 625.223,86.121 
			626.059,85.563 626.765,85.187 628.713,84.376 629.513,84.176 631.654,83.942 632.325,83.925 632.819,84.002 635.118,84.703 
			636.159,85.169 637.888,86.287 638.935,86.976 641.716,89.007 642.31,89.484 645.69,92.216 646.602,92.863 649.483,95.294 
			650.4,96.166 652.551,98.079 653.333,98.909 654.85,100.48 657.107,103.017 657.384,103.323 657.478,103.499 659.976,106.701 
			660.352,107.407 661.239,108.86 662.032,110.137 662.461,111.155 662.937,112.262 663.048,113.109 663.306,114.444 
			663.146,116.909 663.058,116.956 663.058,116.956 662.133,119.261 660.873,120.725 660.526,121.137 660.131,121.46 
			658.154,122.853 657.224,123.234 656.118,123.71 654.794,124.415 653.241,124.903 651.552,125.349 650.929,125.454 
			650.705,125.46 650.211,125.383 648.335,125.476 647.394,125.411 644.882,125.162 643.988,125.185 643.182,125.161 
			641.523,125.025 640.494,125.007 639.376,125.035 638.212,124.976 637.182,124.958 636.6,124.928 635.576,125.133 633.923,125.22 
			632.364,125.484 631.476,125.731 630.187,126.077 628.593,126.699 628.463,126.882 626.651,127.734 625.551,128.433 
			623.65,129.332 622.773,130.025 621.59,130.995 620.178,131.747 619.266,132.8 618.318,134.211 618.129,135.558 618.469,136.623 
			619.003,138.264 620.255,139.977 620.866,141.124 621.19,141.518 622.665,143.225 623.723,144.361 624.088,144.62 
			627.339,147.534 627.703,147.793 629.673,149.577 631.184,150.925 631.413,151.142 634.617,153.968 635.488,154.751 
			638.062,157.458 638.292,157.676 638.339,157.764 638.979,158.329 641.143,160.689 641.419,160.995 641.883,161.655 
			643.635,163.667 644.235,164.368 645.622,166.122 646.592,167.305 647.056,167.964 648.079,169.458 648.449,169.941 
			648.866,170.512 650.259,172.489 651.052,173.766 652.539,175.92 652.586,176.008 652.586,176.008 654.079,178.386 
			655.718,181.251 655.765,181.34 655.765,181.34 657.781,184.911 658.251,185.794 659.097,187.383 660.037,189.148 
			660.701,190.607 661.412,192.155 662.363,194.367 662.416,194.679 663.421,197.203 663.802,198.133 664.771,201.016 
			665.112,202.08 665.704,204.257 665.945,204.922 666.145,205.722 666.45,207.146 666.655,208.17 667.001,209.458 667.254,210.57 
			667.864,213.417 667.916,213.729 668.063,214.218 668.38,216.088 668.579,216.888 668.972,218.265 669.119,218.754 
			669.454,219.595 669.742,220.348 670.782,222.513 670.97,222.866 671.246,223.172 672.768,224.968 672.904,225.009 
			674.544,226.174 675.673,226.593 677.967,227.071 679.173,226.995 681.491,226.667 682.203,226.514 682.956,226.227 
			683.532,226.033 684.639,225.557 684.903,225.416 686.886,224.247 687.063,224.153 687.063,224.153 689.352,222.707 
			690.229,222.013 692.03,220.715 692.336,220.438 694.313,219.045 695.013,218.446 695.849,217.887 696.42,217.47 697.209,216.824 
			698.309,216.124 699.362,215.337 700.728,214.496 702.222,213.474 703.017,213.051 703.282,212.91 703.723,212.675 
			705.971,211.364 707.077,210.888 709.066,209.943 709.466,209.843 710.572,209.367 712.655,208.598 713.143,208.451 
			714.832,208.005 716.561,207.424 716.961,207.324 719.45,206.678 719.85,206.579 722.033,206.209 723.368,205.951 
			726.757,205.506 727.38,205.401 728.363,205.331 731.039,205.038 732.469,204.957 734.481,204.905 736.222,204.771 
			737.339,204.742 739.128,204.696 741.898,204.58 742.345,204.569 742.569,204.563 745.204,204.406 745.787,204.435 
			748.24,204.149 748.91,204.132 750.652,203.997 751.946,203.875 752.975,203.893 755.128,204.106 756.163,204.348 
			759.145,205.479 759.233,205.432 759.28,205.52 759.28,205.52 761.344,207.48 761.861,208.451 		">
		</polygon>
	</g>
</g>
<g id="Layer_1">
</g>
</svg>
