<?xml version="1.0" encoding="iso-8859-1"?>
<!-- Generator: Adobe Illustrator 19.2.1, SVG Export Plug-In . SVG Version: 6.00 Build 0)  -->
<svg version="1.1" xmlns="http://www.w3.org/2000/svg" xmlns:xlink="http://www.w3.org/1999/xlink" x="0px" y="0px"
	 viewBox="0 0 841.89 595.28" style="enable-background:new 0 0 841.89 595.28;" xml:space="preserve">
<g id="layer225">
	<g id="layer225_1_" slic3r:z="9.02000000000007e-005">
		<polygon slic3r:type="contour" style="fill:#FFFFFF;stroke:#000000;stroke-miterlimit:10;" points="656.549,110.905 
			657.031,112.234 657.036,114.158 656.888,115.37 656.205,116.64 655.646,117.504 654.209,119.062 653.685,119.568 
			653.509,119.662 653.026,120.032 651.226,121.331 650.696,121.613 649.543,122 648.831,122.153 647.448,122.323 645.925,122.228 
			643.913,122.279 642.484,122.361 640.966,122.489 639.937,122.471 639.313,122.577 638.284,122.558 637.613,122.576 
			636.184,122.657 635.066,122.686 634.442,122.791 632.436,123.066 631.813,123.172 630.077,123.53 629.23,123.641 
			627.942,123.987 626.477,124.428 625.812,124.668 623.235,125.361 623.147,125.408 621.852,125.531 620.558,125.653 
			620.335,125.659 618.235,125.758 616.441,125.58 615.306,124.938 613.988,124.167 613.077,123.519 611.56,121.948 
			610.773,120.894 609.509,118.735 608.635,116.028 608.253,115.099 607.948,113.675 607.302,111.186 607.356,109.798 
			607.287,107.116 607.658,105.898 608.777,104.17 609.507,102.988 611.085,101.695 612.956,99.678 613.309,99.49 613.704,99.167 
			615.675,97.55 616.593,96.722 617.776,95.752 618.783,94.876 619.53,94.364 621.325,92.842 621.59,92.701 621.678,92.654 
			623.744,91.214 624.933,90.468 625.945,89.815 628.016,88.599 628.369,88.411 628.634,88.27 630.593,87.907 631.887,87.784 
			633.411,87.879 634.175,88.038 635.445,88.721 635.716,88.804 637.803,89.958 638.121,90.129 638.486,90.388 641.314,92.507 
			642.225,93.155 642.272,93.243 642.501,93.461 645.617,96.333 646.987,97.416 648.592,98.941 650.338,100.73 651.49,102.043 
			653.336,104.232 653.659,104.626 653.847,104.979 654.317,105.862 655.393,107.669 655.816,108.463 		">
		</polygon>
		<polygon slic3r:type="contour" style="fill:#FFFFFF;stroke:#000000;stroke-miterlimit:10;" points="759.765,210.473 
			760.846,212.503 761.204,214.239 761.304,214.639 761.456,217.051 761.573,218.122 761.377,220.945 761.3,221.439 760.91,223.686 
			760.243,227.327 760.202,227.462 760.161,227.597 760.161,227.597 758.647,231.349 758.523,231.755 758.228,232.478 
			756.951,234.972 756.191,236.736 755.678,237.689 754.489,240.135 754.489,240.135 754.489,240.135 752.722,242.775 
			752.422,243.275 751.91,244.227 750.92,245.774 749.713,247.55 749.325,248.096 748.848,248.69 747.5,250.201 746.888,250.754 
			745.063,252.859 744.28,253.729 743.933,254.14 741.096,256.897 740.178,257.726 738.165,259.478 736.982,260.448 
			735.758,261.553 734.616,262.388 732.068,264.198 731.674,264.521 731.409,264.662 728.637,266.478 727.142,267.501 
			726.172,268.018 723.659,269.469 722.158,270.268 719.287,271.684 717.251,272.542 715.127,273.446 712.203,274.55 
			710.426,275.043 705.984,276.276 705.896,276.323 705.896,276.323 705.896,276.323 701.448,277.332 697.712,278.189 
			697.712,278.189 697.624,278.236 693.888,279.092 691.623,279.732 690.07,280.219 686.475,281.341 686.252,281.346 
			684.922,281.828 682.351,282.744 682.039,282.797 677.832,284.471 677.567,284.612 676.814,284.899 673.849,286.139 
			672.478,286.756 671.636,287.09 670.265,287.707 667.747,288.935 666.776,289.452 665.805,289.969 663.64,291.009 661.48,292.272 
			661.039,292.507 660.862,292.601 659.232,293.583 658.968,293.724 658.615,293.912 656.543,295.128 656.19,295.316 
			655.572,295.645 653.277,296.867 651.647,297.849 650.106,298.783 647.946,300.047 647.593,300.235 645.657,301.492 
			644.686,302.009 642.527,303.273 641.82,303.649 640.585,304.307 638.69,305.429 637.013,306.322 636.219,306.745 
			633.882,308.103 633.529,308.291 630.881,309.701 630.175,310.077 627.392,311.446 625.845,312.157 623.285,313.52 
			622.62,313.761 620.855,314.701 619.484,315.317 619.131,315.505 615.901,316.886 614.53,317.503 612.317,318.454 
			610.105,319.406 608.157,320.216 605.721,321.174 605.015,321.55 602.933,322.319 601.779,322.707 599.655,323.611 
			597.749,324.287 596.419,324.768 593.319,325.966 590.747,326.882 589.065,327.552 585.34,328.855 584.764,329.049 
			582.281,329.918 580.598,330.588 580.198,330.688 576.427,331.903 575.185,332.338 572.255,333.218 570.167,333.764 
			567.902,334.404 564.789,335.155 563.678,335.407 561.901,335.9 559.942,336.264 559.095,336.375 555.935,337.038 
			555.712,337.043 555,337.196 552.817,337.565 551.97,337.676 550.052,337.905 548.582,338.121 547.511,338.238 545.993,338.367 
			544.076,338.595 542.334,338.729 539.211,339.033 538.005,339.109 535.104,339.407 532.604,339.606 530.375,339.887 
			527.563,340.138 527.339,340.144 526.804,340.202 524.616,340.348 524.392,340.354 521.575,340.381 521.216,340.346 
			519.069,340.356 517.816,340.344 517.457,340.308 514.633,340.112 513.422,339.965 511.628,339.787 510.281,339.598 
			508.71,339.415 506.958,339.102 505.164,338.924 502.293,338.64 501.305,338.487 497.358,338.096 497.135,338.102 
			496.999,338.061 496.194,338.036 493.053,337.67 492.423,337.552 491.259,337.492 489.106,337.279 486.682,336.984 
			485.159,336.889 482.871,336.634 482.018,336.522 479.912,336.397 478.924,336.244 478.565,336.208 475.83,335.965 
			473.948,335.835 472.648,335.734 471.93,335.663 470.407,335.568 468.436,335.484 467.36,335.378 465.478,335.247 
			464.131,335.058 462.201,334.839 461.484,334.768 460.137,334.579 458.608,334.261 457.755,334.148 455.82,333.706 
			451.908,332.957 451.82,333.004 451.82,333.004 451.55,332.921 448.085,332.16 447.456,332.042 445.068,331.388 443.539,331.069 
			442.051,330.615 439.845,330.09 439.122,329.796 436.24,329.065 436.24,329.065 435.699,328.9 433.447,328.287 432.952,328.21 
			430.876,327.503 428.624,326.889 426.954,326.306 425.019,325.864 424.883,325.823 422.943,325.157 421.637,324.832 
			418.89,324.142 417.049,323.877 416.014,323.635 415.432,323.605 414.267,323.545 413.326,323.48 411.849,323.473 
			410.102,323.384 408.72,323.554 407.291,323.635 405.996,323.758 404.437,324.022 402.567,324.338 399.807,324.901 398.207,325.3 
			395.942,325.94 394.965,326.234 392.747,326.962 390.264,327.831 389.111,328.218 388.093,328.647 385.834,329.51 
			383.798,330.368 381.056,331.602 380.88,331.696 378.138,332.929 377.12,333.358 375.219,334.257 373.672,334.968 
			372.171,335.767 369.565,337.042 369.3,337.183 368.947,337.371 366.258,338.916 365.11,339.527 363.174,340.785 362.427,341.296 
			361.326,341.996 360.273,342.783 359.437,343.341 358.425,343.994 357.013,344.746 356.001,345.398 354.194,346.474 
			351.993,347.872 351.158,348.431 349.834,349.136 348.557,349.929 347.851,350.305 345.603,351.615 344.544,352.18 
			342.472,353.396 341.943,353.678 341.678,353.819 340.048,354.8 339.077,355.317 338.859,355.547 338.242,355.876 336.217,357.18 
			335.034,358.15 333.804,359.032 332.186,360.46 331.438,360.972 330.609,361.753 329.473,362.811 328.378,363.734 327.46,364.563 
			327.112,364.975 325.235,366.768 324.623,367.32 322.969,369.108 321.662,370.483 320.879,371.353 320.314,371.994 
			319.313,373.094 317.93,374.963 317.842,375.01 317.842,375.01 315.893,377.521 314.25,379.755 313.732,380.484 313.002,381.666 
			311.884,383.395 310.859,385.3 310.129,386.482 309.275,388.07 307.779,390.792 307.102,392.286 304.811,397.132 304.516,397.855 
			304.386,398.037 304.174,398.49 302.307,402.43 301.241,404.471 299.969,407.188 299.539,407.87 298.22,410.498 297.237,412.268 
			295.653,415.038 294.799,416.626 294.027,417.943 292.102,421.348 292.019,421.618 291.289,422.8 290.353,424.658 289.805,425.97 
			289.339,427.011 287.996,430.445 287.49,431.621 287.201,432.568 286.411,434.915 285.916,436.538 285.922,436.761 
			285.88,436.897 285.757,437.303 284.507,440.914 284.248,441.278 283.918,442.36 282.864,444.848 282.44,445.753 281.886,446.841 
			281.715,447.159 281.674,447.294 281.545,447.476 279.66,450.746 279.065,451.969 278.418,452.88 277.47,454.292 276.481,455.838 
			276.139,456.473 274.932,458.249 273.119,460.801 272.989,460.983 272.73,461.348 271.211,463.176 269.963,465.087 
			269.139,466.092 268.968,466.41 268.751,466.639 268.144,467.415 267.579,468.056 266.672,469.332 265.242,471.114 
			264.724,471.843 264.418,472.119 263.288,473.401 261.804,474.87 260.068,476.928 259.679,477.475 259.373,477.751 
			257.937,479.309 256.289,481.32 255.724,481.961 254.811,483.013 253.157,484.8 252.722,485.259 252.109,485.811 251.503,486.588 
			250.108,488.01 249.278,488.792 249.06,489.021 247.183,490.814 246.135,491.826 245.129,492.701 243.028,494.5 242.763,494.641 
			242.192,495.058 240.786,496.034 239.862,496.639 238.408,497.527 236.955,498.414 234.972,499.583 234.795,499.677 
			234.666,499.86 232.9,500.8 231.753,501.411 230.647,501.887 229.364,502.456 228.034,502.938 225.687,503.848 225.11,504.042 
			224.845,504.183 221.962,505.152 219.833,505.833 218.591,506.268 217.35,506.702 215.396,507.289 213.267,507.97 
			212.643,508.076 209.931,508.727 209.843,508.774 209.754,508.821 206.86,509.343 204.548,509.894 203.612,510.053 202.9,510.205 
			200.853,510.616 199.606,510.827 198.047,511.09 196.8,511.301 194.882,511.53 194.347,511.588 193.5,511.699 191.758,511.834 
			189.841,512.062 188.77,512.179 188.011,512.243 185.911,512.342 184.393,512.47 182.652,512.604 181.981,512.622 
			180.193,512.668 179.746,512.679 179.611,512.638 176.881,512.619 176.57,512.671 174.287,512.641 172.811,512.634 
			172.675,512.593 172.228,512.604 169.723,512.579 168.111,512.531 167.393,512.46 166.364,512.442 164.211,512.229 
			163.27,512.163 159.505,511.902 159.011,511.825 158.517,511.749 155.647,511.465 154.57,511.358 152.235,511.015 
			150.259,510.708 148.418,510.442 145.901,509.97 145.677,509.976 145.542,509.935 142.889,509.421 140.684,508.897 
			139.378,508.572 137.802,508.165 136.178,507.67 134.467,507.222 133.655,506.975 131.85,506.35 131.085,506.191 130.903,506.061 
			128.556,505.272 126.163,504.394 125.71,504.182 125.575,504.14 125.122,503.928 122.27,502.615 119.553,501.343 119.188,501.084 
			118.6,500.83 116.513,499.676 115.784,499.158 114.737,498.469 114.419,498.298 112.55,496.915 112.003,496.526 109.128,494.319 
			107.846,493.188 105.053,490.71 103.172,488.88 102.437,488.138 100.785,486.525 98.669,484.253 98.164,483.73 97.57,483.253 
			93.614,479.015 92.926,478.362 89.205,474.565 88.605,473.865 87.276,472.646 84.519,469.809 82.961,468.373 81.862,467.373 
			80.48,465.842 80.116,465.583 79.187,464.265 78.447,463.3 77.789,462.064 77.319,461.182 76.895,460.387 75.803,457.91 
			75.374,456.892 74.887,455.339 74.452,454.097 73.724,451.879 73.765,451.744 73.671,451.568 73.161,449.12 72.997,447.961 
			72.475,445.067 72.517,444.932 72.423,444.755 72.224,442.255 72.148,441.049 72.061,439.396 71.898,436.537 71.887,436.09 
			71.924,432.331 71.884,430.766 71.95,428.125 72.071,424.096 72.065,423.872 72.1,423.514 72.361,419.749 72.616,417.461 
			72.835,415.532 73.443,411.356 73.443,411.356 73.443,411.356 74.198,407.668 74.599,405.868 75.006,404.292 75.372,402.851 
			75.82,401.139 76.403,399.469 76.698,398.746 77.281,397.076 77.493,396.623 77.534,396.488 78.412,394.094 78.495,393.823 
			79.461,391.383 80.262,389.483 80.857,388.26 81.617,386.496 82.636,384.367 83.355,382.738 84.974,379.61 85.186,379.157 
			85.875,378.11 86.823,376.699 87.377,375.611 87.93,374.523 88.914,372.753 89.214,372.253 89.385,371.936 90.98,369.613 
			92.016,368.155 93.223,366.379 94.177,365.192 95.902,362.687 96.161,362.322 96.291,362.14 98.327,359.583 99.105,358.489 
			100.364,357.025 100.929,356.384 102.319,354.738 103.013,353.915 103.361,353.503 105.103,351.669 106.539,350.111 
			107.104,349.47 108.935,347.589 108.976,347.454 109.064,347.407 111.071,345.431 111.86,344.785 114.002,342.851 
			114.832,342.069 116.145,340.917 118.028,339.347 118.552,338.842 119.252,338.242 121.094,336.808 121.971,336.115 
			123.201,335.233 123.99,334.586 126.538,332.776 127.067,332.494 127.197,332.312 127.55,332.124 130.275,330.22 131.593,329.291 
			132.646,328.503 134.494,327.293 135.506,326.64 136.43,326.035 138.013,324.966 139.82,323.89 140.214,323.567 142.285,322.35 
			142.945,321.886 144.398,320.999 145.145,320.488 146.952,319.412 148.711,318.249 149.153,318.013 149.459,317.737 
			151.177,316.709 152.101,316.104 154.349,314.793 154.525,314.699 154.614,314.652 154.92,314.376 157.874,312.689 
			158.886,312.037 161.528,310.403 163.246,309.375 165.8,307.788 166.812,307.136 167.56,306.625 169.761,305.226 170.42,304.762 
			173.55,302.981 173.903,302.793 174.121,302.564 176.41,301.118 177.334,300.513 179.488,299.026 180.017,298.744 
			180.459,298.509 183.536,296.417 184.154,296.088 184.725,295.67 187.809,293.802 188.38,293.384 190.269,292.039 
			191.763,291.016 192.205,290.781 193.082,290.087 195.106,288.783 197.171,287.343 198.184,286.69 200.337,285.203 
			201.085,284.692 201.391,284.416 204.163,282.6 205.216,281.812 207.417,280.414 207.417,280.414 209.918,278.515 
			210.312,278.192 212.737,276.787 214.579,275.353 216.38,274.054 218.18,272.755 219.581,271.556 220.37,270.91 221.07,270.31 
			222.388,269.382 223.795,268.406 224.983,267.66 226.337,266.372 226.82,266.002 228.267,264.891 229.715,263.78 230.327,263.228 
			232.216,261.882 233.182,261.141 235.2,259.613 235.33,259.431 237.348,257.902 238.402,257.115 240.638,255.357 241.644,254.482 
			243.663,252.953 243.881,252.724 245.546,251.384 246.817,250.367 247.388,249.95 249.319,248.469 250.019,247.869 
			252.038,246.341 252.079,246.206 253.833,244.818 255.363,243.437 255.716,243.249 257.776,241.585 258.347,241.168 
			259.659,240.016 260.318,239.552 260.624,239.275 262.072,238.165 263.737,236.824 263.914,236.73 265.974,235.067 
			266.456,234.697 266.456,234.697 266.545,234.65 268.869,232.845 269.481,232.293 270.888,231.317 272.247,230.253 
			272.906,229.789 274.925,228.261 275.319,227.937 275.931,227.385 277.426,226.362 278.433,225.486 280.016,224.417 
			280.981,223.676 283.611,221.595 284.141,221.313 284.577,220.855 286.554,219.462 287.125,219.045 288.396,218.028 
			289.844,216.917 292.433,214.971 292.739,214.695 293.222,214.325 295.064,212.891 295.635,212.473 296.865,211.592 
			298.577,210.34 301.12,208.306 301.337,208.077 301.779,207.842 302.656,207.148 303.756,206.449 304.503,205.937 
			305.339,205.379 305.645,205.103 306.922,204.31 310.218,201.988 310.482,201.847 310.965,201.477 312.018,200.689 
			312.813,200.266 314.001,199.52 314.219,199.29 314.702,198.92 315.408,198.544 315.89,198.174 317.256,197.333 318.709,196.446 
			319.41,195.847 319.763,195.658 320.645,195.188 323.417,193.372 323.899,193.002 324.076,192.908 327.201,190.904 
			327.466,190.763 328.125,190.299 328.695,189.882 330.59,188.759 331.909,187.831 332.391,187.46 333.315,186.855 
			333.668,186.667 333.756,186.62 334.768,185.968 336.84,184.751 337.016,184.657 337.852,184.099 340.888,182.142 
			342.736,180.931 342.954,180.702 343.837,180.232 344.89,179.444 345.108,179.215 346.032,178.61 347.044,177.957 
			347.309,177.816 349.374,176.377 349.904,176.094 351.528,174.89 353.594,173.45 356.23,171.592 356.318,171.545 357.854,170.388 
			358.384,170.106 358.955,169.688 360.185,168.807 360.756,168.389 362.074,167.461 365.281,165.186 366.117,164.628 
			366.335,164.399 366.511,164.305 366.994,163.934 369.718,162.03 370.642,161.425 371.654,160.772 374.109,158.786 
			374.856,158.274 375.556,157.675 378.363,155.5 379.152,154.853 382.571,152.126 383.142,151.709 383.36,151.48 383.448,151.433 
			383.578,151.25 386.779,148.752 387.656,148.059 388.71,147.271 391.123,145.42 391.87,144.908 391.823,144.82 391.911,144.773 
			391.911,144.773 392.088,144.679 395.466,142.087 396.125,141.623 396.213,141.576 397.443,140.694 399.721,138.801 
			400.421,138.202 400.421,138.202 400.509,138.155 400.509,138.155 403.929,135.427 404.676,134.916 404.764,134.869 
			405.906,134.034 408.272,132.095 408.972,131.495 409.06,131.448 409.325,131.307 412.662,128.85 413.233,128.433 
			416.705,126.017 417.099,125.694 417.494,125.371 417.582,125.324 418.418,124.766 420.618,123.367 421.672,122.579 
			421.76,122.532 422.684,121.927 425.985,119.829 426.338,119.641 428.498,118.378 430.04,117.443 430.216,117.349 
			430.522,117.073 431.14,116.744 434.318,115.052 434.447,114.869 435.506,114.305 436.124,113.976 436.301,113.882 
			438.066,112.942 438.684,112.613 439.213,112.331 441.067,111.344 442.967,110.445 446.368,108.747 446.857,108.601 
			447.122,108.46 448.316,107.937 449.334,107.508 451.146,106.656 451.811,106.415 455.53,104.888 457.524,104.166 
			459.607,103.397 463.155,102.187 463.82,101.946 464.396,101.752 467.815,100.725 468.126,100.672 470.303,100.08 471.145,99.745 
			472.745,99.346 474.386,98.811 476.475,98.266 479.94,97.327 479.94,97.327 480.028,97.28 481.187,97.116 483.011,96.711 
			483.099,96.664 485.37,96.248 487.776,95.873 488.176,95.773 490.629,95.486 491.7,95.369 494.865,94.93 495.624,94.866 
			496.871,94.655 499.059,94.509 499.995,94.351 502.183,94.205 503.254,94.088 506.242,93.743 507.225,93.673 509.813,93.427 
			511.331,93.299 513.207,93.206 515.125,92.977 516.866,92.843 517.984,92.814 518.608,92.709 520.666,92.745 521.337,92.728 
			522.59,92.741 523.261,92.724 526.214,92.737 526.437,92.731 526.931,92.808 529.349,92.88 531.049,92.881 531.719,92.864 
			533.69,92.948 534.584,92.925 534.807,92.919 534.943,92.96 535.478,92.902 538.213,93.144 539.419,93.069 541.837,93.141 
			542.996,92.977 546.302,92.802 547.102,92.603 548.879,92.11 549.679,91.91 550.432,91.622 551.538,91.147 553.086,90.436 
			554.062,90.142 554.462,90.043 557.734,88.527 558.175,88.292 558.964,87.645 561.123,86.382 561.565,86.147 562.318,85.859 
			564.536,85.131 567.448,83.58 567.537,83.533 567.584,83.621 570.69,82.647 571.984,82.524 574.043,82.56 576.561,83.032 
			577.825,83.492 580.224,84.594 581.312,85.147 582.124,85.395 585.299,87.102 585.299,87.102 585.346,87.191 585.482,87.232 
			588.674,89.61 588.951,89.916 591.614,92.577 592.031,93.148 592.542,93.895 593.877,95.337 593.971,95.514 594.77,97.014 
			594.958,97.367 594.958,97.367 595.427,99.95 594.99,102.108 594.936,103.497 594.559,104.49 593.823,105.449 592.675,107.76 
			591.951,109.165 591.108,111.2 591.166,113.435 590.894,115.053 591.769,117.759 592.198,118.777 592.474,119.083 
			594.972,122.285 595.384,122.632 595.66,122.938 597.624,124.498 598.852,125.317 599.123,125.399 599.576,125.611 
			602.475,127.013 604.021,128.002 605.709,129.256 607.349,130.422 608.607,132.358 609.389,133.188 611.182,135.065 
			612.558,136.372 614.256,138.073 616.596,140.339 617.519,141.434 620.453,144.177 620.729,144.483 623.839,147.132 
			624.068,147.35 624.068,147.35 624.204,147.391 627.537,150.034 628.178,150.599 630.877,152.901 631.335,153.336 633.44,155.161 
			634.54,156.162 636.192,157.775 636.603,158.122 637.985,159.652 638.766,160.482 639.731,161.441 641.206,163.148 
			641.482,163.454 642.358,164.461 643.234,165.467 643.375,165.732 643.745,166.215 644.809,167.574 645.644,168.716 
			646.014,169.198 646.708,170.075 647.219,170.823 648.565,172.712 649.358,173.989 649.775,174.559 651.409,177.202 
			651.409,177.202 651.409,177.202 652.72,179.449 653.607,180.903 653.842,181.344 654.682,182.709 655.481,184.21 
			656.421,185.975 656.85,186.993 658.354,189.818 658.495,190.082 658.501,190.306 659.917,193.177 660.252,194.019 
			661.015,195.878 661.015,195.878 661.062,195.966 661.832,198.049 662.313,199.379 662.754,200.844 663.429,202.75 
			663.969,204.615 664.462,206.392 664.802,207.457 665.108,208.88 665.301,209.457 665.911,212.305 665.911,212.305 
			665.958,212.393 666.516,214.928 666.715,215.729 666.821,216.352 667.067,217.241 667.366,218.441 667.372,218.664 
			668.288,221.235 668.382,221.412 668.476,221.588 669.663,224.242 670.309,225.031 670.821,225.778 672.144,226.773 
			672.602,227.209 672.696,227.385 676.125,228.505 676.26,228.546 677.737,228.553 679.796,228.589 679.972,228.495 
			681.172,228.196 683.349,227.603 683.437,227.556 683.702,227.415 685.156,226.528 686.303,225.917 687.05,225.406 
			688.81,224.242 689.428,223.913 690.305,223.219 691.576,222.202 693.989,220.351 694.077,220.304 694.077,220.304 
			694.077,220.304 694.648,219.887 696.184,218.729 696.313,218.547 697.72,217.571 699.874,216.084 700.533,215.62 
			700.839,215.343 702.116,214.55 702.51,214.227 703.787,213.433 705.905,212.305 706.612,211.929 707.053,211.694 708.512,211.03 
			709.971,210.367 710.86,210.12 713.343,209.251 715.472,208.57 715.872,208.47 718.138,207.83 718.761,207.725 720.897,207.267 
			721.609,207.115 723.879,206.699 724.015,206.74 724.103,206.693 727.45,206.383 729.368,206.155 730.933,206.115 
			731.915,206.045 734.015,205.946 735.045,205.964 737.774,205.984 738.803,206.002 741.486,205.933 742.292,205.957 
			742.65,205.992 745.962,206.041 746.498,205.983 746.809,205.93 747.792,205.86 750.298,205.885 751.462,205.945 752.403,206.01 
			753.303,206.211 754.521,206.582 755.556,206.824 757.279,207.719 757.414,207.76 757.596,207.89 759.066,209.373 759.478,209.72 
					">
		</polygon>
	</g>
</g>
<g id="Layer_1">
</g>
</svg>
