<?xml version="1.0" encoding="iso-8859-1"?>
<!-- Generator: Adobe Illustrator 19.2.1, SVG Export Plug-In . SVG Version: 6.00 Build 0)  -->
<svg version="1.1" xmlns="http://www.w3.org/2000/svg" xmlns:xlink="http://www.w3.org/1999/xlink" x="0px" y="0px"
	 viewBox="0 0 841.89 595.28" style="enable-background:new 0 0 841.89 595.28;" xml:space="preserve">
<g id="layer242">
	<g id="layer242_1_" slic3r:z="9.70000000000008e-005">
		<polygon slic3r:type="contour" style="fill:#FFFFFF;stroke:#000000;stroke-miterlimit:10;" points="771.179,198.504 
			771.32,198.769 772.112,201.746 772.264,202.457 772.427,205.316 772.509,206.746 772.089,209.575 772.107,210.246 
			771.989,210.875 771.464,213.081 771.263,213.98 771.181,214.251 770.091,217.097 769.631,218.362 768.618,220.714 
			768.241,221.708 767.687,222.796 766.963,224.201 766.244,225.83 765.903,226.465 765.685,226.695 764.784,228.194 
			764.178,228.97 763.012,230.611 762.841,230.928 761.628,232.48 760.981,233.392 760.94,233.527 760.763,233.621 759.032,235.902 
			758.208,236.908 757.207,238.007 756.642,238.648 755.3,240.382 755.082,240.612 753.646,242.17 752.687,243.134 751.292,244.557 
			750.509,245.427 749.767,246.161 748.284,247.631 747.372,248.684 745.759,250.335 745.364,250.659 743.84,252.264 
			743.187,252.952 742.056,254.233 741.403,254.921 740.008,256.344 739.614,256.667 739.572,256.802 737.477,258.825 
			737.171,259.101 736.736,259.559 735.294,260.894 734.158,261.952 733.457,262.552 731.491,264.392 731.097,264.715 
			731.009,264.762 730.832,264.856 729.084,266.466 728.031,267.254 727.195,267.812 726.713,268.183 724.253,269.946 
			724.076,270.04 723.77,270.316 721.699,271.533 720.422,272.326 719.186,272.984 716.803,274.253 716.715,274.3 716.627,274.347 
			714.238,275.393 713.531,275.769 711.76,276.485 711.096,276.726 709.854,277.161 707.724,277.842 706.306,278.37 
			704.353,278.957 702.976,279.351 701.776,279.65 701.023,279.938 700.135,280.184 699.246,280.431 696.981,281.07 
			696.093,281.317 692.986,282.292 692.986,282.292 692.898,282.339 690.192,283.213 687.932,284.077 687.579,284.265 
			685.673,284.94 685.673,284.94 684.037,285.698 683.949,285.745 681.648,286.744 680.366,287.313 678.642,288.118 
			677.582,288.682 675.594,289.628 674.446,290.239 673.034,290.991 671.18,291.978 668.356,293.482 668.091,293.624 
			667.915,293.717 665.314,295.216 663.419,296.338 662.095,297.043 660.73,297.884 659.059,299 657.958,299.7 656.458,300.499 
			656.369,300.546 654.475,301.668 652.933,302.603 652.227,302.979 649.279,304.889 649.102,304.983 648.925,305.077 
			648.749,305.171 645.489,307.133 644.653,307.692 643.553,308.391 642.229,309.096 640.952,309.889 639.852,310.589 
			639.498,310.777 638.174,311.482 635.838,312.839 634.691,313.45 633.502,314.197 632.443,314.761 631.072,315.377 
			629.925,315.989 628.159,316.929 627.806,317.117 627.542,317.258 625.376,318.297 623.74,319.055 623.252,319.202 
			621.528,320.007 619.227,321.006 617.768,321.669 615.068,322.768 613.385,323.437 611.037,324.348 608.29,325.358 
			606.783,325.933 604.259,326.938 603.106,327.325 602.529,327.519 601.6,327.901 599.029,328.817 597.787,329.251 
			596.104,329.921 594.51,330.543 592.604,331.219 590.791,332.071 589.462,332.552 587.649,333.404 586.055,334.026 
			583.489,335.166 582.472,335.595 581.854,335.924 579.33,336.928 578.135,337.451 577.782,337.639 573.575,339.313 
			572.469,339.789 569.015,341.175 567.509,341.751 564.938,342.667 562.32,343.494 560.278,344.128 557.213,344.968 
			556.236,345.261 555.524,345.414 552.236,346.259 549.3,346.916 548.053,347.127 544.982,347.743 543.646,348.001 543.47,348.095 
			543.07,348.194 539.416,348.78 538.169,348.991 535.722,349.502 535.01,349.654 534.251,349.719 531.18,350.334 529.221,350.698 
			527.262,351.061 525.391,351.378 523.032,351.841 522.632,351.941 522.144,352.088 518.979,352.527 518.979,352.527 
			518.891,352.574 515.143,352.983 515.055,353.03 514.831,353.036 512.243,353.282 510.637,353.457 509.519,353.486 
			507.555,353.626 506.796,353.69 506.484,353.743 504.113,353.759 502.284,353.94 501.254,353.922 499.154,354.021 
			498.172,354.091 496.654,354.219 494.195,354.282 493.39,354.258 491.648,354.393 490.531,354.421 490.131,354.521 
			487.76,354.537 485.93,354.719 483.783,354.729 482.666,354.758 481.995,354.775 480.789,354.851 479.895,354.874 
			478.689,354.949 477.171,355.078 475.742,355.159 473.242,355.358 469.448,355.679 469,355.691 468.777,355.696 464.806,356.112 
			463.288,356.24 461.012,356.433 460.924,356.48 459.494,356.561 458.512,356.631 456.947,356.671 456.188,356.736 453.37,356.763 
			452.923,356.775 452.612,356.828 451.717,356.851 448.406,356.802 447.688,356.73 444.818,356.446 444.147,356.464 
			444.012,356.422 440.959,356.009 439.924,355.767 437.007,355.395 436.512,355.318 435.436,355.211 434.089,355.022 
			433.642,355.034 431.083,354.697 429.201,354.566 427.319,354.436 425.525,354.258 423.243,354.227 420.425,354.255 
			419.707,354.184 418.86,354.295 416.672,354.441 415.689,354.511 415.154,354.57 412.883,354.986 411.189,355.208 
			410.212,355.502 407.188,356.206 404.435,356.992 403.235,357.292 402.523,357.444 400.305,358.172 398.528,358.665 397.687,359 
			394.539,360.11 392.727,360.962 391.709,361.391 390.073,362.148 388.614,362.812 387.508,363.288 385.478,364.369 
			385.213,364.51 383.271,365.544 381.111,366.808 381.111,366.808 379.876,367.466 377.275,368.964 377.186,369.011 
			377.186,369.011 373.968,370.839 371.543,372.243 370.043,373.042 368.678,373.882 367.618,374.446 367.048,374.864 
			364.623,376.268 362.905,377.297 361.846,377.861 360.528,378.789 359.604,379.395 358.55,380.182 357.891,380.646 
			356.355,381.804 355.302,382.592 353.948,383.879 351.806,385.813 351.194,386.366 350.846,386.777 349.752,387.7 
			348.792,388.664 347.532,390.128 346.879,390.816 346.314,391.457 345.614,392.057 343.259,394.443 342.824,394.902 
			342.518,395.178 340.946,396.695 339.463,398.165 339.027,398.623 338.592,399.082 336.802,400.828 335.019,402.797 
			334.63,403.344 334.106,403.85 333.282,404.855 331.452,406.736 330.369,408.106 329.15,409.435 328.673,410.029 328.067,410.805 
			327.066,411.904 326.024,413.139 324.506,414.967 323.681,415.973 321.862,418.301 321.733,418.483 321.427,418.76 
			321.344,419.03 320.302,420.265 318.701,422.364 318.095,423.14 317.359,424.098 316.105,425.786 315.41,426.609 314.757,427.297 
			313.02,429.354 311.631,431.001 311.413,431.23 311.372,431.365 308.67,434.164 308.193,434.757 307.805,435.304 307.499,435.581 
			306.104,437.003 304.356,438.614 304.226,438.796 304.009,439.025 302.131,440.818 300.171,442.882 300.083,442.929 
			300.083,442.929 298.211,444.945 296.692,446.774 295.733,447.738 295.126,448.514 293.996,449.796 293.213,450.666 
			291.471,452.5 290.512,453.464 289.905,454.24 289.599,454.517 288.904,455.34 287.115,457.086 286.291,458.091 285.944,458.503 
			284.725,459.831 282.895,461.713 282.33,462.353 282.024,462.63 280.063,464.693 279.192,465.61 278.669,466.116 276.62,468.226 
			274.966,470.014 274.66,470.29 274.225,470.748 273.659,471.389 271.352,473.864 270.787,474.505 269.916,475.422 
			269.045,476.339 268.391,477.027 267.785,477.803 265.648,479.961 264.124,481.566 262.77,482.853 261.811,483.817 
			261.334,484.411 260.81,484.917 260.374,485.375 258.715,486.939 256.925,488.685 256.578,489.097 255.613,489.837 
			252.729,492.506 252.599,492.688 250.104,494.81 248.574,496.192 248.485,496.239 248.444,496.374 244.636,499.648 
			244.33,499.924 243.277,500.712 242.618,501.176 241.347,502.193 239.634,503.445 239.063,503.862 237.304,505.026 
			236.733,505.443 235.279,506.331 234.044,506.989 232.502,507.923 230.425,508.916 229.719,509.292 226.712,510.667 
			226.047,510.907 225.253,511.33 222.552,512.429 219.893,513.392 219.628,513.533 219.051,513.727 216.521,514.507 
			213.992,515.288 213.015,515.582 212.615,515.682 208.973,516.715 208.085,516.961 205.237,517.571 203.325,518.023 
			201.454,518.339 198.025,518.92 197.713,518.972 197.177,519.031 194.236,519.464 192.183,519.651 190.977,519.727 
			188.565,519.879 187.718,519.99 187.271,520.001 184.277,520.123 182.489,520.169 180.612,520.262 178.512,520.361 
			176.453,520.324 173.859,520.346 173.188,520.363 172.653,520.422 170.73,520.427 169.788,520.361 167.147,520.295 
			166.206,520.23 165.536,520.247 162.4,520.104 160.518,519.973 159.8,519.902 157.695,519.778 156.618,519.671 154.689,519.452 
			153.03,519.316 151.595,519.174 150.113,518.944 148.542,518.76 146.79,518.447 146.16,518.329 143.284,517.822 143.149,517.78 
			141.755,517.503 139.685,517.02 139.461,517.025 139.19,516.943 136.803,516.288 135.179,515.793 134.233,515.504 
			131.886,514.715 130.216,514.131 128.816,513.631 127.052,512.871 126.828,512.876 126.693,512.835 124.341,511.822 
			122.435,510.797 122.253,510.668 122.118,510.626 121.753,510.367 119.848,509.343 118.848,508.742 117.167,507.712 
			116.214,507.199 114.938,506.293 111.016,503.396 109.147,502.013 105.631,499.24 105.172,498.804 102.656,496.632 
			100.092,494.372 99.04,493.459 98.44,492.759 93.943,488.356 93.714,488.139 93.485,487.921 87.465,481.723 86.454,480.675 
			83.879,477.968 82.686,476.791 80.71,474.784 78.964,472.994 76.983,470.764 75.467,469.192 73.897,467.309 72.974,466.214 
			72.369,465.29 70.741,462.872 70.506,462.43 70.271,461.989 69.008,459.829 68.391,458.458 67.533,456.423 66.916,455.052 
			65.995,452.257 65.901,452.08 65.942,451.945 65.055,448.792 64.897,447.856 64.481,445.586 64.469,445.138 64.411,444.603 
			64.13,442.374 64.066,441.615 64.014,439.603 64.003,439.156 63.975,436.338 64.016,436.203 64.148,432.621 64.295,431.409 
			64.527,428.227 64.811,425.356 65,424.009 65.077,423.515 65.773,419.292 65.773,419.292 65.773,419.292 65.815,419.157 
			66.682,414.616 66.794,413.763 67.644,410.252 67.844,409.352 68.169,408.047 68.735,405.706 69.23,404.082 69.513,402.912 
			70.008,401.289 70.302,400.565 70.385,400.295 71.422,397.137 71.552,396.954 71.587,396.596 72.936,393.385 73.69,391.397 
			73.732,391.262 74.662,389.18 76.141,385.787 76.182,385.651 76.27,385.604 76.353,385.334 77.802,382.523 78.226,381.617 
			79.033,379.941 80.57,377.083 80.523,376.995 80.523,376.995 82.06,374.137 82.702,373.002 83.556,371.415 84.327,370.098 
			85.605,367.604 86.035,366.922 86.335,366.422 87.795,364.059 88.525,362.877 89.644,361.148 91.41,358.508 91.669,358.143 
			93.053,356.273 94.266,354.721 94.483,354.492 94.831,354.08 97.044,351.429 98.781,349.371 98.91,349.189 98.999,349.142 
			100.476,347.449 101.041,346.808 102.477,345.25 103.089,344.697 103.831,343.962 105.097,342.722 107.062,340.882 
			107.28,340.653 107.674,340.329 110.082,338.254 111.482,337.055 112.489,336.179 113.801,335.027 114.284,334.657 
			115.996,333.405 116.961,332.664 118.539,331.371 120.646,329.796 121.652,328.92 122.923,327.903 123.582,327.439 
			125.03,326.328 125.954,325.723 127.36,324.747 129.026,323.407 130.521,322.384 131.792,321.368 132.233,321.133 
			133.769,319.975 134.34,319.557 135.747,318.582 137.018,317.565 138.777,316.401 140.49,315.149 140.619,314.967 
			142.379,313.803 142.379,313.803 144.05,312.687 145.457,311.711 146.775,310.783 148.093,309.854 149.941,308.643 
			150.776,308.085 151.83,307.297 153.46,306.316 154.248,305.67 156.579,304.089 156.844,303.948 157.238,303.624 159.792,302.038 
			160.845,301.25 163.176,299.669 163.923,299.158 165.594,298.041 166.783,297.295 167.177,296.972 168.76,295.902 
			169.861,295.203 170.432,294.785 172.632,293.387 174.304,292.27 175.404,291.571 176.899,290.548 179.406,288.873 
			179.671,288.732 179.847,288.638 182.048,287.239 184.861,285.288 184.861,285.288 184.861,285.288 187.85,283.243 
			188.115,283.102 190.228,281.75 191.852,280.545 193.347,279.523 195.148,278.224 195.148,278.224 195.542,277.901 
			196.907,277.06 196.948,276.925 198.62,275.808 199.808,275.062 202.092,273.393 202.88,272.746 205.605,270.842 206.352,270.331 
			206.923,269.913 208.677,268.526 209.601,267.921 210.831,267.039 211.708,266.346 211.884,266.252 213.638,264.865 
			214.956,263.936 215.086,263.754 215.262,263.66 217.852,261.714 218.246,261.391 220.223,259.998 220.4,259.904 222.901,258.005 
			223.384,257.635 224.131,257.124 225.844,255.872 226.897,255.084 228.345,253.973 229.18,253.415 231.858,251.423 
			232.076,251.193 232.558,250.823 234.359,249.524 235.501,248.69 236.554,247.902 237.255,247.302 239.055,246.003 
			240.591,244.846 242.08,243.599 243.046,242.859 244.011,242.118 245.194,241.148 245.941,240.637 247.695,239.25 248.66,238.509 
			250.938,236.617 251.026,236.57 251.114,236.523 253.133,234.994 254.757,233.79 254.845,233.743 254.887,233.607 256.823,232.35 
			257.217,232.026 258.753,230.868 259.718,230.128 260.071,229.94 262.266,228.318 264.679,226.466 265.209,226.184 
			265.603,225.861 267.098,224.838 268.281,223.868 269.511,222.987 270.611,222.287 272.718,220.712 273.465,220.201 
			273.948,219.831 274.389,219.596 275.884,218.573 277.773,217.227 278.915,216.392 279.839,215.787 281.286,214.676 
			282.387,213.977 283.44,213.189 285.988,211.379 287.259,210.362 287.789,210.08 288.578,209.434 290.379,208.135 
			291.126,207.623 291.914,206.977 293.98,205.537 295.604,204.332 295.734,204.15 296.175,203.915 296.352,203.821 
			298.988,201.964 299.736,201.452 299.824,201.405 299.953,201.223 301.495,200.289 304.484,198.243 304.749,198.102 
			305.938,197.356 308.268,195.775 308.663,195.452 309.281,195.123 309.369,195.076 312.141,193.26 312.976,192.701 
			313.329,192.513 313.988,192.049 317.201,189.998 318.743,189.064 320.508,188.124 321.609,187.424 323.639,186.343 
			325.622,185.174 328.623,183.576 329.594,183.059 329.947,182.871 332.595,181.46 333.607,180.808 333.783,180.714 
			334.136,180.526 334.843,180.15 336.649,179.075 337.661,178.422 338.367,178.046 339.556,177.3 342.551,175.478 342.728,175.384 
			343.257,175.102 346.735,172.91 348.012,172.117 348.542,171.835 349.377,171.277 351.096,170.248 352.726,169.267 
			354.62,168.144 355.28,167.68 356.074,167.257 357.351,166.464 359.64,165.018 361.706,163.578 361.97,163.437 362.235,163.296 
			363.818,162.226 366.672,160.14 367.596,159.535 368.079,159.164 368.915,158.606 371.063,156.896 371.327,156.755 
			372.293,156.014 375.017,154.11 375.5,153.739 376.247,153.228 376.6,153.04 377.877,152.247 379.637,151.083 380.778,150.249 
			381.791,149.596 383.462,148.48 384.739,147.686 385.045,147.41 388.387,145.177 389.27,144.707 389.311,144.571 390.853,143.637 
			392.477,142.432 393.048,142.015 393.531,141.645 393.837,141.368 395.196,140.304 397.827,138.224 397.827,138.224 
			398.045,137.994 399.363,137.066 401.293,135.585 401.776,135.214 402.3,134.709 404.053,133.322 406.284,131.341 
			406.372,131.294 406.461,131.247 407.555,130.324 408.874,129.395 409.75,128.702 410.586,128.143 410.763,128.049 
			410.851,128.002 412.434,126.933 414.899,125.393 415.47,124.976 416.965,123.953 418.636,122.836 419.031,122.513 
			419.56,122.231 420.043,121.861 422.414,120.144 423.338,119.539 423.78,119.304 424.48,118.705 427.558,116.612 428.917,115.548 
			429.182,115.407 429.623,115.172 431.871,113.862 433.101,112.98 433.537,112.522 435.385,111.311 436.085,110.712 
			437.745,109.148 437.962,108.919 438.622,108.454 440.381,107.291 442.276,106.168 444.082,105.093 444.565,104.723 
			446.159,104.1 447.348,103.354 447.925,103.16 448.807,102.69 449.737,102.308 452.12,101.039 452.738,100.71 452.915,100.616 
			453.491,100.422 455.262,99.706 457.21,98.895 458.186,98.602 460.934,97.591 461.999,97.251 464.082,96.482 465.547,96.041 
			468.606,94.978 469.183,94.785 469.671,94.638 472.966,94.016 474.384,93.488 475.631,93.277 476.654,93.072 477.19,93.013 
			478.125,92.855 480.62,92.433 482.043,92.128 482.579,92.069 484.232,91.982 485.255,91.777 487.044,91.731 488.338,91.608 
			489.008,91.591 491.332,91.486 492.003,91.469 493.655,91.382 495.485,91.201 496.514,91.219 499.015,91.021 499.997,90.951 
			502.497,90.752 504.103,90.577 506.156,90.39 508.162,90.114 508.65,89.968 510.968,89.64 512.216,89.429 515.063,88.819 
			515.775,88.666 516.398,88.561 518.446,88.15 519.022,87.956 522.088,87.117 523.288,86.818 523.511,86.812 523.776,86.671 
			527.947,85.356 528.259,85.303 528.524,85.162 532.425,83.764 532.825,83.665 534.196,83.048 536.32,82.143 536.897,81.949 
			537.338,81.714 538.132,81.291 540.786,80.105 542.51,79.3 544.581,78.084 544.934,77.896 545.111,77.802 546.17,77.237 
			548.023,76.25 548.288,76.109 548.553,75.968 549.612,75.404 551.419,74.329 551.86,74.094 553.096,73.436 554.025,73.054 
			555.567,72.12 555.656,72.073 555.744,72.026 557.421,71.133 559.233,70.281 559.674,70.046 560.645,69.529 562.322,68.636 
			562.987,68.395 564.758,67.678 565.776,67.249 567.288,66.897 568.447,66.733 569.341,66.71 570.729,66.764 572.476,66.853 
			574,66.949 576.605,67.374 577.235,67.492 579.393,67.928 580.023,68.046 581.193,68.329 583.04,68.819 583.446,68.943 
			586.063,69.815 586.198,69.856 586.604,69.98 588.909,70.905 590.038,71.323 590.491,71.535 591.449,72.271 592.72,72.954 
			594.36,74.12 594.907,74.508 595.271,74.767 597.776,76.492 598.141,76.751 598.776,77.093 600.093,77.864 601.222,78.283 
			603.028,78.907 603.481,79.119 606.045,79.68 606.857,79.927 607.751,79.904 609.986,79.847 611.457,79.63 613.422,79.49 
			615.64,78.762 616.799,78.598 618.44,78.064 619.999,77.8 621.241,77.366 623.6,76.902 623.647,76.991 623.647,76.991 
			626.776,76.91 627.764,77.064 630.317,77.177 631.311,77.554 632.575,78.014 633.481,78.438 635.334,79.151 637.192,80.087 
			638.009,80.558 640.05,81.624 640.867,82.095 642.137,82.778 643.407,83.461 644.36,83.974 645.677,84.745 647.312,85.687 
			647.765,85.899 649.535,86.883 650.44,87.307 652.616,88.414 653.563,88.703 655.827,89.763 656.503,89.969 659.168,90.93 
			659.438,91.012 660.067,91.13 661.602,91.672 663.49,92.027 663.896,92.15 665.29,92.428 666.278,92.581 667.896,92.853 
			669.331,92.995 670.76,92.913 671.119,92.949 672.507,93.003 674.025,92.874 675.455,92.793 676.167,92.64 677.143,92.347 
			678.967,91.942 680.567,91.543 681.367,91.343 682.079,91.191 683.903,90.786 684.079,90.692 685.379,90.793 686.091,90.64 
			688.385,91.118 688.473,91.071 688.609,91.112 690.461,91.825 692.543,92.756 692.725,92.886 692.996,92.968 695.63,94.511 
			697.671,95.577 698.488,96.048 699.17,96.478 701.44,97.761 702.798,98.398 703.48,98.827 705.25,99.811 705.797,100.199 
			708.39,101.877 708.937,102.266 710.031,103.043 712.171,104.509 713.4,105.328 714.405,106.152 715.411,106.976 717.192,108.406 
			717.974,109.236 718.656,109.666 719.756,110.667 720.267,111.414 720.913,112.203 722.107,113.38 722.618,114.127 
			723.411,115.404 724.475,116.764 725.492,118.035 726.573,120.065 727.19,121.436 727.713,122.63 728.477,124.49 728.958,125.819 
			729.398,127.284 729.803,129.108 730.255,131.02 730.214,131.155 730.266,131.467 730.401,133.208 730.617,134.679 
			730.74,135.973 730.934,136.55 731.82,139.703 732.202,140.633 733.054,142.445 734.776,145.041 734.917,145.305 735.011,145.482 
			737.379,148.866 738.161,149.696 739.648,151.849 741.176,153.868 741.782,154.792 743.603,157.787 743.65,157.875 
			743.885,158.317 745.343,161.053 745.672,161.671 746.852,164.101 747.616,165.96 748.133,166.931 748.25,168.002 
			748.226,168.808 747.973,169.396 747.625,169.807 746.801,170.813 746.148,171.5 744.259,172.846 743.906,173.034 
			743.729,173.128 743.023,173.504 741.517,174.08 741.164,174.268 738.858,175.043 737.657,175.342 736.016,175.877 
			734.998,176.305 731.58,177.333 731.268,177.385 731.003,177.526 727.491,178.377 727.314,178.471 724.42,178.993 
			722.996,179.298 721.343,179.385 720.449,179.408 718.973,179.402 718.349,179.507 717.631,179.436 715.92,178.988 
			714.749,178.705 714.073,178.499 712.268,177.874 710.68,177.02 709.592,176.466 708.451,175.601 707.222,174.783 
			705.206,172.911 705.159,172.823 705.065,172.646 703.413,171.033 701.714,169.332 701.62,169.156 700.932,168.502 
			699.098,166.76 698.728,166.277 697.581,165.188 696.482,164.188 695.747,163.446 694.648,162.446 694.101,162.057 
			692.366,160.715 690.408,159.378 689.95,158.943 689.632,158.772 687.456,157.665 685.187,156.381 684.869,156.21 
			684.781,156.257 684.598,156.128 682.787,155.279 682.246,155.114 680.893,154.702 679.135,154.165 677.647,153.712 
			675.618,153.093 674.853,152.933 674.177,152.727 672.248,152.508 670.489,151.972 669.907,151.942 668.519,151.888 
			667.936,151.859 666.372,151.899 664.783,152.745 664.606,152.839 664.518,152.886 663.617,154.385 663.14,154.979 
			663.116,155.785 663.121,157.709 663.08,157.844 663.402,159.938 663.748,161.227 664.001,162.339 664.664,163.798 
			664.905,164.463 665.516,165.61 666.821,167.634 666.962,167.899 667.009,167.988 667.238,168.205 668.984,169.995 
			669.766,170.824 671.465,172.526 672.341,173.532 673.681,175.197 674.645,176.157 675.192,176.545 675.745,177.158 
			676.756,178.205 677.173,178.776 677.402,178.994 678.695,180.571 679.524,181.489 680.447,182.584 681.47,184.079 
			682.158,184.732 683.244,186.986 683.244,186.986 684.655,189.634 685.172,190.604 685.518,191.893 686.01,195.37 
			686.157,195.858 686.168,196.305 686.15,197.334 686.354,200.058 686.283,200.776 685.387,204.199 685.434,204.287 
			685.222,204.74 684.462,206.504 683.36,208.903 683.237,209.309 683.237,209.309 683.195,209.444 683.154,209.58 682.488,211.52 
			682.07,212.65 681.905,213.191 681.828,213.685 681.41,214.814 681.215,215.937 681.138,216.431 681.014,216.837 680.82,217.961 
			680.743,218.455 680.678,219.396 680.636,219.531 680.636,219.531 680.742,220.155 680.795,220.467 680.842,220.555 
			680.936,220.731 681.112,220.637 681.424,220.585 681.736,220.532 682.354,220.203 682.618,220.062 682.883,219.921 
			683.937,219.133 684.243,218.857 684.725,218.487 685.208,218.116 685.643,217.658 686.038,217.334 687.433,215.912 
			687.474,215.776 687.562,215.729 688.775,214.177 688.987,213.724 690.365,211.631 690.706,210.996 691.654,209.585 
			692.737,208.215 694.438,206.516 694.656,206.287 694.744,206.24 694.962,206.01 696.398,204.452 697.887,203.206 698.67,202.336 
			699.288,202.007 701.624,200.65 702.283,200.185 702.636,199.997 704.802,198.958 706.932,198.277 707.95,197.848 
			710.662,197.196 710.75,197.149 710.885,197.191 713.374,196.545 714.762,196.599 715.25,196.452 716.545,196.329 
			718.374,196.148 719.674,196.249 721.239,196.209 722.268,196.227 723.921,196.14 726.568,196.43 726.88,196.377 727.239,196.412 
			729.433,196.49 730.462,196.509 733.462,196.61 733.821,196.646 734.044,196.64 735.209,196.7 736.821,196.748 737.356,196.689 
			739.368,196.637 741.109,196.503 742.539,196.422 744.056,196.293 747.045,195.948 747.268,195.942 747.268,195.942 
			747.804,195.884 750.963,195.221 751.451,195.074 753.269,194.446 753.934,194.205 755.746,193.353 756.276,193.071 
			756.806,192.789 758.13,192.084 758.836,191.708 759.365,191.426 760.56,190.903 761.136,190.71 762.425,190.363 765.077,190.877 
			765.213,190.918 765.26,191.006 765.759,191.306 767.353,192.384 767.764,192.731 768.87,193.955 769.898,195.674 
			770.086,196.027 		">
		</polygon>
	</g>
</g>
<g id="Layer_1">
</g>
</svg>
