<?xml version="1.0" encoding="iso-8859-1"?>
<!-- Generator: Adobe Illustrator 19.2.1, SVG Export Plug-In . SVG Version: 6.00 Build 0)  -->
<svg version="1.1" xmlns="http://www.w3.org/2000/svg" xmlns:xlink="http://www.w3.org/1999/xlink" x="0px" y="0px"
	 viewBox="0 0 841.89 595.28" style="enable-background:new 0 0 841.89 595.28;" xml:space="preserve">
<g id="layer215">
	<g id="layer215_1_" slic3r:z="8.62000000000007e-005">
		<polygon slic3r:type="contour" style="fill:#FFFFFF;stroke:#000000;stroke-miterlimit:10;" points="746.668,224.813 
			746.815,225.301 747.109,226.277 747.354,228.866 747.401,228.954 747.401,228.954 747.217,232.225 747.217,232.225 
			746.78,234.383 746.456,235.689 746.126,236.771 745.584,238.306 745.312,239.923 745.018,240.647 744.47,241.958 743.922,243.27 
			743.539,244.04 742.561,246.034 742.308,246.622 741.407,248.121 740.253,250.209 739.694,251.073 738.869,252.078 
			737.657,253.631 735.085,256.247 734.996,256.294 734.996,256.294 734.996,256.294 734.779,256.523 731.671,259.197 
			731.63,259.333 731.412,259.562 729.741,260.679 728.77,261.196 726.704,262.636 726.439,262.777 726.222,263.006 
			724.015,264.181 721.643,265.897 721.379,266.038 721.29,266.085 721.026,266.226 718.419,267.501 717.224,268.024 716.118,268.5 
			714.836,269.07 712.8,269.927 711.647,270.315 710.452,270.838 708.411,271.472 706.104,272.247 705.039,272.587 701.215,273.491 
			700.815,273.59 699.968,273.702 696.809,274.365 695.562,274.576 692.579,275.144 691.955,275.25 691.244,275.402 
			688.484,275.965 686.925,276.229 683.813,276.98 681.725,277.526 679.548,278.119 677.059,278.764 675.729,279.246 
			674.664,279.586 673.511,279.974 671.829,280.643 670.764,280.984 668.728,281.842 667.622,282.317 666.162,282.981 
			664.485,283.874 663.203,284.444 662.144,285.008 660.378,285.948 658.307,287.165 657.336,287.682 656.806,287.964 
			654.823,289.133 653.676,289.744 652.529,290.355 651.252,291.149 649.486,292.089 647.68,293.164 646.668,293.816 
			645.479,294.563 644.42,295.127 642.748,296.243 642.395,296.431 642.219,296.525 640.148,297.742 639.312,298.3 637.723,299.146 
			634.416,301.021 634.198,301.25 633.757,301.485 630.627,303.265 629.35,304.059 627.761,304.905 626.26,305.704 623.524,307.161 
			623.171,307.349 622.73,307.584 620.523,308.759 619.552,309.276 617.74,310.128 616.769,310.645 614.38,311.691 613.674,312.067 
			613.145,312.349 610.756,313.394 608.767,314.34 608.543,314.346 608.367,314.44 606.331,315.298 604.03,316.296 603.054,316.59 
			602.524,316.872 599.6,317.976 598.358,318.41 595.258,319.609 594.728,319.891 594.328,319.99 591.492,321.047 588.656,322.105 
			588.656,322.105 588.568,322.152 585.638,323.032 583.861,323.525 582.308,324.012 579.155,324.899 578.754,324.999 
			578.578,325.093 574.977,325.99 573.065,326.442 571.065,326.941 567.106,327.803 567.017,327.85 566.706,327.903 
			562.964,328.536 561.405,328.8 559.264,329.034 557.034,329.315 554.981,329.502 553.105,329.595 550.604,329.793 
			549.399,329.869 545.287,330.019 545.151,329.978 544.975,330.072 542.198,329.965 540.946,329.952 539.157,329.998 
			537.634,329.903 535.887,329.814 534.14,329.724 532.752,329.671 530.869,329.54 529.793,329.433 526.834,329.196 
			526.746,329.243 526.746,329.243 523.829,328.871 522.705,328.676 520.911,328.499 520.147,328.339 518.617,328.021 517,327.749 
			514.659,327.183 513.4,326.947 510.883,326.475 508.548,326.132 507.513,325.89 505.089,325.595 503.472,325.323 502.978,325.247 
			501.766,325.099 499.613,324.886 498.76,324.773 496.919,324.508 496.202,324.437 493.602,324.235 492.031,324.052 
			489.426,323.627 488.797,323.508 487.808,323.355 486.326,323.125 483.044,322.493 482.597,322.505 482.55,322.416 
			482.327,322.422 480.033,321.944 479.086,321.656 478.545,321.49 477.016,321.172 474.316,320.57 474.045,320.488 
			473.369,320.281 470.793,319.274 469.982,319.026 467.629,318.013 467.582,317.925 467.359,317.931 465.547,317.083 
			465.048,316.782 463.595,315.97 462.507,315.416 460.685,314.121 460.367,313.95 460.185,313.82 457.856,312.001 457.033,311.307 
			456.898,311.266 453.923,308.658 453.876,308.57 451.948,306.651 450.243,304.726 449.826,304.155 449.456,303.673 
			447.651,301.348 447.234,300.777 447.14,300.601 445.288,298.188 444.366,297.093 442.197,294.51 442.197,294.51 442.15,294.421 
			440.351,292.32 438.875,290.613 438.828,290.525 437.729,289.524 435.66,287.341 435.66,287.341 435.613,287.253 435.066,286.864 
			431.638,284.044 431.003,283.703 427.963,282.036 426.834,281.618 425.569,281.158 424.622,280.869 422.864,280.333 
			420.705,279.896 418.864,279.631 417.653,279.483 415.994,279.346 414.606,279.293 413.129,279.286 410.406,279.49 
			409.959,279.502 407.105,279.888 405.77,280.146 402.652,280.674 401.27,280.843 400.334,281.002 397.663,281.518 
			394.904,282.081 393.969,282.239 391.833,282.697 390.009,283.101 388.986,283.307 386.362,283.911 382.72,284.944 
			382.143,285.138 381.832,285.19 378.637,286.212 376.731,286.887 376.419,286.94 376.066,287.128 373.23,288.185 371.194,289.043 
			370.088,289.519 369.293,289.942 365.622,291.557 364.651,292.074 363.504,292.685 361.779,293.49 360.149,294.471 
			358.649,295.27 355.924,297.175 355.442,297.545 354.871,297.962 352.37,299.861 350.922,300.972 349.256,302.312 
			347.461,303.834 346.849,304.387 345.184,305.727 342.947,307.484 342.506,307.719 338.687,310.547 338.598,310.594 
			338.334,310.735 335.521,312.686 334.509,313.338 332.926,314.408 331.166,315.571 329.889,316.365 328.747,317.199 
			327.735,317.852 325.976,319.015 324.045,320.496 323.651,320.82 321.503,322.53 321.109,322.853 320.714,323.177 
			318.702,324.928 317.607,325.851 316.294,327.003 315.335,327.968 314.069,329.208 313.11,330.172 311.845,331.413 
			310.926,332.241 308.878,334.352 308.354,334.857 308.007,335.269 306.482,336.874 305.482,337.973 304.875,338.749 
			303.527,340.26 303.009,340.99 301.932,342.583 300.902,344.265 300.642,344.629 300.472,344.947 299.535,346.805 
			298.681,348.393 298.216,349.434 297.974,350.469 297.085,352.415 296.719,353.856 296.301,354.985 295.434,357.826 
			295.393,357.961 295.187,358.638 294.268,361.167 294.232,361.525 293.484,363.737 293.484,363.737 292.777,365.813 
			292.276,367.212 291.987,368.159 290.991,371.182 291.038,371.27 290.914,371.676 290.172,374.111 290.012,374.876 
			289.529,376.946 289.116,378.299 288.874,379.334 288.644,380.816 288.278,382.257 288.013,384.098 287.682,385.18 
			287.128,387.968 286.963,388.509 286.809,389.497 286.213,392.42 285.659,395.208 285.334,396.514 285.175,397.279 
			284.491,400.249 283.831,402.413 283.672,403.178 283.006,405.118 282.841,405.66 282.758,405.93 282.01,408.141 281.509,409.541 
			281.132,410.535 280.301,413.017 280.301,413.017 280.348,413.105 279.34,415.681 278.834,416.857 277.708,420.062 
			277.632,420.556 277.461,420.874 277.249,421.327 275.917,425.208 275.829,425.255 274.48,428.466 274.273,429.143 
			273.932,429.778 272.742,432.224 271.935,433.9 271.511,434.806 270.186,437.211 269.203,438.981 269.032,439.298 
			268.478,440.386 266.983,443.109 266.558,444.014 264.874,448.084 264.579,448.807 263.153,452.512 262.988,453.053 
			262.947,453.189 262.611,454.047 261.645,456.488 260.926,458.117 260.714,458.57 260.42,459.293 258.765,462.78 258.594,463.098 
			258.123,463.915 257.993,464.097 257.31,465.368 255.638,468.184 255.249,468.731 254.814,469.19 254.343,470.007 
			253.042,471.606 252.094,473.017 251.746,473.429 250.01,475.487 249.18,476.269 248.615,476.909 247.308,478.285 
			246.437,479.202 245.695,479.937 245.083,480.49 244.913,480.807 243.253,482.371 241.387,484.611 241.169,484.84 239.55,486.269 
			237.455,488.291 237.061,488.614 234.253,490.789 233.288,491.529 232.453,492.088 229.94,493.539 227.604,494.897 
			226.233,495.513 225.215,495.942 222.432,497.311 221.279,497.699 218.755,498.703 215.477,499.995 214.548,500.377 
			212.818,500.958 210.776,501.592 209.8,501.886 207.358,502.62 204.734,503.224 204.069,503.465 203.046,503.67 200.51,504.227 
			198.151,504.69 196.504,505.001 195.792,505.154 193.474,505.482 192.315,505.646 191.78,505.704 188.209,506.02 185.22,506.365 
			184.062,506.529 182.362,506.528 179.861,506.726 178.208,506.814 176.197,506.865 173.155,506.899 172.932,506.904 
			172.573,506.869 169.485,506.814 167.738,506.725 165.903,506.683 162.632,506.498 162.409,506.504 162.185,506.51 
			158.55,506.066 157.25,505.966 154.38,505.681 154.244,505.64 153.75,505.563 151.727,505.168 148.898,504.749 148.222,504.542 
			147.098,504.348 145.075,503.952 144.04,503.71 142.105,503.268 140.305,502.867 138.864,502.501 135.441,501.605 
			135.441,501.605 135.441,501.605 132.33,500.656 131.112,500.285 128.495,499.413 128.089,499.289 125.743,498.499 
			125.02,498.205 124.973,498.116 121.991,496.985 121.356,496.644 118.868,495.589 117.78,495.036 116.057,494.14 115.422,493.799 
			114.105,493.027 112.559,492.038 112.282,491.732 110.642,490.567 110.277,490.307 108.49,488.653 108.261,488.436 
			106.791,486.952 106.374,486.382 105.492,485.152 104.616,484.145 103.171,481.856 100.814,478.919 99.844,477.736 95.97,473.228 
			95.553,472.657 95.417,472.616 95.37,472.528 92.279,468.849 89.651,465.83 89.051,465.13 88.27,464.3 86.289,462.069 
			85.319,460.886 84.666,459.874 83.168,457.273 82.933,456.832 82.745,456.479 82.357,455.326 81.359,453.025 81.112,452.137 
			80.431,450.007 80.126,448.583 79.651,445.777 79.529,444.483 79.253,442.477 79.025,440.559 78.885,438.594 78.745,436.629 
			78.682,434.171 78.601,432.741 78.66,431.576 78.803,428.441 78.894,424.994 78.918,424.188 79.136,422.259 79.297,419.794 
			79.409,418.942 79.805,415.218 80.107,413.019 80.491,410.548 81.051,407.984 81.411,406.319 81.812,404.52 82.395,402.849 
			82.72,401.544 83.138,400.414 83.922,397.844 84.175,397.256 84.216,397.121 84.387,396.803 85.695,393.728 86.567,391.111 
			86.65,390.84 87.74,387.994 87.74,387.994 89.271,384.912 89.436,384.371 90.202,382.831 91.132,380.749 91.521,380.202 
			92.769,378.291 92.899,378.109 92.94,377.973 94.182,375.839 94.742,374.974 95.819,373.381 96.467,372.47 97.073,371.694 
			98.498,369.689 99.187,368.642 100.57,366.772 100.917,366.361 101.135,366.131 102.96,364.027 104.09,362.745 104.791,362.145 
			105.008,361.916 106.792,359.947 108.14,358.436 108.793,357.748 109.447,357.06 110.93,355.59 112.419,354.344 113.031,353.792 
			114.991,351.728 115.256,351.587 115.65,351.264 117.575,349.559 118.452,348.865 120.205,347.478 122.089,345.909 
			122.966,345.215 123.754,344.569 125.643,343.223 126.697,342.435 127.75,341.648 130.21,339.884 131.222,339.232 132.54,338.303 
			134.3,337.14 136.677,335.647 137.778,334.948 140.332,333.361 142.179,332.15 143.15,331.633 143.68,331.351 146.675,329.53 
			147.734,328.966 148.658,328.36 150.641,327.191 151.259,326.862 152.183,326.257 154.654,324.94 155.625,324.423 
			157.432,323.348 159.591,322.085 161.398,321.009 163.693,319.787 167.659,317.448 167.747,317.401 167.747,317.401 
			167.747,317.401 171.143,315.48 172.467,314.775 174.273,313.699 174.891,313.37 176.703,312.518 178.645,311.484 
			180.581,310.227 182.258,309.334 185.736,307.142 186.177,306.907 186.354,306.813 186.66,306.536 189.926,304.797 
			192.615,303.252 192.968,303.064 193.233,302.923 195.839,301.648 197.604,300.708 198.664,300.144 200.647,298.974 
			200.823,298.88 202.983,297.617 203.336,297.429 204.13,297.006 205.896,296.066 207.484,295.22 209.291,294.144 210.085,293.721 
			210.527,293.486 213.663,291.929 214.634,291.412 215.911,290.619 217.852,289.585 219.788,288.327 220.359,287.91 
			221.989,286.928 222.784,286.505 223.137,286.317 224.902,285.377 226.356,284.49 227.326,283.973 228.468,283.138 
			229.392,282.533 231.287,281.411 231.858,280.993 232.735,280.3 234.012,279.506 235.901,278.16 236.254,277.972 236.736,277.602 
			238.672,276.344 239.943,275.328 241.173,274.446 243.633,272.683 243.851,272.453 244.51,271.989 246.441,270.508 
			246.923,270.138 249.206,268.469 250.172,267.728 251.837,266.388 252.585,265.876 254.344,264.713 255.18,264.154 
			255.356,264.06 257.551,262.438 258.34,261.792 260.447,260.217 261.453,259.341 263.378,257.636 263.507,257.454 
			263.596,257.407 265.914,255.379 266.568,254.691 268.181,253.039 268.31,252.857 270.011,251.158 270.753,250.423 
			272.059,249.047 272.889,248.265 274.196,246.89 274.549,246.702 274.896,246.29 276.432,245.132 277.351,244.303 278.71,243.239 
			280.593,241.67 280.682,241.623 282.694,239.871 282.871,239.777 282.871,239.777 284.884,238.026 285.672,237.379 
			287.12,236.268 288.433,235.116 289.092,234.652 291.063,233.035 291.369,232.759 291.981,232.206 293.3,231.278 293.912,230.725 
			295.619,229.25 296.537,228.421 297.414,227.727 299.073,226.164 299.903,225.382 300.733,224.6 301.345,224.047 302.923,222.754 
			304.282,221.69 304.806,221.185 307.219,219.333 309.143,217.629 309.844,217.029 311.068,215.924 312.604,214.766 
			313.393,214.119 315.364,212.503 317.506,210.569 317.989,210.199 318.778,209.552 320.837,207.889 321.803,207.148 
			323.509,205.673 325.964,203.686 326.181,203.457 326.399,203.227 326.576,203.133 329.295,201.005 330.172,200.312 
			332.584,198.46 334.515,196.979 334.868,196.791 334.997,196.609 337.81,194.658 338.646,194.099 339.04,193.776 341.017,192.383 
			343.166,190.673 343.825,190.208 344.307,189.838 347.25,187.705 347.732,187.334 349.404,186.218 351.381,184.825 
			352.346,184.084 352.964,183.755 354.106,182.921 355.642,181.763 356.036,181.439 356.872,180.881 357.925,180.093 
			359.944,178.565 360.991,177.554 361.739,177.043 362.48,176.308 364.193,175.056 364.717,174.551 365.287,174.133 
			367.171,172.564 368.395,171.459 369.36,170.718 369.666,170.442 369.972,170.166 370.19,169.936 372.691,168.038 
			373.439,167.526 375.893,165.54 376.987,164.617 377.729,163.882 377.994,163.741 378.3,163.465 381.237,161.108 381.937,160.508 
			383.338,159.309 384.644,157.933 385.433,157.287 385.651,157.057 385.739,157.01 388.276,154.753 389.712,153.195 389.8,153.148 
			389.8,153.148 390.065,153.007 392.031,151.167 393.826,149.645 394.044,149.415 394.35,149.139 395.886,147.981 398.069,145.912 
			398.375,145.636 398.987,145.083 399.382,144.76 400.959,143.467 401.483,142.961 401.877,142.638 402.666,141.991 
			405.862,139.27 406.038,139.176 406.562,138.67 406.915,138.482 407.792,137.789 409.11,136.86 409.899,136.213 410.293,135.89 
			411.211,135.061 414.501,132.516 414.895,132.193 415.466,131.776 415.643,131.682 417.708,130.242 418.367,129.777 
			418.891,129.272 419.639,128.76 420.345,128.384 420.827,128.014 423.464,126.157 423.993,125.875 424.958,125.134 
			427.336,123.642 428.083,123.13 428.171,123.083 429.095,122.478 430.108,121.826 431.514,120.85 432.438,120.245 
			432.703,120.104 433.497,119.681 433.938,119.446 436.492,117.859 436.669,117.765 437.198,117.483 437.551,117.295 
			437.64,117.248 440.864,115.644 441.306,115.409 441.617,115.356 442.5,114.886 442.765,114.745 445.107,113.611 445.371,113.47 
			445.86,113.323 447.584,112.519 448.113,112.237 449.308,111.714 449.796,111.567 452.097,110.568 452.45,110.38 453.379,109.999 
			453.644,109.858 454.444,109.658 456.921,108.565 457.145,108.56 457.41,108.419 458.916,107.843 459.316,107.743 
			460.999,107.074 461.487,106.927 462.729,106.493 464.058,106.011 464.194,106.052 465.435,105.618 466.676,105.183 
			466.988,105.13 468.453,104.69 470.183,104.109 470.495,104.056 471.96,103.616 473.472,103.264 473.737,103.123 475.16,102.818 
			476.36,102.519 476.449,102.472 477.472,102.266 479.161,101.82 479.561,101.72 481.785,101.216 482.008,101.21 483.791,100.941 
			486.55,100.378 486.638,100.331 486.727,100.284 486.95,100.278 490.068,99.75 490.692,99.645 491.627,99.487 493.81,99.117 
			495.057,98.906 495.592,98.848 497.245,98.761 499.563,98.433 501.169,98.257 503.534,98.017 504.157,97.912 507.24,97.743 
			507.328,97.696 507.599,97.779 510.416,97.751 511.622,97.675 512.875,97.688 514.846,97.771 515.787,97.837 516.64,97.949 
			518.704,98.209 519.428,98.504 522.986,99.441 523.074,99.394 523.074,99.394 527.179,100.72 528.626,101.309 531.202,102.317 
			532.243,102.782 535.324,104.313 535.777,104.525 535.959,104.655 537.006,105.344 539.958,107.057 540.411,107.269 
			540.957,107.658 543.186,109.077 543.868,109.507 544.503,109.848 545.503,110.449 546.82,111.22 547.867,111.909 
			549.001,112.551 551.083,113.482 551.901,113.953 553.353,114.765 555.705,115.779 556.158,115.991 558.152,116.968 
			558.334,117.098 558.422,117.051 560.545,117.846 563.35,119.071 563.756,119.195 564.209,119.407 567.191,120.539 
			569.496,121.463 570.49,121.841 572.525,122.683 573.113,122.936 574.742,123.655 576.324,124.285 577.453,124.704 
			579.67,125.676 580.123,125.888 580.393,125.97 583.151,127.107 585.327,128.214 585.915,128.468 586.686,128.85 588.456,129.834 
			589.726,130.517 591.449,131.412 592.448,132.013 593.995,133.002 594.265,133.084 595.541,133.991 597.182,135.157 
			598.275,135.934 599.781,137.058 601.239,138.095 602.656,139.266 603.89,140.308 604.667,140.914 605.989,141.909 
			607.224,142.951 608.87,144.34 609.693,145.035 610.652,145.771 611.428,146.377 613.121,147.855 614.444,148.85 615.726,149.98 
			616.819,150.757 618.783,152.317 619.7,153.188 620.565,153.747 621.799,154.789 622.258,155.225 623.263,156.049 624.68,157.221 
			625.78,158.221 626.65,159.004 628.525,160.611 629.672,161.7 629.901,161.918 631.141,163.183 632.611,164.667 633.487,165.673 
			635.103,167.645 635.932,168.563 637.366,170.405 638.659,171.982 639.03,172.465 640.005,173.871 640.47,174.53 641.028,175.366 
			641.968,177.131 642.25,177.661 642.438,178.014 644.324,181.768 644.371,181.856 644.559,182.209 646.116,185.345 
			646.257,185.61 646.492,186.051 647.491,188.352 648.536,190.741 648.677,191.006 650.052,194.012 650.24,194.366 
			650.475,194.807 651.38,196.931 651.767,198.084 652.102,198.926 653.153,201.538 653.253,201.938 653.441,202.291 
			654.316,204.997 654.416,205.398 655.102,207.751 655.637,209.392 656.177,211.257 656.816,213.523 656.916,213.923 
			657.063,214.411 657.615,216.723 658.155,218.588 658.454,219.788 659.047,221.965 659.099,222.277 659.545,223.965 
			659.939,225.342 660.573,227.384 661.248,229.29 661.583,230.131 662.341,231.767 662.952,232.914 663.745,234.191 
			664.397,235.204 665.414,236.475 666.29,237.481 668.072,238.912 669.124,239.824 671.347,241.02 672.976,241.738 
			674.058,242.068 676.887,242.488 676.887,242.488 677.646,242.423 680.276,242.043 680.323,242.131 682.235,241.679 
			683.829,241.057 684.406,240.863 686.036,239.881 686.477,239.646 686.654,239.552 688.413,238.389 689.637,237.284 
			690.903,236.043 692.857,233.756 693.375,233.027 693.675,232.527 695.147,230.611 695.495,230.199 695.536,230.064 
			697.102,228.324 698.314,226.771 699.18,225.631 700.139,224.667 701.97,222.785 702.405,222.327 702.976,221.909 704.33,220.622 
			705.954,219.417 706.26,219.141 706.701,218.906 708.196,217.883 709.038,217.548 711.556,216.321 711.868,216.268 
			712.044,216.174 715.104,215.111 717.769,214.371 717.992,214.366 718.169,214.272 720.263,213.949 721.022,213.885 
			722.946,213.88 723.84,213.857 724.422,213.887 728.645,214.584 728.645,214.584 728.645,214.584 732.333,215.339 
			733.862,215.658 735.35,216.111 736.838,216.565 736.926,216.518 738.379,217.331 739.378,217.932 742.377,219.733 
			742.789,220.081 743.247,220.516 744.3,221.429 745.035,222.17 745.822,223.224 746.621,224.724 		">
		</polygon>
	</g>
</g>
<g id="Layer_1">
</g>
</svg>
