<?xml version="1.0" encoding="iso-8859-1"?>
<!-- Generator: Adobe Illustrator 19.2.1, SVG Export Plug-In . SVG Version: 6.00 Build 0)  -->
<svg version="1.1" xmlns="http://www.w3.org/2000/svg" xmlns:xlink="http://www.w3.org/1999/xlink" x="0px" y="0px"
	 viewBox="0 0 841.89 595.28" style="enable-background:new 0 0 841.89 595.28;" xml:space="preserve">
<g id="layer259">
	<g id="layer259_1_" slic3r:z="0.000103800000000001">
		<polygon slic3r:type="contour" style="fill:#FFFFFF;stroke:#000000;stroke-miterlimit:10;" points="739.359,114.502 
			740.352,116.579 740.886,118.221 741.896,120.968 742.043,121.457 742.19,121.945 742.642,123.857 743.058,126.128 
			743.158,126.528 743.257,126.928 743.65,130.005 743.725,131.211 744.177,133.123 744.17,134.599 744.169,136.299 
			744.292,137.593 744.197,139.117 743.903,139.84 743.261,140.975 742.589,142.692 741.812,143.786 740.511,145.385 
			739.905,146.161 739.292,146.714 737.509,148.683 736.856,149.371 736.29,150.012 734.201,152.258 734.118,152.528 
			732.799,155.157 732.805,155.381 733.322,156.351 733.698,157.058 733.833,157.099 734.88,157.788 735.962,158.118 
			737.315,158.53 738.303,158.684 741.149,159.774 741.961,160.021 743.496,160.563 744.854,161.2 745.713,161.535 746.03,161.706 
			746.895,162.266 748.753,163.202 750.346,164.279 750.758,164.627 750.94,164.756 753.133,166.534 753.868,167.276 
			755.285,168.447 756.155,169.23 757.989,170.972 758.036,171.061 759.694,172.897 759.835,173.162 761.134,174.962 
			761.734,175.663 763.268,177.905 763.732,178.564 765.266,180.806 765.777,181.554 766.382,182.477 767.505,184.372 
			768.539,186.314 768.633,186.491 769.543,188.838 770.066,190.033 771.17,192.957 771.317,193.445 771.833,196.116 
			771.985,196.828 772.014,197.946 771.966,199.557 771.865,200.857 771.558,202.834 771.482,203.328 771.44,203.463 
			771.022,204.592 770.174,206.403 769.962,206.856 769.402,207.72 768.154,209.631 767.165,211.178 766.211,212.366 
			765.387,213.371 764.174,214.923 762.691,216.393 762.738,216.481 762.65,216.528 761.249,217.727 759.76,218.973 
			759.278,219.344 757.518,220.507 756.947,220.925 754.658,222.37 754.57,222.417 754.57,222.417 752.146,223.822 750.38,224.762 
			749.762,225.091 749.233,225.373 747.203,226.454 744.731,227.77 744.113,228.099 743.407,228.475 740.806,229.974 
			737.946,231.837 737.729,232.066 737.07,232.53 735.357,233.782 733.827,235.164 733.215,235.716 733.038,235.81 732.603,236.269 
			730.46,238.203 729.548,239.255 728.5,240.266 727.24,241.73 726.063,242.923 725.063,244.023 723.15,246.175 722.714,246.633 
			722.496,246.863 720.148,249.473 718.841,250.848 715.704,254.105 715.486,254.335 715.138,254.746 712.472,257.186 
			711.072,258.385 709.059,260.137 706.822,261.894 705.245,263.187 703.968,263.981 701.202,266.02 700.937,266.161 
			700.543,266.484 697.377,268.624 696.759,268.953 696.1,269.417 693.152,271.327 692.404,271.838 691.522,272.308 
			689.456,273.748 688.75,274.124 687.079,275.241 686.155,275.846 685.802,276.034 684.613,276.781 682.677,278.038 
			681.971,278.414 679.376,280.136 678.846,280.418 676.999,281.629 675.327,282.746 673.915,283.498 672.509,284.473 
			671.32,285.22 669.207,286.571 668.372,287.13 666.524,288.34 665.6,288.946 663.487,290.297 663.046,290.532 660.845,291.931 
			659.309,293.089 658.78,293.371 658.12,293.835 656.579,294.769 654.601,296.162 654.16,296.397 653.325,296.956 652.312,297.608 
			650.859,298.495 648.57,299.941 648.393,300.035 646.063,301.616 645.533,301.898 644.039,302.921 643.597,303.156 
			643.421,303.25 642.102,304.178 641.485,304.507 639.902,305.577 638.713,306.323 636.953,307.487 636.159,307.91 634.576,308.98 
			634.046,309.262 633.387,309.726 631.139,311.036 629.862,311.83 627.662,313.228 626.385,314.022 625.637,314.533 
			623.831,315.608 623.701,315.791 623.26,316.026 621.1,317.289 620.618,317.659 619.47,318.27 618.988,318.641 617.664,319.346 
			616.693,319.863 616.075,320.192 614.133,321.226 613.78,321.414 613.162,321.743 611.88,322.313 611.615,322.454 
			609.803,323.306 609.273,323.588 607.59,324.257 606.396,324.78 605.16,325.438 603.301,326.202 603.213,326.249 603.124,326.296 
			601.135,327.242 599.541,327.864 599.011,328.146 598.611,328.246 596.752,329.009 595.116,329.767 593.787,330.249 
			591.486,331.247 588.744,332.481 587.373,333.098 583.348,334.901 583.084,335.042 582.242,335.377 579.194,336.887 
			578.353,337.222 576.011,338.356 575.128,338.826 574.952,338.92 574.511,339.155 572.433,340.148 570.798,340.905 
			570.092,341.281 567.526,342.421 566.379,343.032 562.266,344.883 562.178,344.93 561.866,344.982 557.971,346.604 
			556.688,347.173 553.811,348.366 551.463,349.276 550.887,349.47 549.516,350.087 545.527,351.531 545.438,351.578 
			545.391,351.49 541.22,352.805 539.931,353.151 539.62,353.204 539.355,353.345 536.954,353.944 536.731,353.949 533.001,355.03 
			532.866,354.988 528.606,356.35 528.029,356.544 527.629,356.644 527.053,356.838 524.435,357.665 523.634,357.865 
			522.169,358.305 520.969,358.605 520.169,358.804 519.057,359.056 515.857,359.854 515.368,360.001 514.657,360.154 
			511.856,360.852 511.856,360.852 511.721,360.811 509.362,361.274 507.891,361.491 507.668,361.496 507.444,361.502 
			503.52,362.006 502.449,362.123 500.62,362.304 499.373,362.515 497.414,362.878 495.184,363.159 494.561,363.265 
			493.625,363.423 490.954,363.939 489.395,364.203 486.813,364.672 486.813,364.672 484.183,365.053 482.671,365.405 
			481.6,365.522 480,365.921 478.929,366.038 478.441,366.185 478.129,366.237 474.835,366.859 474.347,367.006 473.323,367.211 
			471.364,367.574 470.117,367.785 468.781,368.043 466.693,368.589 466.246,368.601 465.981,368.742 463.757,369.246 
			461.757,369.745 460.245,370.097 457.532,370.748 453.703,371.428 453.526,371.522 453.438,371.569 450.896,371.903 
			449.249,372.214 446.755,372.636 445.684,372.753 445.061,372.858 442.696,373.098 440.866,373.279 439.437,373.361 
			436.76,373.653 436.09,373.671 434.484,373.846 433.589,373.869 432.03,374.133 430.201,374.314 429.489,374.466 428.377,374.719 
			425.306,375.335 424.73,375.528 424.594,375.487 424.194,375.587 422.194,376.086 420.058,376.543 418.77,376.889 
			415.922,377.499 412.457,378.438 411.969,378.585 411.657,378.638 409.663,379.36 407.491,380.177 406.65,380.511 
			403.902,381.522 403.285,381.851 400.978,382.626 399.031,383.436 398.454,383.63 396.33,384.535 395.4,384.916 394.824,385.11 
			394.071,385.398 392.3,386.114 390.664,386.872 390.223,387.107 389.958,387.248 386.416,388.681 384.38,389.539 382.168,390.491 
			379.073,391.912 377.966,392.388 373.859,394.462 373.859,394.462 373.771,394.509 372.671,395.208 369.504,397.348 
			369.287,397.577 367.268,399.105 365.255,400.857 365.167,400.904 365.079,400.951 364.072,401.827 361.141,404.407 
			361.1,404.543 361.012,404.59 361.012,404.59 360.924,404.637 358.481,407.07 357.61,407.987 356.65,408.952 355.038,410.604 
			353.601,412.161 352.336,413.402 352.206,413.584 351.9,413.86 349.94,415.924 349.022,416.753 347.933,417.899 346.585,419.41 
			346.15,419.869 345.102,420.88 343.754,422.391 343.189,423.032 342.624,423.672 342.406,423.902 341.052,425.189 
			339.481,426.706 339.304,426.8 338.78,427.305 337.032,428.916 334.849,430.985 334.849,430.985 334.849,430.985 334.148,431.585 
			330.994,434.171 330.817,434.265 330.641,434.359 328.575,435.799 326.251,437.604 326.074,437.698 325.591,438.068 
			322.39,440.566 322.213,440.66 321.996,440.889 320.018,442.282 317.558,444.045 316.899,444.51 315.01,445.856 313.91,446.555 
			313.516,446.878 313.033,447.249 311.273,448.412 309.602,449.529 308.549,450.316 306.836,451.568 305.606,452.45 
			304.771,453.008 304.07,453.608 302.576,454.63 301.169,455.606 299.633,456.764 298.797,457.322 297.656,458.157 
			297.126,458.439 295.149,459.832 293.784,460.672 292.595,461.418 290.441,462.905 288.417,464.21 286.704,465.462 
			286.351,465.65 285.957,465.973 284.727,466.855 284.156,467.272 281.614,469.306 279.419,470.928 277.576,472.362 277.4,472.456 
			277.223,472.55 275.952,473.567 275.599,473.755 273.015,475.924 271.35,477.264 270.738,477.817 269.643,478.74 269.337,479.016 
			268.99,479.428 267.677,480.58 267.065,481.132 266.059,482.008 265.011,483.019 264.181,483.801 263.134,484.812 
			260.991,486.746 257.495,489.968 257.319,490.062 257.189,490.244 255,492.09 254.211,492.736 253.599,493.289 253.075,493.794 
			249.921,496.381 249.003,497.21 248.914,497.257 248.914,497.257 246.719,498.879 245.713,499.755 245.23,500.125 
			244.571,500.589 241.411,502.952 240.269,503.787 240.316,503.875 240.316,503.875 237.986,505.456 237.109,506.149 
			235.879,507.031 233.419,508.794 231.483,510.052 231,510.422 230.165,510.98 228.799,511.821 227.081,512.849 226.375,513.225 
			226.022,513.413 224.875,514.024 222.756,515.152 221.874,515.622 219.532,516.756 218.12,517.508 215.642,518.601 
			215.289,518.789 215.066,518.795 214.401,519.036 211.7,520.134 210.459,520.568 207.529,521.449 206.287,521.884 202.734,522.87 
			202.157,523.063 201.669,523.21 198.557,523.961 198.11,523.973 194.639,524.688 194.55,524.735 191.385,525.175 191.385,525.175 
			188.262,525.479 187.015,525.69 184.738,525.882 183.173,525.922 181.12,526.109 178.62,526.308 176.832,526.354 175.002,526.535 
			173.438,526.575 170.802,526.733 170.043,526.797 167.361,526.866 167.137,526.872 164.767,526.888 161.726,526.921 
			161.055,526.938 160.696,526.903 157.384,526.854 155.996,526.8 154.161,526.758 153.22,526.692 150.532,526.538 149.591,526.473 
			147.214,526.265 143.85,525.904 143.714,525.863 143.626,525.91 140.574,525.497 138.238,525.154 137.744,525.077 
			136.844,524.877 134.956,524.523 132.704,523.909 131.533,523.626 131.039,523.55 129.957,523.219 127.387,522.436 
			126.123,521.976 124.635,521.522 122.871,520.762 122.1,520.379 120.107,519.402 119.607,519.101 117.566,518.035 
			115.338,516.616 113.474,515.456 110.146,513.037 109.281,512.477 108.641,511.912 106.495,510.223 105.671,509.528 
			103.567,507.703 101.962,506.179 100.633,504.96 100.357,504.654 99.346,503.607 98.382,502.647 95.942,499.981 90.781,494.119 
			89.999,493.289 89.582,492.718 82.704,484.485 82.287,483.914 81.64,483.125 78.731,479.577 77.667,478.217 75.539,475.498 
			74.705,474.356 71.972,470.714 71.554,470.143 70.996,469.307 69.233,466.847 67.646,464.293 67.552,464.117 67.411,463.852 
			66.054,461.516 65.537,460.545 64.967,459.262 64.309,458.027 63.257,455.414 62.729,453.996 61.76,451.113 61.713,451.025 
			60.973,448.36 60.674,447.16 60.211,444.801 59.877,442.259 59.749,440.741 59.726,439.847 59.633,437.971 59.634,436.271 
			59.652,435.241 59.93,432.147 59.99,430.983 60.102,430.13 60.332,428.648 60.48,427.436 60.711,425.954 61.188,423.66 
			61.554,422.219 61.867,420.466 62.238,419.249 62.439,418.349 62.686,417.537 63.14,416.049 63.83,413.303 63.995,412.762 
			64.119,412.356 64.284,411.815 65.274,408.568 65.852,406.675 66.512,404.51 66.677,403.969 66.848,403.652 67.136,402.705 
			67.802,400.764 68.179,399.77 68.386,399.094 69.269,396.924 69.812,395.389 69.982,395.071 70.489,393.895 70.99,392.495 
			71.502,391.543 71.791,390.596 72.515,389.19 73.823,386.115 73.911,386.068 74.842,383.986 75.525,382.716 75.949,381.81 
			76.332,381.04 77.227,379.317 78.211,377.547 78.935,376.141 79.789,374.554 79.83,374.418 80.007,374.324 80.99,372.554 
			81.932,370.92 82.191,370.555 82.274,370.285 83.522,368.374 84.164,367.239 85.071,365.963 85.759,364.916 87.184,362.911 
			87.355,362.594 87.702,362.182 88.998,360.359 90.34,358.625 91.164,357.619 91.599,357.161 93.642,354.827 94.16,354.098 
			94.425,353.957 96.862,351.299 97.863,350.2 99.564,348.501 101.353,346.755 102.401,345.744 105.061,343.081 105.673,342.528 
			106.503,341.746 108.163,340.183 108.951,339.536 109.475,339.031 110.352,338.337 112.583,336.356 112.848,336.215 
			113.154,335.939 115.608,333.952 116.526,333.123 118.368,331.689 119.592,330.584 120.952,329.52 122.794,328.086 
			123.365,327.668 125.118,326.281 127.002,324.712 127.308,324.435 128.755,323.325 129.544,322.678 129.632,322.631 
			129.85,322.402 132.31,320.639 134.152,319.204 134.941,318.558 136.783,317.124 136.959,317.03 137.047,316.983 138.89,315.548 
			141.261,313.832 142.315,313.045 142.885,312.627 145.563,310.635 145.604,310.5 146.746,309.665 148.9,308.178 149.029,307.996 
			149.206,307.902 150.042,307.343 151.754,306.092 152.325,305.674 153.643,304.746 154.785,303.911 155.974,303.165 
			157.51,302.007 157.816,301.731 157.992,301.637 159.881,300.291 160.146,300.15 160.587,299.915 163.182,298.193 164.63,297.082 
			166.037,296.106 167.314,295.313 169.821,293.638 170.833,292.986 173.075,291.452 174.481,290.476 175.582,289.777 
			176.417,289.218 178.395,287.825 180.242,286.615 180.419,286.521 183.144,284.617 183.32,284.523 183.408,284.475 
			183.715,284.199 186.486,282.383 187.322,281.825 189.17,280.614 190.488,279.686 192.506,278.158 193.342,277.599 
			194.089,277.088 195.584,276.065 197.079,275.043 197.65,274.625 198.221,274.208 199.933,272.956 200.857,272.351 
			201.822,271.61 202.964,270.776 203.888,270.17 205.906,268.642 206.389,268.272 206.695,267.996 208.19,266.973 208.978,266.326 
			209.549,265.909 210.297,265.398 211.791,264.375 213.504,263.123 214.604,262.424 216.67,260.984 217.635,260.243 
			219.524,258.897 220.972,257.787 221.807,257.228 224.003,255.606 224.838,255.048 226.374,253.89 227.251,253.196 
			228.351,252.497 229.887,251.339 230.723,250.781 232.565,249.347 233.401,248.788 234.849,247.677 236.255,246.702 
			237.703,245.591 238.974,244.574 239.721,244.063 241.916,242.441 242.752,241.882 244.112,240.818 245.253,239.984 
			246.442,239.237 247.231,238.591 249.561,237.01 249.69,236.828 249.867,236.734 252.286,235.106 253.998,233.854 
			254.745,233.342 256.152,232.367 258.965,230.416 259.271,230.139 259.665,229.816 262.213,228.006 263.885,226.889 
			264.673,226.243 266.386,224.991 268.14,223.604 268.887,223.092 272.218,220.412 272.306,220.365 272.306,220.365 
			272.306,220.365 274.76,218.378 276.691,216.897 276.732,216.762 276.82,216.715 276.909,216.668 279.498,214.722 
			280.769,213.705 281.381,213.153 283.359,211.76 285.024,210.42 285.154,210.237 285.418,210.096 287.125,208.621 
			288.879,207.234 289.185,206.958 291.374,205.112 293.258,203.542 293.434,203.448 293.564,203.266 295.188,202.061 
			297.248,200.398 297.601,200.21 298.172,199.792 300.237,198.352 301.862,197.148 302.038,197.054 302.432,196.73 306.046,194.58 
			307.146,193.88 307.676,193.598 308.47,193.175 310.276,192.1 312.042,191.16 313.848,190.084 314.554,189.708 316.979,188.304 
			318.832,187.317 319.627,186.894 321.963,185.536 323.022,184.972 323.905,184.502 325.805,183.603 327.041,182.945 
			327.217,182.851 329.071,181.864 331.454,180.595 331.807,180.407 332.16,180.219 335.697,178.562 336.05,178.374 
			337.421,177.757 339.939,176.53 341.922,175.36 342.275,175.172 342.452,175.078 344.129,174.185 347.253,172.181 
			348.048,171.758 348.401,171.57 350.384,170.401 351.92,169.243 352.667,168.731 353.238,168.314 353.897,167.85 355.174,167.057 
			356.492,166.128 356.757,165.987 356.845,165.94 359.093,164.629 361.076,163.46 361.429,163.272 365.354,161.069 
			365.442,161.022 366.278,160.463 366.719,160.228 367.025,159.952 368.791,159.012 369.538,158.501 371.127,157.654 
			373.775,156.244 376.158,154.975 378.011,153.988 381.189,152.296 382.378,151.55 382.554,151.456 384.231,150.562 
			386.079,149.352 386.344,149.211 386.52,149.117 388.503,147.947 390.657,146.46 390.745,146.413 390.745,146.413 
			391.187,146.178 394.576,144.033 394.794,143.804 394.971,143.71 395.365,143.387 397.436,142.17 399.19,140.783 399.543,140.595 
			399.937,140.272 401.832,139.15 403.457,137.945 404.604,137.334 406.281,136.441 407.511,135.559 407.687,135.465 
			408.57,134.995 409.406,134.437 410.771,133.596 411.954,132.626 412.878,132.021 413.931,131.233 416.215,129.564 
			416.568,129.376 417.227,128.912 418.415,128.166 419.516,127.466 420.44,126.861 421.717,126.068 423.123,125.092 
			423.918,124.669 424.706,124.022 427.696,121.977 427.872,121.883 428.931,121.319 430.608,120.426 432.591,119.257 
			432.903,119.204 433.168,119.063 435.069,118.164 437.369,117.165 438.034,116.925 441.529,115.403 443.612,114.634 
			444.853,114.199 445.783,113.818 449.378,112.696 449.554,112.602 449.907,112.414 451.772,111.874 453.237,111.434 
			454.255,111.005 455.144,110.759 456.032,110.512 458.25,109.784 459.05,109.584 460.427,109.191 461.268,108.856 
			462.733,108.416 463.398,108.175 464.993,107.553 465.522,107.271 466.94,106.742 468.093,106.355 470.306,105.403 
			471.765,104.739 472.83,104.399 473.536,104.023 475.578,103.389 476.731,103.001 478.678,102.191 480.585,101.515 
			483.421,100.458 484.044,100.353 484.397,100.165 487.639,99.231 489.945,98.456 491.145,98.157 492.699,97.67 494.923,97.165 
			496.299,96.772 498.476,96.179 500.829,95.492 501.318,95.345 501.941,95.24 504.43,94.594 507.23,93.896 507.583,93.708 
			508.737,93.321 510.69,92.734 511.09,92.634 512.732,92.099 514.061,91.618 514.461,91.518 516.232,90.802 517.697,90.361 
			517.874,90.267 521.598,88.964 521.686,88.917 521.775,88.87 522.216,88.635 525.893,87.243 526.911,86.814 529.3,85.768 
			530.318,85.34 531.777,84.676 533.107,84.194 534.795,83.748 537.32,82.744 538.337,82.315 540.238,81.416 540.373,81.457 
			542.68,80.682 543.256,80.489 545.215,80.125 546.415,79.826 550.016,78.928 550.24,78.922 550.328,78.875 550.463,78.917 
			550.687,78.911 554.257,78.595 556.046,78.549 557.387,78.515 559.087,78.516 560.699,78.564 562.04,78.529 563.61,78.713 
			566.075,78.873 566.881,78.897 568.045,78.957 570.24,79.034 574.404,79.196 574.851,79.184 575.028,79.09 575.61,79.12 
			578.563,79.134 579.904,79.099 581.51,78.924 583.569,78.96 584.687,78.932 586.881,79.009 588.492,79.057 591.222,79.077 
			592.298,79.183 595.621,79.679 596.116,79.756 596.204,79.709 596.251,79.797 599.45,80.699 599.95,81 602.344,81.878 
			602.479,81.919 604.655,83.026 604.702,83.114 606.748,84.404 607.248,84.704 608.435,85.658 609.941,86.782 611.034,87.559 
			612.31,88.466 614.039,89.585 614.992,90.097 615.985,90.474 617.297,91.022 619.232,91.464 619.773,91.629 620.085,91.577 
			623.273,92.031 623.767,92.108 626.055,92.363 626.996,92.428 628.614,92.699 631.49,93.207 631.76,93.29 632.166,93.413 
			634.642,94.021 635.589,94.31 637.212,94.805 638.565,95.217 640.547,95.748 641.806,95.984 642.976,96.267 643.605,96.385 
			644.682,96.492 645.623,96.557 648.082,96.494 648.617,96.435 650,96.265 651.917,96.037 652.364,96.026 652.765,95.926 
			655.965,95.128 656.365,95.028 658.542,94.435 660.272,93.854 660.672,93.754 662.537,93.214 663.913,92.821 666.043,92.14 
			667.02,91.846 669.685,91.107 669.773,91.06 669.862,91.013 672.309,90.503 672.621,90.45 675.386,90.11 676.056,90.093 
			676.727,90.076 678.427,90.077 679.95,90.172 680.309,90.207 681.25,90.273 681.833,90.302 682.191,90.338 683.274,90.668 
			684.403,91.086 685.35,91.375 686.567,91.746 687.737,92.03 688.731,92.407 689.814,92.737 690.76,93.025 690.943,93.155 
			691.937,93.532 693.019,93.862 694.954,94.305 697.206,94.918 697.836,95.036 698.871,95.277 699.729,95.613 701.347,95.885 
			703.37,96.28 705.346,96.587 706.74,96.865 708.493,97.177 709.346,97.29 711.687,97.856 712.498,98.103 714.345,98.593 
			715.739,98.87 717.045,99.194 718.262,99.566 719.344,99.896 721.156,100.744 722.061,101.168 723.102,101.633 724.596,102.311 
			725.778,103.041 728.453,104.448 728.542,104.401 728.542,104.401 731.546,106.427 731.776,106.645 732.005,106.862 
			734.198,108.64 734.704,109.164 735.438,109.906 737.278,111.871 738.942,113.931 739.218,114.237 		">
		</polygon>
		<polygon slic3r:type="hole" style="stroke:#000000;stroke-miterlimit:10;" points="673.163,195.074 672.522,194.509 
			671.087,194.366 670.011,194.26 669.522,194.407 666.94,194.876 666.539,194.975 666.098,195.211 663.568,195.991 
			663.168,196.091 661.221,196.902 660.25,197.419 658.484,198.359 657.69,198.782 657.249,199.017 655.401,200.228 
			654.565,200.786 652.812,202.173 652.329,202.543 651.846,202.914 650.363,204.383 649.751,204.936 649.186,205.577 
			648.45,206.535 648.15,207.035 647.938,207.488 647.302,208.846 647.349,208.934 647.113,210.193 647.265,210.905 
			647.647,211.835 647.747,212.235 648.07,212.629 648.852,213.459 649.669,213.93 650.798,214.348 651.88,214.678 653.445,214.638 
			655.322,214.545 657.104,214.276 658.304,213.976 660.787,213.107 661.364,212.914 663.882,211.686 664.147,211.545 
			666.878,209.864 667.095,209.635 669.42,207.83 669.726,207.554 669.726,207.554 669.814,207.507 671.474,205.943 
			672.298,204.938 673.164,203.797 674.241,202.204 674.412,201.886 674.83,200.757 675.036,200.081 675.072,199.722 
			675.432,198.057 675.103,197.44 674.527,195.933 		">
		</polygon>
	</g>
</g>
<g id="Layer_1">
</g>
</svg>
