<?xml version="1.0" encoding="iso-8859-1"?>
<!-- Generator: Adobe Illustrator 19.2.1, SVG Export Plug-In . SVG Version: 6.00 Build 0)  -->
<svg version="1.1" xmlns="http://www.w3.org/2000/svg" xmlns:xlink="http://www.w3.org/1999/xlink" x="0px" y="0px"
	 viewBox="0 0 841.89 595.28" style="enable-background:new 0 0 841.89 595.28;" xml:space="preserve">
<g id="layer217">
	<g id="layer217_1_" slic3r:z="8.70000000000007e-005">
		<polygon slic3r:type="contour" style="fill:#FFFFFF;stroke:#000000;stroke-miterlimit:10;" points="750.458,222.568 
			750.916,224.703 751.068,225.415 751.002,228.056 751.055,228.368 750.972,228.639 750.511,231.603 750.152,233.268 
			749.951,234.167 749.203,236.379 749.038,236.92 748.878,237.684 748.207,239.402 747.694,240.354 747.023,242.072 
			746.351,243.789 746.268,244.059 745.067,246.059 744.767,246.558 744.255,247.511 743.136,249.24 741.846,251.286 741.37,251.88 
			740.981,252.427 739.415,254.167 738.156,255.631 737.891,255.772 736.049,257.206 734.171,258.999 733.953,259.228 
			732.064,260.574 730.834,261.456 729.687,262.067 728.633,262.854 727.31,263.56 725.685,264.764 724.979,265.14 724.538,265.375 
			722.202,266.733 720.836,267.573 720.483,267.761 719.336,268.372 718.142,268.895 717.035,269.371 715.929,269.847 
			714.776,270.234 712.781,270.957 711.275,271.532 708.751,272.536 707.863,272.783 704.356,273.857 704.221,273.816 
			704.044,273.91 700.662,274.579 698.35,275.13 696.479,275.447 695.279,275.746 692.119,276.409 691.808,276.461 688.96,277.072 
			687.272,277.518 684.336,278.175 682.959,278.568 678.876,279.836 678.476,279.936 678.164,279.988 674.352,281.339 
			674.128,281.345 673.599,281.627 670.851,282.637 670.009,282.972 666.956,284.258 666.956,284.258 664.084,285.674 
			661.525,287.037 661.083,287.272 660.642,287.507 658.082,288.87 656.629,289.758 656.011,290.087 654.422,290.933 
			653.54,291.403 651.821,292.431 650.321,293.23 648.867,294.118 646.973,295.24 646.137,295.798 644.154,296.968 643.889,297.109 
			641.6,298.554 641.423,298.648 640.982,298.883 638.734,300.194 637.587,300.805 636.045,301.739 634.456,302.585 
			631.726,304.266 631.549,304.36 631.461,304.407 628.99,305.723 626.518,307.039 626.43,307.086 626.254,307.18 623.517,308.638 
			621.84,309.531 621.046,309.954 619.41,310.712 616.98,311.892 616.804,311.986 616.715,312.033 613.797,313.361 611.72,314.354 
			610.878,314.689 608.843,315.546 607.248,316.169 606.807,316.404 606.142,316.645 602.688,318.031 600.517,318.847 
			598.746,319.564 596.398,320.474 594.98,321.003 593.562,321.531 591.48,322.3 588.82,323.263 588.244,323.457 587.891,323.645 
			584.961,324.526 582.654,325.301 581.678,325.594 580.301,325.988 578.036,326.628 576.571,327.068 574.082,327.713 
			570.97,328.464 570.305,328.705 569.058,328.916 566.299,329.479 564.74,329.743 562.204,330.3 558.816,330.745 557.88,330.903 
			553.598,331.371 552.662,331.53 549.492,331.745 548.197,331.868 547.75,331.88 543.862,332.024 542.833,332.006 540.15,332.075 
			538.45,332.074 536.168,332.043 535.227,331.978 532.409,332.006 531.827,331.976 531.603,331.982 530.574,331.963 
			527.662,331.814 527.168,331.738 525.868,331.637 523.762,331.512 522.821,331.447 520.398,331.151 518.557,330.885 
			516.31,330.496 515.545,330.337 514.781,330.177 512.128,329.664 511.228,329.463 510.599,329.345 509.205,329.068 
			507.093,328.72 504.488,328.294 504.264,328.3 502.829,328.158 501.212,327.887 500.941,327.804 498.294,327.514 495.377,327.142 
			494.571,327.118 494.03,326.953 490.53,326.551 489.677,326.438 487.477,326.137 486.983,326.06 486.848,326.019 483.748,325.517 
			483.66,325.564 483.166,325.487 480.784,325.057 479.843,324.991 477.866,324.684 476.967,324.484 475.396,324.3 474.496,324.1 
			473.867,323.982 471.661,323.457 470.761,323.256 469.909,323.144 467.162,322.454 467.027,322.413 466.756,322.33 
			464.633,321.535 462.51,320.74 461.557,320.227 459.523,319.385 456.623,317.983 456.394,317.765 456.077,317.594 
			453.301,315.787 452.208,315.01 450.02,313.455 449.244,312.849 448.968,312.543 448.509,312.107 445.764,309.718 
			445.487,309.412 443.33,307.275 441.355,305.268 440.026,304.049 437.457,301.565 436.769,300.912 434.018,298.299 
			433.471,297.91 430.502,295.526 430.273,295.308 430.226,295.22 425.768,292.382 425.404,292.123 424.457,291.834 
			421.199,290.397 418.858,289.831 417.688,289.548 416.206,289.317 414.5,289.093 413.023,289.086 411.323,289.085 
			410.341,289.155 407.929,289.306 406.37,289.57 405.346,289.775 404.323,289.981 402.364,290.344 400.052,290.896 
			398.851,291.195 397.34,291.547 395.916,291.852 394.851,292.192 392.939,292.644 391.386,293.132 389.785,293.531 
			388.32,293.971 386.144,294.564 383.219,295.668 382.466,295.956 381.272,296.478 378.924,297.389 378.042,297.859 
			375.564,298.951 374.24,299.656 371.857,300.926 371.593,301.067 369.474,302.195 367.621,303.182 366.079,304.116 
			364.008,305.333 361.807,306.731 360.795,307.383 358.599,309.006 358.029,309.423 357.764,309.564 355.039,311.468 
			352.85,313.314 352.632,313.543 349.56,315.859 349.56,315.859 349.472,315.906 349.342,316.088 346.665,318.081 345.699,318.821 
			344.864,319.38 343.634,320.261 341.086,322.072 340.691,322.395 340.209,322.765 337.614,324.487 336.56,325.275 
			335.724,325.833 334.583,326.668 332.912,327.784 331.858,328.572 329.751,330.147 329.357,330.47 329.18,330.564 
			327.074,332.139 326.197,332.833 324.231,334.673 323.354,335.367 322.395,336.331 320.647,337.941 319.428,339.27 
			318.557,340.187 316.985,341.704 315.767,343.033 314.59,344.226 313.413,345.419 312.235,346.613 311.541,347.436 
			310.369,348.853 309.757,349.405 309.151,350.181 308.327,351.187 307.026,352.786 306.037,354.333 305.43,355.109 
			304.918,356.061 303.758,357.925 303.246,358.878 302.392,360.466 301.791,361.465 301.237,362.553 300.554,363.823 
			299.753,365.723 298.982,367.04 297.804,369.933 297.633,370.251 297.591,370.386 296.578,372.739 296.248,373.821 295.53,375.45 
			294.993,377.208 294.61,377.979 293.909,380.278 293.826,380.549 293.491,381.407 292.996,383.03 292.872,383.436 
			292.176,385.959 291.687,387.806 291.233,389.294 291.032,390.194 290.307,393.299 290.266,393.435 289.54,396.54 
			289.287,397.128 289.004,398.299 288.432,400.416 287.601,402.898 287.607,403.121 287.519,403.168 286.688,405.65 
			286.222,406.691 285.721,408.091 284.838,410.261 284.667,410.578 284.249,411.707 283.748,413.107 283.536,413.56 
			282.735,415.46 282.099,416.818 281.592,417.994 280.797,420.117 280.714,420.388 280.626,420.435 279.707,422.964 
			279.453,423.552 278.994,424.816 278.322,426.533 277.609,428.386 277.185,429.291 275.618,432.732 275.318,433.231 
			275.194,433.637 273.875,436.266 273.492,437.036 272.597,438.759 272.302,439.483 270.771,442.564 270.559,443.017 
			270.388,443.334 269.793,444.558 269.463,445.64 268.203,448.804 266.665,453.362 266.37,454.085 266.37,454.085 266.199,454.402 
			265.987,454.855 264.379,458.431 264.167,458.884 264.038,459.066 262.542,461.788 261.605,463.647 261.517,463.694 
			259.798,466.422 258.685,468.374 258.467,468.604 257.56,469.88 257.125,470.338 256.171,471.526 255.482,472.572 
			255.135,472.984 254.399,473.942 252.839,475.906 252.097,476.641 251.185,477.693 249.443,479.527 248.53,480.58 248.53,480.58 
			246.476,482.467 244.828,484.478 244.263,485.118 244.086,485.212 243.651,485.671 241.12,488.152 240.508,488.704 
			239.984,489.21 239.766,489.439 237.353,491.291 236.653,491.89 235.729,492.496 234.187,493.43 232.292,494.552 231.722,494.97 
			230.133,495.816 228.009,496.72 227.038,497.237 225.579,497.901 223.672,498.577 219.689,500.245 219.377,500.297 
			219.201,500.391 218.136,500.732 214.235,502.13 213.17,502.47 210.416,503.257 208.063,503.943 206.863,504.243 203.927,504.9 
			203.839,504.947 200.992,505.557 199.791,505.856 197.12,506.372 196.809,506.425 196.05,506.489 194.314,506.847 
			193.779,506.905 191.638,507.139 189.049,507.385 187.979,507.502 186.637,507.536 183.961,507.829 181.725,507.886 
			179.537,508.032 175.784,508.218 175.649,508.177 175.513,508.135 172.249,508.175 172.025,508.18 169.608,508.108 
			168.355,508.096 165.802,507.982 165.131,508 163.831,507.899 162.531,507.798 159.573,507.561 159.437,507.52 157.508,507.301 
			155.714,507.123 155.579,507.082 155.355,507.088 153.155,506.787 152.391,506.627 150.685,506.403 149.291,506.125 
			147.315,505.818 145.65,505.458 144.751,505.258 142.951,504.857 141.827,504.662 139.487,504.096 138.404,503.766 
			136.469,503.323 135.975,503.247 134.082,502.669 133.405,502.463 131.647,501.926 130.923,501.632 129.571,501.219 
			128.306,500.76 126.318,500.005 125.595,499.711 122.884,498.662 122.296,498.409 120.396,497.608 119.355,497.142 
			119.038,496.972 116.409,495.652 116.227,495.523 115.909,495.352 113.816,493.974 112.587,493.156 111.494,492.379 
			110.671,491.684 108.889,490.254 108.525,489.995 107.008,488.423 106.549,487.988 104.892,486.151 104.845,486.063 
			104.615,485.845 102.394,482.95 102.117,482.644 101.747,482.161 98.42,478.041 96.116,475.417 94.546,473.533 92.753,471.656 
			91.278,469.949 89.438,467.983 88.009,466.365 86.957,465.452 85.158,463.351 84.606,462.739 83.307,460.938 83.078,460.72 
			82.749,460.103 81.803,458.114 80.716,455.86 80.434,455.331 79.712,453.336 78.884,450.718 78.69,450.141 78.637,449.829 
			78.49,449.341 77.951,445.776 77.917,444.435 77.431,441.182 77.378,440.87 77.372,440.646 77.156,437.476 76.994,434.617 
			77.029,434.258 77.023,434.034 77.185,429.87 77.116,427.187 77.169,425.799 77.189,423.07 77.284,421.546 77.361,421.052 
			77.828,416.611 77.905,416.117 77.982,415.623 78.425,411.988 78.625,411.088 78.82,409.965 79.298,407.671 79.669,406.454 
			80.224,403.666 80.477,403.078 80.595,402.448 81.344,400.237 81.839,398.614 82.092,398.026 82.805,396.173 83.736,394.091 
			84.119,393.321 84.319,392.421 84.944,390.616 85.486,389.081 85.657,388.763 85.822,388.222 86.364,386.687 86.747,385.917 
			87.948,383.917 89.085,381.159 89.597,380.207 89.898,379.707 90.793,377.984 91.134,377.349 91.352,377.119 92.777,375.114 
			93.16,374.344 94.155,373.021 95.191,371.563 96.486,369.74 97.31,368.735 97.61,368.235 98.517,366.959 99.6,365.589 
			100.819,364.261 101.296,363.667 103.026,361.385 103.115,361.338 103.203,361.291 105.204,359.093 105.51,358.816 
			106.117,358.04 107.641,356.435 109.736,354.413 110.131,354.09 110.349,353.86 112.791,351.427 112.832,351.291 114.628,349.769 
			114.845,349.54 116.158,348.388 118.259,346.589 118.871,346.036 119.265,345.713 120.054,345.066 121.325,344.049 
			122.202,343.356 123.344,342.521 124.527,341.551 125.58,340.764 127.075,339.741 128.217,338.907 129.664,337.796 
			130.676,337.143 132.171,336.121 134.107,334.863 134.325,334.634 136.132,333.559 137.144,332.906 137.803,332.442 
			138.727,331.837 139.609,331.367 140.139,331.084 141.504,330.244 143.575,329.028 144.852,328.234 146.659,327.159 
			149.26,325.661 149.525,325.52 149.789,325.379 153.361,323.363 154.903,322.429 158.075,320.513 158.34,320.372 158.557,320.143 
			161.558,318.545 162.835,317.751 165.124,316.306 165.213,316.259 167.596,314.989 167.684,314.942 169.932,313.632 
			171.168,312.974 174.869,310.776 175.487,310.447 175.663,310.353 176.016,310.165 180.424,307.591 182.713,306.146 
			183.86,305.535 185.796,304.277 186.414,303.948 187.073,303.484 188.527,302.596 189.321,302.173 190.422,301.474 
			192.052,300.493 193.464,299.74 194.7,299.082 195.406,298.706 197.96,297.12 199.019,296.556 199.548,296.274 201.837,294.828 
			203.779,293.794 205.186,292.818 208.622,290.761 209.017,290.438 209.193,290.344 212.812,288.417 215.095,286.748 
			215.272,286.654 217.384,285.302 218.132,284.791 219.762,283.809 221.257,282.787 221.963,282.411 223.675,281.159 
			224.117,280.924 224.293,280.83 226.229,279.572 227.371,278.738 228.383,278.085 230.49,276.51 230.666,276.416 231.149,276.046 
			232.908,274.882 233.744,274.324 235.104,273.26 236.463,272.196 237.163,271.596 239.176,269.845 239.264,269.798 
			239.571,269.521 241.324,268.134 241.983,267.67 243.655,266.553 244.967,265.401 245.45,265.031 247.339,263.685 
			247.645,263.409 248.698,262.621 249.928,261.74 250.499,261.322 252.306,260.247 253.883,258.954 254.542,258.489 
			256.207,257.149 256.69,256.779 256.82,256.597 258.615,255.074 259.362,254.563 260.851,253.317 262.075,252.212 
			262.817,251.477 264.259,250.142 264.741,249.772 266.23,248.526 268.414,246.457 268.85,245.998 269.285,245.54 270.951,244.199 
			272.134,243.23 273.14,242.354 275.2,240.69 275.329,240.508 275.812,240.138 277.613,238.839 278.095,238.468 279.673,237.175 
			280.985,236.023 281.95,235.283 283.569,233.854 283.833,233.713 286.111,231.82 286.111,231.82 286.152,231.685 287.953,230.386 
			289.048,229.463 290.319,228.446 291.849,227.065 292.114,226.924 294.303,225.078 294.698,224.755 295.045,224.343 
			296.228,223.374 297.234,222.498 298.982,220.887 299.506,220.381 300.342,219.823 302.802,218.06 303.591,217.413 
			304.291,216.814 305.786,215.791 308.193,213.716 308.281,213.669 308.281,213.669 312.053,210.754 312.842,210.107 
			314.113,209.09 316.085,207.474 316.391,207.198 317.226,206.639 317.533,206.363 320.516,204.094 321.352,203.536 
			324.159,201.361 324.642,200.991 325.124,200.621 325.783,200.156 326.048,200.015 329.079,197.835 330.044,197.094 
			332.239,195.472 333.204,194.731 334.434,193.85 334.564,193.667 334.652,193.62 337.424,191.805 338.389,191.064 
			339.136,190.553 340.278,189.718 341.773,188.695 343.573,187.397 344.409,186.838 345.904,185.816 346.563,185.351 
			348.146,184.282 348.54,183.958 350.17,182.977 352.277,181.402 352.583,181.126 354.384,179.827 354.384,179.827 354.472,179.78 
			356.008,178.622 357.062,177.834 358.645,176.765 360.834,174.919 361.317,174.548 362.894,173.255 362.894,173.255 
			362.982,173.208 364.342,172.144 364.648,171.868 365.525,171.175 367.149,169.97 369.426,168.077 369.779,167.889 
			371.357,166.596 371.445,166.549 372.851,165.573 373.246,165.25 374.123,164.556 375.747,163.351 378.066,161.323 
			378.331,161.182 379.378,160.171 379.949,159.754 380.956,158.878 381.485,158.596 382.662,157.403 384.328,156.063 
			386.382,154.176 386.558,154.082 386.511,153.993 386.6,153.946 388.571,152.33 389.925,151.042 390.496,150.625 392.026,149.244 
			392.768,148.509 393.733,147.768 394.304,147.351 394.522,147.122 397.064,145.088 398.682,143.659 399.601,142.831 
			401.219,141.402 401.396,141.308 401.396,141.308 401.525,141.126 402.843,140.197 405.651,138.023 407.098,136.912 
			407.975,136.218 409.552,134.925 409.859,134.649 409.947,134.602 410.165,134.372 411.306,133.538 414.16,131.451 
			415.697,130.293 416.05,130.105 416.709,129.641 418.333,128.436 418.421,128.389 418.727,128.113 419.957,127.231 
			420.134,127.137 422.641,125.462 424.753,124.111 425.236,123.74 426.601,122.9 426.907,122.624 429.326,120.996 429.414,120.949 
			429.59,120.855 431.132,119.92 431.927,119.497 432.85,118.892 434.127,118.099 435.363,117.441 437.835,116.124 438.276,115.889 
			439.158,115.419 439.6,115.184 439.688,115.137 440.618,114.756 443.442,113.251 443.795,113.063 444.325,112.781 
			444.548,112.776 444.637,112.729 445.696,112.165 447.996,111.166 448.702,110.79 449.72,110.361 452.156,109.404 
			452.998,109.069 455.169,108.253 456.275,107.777 457.028,107.489 458.534,106.914 460.794,106.05 460.794,106.05 
			460.882,106.003 463.5,105.175 465.318,104.547 465.542,104.541 465.806,104.4 467.36,103.913 467.983,103.808 468.071,103.761 
			469.848,103.267 471.978,102.586 472.066,102.539 473.978,102.088 474.955,101.794 476.867,101.342 478.156,100.996 
			479.044,100.75 480.203,100.586 481.003,100.386 482.338,100.128 483.85,99.776 485.409,99.512 485.498,99.465 486.968,99.248 
			488.839,98.932 490.486,98.621 491.869,98.451 493.651,98.182 496.281,97.801 496.681,97.701 496.905,97.696 500.34,97.339 
			501.411,97.222 503.329,96.994 503.417,96.947 505.293,96.854 506.276,96.784 510.117,96.551 510.429,96.498 510.788,96.534 
			513.294,96.559 513.741,96.547 515.623,96.678 517.282,96.814 518.987,97.039 521.052,97.299 522.269,97.67 524.698,98.189 
			526.322,98.684 528.033,99.132 529.433,99.633 532.009,100.641 534.179,101.524 535.537,102.16 538.572,103.603 539.889,104.375 
			542.841,106.088 543.976,106.73 545.887,107.978 546.98,108.756 547.615,109.097 548.797,109.827 550.203,110.552 552.29,111.706 
			552.561,111.788 552.878,111.959 554.372,112.637 555.325,113.149 557.947,114.245 558.671,114.539 559.847,115.046 
			562.064,116.018 563.011,116.307 564.781,117.29 565.145,117.549 566.275,117.967 567.763,118.421 568.398,118.763 
			569.392,119.14 572.15,120.277 573.508,120.913 575.272,121.673 577.084,122.521 578.395,123.069 580.389,124.047 
			581.065,124.253 582.153,124.806 584.011,125.743 585.328,126.514 586.916,127.368 588.321,128.093 589.456,128.734 
			591.773,130.106 592.726,130.619 593.455,131.137 596.459,133.162 596.595,133.203 596.595,133.203 596.642,133.292 
			600.517,136.1 600.699,136.23 600.746,136.318 600.928,136.447 604.397,139.132 604.809,139.479 605.173,139.738 605.632,140.174 
			608.695,142.734 608.877,142.864 609.059,142.993 610.706,144.383 612.487,145.813 612.669,145.943 612.852,146.072 
			613.445,146.549 616.368,148.845 617.326,149.581 620.019,151.659 621.436,152.83 623.811,154.738 624.952,155.603 
			626.827,157.21 628.473,158.599 628.52,158.688 630.12,159.989 631.495,161.295 632.277,162.125 633.424,163.214 633.747,163.608 
			635.175,165.227 635.775,165.927 637.25,167.634 638.085,168.776 639.055,169.959 640.724,172.242 641.188,172.901 
			642.352,174.661 642.628,174.967 643.609,176.597 644.873,178.756 645.584,180.304 647.364,183.434 647.364,183.434 
			647.411,183.523 648.404,185.6 648.639,186.041 649.209,187.324 650.437,189.842 650.913,190.948 651.242,191.566 
			651.576,192.408 652.381,194.132 652.857,195.238 653.668,197.185 654.102,198.427 654.578,199.533 655.247,201.216 
			655.253,201.439 655.829,202.945 655.976,203.434 656.463,204.987 656.856,206.364 657.443,208.317 658.077,210.359 
			658.329,211.47 658.623,212.447 658.864,213.112 659.368,215.336 659.568,216.136 659.72,216.848 660.319,219.248 
			660.518,220.048 661.217,222.849 661.504,223.602 661.704,224.402 662.385,226.532 662.673,227.285 663.149,228.391 
			663.624,229.497 664.846,231.792 664.941,231.969 664.988,232.057 665.311,232.451 666.516,234.075 667.345,234.994 
			668.714,236.077 668.897,236.206 670.355,237.243 671.896,238.008 673.925,238.627 675.095,238.91 676.483,238.964 
			677.201,239.035 679.207,238.76 680.184,238.466 682.802,237.638 683.555,237.351 683.996,237.116 685.491,236.093 
			686.68,235.347 687.074,235.023 689.44,233.084 689.787,232.672 691.794,230.697 692.577,229.827 693.666,228.68 694.796,227.399 
			696.144,225.888 696.668,225.382 697.669,224.283 697.798,224.1 698.934,223.042 700.729,221.52 701.606,220.826 702.042,220.368 
			704.631,218.422 705.202,218.005 706.038,217.447 708.109,216.23 710.051,215.196 710.227,215.102 712.663,214.145 
			713.24,213.951 715.458,213.223 716.435,212.929 718.346,212.478 719.147,212.278 719.547,212.178 720.082,212.12 
			722.759,211.827 723.07,211.775 725.935,211.835 726.159,211.829 726.429,211.912 730.694,212.473 731.858,212.533 
			734.599,212.999 735.499,213.2 738.11,213.848 739.287,214.355 742.809,215.651 743.627,216.122 747.578,218.437 747.625,218.525 
			750.176,222.038 		">
		</polygon>
	</g>
</g>
<g id="Layer_1">
</g>
</svg>
