<?xml version="1.0" encoding="iso-8859-1"?>
<!-- Generator: Adobe Illustrator 19.2.1, SVG Export Plug-In . SVG Version: 6.00 Build 0)  -->
<svg version="1.1" xmlns="http://www.w3.org/2000/svg" xmlns:xlink="http://www.w3.org/1999/xlink" x="0px" y="0px"
	 viewBox="0 0 841.89 595.28" style="enable-background:new 0 0 841.89 595.28;" xml:space="preserve">
<g id="layer251">
	<g id="layer251_1_" slic3r:z="0.000100600000000001">
		<polygon slic3r:type="contour" style="fill:#FFFFFF;stroke:#000000;stroke-miterlimit:10;" points="740.097,120.567 
			740.196,120.967 740.59,122.344 740.836,123.232 741.288,125.144 742.01,127.139 742.644,129.181 743.825,131.611 
			744.013,131.964 744.671,133.199 745.517,134.788 745.658,135.053 747.163,137.877 747.68,138.848 748.661,140.478 
			749.701,142.644 749.707,142.867 749.848,143.132 750.576,145.35 750.98,147.174 751.074,147.35 750.955,149.68 750.967,150.127 
			751.031,150.886 750.718,152.638 750.852,154.38 751.451,156.78 751.891,158.245 752.414,159.44 753.119,160.763 754.101,162.393 
			754.529,163.411 755.088,164.247 755.975,165.701 756.68,167.024 757.05,167.507 758.173,169.402 758.408,169.843 
			758.643,170.284 760.329,173.238 760.559,173.456 761.123,174.515 762.021,176.416 762.256,176.857 762.538,177.387 
			763.103,178.446 763.567,179.105 764.09,180.3 765.618,182.318 766.223,183.242 766.458,183.683 767.063,184.607 768.545,186.538 
			769.191,187.326 770.825,189.968 770.825,189.968 770.825,189.968 772.141,192.44 772.57,193.458 773.01,194.923 773.245,195.364 
			773.644,196.964 773.855,198.211 773.931,199.417 773.895,199.776 773.924,200.894 773.982,203.129 773.922,204.294 
			773.774,205.505 773.532,206.541 773.497,206.899 773.291,207.576 772.878,208.928 772.672,209.605 772.036,210.963 
			771.276,212.727 770.934,213.363 770.292,214.497 769.568,215.903 768.414,217.99 768.031,218.761 767.772,219.125 
			767.513,219.49 766.306,221.266 765.917,221.812 764.746,223.229 763.439,224.605 762.574,225.746 762.397,225.84 761.532,226.98 
			760.443,228.127 759.613,228.909 758.742,229.826 757.294,230.937 755.805,232.183 755.016,232.829 753.792,233.934 
			752.345,235.045 751.597,235.557 749.32,237.449 748.619,238.049 747.654,238.79 745.506,240.5 744.146,241.564 742.263,243.133 
			741.345,243.962 740.08,245.203 738.638,246.537 737.419,247.866 736.548,248.783 734.806,250.617 734.458,251.029 
			733.805,251.716 732.451,253.004 731.58,253.921 730.315,255.161 728.614,256.86 727.872,257.595 727.301,258.012 
			725.206,260.035 724.07,261.093 723.193,261.786 721.486,263.262 720.874,263.814 718.285,265.76 717.802,266.13 715.342,267.893 
			712.747,269.615 711.864,270.085 709.664,271.484 708.74,272.089 708.122,272.418 706.133,273.364 705.692,273.599 
			704.85,273.934 703.038,274.786 702.244,275.209 700.561,275.879 698.66,276.777 697.954,277.153 695.301,278.34 695.301,278.34 
			694.683,278.669 692.117,279.809 691.676,280.044 689.64,280.901 688.181,281.565 687.563,281.894 685.927,282.652 
			684.027,283.551 682.126,284.45 680.537,285.296 678.902,286.054 677.666,286.712 675.901,287.652 675.724,287.746 
			675.459,287.887 673.388,289.103 672.329,289.667 670.564,290.607 668.934,291.589 667.521,292.341 665.409,293.692 
			665.321,293.739 663.249,294.956 662.943,295.232 661.972,295.749 660.077,296.872 659.548,297.154 658.536,297.806 
			657.171,298.646 655.805,299.487 654.087,300.515 651.533,302.102 651.268,302.243 648.45,303.97 648.144,304.247 
			647.791,304.435 644.795,306.256 644.224,306.674 642.418,307.749 640.394,309.054 638.981,309.806 638.411,310.223 
			636.998,310.975 635.192,312.051 634.268,312.656 632.591,313.549 630.696,314.671 628.536,315.935 627.654,316.405 
			625.847,317.48 625.541,317.756 625.365,317.85 623.511,318.838 622.982,319.12 621.258,319.924 619.845,320.676 617.68,321.716 
			617.503,321.81 617.327,321.904 615.162,322.944 614.232,323.326 613.302,323.708 611.708,324.33 610.337,324.947 608.742,325.57 
			607.901,325.905 606.483,326.433 605.642,326.768 604.4,327.202 602.806,327.825 601.653,328.212 600.723,328.594 
			596.734,330.039 596.069,330.28 594.121,331.09 592.35,331.807 591.909,332.042 591.244,332.283 587.926,333.71 586.643,334.28 
			584.431,335.231 583.901,335.513 582,336.412 580.188,337.264 579.923,337.405 579.7,337.411 577.093,338.686 575.457,339.444 
			575.016,339.679 573.292,340.483 571.833,341.147 569.444,342.193 567.896,342.904 566.214,343.573 565.196,344.002 
			563.425,344.719 563.16,344.86 561.742,345.388 560.324,345.917 559.083,346.351 557.665,346.88 556.865,347.079 555.182,347.749 
			554.605,347.943 551.987,348.77 551.499,348.917 550.122,349.311 546.792,350.291 546.792,350.291 545.015,350.784 
			542.791,351.288 542.08,351.441 540.12,351.804 538.785,352.062 537.897,352.309 536.161,352.667 533.802,353.13 533.225,353.324 
			532.602,353.429 529.578,354.133 526.154,354.937 525.442,355.09 524.33,355.342 521.306,356.046 519.706,356.445 517.17,357.002 
			513.076,357.823 512.94,357.782 512.852,357.829 508.84,358.38 507.722,358.408 505.805,358.636 505.046,358.701 504.599,358.712 
			503.84,358.776 501.163,359.069 500.493,359.086 499.957,359.145 499.022,359.303 497.057,359.443 496.298,359.507 
			494.38,359.735 492.151,360.016 491.704,360.028 491.08,360.133 489.027,360.32 487.956,360.437 486.439,360.566 483.809,360.947 
			483.762,360.858 483.674,360.905 481.085,361.151 479.615,361.368 478.409,361.443 476.403,361.719 475.332,361.836 
			473.95,362.005 471.32,362.386 469.314,362.661 467.131,363.031 463.749,363.699 462.99,363.763 462.501,363.91 458.807,364.631 
			455.689,365.159 454.618,365.276 453.059,365.54 450.471,365.785 448.418,365.972 446.276,366.206 443.859,366.134 
			442.159,366.133 440.324,366.091 438.041,366.06 435.671,366.076 433.924,365.987 433.565,365.951 431.241,366.056 
			430.124,366.085 429.676,366.096 429.229,366.108 426.818,366.259 425.523,366.382 422.664,366.545 422.217,366.556 
			421.417,366.756 417.493,367.259 417.27,367.265 417.135,367.224 417.135,367.224 417.046,367.271 413.081,367.909 
			412.193,368.156 410.234,368.519 408.857,368.913 406.057,369.611 404.68,370.004 404.192,370.151 403.968,370.157 
			399.932,371.513 398.026,372.189 396.255,372.905 392.63,374.609 392.454,374.703 392.101,374.891 392.012,374.938 
			389.67,376.072 387.864,377.147 386.275,377.993 384.822,378.88 383.586,379.539 383.015,379.956 382.662,380.144 
			379.396,381.883 377.719,382.776 375.113,384.051 372.688,385.455 372.247,385.69 370.97,386.484 370.793,386.578 
			370.793,386.578 368.94,387.565 367.798,388.4 367.18,388.729 366.698,389.099 363.132,391.338 362.431,391.937 359.707,393.842 
			358.918,394.488 358.741,394.582 358.524,394.812 358.218,395.088 356.47,396.699 354.898,398.215 353.85,399.226 
			353.285,399.867 352.632,400.555 351.196,402.113 350.413,402.983 349.759,403.671 347.711,405.781 346.622,406.928 
			345.315,408.303 344.486,409.085 343.444,410.32 342.484,411.284 341.007,412.977 340.353,413.665 339.311,414.9 337.487,417.005 
			336.833,417.692 336.792,417.828 336.663,418.01 334.838,420.115 333.448,421.761 332.925,422.267 332.707,422.496 
			332.36,422.907 331.141,424.236 329.881,425.7 328.01,427.717 327.574,428.175 327.268,428.451 326.22,429.462 324.996,430.568 
			323.731,431.808 322.989,432.543 322.336,433.231 321.329,434.107 319.452,435.9 318.881,436.317 318.445,436.775 316.78,438.116 
			314.237,440.149 313.931,440.426 312.525,441.401 310.33,443.023 309.894,443.482 308.27,444.687 306.693,445.98 305.639,446.768 
			305.333,447.044 303.885,448.155 302.396,449.401 301.914,449.771 301.478,450.23 299.813,451.57 298.018,453.092 
			297.712,453.369 297.229,453.739 295.61,455.167 293.768,456.602 293.462,456.878 293.245,457.107 292.939,457.383 
			290.879,459.047 289.961,459.876 289.131,460.658 287.2,462.139 285.276,463.843 284.97,464.12 282.692,466.012 281.074,467.441 
			280.985,467.488 280.985,467.488 280.897,467.535 278.884,469.287 276.918,471.127 276.83,471.174 276.742,471.221 
			276.654,471.268 275.735,472.096 272.94,474.718 272.634,474.995 272.457,475.089 270.538,477.017 269.314,478.122 
			269.143,478.439 268.355,479.086 268.137,479.315 266.612,480.92 265.347,482.161 263.646,483.86 262.557,485.006 261.598,485.97 
			260.503,486.893 259.544,487.857 258.931,488.41 257.754,489.603 257.489,489.744 257.272,489.973 255.959,491.126 
			255.259,491.725 253.64,493.154 250.621,495.781 250.05,496.198 249.568,496.569 247.726,498.003 246.719,498.879 
			246.148,499.296 245.36,499.943 244.224,501.001 243.082,501.835 242.47,502.388 241.11,503.452 239.31,504.751 238.038,505.768 
			236.632,506.743 234.872,507.907 233.066,508.982 231.877,509.729 230.159,510.757 228.394,511.697 227.423,512.214 
			225.393,513.295 224.022,513.912 222.121,514.811 220.75,515.428 219.156,516.05 217.785,516.667 216.279,517.243 
			214.949,517.724 212.778,518.54 212.201,518.734 212.025,518.828 208.83,519.85 207.941,520.096 207.141,520.296 205.365,520.789 
			204.965,520.889 203.364,521.288 201.941,521.593 200.917,521.798 199.67,522.009 199.093,522.203 196.864,522.484 
			196.552,522.536 194.01,522.87 193.252,522.935 190.798,523.221 188.522,523.414 187.898,523.519 187.451,523.531 
			185.263,523.677 184.504,523.741 183.61,523.764 181.151,523.827 179.139,523.879 178.38,523.943 177.71,523.96 175.204,523.935 
			171.627,524.027 171.627,524.027 171.492,523.986 167.421,524.001 166.392,523.983 161.827,523.921 161.827,523.921 
			161.739,523.968 158.022,523.795 156.722,523.695 154.481,523.529 153.675,523.505 151.298,523.297 151.298,523.297 
			149.01,523.043 146.093,522.67 145.869,522.676 145.599,522.594 142.858,522.127 141.24,521.856 140.029,521.708 137.958,521.224 
			137.194,521.065 135.435,520.529 133.318,519.957 132.73,519.703 129.889,518.837 129.842,518.749 129.166,518.543 
			126.137,517.323 125.867,517.241 125.549,517.07 123.015,515.927 122.062,515.415 120.839,514.82 117.975,513.059 116.57,512.335 
			115.112,511.299 112.789,509.703 110.237,507.89 107.221,505.417 105.851,504.334 104.663,503.381 101.136,500.161 
			98.937,498.159 96.274,495.499 94.252,493.404 88.362,487.024 87.715,486.235 81.037,478.801 80.532,478.278 80.161,477.795 
			78.962,476.394 75.547,472.322 74.213,470.88 71.762,467.766 71.621,467.502 71.48,467.237 70.275,465.613 69.622,464.6 
			69.44,464.471 68.876,463.412 67.665,461.564 67.477,461.211 66.255,458.916 66.061,458.339 65.398,456.88 64.828,455.597 
			64.446,454.668 63.577,452.185 63.178,450.585 62.433,447.696 62.028,445.872 61.436,441.995 61.389,441.907 61.472,441.637 
			61.197,437.931 61.204,436.454 61.27,433.813 61.579,430.137 61.614,429.778 61.691,429.284 62.146,426.096 62.612,423.355 
			62.653,423.22 62.695,423.084 63.173,420.791 63.45,419.397 63.928,417.103 64.051,416.697 64.004,416.609 64.618,414.356 
			65.184,412.015 65.225,411.88 65.308,411.61 66.281,407.692 66.451,407.375 66.652,406.475 67.595,403.14 67.636,403.005 
			67.636,403.005 67.719,402.735 68.679,400.07 69.009,398.988 69.386,397.994 70.311,395.689 70.73,394.56 71.231,393.16 
			72.161,391.078 72.285,390.673 72.538,390.085 73.298,388.32 74.358,386.056 74.735,385.062 75.589,383.475 76.479,381.528 
			76.867,380.981 77.286,379.852 78.057,378.535 78.31,377.947 79.247,376.089 79.459,375.636 80.313,374.048 81.255,372.413 
			81.596,371.778 82.068,370.961 82.798,369.779 83.222,368.873 83.952,367.691 84.935,365.921 85.106,365.604 85.365,365.239 
			86.613,363.328 87.561,361.917 88.297,360.959 89.592,359.136 90.587,357.813 91.364,356.719 92.1,355.761 93.49,354.115 
			93.578,354.068 95.185,352.192 95.879,351.369 97.404,349.764 98.099,348.941 99.888,347.195 100.8,346.143 102.066,344.902 
			103.025,343.938 104.555,342.557 104.991,342.098 105.427,341.64 106.916,340.394 108.358,339.059 108.97,338.507 
			109.976,337.631 111.159,336.661 111.642,336.291 113.525,334.721 114.225,334.122 115.673,333.011 116.679,332.135 
			117.556,331.441 118.739,330.471 120.14,329.272 120.317,329.178 121.764,328.067 123.477,326.815 124.442,326.075 
			125.625,325.105 127.073,323.994 128.52,322.883 128.65,322.701 129.703,321.913 130.539,321.355 132.075,320.197 
			132.952,319.504 133.829,318.81 135.63,317.511 137.077,316.4 137.56,316.03 138.613,315.242 139.449,314.684 141.732,313.015 
			142.48,312.504 142.874,312.18 145.204,310.599 145.863,310.135 145.993,309.953 148.629,308.096 149.465,307.537 
			151.048,306.468 152.454,305.492 153.684,304.61 154.785,303.911 157.068,302.242 157.157,302.195 157.157,302.195 
			159.399,300.661 161.682,298.992 161.77,298.945 161.859,298.898 164.76,296.899 165.507,296.388 167.661,294.901 
			167.967,294.625 168.144,294.531 170.874,292.85 171.71,292.292 173.381,291.175 174.128,290.664 174.699,290.247 
			176.723,288.942 178.306,287.872 179.495,287.126 180.331,286.568 180.772,286.333 182.926,284.846 184.026,284.146 
			184.244,283.917 184.597,283.729 187.234,281.872 187.94,281.496 189.081,280.661 190.005,280.056 191.412,279.08 
			193.213,277.781 193.566,277.593 193.742,277.499 195.808,276.06 197.738,274.578 198.485,274.067 199.933,272.956 
			200.592,272.492 200.945,272.304 201.822,271.61 202.834,270.958 204.017,269.988 205.247,269.106 206.742,268.084 
			207.578,267.526 208.543,266.785 210.038,265.762 211.267,264.881 212.409,264.046 214.122,262.794 214.91,262.148 
			215.263,261.96 217.723,260.196 218.029,259.92 219.083,259.133 221.06,257.74 221.543,257.369 222.113,256.952 224.662,255.142 
			225.497,254.583 228.175,252.591 228.263,252.544 228.351,252.497 230.635,250.828 232.124,249.582 232.3,249.488 
			234.407,247.912 234.76,247.724 237.085,245.92 237.744,245.456 239.457,244.204 241.516,242.54 241.516,242.54 241.516,242.54 
			243.888,240.824 245.907,239.296 246.124,239.067 246.477,238.879 248.408,237.397 250.515,235.822 250.603,235.775 
			250.603,235.775 252.886,234.106 254.687,232.807 254.993,232.531 256.753,231.367 259.301,229.557 259.519,229.328 
			259.783,229.187 262.067,227.518 263.561,226.495 264.527,225.754 265.315,225.108 266.81,224.085 268.829,222.557 
			269.182,222.369 269.358,222.275 271.948,220.329 273.395,219.219 273.837,218.983 275.767,217.502 277.479,216.25 
			277.874,215.927 280.245,214.211 281.605,213.147 281.958,212.959 284.547,211.014 286.036,209.767 286.213,209.673 
			288.667,207.687 289.85,206.717 290.55,206.117 290.768,205.888 291.033,205.747 292.963,204.266 294.587,203.061 
			294.587,203.061 294.676,203.014 294.676,203.014 298.63,200.228 299.113,199.858 302.544,197.577 303.291,197.066 
			303.644,196.878 304.745,196.179 305.845,195.479 307.122,194.686 307.387,194.545 308.664,193.752 311.176,192.3 
			312.983,191.225 313.201,190.996 313.289,190.949 315.537,189.638 318.138,188.14 319.55,187.388 321.798,186.077 
			323.122,185.372 324.004,184.902 324.799,184.479 328.153,182.693 328.241,182.646 328.506,182.505 331.907,180.807 
			333.319,180.055 334.602,179.485 336.673,178.269 337.203,177.987 338.174,177.47 340.951,175.877 343.199,174.567 
			343.464,174.426 343.993,174.144 345.976,172.974 347.342,172.134 348.001,171.67 349.06,171.106 349.366,170.829 351.39,169.525 
			352.62,168.643 353.15,168.361 353.632,167.991 354.203,167.574 355.833,166.592 356.581,166.081 357.022,165.846 357.24,165.617 
			360.017,164.024 362.041,162.72 362.13,162.673 362.13,162.673 364.948,160.945 366.355,159.969 366.708,159.781 367.279,159.364 
			367.673,159.041 369.433,157.877 370.616,156.907 371.233,156.578 374.923,153.933 374.965,153.798 375.624,153.334 
			376.595,152.817 377.56,152.076 378.572,151.424 379.101,151.142 380.29,150.395 381.396,149.92 383.379,148.75 385.227,147.54 
			387.605,146.047 388.087,145.677 389.847,144.513 389.847,144.513 391.471,143.308 391.865,142.985 394.102,141.227 
			396.073,139.611 396.909,139.053 398.445,137.895 398.445,137.895 398.445,137.895 400.028,136.825 400.422,136.502 
			402.882,134.738 404.636,133.351 407.272,131.494 407.931,131.03 408.061,130.848 408.849,130.201 410.256,129.225 411.48,128.12 
			413.104,126.915 415.823,124.788 416.394,124.37 417.053,123.906 417.406,123.718 418.86,122.831 420.308,121.72 421.673,120.879 
			425.062,118.734 425.898,118.176 426.734,117.618 427.481,117.106 428.452,116.589 429.682,115.708 430.035,115.52 
			430.123,115.473 433.56,113.416 434.395,112.858 434.395,112.858 434.484,112.811 436.69,111.636 438.626,110.378 
			439.332,110.002 440.433,109.303 441.798,108.462 442.857,107.898 443.475,107.569 444.181,107.193 445.817,106.435 
			447.053,105.777 448.159,105.301 449.53,104.685 451.301,103.968 452.942,103.434 455.202,102.57 455.466,102.429 457.732,101.79 
			459.814,101.02 460.303,100.873 461.103,100.674 462.833,100.093 463.986,99.705 465.539,99.218 467.045,98.642 468.198,98.255 
			469.887,97.809 472.858,96.793 473.346,96.646 474.9,96.159 477.029,95.478 477.43,95.378 478.006,95.184 480.63,94.58 
			481.607,94.286 484.095,93.641 484.854,93.577 485.342,93.43 487.431,92.884 489.614,92.515 489.79,92.421 490.325,92.362 
			492.29,92.222 492.69,92.123 495.367,91.83 495.814,91.819 496.973,91.655 499.114,91.421 499.826,91.268 501.12,91.145 
			503.126,90.87 506.421,90.249 506.868,90.237 507.356,90.09 510.516,89.428 513.716,88.629 514.381,88.389 514.693,88.336 
			515.093,88.236 519.488,86.915 519.488,86.915 519.576,86.868 522.682,85.894 524.142,85.23 525.736,84.607 527.154,84.079 
			529.719,82.939 530.384,82.698 530.737,82.51 531.443,82.134 534.056,81.083 535.78,80.278 535.868,80.231 537.639,79.515 
			539.228,78.669 541.923,77.347 542.099,77.253 542.276,77.159 545.147,75.743 547.095,74.932 547.183,74.885 549.084,73.986 
			551.12,73.129 552.137,72.7 552.449,72.647 552.891,72.412 556.574,71.244 556.838,71.103 558.08,70.668 560.745,69.929 
			561.457,69.776 562.616,69.612 564.398,69.343 566.098,69.344 568.022,69.339 570.622,69.541 571.922,69.641 574.886,70.102 
			575.562,70.308 575.921,70.344 576.639,70.415 579.068,70.934 580.821,71.247 581.538,71.318 584.367,71.737 585.173,71.761 
			587.861,71.916 588.532,71.899 590.55,72.07 590.773,72.065 591.132,72.1 593.514,72.531 596.161,72.821 597.284,73.016 
			598.59,73.34 600.749,73.777 601.966,74.148 603.095,74.566 604.318,75.161 605.577,75.397 607.159,76.028 608.559,76.528 
			609.464,76.952 610.37,77.377 612.893,78.072 613.528,78.414 615.287,78.95 616.416,79.368 617.457,79.834 619.538,80.764 
			619.721,80.894 621.708,81.648 622.926,82.019 625.767,82.886 626.037,82.968 626.219,83.098 626.713,83.175 629.872,84.212 
			631.266,84.489 632.889,84.984 634.018,85.403 634.877,85.739 635.418,85.904 637.317,86.705 639.482,87.365 639.482,87.365 
			639.482,87.365 641.875,88.243 642.551,88.449 644.039,88.903 644.986,89.192 646.386,89.693 648.009,90.188 649.403,90.465 
			649.944,90.63 651.52,91.037 652.238,91.108 653.45,91.256 654.932,91.486 655.873,91.551 657.844,91.635 659.591,91.724 
			661.555,91.584 662.45,91.561 663.744,91.438 665.038,91.316 666.997,90.952 666.997,90.952 669.091,90.63 669.803,90.477 
			671.803,89.979 673.004,89.679 674.292,89.333 676.904,88.282 677.081,88.188 677.393,88.135 678.993,87.736 679.923,87.354 
			680.411,87.207 680.676,87.066 681.652,86.773 682.9,86.562 683.435,86.503 685,86.463 685.494,86.54 686.435,86.605 
			687.329,86.582 688.052,86.877 688.552,87.177 689.552,87.778 689.869,87.948 690.863,88.326 691.363,88.626 692.992,89.345 
			694.127,89.986 694.58,90.198 695.35,90.581 697.344,91.559 699.196,92.272 700.102,92.696 701.731,93.415 703.177,94.004 
			704.218,94.469 705.124,94.893 707.518,95.771 708.511,96.148 710.411,96.949 712.175,97.709 712.946,98.092 713.398,98.304 
			715.48,99.235 716.521,99.7 718.685,100.36 720.314,101.079 721.22,101.503 723.172,102.616 723.943,102.999 724.307,103.258 
			724.807,103.558 726.583,104.765 728.405,106.06 728.817,106.407 730.416,107.708 732.156,109.274 732.797,109.839 
			734.825,112.158 736.865,114.924 737.329,115.583 737.47,115.848 737.799,116.466 739.162,119.026 740.003,120.391 		">
		</polygon>
		<polygon slic3r:type="hole" style="stroke:#000000;stroke-miterlimit:10;" points="661.811,202.478 661.124,201.825 
			660.718,201.701 659.777,201.636 659.465,201.689 658.353,201.941 658.041,201.994 657.776,202.135 657.423,202.323 
			656.323,203.022 655.622,203.622 655.01,204.174 653.874,205.232 653.833,205.368 653.792,205.503 653.362,206.185 
			653.28,206.456 653.073,207.132 653.032,207.267 652.991,207.403 653.096,208.026 653.331,208.467 653.519,208.82 653.79,208.903 
			654.472,209.333 655.101,209.451 655.684,209.481 656.531,209.369 656.931,209.27 657.196,209.129 657.596,209.029 
			658.39,208.606 658.567,208.512 658.655,208.465 659.667,207.812 660.15,207.442 660.585,206.984 660.891,206.707 
			661.368,206.114 661.586,205.884 662.186,204.885 662.304,204.255 662.334,203.673 662.093,203.008 662.088,202.785 
			662.041,202.696 		">
		</polygon>
	</g>
</g>
<g id="Layer_1">
</g>
</svg>
