<?xml version="1.0" encoding="iso-8859-1"?>
<!-- Generator: Adobe Illustrator 19.2.1, SVG Export Plug-In . SVG Version: 6.00 Build 0)  -->
<svg version="1.1" xmlns="http://www.w3.org/2000/svg" xmlns:xlink="http://www.w3.org/1999/xlink" x="0px" y="0px"
	 viewBox="0 0 841.89 595.28" style="enable-background:new 0 0 841.89 595.28;" xml:space="preserve">
<g id="layer212">
	<g id="layer212_1_" slic3r:z="8.50000000000007e-005">
		<polygon slic3r:type="contour" style="fill:#FFFFFF;stroke:#000000;stroke-miterlimit:10;" points="739.965,230.308 
			740.059,230.485 740.018,230.62 740.118,231.02 740.281,233.879 740.309,234.997 740.055,237.285 739.948,238.361 
			739.453,239.985 739.041,241.337 738.334,243.413 737.715,245.442 737.332,246.213 736.872,247.477 736.531,248.112 
			735.63,249.612 735.029,250.611 732.945,253.081 732.728,253.31 732.598,253.492 730.508,255.738 729.726,256.608 728.413,257.76 
			727.713,258.36 726.524,259.106 724.417,260.681 724.111,260.958 723.717,261.281 720.986,262.962 720.369,263.291 
			719.274,264.213 717.997,265.007 716.232,265.947 715.879,266.135 715.702,266.229 713.131,267.145 710.789,268.279 
			710.124,268.52 709.818,268.796 706.494,270 706.406,270.047 706.317,270.094 702.94,270.986 700.228,271.637 699.293,271.795 
			698.981,271.848 697.469,272.2 695.151,272.528 694.392,272.592 693.633,272.657 692.21,272.962 691.139,273.079 689.621,273.207 
			688.198,273.512 686.639,273.776 685.703,273.934 684.633,274.051 682.226,274.426 682.138,274.473 681.515,274.579 
			679.779,274.936 679.291,275.083 677.867,275.388 677.02,275.5 675.29,276.081 673.519,276.797 672.678,277.132 672.366,277.185 
			671.348,277.614 668.824,278.618 667.941,279.088 666.088,280.075 664.717,280.692 663.528,281.438 661.892,282.196 
			660.88,282.849 659.203,283.742 656.649,285.328 656.473,285.422 656.296,285.516 653.872,286.921 652.33,287.855 
			652.065,287.996 650.523,288.93 649.729,289.353 648.405,290.059 647.128,290.852 645.586,291.786 644.221,292.627 
			642.856,293.467 640.214,295.101 639.949,295.242 636.689,297.204 636.424,297.345 635.765,297.81 632.546,299.637 
			630.828,300.666 628.716,302.017 626.862,303.004 625.409,303.892 622.937,305.208 622.054,305.678 621.525,305.96 618.3,307.564 
			617.153,308.175 613.487,310.014 612.911,310.208 612.469,310.443 609.51,311.905 609.421,311.952 606.944,313.045 
			606.279,313.286 604.685,313.908 602.914,314.625 601.231,315.295 600.036,315.817 599.107,316.199 596.936,317.015 
			594.276,317.979 593.612,318.219 591.617,318.942 590.464,319.329 590.199,319.47 587.357,320.304 587.004,320.492 
			585.051,321.079 583.763,321.425 583.498,321.566 580.209,322.411 578.697,322.763 576.432,323.403 573.361,324.019 
			572.473,324.265 569.89,324.734 568.29,325.133 567.754,325.192 564.236,325.819 562.319,326.047 561.071,326.258 559.242,326.44 
			558.571,326.457 556.024,326.567 554.953,326.684 554.818,326.643 553.747,326.76 551.289,326.823 550.842,326.834 
			548.247,326.856 547.083,326.797 544.665,326.725 543.636,326.707 541.306,326.587 539.871,326.445 539.201,326.463 
			537.677,326.368 535.883,326.19 533.236,325.9 532.966,325.818 532.877,325.865 530.095,325.534 528.837,325.298 527.178,325.161 
			526.413,325.002 523.761,324.489 522.908,324.376 522.637,324.294 519.849,323.739 518.455,323.462 516.791,323.102 
			514.227,322.542 513.509,322.471 511.35,322.034 509.821,321.715 509.462,321.68 508.745,321.609 506.363,321.178 
			503.716,320.888 502.998,320.817 502.145,320.705 499.634,320.456 498.334,320.355 495.058,319.948 494.428,319.83 
			493.758,319.847 490.387,319.262 489.805,319.233 489.534,319.15 489.176,319.115 486.153,318.119 485.97,317.989 
			485.835,317.948 483.171,316.987 481.366,316.363 479.784,315.732 478.384,315.232 477.796,314.978 476.39,314.254 
			473.033,312.417 473.033,312.417 473.033,312.417 473.033,312.417 469.84,310.038 468.882,309.302 467.371,307.954 
			465.995,306.648 465.166,305.729 464.061,304.505 463.185,303.499 462.121,302.139 460.129,299.462 460.129,299.462 
			460.129,299.462 460.129,299.462 457.884,295.672 457.314,294.389 456.556,292.754 455.417,290.188 455.37,290.1 455.323,290.012 
			455.135,289.659 454.13,287.134 453.89,286.47 453.173,284.699 452.498,282.792 452.028,281.91 451.693,281.068 450.971,279.074 
			449.925,276.685 449.596,276.067 449.449,275.579 448.321,273.46 448.227,273.284 448.18,273.195 447.058,271.301 
			445.488,269.417 445.259,269.2 444.894,268.941 443.166,267.822 440.954,267.073 440.413,266.908 439.966,266.92 437.496,266.536 
			436.331,266.477 434.72,266.428 433.42,266.328 431.943,266.321 430.737,266.397 429.62,266.425 427.384,266.483 425.731,266.57 
			424.39,266.605 423.449,266.539 420.231,266.667 420.096,266.625 420.008,266.672 419.649,266.637 416.743,266.712 
			414.955,266.758 413.702,266.745 412.36,266.78 410.796,266.82 407.802,266.942 407.043,267.006 405.566,266.999 403.825,267.133 
			403.154,267.15 400.519,267.308 399.895,267.413 396.548,267.723 396.148,267.823 395.077,267.94 392.136,268.373 390.13,268.648 
			387.947,269.018 383.317,269.897 383.094,269.903 383.006,269.95 382.782,269.956 379.046,270.812 376.646,271.411 
			375.269,271.804 372.651,272.632 371.363,272.978 370.609,273.266 367.591,274.194 365.061,274.974 364.132,275.356 
			361.914,276.084 359.166,277.094 358.766,277.194 357.836,277.576 354.783,278.862 353.5,279.432 350.317,280.901 
			349.964,281.089 349.61,281.277 346.88,282.957 344.72,284.221 344.367,284.409 342.873,285.431 341.949,286.037 341.596,286.225 
			339.354,287.759 338.43,288.364 336.582,289.575 335.305,290.368 334.775,290.65 332.574,292.049 332.398,292.143 
			331.515,292.613 329.132,293.882 328.426,294.258 325.378,295.768 324.272,296.244 321.707,297.383 320.071,298.141 
			318.082,299.087 315.517,300.227 314.499,300.655 313.528,301.172 312.333,301.695 311.274,302.259 308.891,303.528 
			308.008,303.998 306.508,304.798 304.831,305.691 303.242,306.537 301.259,307.706 300.2,308.27 297.823,309.763 297.558,309.904 
			295.975,310.973 294.086,312.319 293.821,312.46 293.78,312.596 293.474,312.872 290.672,315.27 289.801,316.187 288.63,317.604 
			287.511,319.333 286.91,320.333 286.056,321.92 285.379,323.414 285.214,323.955 284.295,326.484 284.165,326.666 283.77,328.69 
			283.474,331.113 283.439,331.472 283.403,331.831 283.249,334.519 283.148,335.819 283.188,337.383 283.194,337.607 
			283.246,339.619 283.286,341.183 283.219,343.824 283.231,344.272 283.159,346.689 283.064,348.213 282.992,350.63 
			282.891,351.93 282.813,354.124 282.742,354.842 282.706,356.901 282.646,358.065 282.609,360.124 282.509,361.424 
			282.343,363.665 282.142,364.565 281.811,367.347 281.858,367.435 281.645,369.588 281.403,370.623 281.243,373.088 
			281.007,374.347 280.893,376.9 280.781,377.752 280.58,380.352 280.55,380.935 280.455,382.458 280.348,383.535 280.2,384.746 
			280.017,386.317 279.94,386.811 279.703,389.769 279.585,390.399 279.591,390.622 279.054,394.081 278.947,395.157 
			278.675,396.775 278.357,398.304 278.115,399.339 278.044,400.057 277.478,402.397 276.994,404.468 276.799,405.591 
			276.511,406.538 276.11,408.338 275.532,410.232 275.326,410.908 274.259,414.648 274.259,414.648 274.17,414.695 
			272.809,419.159 271.978,421.641 271.648,422.723 270.723,425.029 270.346,426.023 269.715,427.605 268.909,429.281 
			268.443,430.321 267.077,432.862 266.353,434.267 265.799,435.355 263.838,439.119 261.494,443.652 261.453,443.788 
			261.411,443.923 259.079,448.904 258.449,450.486 257.053,453.609 256.97,453.879 255.398,457.096 254.632,458.637 
			252.335,463.259 252.082,463.847 251.611,464.664 249.597,468.116 249.379,468.345 247.954,470.35 246.182,472.767 
			246.053,472.949 245.658,473.272 244.699,474.236 243.569,475.518 242.962,476.294 242.615,476.706 241.791,477.711 
			240.614,478.904 240.266,479.316 239.266,480.415 239.136,480.598 239.048,480.645 237.223,482.749 235.481,484.584 
			235.045,485.042 231.455,488.087 230.796,488.551 227.418,491.143 226.359,491.708 223.364,493.529 222.481,493.999 
			222.216,494.14 218.592,495.844 217.397,496.367 214.743,497.553 213.902,497.888 213.326,498.082 210.666,499.045 
			208.936,499.626 207.871,499.967 205.03,500.8 204.718,500.853 203.871,500.964 200.759,501.716 199.023,502.073 196.799,502.578 
			193.281,503.205 192.881,503.305 192.658,503.311 188.734,503.814 186.551,504.183 184.498,504.37 180.704,504.692 
			180.257,504.703 180.033,504.709 179.81,504.715 176.504,504.889 176.368,504.848 174.221,504.858 171.268,504.845 
			170.463,504.821 169.88,504.791 167.639,504.625 166.163,504.618 165.58,504.588 163.563,504.416 161.857,504.192 
			160.245,504.144 159.528,504.073 157.328,503.771 156.252,503.665 154.499,503.352 153.017,503.122 151.94,503.015 
			150.952,502.862 149.017,502.419 148.07,502.13 146.047,501.735 144.653,501.458 144.023,501.34 141.412,500.691 141.006,500.567 
			139.024,500.037 136.278,499.347 136.007,499.264 135.513,499.188 133.302,498.439 132.49,498.192 130.596,497.614 
			128.838,497.078 127.662,496.571 125.268,495.693 124.727,495.528 122.469,494.691 121.745,494.397 121.61,494.356 
			118.94,493.172 118.082,492.836 116.541,492.07 115.724,491.599 114.089,490.657 113.724,490.398 112.266,489.362 111.49,488.755 
			110.026,487.496 109.109,486.624 108.233,485.618 107.91,485.224 107.539,484.741 107.022,483.77 105.677,481.881 
			104.372,479.857 102.468,477.132 99.928,474.066 99.188,473.101 97.289,470.6 94.562,467.18 94.192,466.698 93.868,466.303 
			90.724,462.313 89.895,461.395 87.914,459.164 87.591,458.77 86.421,456.787 86.374,456.699 85.052,454.004 84.911,453.739 
			83.995,451.168 83.754,450.503 82.985,448.42 82.927,447.885 82.68,446.997 82.516,445.838 82.299,444.367 82.041,443.031 
			81.662,438.702 81.615,438.614 81.562,438.302 81.552,434.455 81.525,431.637 81.579,430.249 81.615,428.19 81.74,426.084 
			81.752,424.831 81.943,421.784 82.35,418.508 82.421,417.791 82.693,416.173 83.118,413.567 83.307,412.22 83.862,409.433 
			84.334,406.915 84.416,406.645 85.071,404.257 85.448,403.263 85.902,401.775 86.65,399.564 87.027,398.57 87.652,396.764 
			88.4,394.553 88.689,393.606 89.561,390.989 89.726,390.448 90.062,389.589 91.081,387.461 92.089,384.885 92.306,384.655 
			92.348,384.52 92.43,384.25 93.661,381.668 94.179,380.939 95.775,378.616 96.205,377.934 96.546,377.299 97.965,375.071 
			98.265,374.571 98.483,374.341 100.079,372.019 100.55,371.202 101.586,369.743 102.322,368.785 103.105,367.915 104.588,366.445 
			105.759,365.028 106.631,364.111 108.108,362.418 108.85,361.683 109.374,361.178 110.904,359.796 111.516,359.244 112.21,358.42 
			113.346,357.362 113.741,357.039 115.489,355.428 116.625,354.37 117.719,353.447 119.82,351.649 119.909,351.602 
			119.909,351.602 122.145,349.844 123.328,348.874 124.164,348.316 126.094,346.835 126.4,346.558 126.93,346.276 128.907,344.884 
			131.455,343.073 131.455,343.073 131.455,343.073 131.496,342.938 134.533,340.981 135.192,340.517 137.922,338.836 
			139.594,337.719 141.447,336.732 142.636,335.986 145.766,334.206 147.749,333.036 149.291,332.102 151.01,331.073 
			152.904,329.951 155.593,328.406 156.341,327.894 156.694,327.706 157.93,327.048 159.695,326.108 161.284,325.262 
			162.519,324.604 163.267,324.093 165.738,322.777 167.062,322.071 169.928,320.432 170.546,320.103 170.899,319.915 
			172.84,318.881 174.035,318.358 174.388,318.17 176.818,316.989 178.801,315.82 179.643,315.485 182.555,313.934 182.555,313.934 
			182.82,313.793 185.38,312.43 185.909,312.148 187.763,311.161 188.775,310.508 190.234,309.844 192.176,308.81 192.706,308.528 
			193.5,308.105 195.006,307.53 197.172,306.49 197.572,306.39 197.66,306.343 200.402,305.109 201.42,304.681 203.456,303.823 
			205.797,302.689 205.933,302.73 209.157,301.126 209.245,301.079 209.334,301.032 210.175,300.698 212.123,299.887 
			213.011,299.641 214.341,299.159 214.694,298.971 217.088,298.149 217.971,297.679 220.23,296.816 221.69,296.152 
			223.237,295.441 225.667,294.26 226.244,294.066 226.862,293.737 229.074,292.786 231.104,291.705 231.369,291.564 
			231.457,291.517 233.581,290.612 235.658,289.619 236.011,289.431 236.276,289.29 239.465,288.045 240.26,287.622 
			242.778,286.394 244.231,285.507 245.95,284.478 247.356,283.503 248.545,282.756 249.951,281.781 252.146,280.159 
			252.146,280.159 252.235,280.112 254.959,278.207 255.442,277.837 257.819,276.344 258.214,276.021 259.138,275.416 
			260.591,274.528 262.133,273.594 263.192,273.03 263.851,272.566 265.969,271.438 267.594,270.233 268.694,269.533 
			270.183,268.287 271.407,267.182 272.237,266.4 272.673,265.942 273.103,265.26 274.792,263.113 275.687,261.391 276.423,260.432 
			277.536,258.48 277.795,258.115 278.867,256.298 280.674,253.523 280.674,253.523 280.763,253.476 283.37,250.501 
			284.854,249.031 286.555,247.332 288.044,246.086 289.397,244.799 290.233,244.241 290.845,243.688 292.952,242.113 
			294.441,240.867 295.671,239.985 297.866,238.363 298.307,238.128 299.49,237.158 301.291,235.859 301.556,235.718 
			301.991,235.259 304.004,233.508 305.482,231.815 306.094,231.262 306.312,231.033 306.965,230.345 308.707,228.511 
			310.185,226.817 310.667,226.447 312.368,224.748 313.151,223.878 315.37,221.45 315.588,221.221 315.676,221.174 
			317.513,219.516 319.084,217.999 319.785,217.4 320.22,216.941 321.527,215.565 322.969,214.231 323.799,213.449 325.37,211.932 
			327.772,209.634 327.772,209.634 329.914,207.7 331.75,206.042 333.328,204.749 335.211,203.18 336,202.533 336.788,201.887 
			340.213,199.383 341.573,198.319 343.586,196.567 344.245,196.103 344.598,195.915 345.692,194.992 348.847,192.406 
			351.519,190.19 352.307,189.543 352.967,189.079 354.944,187.686 357.363,186.058 358.11,185.547 360.346,183.789 
			360.917,183.372 361.617,182.772 362.23,182.22 365.731,179.222 367.915,177.153 368.486,176.735 369.098,176.183 369.71,175.63 
			371.941,173.649 373.647,172.174 374.389,171.439 374.477,171.392 374.872,171.069 376.578,169.593 377.85,168.576 
			378.68,167.794 381.569,165.349 381.787,165.12 382.181,164.796 383.058,164.103 383.712,163.415 385.813,161.616 
			386.725,160.564 387.337,160.011 388.426,158.865 389.515,157.719 389.821,157.442 391.657,155.785 393.099,154.45 
			393.494,154.127 394.936,152.792 395.942,151.917 396.378,151.458 397.384,150.582 399.085,148.883 400.221,147.825 
			401.134,146.773 401.134,146.773 401.134,146.773 404.506,143.957 405.247,143.222 406.342,142.299 407.608,141.059 
			408.09,140.689 408.879,140.042 409.097,139.813 411.551,137.826 412.816,136.586 413.122,136.309 415.488,134.37 
			416.759,133.353 417.33,132.936 417.507,132.842 419.925,131.214 421.285,130.15 421.591,129.873 421.897,129.597 
			422.956,129.033 424.316,127.969 425.063,127.458 425.899,126.9 426.34,126.665 426.516,126.571 430.077,124.108 431.089,123.456 
			432.495,122.48 433.154,122.016 434.343,121.269 435.708,120.429 435.885,120.335 436.061,120.241 438.533,118.925 
			438.621,118.878 439.816,118.355 440.61,117.932 440.786,117.838 442.728,116.804 443.04,116.751 444.717,115.858 445.6,115.388 
			445.953,115.2 446.971,114.771 449.713,113.538 451.172,112.874 451.437,112.733 452.278,112.398 454.537,111.535 455.379,111.2 
			456.885,110.624 459.233,109.714 459.586,109.526 459.897,109.473 464.375,107.882 464.375,107.882 464.375,107.882 
			468.058,106.713 470.988,105.833 471.164,105.739 471.388,105.733 473.965,105.041 475.653,104.595 476.365,104.442 
			476.589,104.436 476.765,104.342 480.236,103.627 480.636,103.527 481.525,103.28 483.484,102.917 484.196,102.764 
			486.731,102.207 487.131,102.107 487.355,102.102 489.579,101.597 490.202,101.492 491.761,101.228 492.385,101.122 
			493.991,100.947 496.356,100.707 498.185,100.526 500.191,100.251 500.191,100.251 502.156,100.111 503.762,99.935 
			505.774,99.883 507.339,99.843 509.662,99.739 510.827,99.798 511.633,99.822 512.886,99.835 513.692,99.859 514.991,99.96 
			516.609,100.231 517.509,100.432 518.185,100.638 521.432,101.628 521.567,101.67 521.973,101.793 525.09,102.966 
			526.672,103.596 528.612,104.262 530.424,105.11 531.059,105.452 532.87,106.3 533.823,106.812 534.458,107.154 535.504,107.843 
			536.639,108.485 537.868,109.303 538.915,109.992 540.05,110.634 540.732,111.064 541.549,111.535 543.278,112.653 
			544.23,113.166 544.777,113.554 546.547,114.538 547.365,115.009 548.317,115.521 550.176,116.458 550.675,116.758 
			551.628,117.27 553.845,118.242 556.244,119.344 556.38,119.385 556.515,119.426 559.273,120.563 561.714,121.529 
			562.572,121.865 564.019,122.454 565.777,122.991 566.683,123.415 568.353,123.998 570.023,124.581 571.47,125.171 
			573.864,126.048 574.587,126.343 577.704,127.516 578.38,127.722 579.51,128.14 581.544,128.983 582.45,129.407 583.309,129.742 
			584.349,130.208 586.478,131.227 586.931,131.439 587.384,131.651 589.695,132.799 591.236,133.565 591.283,133.653 
			593.011,134.772 593.647,135.113 594.376,135.632 596.786,137.18 597.333,137.569 597.698,137.828 598.198,138.128 
			600.708,140.077 601.255,140.465 601.62,140.724 602.078,141.16 604.453,143.067 604.865,143.414 605.183,143.585 
			605.594,143.932 608.751,146.67 608.981,146.887 609.116,146.929 609.345,147.147 613.002,150.184 613.096,150.361 
			613.231,150.402 613.414,150.531 616.982,153.616 617.029,153.704 617.118,153.657 617.165,153.745 618.264,154.746 
			620.827,157.006 621.01,157.136 621.603,157.613 624.308,160.138 624.996,160.791 627.471,163.099 628.206,163.84 
			630.322,166.112 631.333,167.16 633.043,169.308 633.825,170.138 635.218,172.115 636.605,173.869 637.399,175.146 
			638.004,176.07 638.562,176.906 639.032,177.788 639.972,179.553 640.307,180.395 640.595,181.148 642.017,184.243 
			642.534,185.214 643.485,187.426 644.055,188.709 644.625,189.992 645.43,191.716 646,192.998 646.381,193.928 647.192,195.875 
			647.903,197.423 648.19,198.176 648.431,198.841 649.107,200.747 649.776,202.43 650.158,203.36 650.786,205.178 650.98,205.754 
			651.127,206.243 651.761,208.284 652.442,210.414 652.788,211.702 653.862,215.209 653.909,215.297 653.956,215.385 
			655.048,219.563 655.054,219.786 655.295,220.451 655.993,223.251 656.38,224.405 656.979,226.805 657.748,228.888 
			658.57,231.282 658.858,232.036 659.428,233.318 659.616,233.671 660.139,234.866 661.032,236.543 661.455,237.337 
			662.619,239.097 663.13,239.844 664.1,241.027 665.622,242.822 666.122,243.122 667.909,244.776 669.644,246.119 670.414,246.501 
			672.002,247.355 674.754,248.269 674.889,248.31 674.978,248.263 677.807,248.682 679.101,248.56 680.442,248.525 
			681.825,248.355 683.695,248.039 685.425,247.458 686.755,246.976 687.908,246.589 689.673,245.648 691.656,244.479 
			692.533,243.785 694.752,241.357 694.882,241.175 694.97,241.128 695.141,240.811 697.208,237.671 697.684,237.077 
			698.279,235.854 699.469,233.407 700.193,232.002 700.447,231.414 701.006,230.549 701.99,228.779 702.078,228.732 
			703.591,226.68 704.115,226.175 704.68,225.534 706.51,223.653 707.693,222.683 708.964,221.666 709.671,221.29 710.33,220.826 
			712.054,220.021 712.936,219.551 714.884,218.74 715.149,218.599 716.614,218.159 717.82,218.083 719.202,217.913 
			720.808,217.738 721.032,217.732 722.737,217.957 725.255,218.429 725.931,218.635 726.337,218.759 727.466,219.177 
			730.13,220.138 731.442,220.686 733.852,222.234 735.175,223.229 736.968,225.107 737.615,225.895 738.825,227.743 		">
		</polygon>
	</g>
</g>
<g id="Layer_1">
</g>
</svg>
