<?xml version="1.0" encoding="iso-8859-1"?>
<!-- Generator: Adobe Illustrator 19.2.1, SVG Export Plug-In . SVG Version: 6.00 Build 0)  -->
<svg version="1.1" xmlns="http://www.w3.org/2000/svg" xmlns:xlink="http://www.w3.org/1999/xlink" x="0px" y="0px"
	 viewBox="0 0 841.89 595.28" style="enable-background:new 0 0 841.89 595.28;" xml:space="preserve">
<g id="layer190">
	<g id="layer190_1_" slic3r:z="7.62000000000005e-005">
		<polygon slic3r:type="contour" style="fill:#FFFFFF;stroke:#000000;stroke-miterlimit:10;" points="591.991,255.183 
			592.567,256.689 592.966,258.29 593.588,259.884 593.829,260.549 594.151,262.643 594.151,262.643 594.238,264.296 
			594.125,266.849 593.996,267.031 594.013,267.702 593.77,270.437 593.693,270.931 593.115,274.525 592.779,275.384 
			591.942,277.642 591.341,278.641 590.7,279.776 590.146,280.864 589.281,282.005 588.062,283.334 587.144,284.162 
			585.437,285.638 585.043,285.961 584.866,286.055 583.195,287.172 582.048,287.783 580.241,288.858 578.564,289.751 
			577.417,290.362 576.175,290.797 573.51,291.536 573.11,291.636 573.022,291.683 572.934,291.73 571.551,291.9 569.945,292.076 
			569.769,292.17 567.886,292.039 565.957,291.82 565.551,291.696 564.157,291.419 562.493,291.059 562.269,291.065 
			561.999,290.982 558.382,289.51 557.206,289.003 555.477,287.884 554.248,287.066 552.284,285.506 551.362,284.411 
			550.115,282.922 548.982,280.58 548.788,280.004 548.588,279.204 548.166,276.709 548.25,274.739 548.285,274.38 548.403,273.751 
			548.81,272.174 549.022,271.722 549.44,270.592 550.118,269.099 551.195,267.505 551.843,266.594 552.19,266.182 554.145,263.895 
			555.71,262.155 556.187,261.561 556.67,261.191 558.465,259.669 558.947,259.298 560.483,258.14 561.231,257.629 561.713,257.259 
			563.691,255.866 565.533,254.432 566.504,253.915 567.251,253.403 569.317,251.963 570.552,251.305 571.959,250.33 
			574.083,249.425 575.048,248.684 576.101,247.897 578.231,247.216 578.761,246.934 580.496,246.576 581.073,246.382 
			583.361,246.637 583.943,246.666 584.755,246.914 587.06,247.839 588.53,249.322 589.088,250.158 589.558,251.04 591.092,253.283 
					">
		</polygon>
	</g>
</g>
<g id="Layer_1">
</g>
</svg>
