<?xml version="1.0" encoding="iso-8859-1"?>
<!-- Generator: Adobe Illustrator 19.2.1, SVG Export Plug-In . SVG Version: 6.00 Build 0)  -->
<svg version="1.1" xmlns="http://www.w3.org/2000/svg" xmlns:xlink="http://www.w3.org/1999/xlink" x="0px" y="0px"
	 viewBox="0 0 841.89 595.28" style="enable-background:new 0 0 841.89 595.28;" xml:space="preserve">
<g id="layer226">
	<g id="layer226_1_" slic3r:z="9.06000000000007e-005">
		<polygon slic3r:type="contour" style="fill:#FFFFFF;stroke:#000000;stroke-miterlimit:10;" points="761.612,210.963 
			761.806,211.539 762.047,212.204 762.416,214.387 762.421,216.31 762.491,217.293 762.42,218.01 762.183,220.969 761.793,223.216 
			761.722,223.933 761.563,224.698 760.955,227.174 760.708,227.986 760.195,228.938 759.571,230.744 758.982,232.191 
			757.704,234.684 757.362,235.319 757.238,235.725 755.825,238.177 755.442,238.947 754.63,240.4 753.169,242.764 752.828,243.399 
			752.48,243.81 751.15,245.992 751.108,246.127 751.02,246.174 749.595,248.179 748.942,248.867 748.03,249.919 747.771,250.284 
			746.899,251.201 745.422,252.894 744.374,253.905 743.986,254.452 741.278,257.027 741.06,257.256 740.843,257.485 
			738.347,259.607 737.735,260.16 737.647,260.207 734.798,262.517 734.798,262.517 734.669,262.699 731.944,264.604 
			730.714,265.485 729.043,266.602 727.372,267.718 726.624,268.23 723.494,270.01 723.406,270.057 723.406,270.057 
			721.858,270.768 718.722,272.325 718.545,272.419 714.427,274.046 713.409,274.475 709.902,275.549 707.461,276.283 
			705.637,276.688 703.148,277.333 701.413,277.691 699.989,277.996 697.542,278.506 694.388,279.392 693.588,279.592 
			693.188,279.692 689.634,280.678 687.681,281.265 685.775,281.94 682.98,282.862 681.786,283.385 678.373,284.636 
			677.444,285.017 675.719,285.822 673.948,286.539 673.066,287.009 671.56,287.584 670.365,288.107 667.982,289.376 
			666.964,289.805 665.993,290.322 663.787,291.497 662.286,292.296 661.05,292.954 659.332,293.983 658.761,294.4 656.996,295.34 
			656.29,295.716 655.454,296.275 653.689,297.215 650.823,298.854 650.647,298.948 650.382,299.089 648.005,300.582 
			645.669,301.939 645.451,302.169 645.362,302.216 644.48,302.686 642.32,303.949 642.055,304.09 641.438,304.419 638.878,305.782 
			637.248,306.764 636.277,307.281 634.294,308.45 633.5,308.873 631.205,310.095 630.628,310.289 628.775,311.276 626.786,312.222 
			626.344,312.457 625.462,312.927 622.414,314.437 620.249,315.477 619.142,315.953 615.783,317.515 615.606,317.609 
			615.029,317.803 611.799,319.183 611.134,319.424 607.592,320.857 606.398,321.38 603.874,322.384 603.874,322.384 
			601.438,323.342 598.914,324.346 597.896,324.775 597.584,324.828 597.407,324.922 596.166,325.356 593.065,326.554 
			592.224,326.889 588.5,328.193 586.817,328.862 584.246,329.778 581.539,330.653 580.033,331.229 576.485,332.438 
			575.773,332.591 572.09,333.759 571.514,333.953 571.425,334 567.248,335.092 566.272,335.385 563.471,336.083 560.447,336.787 
			559.735,336.94 559.288,336.951 556.217,337.567 554.97,337.778 553.323,338.089 550.605,338.517 550.158,338.528 
			549.758,338.628 546.905,339.014 546.593,339.067 543.246,339.377 542.934,339.43 541.64,339.552 539.051,339.798 
			538.604,339.809 536.239,340.049 534.545,340.272 534.01,340.33 529.951,340.792 528.745,340.868 526.556,341.014 
			525.127,341.095 523.521,341.271 522.18,341.305 520.392,341.351 518.78,341.303 517.168,341.255 514.256,341.106 513.762,341.03 
			510.757,340.704 510.668,340.751 507.886,340.42 507.751,340.379 507.169,340.349 504.251,339.977 503.398,339.864 
			500.393,339.539 499.722,339.556 497.299,339.261 495.687,339.213 493.311,339.005 492.187,338.811 489.364,338.615 
			488.287,338.508 487.84,338.52 484.341,338.118 483.176,338.058 481.111,337.798 479.229,337.667 476.494,337.424 
			475.688,337.401 474.118,337.217 472.147,337.134 471.294,337.021 469.412,336.891 468.383,336.873 467.218,336.813 
			465.783,336.671 464.977,336.647 463.677,336.546 462.6,336.44 461.389,336.292 459.907,336.061 458.424,335.831 456.042,335.4 
			455.501,335.235 455.007,335.159 451.949,334.521 450.69,334.285 448.802,333.931 447.99,333.684 445.385,333.259 
			445.067,333.088 443.944,332.893 442.009,332.451 441.468,332.286 439.08,331.631 437.686,331.354 436.11,330.947 
			433.504,330.522 433.098,330.398 432.334,330.239 430.669,329.879 429.634,329.637 428.011,329.142 426.57,328.776 
			425.311,328.54 422.97,327.974 421.935,327.732 418.965,327.048 418.559,326.925 418.336,326.93 416.947,326.876 414.118,326.457 
			413.536,326.427 412.418,326.456 409.601,326.484 407.906,326.706 407.012,326.729 405.542,326.946 403.182,327.409 
			402.112,327.526 400.912,327.826 398.335,328.518 396.381,329.105 395.269,329.357 393.228,329.991 391.81,330.52 389.68,331.201 
			387.244,332.158 385.826,332.687 385.073,332.975 381.313,334.637 380.207,335.113 379.942,335.254 379.589,335.442 
			376.583,336.817 374.77,337.668 373.311,338.332 370.969,339.466 370.969,339.466 368.633,340.824 368.368,340.965 
			366.073,342.187 365.367,342.563 365.279,342.61 365.238,342.745 362.419,344.473 361.848,344.89 359.336,346.341 
			359.071,346.482 358.453,346.811 356.382,348.028 355.281,348.727 353.298,349.897 351.138,351.16 350.609,351.442 
			349.197,352.194 347.52,353.087 346.99,353.369 345.184,354.445 344.036,355.056 343.507,355.338 342.847,355.802 
			342.141,356.178 341.612,356.46 340.335,357.253 338.181,358.74 338.004,358.834 337.74,358.975 335.503,360.733 334.103,361.932 
			332.743,362.996 331.913,363.778 329.859,365.665 329.683,365.759 329.247,366.217 327.717,367.599 325.492,369.803 
			325.274,370.032 325.274,370.032 325.145,370.215 322.702,372.649 321.136,374.389 321.007,374.571 320.918,374.618 
			319.488,376.4 317.622,378.64 317.492,378.822 317.451,378.957 317.233,379.186 315.031,382.285 314.083,383.696 312.282,386.695 
			311.81,387.513 310.786,389.418 309.031,392.505 308.348,393.775 307.411,395.633 306.222,398.08 304.732,401.026 
			304.096,402.384 302.559,405.242 302.005,406.33 301.752,406.918 300.262,409.864 299.196,411.905 298.766,412.587 
			296.499,416.627 294.956,419.261 294.485,420.078 293.967,420.808 293.195,422.125 292.135,424.389 291.364,425.706 
			290.775,427.153 290.645,427.335 290.651,427.558 290.268,428.329 288.883,431.899 287.428,436.186 287.304,436.592 
			286.179,439.797 285.678,441.197 285.678,441.197 285.595,441.467 285.383,441.92 285.383,441.92 285.342,442.055 
			283.387,446.042 283.051,446.901 282.963,446.948 282.274,447.995 281.119,450.082 280.566,451.17 280.395,451.488 
			278.841,453.675 277.469,455.992 277.163,456.268 276.821,456.903 275.308,458.955 274.272,460.413 273.495,461.507 
			272.37,463.012 272.241,463.194 271.676,463.835 271.158,464.564 270.899,464.929 269.25,466.94 267.996,468.627 268.043,468.715 
			267.955,468.762 267.955,468.762 267.867,468.809 264.918,472.419 264.57,472.831 263.699,473.748 262.175,475.353 
			260.744,477.134 259.961,478.004 259.396,478.645 258.307,479.792 257.571,480.75 255.093,483.543 255.005,483.59 255.005,483.59 
			254.004,484.689 252.521,486.159 250.779,487.993 250.255,488.499 249.384,489.416 246.458,492.22 246.458,492.22 246.458,492.22 
			246.458,492.22 243.392,494.759 242.339,495.547 241.591,496.058 239.92,497.175 237.896,498.479 237.366,498.761 
			237.013,498.949 234.942,500.166 233.135,501.241 232.782,501.429 232.164,501.758 230.705,502.422 229.111,503.045 
			228.405,503.421 228.005,503.52 225.433,504.436 223.486,505.247 222.197,505.593 219.538,506.556 218.785,506.844 
			218.608,506.938 217.808,507.138 215.102,508.012 214.213,508.259 212.125,508.805 211.413,508.957 209.813,509.356 
			206.83,509.925 206.742,509.972 206.654,510.019 203.671,510.588 201.4,511.004 201.312,511.051 198.953,511.514 198.817,511.473 
			197.882,511.631 196.323,511.895 196.235,511.942 194.182,512.129 192.576,512.305 191.817,512.369 191.417,512.469 
			188.828,512.714 186.328,512.913 186.328,512.913 183.828,513.111 183.828,513.111 181.681,513.122 180.875,513.098 
			179.31,513.138 177.299,513.189 176.046,513.177 173.54,513.152 172.016,513.057 169.869,513.067 169.287,513.038 
			167.316,512.954 164.181,512.811 163.822,512.775 163.552,512.693 159.429,512.396 158.576,512.284 155.123,511.97 
			154.988,511.929 154.135,511.817 151.576,511.48 150.947,511.362 148.071,510.854 147.577,510.777 145.689,510.423 
			143.665,510.028 142.677,509.874 141.777,509.674 139.078,509.072 136.372,508.247 136.149,508.253 135.878,508.17 
			133.396,507.339 131.82,506.932 130.556,506.473 128.344,505.724 128.027,505.554 126.039,504.799 125.045,504.422 
			122.781,503.362 122.058,503.068 121.105,502.555 119.335,501.572 118.835,501.272 117.612,500.677 116.342,499.994 
			115.66,499.564 114.884,498.957 114.066,498.486 113.061,497.662 111.374,496.408 109.41,494.848 107.082,493.029 104.93,491.116 
			102.543,488.762 101.902,488.197 98.916,485.142 97.811,483.918 96.435,482.611 93.631,479.686 92.208,478.291 89.586,475.495 
			88.164,474.1 85.136,471.18 84.172,470.221 83.578,469.744 81.191,467.39 80.362,466.472 78.934,464.853 78.611,464.459 
			78.423,464.106 76.742,461.375 76.648,461.199 76.648,461.199 76.219,460.181 74.892,457.262 74.892,457.262 74.886,457.039 
			73.776,453.891 73.383,452.514 72.942,451.049 72.637,449.626 72.315,447.531 72.098,446.061 71.882,444.59 71.642,442.225 
			71.578,441.466 71.52,439.231 71.474,437.443 71.364,434.896 71.406,433.06 71.344,428.901 71.432,428.854 71.385,428.766 
			71.547,424.602 71.707,422.137 71.796,420.39 72.157,417.025 72.222,416.084 72.346,415.679 72.831,411.908 73.226,409.885 
			73.627,408.085 74.43,404.486 74.471,404.35 74.553,404.08 75.373,401.151 75.956,399.481 76.162,398.804 76.457,398.081 
			76.746,397.134 77.164,396.005 77.665,394.605 78.46,392.482 78.92,391.218 79.385,390.177 80.705,387.548 80.999,386.825 
			82.525,383.52 82.737,383.067 83.332,381.844 84.568,379.486 85.298,378.304 86.458,376.44 87.271,374.988 87.866,373.764 
			88.767,372.265 90.098,370.083 90.833,369.125 91.263,368.443 93.377,365.391 93.636,365.027 94.066,364.345 95.667,362.246 
			96.574,360.97 97.786,359.418 100.041,356.631 100.259,356.401 100.3,356.266 100.43,356.084 102.472,353.75 103.82,352.239 
			104.562,351.504 105.733,350.087 106.475,349.352 106.91,348.894 108.394,347.424 109.483,346.278 110.312,345.496 
			111.972,343.932 113.373,342.733 115.251,340.94 115.468,340.711 116.127,340.246 117.923,338.724 118.446,338.218 
			119.982,337.06 120.506,336.555 121.077,336.138 122.042,335.397 122.525,335.027 123.755,334.145 125.379,332.94 
			126.609,332.059 127.268,331.594 129.334,330.154 129.551,329.925 130.387,329.367 131.793,328.391 131.97,328.297 
			134.96,326.252 135.136,326.158 135.313,326.064 135.883,325.647 137.731,324.436 138.655,323.831 139.756,323.131 
			140.591,322.573 141.386,322.15 142.309,321.545 143.586,320.751 145.876,319.306 146.27,318.982 146.976,318.606 
			148.735,317.443 151.113,315.95 151.113,315.95 151.113,315.95 151.201,315.903 153.843,314.269 155.032,313.523 157.015,312.354 
			159.216,310.955 160.493,310.162 163.312,308.434 164.018,308.058 165.995,306.665 167.625,305.684 168.99,304.843 
			170.179,304.097 172.427,302.786 173.439,302.134 176.299,300.271 176.387,300.224 179.247,298.361 179.994,297.85 
			182.766,296.034 183.296,295.752 183.867,295.335 187.168,293.237 188.003,292.678 190.687,290.909 191.958,289.892 
			193.541,288.823 194.2,288.359 196.795,286.637 197.237,286.402 197.719,286.031 200.05,284.45 201.762,283.198 202.951,282.452 
			204.834,280.883 205.011,280.789 205.099,280.742 206.994,279.619 208.353,278.555 209.583,277.674 211.437,276.687 
			211.966,276.405 214.727,274.142 214.991,274.001 216.133,273.166 217.669,272.008 218.063,271.685 219.688,270.48 
			220.959,269.463 221.353,269.14 223.725,267.424 223.725,267.424 223.813,267.377 225.608,265.854 227.056,264.743 
			227.362,264.467 227.844,264.097 229.38,262.939 231.705,261.134 232.058,260.946 232.494,260.488 234.471,259.095 
			236.354,257.525 236.837,257.155 237.013,257.061 240.215,254.563 240.433,254.334 240.915,253.963 242.757,252.529 
			244.423,251.189 244.688,251.048 244.905,250.819 246.618,249.567 248.46,248.133 249.031,247.715 249.731,247.116 
			251.132,245.917 253.015,244.347 253.104,244.3 253.104,244.3 254.987,242.731 256.611,241.526 257.488,240.832 258.406,240.004 
			259.46,239.216 261.519,237.552 261.561,237.417 261.649,237.37 263.361,236.118 264.721,235.054 265.863,234.22 267.134,233.203 
			268.011,232.509 270.465,230.523 270.465,230.523 270.465,230.523 272.136,229.406 273.496,228.342 274.508,227.69 
			275.514,226.814 276.656,225.979 279.463,223.805 279.857,223.481 280.034,223.387 282.406,221.671 283.329,221.066 
			283.724,220.742 284.424,220.143 285.389,219.402 286.49,218.703 289.032,216.669 289.032,216.669 290.786,215.282 
			292.063,214.489 292.369,214.212 293.069,213.613 293.905,213.055 295.047,212.22 297.324,210.327 297.807,209.957 
			298.772,209.216 300.749,207.823 300.967,207.594 301.714,207.083 302.02,206.807 302.374,206.618 303.868,205.596 
			305.54,204.479 306.24,203.88 306.328,203.833 306.77,203.598 308.659,202.252 309.888,201.37 310.506,201.041 310.683,200.947 
			313.366,199.178 314.025,198.714 314.773,198.203 315.344,197.785 316.621,196.992 318.821,195.593 318.998,195.499 
			319.745,194.988 319.922,194.894 320.01,194.847 320.01,194.847 323.223,192.796 324.765,191.862 326.701,190.604 
			327.095,190.281 327.537,190.046 329.384,188.835 329.955,188.418 331.32,187.577 331.715,187.254 331.803,187.207 
			331.98,187.113 333.698,186.085 334.051,185.897 336.075,184.592 336.605,184.31 338.629,183.005 340.259,182.024 
			343.072,180.073 343.337,179.932 343.378,179.796 344.479,179.097 345.314,178.539 347.074,177.375 347.998,176.77 
			348.745,176.258 349.581,175.7 352.435,173.614 352.964,173.332 353.535,172.914 357.007,170.499 357.272,170.358 
			358.461,169.611 359.779,168.683 360.438,168.219 361.445,167.343 361.445,167.343 363.598,165.856 365.093,164.833 
			365.752,164.369 365.752,164.369 366.017,164.228 366.105,164.181 367.159,163.393 369.972,161.442 370.454,161.072 
			371.378,160.466 373.397,158.938 374.185,158.292 374.45,158.151 374.933,157.78 378.529,154.959 379.099,154.542 381.86,152.279 
			382.648,151.632 382.913,151.491 383.396,151.121 383.79,150.797 387.033,148.164 387.604,147.747 388.48,147.053 
			390.281,145.754 391.158,145.061 391.817,144.596 391.905,144.549 392.476,144.132 395.59,141.681 396.249,141.217 
			397.214,140.476 398.968,139.089 399.668,138.489 400.415,137.978 400.457,137.843 401.027,137.426 404.188,135.063 404.8,134.51 
			405.677,133.817 407.342,132.477 408.131,131.83 408.878,131.319 409.055,131.225 409.626,130.807 412.609,128.539 
			413.445,127.98 416.387,125.847 416.829,125.612 417.4,125.194 417.97,124.777 420.348,123.284 421.095,122.773 421.401,122.497 
			422.59,121.75 425.273,119.982 427.256,118.812 427.786,118.53 429.593,117.455 431.487,116.332 432.105,116.003 433.735,115.022 
			433.823,114.975 435.942,113.847 437.089,113.236 437.177,113.189 437.795,112.86 438.06,112.719 438.855,112.296 
			441.944,110.651 442.297,110.462 443.268,109.945 446.274,108.571 446.539,108.43 447.469,108.048 450.564,106.626 
			452.864,105.628 454.947,104.858 458.625,103.467 458.978,103.279 460.443,102.838 463.014,101.922 463.502,101.775 
			464.302,101.576 467.497,100.554 468.562,100.214 470.162,99.815 471.004,99.48 472.38,99.087 475.445,98.247 476.199,97.96 
			477.534,97.702 479.711,97.109 480.823,96.857 482.423,96.457 484.159,96.1 485.229,95.983 486.565,95.725 487.947,95.555 
			490.577,95.174 490.977,95.074 491.112,95.116 491.959,95.004 495.171,94.653 495.706,94.595 496.865,94.431 498.871,94.156 
			500.971,94.057 501.372,93.957 503.736,93.718 505.566,93.536 508.154,93.291 509.449,93.168 512.572,92.864 512.708,92.905 
			513.243,92.847 515.384,92.613 516.143,92.549 517.661,92.42 519.537,92.327 520.296,92.263 522.084,92.217 522.979,92.194 
			523.426,92.182 526.155,92.202 527.808,92.115 529.331,92.21 530.673,92.175 532.19,92.047 533.443,92.059 534.737,91.936 
			535.855,91.908 537.467,91.956 539.879,91.804 540.102,91.798 540.861,91.734 543.626,91.395 544.473,91.284 547.674,90.485 
			548.074,90.386 548.956,89.916 550.639,89.246 551.434,88.823 553.028,88.2 554.976,87.39 555.329,87.202 557,86.085 
			558.1,85.386 559.071,84.869 560.042,84.352 561.013,83.835 562.078,83.494 563.543,83.054 565.043,82.255 566.285,81.82 
			569.033,80.81 569.656,80.705 571.215,80.441 573.351,79.983 573.933,80.013 574.962,80.031 576.492,80.35 577.668,80.857 
			578.485,81.328 581.249,82.688 582.249,83.289 583.607,83.925 585.742,85.167 587.876,86.41 589.152,87.317 590.934,88.747 
			592.309,90.054 593.691,91.584 595.243,92.797 596.442,94.197 597.635,95.375 598.241,96.299 599.81,98.182 599.857,98.27 
			599.904,98.358 601.562,100.195 603.632,100.678 603.767,100.72 603.991,100.714 606.05,100.75 606.974,100.145 608.251,99.352 
			609.939,98.906 610.91,98.389 612.452,97.454 613.988,96.296 615,95.644 615.571,95.227 617.148,93.934 618.596,92.823 
			619.037,92.588 619.343,92.311 621.097,90.924 622.456,89.86 623.38,89.255 625.399,87.727 625.487,87.68 625.487,87.68 
			627.429,86.646 629.023,86.023 629.735,85.871 630.806,85.754 632.235,85.672 634.488,86.285 635.253,86.445 635.435,86.574 
			636.023,86.827 638.616,88.506 639.892,89.412 642.267,91.32 644.002,92.662 646.747,95.052 647.523,95.658 650.316,98.136 
			650.728,98.483 652.015,99.837 653.302,101.191 653.72,101.762 655.524,104.086 657.235,106.235 657.329,106.411 658.692,108.971 
			659.156,109.63 659.984,112.248 660.172,112.601 660.183,113.048 660.447,114.607 660.323,115.013 660.211,115.866 
			659.622,117.312 658.674,118.724 658.068,119.5 657.32,120.011 655.702,121.439 652.836,123.079 652.748,123.126 652.66,123.173 
			652.083,123.367 650.618,123.807 649.371,124.018 648.612,124.082 646.642,123.999 646.283,123.963 645.924,123.928 
			643.236,123.773 642.477,123.837 640.106,123.853 640.106,123.853 640.106,123.853 638.048,123.817 637.824,123.823 
			635.724,123.921 634.43,124.044 633.271,124.208 631.935,124.466 630.865,124.583 629.8,124.924 628.647,125.311 628.07,125.505 
			626.787,126.075 625.722,126.415 625.146,126.609 622.316,127.89 621.604,128.042 620.268,128.3 618.456,129.152 616.268,129.298 
			615.826,129.533 613.591,129.59 613.161,130.272 612.743,131.402 612.678,132.343 613.559,133.573 614.088,134.991 
			615.298,136.838 616.169,137.621 616.492,138.016 619.26,141.3 620.454,142.477 622.294,144.443 624.122,145.961 625.68,147.398 
			627.597,148.869 629.796,150.871 631.03,151.913 633.917,154.567 634.329,154.915 634.558,155.132 635.016,155.568 
			637.309,157.746 638.367,158.882 639.608,160.147 640.531,161.242 641.218,161.895 642.512,163.473 642.788,163.779 
			643.805,165.05 645.192,166.804 645.792,167.504 646.027,167.945 646.397,168.428 647.461,169.787 647.878,170.358 
			649.136,172.294 649.97,173.436 650.158,173.789 650.623,174.448 651.974,176.561 653.285,178.809 653.379,178.985 
			653.426,179.073 654.73,181.098 655.247,182.069 657.175,185.687 657.269,185.864 657.316,185.952 657.457,186.217 
			659.243,189.571 660.194,191.783 660.57,192.489 660.764,193.066 661.334,194.349 661.669,195.19 662.573,197.314 
			662.767,197.891 662.867,198.291 663.93,201.35 664.077,201.839 665.057,205.169 665.151,205.345 665.204,205.657 
			665.608,207.481 665.855,208.369 666.101,209.258 666.606,211.481 666.864,212.817 667.216,214.329 667.574,216.064 
			667.673,216.464 667.768,216.641 667.773,216.864 668.313,218.73 668.607,219.706 669.041,220.948 669.652,222.095 
			670.316,223.554 671.239,224.649 671.745,225.173 672.709,226.132 673.62,226.78 675.878,227.616 677.09,227.764 679.596,227.789 
			680.62,227.584 682.708,227.038 683.461,226.75 684.303,226.416 685.58,225.622 686.639,225.058 688.004,224.218 689.411,223.242 
			691.076,221.902 691.517,221.667 693.23,220.415 694.195,219.675 695.248,218.887 695.731,218.517 697.091,217.453 
			697.444,217.265 698.409,216.524 700.08,215.408 700.563,215.037 701.751,214.291 702.94,213.545 703.423,213.174 705.364,212.14 
			706.512,211.529 706.777,211.388 707.353,211.194 709.695,210.061 712.09,209.239 713.155,208.898 714.219,208.557 
			716.085,208.017 717.861,207.524 718.75,207.278 720.797,206.867 721.374,206.674 723.691,206.346 725.386,206.123 
			727.392,205.848 730.739,205.538 731.098,205.574 731.321,205.568 734.763,205.435 735.074,205.382 738.339,205.343 
			738.786,205.331 739.457,205.314 742.274,205.286 744.151,205.193 744.286,205.235 746.074,205.189 747.592,205.06 
			750.451,204.897 750.675,204.891 750.763,204.844 753.451,204.999 754.08,205.117 756.286,205.642 756.604,205.813 
			758.368,206.573 759.191,207.267 759.837,208.056 760.39,208.668 		">
		</polygon>
		<polygon slic3r:type="hole" style="stroke:#000000;stroke-miterlimit:10;" points="601.872,112.266 600.585,110.912 
			600.491,110.735 600.314,110.829 597.861,111.116 596.855,111.992 596.295,112.856 595.712,114.526 595.718,114.75 
			595.834,117.521 596.862,119.239 597.238,119.945 598.479,121.211 598.802,121.605 599.578,122.211 601.201,122.706 
			602.372,122.989 604.025,122.902 604.113,122.855 604.732,120.826 604.679,120.514 604.626,120.202 603.481,117.414 
			603.634,116.425 603.047,114.472 602.948,114.072 602.76,113.719 		">
		</polygon>
	</g>
</g>
<g id="Layer_1">
</g>
</svg>
