<?xml version="1.0" encoding="iso-8859-1"?>
<!-- Generator: Adobe Illustrator 19.2.1, SVG Export Plug-In . SVG Version: 6.00 Build 0)  -->
<svg version="1.1" xmlns="http://www.w3.org/2000/svg" xmlns:xlink="http://www.w3.org/1999/xlink" x="0px" y="0px"
	 viewBox="0 0 841.89 595.28" style="enable-background:new 0 0 841.89 595.28;" xml:space="preserve">
<g id="layer233">
	<g id="layer233_1_" slic3r:z="9.34000000000008e-005">
		<polygon slic3r:type="contour" style="fill:#FFFFFF;stroke:#000000;stroke-miterlimit:10;" points="766.182,202.524 
			767.41,205.043 767.557,205.531 767.709,206.243 767.885,207.849 767.966,209.278 768.036,210.261 768.012,211.067 
			767.999,214.02 767.939,215.184 767.549,217.431 767.514,217.79 767.525,218.237 766.948,220.131 766.582,221.572 
			766.164,222.701 765.875,223.648 764.65,226.453 764.65,226.453 764.65,226.453 764.562,226.5 762.995,229.94 762.1,231.663 
			761.411,232.71 760.339,234.527 759.691,235.438 759.35,236.073 758.278,237.89 757.071,239.666 756.636,240.124 756.465,240.442 
			754.646,242.77 754.516,242.953 753.18,244.911 752.179,246.01 751.096,247.38 750.183,248.432 749.359,249.438 747.841,251.266 
			747.405,251.725 745.668,253.782 745.451,254.012 745.362,254.059 742.961,256.357 742.049,257.41 740.783,258.65 739.3,260.12 
			738.47,260.902 735.98,263.247 735.804,263.341 734.009,264.864 733.091,265.692 733.002,265.739 732.914,265.786 
			730.719,267.409 729.713,268.285 728.612,268.984 727.512,269.683 726.541,270.2 723.81,271.881 723.634,271.975 721.292,273.109 
			719.527,274.049 718.909,274.378 717.756,274.766 716.914,275.1 715.232,275.77 713.902,276.251 712.396,276.827 711.195,277.126 
			710.619,277.32 710.042,277.514 707.418,278.118 706.53,278.365 704.794,278.722 701.282,279.573 700.835,279.585 
			700.435,279.684 697.146,280.529 694.434,281.181 694.211,281.186 694.034,281.28 691.857,281.873 690.392,282.314 
			688.133,283.177 687.556,283.371 687.156,283.47 684.985,284.287 684.144,284.621 681.443,285.72 680.337,286.196 
			677.283,287.482 676.93,287.67 675.959,288.187 673.835,289.092 672.953,289.562 670.434,290.79 668.669,291.73 667.168,292.529 
			665.138,293.61 663.067,294.826 661.566,295.625 658.395,297.541 658.218,297.635 658.218,297.635 656.235,298.805 
			654.293,299.839 654.293,299.839 650.462,302.219 650.286,302.313 650.021,302.454 647.426,304.176 647.161,304.317 
			647.161,304.317 644.955,305.492 643.678,306.285 642.224,307.172 641.341,307.643 640.635,308.019 637.987,309.429 
			636.446,310.363 634.239,311.538 632.915,312.243 630.532,313.512 629.514,313.941 626.201,315.592 626.113,315.639 
			625.672,315.874 623.242,317.055 622.047,317.578 620.411,318.336 619.217,318.858 616.828,319.904 614.039,321.049 
			612.757,321.619 609.079,323.011 608.814,323.152 607.308,323.728 604.56,324.738 603.984,324.932 600.307,326.323 
			598.712,326.946 596.011,328.044 593.752,328.908 592.422,329.389 590.251,330.206 587.462,331.351 586.533,331.733 
			582.767,333.172 582.679,333.219 582.679,333.219 582.679,333.219 579.402,334.511 576.43,335.527 575.989,335.762 
			575.677,335.814 571.465,337.265 569.823,337.799 566.893,338.68 564.628,339.319 562.763,339.859 559.163,340.757 
			558.586,340.951 556.85,341.309 554.091,341.872 553.468,341.977 552.532,342.136 549.638,342.657 547.991,342.968 
			546.12,343.285 544.337,343.554 543.131,343.63 542.019,343.882 540.102,344.11 537.519,344.579 537.384,344.538 537.207,344.632 
			534.754,344.919 533.419,345.177 532.171,345.388 530.077,345.71 529.589,345.857 529.277,345.91 527.047,346.191 525.265,346.46 
			524.371,346.483 522.006,346.723 521.471,346.781 521.294,346.875 521.071,346.881 518.882,347.027 516.87,347.078 
			516.288,347.049 513.606,347.118 512.935,347.135 510.876,347.098 508.147,347.079 507.341,347.055 505.594,346.966 504.253,347 
			503.894,346.965 501.788,346.84 499.953,346.798 497.806,346.808 495.612,346.73 493.329,346.699 492.435,346.722 
			490.106,346.603 489.794,346.656 489.659,346.615 486.883,346.507 484.959,346.512 483.483,346.505 482.318,346.446 
			480.124,346.368 478.377,346.279 476.406,346.195 475.018,346.141 472.289,346.122 471.483,346.098 471.036,346.109 
			468.083,346.096 466.606,346.089 466.383,346.095 465.936,346.106 462.577,345.969 461.189,345.915 459.442,345.826 
			458.054,345.772 456.842,345.624 455.854,345.471 455.36,345.394 452.754,344.969 451.407,344.78 449.743,344.42 446.637,343.695 
			446.367,343.612 446.231,343.571 446.096,343.53 442.497,342.727 441.867,342.609 441.238,342.491 437.691,342.001 
			436.927,341.842 436.074,341.729 433.203,341.445 432.621,341.415 430.38,341.249 427.109,341.065 426.033,340.958 
			425.004,340.94 422.139,340.88 420.215,340.884 419.545,340.902 416.998,341.012 416.015,341.082 413.739,341.275 
			412.403,341.533 410.085,341.861 409.462,341.966 409.15,342.019 408.926,342.025 407.503,342.33 405.144,342.793 
			404.744,342.893 404.079,343.133 401.102,343.926 398.131,344.942 397.066,345.282 396.401,345.523 393.124,346.815 
			392.812,346.868 390.199,347.919 387.94,348.782 386.746,349.305 383.868,350.498 383.645,350.503 383.027,350.832 
			380.415,351.884 379.532,352.354 376.919,353.405 374.801,354.533 374.048,354.821 372.106,355.855 370.782,356.56 
			369.058,357.365 367.293,358.305 365.928,359.145 363.633,360.368 363.015,360.697 362.75,360.838 360.944,361.913 
			359.708,362.571 358.078,363.552 355.654,364.957 354.948,365.333 354.465,365.703 353.365,366.402 351.381,367.572 
			350.281,368.271 349.092,369.018 347.551,369.952 345.579,371.568 345.491,371.615 345.402,371.662 343.213,373.508 
			341.859,374.796 340.941,375.624 339.588,376.912 338.104,378.381 337.71,378.705 337.186,379.21 335.485,380.909 
			333.743,382.743 333.219,383.249 332.654,383.89 330.865,385.636 329.776,386.782 329.122,387.47 328.51,388.023 327.509,389.122 
			327.033,389.716 326.073,390.68 324.772,392.279 324.555,392.509 324.036,393.238 323.171,394.378 321.658,396.43 
			320.445,397.982 319.968,398.576 317.16,402.451 316.689,403.268 315.394,405.091 314.746,406.003 314.534,406.455 
			314.187,406.867 313.327,408.231 311.779,410.642 311.608,410.959 311.131,411.553 309.971,413.417 309.282,414.464 
			308.552,415.646 306.703,418.556 306.703,418.556 306.703,418.556 305.72,420.326 304.949,421.644 303.659,423.69 
			302.929,424.872 302.67,425.236 302.37,425.736 300.256,428.788 299.956,429.288 299.184,430.605 297.771,433.057 
			297.388,433.827 297.347,433.963 295.887,436.326 294.691,438.549 294.344,438.961 293.614,440.143 292.407,441.918 
			291.812,443.142 291.123,444.188 289.139,447.058 288.968,447.375 288.927,447.51 287.673,449.198 286.077,451.52 
			285.818,451.885 285.342,452.479 284.823,453.208 283.74,454.578 282.704,456.036 281.709,457.359 280.108,459.458 
			279.672,459.917 279.413,460.281 278.936,460.875 277.936,461.974 276.117,464.303 276.028,464.35 275.116,465.402 
			272.638,468.195 272.508,468.377 272.249,468.741 271.508,469.476 270.16,470.987 269.076,472.357 268.511,472.998 
			267.422,474.144 265.556,476.384 265.339,476.614 264.815,477.119 263.161,478.906 262.16,480.006 261.942,480.235 
			259.941,482.434 258.899,483.669 258.593,483.945 258.375,484.174 256.586,485.92 254.714,487.937 254.538,488.031 
			252.572,489.871 250.782,491.617 250.565,491.846 250.259,492.122 249.823,492.581 248.204,494.009 246.892,495.161 
			245.974,495.99 244.308,497.33 242.331,498.723 241.542,499.37 239.518,500.674 238.418,501.374 236.57,502.584 235.246,503.289 
			232.863,504.559 232.598,504.7 231.98,505.029 229.815,506.069 229.15,506.309 225.831,507.737 224.237,508.359 221.489,509.369 
			221.089,509.469 220.248,509.804 218.118,510.485 217.541,510.679 214.7,511.512 213.411,511.859 211.499,512.31 210.346,512.698 
			207.499,513.308 206.698,513.507 206.075,513.613 202.604,514.328 202.516,514.375 202.292,514.381 199.398,514.903 
			198.103,515.026 196.321,515.295 193.868,515.582 193.244,515.687 190.832,515.839 189.538,515.962 189.226,516.014 
			187.573,516.102 185.832,516.236 185.609,516.242 185.208,516.341 183.42,516.387 182.391,516.369 181.856,516.428 
			180.826,516.409 179.261,516.45 177.338,516.454 173.938,516.452 172.997,516.387 171.656,516.421 169.461,516.344 
			167.85,516.295 166.685,516.236 165.385,516.135 163.503,516.005 161.979,515.91 158.932,515.719 157.05,515.589 155.209,515.323 
			153.997,515.175 152.068,514.956 150.992,514.85 150.004,514.696 147.892,514.348 146.722,514.065 145.463,513.829 
			142.675,513.274 142.405,513.192 142.181,513.198 138.94,512.431 138.129,512.183 136.417,511.735 135.2,511.364 133.124,510.657 
			130.777,509.867 128.295,509.036 127.572,508.742 126.713,508.406 125.537,507.899 123.773,507.139 123.591,507.01 
			123.455,506.968 121.462,505.991 120.28,505.261 120.145,505.219 119.827,505.049 116.511,503.076 115.464,502.387 
			113.641,501.092 111.225,499.32 108.214,497.071 107.297,496.2 104.969,494.381 103.046,492.685 100.295,490.072 98.596,488.371 
			97.22,487.064 92.77,482.75 91.483,481.396 90.519,480.437 88.408,478.388 85.61,475.687 83.911,473.986 81.477,471.543 
			79.778,469.842 77.803,467.835 76.515,466.481 75.404,465.033 74.94,464.374 74.006,462.832 73.494,462.085 73.306,461.732 
			71.462,457.843 71.321,457.578 71.268,457.266 70.358,454.918 69.976,453.989 69.184,451.012 69.178,450.788 69.131,450.7 
			68.551,447.27 68.592,447.135 68.205,444.282 68.142,441.823 68.125,441.152 67.962,438.293 67.981,435.564 67.988,434.088 
			68.101,431.535 68.102,429.835 68.168,428.894 68.305,425.535 68.536,422.353 68.596,421.188 69.11,416.835 69.104,416.612 
			69.146,416.477 69.146,416.477 69.807,412.612 69.925,411.983 70.09,411.442 70.81,408.113 70.851,407.978 70.851,407.978 
			72.036,403.608 72.16,403.202 73.303,398.967 73.392,398.92 74.429,395.762 75.101,394.045 75.478,393.051 75.69,392.598 
			76.568,390.205 77.292,388.799 77.799,387.623 78.682,385.453 79.106,384.547 79.707,383.548 80.944,381.19 81.798,379.602 
			82.605,377.926 84.147,375.292 84.789,374.157 86.373,371.387 87.056,370.117 88.258,368.118 89.076,366.889 90.236,365.025 
			90.836,364.025 92.391,361.838 92.991,360.838 94.116,359.333 94.981,358.192 96.106,356.687 96.971,355.546 97.795,354.541 
			99.355,352.577 99.703,352.166 101.616,350.014 101.657,349.879 104.053,347.357 104.053,347.357 106.495,344.923 
			107.325,344.141 108.85,342.536 110.203,341.249 110.639,340.79 112.128,339.544 114.488,337.381 114.882,337.057 
			115.059,336.963 115.494,336.505 118.26,334.465 119.879,333.037 119.967,332.99 120.097,332.808 121.768,331.691 
			122.645,330.997 124.446,329.698 125.281,329.14 128.4,326.913 128.53,326.73 128.883,326.542 131.696,324.591 132.355,324.127 
			133.191,323.568 135.386,321.946 136.398,321.294 138.157,320.13 140.706,318.32 141.365,317.856 141.759,317.533 
			142.595,316.974 143.43,316.416 144.354,315.811 146.378,314.506 146.861,314.136 147.302,313.901 149.809,312.226 
			150.557,311.714 151.963,310.739 152.051,310.692 154.123,309.475 154.694,309.058 156.806,307.706 157.377,307.289 
			158.566,306.543 159.401,305.984 160.413,305.332 162.173,304.168 163.974,302.87 164.062,302.823 164.062,302.823 
			166.351,301.377 167.363,300.725 169.476,299.373 170.841,298.533 171.059,298.303 172.471,297.551 174.36,296.205 
			175.372,295.553 175.855,295.183 176.867,294.53 178.585,293.502 179.992,292.526 182.193,291.128 183.117,290.522 
			184.523,289.547 184.964,289.312 185.094,289.129 187.56,287.59 188.966,286.614 189.978,285.962 191.602,284.757 
			191.908,284.481 192.173,284.34 193.403,283.458 195.251,282.247 196.134,281.777 197.976,280.343 198.282,280.067 198.37,280.02 
			201.271,278.022 201.401,277.839 201.666,277.698 203.555,276.352 203.643,276.305 205.491,275.095 205.708,274.866 
			208.257,273.055 208.739,272.685 209.969,271.803 211.287,270.875 211.946,270.411 212.953,269.535 214.095,268.7 
			214.624,268.418 214.754,268.236 217.214,266.473 217.52,266.196 218.267,265.685 219.98,264.433 221.033,263.645 
			222.175,262.811 224.058,261.241 224.894,260.683 225.376,260.313 226.694,259.384 228.054,258.32 228.801,257.809 
			230.514,256.557 231.214,255.958 232.267,255.17 233.715,254.059 235.469,252.672 236.216,252.161 236.699,251.79 
			238.147,250.679 238.718,250.262 240.254,249.104 240.954,248.505 242.225,247.488 243.979,246.101 244.638,245.636 
			245.032,245.313 246.786,243.926 247.269,243.556 248.275,242.68 249.764,241.434 250.6,240.875 252.177,239.582 253.319,238.747 
			253.843,238.242 255.467,237.037 256.255,236.39 257.527,235.374 259.239,234.122 260.993,232.734 261.829,232.176 
			262.223,231.853 263.759,230.695 264.33,230.278 265.777,229.167 266.919,228.332 267.796,227.639 269.114,226.71 
			270.562,225.599 272.057,224.577 272.716,224.112 273.287,223.695 274.911,222.49 275.876,221.749 276.447,221.332 
			278.995,219.522 279.083,219.475 279.478,219.152 280.619,218.317 281.278,217.853 283.256,216.46 284.486,215.578 
			285.057,215.161 288.482,212.657 289.052,212.24 289.535,211.87 292.742,209.595 293.137,209.272 294.455,208.343 
			296.385,206.862 296.738,206.674 297.527,206.027 297.792,205.886 298.274,205.516 300.734,203.753 301.746,203.1 
			301.923,203.006 303.859,201.749 306.101,200.215 306.407,199.939 309.444,197.982 310.367,197.376 310.85,197.006 
			311.027,196.912 313.798,195.096 314.546,194.585 315.646,193.885 316.44,193.462 317.541,192.763 318.771,191.881 
			321.06,190.436 323.043,189.266 323.967,188.661 324.585,188.332 325.114,188.05 326.962,186.839 327.227,186.698 
			327.845,186.369 329.916,185.153 331.546,184.172 334.012,182.632 334.541,182.35 334.718,182.256 335.777,181.692 
			338.725,179.782 339.52,179.359 339.914,179.035 342.997,177.167 344.186,176.42 344.274,176.373 345.022,175.862 346.252,174.98 
			347.793,174.046 348.452,173.582 348.541,173.535 348.894,173.347 349.818,172.741 352.678,170.879 353.56,170.408 
			354.967,169.433 356.991,168.128 357.65,167.664 358.133,167.294 360.687,165.707 361.169,165.337 361.74,164.919 
			362.664,164.314 363.5,163.756 365.436,162.498 367.325,161.152 368.425,160.453 369.655,159.571 371.409,158.184 
			371.762,157.996 373.21,156.885 373.957,156.374 374.351,156.051 376.152,154.752 377.512,153.688 378.259,153.176 
			379.618,152.113 380.542,151.507 381.902,150.443 382.473,150.026 383.22,149.515 384.933,148.263 386.163,147.381 
			386.733,146.964 386.998,146.823 389.37,145.107 390.6,144.225 390.994,143.902 392.048,143.114 393.76,141.862 395.296,140.704 
			396.173,140.011 397.315,139.176 398.103,138.53 399.157,137.742 399.463,137.466 400.693,136.584 402.529,134.927 403.8,133.91 
			404.194,133.586 405.554,132.522 406.472,131.694 407.614,130.859 408.055,130.624 409.109,129.836 410.821,128.585 
			412.316,127.562 413.281,126.821 414.558,126.028 415.347,125.381 416.447,124.682 416.535,124.635 419.966,122.355 
			420.096,122.173 420.802,121.796 421.814,121.144 424.368,119.557 424.544,119.463 424.674,119.281 425.733,118.717 
			427.628,117.595 429.258,116.613 429.299,116.478 429.387,116.431 433.489,114.134 434.371,113.664 435.695,112.958 
			437.196,112.159 437.678,111.789 438.561,111.319 439.355,110.896 441.915,109.533 444.381,107.993 445.793,107.241 
			446.193,107.141 446.94,106.63 448.488,105.919 449.506,105.49 449.771,105.349 450.171,105.25 450.347,105.156 451.23,104.686 
			453.53,103.687 454.283,103.399 455.125,103.064 455.654,102.782 458.667,101.631 458.667,101.631 458.843,101.537 
			460.791,100.727 462.474,100.057 464.645,99.241 465.133,99.094 465.71,98.9 467.616,98.225 469.481,97.685 470.281,97.485 
			470.858,97.292 472.723,96.752 473.699,96.458 474.676,96.165 476.229,95.677 477.518,95.331 478.23,95.178 480.365,94.721 
			480.765,94.621 482.589,94.216 483.301,94.064 484.683,93.894 485.083,93.794 487.801,93.367 488.472,93.349 491.284,93.098 
			492.355,92.981 494.943,92.736 496.596,92.648 498.202,92.473 500.837,92.316 501.596,92.252 502.443,92.14 505.032,91.895 
			507.261,91.614 507.708,91.602 510.385,91.31 511.009,91.204 514.797,90.66 515.109,90.607 515.421,90.554 516.891,90.337 
			518.097,90.262 519.209,90.009 520.056,89.898 520.904,89.787 522.686,89.517 522.998,89.465 523.845,89.353 526.292,88.843 
			527.628,88.585 530.299,88.069 531.499,87.77 532.699,87.47 535.499,86.772 536.341,86.437 537.229,86.191 538.382,85.803 
			538.959,85.61 540.024,85.269 541.883,84.505 541.971,84.458 544.407,83.501 544.407,83.501 546.62,82.55 548.12,81.75 
			549.444,81.045 551.033,80.199 552.004,79.682 552.933,79.3 553.375,79.065 555.887,77.614 556.152,77.473 558.753,75.975 
			559.106,75.787 559.765,75.322 561.707,74.288 562.413,73.912 565.373,72.449 565.549,72.355 565.726,72.261 568.121,71.439 
			569.803,70.77 570.692,70.523 573.233,70.189 573.545,70.136 573.815,70.219 575.256,70.585 576.474,70.956 577.062,71.209 
			579.144,72.14 580.955,72.988 582.813,73.924 584.854,74.99 585.489,75.332 586.624,75.974 587.894,76.657 588.576,77.087 
			590.393,78.159 591.346,78.671 593.121,79.878 594.168,80.567 595.397,81.385 597.126,82.504 598.99,83.664 600.266,84.57 
			603.347,86.102 603.576,86.319 603.847,86.402 607.54,87.381 608.793,87.393 610.534,87.259 610.711,87.165 612.447,86.807 
			614.082,86.049 615.806,85.245 616.818,84.592 618.931,83.241 619.725,82.818 622.232,81.143 622.674,80.908 622.762,80.861 
			622.938,80.767 626.116,79.074 626.381,78.933 627.622,78.499 628.552,78.117 628.864,78.064 630.558,77.842 632.352,78.019 
			633.381,78.038 633.969,78.291 635.457,78.745 636.228,79.128 636.545,79.298 638.685,80.764 639.368,81.194 641.69,82.79 
			641.825,82.831 642.055,83.049 644.013,84.385 645.059,85.074 645.471,85.421 646.706,86.463 648.887,87.794 650.575,89.048 
			652.674,90.649 654.496,91.945 656.319,93.24 658.007,94.494 660.1,95.872 661.287,96.825 663.651,98.285 664.563,98.933 
			666.609,100.223 670.331,102.319 670.513,102.448 670.649,102.49 670.966,102.661 674.189,104.457 675.318,104.875 
			678.54,106.671 680.252,107.119 683.01,108.256 683.01,108.256 685.545,109.399 687.215,109.982 687.85,110.324 690.255,111.649 
			691.025,112.032 691.161,112.073 691.208,112.161 691.343,112.202 694.994,115.016 695.088,115.193 695.223,115.234 
			695.317,115.411 695.688,115.893 697.633,118.483 698.103,119.365 698.72,120.736 699.472,122.148 699.818,123.437 
			699.982,124.596 699.893,126.343 699.881,127.596 699.791,129.343 699.703,129.39 699.014,130.436 698.096,131.265 
			696.689,132.241 694.877,133.093 693.547,133.574 691.541,133.85 689.759,134.119 688.506,134.106 687.118,134.053 
			685.994,133.858 684.689,133.534 681.501,133.079 680.695,133.055 680.248,133.066 678.724,132.971 676.077,132.681 
			674.778,132.58 672.048,132.561 668.607,132.694 667.53,132.588 667.083,132.599 665.919,132.54 663.148,132.656 662.166,132.726 
			659.836,132.607 658.272,132.647 656.972,132.546 654.778,132.468 654.778,132.468 654.642,132.427 652.313,132.308 
			652.178,132.267 651.819,132.231 650.295,132.136 648.772,132.041 648.054,131.97 645.454,131.769 645.096,131.733 
			644.872,131.739 644.019,131.626 642.455,131.667 640.843,131.619 640.531,131.671 640.396,131.63 638.613,131.9 638.301,131.952 
			637.99,132.005 637.637,132.193 636.089,132.904 635.43,133.368 634.6,134.15 634.164,134.609 633.74,135.514 633.658,135.785 
			633.381,137.179 633.386,137.402 633.351,137.761 633.626,139.767 633.967,140.832 635.006,142.997 635.241,143.439 
			635.383,143.704 636.963,146.034 637.886,147.129 640.161,150.336 640.484,150.73 640.807,151.125 642.988,154.155 
			643.217,154.373 643.446,154.591 643.77,154.985 645.621,157.398 646.826,159.022 647.567,159.987 648.542,161.394 
			649.33,162.447 649.882,163.059 651.228,164.949 652.621,166.926 653.321,168.026 654.667,169.915 655.319,170.927 
			655.595,171.234 656.712,172.905 657.458,174.093 657.552,174.27 658.204,175.282 659.691,177.436 659.973,177.966 
			661.184,179.813 661.554,180.296 661.742,180.649 662.818,182.456 663.47,183.468 664.451,185.098 665.297,186.686 
			666.285,188.54 666.332,188.628 667.424,191.105 667.565,191.37 668.57,193.894 668.81,194.559 669.574,196.419 670.355,198.948 
			670.554,199.749 670.607,200.06 670.754,200.549 671.411,203.484 671.616,204.508 671.933,206.379 671.985,206.691 
			672.219,208.832 672.331,209.679 672.542,210.926 672.5,211.061 672.664,212.22 673.016,213.732 673.28,215.291 673.544,216.85 
			673.89,218.139 673.99,218.539 674.518,219.957 674.565,220.045 674.659,220.222 675.588,221.54 675.817,221.758 676.364,222.146 
			677.276,222.794 677.817,222.959 678.993,223.465 680.557,223.425 680.557,223.425 680.646,223.378 682.74,223.056 
			683.005,222.915 683.493,222.768 685.176,222.099 687.029,221.111 687.206,221.017 687.471,220.876 689.101,219.895 
			689.583,219.525 690.813,218.643 692.22,217.668 692.702,217.297 693.144,217.062 694.986,215.628 696.127,214.793 
			696.569,214.558 697.228,214.094 699.599,212.378 700.612,211.726 701.671,211.162 701.889,210.932 703.301,210.18 
			703.919,209.851 704.931,209.199 705.196,209.058 707.096,208.159 707.449,207.971 708.732,207.401 709.838,206.925 
			711.833,206.203 713.474,205.669 715.204,205.087 716.581,204.694 719.693,203.943 720.181,203.796 722.987,203.322 
			723.476,203.175 723.476,203.175 723.611,203.216 726.329,202.788 727.088,202.724 730.612,202.32 730.788,202.226 
			731.012,202.221 734.671,201.858 736.771,201.759 738.153,201.59 740.341,201.444 742.083,201.31 743.865,201.04 744.801,200.882 
			747.118,200.554 748.054,200.396 748.319,200.255 749.342,200.049 751.919,199.357 752.631,199.204 754.184,198.717 
			755.602,198.189 757.779,197.596 758.091,197.543 758.226,197.584 760.414,197.439 761.455,197.904 762.72,198.363 
			763.584,198.923 764.783,200.324 764.872,200.277 764.919,200.365 766.088,202.348 		">
		</polygon>
	</g>
</g>
<g id="Layer_1">
</g>
</svg>
