<?xml version="1.0" encoding="iso-8859-1"?>
<!-- Generator: Adobe Illustrator 19.2.1, SVG Export Plug-In . SVG Version: 6.00 Build 0)  -->
<svg version="1.1" xmlns="http://www.w3.org/2000/svg" xmlns:xlink="http://www.w3.org/1999/xlink" x="0px" y="0px"
	 viewBox="0 0 841.89 595.28" style="enable-background:new 0 0 841.89 595.28;" xml:space="preserve">
<g id="layer197">
	<g id="layer197_1_" slic3r:z="7.90000000000006e-005">
		<polygon slic3r:type="contour" style="fill:#FFFFFF;stroke:#000000;stroke-miterlimit:10;" points="211.491,381.457 
			211.543,381.769 212.642,384.47 213.593,386.682 213.934,387.747 215.079,390.536 215.655,392.042 216.659,394.566 
			218.339,398.997 218.533,399.573 218.674,399.838 218.873,400.638 220.558,405.292 221.005,406.981 221.609,409.605 
			221.82,410.852 222.036,414.023 222.147,414.87 222.098,418.181 221.95,419.393 221.602,421.505 221.324,422.899 220.893,425.281 
			220.262,428.563 220.185,429.057 219.861,430.362 219.454,431.939 219.289,432.48 218.764,434.685 218.363,436.485 
			217.821,438.02 217.001,440.949 216.789,441.402 216.795,441.625 215.458,445.283 214.533,447.589 214.197,448.447 
			213.272,450.753 212.182,453.599 212.011,453.916 212.017,454.14 210.792,456.945 210.285,458.121 209.773,459.074 
			208.613,460.938 208.395,461.167 208.183,461.62 206.535,463.631 204.716,465.959 204.368,466.371 203.015,467.658 
			200.072,469.792 199.678,470.115 199.501,470.209 199.413,470.256 196.812,471.754 194.517,472.976 193.546,473.493 
			191.34,474.669 189.881,475.332 188.245,476.09 187.139,476.566 183.149,478.011 183.149,478.011 183.149,478.011 
			183.149,478.011 179.902,478.72 178.567,478.978 176.29,479.171 175.619,479.188 174.278,479.223 173.425,479.111 
			171.049,478.903 169.837,478.756 166.597,477.989 166.238,477.953 165.744,477.877 161.691,476.862 160.068,476.367 
			157.951,475.795 155.334,474.923 154.522,474.676 154.116,474.552 150.952,473.291 150.411,473.126 148.106,472.201 
			145.754,471.188 144.53,470.593 143.125,469.869 141.267,468.932 139.679,468.078 139.044,467.737 137.815,466.918 
			136.862,466.406 134.634,464.987 133.317,464.216 130.224,462.237 129.677,461.849 129.359,461.678 128.948,461.331 
			126.167,459.3 125.344,458.605 124.385,457.869 123.65,457.127 122.004,455.738 121.681,455.344 120.211,453.861 119.429,453.031 
			119.2,452.813 117.448,450.8 116.149,448.999 114.997,447.687 113.557,445.621 113.275,445.092 112.294,443.462 111.501,442.185 
			110.373,440.066 109.615,438.431 108.992,436.836 108.469,435.642 108.029,434.177 107.266,432.317 106.338,429.299 
			105.851,427.746 105.557,426.769 105.088,424.187 104.706,423.257 104.837,421.375 104.797,419.81 104.709,418.157 
			104.952,415.422 104.988,415.063 105.736,412.852 105.996,410.787 106.409,409.435 107.18,408.117 108.452,405.4 108.665,404.948 
			109.141,404.354 110.737,402.031 111.208,401.214 112.633,399.209 112.851,398.98 113.157,398.703 114.905,397.093 
			116.653,395.482 116.87,395.253 119.495,392.948 119.672,392.854 119.713,392.719 119.978,392.578 122.997,389.951 
			123.215,389.721 124.574,388.657 126.281,387.182 126.893,386.629 129.171,384.737 130.836,383.396 132.237,382.197 
			134.303,380.757 136.145,379.323 138.081,378.066 140.105,376.761 140.547,376.526 142.971,375.121 144.03,374.557 
			146.943,373.006 147.472,372.724 150.567,371.303 150.832,371.162 154.415,369.593 154.904,369.446 158.581,368.055 
			160.399,367.426 162.882,366.557 163.682,366.358 166.077,365.536 169.319,364.602 170.519,364.303 172.031,363.951 
			173.854,363.546 175.102,363.335 176.437,363.077 177.419,363.007 179.655,362.95 180.908,362.962 183.637,362.982 
			184.802,363.041 185.431,363.159 188.66,363.479 191.136,364.086 192.078,364.151 193.613,364.694 195.101,365.147 
			196.824,366.043 198.635,366.891 199.811,367.397 202.951,369.464 204.227,370.371 206.061,372.113 207.219,373.649 
			207.73,374.396 209.411,377.127 210.016,378.051 		">
		</polygon>
		<polygon slic3r:type="contour" style="fill:#FFFFFF;stroke:#000000;stroke-miterlimit:10;" points="611.673,188.96 
			611.72,189.048 613.235,192.32 613.987,193.732 615.35,196.291 615.544,196.868 616.672,198.986 617.283,200.134 617.424,200.399 
			619.31,204.153 619.357,204.241 619.545,204.594 620.726,207.024 621.343,208.395 622.189,209.984 622.853,211.443 
			623.699,213.032 624.081,213.961 624.844,215.821 625.367,217.015 625.602,217.456 627.37,221.84 627.417,221.928 
			627.558,222.193 628.997,225.959 629.479,227.288 630.771,230.565 630.824,230.877 630.918,231.054 632.027,234.202 
			632.321,235.178 633.043,237.173 633.478,238.414 634.588,241.562 634.682,241.738 634.828,242.227 635.709,245.157 
			636.044,245.998 636.531,247.551 636.924,248.928 637.564,251.193 637.664,251.593 637.916,252.705 638.069,253.417 
			638.25,255.247 638.303,255.558 638.56,258.594 638.571,259.041 638.511,261.905 638.481,262.488 638.026,265.676 
			637.985,265.811 637.949,266.17 637.212,268.828 636.623,270.275 635.951,271.992 635.433,272.721 634.968,273.762 
			633.896,275.579 633.29,276.355 632.813,276.949 631.383,278.731 630.647,279.689 630.388,280.053 628.734,281.841 
			628.169,282.482 627.121,283.493 626.115,284.369 625.155,285.333 624.413,286.068 623.76,286.755 622.883,287.449 
			621.259,288.654 621.082,288.748 620.994,288.795 618.882,290.146 617.563,291.075 615.933,292.056 614.262,293.173 
			611.979,294.842 611.802,294.936 611.626,295.03 609.331,296.252 607.919,297.005 606.724,297.527 604.612,298.879 
			603.817,299.302 603.288,299.584 601.481,300.659 600.598,301.129 599.186,301.882 598.433,302.169 597.992,302.404 
			597.374,302.733 594.544,304.014 592.949,304.637 591.355,305.259 587.625,306.339 587.313,306.392 587.225,306.439 
			587.136,306.486 586.424,306.638 582.465,307.501 581.353,307.753 578.012,308.286 576.541,308.503 574.711,308.684 
			573.329,308.854 572.97,308.819 572.794,308.913 570.87,308.917 569.617,308.905 566.8,308.932 566.664,308.891 566.664,308.891 
			566.529,308.85 562.9,308.63 560.306,308.652 559.812,308.575 559.229,308.545 557.394,308.503 555.87,308.408 553.988,308.278 
			551.612,308.07 550.312,307.969 548.653,307.833 547.936,307.762 547.353,307.732 545.377,307.425 543.354,307.03 
			542.636,306.959 542.095,306.794 539.801,306.316 539.213,306.063 537.549,305.703 535.884,305.343 535.119,305.184 
			533.449,304.6 532.232,304.229 531.42,303.981 530.379,303.516 528.209,302.632 527.574,302.291 526.716,301.955 525.716,301.354 
			524.899,300.883 523.846,299.971 522.706,299.106 521.418,297.752 519.802,295.78 519.202,295.08 518.92,294.55 517.756,292.791 
			517.151,291.867 516.963,291.514 515.541,288.419 515.254,287.666 514.913,286.601 514.303,283.753 513.981,281.659 
			513.917,280.9 514.036,278.571 514.183,277.359 514.449,275.518 514.963,272.866 515.045,272.595 515.128,272.324 
			516.035,269.349 516.872,267.09 517.12,266.279 518.769,262.568 518.769,262.568 518.769,262.568 518.81,262.433 520.548,258.675 
			520.931,257.905 521.903,255.687 522.497,254.464 522.792,253.741 523.634,251.706 524.082,249.995 524.501,248.865 
			524.778,247.472 525.003,245.766 524.962,244.201 525.057,242.678 524.653,240.854 524.389,239.295 524.007,238.365 
			523.338,236.682 523.056,236.153 522.362,235.276 522.086,234.97 521.163,233.875 520.11,232.963 519.746,232.704 518.741,231.88 
			517.694,231.191 516.465,230.372 514.648,229.301 512.378,228.017 509.891,226.962 508.079,226.114 505.504,225.107 
			504.374,224.689 502.345,224.07 501.892,223.858 500.316,223.451 499.687,223.333 499.011,223.126 495.952,222.489 
			494.376,222.082 491.5,221.575 488.671,221.155 487.277,220.878 485.3,220.571 484.265,220.329 482.965,220.228 482.695,220.146 
			481.301,219.869 478.195,219.143 477.607,218.89 477.248,218.854 475.62,218.136 473.543,217.429 472.82,217.134 469.791,215.915 
			468.386,215.19 465.663,213.694 464.981,213.265 464.346,212.923 461.888,211.286 461.112,210.68 460.383,210.162 
			458.143,208.296 456.226,206.824 454.533,205.346 453.21,204.352 452.017,203.174 450.647,202.091 449.501,201.002 
			448.542,200.266 447.49,199.354 445.985,198.229 444.979,197.405 443.562,196.234 441.734,194.715 440.681,193.803 
			437.795,191.148 437.612,191.018 436.59,189.524 435.849,188.559 435.473,187.852 435.144,187.235 434.628,184.564 
			434.505,183.27 434.588,182.999 435.319,180.117 435.996,178.623 436.591,177.4 438.029,174.142 438.111,173.872 438.241,173.689 
			439.319,170.396 439.643,169.09 439.938,168.367 440.964,164.762 441.506,163.227 442.673,159.886 443.05,158.892 
			443.598,157.581 444.022,156.675 444.787,155.135 445.889,152.735 447.131,150.601 447.302,150.283 447.52,150.054 
			449.215,148.131 450.828,146.479 452.705,144.686 454.106,143.487 456.425,141.459 458.485,139.796 459.803,138.867 
			461.739,137.61 463.016,136.816 464.87,135.829 466.329,135.165 468.447,134.037 470.218,133.321 471.854,132.563 472.96,132.087 
			474.29,131.605 476.155,131.065 477.09,130.907 477.802,130.755 480.255,130.468 481.367,130.216 482.573,130.14 484.808,130.082 
			486.15,130.048 488.608,129.985 490.756,129.974 491.873,129.946 495.091,129.818 496.75,129.954 497.867,129.926 
			498.585,129.997 501.591,130.322 501.726,130.363 501.726,130.363 504.914,130.818 507.114,131.12 508.461,131.309 
			511.784,131.805 512.19,131.929 513.895,132.153 515.513,132.425 515.872,132.46 518.613,132.927 522.789,133.535 
			522.836,133.623 522.836,133.623 526.741,134.149 527.147,134.273 529.841,134.651 531.323,134.881 533.705,135.312 
			534.693,135.466 535.635,135.531 537.928,136.009 539.728,136.41 540.675,136.699 541.663,136.852 542.969,137.177 
			544.368,137.678 547.386,138.45 548.468,138.78 549.82,139.193 551.714,139.77 553.202,140.224 554.602,140.725 556.496,141.303 
			557.401,141.727 559.254,142.44 560.248,142.817 560.565,142.987 563.417,144.301 564.458,144.766 565.229,145.149 
			566.681,145.962 568.457,147.169 570.139,148.199 572.596,149.836 573.143,150.225 574.46,150.996 576.601,152.462 
			577.148,152.85 580.428,155.182 580.611,155.311 580.793,155.441 584.309,158.214 585.085,158.82 587.737,161.033 
			588.877,161.899 591.076,163.9 592.999,165.595 593.592,166.072 595.75,168.209 596.532,169.039 598.736,171.264 599.93,172.441 
			601.452,174.236 603.251,176.337 603.944,177.214 606.301,180.151 607.001,181.251 607.23,181.469 607.371,181.734 
			607.788,182.304 609.422,184.947 610.033,186.094 611.532,188.695 		">
		</polygon>
	</g>
</g>
<g id="Layer_1">
</g>
</svg>
