<?xml version="1.0" encoding="iso-8859-1"?>
<!-- Generator: Adobe Illustrator 19.2.1, SVG Export Plug-In . SVG Version: 6.00 Build 0)  -->
<svg version="1.1" xmlns="http://www.w3.org/2000/svg" xmlns:xlink="http://www.w3.org/1999/xlink" x="0px" y="0px"
	 viewBox="0 0 841.89 595.28" style="enable-background:new 0 0 841.89 595.28;" xml:space="preserve">
<g id="layer196">
	<g id="layer196_1_" slic3r:z="7.86000000000006e-005">
		<polygon slic3r:type="contour" style="fill:#FFFFFF;stroke:#000000;stroke-miterlimit:10;" points="203.172,383.282 
			204.353,385.712 204.97,387.083 206.156,389.736 207.578,392.831 207.954,393.538 208.383,394.555 209.434,397.168 
			210.051,398.539 211.049,400.839 211.813,402.699 213.193,405.929 213.34,406.417 213.528,406.77 214.456,409.789 
			214.972,412.459 215.13,413.395 215.189,413.93 215.545,417.366 215.444,418.666 215.278,420.907 215.03,423.418 214.959,424.136 
			214.846,424.989 214.463,427.459 214.179,430.33 214.102,430.824 213.765,433.382 213.405,435.047 213.158,435.858 
			213.034,436.264 212.209,438.97 211.719,440.816 211.301,441.945 210.641,444.11 210.175,445.151 209.044,448.132 208.92,448.538 
			208.585,449.397 207.53,451.884 207.029,453.284 206.399,454.866 205.085,457.718 204.915,458.036 204.873,458.171 
			204.703,458.488 202.459,461.722 200.946,463.774 200.64,464.051 200.381,464.415 198.986,465.838 197.321,467.178 
			197.015,467.454 194.684,469.035 194.643,469.171 194.555,469.218 194.378,469.312 191.336,471.045 189.877,471.709 
			188.023,472.696 187.582,472.931 184.305,474.223 183.728,474.417 183.328,474.517 182.081,474.728 179.457,475.332 
			178.833,475.437 177.716,475.466 175.257,475.529 173.016,475.363 171.222,475.186 168.751,474.802 166.775,474.495 
			165.334,474.129 162.635,473.528 160.476,473.091 159.035,472.725 158.764,472.643 158.406,472.607 154.977,471.488 
			153.895,471.158 152.042,470.445 150.366,469.638 148.014,468.625 146.156,467.688 145.297,467.352 143.709,466.498 
			142.845,465.939 142.028,465.468 139.029,463.666 138.529,463.366 138.164,463.107 136.571,462.029 134.295,460.522 
			133.837,460.087 130.691,457.796 130.556,457.755 130.421,457.714 128.957,456.454 126.352,454.329 125.988,454.07 
			125.711,453.764 123.33,451.633 122.919,451.286 122.413,450.762 120.667,448.973 119.521,447.884 118.604,447.013 
			117.081,445.218 116.57,444.47 116.247,444.076 115.318,442.758 114.436,441.528 114.154,440.998 113.267,439.545 
			112.562,438.221 111.845,436.45 110.794,433.837 110.312,432.508 110.254,431.972 109.831,431.178 108.745,427.224 
			108.457,426.471 107.823,424.43 107.441,423.5 107.183,422.164 107.267,420.194 107.069,417.694 107.187,417.064 107.871,414.094 
			108.137,412.253 108.296,411.489 108.679,410.718 109.409,409.536 110.31,408.037 111.211,406.537 112.029,405.309 
			113.642,403.657 115.249,401.781 115.596,401.37 115.99,401.046 118.003,399.295 119.751,397.684 120.452,397.084 
			122.465,395.333 122.729,395.192 124.395,393.851 126.102,392.376 126.89,391.729 129.827,389.372 129.827,389.372 
			130.31,389.002 132.852,386.968 133.028,386.874 134.035,385.998 135.483,384.888 135.924,384.652 137.507,383.583 
			139.266,382.419 139.355,382.372 139.531,382.278 141.603,381.062 142.574,380.545 144.692,379.417 146.369,378.524 
			148.446,377.531 150.258,376.679 153,375.445 154.106,374.969 155.036,374.588 157.96,373.484 159.202,373.049 161.378,372.456 
			163.108,371.875 164.661,371.388 167.509,370.778 170.58,370.162 171.203,370.056 172.227,369.851 174.857,369.47 
			176.998,369.236 177.669,369.219 178.428,369.155 180.575,369.144 182.098,369.239 184.027,369.458 186.456,369.977 
			187.674,370.349 189.573,371.15 191.514,371.816 192.42,372.24 195.695,374.348 196.742,375.037 197.706,375.996 199.587,377.827 
			200.51,378.921 202.138,381.34 202.655,382.311 		">
		</polygon>
		<polygon slic3r:type="contour" style="fill:#FFFFFF;stroke:#000000;stroke-miterlimit:10;" points="608.001,190.575 
			608.048,190.663 609.511,193.623 610.269,195.259 611.209,197.024 611.632,197.819 612.008,198.525 613.136,200.643 
			614.358,202.938 614.74,203.867 615.157,204.438 616.661,207.263 617.273,208.41 618.307,210.352 619.012,211.676 
			620.046,213.618 620.281,214.059 620.375,214.236 620.516,214.5 621.749,217.242 622.889,219.808 623.124,220.249 623.6,221.355 
			624.604,223.879 625.127,225.074 625.938,227.021 626.419,228.351 627.141,230.346 627.623,231.675 628.246,233.27 
			628.486,233.935 628.874,235.088 629.649,237.394 630.283,239.436 630.718,240.677 631.446,242.895 631.827,243.825 
			632.179,245.337 632.631,247.249 633.171,249.114 633.57,250.714 634.075,252.938 634.239,254.097 634.526,256.55 
			634.584,257.085 634.711,260.303 634.758,260.391 634.445,263.844 634.403,263.979 633.772,267.261 633.524,268.073 
			632.652,270.69 631.898,272.678 630.909,274.224 630.19,275.853 628.813,277.947 628.771,278.082 628.683,278.129 627.253,279.91 
			626.428,280.916 625.775,281.604 624.463,282.756 622.944,284.584 622.767,284.678 622.549,284.908 620.843,286.383 
			620.313,286.665 619.218,287.588 618.077,288.422 616.099,289.815 615.617,290.186 613.069,291.996 613.069,291.996 
			613.069,291.996 611.003,293.436 609.991,294.088 609.373,294.417 608.49,294.887 607.478,295.54 605.754,296.344 
			604.566,297.091 602.536,298.172 601.217,299.1 599.982,299.759 599.364,300.088 599.011,300.276 596.934,301.268 594.904,302.35 
			594.55,302.538 594.374,302.632 591.762,303.683 591.538,303.689 591.362,303.783 590.961,303.882 588.296,304.622 
			587.096,304.921 584.831,305.561 582.695,306.019 579.448,306.728 579.001,306.74 575.301,307.238 575.077,307.243 
			574.765,307.296 571.683,307.465 570.653,307.447 570.565,307.494 570.206,307.458 567.653,307.345 566.177,307.338 
			563.536,307.272 563.042,307.195 562.459,307.165 559.412,306.975 558.383,306.957 555.966,306.885 555.113,306.772 
			554.666,306.784 551.572,306.505 551.125,306.517 550.495,306.399 548.342,306.186 545.56,305.855 545.154,305.731 
			544.796,305.695 542.996,305.294 541.872,305.1 540.79,304.77 539.526,304.31 537.908,304.038 536.103,303.414 533.803,302.712 
			533.803,302.712 530.998,301.487 530.728,301.405 527.688,299.738 527.552,299.697 525.588,298.137 525.453,298.095 
			524.072,296.565 523.613,296.13 521.809,293.805 521.715,293.629 521.433,293.099 520.175,291.163 518.947,288.644 518.9,288.556 
			518.612,287.803 518.131,286.473 517.726,284.65 517.574,283.938 517.422,281.526 517.399,280.632 517.571,278.614 
			517.795,276.908 518.48,273.938 518.556,273.444 518.804,272.633 519.588,270.063 520.094,268.886 520.931,266.628 
			521.691,264.864 522.074,264.093 523.264,261.647 523.346,261.377 524.712,258.836 526.503,255.39 526.544,255.255 
			526.632,255.208 526.715,254.937 528.199,251.768 528.741,250.233 529.372,248.651 529.896,246.445 530.303,244.869 
			530.222,243.44 530.3,241.245 529.983,239.375 529.761,237.68 529.044,235.909 528.709,235.068 528.521,234.715 527.828,233.838 
			526.993,232.696 526.44,232.084 525.247,230.907 524.242,230.083 521.872,228.399 521.325,228.011 520.914,227.663 
			517.644,225.779 516.374,225.096 514.428,224.206 512.346,223.276 508.958,222.021 508.505,221.809 507.106,221.308 
			504.759,220.518 504.13,220.4 501.201,219.581 500.119,219.251 499.895,219.256 496.161,218.413 494.631,218.094 491.979,217.581 
			488.832,216.991 487.932,216.79 486.809,216.595 484.65,216.159 482.533,215.587 481.227,215.263 479.469,214.726 
			478.251,214.355 475.358,213.177 474.77,212.923 474.587,212.794 470.783,210.968 470.101,210.538 466.69,208.389 
			465.779,207.742 462.892,205.087 461.704,204.133 458.536,200.949 458.218,200.778 457.989,200.56 455.737,198.247 
			455.643,198.071 454.033,196.323 453.803,196.105 453.48,195.71 452.375,194.486 451.499,193.48 450.67,192.562 450.535,192.52 
			450.394,192.256 447.684,189.507 447.22,188.848 446.115,187.624 445.968,187.135 444.422,184.446 444.234,184.093 
			444.142,180.517 444.084,179.981 444.367,178.811 444.385,177.781 444.663,176.387 444.775,175.535 445.058,174.364 
			445.289,171.182 445.572,170.012 446.292,166.683 446.498,166.006 447.265,162.766 447.389,162.36 447.342,162.271 
			447.383,162.136 449.633,157.426 449.674,157.291 451.782,154.015 452.341,153.151 453.036,152.328 455.785,149.618 
			455.914,149.435 456.003,149.388 458.845,146.855 459.457,146.302 459.457,146.302 459.546,146.255 462.565,143.628 
			463.618,142.84 465.154,141.682 466.255,140.983 468.809,139.396 468.985,139.302 469.073,139.255 471.857,137.886 
			473.316,137.223 474.599,136.653 476.287,136.207 477.528,135.772 478.24,135.62 479.087,135.508 480.646,135.245 
			481.541,135.222 485.07,135.041 485.294,135.036 485.294,135.036 489.717,134.833 490.435,134.904 492,134.863 494.37,134.847 
			495.982,134.895 497.458,134.902 500.194,135.145 501.358,135.204 504.587,135.524 505.752,135.583 506.023,135.666 
			507.323,135.767 510.105,136.098 510.911,136.122 513.74,136.541 515.534,136.719 517.286,137.032 520.739,137.346 
			521.145,137.469 522.492,137.658 525.004,137.907 525.81,137.931 528.368,138.268 530.656,138.522 531.733,138.629 
			532.586,138.741 534.738,138.954 535.997,139.19 538.285,139.444 539.814,139.763 541.614,140.164 543.367,140.477 
			544.808,140.843 546.925,141.414 548.907,141.945 550.078,142.228 551.524,142.817 553.33,143.442 556.035,144.267 
			556.894,144.603 559.428,145.746 559.746,145.916 562.01,146.977 563.368,147.613 564.638,148.296 566.867,149.715 
			567.684,150.186 568.049,150.445 568.414,150.704 570.007,151.781 572.241,153.424 572.788,153.813 573.517,154.331 
			574.84,155.326 575.616,155.932 576.528,156.579 579.814,159.134 580.955,160 583.971,162.472 584.247,162.778 586.899,164.992 
			586.946,165.08 589.239,167.258 590.844,168.782 592.678,170.525 594.195,172.096 596.123,174.015 597.316,175.192 
			599.579,177.952 599.809,178.17 600.132,178.564 601.801,180.848 603.053,182.56 603.611,183.396 604.399,184.449 
			605.333,185.991 605.703,186.474 607.766,190.134 607.954,190.487 		">
		</polygon>
	</g>
</g>
<g id="Layer_1">
</g>
</svg>
