<?xml version="1.0" encoding="iso-8859-1"?>
<!-- Generator: Adobe Illustrator 19.2.1, SVG Export Plug-In . SVG Version: 6.00 Build 0)  -->
<svg version="1.1" xmlns="http://www.w3.org/2000/svg" xmlns:xlink="http://www.w3.org/1999/xlink" x="0px" y="0px"
	 viewBox="0 0 841.89 595.28" style="enable-background:new 0 0 841.89 595.28;" xml:space="preserve">
<g id="layer189">
	<g id="layer189_1_" slic3r:z="7.58000000000005e-005">
		<polygon slic3r:type="contour" style="fill:#FFFFFF;stroke:#000000;stroke-miterlimit:10;" points="578.388,270.698 
			578.922,272.34 578.779,275.475 578.743,275.834 578.443,276.334 576.135,278.809 574.446,280.955 573.616,281.737 
			573.092,282.242 570.703,283.288 569.732,283.805 568.709,284.01 567.497,283.862 564.08,283.19 563.268,282.942 562.998,282.86 
			562.862,282.818 562.545,282.647 559.576,280.263 558.971,279.339 557.989,277.709 557.566,276.915 557.555,276.468 
			557.726,274.45 558.074,274.039 558.716,272.904 559.617,271.405 560.523,270.129 561.265,269.394 563.165,268.495 
			565.402,266.737 565.402,266.737 568.602,265.939 569.049,265.928 570.255,265.852 573.073,265.824 574.696,266.32 
			577.066,268.003 577.989,269.098 		">
		</polygon>
	</g>
</g>
<g id="Layer_1">
</g>
</svg>
